<svg id="圖層_1" data-name="圖層 1" xmlns="http://www.w3.org/2000/svg" viewBox="0 0 84.18945 37.05957"><path d="M81.63477,28.44824H74.02441a38.62762,38.62762,0,0,1-11.91992,8.373q-2.18115.23877-3.19336.23828a23.05412,23.05412,0,0,1-6.27929-.95215l-1.96973.76172-1.85254.09473q-7.938,0-7.93848-5.1377,0-.2373.0293-.76074A8.32412,8.32412,0,0,1,36.4082,29.376a4.52227,4.52227,0,0,1-1.498-3.5918,5.93944,5.93944,0,0,1,.58593-2.33106,7.00453,7.00453,0,0,1-3.51269-1.80273,4.30385,4.30385,0,0,1-1.1709-3.084,4.29751,4.29751,0,0,1,.665-2.39649,5.2913,5.2913,0,0,1,1.99609-1.73144l-1.916-.4043-19.15821-.19043q-6.17284,0-9.28613-1.28418Q.00049,11.2749,0,8.75293A4.20043,4.20043,0,0,1,2.9707,4.61426q2.97217-1.188,10.45215-1.18946l21.7002-.42773,2.18164-1.80762L51.99316,0A114.40851,114.40851,0,0,1,69.98047,6.13672H81.36914A24.3223,24.3223,0,0,1,84.18945,17.625,25.16016,25.16016,0,0,1,81.63477,28.44824ZM32.46191,5.32812l-19.47656.42774q-10.37841,0-10.37793,3.04492,0,1.333,3.21973,2.02149a49.78529,49.78529,0,0,0,9.65918.69043l12.08008.04785a15.42938,15.42938,0,0,1-1.27735-1.18946ZM79.8252,25.97461a24.54272,24.54272,0,0,0,1.65039-8.63477A22.64178,22.64178,0,0,0,79.6123,8.46777H69.92676q-13.51611-4.853-18.09375-6.042L38.32227,3.47266l-8.25489,6.85058a8.28864,8.28864,0,0,0,5.30176,1.85547q4.56006,0,9.06738-4.23437A21.838,21.838,0,0,0,54.49414,10.418l.9043-.04688L55.292,12.70215l-1.22363.09473a20.95529,20.95529,0,0,1-9.09961-2.0459,23.94169,23.94169,0,0,1-5.84082,3.09277l4.8291.04785a13.35628,13.35628,0,0,1,2.82031-1.04687,11.60822,11.60822,0,0,1,2.71485-.333q6.12012,0,9.73828,6.32715l-3.72559,1.42675q3.5127.99317,6.43946,5.43067l-3.29883,1.32519a13.42778,13.42778,0,0,1,4.31054,5.043L56.30371,34.585q2.71436.334,3.51172.333a15.37149,15.37149,0,0,0,1.86328-.18945A37.87086,37.87086,0,0,0,72.6416,25.97461ZM55.55859,17.8877a6.79731,6.79731,0,0,0-6.0664-3.04493,8.03636,8.03636,0,0,0-2.36817.36817,10.98707,10.98707,0,0,0-2.42187,1.10644h-6.832a7.5231,7.5231,0,0,0-3.25782.54688,1.75576,1.75576,0,0,0-1.08593,1.6416,2.48491,2.48491,0,0,0,1.58984,2.30762,11.04074,11.04074,0,0,0,4.71484.78418l5.61622-.04688Zm2.501,6.83105q-1.86181-2.50488-6.22656-3.02539l-5.53418,2.18848L38.4834,23.834a3.6414,3.6414,0,0,0-.80567,1.998,2.43906,2.43906,0,0,0,1.31153,2.23633,8.02116,8.02116,0,0,0,3.93066.76074l4.81543-.1084Zm1.1709,6.20313a12.60169,12.60169,0,0,0-3.459-2.71094l-7.13086,2.85449h-5.1621q0,3.56689,4.94921,3.56738l2.0752-.04785Z"/></svg>