<svg id="圖層_1" data-name="圖層 1" xmlns="http://www.w3.org/2000/svg" viewBox="0 0 1920.00009 89.96703"><defs><style>.cls-1{font-size:52.75111px;font-family:PingFangTC-Regular-B5pc-H, PingFang TC;}.cls-1,.cls-2,.cls-3{fill:#ff00c9;}.cls-3{font-size:30.66319px;font-family:ArialMT, Arial;letter-spacing:-0.02em;}</style></defs><text class="cls-1" transform="translate(1256.82679 63.881)">ONE SHEEP, TWO SLEEP.</text><path class="cls-2" d="M718.19658,33.28861c-2.71688-2.94526-6.46229-4.43851-11.13207-4.43851-4.74971,0-8.39169,1.46666-11.13461,4.48479-2.514,2.78939-3.78863,6.49339-3.78863,11.00911,0,4.56508,1.23972,8.13835,3.79277,10.92648,2.75685,2.94454,6.50171,4.43761,11.13045,4.43761,4.6403,0,8.38463-1.463,11.1346-4.355A15.885,15.885,0,0,0,722.03275,44.344c0-4.556-1.29035-8.27542-3.83527-11.0545Zm-18.11514,3.24994.00217-.00253a8.4998,8.4998,0,0,1,6.98089-2.91651,8.75576,8.75576,0,0,1,7.03207,2.8809c1.63392,1.83591,2.46228,4.47485,2.46228,7.84361,0,3.33982-.82836,5.96412-2.46229,7.8a8.95592,8.95592,0,0,1-7.03207,2.79409,8.75888,8.75888,0,0,1-7.02954-2.9214,11.351,11.351,0,0,1-2.4196-7.67273A11.54338,11.54338,0,0,1,700.08144,36.53855Z"/><path class="cls-2" d="M722.69313,28.98518V28.985a22.5647,22.5647,0,0,0-31.256-.0011,20.34748,20.34748,0,0,0-6.48346,15.1865,20.48084,20.48084,0,0,0,6.48217,15.18489,22.56228,22.56228,0,0,0,31.25834-.00124,21.02659,21.02659,0,0,0-.00107-30.36887Zm3.8199,15.18525a18.04963,18.04963,0,0,1-5.65637,13.37067,20.04264,20.04264,0,0,1-27.5791.00523,18.05525,18.05525,0,0,1-5.6616-13.37592A18.14886,18.14886,0,0,1,693.275,30.7972a20.04107,20.04107,0,0,1,27.57766-.00143A18.14935,18.14935,0,0,1,726.513,44.17043Z"/><polygon class="cls-2" points="756.412 29.107 756.412 51.135 738.241 29.225 738.143 29.107 734.003 29.107 734.003 60.098 739.12 60.098 739.12 38.07 757.291 59.98 757.389 60.098 761.529 60.098 761.529 29.107 756.412 29.107"/><path class="cls-2" d="M791.814,52.70175l-.33055.274a12.52565,12.52565,0,0,1-4.54773,2.27784,21.01087,21.01087,0,0,1-5.8681.81081c-3.017,0-5.26216-.47051-6.673-1.39868a4.03542,4.03542,0,0,1-2.0623-3.519,3.679,3.679,0,0,1,.85747-2.51689,5.23388,5.23388,0,0,1,2.48326-1.505,13.32509,13.32509,0,0,1,3.87669-.50613l8.54032,0V42.23927l-8.36167,0a7.622,7.622,0,0,1-4.53868-1.15022,3.70381,3.70381,0,0,1-1.5182-3.20439,3.958,3.958,0,0,1,1.93591-3.35139c1.32237-.92437,3.36966-1.39288,6.08509-1.39288a20.71085,20.71085,0,0,1,4.54827.49058,17.76255,17.76255,0,0,1,4.23,1.55328l.32693.16889,1.52145-4.07433-.24411-.13688a17.79689,17.79689,0,0,0-4.82059-1.767,26.461,26.461,0,0,0-5.74062-.61462,19.03087,19.03087,0,0,0-7.20005,1.1947,9.66364,9.66364,0,0,0-4.33834,3.21215,7.52185,7.52185,0,0,0-1.42074,4.4141,7.9368,7.9368,0,0,0,1.00213,3.97469,6.99224,6.99224,0,0,0,2.72176,2.67566q-.1603.06645-.31843.13815a8.48152,8.48152,0,0,0-3.433,2.77221,7.19575,7.19575,0,0,0-1.3117,4.30813,7.57975,7.57975,0,0,0,1.56142,4.68317,9.99443,9.99443,0,0,0,4.61028,3.18558,21.61191,21.61191,0,0,0,7.45737,1.12581,26.205,26.205,0,0,0,7.18721-.94444,14.89884,14.89884,0,0,0,5.38477-2.64039l.19312-.1584Z"/><path class="cls-2" d="M821.67265,60.59444c-8.52659,0-13.52626-3.51023-13.52625-8.58031a6.72108,6.72108,0,0,1,6.696-6.76058,49.88175,49.88175,0,0,0,12.72273,11.70074l.04428-.08637c-6.82954-5.85038-14.77617-12.43749-14.77616-19.67424,0-5.89392,6.29459-8.75378,12.4549-8.75377,5.89247,0,11.60638,2.6,11.60638,7.54016,0,2.3837-2.14272,4.72385-4.68684,6.06667-4.01831-4.28979-7.76806-6.54356-12.41061-9.23l-.04428.04283C827.52013,38.19028,834.529,43.60732,834.529,51.191,834.529,57.51756,829.975,60.59445,821.67265,60.59444Z"/><polygon class="cls-2" points="862.836 29.107 862.836 42.152 845.544 42.152 845.544 29.107 840.427 29.107 840.427 60.098 845.544 60.098 845.544 46.576 862.836 46.576 862.836 60.098 867.953 60.098 867.953 29.107 862.836 29.107"/><path class="cls-2" d="M897.89863,52.66132l-.37937.31445a12.53047,12.53047,0,0,1-4.54808,2.27784,21.00913,21.00913,0,0,1-5.86811.81081c-3.01723,0-5.262-.47051-6.67277-1.39868a4.03483,4.03483,0,0,1-2.06211-3.519,3.67886,3.67886,0,0,1,.8571-2.51689,5.23511,5.23511,0,0,1,2.48344-1.505,13.32642,13.32642,0,0,1,3.87687-.50613l8.54032,0,0-4.37938-8.362,0a7.62315,7.62315,0,0,1-4.53869-1.15022,3.70354,3.70354,0,0,1-1.51783-3.20439,3.95805,3.95805,0,0,1,1.93554-3.35139c1.32255-.92437,3.36984-1.39288,6.08509-1.39288a20.7004,20.7004,0,0,1,4.54845.49058,17.75507,17.75507,0,0,1,4.22984,1.55328l.32693.16889,1.52146-4.07433-.24412-.13688a17.79719,17.79719,0,0,0-4.8204-1.7672,26.47426,26.47426,0,0,0-5.74045-.61444,19.02874,19.02874,0,0,0-7.20005,1.1947,9.66356,9.66356,0,0,0-4.33833,3.21215,7.52155,7.52155,0,0,0-1.42092,4.4141,7.93583,7.93583,0,0,0,1.00212,3.97469,6.99239,6.99239,0,0,0,2.72213,2.67584q-.16165.06672-.31861.138a8.47989,8.47989,0,0,0-3.43313,2.77221,7.19568,7.19568,0,0,0-1.3117,4.30813,7.58,7.58,0,0,0,1.56159,4.68317,9.99484,9.99484,0,0,0,4.61029,3.18558,21.60934,21.60934,0,0,0,7.45718,1.12581,26.20411,26.20411,0,0,0,7.187-.94444,12.63237,12.63237,0,0,0,4.97736-2.323l.16853-.138Z"/><path class="cls-2" d="M938.91823,31.39408a21.14419,21.14419,0,0,0-2.83062-3.60183A5.09435,5.09435,0,0,0,937.8568,24.377c0-1.5417-1.15438-2.42593-3.16732-2.42594a12.40665,12.40665,0,0,0-4.86489,1.25456,24.99715,24.99715,0,0,0-11.33116-2.71418c-6.69519,0-10.19812,3.68392-10.19812,7.32319,0,4.54049,3.19118,7.04093,8.98514,7.04093a23.52256,23.52256,0,0,0,2.87619-.17612c-.03725.2971-.06112.6-.0716.913-.27088-.02206-.54392-.03309-.81588-.03309-12.56836,0-21.69094,7.33729-21.691,17.44662,0,3.82515,1.05276,6.79085,3.13006,8.81843a17.0156,17.0156,0,0,0-.17178,2.318c0,6.46446,3.75245,10.17208,10.295,10.17209,4.80594,0,9.52473-2.0773,13.6468-6.00733a35.808,35.808,0,0,0,8.36023-12.819l.12766-.3309-1.14715-.4432-.128.33054a34.813,34.813,0,0,1-8.03656,12.36746c-3.90074,3.74378-8.33491,5.72253-12.823,5.72253-5.722,0-9.00359-3.26026-9.00359-8.94483,0-.453.02351-.92148.07053-1.39885a11.829,11.829,0,0,0,6.84744,1.871c10.57206,0,19.84943-11.63747,19.84943-18.67189,0-3.65987-2.31346-5.67534-6.51364-5.67534-10.33373,0-19.12468,10.21745-21.1416,20.012A8.15472,8.15472,0,0,1,899.0635,54.937c0-9.373,11.51995-18.19777,20.44868-18.19776.208,0,.41518.01085.63868.02586a4.42016,4.42016,0,0,0,4.13689,3.41125c.93739,0,1.54315-.472,1.54315-1.2023,0-1.18151-1.733-2.71218-4.55532-3.2194a10.72113,10.72113,0,0,1,.09982-1.27553c5.21388-.89381,10.69611-3.23,13.85076-5.89522a21.14606,21.14606,0,0,1,2.70151,3.46767l.2018.32458.96235-.7025Zm-18.558,2.05885a23.47587,23.47587,0,0,1-3.07979.22278c-6.43987,0-7.79171-3.18721-7.79171-5.86106,0-2.95882,2.8176-6.14332,9.00468-6.14331a24.18934,24.18934,0,0,1,9.99632,2.18092C924.26642,26.16464,921.26582,29.70065,920.36025,33.45293Zm1.2853-.19691c.55007-1.83193,2.389-5.986,8.13817-8.76418a22.17829,22.17829,0,0,1,4.64465,3.31C931.54314,30.21926,926.52455,32.3604,921.64555,33.256Zm2.94273,5.577c0,.10849,0,.25731-.37286.25731a3.52871,3.52871,0,0,1-2.75648-2.13608C923.52539,37.40647,924.58828,38.44314,924.58828,38.833Zm10.1012-15.702c1.97279,0,1.97279.93794,1.97279,1.24606a4.0246,4.0246,0,0,1-1.36992,2.6375,23.31924,23.31924,0,0,0-4.15859-3.10294A10.4044,10.4044,0,0,1,934.68948,23.131ZM902.07386,61.42713c1.92325-11.75682,12.05085-19.93241,20.00783-19.93241,3.42987,0,5.3184,1.5965,5.3184,4.49529,0,6.57965-9.03507,17.49184-18.65419,17.49183A10.748,10.748,0,0,1,902.07386,61.42713Z"/><path class="cls-2" d="M938.31274,28.972l12.939,0v2.38733H953.711v2.42652l2.49911,0,0,10.0966H953.711V46.309l-2.45919,0v2.42653l-9.95652,0,0,12.1319h-2.98252Zm12.49554,16.90656V43.45207h2.49911V34.21632h-2.49911l0-2.42652-9.513,0,0,14.0888Z"/><path class="cls-2" d="M941.62189,61.19407h-3.63565l0-32.5487,13.59219,0V31.033h2.4592v2.42629l2.499,0,0,10.74981h-2.499l0,2.42629h-2.4592l0,2.42666-9.95653,0Zm-2.98251-.653h2.32937l0-12.132h9.95654V46.205l-9.95654,0,0-14.74168,9.95654,0v-2.165l-12.28591,0Zm12.49531-14.5585h2.24982V43.77855H951.1347Zm-9.51279-.43055h8.85966V43.12541l2.49935,0,0-8.58264h-2.49935V32.11612l-8.85966,0ZM953.63405,43.556h2.24945V34.11242h-2.24945ZM951.1347,33.89h2.24982V31.68576H951.1347Z"/><path class="cls-2" d="M982.36032,56.68633c.73458-1.89419,2.95945-4.05925,6.62375-6.44363a44.97673,44.97673,0,0,0,6.59886-4.98163,10.62815,10.62815,0,0,0,3.18181-7.43137,8.5588,8.5588,0,0,0-2.93885-6.72168l-.00269-.00232a11.03074,11.03074,0,0,0-7.41435-2.5235,10.4926,10.4926,0,0,0-7.96722,3.18824,11.66789,11.66789,0,0,0-3.05219,8.41946v.32316h4.26568l.00519-.31779a8.8657,8.8657,0,0,1,1.87539-5.94072,5.62047,5.62047,0,0,1,4.74084-2.02273,6.68924,6.68924,0,0,1,4.60154,1.46272,5.167,5.167,0,0,1,1.6165,4.09273,7.58872,7.58872,0,0,1-2.33891,5.26594,38.46635,38.46635,0,0,1-4.89821,3.77512,38.81058,38.81058,0,0,0-6.90841,5.49851,11.20493,11.20493,0,0,0-3.2246,7.81467v.32316l21.68467,0V56.68634Z"/><path class="cls-2" d="M1030.393,67.09722c.64595-1.50031,1.4867-3.40953,2.53907-5.71872.29451-.63038,1.39271-2.93706,3.20795-6.253,9.6924-9.40557,17.57118-20.0293,17.57118-23.69736a1.1004,1.1004,0,0,0-1.10751-1.21064c-4.12835,0-15.86892,21.38156-17.33557,24.083-4.81532,4.659-13.64782,12.45328-22.90928,16.8645a70.03939,70.03939,0,0,0,15.885-13.52157c5.20687-6.27427,7.8471-13.00167,7.8471-19.9953,0-3.22369-1.40058-6.917-4.46762-7.60968-.75069-3.99982-3.41347-6.19765-7.52357-6.19765-10.1074,0-26.82888,13.6349-26.82889,29.17313a21.09374,21.09374,0,0,0,1.49118,7.8743l.49521.20553.488-.20821.20088-.48411a19.8012,19.8012,0,0,1-1.43746-7.38751c0-6.61747,3.36371-13.72335,9.22853-19.4956,5.18806-5.10607,11.61057-8.40531,16.36251-8.40531,2.35377,0,5.29781.84666,6.22109,4.79437-4.37041.13034-10.59473,3.38518-15.96344,8.36735-5.83994,5.41937-9.32646,11.5744-9.32646,16.46437,0,4.1545,2.08861,5.02658,3.84064,5.02658,8.72955,0,22.97355-15.18838,22.97356-27.18746,0-.4159-.02327-.8232-.05335-1.2015,2.22.79849,3.06131,4.181,3.06131,6.2714,0,4.37328-3.35011,11.24731-8.96177,18.3881-5.87037,7.4704-13.15368,13.90722-19.98188,17.66014l-.17349.45206.14609.41841.45368.23775c10.24328-2.82784,20.88654-11.4231,27.18265-17.20341-.67245,1.29854-1.22621,2.418-1.60737,3.252-2.99776,6.47049-5.54991,13.18088-5.57533,13.24784l.35055.50792h.58562l.32889-.19514.05156-.09436a77.81556,77.81556,0,0,1,8.43451-12.60778c5.67755-6.78989,11.18734-10.27587,16.37612-10.36108l.36881-.3749v-.52242l-.38081-.3749C1043.1227,50.22447,1034.581,60.88956,1030.393,67.09722Zm7.8351-15.759c6.61909-11.7067,12.20086-19.49936,14.24311-19.837C1052.37557,34.23311,1046.99952,42.33639,1038.22807,51.33824Zm-29.35649,7.15421c-1.72661,0-2.60191-1.26274-2.6019-3.75329,0-4.61461,3.33936-10.444,8.93258-15.59336,5.17034-4.76,11.15207-7.86391,15.32322-7.96668a12.45028,12.45028,0,0,1,.08092,1.39916c0,4.14769-3.33023,10.31579-8.90841,16.49964C1016.77722,54.5331,1011.3829,58.49245,1008.87158,58.49245Z"/><path class="cls-2" d="M1083.73169,38.73567a15.36968,15.36968,0,0,0-3.576-5.10714,16.29241,16.29241,0,0,0-5.43781-3.35619,19.17,19.17,0,0,0-6.79956-1.18288,18.96621,18.96621,0,0,0-6.847,1.20561,16.555,16.555,0,0,0-5.43585,3.37766,15.71527,15.71527,0,0,0-.00019,22.88224,16.48812,16.48812,0,0,0,5.45948,3.37874,20.01708,20.01708,0,0,0,13.6231.02167,16.26622,16.26622,0,0,0,5.438-3.35618,15.401,15.401,0,0,0,3.5755-5.08422,16.72327,16.72327,0,0,0,.00037-12.77931Zm-3.90726,6.37864a11.45786,11.45786,0,0,1-.89894,4.56037,11.14877,11.14877,0,0,1-6.27409,6.04779,13.02717,13.02717,0,0,1-4.77861.85435,12.89184,12.89184,0,0,1-4.73349-.85454,11.52148,11.52148,0,0,1-3.798-2.40748,11.07165,11.07165,0,0,1-2.52134-3.64031,11.44629,11.44629,0,0,1-.89876-4.56019,11.27157,11.27157,0,0,1,7.21833-10.60887,12.90506,12.90506,0,0,1,4.73332-.85381,13.03776,13.03776,0,0,1,4.77861.85382,11.15717,11.15717,0,0,1,3.77225,2.427,11.57725,11.57725,0,0,1,2.50237,3.64479A11.304,11.304,0,0,1,1079.82443,45.11431Z"/><path class="cls-2" d="M1121.12269,47.56156a7.86064,7.86064,0,0,0-2.7872-2.50577,17.79472,17.79472,0,0,0-3.73681-1.48652c-1.34778-.37329-2.69841-.71382-4.01432-1.01209a37.17745,37.17745,0,0,1-3.61506-.99937,7.2197,7.2197,0,0,1-2.58222-1.435,2.91748,2.91748,0,0,1-.93241-2.29254,3.71329,3.71329,0,0,1,.7122-2.21412,4.93211,4.93211,0,0,1,2.307-1.60344,11.86325,11.86325,0,0,1,4.17133-.6225,16.65577,16.65577,0,0,1,4.20552.56862,14.18737,14.18737,0,0,1,4.10491,1.826l.32262.20875,1.71479-4.03454-.22451-.14842a15.5635,15.5635,0,0,0-4.69428-2.01755,21.70155,21.70155,0,0,0-5.429-.69644,16.81653,16.81653,0,0,0-6.8282,1.2083,9.04335,9.04335,0,0,0-4.02881,3.25216,8.07374,8.07374,0,0,0-1.31143,4.44489,7.27957,7.27957,0,0,0,1.071,4.10544,7.76164,7.76164,0,0,0,2.78828,2.5294,18.6318,18.6318,0,0,0,3.73359,1.50712c1.34419.38707,2.69715.72813,4.02165,1.01369a30.52952,30.52952,0,0,1,3.60719.99759,7.48,7.48,0,0,1,2.58561,1.45752,2.8705,2.8705,0,0,1,.93277,2.24957,3.54626,3.54626,0,0,1-.7301,2.18673,4.89236,4.89236,0,0,1-2.32638,1.542,12.99052,12.99052,0,0,1-4.26639.58186,16.44514,16.44514,0,0,1-5.59233-.96751,14.181,14.181,0,0,1-4.40818-2.43075l-.31725-.26981-1.92445,3.93984.18083.1631A14.33584,14.33584,0,0,0,1103.03124,59.4a22.085,22.085,0,0,0,6.86275,1.0674,17.14508,17.14508,0,0,0,6.87064-1.2074,9.17751,9.17751,0,0,0,4.096-3.25127,7.91121,7.91121,0,0,0,1.33417-4.40371A7.10468,7.10468,0,0,0,1121.12269,47.56156Z"/><path class="cls-2" d="M1174.79225,53.54744l-.32692.27124a12.41035,12.41035,0,0,1-4.50272,2.25529,20.80464,20.80464,0,0,1-5.81.80279c-2.98737,0-5.21027-.46585-6.60709-1.38484a3.99487,3.99487,0,0,1-2.04171-3.48419,3.6424,3.6424,0,0,1,.84862-2.492,5.18324,5.18324,0,0,1,2.45886-1.4901,13.19448,13.19448,0,0,1,3.83851-.50112l8.4558,0v-4.336l-8.27927,0a7.54766,7.54766,0,0,1-4.49377-1.13884,3.66747,3.66747,0,0,1-1.50281-3.17267,3.91887,3.91887,0,0,1,1.91638-3.31823c1.30946-.91522,3.33649-1.3791,6.02523-1.3791a20.49465,20.49465,0,0,1,4.50308.48573,17.57058,17.57058,0,0,1,4.188,1.53791l.32369.16721,1.5064-4.034-.24169-.13553a17.62121,17.62121,0,0,0-4.77271-1.74971,26.198,26.198,0,0,0-5.68363-.60836,18.84223,18.84223,0,0,0-7.1288,1.1827,9.56691,9.56691,0,0,0-4.2954,3.18054,7.44708,7.44708,0,0,0-1.40685,4.37041,7.86091,7.86091,0,0,0,.9922,3.93536,6.92454,6.92454,0,0,0,2.69519,2.64936q-.16007.06606-.31546.1366a8.396,8.396,0,0,0-3.39915,2.74478,7.12443,7.12443,0,0,0-1.29872,4.2655,7.50487,7.50487,0,0,0,1.54614,4.63682,9.89044,9.89044,0,0,0,4.56466,3.15387,21.39389,21.39389,0,0,0,7.38338,1.11486,25.945,25.945,0,0,0,7.11591-.9351,14.74366,14.74366,0,0,0,5.33166-2.61426l.1912-.15683Z"/><path class="cls-2" d="M1213.429,30.16269a4.25987,4.25987,0,0,0-3.01924-1.03823,13.85122,13.85122,0,0,0-4.03508.70969,30.3684,30.3684,0,0,0-4.82,2.02166,43.40473,43.40473,0,0,0-5.023,3.04591c-5.41365,3.78336-8.04546,7.13112-8.04546,10.235a3.71369,3.71369,0,0,0,2.96087,3.8258,39.60571,39.60571,0,0,0-11.02424,7.76239c-2.81836,2.99489-4.24742,6.061-4.24742,9.11357a7.94919,7.94919,0,0,0,1.55187,4.87225,9.54863,9.54863,0,0,0,4.39637,3.14367,18.83021,18.83021,0,0,0,6.62356,1.06294,31.56548,31.56548,0,0,0,7.65552-1.06776,50.25877,50.25877,0,0,0,8.54676-3.05934l.16614-.07627,1.00868-4.85452-.67639.35091c-2.94691,1.52913-5.60307,2.77986-7.89435,3.71729a44.9449,44.9449,0,0,1-6.25762,2.09649,21.7702,21.7702,0,0,1-5.1.683,8.34167,8.34167,0,0,1-5.30193-1.62331,4.96528,4.96528,0,0,1-2.02165-4.12263c0-3.46915,2.83233-7.25806,8.41857-11.26145a52.65568,52.65568,0,0,1,10.23326-5.80447l.17581-.07358.57256-2.736-1.00869.00036a12.86568,12.86568,0,0,1-3.18072-.40426,3.14915,3.14915,0,0,1-1.389-1.0991,2.64227,2.64227,0,0,1-.55859-1.60164,7.43076,7.43076,0,0,1,1.91209-4.3,22.24025,22.24025,0,0,1,5.30766-4.7104,26.848,26.848,0,0,1,5.06633-2.704,12.00963,12.00963,0,0,1,4.21949-.99811c2.17491,0,2.42627,1.09354,2.42627,1.916,0,2.14-1.752,5.10051-5.20741,8.79937l-.232.24814,2.28233,2.425.26389-.24635a24.57612,24.57612,0,0,0,3.31394-3.82006,20.22845,20.22845,0,0,0,2.26694-4.06909,9.71193,9.71193,0,0,0,.79205-3.53522A3.70456,3.70456,0,0,0,1213.429,30.16269Z"/><path class="cls-2" d="M1242.89236,34.43483a10.13454,10.13454,0,0,0-4.5618-3.7241,17.82182,17.82182,0,0,0-7.06793-1.27062h-12.38919l0,30.68384h5.06668l0-9.09675,7.32251,0a17.54382,17.54382,0,0,0,7.06972-1.29388,10.67716,10.67716,0,0,0,4.56-15.2985Zm-18.95224-.61554,7.19038,0c2.73852,0,4.83394.56808,6.2279,1.68776a5.672,5.672,0,0,1,2.06677,4.72652,5.66834,5.66834,0,0,1-2.06678,4.72561c-1.39253,1.12-3.488,1.68812-6.22789,1.68812l-7.19039,0Z"/><polygon class="cls-2" points="1131.256 55.745 1131.256 29.44 1126.189 29.44 1126.189 60.124 1148.007 60.124 1148.007 55.745 1131.256 55.745"/><text class="cls-3" transform="translate(958.66627 59.77651)">,</text><text class="cls-1" transform="translate(16.87562 63.881)">ONE SHEEP, TWO SLEEP.</text></svg>