<svg id="圖層_1" data-name="圖層 1" xmlns="http://www.w3.org/2000/svg" viewBox="0 0 797.90158 259.65307"><defs><style>.cls-1{fill:#ff00c9;}</style></defs><path class="cls-1" d="M549.76388,125.78616c4.27078,6.69035,11.52152,9.08631,16.8528,9.91637a28.18292,28.18292,0,0,0,4.34677.33257,31.04084,31.04084,0,0,0,6.19021-.63893,37.65055,37.65055,0,0,0,7.79014-2.45094,24.15017,24.15017,0,0,0,12.90675-13.85465,25.55533,25.55533,0,0,0-.99506-19.74111C589.15964,83.311,576.61685,83.74041,570.82728,84.9554a14.01108,14.01108,0,0,0,1.37735-2.15505,11.84654,11.84654,0,0,0,.61013-9.356,10.75918,10.75918,0,0,0-5.7843-6.81864c-4.44626-2.04245-9.91379-.97672-12.95393-.08641A16.33619,16.33619,0,0,0,556.06145,56.492a8.34033,8.34033,0,0,0-7.69066-7.16692,13.39365,13.39365,0,0,0-2.83325-.03664c8.22478-6.73487,11.72577-18.657,7.81108-28.6415C550.25613,12.752,543.69406,7.638,534.37737,5.85744a46.16362,46.16362,0,0,0-24.68226,2.58708c-10.228,3.98542-22.67386,12.65015-25.76634,24.4178a7.766,7.766,0,0,0-4.263-2.49283c-6.5882-1.647-10.17557,2.90921-11.54509,5.26064a11.05412,11.05412,0,0,0-4.76311-3.23389c-5.59059-1.9325-11.08425-.53417-15.89187,4.04826a20.05392,20.05392,0,0,0-6.33424,14.48831c.03931,9.11511,6.70343,12.85961,11.19948,14.34956a18.303,18.303,0,0,0-9.09942,6.90769c-5.63246,7.60683-6.23211,16.879-1.60254,24.80011a21.326,21.326,0,0,0,3.88856,4.88879c-3.44864.83269-10.45055,3.55859-10.88263,12.03739a10.5547,10.5547,0,0,0,1.27523,6.10118c-8.10964-1.28307-16.06472,1.3852-22.64245,7.68015-9.14393,8.75114-13.7918,22.9593-11.299,34.55152,2.64738,12.31235,14.4517,21.09227,28.707,21.34627.18851.00523.377.00523.56817.00523a31.892,31.892,0,0,0,27.57577-15.95731A35.68522,35.68522,0,0,0,463.025,155.6636a17.63175,17.63175,0,0,0,2.75206.2278,21.04809,21.04809,0,0,0,5.06685-.64938c4.08491-1.02122,9.56809-3.42767,12.47726-9.07583a23.644,23.644,0,0,0,2.67615-9.54454,20.09067,20.09067,0,0,0,3.56125-.18592,7.9016,7.9016,0,0,0-1.38527,6.75057,11.45851,11.45851,0,0,0,1.6576,3.09248,9.701,9.701,0,0,0-5.22923,3.391c-1.469,2.00056-1.88534,4.5772-1.236,7.66445,1.43233,6.80033,8.2458,9.157,12.18143,9.95566a17.67535,17.67535,0,0,0,3.49836.35087,17.32434,17.32434,0,0,0,4.47247-.58393c4.2158-1.13644,11.61582-4.34413,13.78653-13.035a16.97388,16.97388,0,0,0-1.25165-12.08713,14.26988,14.26988,0,0,0,3.16057.34563,21.85672,21.85672,0,0,0,7.908-1.67324c11.41157-4.54054,13.111-13.06908,13.17121-17.463a10.08435,10.08435,0,0,0,6.82122,2.6133h.06553a10.21,10.21,0,0,0,2.46135-.31947A.89756.89756,0,0,0,549.76388,125.78616Zm-64.53376,9.05227a.87815.87815,0,0,0-.686.22519.86669.86669,0,0,0-.275.66772c.19115,4.7186-2.43258,9.555-2.47189,9.62311-2.62373,5.09827-7.63041,7.27951-11.36961,8.21172a17.7571,17.7571,0,0,1-7.19577.38753,8.70828,8.70828,0,0,1-1.52135-.34041,15.56521,15.56521,0,0,1-10.935-18.22759A12.01438,12.01438,0,0,1,461.069,126.192a12.54907,12.54907,0,0,0,3.52712,2.30169.88068.88068,0,0,0,.32212.06285.86283.86283,0,0,0,.32468-1.66278c-.03667-.01308-3.5769-1.47945-4.52745-4.18441a4.81534,4.81534,0,0,1,.54468-4.03516c3.05844-5.48321,9.69643-2.629,9.9766-2.50332a.86338.86338,0,0,0,1.21241-.84839c-.25668-3.71046-.12051-8.86374,4.00108-10.73336a6.892,6.892,0,0,1,7.94989,1.6392c1.77794,1.89058,1.8879,4.59028.32731,8.02319a22.82711,22.82711,0,0,1-3.07418,4.839.86117.86117,0,0,0,1.29879,1.1312,24.18457,24.18457,0,0,0,3.16321-4.87308c3.65546-.87983,8.54691-.03666,10.72025,2.9825,2.44569,3.39623,2.08177,8.31906.45821,11.42465C494.12528,135.80727,485.32178,134.85151,485.23012,134.83843Zm30.4143,18.72248c-1.87232,7.48377-7.87134,10.56317-12.57419,11.82792a15.67579,15.67579,0,0,1-7.18.20947c-4.29962-.872-9.66766-3.07676-10.83548-8.6202-.54468-2.57926-.23047-4.68979.92953-6.27661,1.93513-2.64211,5.64293-3.04012,5.67961-3.04536a.86171.86171,0,0,0,.41378-1.56326,8.13369,8.13369,0,0,1-2.24934-3.38314c-1.04221-4.24988,2.45878-6.71393,3.10031-7.125a10.618,10.618,0,0,0,5.8917-5.03019c1.8696-3.57429,2.26764-9.267-.58655-13.23145-2.44568-3.39622-7.33449-4.462-11.33038-3.8859,1.1548-3.40408.73583-6.28448-1.249-8.3924A8.59344,8.59344,0,0,0,475.738,103.018c-4.58507,2.08173-5.21086,7.05171-5.08,11.10519-3.16576-.95314-8.23789-1.06836-10.90357,3.71307a6.15284,6.15284,0,0,0,.01047,6.80295,13.825,13.825,0,0,0-10.66,10.317A17.31369,17.31369,0,0,0,461.336,155.30747a34.015,34.015,0,0,1-4.009,11.4718,30.17621,30.17621,0,0,1-26.62259,15.09321c-11.00042-.1964-24.15853-6.53586-27.0494-19.98464-2.3724-11.03971,2.07122-24.58539,10.804-32.94372,6.79254-6.49921,15.11945-8.89255,23.4621-6.75844a10.28743,10.28743,0,0,0,5.86549,1.67586,10.73206,10.73206,0,0,0,1.48731-.09166.86343.86343,0,0,0-.25924-1.70728c-.04451.00523-4.10847.58393-6.62224-1.6968-1.49522-1.35641-2.18126-3.49837-2.03462-6.363a10.27177,10.27177,0,0,1,5.69008-9.013,16.20873,16.20873,0,0,1,5.203-1.69943,10.65909,10.65909,0,0,0,5.99646,2.21266,6.51751,6.51751,0,0,0,.81693-.04974.86167.86167,0,1,0-.21472-1.7099c-3.38832.41895-7.90266-2.78351-10.73072-7.62517-4.27078-7.30571-3.71044-15.86568,1.50041-22.90168,3.23129-4.3651,7.1905-6.70082,11.807-6.9941a17.17982,17.17982,0,0,1,3.9592.21473,23.29106,23.29106,0,0,1,8.51023,3.37.86194.86194,0,0,0,.98986-1.41137c-.09693-.06808-6.15357-4.22371-13.32576-3.88067-.0183-.00262-.034-.01308-.05234-.01572a19.99914,19.99914,0,0,1-6.86318-2.21264,12.25978,12.25978,0,0,1-6.78982-11.3618,18.33863,18.33863,0,0,1,5.8-13.23147c4.3729-4.16605,9.12554-5.402,14.14-3.66592a8.98026,8.98026,0,0,1,5.95715,6.66156,8.32383,8.32383,0,0,1-1.35378,6.60654.863.863,0,0,0,1.414.98982,10.00165,10.00165,0,0,0,1.63394-7.92632,10.11887,10.11887,0,0,0-1.22024-3.15793c.69131-1.469,3.6529-6.75058,10.02111-5.15851,2.286.57085,3.66856,1.73084,4.22634,3.54287.84579,2.739-.5394,5.99382-.5525,6.02522a.86182.86182,0,0,0,.44774,1.13382.83867.83867,0,0,0,.34306.07072.86.86,0,0,0,.7908-.51586,11.95935,11.95935,0,0,0,.67821-6.99935c1.91939-12.15,14.72133-21.18914,25.14311-25.24787a45.04384,45.04384,0,0,1,23.72916-2.50071c6.07238,1.16,14.06933,4.48294,17.69075,13.72376,4.18439,10.67834-.741,23.74483-10.98212,29.12593-9.37694,4.928-20.7937,4.72643-28.72265,3.68686a.86216.86216,0,1,0-.22256,1.7099,70.54339,70.54339,0,0,0,9.13082.61536,48.56651,48.56651,0,0,0,15.994-2.485,23.35206,23.35206,0,0,0-4.4437,8.02579.86217.86217,0,1,0,1.66016.4661,21.96512,21.96512,0,0,1,3.16057-6.26352c2.89614-3.90685,6.54377-5.63245,10.84859-5.11922a6.56243,6.56243,0,0,1,6.19807,5.75027c.55778,3.20772-.49753,7.37118-2.8804,10.73075a.32955.32955,0,0,0-.02877.034,14.24,14.24,0,0,1-5.17425,4.5353.86592.86592,0,0,0-.38493,1.15739.85558.85558,0,0,0,.7725.47657.88047.88047,0,0,0,.38493-.089,15.77969,15.77969,0,0,0,5.56174-4.78668c1.20978-.46348,8.46045-3.06368,13.70015-.652a9.10735,9.10735,0,0,1,4.8574,5.78172,10.18494,10.18494,0,0,1-.50016,8.03366c-3.10032,6.07237-11.77029,8.93182-11.85667,8.96061a.86246.86246,0,1,0,.52893,1.64183,28.85644,28.85644,0,0,0,9.191-5.22921c1.77019-.70178,17.62534-6.33161,26.764,12.713a23.82794,23.82794,0,0,1,.93217,18.40042,22.45061,22.45061,0,0,1-11.99284,12.87532,35.91692,35.91692,0,0,1-7.43143,2.33311,27.94635,27.94635,0,0,1-9.92681.29329c-4.9752-.7751-11.72841-2.98776-15.65357-9.12558a9.73386,9.73386,0,0,0,4.31792-3.7288c3.124-4.99092.73063-11.00306.6285-11.25706a.76164.76164,0,0,0-.03668-.08119,11.35894,11.35894,0,0,0-7.31092-6.13c-4.48558-1.11288-9.13345.796-11.5216,2.05031a13.51217,13.51217,0,0,0-7.667-13.07694,10.12456,10.12456,0,0,0-11.08161,2.22051A8.51607,8.51607,0,0,0,516.7965,103.89a12.04427,12.04427,0,0,0-3.30193.86672,6.62529,6.62529,0,0,0-3.96712,4.95428,7.2735,7.2735,0,0,0,2.23368,6.50967,10.12609,10.12609,0,0,0,2.83326,1.867,11.0921,11.0921,0,0,0-7.76138,6.07761c-2.50594,5.45964-.75149,11.56082,4.4672,15.54624a12.2796,12.2796,0,0,0,2.0844,1.28045C517.69734,146.52493,515.67583,153.44832,515.64442,153.56091Zm31.52442-29.52918h-.055a8.30767,8.30767,0,0,1-7.03858-3.79424l-.089-.14141a.863.863,0,0,0-1.57633.6337,15.53325,15.53325,0,0,1-.495,6.92862c-1.524,5.11662-5.37059,8.93444-11.4325,11.3461-3.9775,1.5816-9.66239,2.75208-14.13742-.66248-4.551-3.47742-6.10122-8.759-3.94353-13.45925,1.65751-3.61357,5.3-5.52511,10.82237-5.67959a.86242.86242,0,0,0,.02621-1.723,10.35522,10.35522,0,0,1-6.3002-2.50594,5.56386,5.56386,0,0,1-1.7256-4.96472,4.86707,4.86707,0,0,1,2.96423-3.67118,11.28668,11.28668,0,0,1,3.94873-.83532.8631.8631,0,0,0,.69387-1.31188,6.92486,6.92486,0,0,1,1.01335-8.17244,8.32249,8.32249,0,0,1,6.03578-2.44309,7.03079,7.03079,0,0,1,3.01393.62844c7.40777,3.53765,7.03595,11.642,6.47825,12.82034a.86324.86324,0,0,0,1.26475,1.08146c.06018-.04191,6.22421-4.13467,11.77292-2.75732a9.69,9.69,0,0,1,6.1797,5.224c.186.48706,2.02935,5.60891-.50536,9.65454A8.15235,8.15235,0,0,1,547.16884,124.03173Z"/><path class="cls-1" d="M580.48807,64.43581a19.0688,19.0688,0,0,0,9.53669,4.04824,25.33967,25.33967,0,0,0,3.97754.309,28.68926,28.68926,0,0,0,8.96588-1.47161,33.45522,33.45522,0,0,0,6.528-2.74684,9.9939,9.9939,0,0,0,.11523,1.95866A5.5146,5.5146,0,0,0,611.337,69.8064a25.7629,25.7629,0,0,0-5.70319,3.171c-6.29756,4.50126-10.78833,14.71092-7.16692,22.1685,2.41956,4.98045,7.02552,7.73253,12.97483,7.75085h.06021a23.40416,23.40416,0,0,0,15.65362-6.3735,9.03128,9.03128,0,0,0,1.85653,5.40725,6.04669,6.04669,0,0,0,4.79975,2.00056c4.65315,0,8.01794-3.679,9.93473-6.54633a7.59,7.59,0,0,0,1.4716,3.84925c1.39829,1.79109,3.645,2.69708,6.67986,2.69708H651.94c10.04991-.02617,15.09583-8.59925,16.5308-16.47055a16.08473,16.08473,0,0,0,7.269,2.8987,14.77112,14.77112,0,0,0,2.40641.199,19.259,19.259,0,0,0,4.80238-.673C695.109,86.77188,696.35545,79.08909,696.39737,78.788c.74888-4.276.08378-7.55709-1.977-9.74618a9.25768,9.25768,0,0,0-5.21085-2.62638,8.32469,8.32469,0,0,0,4.06133-7.20358c-.02358-2.93014-.95578-5.025-2.7704-6.22686a8.82156,8.82156,0,0,0-6.0174-.97148,10.36355,10.36355,0,0,0,3.1501-8.84014c-.54463-4.72907-4.22107-6.60918-7.29785-7.15386a7.7549,7.7549,0,0,0,2.77827-6.04093c0-2.87253-.85365-5.06685-2.53734-6.52015a8.154,8.154,0,0,0-4.55626-1.8068,16.18547,16.18547,0,0,0,4.43839-10.06038A10.17874,10.17874,0,0,0,677.578,3.733c-2.51641-2.53211-6.49135-3.89112-10.89046-3.71831A17.93447,17.93447,0,0,0,654.5192,5.59481c-3.6869,3.80209-5.114,9.2172-4.0535,15.09583a8.60161,8.60161,0,0,0-4.695-.872,11.71884,11.71884,0,0,0-7.3476,3.87282,10.76954,10.76954,0,0,0-2.011-4.48294c-2.96679-4.05874-10.07873-6.62748-18.68058-2.67351-4.949,2.27287-10.07349,7.1093-10.27514,13.88082a11.09171,11.09171,0,0,0-4.70026-3.59785,8.97746,8.97746,0,0,0-7.34237.64677,7.74777,7.74777,0,0,0-4.42532,7.71419,9.31,9.31,0,0,0,1.126,3.92256,12.05292,12.05292,0,0,0-3.48789-.57344c-5.2397-.055-9.64145,3.21031-11.69173,8.71707C574.5728,53.58722,576.03394,60.65465,580.48807,64.43581ZM578.55035,47.8474c1.77275-4.76307,5.49369-7.59373,9.96353-7.59373h.09689a14.38382,14.38382,0,0,1,5.23966,1.3119c.53944.21209,1.08671.42417,1.65756.62583l.0026.00259a.86257.86257,0,1,0,.57608-1.62611c-1.77012-.62582-3.22079-2.98772-3.37789-5.49629a6.09334,6.09334,0,0,1,3.47478-6.06451,7.34,7.34,0,0,1,5.96761-.57344c3.76022,1.38258,5.73459,5.93621,5.75293,5.98072a.86242.86242,0,0,0,1.634-.53157c-1.194-5.1009.5185-11.92216,8.9135-15.78187,5.58531-2.56356,13.06908-2.66045,16.56743,2.12623a7.90081,7.90081,0,0,1,1.69943,6.24782c-.78033,4.098-5.06948,6.84744-5.11136,6.87365a.86239.86239,0,0,0,.91646,1.46114c.20166-.12834,4.95954-3.16321,5.88647-7.99964.02621-.13876.03668-.27757.05761-.41633.45562-.68868,3.1344-4.44627,7.46543-4.85737a6.96432,6.96432,0,0,1,5.28421,1.68109A8.59423,8.59423,0,0,1,652.99,25.23379a.86248.86248,0,0,0,1.50041-.85105,10.15647,10.15647,0,0,0-1.95343-2.29645c-.95837-3.62142-1.71773-10.19655,3.22079-15.28958a16.21306,16.21306,0,0,1,10.99786-5.059c3.91469-.144,7.42092,1.02123,9.59954,3.21032a8.39726,8.39726,0,0,1,2.38023,6.56726c-.2671,6.11952-5.29731,12.01645-11.69437,13.71852a.86138.86138,0,0,0,.22,1.69416.824.824,0,0,0,.22259-.02881,17.72858,17.72858,0,0,0,6.74795-3.54286,7.42209,7.42209,0,0,1,5.22659,1.41663c1.28046,1.11028,1.93245,2.86206,1.93245,5.20565,0,7.29262-10.96641,7.832-11.079,7.83726a.86188.86188,0,0,0,.03668,1.723h.034a19.13757,19.13757,0,0,0,7.65658-1.977c1.04743-.02094,7.22717.12306,7.8818,5.80791.62583,5.41251-3.29414,9.62311-11.642,12.51394a.86284.86284,0,0,0,.28021,1.67849.82612.82612,0,0,0,.28281-.04976,32.395,32.395,0,0,0,6.219-2.8411c.29328-.11783,5.567-2.18386,8.49189-.24615,1.304.86412,1.97437,2.47976,1.9953,4.79977.06549,7.73515-11.95883,8.40025-12.07926,8.40548a.86194.86194,0,0,0,.03928,1.723h.04187a22.13187,22.13187,0,0,0,6.61965-1.39044c.69131-.05238,4.66625-.22521,7.002,2.26764,1.66275,1.77275,2.176,4.551,1.524,8.27981-.04451.28016-1.19667,6.892-12.1762,9.70426a15.30974,15.30974,0,0,1-6.50182.44254c-3.49835-.57084-4.96472-1.50305-7.69585-3.38314-.00787-.00525-.01834-.00525-.02617-.01049a.8629.8629,0,0,0-.15974-.06808.72132.72132,0,0,0-.15974-.055c-.01047-.00262-.0183-.01047-.02881-.01047a.97856.97856,0,0,0-.12566.00785,1.00135,1.00135,0,0,0-.17809.01309.76253.76253,0,0,0-.18067.0707.6758.6758,0,0,0-.1152.05762.97071.97071,0,0,0-.15974.15187c-.01834.02357-.04715.03927-.06545.06547-.00523.00523-.00523.0157-.00787.02093a1.04442,1.04442,0,0,0-.076.17545.77137.77137,0,0,0-.04975.14925c-.0026.01047-.00783.01834-.01047.02881-.22,1.67062-2.50593,16.303-15.04345,16.337H651.898c-2.47189,0-4.26034-.68344-5.31561-2.02936-1.87488-2.39334-.95051-6.20853-.94-6.2478a.86231.86231,0,0,0-1.62875-.54991c-.03927.08642-3.87541,8.82707-10.20179,8.82707a4.34615,4.34615,0,0,1-3.49312-1.40352c-1.69419-1.94819-1.48471-5.37061-1.40092-6.23735a15.43606,15.43606,0,0,0,1.668-2.61853.86131.86131,0,1,0-1.54493-.762c-2.7678,5.60627-10.46365,9.98446-17.54155,9.98446H611.447c-5.25541-.01572-9.3115-2.42214-11.42987-6.77938-2.60546-5.36537-.529-14.90207,6.61965-20.01082,1.73084-1.23856,5.06421-3.35433,7.92891-3.59786a.862.862,0,0,0-.14664-1.71775c-2.56878.22519-3.05584-2.46666-3.103-2.78875a7.36408,7.36408,0,0,1,4.14252-7.95246.86357.86357,0,0,0-.69391-1.58161,9.79438,9.79438,0,0,0-4.8757,5.48321.85719.85719,0,0,0-.309.17807c-1.0291.9348-3.56644,2.1-7.15122,3.281A26.02844,26.02844,0,0,1,590.29446,66.782a17.36778,17.36778,0,0,1-8.68827-3.66071C577.6941,59.801,576.43721,53.51914,578.55035,47.8474Z"/><path class="cls-1" d="M644.40588,44.95761c.01834,0,.08642.00263.199.00263a9.8886,9.8886,0,0,0,5.656-1.72824.86285.86285,0,0,0-1.05-1.36948,8.35587,8.35587,0,0,1-4.7343,1.37212.8365.8365,0,0,0-.89553.82744.86235.86235,0,0,0,.82481.89553"/><path class="cls-1" d="M643.76487,56.06225c.01834,0,.07859.00264.17808.00264.78557,0,3.94873-.1257,5.88646-2.06341a.86191.86191,0,1,0-1.22024-1.21761c-1.64182,1.6418-4.74741,1.56063-4.78145,1.55539a.86207.86207,0,0,0-.06285,1.723"/><path class="cls-1" d="M639.65611,69.99677a10.1324,10.1324,0,0,0,1.46641.09166,15.64578,15.64578,0,0,0,6.3185-1.36688.86328.86328,0,0,0-.70437-1.57635,13.35986,13.35986,0,0,1-6.80556,1.14954.86205.86205,0,0,0-.275,1.702"/><path class="cls-1" d="M686.30006,149.85571c-6.33684-2.97989-12.75487-2.27813-18.55231,2.02934a27.00158,27.00158,0,0,0-3.29934,2.91706,6.73148,6.73148,0,0,0-.927-5.00664,7.81263,7.81263,0,0,0-7.37117-2.66827,6.676,6.676,0,0,0,1.57637-2.66306,7.09412,7.09412,0,0,0-.48706-5.72149,6.10883,6.10883,0,0,0-1.09978-1.34854,24.448,24.448,0,0,0,10.85646-3.07153,17.2517,17.2517,0,0,0,8.65946-15.87616c-.70437-13.60589-14.072-14.23172-14.17673-14.23172h-.0026a18.2129,18.2129,0,0,0-17.34777,7.0936,5.88657,5.88657,0,0,0-3.54026-4.83381c-7.02029-1.86177-10.84859,2.44047-12.56633,5.33919a8.27351,8.27351,0,0,0-6.67726-5.22921A10.182,10.182,0,0,0,610.237,112.628c-1.14952,2.75208-1.22024,5.18206-.20949,7.22192a7.85668,7.85668,0,0,0,3.01657,3.16055,8.70322,8.70322,0,0,0-2.231,5.06949,5.83479,5.83479,0,0,0,.32732,2.19694c-2.43522-.82221-6.06714-1.304-9.15176,1.33807a9.356,9.356,0,0,0-3.24176,7.22192,11.28146,11.28146,0,0,0,.18068,1.94817c-4.695-1.76488-18.52087-6.2059-25.08813-.11-4.28388,3.97494-4.84686,8.09912-4.56149,10.859a12.8009,12.8009,0,0,0,3.268,7.21928,44.27389,44.27389,0,0,0-13.69232,1.359,15.78068,15.78068,0,0,0-9.64664,7.91058c-2.07394,4.14775-2.02415,9.15439.144,14.48047,3.26789,8.031,12.28092,11.4011,22.34918,11.4011a53.34444,53.34444,0,0,0,16.80045-2.849c11.93527-4.043,12.72343-15.32627,12.70249-18.48946,5.80528-.83793,9.96613-3.03748,12.37782-6.53848a13.61773,13.61773,0,0,0,2.27023-8.14363,9.8283,9.8283,0,0,0,4.61388.78033,11.60349,11.60349,0,0,0-.87723,4.66884,8.60715,8.60715,0,0,0,4.71077,7.25857,12.20488,12.20488,0,0,0,12.55585.13356c-1.28573,2.7154-2.47189,6.55156-1.55019,10.36151.885,3.64763,3.52979,6.54371,7.86082,8.60712a19.68627,19.68627,0,0,0,8.38981,2.155,12.20057,12.20057,0,0,0,4.5117-.83269,12.80187,12.80187,0,0,0,6.35-5.69791c4.51175,3.35171,9.102,4.68717,13.65563,3.97754,8.26147-1.29354,13.34666-8.82444,13.54568-9.1282,4.78668-6.84484,6.53062-13.23145,5.18731-18.987A18.56087,18.56087,0,0,0,686.30006,149.85571Zm1.89318,29.34063c-.04711.07334-4.894,7.22977-12.39871,8.395-4.34154.673-8.76163-.76461-13.14768-4.27343a.8644.8644,0,0,0-1.34067.35351,11.3363,11.3363,0,0,1-5.89169,5.74767c-3.21295,1.25689-7.08577.82483-11.50846-1.28048-3.83614-1.83034-6.164-4.33628-6.92339-7.4497-1.47948-6.08025,3.425-12.63966,3.47478-12.70513a.86182.86182,0,0,0-1.3276-1.09716c-.06281.06808-6.17447,6.72439-13.96725,2.21266a6.87381,6.87381,0,0,1-3.85184-5.83148c-.14664-3.9435,2.85159-8.10959,4.50388-9.2408a.86177.86177,0,0,0-.97412-1.42186,13.40032,13.40032,0,0,0-3.52976,4.27084c-1.67063.19115-5.03545.1833-5.80527-1.66016a.86285.86285,0,0,0-1.634.53942,12.6637,12.6637,0,0,1-1.723,9.3115c-2.22837,3.2208-6.24519,5.20564-11.93786,5.88908a.86636.86636,0,0,0-.75676.93744c.0131.13091,1.08667,13.26023-11.50846,17.52845-11.52416,3.90422-31.76016,5.30251-36.99722-7.57017-2.00314-4.92024-2.06859-9.31414-.199-13.056a14.00235,14.00235,0,0,1,8.54427-7.01767c4.50124-1.18358,11.75981-2.0634,17.40271-.652a15.71408,15.71408,0,0,1,3.63192,1.36948.86174.86174,0,0,0,.81961-1.51612,17.16569,17.16569,0,0,0-4.03256-1.524c-.48178-.12046-.97408-.22257-1.47424-.31161a10.79746,10.79746,0,0,1-4.64788-7.78489c-.24349-2.36977.25668-5.92574,4.01946-9.41886,6.46513-6.00167,22.01922-.0707,24.47277.9191a9.25423,9.25423,0,0,0,2.50334,3.79688.84978.84978,0,0,0,.563.20947.86169.86169,0,0,0,.56037-1.51612,8.95676,8.95676,0,0,1-2.6395-6.50967,7.59328,7.59328,0,0,1,2.6395-5.91527c4.15823-3.56643,9.60478-.08378,9.8352.06809a.86211.86211,0,0,0,1.09191-1.31974,4.75174,4.75174,0,0,1-1.503-3.51407,7.36063,7.36063,0,0,1,2.11313-4.352,7.31567,7.31567,0,0,0,.783.26449.86153.86153,0,1,0,.432-1.668,7.48131,7.48131,0,0,1-1.03693-.39278l-.01047-.00262a6.67781,6.67781,0,0,1-3.24176-2.92491c-.78293-1.57112-.6965-3.51929.2514-5.787a8.45458,8.45458,0,0,1,9.23555-5.00924,6.60326,6.60326,0,0,1,5.787,6.22163.86223.86223,0,0,0,1.68109.20685c.11783-.36136,2.972-8.85848,11.53723-6.59869.14927.05762,3.65809,1.43233,1.867,6.66678a.86149.86149,0,0,0,1.60254.62846c.04979-.11262,5.08519-11.17329,17.79819-9.47909.487.0157,11.97454.56822,12.59773,12.603a15.51066,15.51066,0,0,1-7.777,14.28147,23.4,23.4,0,0,1-13.36759,2.8123.86167.86167,0,0,0-.254,1.69943,5.64881,5.64881,0,0,1,3.23129,2.31217,5.49471,5.49471,0,0,1,.29064,4.39652c-.00524.02617-.54987,2.07388-3.87806,4.1556a16.6751,16.6751,0,0,0-2.74942,1.42187.8625.8625,0,0,0,.8091,1.51613,21.30743,21.30743,0,0,0,2.60806-1.325c2.6447-1.09192,6.79509-2.05815,9.32984,1.06576.02093.02617,2.10007,2.7861-1.24905,8.395l-.00788.01311a.86247.86247,0,0,0,1.48212.88244v-.00262a27.01993,27.01993,0,0,1,6.418-6.92077c5.31821-3.933,10.95591-4.54315,16.701-1.84607a17.0379,17.0379,0,0,1,7.60683,10.18085C694.35467,166.829,692.69712,172.75475,688.19324,179.19634Z"/><path class="cls-1" d="M636.82733,127.39236a4.67871,4.67871,0,0,1-3.12648-.52108q-.11-.10213-.22783-.20424a.863.863,0,0,0-1.24642,1.18095,2.12178,2.12178,0,0,0,.34826.33517,2.63458,2.63458,0,0,1,.96361,2.30694.86331.86331,0,0,0,1.59207.63629,5.97276,5.97276,0,0,1,2.16815-2.11053.86145.86145,0,0,0-.47136-1.6235"/><path class="cls-1" d="M784.23624,103.20343a27.76412,27.76412,0,0,0-11.90906.35612,5.417,5.417,0,0,0,.43992-1.3276,4.56253,4.56253,0,0,0-1.06051-3.77331c-2.22313-2.7573-5.55914-2.75992-7.95512-2.286a8.248,8.248,0,0,0,1.14433-3.7288,37.7526,37.7526,0,0,0,9.49741.18068c8.43691-1.31712,17.06756-8.38717,16.29774-17.51275-.56561-6.67986-5.84719-12.79938-12.84653-14.87849a20.37569,20.37569,0,0,0-6.33684-.72534,18.93283,18.93283,0,0,0,6.3159-9.34815c1.469-4.78665.89293-9.51571-1.5842-12.97219-4.92549-6.87629-13.674-6.95744-20.2177-4.74477a24.29024,24.29024,0,0,0-10.54745,7.20619,10.42388,10.42388,0,0,0-5.24229-7.45236,16.318,16.318,0,0,0-12.99841-.88765,11.221,11.221,0,0,0-6.92075,6.43109,12.03566,12.03566,0,0,0,.08639,9.62571,13.84021,13.84021,0,0,0,2.794,3.9252,11.8076,11.8076,0,0,0-3.0401,3.17365,10.76238,10.76238,0,0,0-1.08931,8.69615,11.698,11.698,0,0,0,5.75029,7.33713,6.37535,6.37535,0,0,0-3.12916,3.08723,7.19316,7.19316,0,0,0-.54987,3.54288c-3.79427-1.80156-13.59806-5.14542-20.54238,4.11633a14.6334,14.6334,0,0,0-2.64471,11.49273c.83532,3.9121,3.79163,7.04386,8.32428,8.81661a22.70709,22.70709,0,0,0,7.3764,1.503,6.62444,6.62444,0,0,0-1.64441,5.62723,8.56,8.56,0,0,0,1.94032,4.331c-10.99522.53942-24.25809,3.18412-29.50822,12.19449a14.60446,14.60446,0,0,0,3.44338,18.20666,22.87779,22.87779,0,0,0,14.67945,4.94115c.80655,0,1.61828-.03666,2.43-.11259a58.21817,58.21817,0,0,0,13.86248-3.15008,9.69141,9.69141,0,0,0-1.03169,2.85419,10.76554,10.76554,0,0,0,1.84347,8.47356,8.46456,8.46456,0,0,0,4.11371,2.87515,29.79761,29.79761,0,0,0-7.832,8.526,19.45468,19.45468,0,0,0-1.53709,15.65095,21.14443,21.14443,0,0,0,10.80668,12.94341,37.50982,37.50982,0,0,0,15.86306,3.535,32.36007,32.36007,0,0,0,20.83306-7.17215c6.109-5.12709,10.03944-12.184,10.5134-18.87438.56821-7.98914-4.28133-14.80255-9.7069-17.25613a13.08234,13.08234,0,0,0,7.75347-9.576c.86671-4.10586.25923-8.56783-2.15245-11.34348,9.91375,1.38258,17.806-.18592,23.4987-4.67669,7.17738-5.66127,8.08078-14.23173,2.30691-21.83594A16.29731,16.29731,0,0,0,784.23624,103.20343Zm6.51228,26.49691c-6.13518,4.83906-15.1246,6.02-26.72471,3.51146l-.00524-.00262a.86258.86258,0,1,0-.364,1.68632c5.34706,1.1574,5.99646,7.70373,5.12974,11.82267-1.20718,5.71364-5.91267,9.35341-12.28356,9.4948a.8616.8616,0,0,0,.02094,1.723H756.54a17.50486,17.50486,0,0,0,3.35959-.40063c6.761,1.28307,11.27539,9.5943,10.804,16.248-.44251,6.23473-4.14512,12.84391-9.90064,17.67509-9.02086,7.56757-23.02739,8.93443-34.85789,3.39624a19.388,19.388,0,0,1-9.88757-11.88551,17.73828,17.73828,0,0,1,1.36948-14.26314,28.36249,28.36249,0,0,1,8.69873-8.9449c.288.02095.57872.03927.86936.03927a13.37342,13.37342,0,0,0,6.49922-1.76226.86135.86135,0,1,0-.851-1.49782c-3.6869,2.09745-8.86111,2.36454-11.61845-1.17571a8.9978,8.9978,0,0,1-1.51348-7.08313,6.719,6.719,0,0,1,3.10032-4.68454c.0157-.01049.02357-.02619.03927-.034a37.85548,37.85548,0,0,0,9.07321-5.59057.86256.86256,0,1,0-1.12332-1.30927c-5.94671,5.09566-16.06208,8.96848-25.769,9.864-6.0017.55512-11.9222-1.09978-15.8343-4.42533-4.65574-3.954-6.00429-10.99259-3.0715-16.02278,5.16374-8.86112,19.10478-11.10257,29.99264-11.41418a6.66418,6.66418,0,0,0,3.32291.872c.08642,0,.17545-.00262.26447-.00524a.86206.86206,0,0,0-.06281-1.723c-3.23389.11521-5.368-2.67353-5.732-5.35753a4.71392,4.71392,0,0,1,3.7-5.57485c.00524,0,.00784-.00523.01307-.00523,4.25511-.60489,8.19865-2.56617,10.56055-6.28187a.86227.86227,0,0,0-1.4559-.92433c-3.95661,6.219-13.06649,6.84746-19.62852,4.28129-2.30168-.90076-6.308-3.07938-7.26641-7.57018a12.85863,12.85863,0,0,1,2.33832-10.09706,12.72464,12.72464,0,0,1,12.74964-5.38108,20.34963,20.34963,0,0,1,6.7925,2.36191,12.14259,12.14259,0,0,0,.83531,2.197.86216.86216,0,0,0,.76459.46349.84821.84821,0,0,0,.40063-.09951.86552.86552,0,0,0,.364-1.16525,10.75431,10.75431,0,0,1-.77774-2.13149.08194.08194,0,0,1-.00523-.02094,6.52306,6.52306,0,0,1,.15974-4.20536c.62846-1.38782,1.99271-2.35669,4.04827-2.883a15.65356,15.65356,0,0,0,4.05086.542,16.66245,16.66245,0,0,0,2.595-.20426.86334.86334,0,0,0-.27493-1.70466,13.6739,13.6739,0,0,1-8.02844-1.05527A9.94926,9.94926,0,0,1,720.72638,62.7a9.03908,9.03908,0,0,1,.87723-7.30309,10.02892,10.02892,0,0,1,2.90133-2.90657,27.30409,27.30409,0,0,0,7.92368,4.38605.88566.88566,0,0,0,.29064.05236.8634.8634,0,0,0,.29068-1.67586c-2.54785-.91125-8.725-3.57429-11.045-8.6097a10.37669,10.37669,0,0,1-.04192-8.28767,9.5252,9.5252,0,0,1,5.89957-5.42561,14.51059,14.51059,0,0,1,11.566.7725,9.23774,9.23774,0,0,1,4.61124,8.02317,19.17109,19.17109,0,0,1-1.47424,7.84772.86165.86165,0,1,0,1.5973.6468,21.03161,21.03161,0,0,0,1.60518-8.21959c3.38053-4.07443,6.73488-6.53063,10.846-7.92368,5.95978-2.01624,13.88346-1.9953,18.26428,4.11635,2.16028,3.01653,2.64734,7.19309,1.33543,11.46131-1.50565,4.89926-4.9883,8.88205-9.0889,10.39555-3.7838.81961-7.30049,2.55045-9.35078,5.22136a.86285.86285,0,1,0,1.36948,1.05c3.52453-4.59553,12.54275-6.13,18.24853-4.43579,6.33684,1.88271,11.11306,7.38164,11.62106,13.37283.53416,6.33424-4.99094,14.12437-14.84707,15.66144-.85625.13355-6.892.53942-9.8195-.40325a.863.863,0,0,0-1.126.8615,6.75224,6.75224,0,0,1-2.57661,5.86027.72275.72275,0,0,0-.06809.0576,13.88863,13.88863,0,0,1-6.68509,2.49808.86163.86163,0,0,0,.07068,1.72037.64053.64053,0,0,0,.07072-.00261,14.78527,14.78527,0,0,0,7.60419-2.88824c.53421-.23042,6.01476-2.49546,8.76946.9191a2.86,2.86,0,0,1,.70178,2.38288c-.42944,2.43261-3.789,4.48553-3.82567,4.50387a.86334.86334,0,0,0,.89029,1.47946,14.06407,14.06407,0,0,0,2.62641-2.13409,26.71789,26.71789,0,0,1,13.1267-.88246,14.58,14.58,0,0,1,8.86371,5.37062C797.98353,117.14972,797.2163,124.59944,790.74852,129.70034Z"/><path class="cls-1" d="M403.13619,116.90489c1.67326,2.15766,4.40175,3.42242,8.107,3.75235.38756.03666.76986.05238,1.14952.05238a10.90192,10.90192,0,0,0,5.26064-1.28571c2.82542-1.54492,6.08284-4.93068,5.85765-12.239,6.0305-3.05844,6.8082-6.75058,6.36045-9.34553a7.65315,7.65315,0,0,0-6.38658-6.12214,9.99527,9.99527,0,0,0-6.70352.906,11.26178,11.26178,0,0,0-2.20475-9.42671,11.66673,11.66673,0,0,0-10.791-4.31009,16.15839,16.15839,0,0,0-11.32254,7.413,19.17418,19.17418,0,0,0-3.06364,9.00514c-.37191,4.26558-.06809,10.01064,3.4695,13.15813a10.56122,10.56122,0,0,0,7.19314,2.78874,12.06855,12.06855,0,0,0,1.3302-.07857,8.81694,8.81694,0,0,0,1.7439,5.732m-9.12035-9.73047c-3.16313-2.81492-3.17359-8.55212-2.8987-11.72054a17.45037,17.45037,0,0,1,2.78091-8.196,14.47968,14.47968,0,0,1,10.11541-6.66154,9.95461,9.95461,0,0,1,9.212,3.67118,9.60511,9.60511,0,0,1,1.44016,9.4529c-.14927.38753-.31421.78293-.49752,1.18095A8.92636,8.92636,0,0,0,412.72,97.62726a.8623.8623,0,0,0,1.56594.67821,25.04369,25.04369,0,0,0,1.40348-2.58713c1.23071-1.47422,3.50362-2.9694,7.51261-2.30168a5.93571,5.93571,0,0,1,4.96992,4.716c.5211,3.0244-1.46637,5.63246-5.90736,7.75608l-.00527.00262h-.00264c-.81429.38755-1.723.76461-2.69964,1.1155a.86266.86266,0,1,0,.58391,1.6235c.58128-.20949,1.13378-.42944,1.66535-.652-.02613,5.92836-2.67615,8.67257-4.983,9.93471a9.478,9.478,0,0,1-5.42566,1.02646c-3.19716-.28542-5.51459-1.31974-6.88411-3.07417a7.2153,7.2153,0,0,1-1.3668-5.01447,12.3956,12.3956,0,0,0,2.79657-1.06314.86185.86185,0,0,0-.86671-1.48994c-.24357.13878-6.00174,3.37791-11.06076-1.12335"/><path class="cls-1" d="M211.56682,148.74756a11.62124,11.62124,0,0,1-7.08046,3.17889.064.064,0,0,0-.03148,0,.86156.86156,0,0,0-.01311,1.723h.05762a5.58511,5.58511,0,0,1,4.60864,2.96681.85993.85993,0,0,0,.76987.47133.78169.78169,0,0,0,.233-.03142.86211.86211,0,0,0,.62586-.90078,7.87091,7.87091,0,0,1,1.99794-6.14046.86176.86176,0,0,0-1.1679-1.26735Zm-7.1093,4.04039h0Zm4.64524,1.0474a7.48721,7.48721,0,0,0-1.14689-.89815,14.197,14.197,0,0,0,1.51879-.66248A9.81366,9.81366,0,0,0,209.10276,153.83535Z"/><path class="cls-1" d="M142.85266,93.91235h0c-5.60888-2.21005-10.87208-.20164-14.813,2.47189a7.03537,7.03537,0,0,0-.20689-2.40381,8.07341,8.07341,0,0,0-5.61409-5.6115c-3.48269-1.06838-7.22189.26184-10.15991,1.9246a9.53219,9.53219,0,0,0-1.6942-9.36386,11.94482,11.94482,0,0,0-5.2711-3.19723C94.23707,74.32311,85.51212,79.51566,79.1491,93.16606a11.2756,11.2756,0,0,0-1.59207-.57868c-5.81314-1.59207-8.60716,1.45329-10.69148,4.47507a4.72571,4.72571,0,0,0-2.44832-1.64707A9.11234,9.11234,0,0,0,58.392,95.761c5.33392-8.70924,3.66329-13.97248,1.10757-16.934a11.02909,11.02909,0,0,0-11.00042-3.27839c-17.35824,4.352-19.495,20.09723-19.60758,26.6776a11.06988,11.06988,0,0,0-5.09043-3.446,9.408,9.408,0,0,0-7.50989,1.14952,8.22488,8.22488,0,0,0-4.42533,5.65081c-.57344,3.18412,1.07617,6.2609,2.08433,7.78489C9.42279,115.201,3.75893,120.38047,1.26609,126.72778c-1.92721,4.90713-1.64968,9.66238.80127,13.7499a11.22414,11.22414,0,0,0,7.8373,5.18471A20.9298,20.9298,0,0,0,24.42173,142.473a16.89762,16.89762,0,0,0,.673,5.61938,9.97945,9.97945,0,0,0,9.56545,6.85007,10.11087,10.11087,0,0,0,2.69972-.3666,17.51012,17.51012,0,0,0,11.56867-9.63357,7.26008,7.26008,0,0,0,2.066,3.226c2.89606,2.59234,7.146,2.13411,7.26377,2.121,7.7247-.34041,11.44305-5.64294,13.90184-9.19105a7.10659,7.10659,0,0,0,7.37373,2.74161,12.71687,12.71687,0,0,0,7.02819-3.98541,6.42886,6.42886,0,0,0,1.88007,2.63425,8.7695,8.7695,0,0,0,6.308,1.52922,17.34487,17.34487,0,0,0,14.17937-10.20442c1.11811,5.83671,5.20829,7.84251,8.81924,8.43691a16.43138,16.43138,0,0,0,14.1741-4.86524c6.35781-6.384,7.049-14.95443,6.80819-19.92964,9.06274-2.57662,10.914-8.80612,10.84332-13.63993A10.70721,10.70721,0,0,0,142.85266,93.91235Zm-5.23706,22.05588a.86111.86111,0,0,0-.64936.89554c.38757,5.54868-.38229,13.399-6.26616,19.30382a14.69349,14.69349,0,0,1-12.67368,4.3808c-5.45961-.89815-8.0258-4.73169-7.62513-11.39585a.86194.86194,0,0,0-1.71513-.16234A15.9273,15.9273,0,0,1,94.5277,142.30805a7.16,7.16,0,0,1-4.96736-1.1312,4.80761,4.80761,0,0,1-1.67326-3.213,24.90948,24.90948,0,0,0,2.30959-8.04675.862.862,0,0,0-1.71257-.199,23.05422,23.05422,0,0,1-2.2336,7.65657,10.68935,10.68935,0,0,1-7.09356,4.78145,5.3219,5.3219,0,0,1-5.91008-2.61591,29.28062,29.28062,0,0,0,3.85716-9.9452.86254.86254,0,0,0-1.689-.35087,26.36337,26.36337,0,0,1-3.85971,9.71213l-.00256.00786-.00791.00785c-.24349.33516-.49489.69914-.76195,1.08407-2.39862,3.46431-5.68744,8.20647-12.66058,8.51285-.03668.00523-3.6529.39278-5.97552-1.68635a6.75507,6.75507,0,0,1-1.97437-5.31038.86169.86169,0,0,0-1.68637-.254,16.33615,16.33615,0,0,1-11.58177,11.59486,8.32044,8.32044,0,0,1-10.16247-5.33393,16.46716,16.46716,0,0,1-.46613-6.75844.86679.86679,0,0,0-.43208-.851.88322.88322,0,0,0-.42416-.11.85719.85719,0,0,0-.5263.17806c-4.24728,3.27055-10.00281,4.81549-14.66643,3.93042A9.54151,9.54151,0,0,1,3.54684,139.59a13.59248,13.59248,0,0,1-.67557-12.23377c2.51377-6.39708,8.429-11.49535,12.69726-12.7313a.86439.86439,0,0,0,.42417-1.38c-.03141-.03666-3.082-3.76545-2.42739-7.36593a6.58781,6.58781,0,0,1,3.58218-4.4515,7.77107,7.77107,0,0,1,6.15876-.99767c3.65291,1.06575,5.7477,4.98306,5.76864,5.01972a.86231.86231,0,0,0,1.62084-.4975c-.02614-.22521-2.34092-22.57437,18.22239-27.73026A9.2969,9.2969,0,0,1,58.19294,79.953c3.49836,4.05612,2.34883,10.25941-3.3255,17.93956l-.00264.00263-.00264.00262a29.7668,29.7668,0,0,1-6.53322,6.41539A.86166.86166,0,0,0,48.79506,105.9a.84608.84608,0,0,0,.46612-.13617A30.73349,30.73349,0,0,0,56.17143,99.029c2.64738-2.01628,5.26063-2.67876,7.76921-1.956A2.98375,2.98375,0,0,1,65.73433,98.466a4.83571,4.83571,0,0,1,.2514.5211c.11523.49227.86408,4.50386-4.2735,7.65134a.86272.86272,0,1,0,.90084,1.47161c5.57485-3.41719,5.33392-7.86345,5.10609-9.22246,2.45879-3.69214,4.52745-5.965,9.37175-4.63743a6.85929,6.85929,0,0,1,1.76228.7201.96774.96774,0,0,0,.07592.0707.26356.26356,0,0,0,.02357.034c.02358.02095,2.41428,2.19955.34306,6.82651a.86237.86237,0,0,0,.43464,1.13906.83991.83991,0,0,0,.35089.07593.86529.86529,0,0,0,.78816-.51061c2.01632-4.50388.50281-7.269-.32731-8.32955C86.49926,81.257,94.58268,76.23726,104.575,79.37949a10.23464,10.23464,0,0,1,4.52482,2.72328,7.82655,7.82655,0,0,1-.53421,10.54482.86271.86271,0,0,0,1.14952,1.28046c2.62645-2.02935,7.68547-5.23706,11.99812-3.90946a6.36648,6.36648,0,0,1,4.44889,4.38867,4.87682,4.87682,0,0,1-.542,3.8728.86211.86211,0,0,0,1.28833,1.11026c3.69213-3.06369,9.34817-6.22163,15.31315-3.87543a8.99467,8.99467,0,0,1,5.6299,8.32431C147.91169,108.17287,146.18608,113.79486,137.6156,115.96823Z"/><path class="cls-1" d="M265.434,89.15553c-1.56323-4.64528-6.37348-6.80556-6.53059-6.87364a19.73913,19.73913,0,0,0-8.3715-1.53184c5.9179-2.6683,8.89516-5.8917,8.84018-9.61a7.77473,7.77473,0,0,0-2.62373-5.99644c-2.36721-2.07649-5.84462-2.69972-8.46835-2.84636a10.84479,10.84479,0,0,0,4.48558-6.34207,8.84672,8.84672,0,0,0-.95055-7.214,10.97251,10.97251,0,0,0-5.30251-3.99064c.96621-.47919,1.58416-.84315,1.76221-.95315,8.41337-3.94873,8.8926-8.98941,7.81372-12.52444a11.04617,11.04617,0,0,0-5.78957-6.55157c-9.39788-4.73166-17.9893-1.029-23.7553,3.18155a18.98953,18.98953,0,0,0,.851-6.70871,7.48733,7.48733,0,0,0-4.87571-6.75054,9.94043,9.94043,0,0,0-6.75313.4137,20.7282,20.7282,0,0,0-6.60659,5.20566,10.00589,10.00589,0,0,0-1.13122-5.025c-1.29616-2.36977-3.62405-3.96707-6.92335-4.75-10.78578-2.55831-16.78216,6.49135-16.87382,6.63535-.11787.21213-2.77563,5.17685-1.36168,9.84307a22.98469,22.98469,0,0,0-11.985.851c-3.61878,1.304-8.05194,4.13992-8.60972,10.2437-.29855,3.25223.20945,5.85242,1.48731,7.7744-4.17392.46872-9.97132,2.83325-10.18349,9.69643a6.64352,6.64352,0,0,0,1.58424,4.76835c-5.64293.99765-13.6661,5.423-13.45665,17.28492.14664,8.3505,7.366,12.07928,14.48047,12.07928h.06809a20.64645,20.64645,0,0,0,8.141-1.70465,10.97413,10.97413,0,0,0-1.36161,4.00635c-.53685,3.57429.1571,6.38659,2.06075,8.36359a8.10179,8.10179,0,0,0,1.34067,1.10763,18.37654,18.37654,0,0,0-9.82469,5.65342c-2.92227,3.425-4.11894,7.98913-3.5586,13.55874,1.0553,10.46628,8.06767,14.01963,13.76559,15.15607a23.59457,23.59457,0,0,0,4.6191.45038,26.10925,26.10925,0,0,0,8.47883-1.44542c5.3837-1.85392,12.624-5.457,17.10164-12.12119a9.17021,9.17021,0,0,0,1.66016,2.26242c2.08168,2.066,5.114,3.116,9.01822,3.116.04715,0,.09685,0,.14664-.00262,7.633-.04974,10.97421-4.52743,12.41445-7.94723a11.9794,11.9794,0,0,0,7.21406,2.23883,18.05217,18.05217,0,0,0,6.274-1.215c7.95772-2.94323,9.37694-11.56867,9.62834-14.46477a32.69836,32.69836,0,0,0,7.64351-.21734c6.17442-.93744,10.72025-3.73665,13.145-8.0991C265.9393,94.95819,266.36875,91.92855,265.434,89.15553ZM262.653,97.32272c-5.23706,9.42673-19.81175,7.3607-19.95839,7.33975a.86412.86412,0,0,0-.99241.85365c0,.10474-.11787,10.68623-8.55474,13.8075-7.08317,2.62115-11.1-.09687-12.28356-1.12071a12.68125,12.68125,0,0,0,.44775-2.11841.86022.86022,0,0,0-.7829-.93218.86939.86939,0,0,0-.93488.78031,11.26756,11.26756,0,0,1-.40323,1.94819.84893.84893,0,0,0-.19115.61011c-1.03692,3.01393-3.82039,7.60161-11.17063,7.65136-10.03685.09689-10.19132-7.39473-10.194-7.722a.8628.8628,0,0,0-1.7256,0,8.78449,8.78449,0,0,0,.35609,2.18908.817.817,0,0,0-.22519.23828c-4.15819,6.7113-11.36962,10.30132-16.68787,12.13166a23.44035,23.44035,0,0,1-12.19717.93483c-7.45756-1.48733-11.62365-6.07763-12.3856-13.63732-.51327-5.07995.54467-9.20152,3.14219-12.25734,3.94354-4.63481,10.283-5.40466,11.29377-5.49893a16.19324,16.19324,0,0,0,4.58507.63631,14.43367,14.43367,0,0,0,1.4559-.06547.863.863,0,0,0-.19378-1.71513c-.05762.00523-5.76863.61274-8.71712-2.44309-1.51088-1.57111-2.05028-3.89375-1.59471-6.9103a7.54123,7.54123,0,0,1,3.29418-5.59842c4.03248-2.53737,10.30392-.6494,10.36937-.62845a.86306.86306,0,0,0,.508-1.64968,18.64336,18.64336,0,0,0-9.03916-.34564,11.23073,11.23073,0,0,0,2.73632-7.29524.8622.8622,0,0,0-.851-.872.87661.87661,0,0,0-.872.85365c-.08119,7.2769-7.60164,11.22825-14.63759,11.25182h-.076c-9.26954,0-12.65794-5.588-12.74432-10.38248-.24877-14.26052,11.89854-15.62477,13.6661-15.74785a14.81545,14.81545,0,0,0,6.8527,1.5266c.686,0,1.13642-.03927,1.20187-.04451a.86222.86222,0,1,0-.15183-1.71775c-.055.00524-5.54608.45038-8.23789-2.09483a4.84346,4.84346,0,0,1-1.45854-3.89376c.233-7.49162,8.23789-8.08076,9.92417-8.11744a10.393,10.393,0,0,0,6.65637,2.09483,14.56555,14.56555,0,0,0,2.90389-.27757.86213.86213,0,0,0-.37182-1.68369c-.05234.01307-5.20039,1.105-8.22479-1.56326l-.02357-.02358c-.00519-.00523-.00783-.01046-.01311-.0131-1.75964-1.5816-2.48755-4.1975-2.16024-7.78487.474-5.19779,4.3284-7.64088,7.4785-8.77474,5.57748-2.00841,11.50058-1.11024,12.47989-.199a10.10364,10.10364,0,0,0,4.35469,3.51406.85735.85735,0,0,0,.35608.07855.86361.86361,0,0,0,.35617-1.64968,7.7105,7.7105,0,0,1-4.44371-4.51958c-1.34331-4.00895,1.13906-8.65687,1.1365-8.65687.21728-.33255,5.41247-8.11742,14.9963-5.84195,2.79921.66514,4.75,1.97177,5.80268,3.88852,1.80152,3.28627.419,7.36858.40587,7.41045a.82172.82172,0,0,0-.01575.11523,25.37787,25.37787,0,0,0-2.92746,11.67863,8.91014,8.91014,0,0,0-5.19-.53417,8.66652,8.66652,0,0,0-5.42821,4.1818c-4.64005,7.39474.09166,11.96671.14144,12.01381a.86125.86125,0,0,0,1.21761-.03927.86175.86175,0,0,0-.03932-1.22025c-.0366-.034-3.75231-3.63188.14145-9.83779a7.01177,7.01177,0,0,1,4.32583-3.40933,7.79912,7.79912,0,0,1,5.26847.97671.86265.86265,0,0,0,1.32493-.81174c-.05754-.563-1.24638-13.86252,10.812-19.98464a8.28732,8.28732,0,0,1,5.47272-.29851,5.773,5.773,0,0,1,3.65282,5.17158c.2514,6.00169-2.23623,9.12035-2.27291,9.1675a.36812.36812,0,0,0-.02877.055,36.9782,36.9782,0,0,0-4.21588,4.42792.86281.86281,0,0,0,1.37735,1.03956c.13361-.17544,13.475-17.50487,28.99244-9.69379a9.34009,9.34009,0,0,1,4.91494,5.51463c1.28313,4.20014-1.05259,7.72466-6.94173,10.47936a.5973.5973,0,0,0-.089.04975,35.93312,35.93312,0,0,1-13.57444,4.39915.86145.86145,0,0,0,.09429,1.71773c.03141,0,.06281-.00259.09685-.00523a38.01289,38.01289,0,0,0,10.1075-2.59759c.94271.21472,4.49085,1.17837,6.24258,3.87281a7.19657,7.19657,0,0,1,.71753,5.84719c-2.23624,9.04439-17.353,8.937-17.50488,8.92656a.85312.85312,0,0,0-.87463.851.86234.86234,0,0,0,.84842.87461h.1754a31.94185,31.94185,0,0,0,11.299-2.1315c1.092-.09689,7.30053-.50014,10.57889,2.38024a6.04235,6.04235,0,0,1,2.032,4.72383c.06544,4.407-5.94148,7.48115-10.99,9.28533A71.093,71.093,0,0,1,235.148,83.38428a.86272.86272,0,0,0,.131,1.71514.75614.75614,0,0,0,.1309-.01047,72.00755,72.00755,0,0,0,8.2641-1.87224c9.23821-1.95343,14.39409.57344,14.4883.62059.042.01832,4.31537,1.93771,5.63774,5.86812C264.57242,92.00187,264.18757,94.56281,262.653,97.32272Z"/><path class="cls-1" d="M202.033,65.48452a8.44548,8.44548,0,0,0,1.11556.06285A12.405,12.405,0,0,0,210.69,63.01788a1.29346,1.29346,0,0,0-1.58424-2.04508,9.9072,9.9072,0,0,1-6.71654,1.94819,1.29408,1.29408,0,0,0-.35616,2.56353Z"/><path class="cls-1" d="M210.38222,75.70333a1.2927,1.2927,0,0,0-1.81463-.23042,9.90955,9.90955,0,0,1-6.71654,1.9482,1.29407,1.29407,0,0,0-.35608,2.56353,8.43061,8.43061,0,0,0,1.11284.06285,12.4114,12.4114,0,0,0,7.544-2.52951A1.29265,1.29265,0,0,0,210.38222,75.70333Z"/><path class="cls-1" d="M211.35154,92.2425a9.92621,9.92621,0,0,1-6.7191,1.9482,1.29391,1.29391,0,0,0-.35353,2.56355,8.38943,8.38943,0,0,0,1.11293.06283,12.41128,12.41128,0,0,0,7.54394-2.52949,1.29347,1.29347,0,1,0-1.58424-2.04509Z"/><path class="cls-1" d="M286.50894,168.59627c-2.23888-5.87861-6.88148-9.10988-13.07956-9.10988h-.12306c-5.512.03928-11.61318,2.86468-14.06941,6.26091a8.80237,8.80237,0,0,0-6.07757-3.90161c-4.81553-.76461-8.2327,1.67062-10.47676,4.37556a10.86229,10.86229,0,0,0-1.55276-4.3389,15.545,15.545,0,0,0-1.38262-1.92462c4.51171.9898,11.189,1.29618,15.84208-.93744a9.8464,9.8464,0,0,0,5.62991-6.79246c.77242-3.2208.36391-5.90218-1.21505-7.97344a9.73178,9.73178,0,0,0-4.27342-3.05844c10.24111-2.231,13.05334-8.15672,13.50636-13.04551a16.3518,16.3518,0,0,0-10.5291-16.523c-6.9522-2.70494-13.24449-.36659-17.23254,2.00318a15.01949,15.01949,0,0,1-3.34125,4.61647.9265.9265,0,0,0,.13353-.09164c.09166-.089,9.3115-9.00776,19.81447-4.92024a14.62049,14.62049,0,0,1,9.43712,14.75543c-.66246,7.146-6.25042,11.24659-16.60931,12.18665a.8637.8637,0,0,0,.04715,1.723c.05234,0,5.26583.22519,7.68011,3.40408,1.24381,1.6392,1.54756,3.83354.90339,6.52016a8.19368,8.19368,0,0,1-4.69758,5.64032c-5.61416,2.69708-14.80779,1.28045-17.95789-.20164a.86263.86263,0,0,0-.872,1.47948,15.26873,15.26873,0,0,1,3.63971,4.02992A8.04507,8.04507,0,0,1,240.826,168.9a20.0528,20.0528,0,0,0-1.57106,3.34387.86219.86219,0,0,0,.42945,1.03956.85111.85111,0,0,0,.38749.09164.863.863,0,0,0,.70441-.36136,10.725,10.725,0,0,0,1.6811-3.52454,17.9035,17.9035,0,0,1,1.32756-1.93509c2.55045-3.21032,5.6168-4.55886,9.10469-4.00635a6.9184,6.9184,0,0,1,5.50932,4.32843,4.26866,4.26866,0,0,1-.52893,4.043.86312.86312,0,0,0,1.25165,1.18882,5.84649,5.84649,0,0,0,1.003-5.46487c1.32229-2.993,7.21143-6.38922,13.19215-6.43112h.11259c3.86755,0,8.95534,1.40091,11.46655,7.997,5.19519,13.63206-7.11194,20.89325-7.61211,21.18129-18.18308,9.61786-28.089-2.176-28.5001-2.684a.87132.87132,0,0,0-.741-.31421.85651.85651,0,0,0-.6782.432c-4.66882,8.20387-10.34579,6.45731-10.58145,6.38138a.69484.69484,0,0,0-.18068-.03928c-3.13963-.36136-5.34966-1.52922-6.5699-3.4748-2.27811-3.624-.49233-8.87682-.474-8.92918a.86261.86261,0,0,0-1.58424-.673c-1.89845,3.76284-4.59809,3.45385-4.70285,3.44338a.86307.86307,0,0,0-.39021,1.67586c.03668.01047,3.75239,1.22024,4.75528,4.02207.54987,1.54231.16757,3.33861-1.13386,5.34442a13.19486,13.19486,0,0,1-9.56546,5.9231,21.35142,21.35142,0,0,1-12.02432-2.20217.86252.86252,0,0,0-1.00808,1.36425c.06017.06285,5.93876,6.47039,1.35378,12.8308a11.86584,11.86584,0,0,1-10.78051,4.826,27.33182,27.33182,0,0,1-11.24918-4.11109.86224.86224,0,1,0-.89037,1.47684,36.79172,36.79172,0,0,0,4.76055,2.43785.93121.93121,0,0,0-.06553.22521c-1.34067,16.88166-8.75635,22.65814-8.86367,22.74193-9.01823,7.44973-23.00381,16.41819-38.41653,16.82669-9.19363.24614-14.61137-2.72328-14.71086-2.77826-.10213-.04976-10.35106-5.11924-12.7313-14.58261-1.4245-5.66126.21728-11.7991,4.8757-18.2433,16.63289-22.99857,43.01718-13.55875,43.28169-13.45924a.86249.86249,0,0,0,.82484-1.49256c-.03668-.02881-3.62925-2.83587-4.04822-6.93912-.24877-2.4457.66766-4.89666,2.72849-7.29a8.52955,8.52955,0,0,1,5.90744-3.2077c4.57451-.33778,8.78775,3.25747,8.82963,3.29412a.8624.8624,0,0,0,1.3302-1.05,7.12431,7.12431,0,0,1-.24085-5.347c.90076-2.35406,3.20244-4.242,6.8396-5.61151a.86292.86292,0,0,0-.59965-1.61826c-.131.04713-13.11887,4.67932-18.75133-2.4876-5.14277-6.54632-2.54-13.7185-1.89582-15.232a21.03086,21.03086,0,0,0,4.5746-2.54783.86232.86232,0,1,0-1.04484-1.37211,19.58942,19.58942,0,0,1-4.50643,2.464,17.196,17.196,0,0,1-10.01592.9034c-13.65044-2.8804-11.61845-14.05367-11.532-14.504.0183-.08117,1.935-8.14887,9.18843-12.63443a20.6969,20.6969,0,0,1,9.81686-2.96678,14.41933,14.41933,0,0,1-1.45854-1.613,21.96522,21.96522,0,0,0-9.28529,3.12391,23.61591,23.61591,0,0,0-9.94783,13.729c-.02613.13353-2.485,13.31523,12.86228,16.55173a18.84646,18.84646,0,0,0,9.246-.38493,16.6885,16.6885,0,0,0,2.6421,15.54885c3.79163,4.82334,10.15209,5.0747,14.82881,4.43318a9.15065,9.15065,0,0,0-2.58193,3.62928,8.35007,8.35007,0,0,0-.432,4.20012,13.98056,13.98056,0,0,0-7.9813-2.22837,10.16768,10.16768,0,0,0-7.09883,3.8021c-2.38551,2.773-3.44074,5.66912-3.137,8.60712a11.54156,11.54156,0,0,0,2.41428,5.73983c-7.74563-1.81727-28.2121-4.32844-42.15318,14.94919-4.97783,6.8815-6.70862,13.50376-5.15059,19.68873,2.58448,10.24631,13.2,15.48337,13.60329,15.67715.22255.12569,5.40983,2.99036,14.41239,2.98774.33251,0,.67293-.00262,1.01335-.01047,15.94948-.37707,30.3383-9.576,39.56341-17.19852.32988-.24614,8.02837-6.16664,9.49738-23.69508a23.87432,23.87432,0,0,0,5.57748,1.2857c.44774.04451.89293.06546,1.33548.06546a13.60487,13.60487,0,0,0,11.01616-5.59842c3.48261-4.839,1.88271-9.6519.28536-12.47992a22.44906,22.44906,0,0,0,10.194,1.18882,14.91866,14.91866,0,0,0,10.80927-6.6956,10.04647,10.04647,0,0,0,1.558-3.6895,10.74948,10.74948,0,0,0,6.83177,3.04536c.8903.23827,6.981,1.54492,11.92484-6.19808a21.72836,21.72836,0,0,0,7.16692,4.61386c4.73953,1.88011,12.51913,2.993,22.687-2.38548C278.25794,191.82,292.23306,183.6214,286.50894,168.59627Zm-59.35168,18.10189a10.68806,10.68806,0,0,0-1.32493-.97407,6.34322,6.34322,0,0,0,1.36425-.85889A15.0216,15.0216,0,0,0,227.15726,186.69816Z"/><path class="cls-1" d="M364.93422,99.00723a23.89586,23.89586,0,0,0-4.32839,3.52193,4.508,4.508,0,0,0-.72535-1.56588,5.30308,5.30308,0,0,0-2.50594-1.81465,10.51158,10.51158,0,0,0,3.07682-6.41539c.50009-5.09043-1.70211-8.09389-3.63716-9.71737a11.5144,11.5144,0,0,0-6.94436-2.47715,19.161,19.161,0,0,0-2.4719.04453,10.73018,10.73018,0,0,0,1.778-2.09221,26.8724,26.8724,0,0,0,5.22915-.508,11.64753,11.64753,0,0,0,9.26179-9.47645,11.07711,11.07711,0,0,0-2.02415-8.56785c-1.393-1.84868-4.10065-4.16083-9.0732-4.68455a22.36632,22.36632,0,0,0-7.04905.33778,17.3493,17.3493,0,0,0,4.10584-6.71388c2.47709-7.26381-.22783-11.64722-2.93274-14.04844a13.892,13.892,0,0,0-8.94759-3.32814c-15.73732-.36659-21.74688,15.06439-23.36253,20.45332a14.983,14.983,0,0,0-7.4864-4.51958c-.288-.06021-7.1276-1.45326-12.32543,2.06343a12.66667,12.66667,0,0,0-5.24753,8.7511c-.64672,3.71048.03668,6.8082,2.03462,9.212a14.497,14.497,0,0,0,7.65661,4.38079,4.02273,4.02273,0,0,0-1.67062,3.57693,40.18456,40.18456,0,0,0-8.84282.63368c-7.0779,1.33283-12.08713,4.59815-14.4883,9.43719-3.29411,6.64844-1.47948,11.36965.62322,14.161a11.682,11.682,0,0,0,8.97372,4.51958c.35608.01573.71224.021,1.063.021a23.73465,23.73465,0,0,0,11.57922-2.90919c-.18595,2.25456.03924,6.02787,2.98245,8.63329-14.3495-.5525-22.35437,9.74618-24.93886,16.48891a13.32059,13.32059,0,0,0,1.94033,13.32308c2.35666,2.739,5.84718,4.1556,10.084,4.1556a22.82448,22.82448,0,0,0,4.87043-.56036c11.55292-2.52951,15.32106-10.02374,16.42607-13.23144a8.29243,8.29243,0,0,0,1.40612.93482,6.80061,6.80061,0,0,0-1.56067,8.35572,7.76526,7.76526,0,0,0,2.34364,2.97466,21.63155,21.63155,0,0,0-9.28009,27.32962c3.46431,7.53351,10.77,10.49506,18.36376,10.49506a32.79324,32.79324,0,0,0,10.76212-1.88011c7.93943-2.79134,14.16371-7.79536,17.07288-13.72633,4.93851-10.06564,1.55012-16.8005.30111-18.74606a9.91686,9.91686,0,0,0,6.59083-7.63826c.9977-4.84691-.14927-7.89748-1.66015-9.76974a13.63941,13.63941,0,0,0,1.36169.07855c3.27572,0,6.97577-1.181,10.63123-4.75526a18.63329,18.63329,0,0,0,17.565-1.50565,15.00407,15.00407,0,0,0,6.51756-10.31176,12.001,12.001,0,0,0-2.91964-9.58907C380.05886,96.59818,371.00924,95.103,364.93422,99.00723Zm21.38817,12.69987a13.26862,13.26862,0,0,1-5.77383,9.102c-5.83144,3.933-14.12959,3.60833-19.29856-.75152a.86218.86218,0,0,0-1.11293,1.31711,15.531,15.531,0,0,0,2.18917,1.52661c-5.059,4.65836-10.12851,4.29962-13.708,2.99036-.24094-.10211-.42161-.165-.51847-.19639a17.48717,17.48717,0,0,1-4.7369-2.86991.86172.86172,0,0,0-1.1679,1.26737,18.82292,18.82292,0,0,0,5.27638,3.21032c.20945.08381.43728.15712.65719.23568,1.47692.63367,5.30259,3.00606,3.7969,10.30391-1.46637,7.10932-8.80086,7.11456-9.13081,7.091a.8459.8459,0,0,0-.87719.84579.86285.86285,0,0,0,.84578.87982h.0183a12.63445,12.63445,0,0,0,2.5033-.31683c.1257.16234,5.15851,6.73486-.10732,17.47345-2.71283,5.52772-8.581,10.21489-16.09876,12.85962-9.71737,3.4198-22.30722,2.46666-26.98395-7.709a19.83232,19.83232,0,0,1,9.63882-25.63019,6.93308,6.93308,0,0,0,4.40439-.13879.86143.86143,0,0,0-.62587-1.60515,5.07979,5.07979,0,0,1-6.48871-2.94847,5.23588,5.23588,0,0,1,1.87751-6.90245c3.59521.83793,7.235-1.04216,9.09942-2.61853a.86218.86218,0,0,0-1.11293-1.31712c-.25923.22-6.43373,5.30776-11.06331.08642a.86194.86194,0,0,0-1.4925.41372c-.08119.42421-2.12628,10.40081-15.50957,13.33355-5.787,1.26738-10.503.18855-13.276-3.03748a11.5787,11.5787,0,0,1-1.63922-11.58176c3.28627-8.57569,12.43539-17.61749,27.39773-14.92564a9.90707,9.90707,0,0,0,2.82015.42159c6.36037,0,10.3851-6.43373,10.43481-6.5149l-1.47157-.89816c-.21736.3535-5.43868,8.65163-13.21572,4.551-4.88881-2.58187-4.01682-8.18553-3.72882-9.52622a24.39357,24.39357,0,0,0,7.39994-7.74561.86234.86234,0,0,0-1.51607-.82221,23.09731,23.09731,0,0,1-7.11977,7.324,22.14659,22.14659,0,0,1-13.22883,3.56382,9.96674,9.96674,0,0,1-7.66445-3.83616c-1.80943-2.4012-3.35962-6.49657-.453-12.35684,4.695-9.47385,19.11788-9.24605,22.15011-9.08892.09166.26708.19642.53678.32213.81435a.86306.86306,0,1,0,1.57113-.71486,3.6777,3.6777,0,0,1-.28281-3.22078,3.56036,3.56036,0,0,1,2.29641-1.51352.85377.85377,0,0,0,.33515-.14141c1.10246.13617,1.85394.1519,1.95087.15451h.01047a.86285.86285,0,0,0,.01047-1.72562c-.07591,0-7.66445-.14925-11.244-4.4646-1.65752-1.99533-2.21266-4.62171-1.65752-7.80845a11.00491,11.00491,0,0,1,4.50652-7.61208c4.57979-3.10819,10.94808-1.8251,11.00042-1.81463.07328.01834,7.2036,1.6968,8.44741,7.921a.86248.86248,0,0,0,1.69156-.33778,10.51683,10.51683,0,0,0-1.01862-2.85157c.60748-2.51119,5.57221-20.63143,21.57148-20.63143.1623,0,.322.00264.48442.00524a12.17329,12.17329,0,0,1,7.84249,2.8961c3.36482,2.98513,4.187,7.091,2.44568,12.19973C343.99652,60.04611,330.9431,59.81568,330.38532,59.8a.86317.86317,0,0,0-.04971,1.72562h.12307a23.61019,23.61019,0,0,0,4.83119-.5787,30.734,30.734,0,0,0-7.36853,10.427.86273.86273,0,1,0,1.613.61274c.25924-.68344,6.58821-16.72456,22.85718-15.01728a10.92216,10.92216,0,0,1,7.87389,4.009,9.35845,9.35845,0,0,1,1.70467,7.22975,9.93882,9.93882,0,0,1-7.90275,8.08342,24.7429,24.7429,0,0,1-4.01681.45823,8.88673,8.88673,0,0,0,.54987-2.97465.86219.86219,0,0,0-.84834-.87459.88415.88415,0,0,0-.87727.84841,6.99412,6.99412,0,0,1-.81693,3.20508.83919.83919,0,0,0-.34825.58917c-2.99827,4.62171-10.75174,6.03048-10.84859,6.04618a.86267.86267,0,0,0,.14663,1.71252.94382.94382,0,0,0,.14664-.01047c.08639-.0157.46349-.08378,1.04212-.22257a18.57432,18.57432,0,0,0-4.16081,9.09154.862.862,0,1,0,1.71249.199c.06026-.51846,1.62875-12.68153,14.0432-12.0976a9.80344,9.80344,0,0,1,5.91264,2.07388c2.3541,1.97436,3.37265,4.74215,3.02967,8.22742-.9348,9.53668-16.42344,11.02663-16.58054,11.03973a.86184.86184,0,0,0,.07591,1.72037.71261.71261,0,0,0,.07592-.00261,34.15364,34.15364,0,0,0,8.54171-2.07388,20.63346,20.63346,0,0,0,4.98566-2.73636,4.19414,4.19414,0,0,1,2.65521,1.469,4.03792,4.03792,0,0,1,.33779,3.43814.86214.86214,0,1,0,1.67062.4268l.00256-.00261c.43736-1.7099,3.16584-3.96969,5.368-5.3837,5.29468-3.40146,13.51682-2.01888,17.95006,3.01916A10.18194,10.18194,0,0,1,386.32239,111.7071Z"/></svg>