<svg xmlns="http://www.w3.org/2000/svg" id="圖層_1" data-name="圖層 1" viewBox="0 0 797.902 259.653"><defs><style>.cls-1{fill:#fffa6f}</style></defs><path d="M549.764 125.786c4.27 6.69 11.521 9.086 16.853 9.917a28.183 28.183 0 0 0 4.346.332 31.04 31.04 0 0 0 6.19-.639 37.65 37.65 0 0 0 7.79-2.45 24.15 24.15 0 0 0 12.908-13.855 25.555 25.555 0 0 0-.996-19.742c-7.695-16.038-20.238-15.609-26.028-14.394a14.011 14.011 0 0 0 1.378-2.155 11.847 11.847 0 0 0 .61-9.356 10.76 10.76 0 0 0-5.785-6.818c-4.446-2.043-9.913-.977-12.953-.087a16.336 16.336 0 0 0 1.984-10.047 8.34 8.34 0 0 0-7.69-7.167 13.394 13.394 0 0 0-2.833-.037c8.224-6.734 11.725-18.657 7.81-28.641-3.092-7.895-9.654-13.009-18.97-14.79a46.164 46.164 0 0 0-24.683 2.588c-10.228 3.985-22.674 12.65-25.766 24.417a7.766 7.766 0 0 0-4.263-2.493c-6.588-1.647-10.176 2.91-11.545 5.261a11.054 11.054 0 0 0-4.763-3.234c-5.591-1.932-11.085-.534-15.892 4.048a20.054 20.054 0 0 0-6.335 14.489c.04 9.115 6.704 12.86 11.2 14.35a18.303 18.303 0 0 0-9.1 6.907c-5.632 7.607-6.232 16.88-1.602 24.8a21.326 21.326 0 0 0 3.889 4.889c-3.45.833-10.451 3.559-10.883 12.037a10.555 10.555 0 0 0 1.275 6.102c-8.11-1.284-16.065 1.385-22.642 7.68-9.144 8.75-13.792 22.959-11.3 34.551 2.648 12.313 14.452 21.092 28.708 21.346.188.006.377.006.568.006a31.892 31.892 0 0 0 27.576-15.958 35.685 35.685 0 0 0 4.205-11.98 17.632 17.632 0 0 0 2.752.228 21.048 21.048 0 0 0 5.067-.649c4.085-1.021 9.568-3.428 12.477-9.076a23.644 23.644 0 0 0 2.676-9.544 20.09 20.09 0 0 0 3.562-.186 7.902 7.902 0 0 0-1.386 6.75 11.459 11.459 0 0 0 1.658 3.093 9.701 9.701 0 0 0-5.23 3.39c-1.468 2.001-1.885 4.578-1.235 7.665 1.432 6.8 8.245 9.157 12.181 9.956a17.675 17.675 0 0 0 3.498.35 17.324 17.324 0 0 0 4.473-.583c4.216-1.137 11.616-4.344 13.786-13.035a16.974 16.974 0 0 0-1.251-12.087 14.27 14.27 0 0 0 3.16.345 21.857 21.857 0 0 0 7.908-1.673c11.412-4.54 13.111-13.069 13.172-17.463a10.084 10.084 0 0 0 6.82 2.613h.066a10.21 10.21 0 0 0 2.462-.32.898.898 0 0 0 .123.35Zm-64.534 9.052a.878.878 0 0 0-.686.226.867.867 0 0 0-.275.667c.191 4.719-2.432 9.555-2.472 9.623-2.624 5.099-7.63 7.28-11.37 8.212a17.757 17.757 0 0 1-7.195.388 8.708 8.708 0 0 1-1.522-.34 15.565 15.565 0 0 1-10.934-18.228 12.014 12.014 0 0 1 10.293-9.194 12.55 12.55 0 0 0 3.527 2.302.88.88 0 0 0 .322.063.863.863 0 0 0 .325-1.663c-.037-.013-3.577-1.48-4.528-4.185a4.815 4.815 0 0 1 .545-4.035c3.059-5.483 9.697-2.629 9.977-2.503a.863.863 0 0 0 1.212-.849c-.257-3.71-.12-8.863 4.001-10.733a6.892 6.892 0 0 1 7.95 1.64c1.778 1.89 1.888 4.59.327 8.023a22.827 22.827 0 0 1-3.074 4.839.861.861 0 0 0 1.3 1.13 24.185 24.185 0 0 0 3.162-4.872c3.656-.88 8.547-.037 10.72 2.982 2.446 3.396 2.082 8.32.459 11.425-3.169 6.051-11.972 5.096-12.064 5.082Zm30.414 18.723c-1.872 7.484-7.87 10.563-12.574 11.828a15.676 15.676 0 0 1-7.18.21c-4.3-.873-9.667-3.077-10.835-8.62-.545-2.58-.23-4.69.93-6.278 1.934-2.642 5.642-3.04 5.679-3.045a.862.862 0 0 0 .414-1.563 8.134 8.134 0 0 1-2.25-3.383c-1.042-4.25 2.46-6.714 3.1-7.125a10.618 10.618 0 0 0 5.892-5.03c1.87-3.575 2.268-9.267-.586-13.232-2.446-3.396-7.335-4.462-11.33-3.886 1.154-3.404.735-6.284-1.25-8.392a8.593 8.593 0 0 0-9.916-2.027c-4.585 2.082-5.21 7.052-5.08 11.105-3.166-.953-8.238-1.068-10.904 3.713a6.153 6.153 0 0 0 .01 6.803 13.825 13.825 0 0 0-10.66 10.317 17.314 17.314 0 0 0 12.232 20.351 34.015 34.015 0 0 1-4.009 11.472 30.176 30.176 0 0 1-26.623 15.093c-11-.196-24.158-6.535-27.049-19.984-2.372-11.04 2.071-24.586 10.804-32.944 6.793-6.5 15.12-8.892 23.462-6.758a10.287 10.287 0 0 0 5.866 1.676 10.732 10.732 0 0 0 1.487-.092.863.863 0 0 0-.26-1.707c-.044.005-4.108.584-6.622-1.697-1.495-1.357-2.18-3.499-2.034-6.363a10.272 10.272 0 0 1 5.69-9.013 16.209 16.209 0 0 1 5.203-1.7 10.66 10.66 0 0 0 5.996 2.213 6.518 6.518 0 0 0 .817-.05.862.862 0 1 0-.214-1.71c-3.389.42-7.903-2.783-10.731-7.625-4.27-7.305-3.71-15.865 1.5-22.901 3.232-4.366 7.19-6.701 11.807-6.995a17.18 17.18 0 0 1 3.96.215 23.291 23.291 0 0 1 8.51 3.37.862.862 0 0 0 .99-1.411c-.097-.068-6.154-4.224-13.326-3.88-.019-.003-.034-.014-.053-.017a20 20 0 0 1-6.863-2.212 12.26 12.26 0 0 1-6.79-11.362 18.339 18.339 0 0 1 5.8-13.232c4.373-4.166 9.126-5.402 14.14-3.665a8.98 8.98 0 0 1 5.958 6.661 8.324 8.324 0 0 1-1.354 6.607.863.863 0 0 0 1.414.99 10.002 10.002 0 0 0 1.634-7.927 10.119 10.119 0 0 0-1.22-3.158c.69-1.469 3.652-6.75 10.02-5.158 2.287.57 3.67 1.73 4.227 3.543.846 2.739-.54 5.993-.553 6.025a.862.862 0 0 0 .448 1.134.839.839 0 0 0 .343.07.86.86 0 0 0 .791-.515 11.96 11.96 0 0 0 .678-7c1.92-12.15 14.722-21.189 25.143-25.248a45.044 45.044 0 0 1 23.73-2.5c6.072 1.16 14.069 4.483 17.69 13.723 4.185 10.679-.74 23.745-10.982 29.126-9.377 4.928-20.794 4.727-28.722 3.687a.862.862 0 1 0-.223 1.71 70.543 70.543 0 0 0 9.13.615 48.567 48.567 0 0 0 15.995-2.485 23.352 23.352 0 0 0-4.444 8.026.862.862 0 1 0 1.66.466 21.965 21.965 0 0 1 3.16-6.263c2.897-3.907 6.545-5.633 10.85-5.12a6.562 6.562 0 0 1 6.197 5.75c.558 3.209-.497 7.372-2.88 10.732a.33.33 0 0 0-.029.034 14.24 14.24 0 0 1-5.174 4.535.866.866 0 0 0-.385 1.157.856.856 0 0 0 .773.477.88.88 0 0 0 .385-.09 15.78 15.78 0 0 0 5.561-4.786c1.21-.463 8.46-3.064 13.7-.652a9.107 9.107 0 0 1 4.858 5.782 10.185 10.185 0 0 1-.5 8.034c-3.1 6.072-11.77 8.931-11.857 8.96a.862.862 0 1 0 .529 1.642 28.856 28.856 0 0 0 9.19-5.23c1.771-.701 17.626-6.33 26.765 12.714a23.828 23.828 0 0 1 .932 18.4 22.45 22.45 0 0 1-11.993 12.875 35.917 35.917 0 0 1-7.431 2.334 27.946 27.946 0 0 1-9.927.293c-4.975-.775-11.728-2.988-15.654-9.126a9.734 9.734 0 0 0 4.318-3.728c3.124-4.991.731-11.004.629-11.258a.762.762 0 0 0-.037-.08 11.359 11.359 0 0 0-7.31-6.13c-4.486-1.114-9.134.795-11.522 2.05a13.512 13.512 0 0 0-7.667-13.077 10.125 10.125 0 0 0-11.082 2.22 8.516 8.516 0 0 0-1.76 9.021 12.044 12.044 0 0 0-3.301.867 6.625 6.625 0 0 0-3.968 4.954 7.274 7.274 0 0 0 2.234 6.51 10.126 10.126 0 0 0 2.833 1.867 11.092 11.092 0 0 0-7.761 6.077c-2.506 5.46-.751 11.561 4.467 15.547a12.28 12.28 0 0 0 2.085 1.28c4.312 5.533 2.29 12.456 2.26 12.569Zm31.525-29.53h-.055a8.308 8.308 0 0 1-7.039-3.794l-.089-.14a.863.863 0 0 0-1.576.633 15.533 15.533 0 0 1-.495 6.928c-1.524 5.117-5.37 8.935-11.433 11.346-3.977 1.582-9.662 2.753-14.137-.662-4.551-3.477-6.101-8.759-3.944-13.46 1.658-3.613 5.3-5.524 10.823-5.679a.862.862 0 0 0 .026-1.723 10.355 10.355 0 0 1-6.3-2.506 5.564 5.564 0 0 1-1.726-4.964 4.867 4.867 0 0 1 2.964-3.672 11.287 11.287 0 0 1 3.95-.835.863.863 0 0 0 .693-1.312 6.925 6.925 0 0 1 1.013-8.172 8.322 8.322 0 0 1 6.036-2.443 7.03 7.03 0 0 1 3.014.628c7.408 3.538 7.036 11.642 6.478 12.82a.863.863 0 0 0 1.265 1.082c.06-.042 6.224-4.135 11.773-2.757a9.69 9.69 0 0 1 6.18 5.224c.186.487 2.03 5.608-.506 9.654a8.152 8.152 0 0 1-6.915 3.805ZM580.488 64.436a19.069 19.069 0 0 0 9.537 4.048 25.34 25.34 0 0 0 3.977.31 28.69 28.69 0 0 0 8.966-1.473 33.455 33.455 0 0 0 6.528-2.746 9.994 9.994 0 0 0 .115 1.958 5.515 5.515 0 0 0 1.726 3.273 25.763 25.763 0 0 0-5.703 3.171c-6.298 4.502-10.789 14.711-7.167 22.169 2.42 4.98 7.025 7.732 12.975 7.75h.06a23.404 23.404 0 0 0 15.654-6.373 9.031 9.031 0 0 0 1.856 5.408 6.047 6.047 0 0 0 4.8 2c4.653 0 8.018-3.679 9.935-6.546a7.59 7.59 0 0 0 1.471 3.849c1.398 1.791 3.645 2.697 6.68 2.697h.042c10.05-.026 15.096-8.6 16.53-16.47a16.085 16.085 0 0 0 7.27 2.898 14.771 14.771 0 0 0 2.406.2 19.259 19.259 0 0 0 4.803-.674c12.16-3.113 13.406-10.796 13.448-11.097.75-4.276.084-7.557-1.977-9.746a9.258 9.258 0 0 0-5.21-2.627 8.325 8.325 0 0 0 4.06-7.203c-.023-2.93-.955-5.025-2.77-6.227a8.822 8.822 0 0 0-6.017-.971 10.364 10.364 0 0 0 3.15-8.84c-.544-4.73-4.22-6.61-7.298-7.154a7.755 7.755 0 0 0 2.779-6.041c0-2.873-.854-5.067-2.538-6.52a8.154 8.154 0 0 0-4.556-1.807 16.185 16.185 0 0 0 4.438-10.06 10.179 10.179 0 0 0-2.88-7.859c-2.516-2.532-6.491-3.891-10.89-3.718a17.934 17.934 0 0 0-12.169 5.58c-3.687 3.802-5.114 9.217-4.053 15.096a8.602 8.602 0 0 0-4.695-.872 11.719 11.719 0 0 0-7.348 3.872 10.77 10.77 0 0 0-2.01-4.482c-2.968-4.06-10.08-6.628-18.681-2.674-4.95 2.273-10.074 7.11-10.276 13.88a11.092 11.092 0 0 0-4.7-3.597 8.977 8.977 0 0 0-7.342.647 7.748 7.748 0 0 0-4.426 7.714 9.31 9.31 0 0 0 1.126 3.922 12.053 12.053 0 0 0-3.487-.573c-5.24-.055-9.642 3.21-11.692 8.717-2.362 6.342-.901 13.41 3.553 17.19Zm-1.938-16.589c1.773-4.763 5.494-7.593 9.964-7.593h.097a14.384 14.384 0 0 1 5.24 1.312c.539.212 1.086.424 1.657.625l.003.003a.863.863 0 1 0 .576-1.626c-1.77-.626-3.221-2.988-3.378-5.496a6.093 6.093 0 0 1 3.475-6.065 7.34 7.34 0 0 1 5.967-.573c3.76 1.382 5.735 5.936 5.753 5.98a.862.862 0 0 0 1.634-.531c-1.194-5.101.519-11.922 8.914-15.782 5.585-2.564 13.069-2.66 16.567 2.126a7.9 7.9 0 0 1 1.7 6.248c-.78 4.098-5.07 6.847-5.112 6.874a.862.862 0 0 0 .917 1.46c.201-.128 4.96-3.162 5.886-7.999.026-.139.037-.277.058-.416.455-.689 3.134-4.446 7.465-4.858a6.964 6.964 0 0 1 5.284 1.682 8.594 8.594 0 0 1 1.773 2.016.862.862 0 0 0 1.5-.851 10.156 10.156 0 0 0-1.953-2.297c-.958-3.621-1.718-10.196 3.22-15.29a16.213 16.213 0 0 1 10.999-5.058c3.914-.144 7.42 1.02 9.6 3.21a8.397 8.397 0 0 1 2.38 6.567c-.268 6.12-5.298 12.017-11.695 13.719a.861.861 0 0 0 .22 1.694.824.824 0 0 0 .223-.029 17.729 17.729 0 0 0 6.748-3.543 7.422 7.422 0 0 1 5.226 1.417c1.28 1.11 1.933 2.862 1.933 5.206 0 7.292-10.967 7.832-11.08 7.837a.862.862 0 0 0 .037 1.723h.034a19.138 19.138 0 0 0 7.657-1.977c1.047-.021 7.227.123 7.882 5.808.625 5.412-3.294 9.623-11.642 12.514a.863.863 0 0 0 .28 1.678.826.826 0 0 0 .283-.05 32.395 32.395 0 0 0 6.219-2.84c.293-.119 5.567-2.185 8.492-.247 1.304.864 1.974 2.48 1.995 4.8.065 7.735-11.959 8.4-12.08 8.405a.862.862 0 0 0 .04 1.723h.042a22.132 22.132 0 0 0 6.62-1.39c.69-.052 4.666-.225 7.001 2.268 1.663 1.772 2.176 4.55 1.524 8.28-.044.28-1.196 6.891-12.176 9.704a15.31 15.31 0 0 1-6.502.442c-3.498-.57-4.964-1.503-7.695-3.383-.008-.005-.019-.005-.027-.01a.863.863 0 0 0-.16-.068.721.721 0 0 0-.16-.055c-.01-.003-.017-.011-.028-.011a.979.979 0 0 0-.126.008 1.001 1.001 0 0 0-.178.013.763.763 0 0 0-.18.07.676.676 0 0 0-.116.058.97.97 0 0 0-.16.152c-.018.024-.046.04-.065.066-.005.005-.005.015-.008.02a1.044 1.044 0 0 0-.076.176.771.771 0 0 0-.05.15c-.002.01-.007.018-.01.028-.22 1.67-2.506 16.303-15.043 16.337h-.037c-2.472 0-4.26-.683-5.316-2.03-1.874-2.393-.95-6.208-.94-6.247a.862.862 0 0 0-1.628-.55c-.04.086-3.876 8.827-10.202 8.827a4.346 4.346 0 0 1-3.493-1.403c-1.694-1.949-1.485-5.371-1.401-6.238a15.436 15.436 0 0 0 1.668-2.618.861.861 0 1 0-1.545-.762c-2.768 5.606-10.464 9.984-17.542 9.984h-.052c-5.255-.016-9.312-2.422-11.43-6.78-2.605-5.365-.529-14.901 6.62-20.01 1.73-1.239 5.064-3.354 7.929-3.598a.862.862 0 0 0-.147-1.718c-2.569.226-3.056-2.466-3.103-2.788a7.364 7.364 0 0 1 4.143-7.953.864.864 0 0 0-.694-1.581 9.794 9.794 0 0 0-4.876 5.483.857.857 0 0 0-.309.178c-1.03.935-3.566 2.1-7.151 3.28a26.028 26.028 0 0 1-12.135 1.098 17.368 17.368 0 0 1-8.688-3.66c-3.912-3.321-5.169-9.603-3.056-15.275Z" class="cls-1"/><path d="M644.406 44.958c.018 0 .086.002.199.002a9.889 9.889 0 0 0 5.656-1.728.863.863 0 0 0-1.05-1.37 8.356 8.356 0 0 1-4.734 1.373.837.837 0 0 0-.896.827.862.862 0 0 0 .825.896M643.765 56.062c.018 0 .078.003.178.003.786 0 3.949-.126 5.886-2.064a.862.862 0 1 0-1.22-1.217c-1.642 1.642-4.747 1.56-4.781 1.555a.862.862 0 0 0-.063 1.723M639.656 69.997a10.132 10.132 0 0 0 1.467.091 15.646 15.646 0 0 0 6.318-1.366.863.863 0 0 0-.704-1.577 13.36 13.36 0 0 1-6.806 1.15.862.862 0 0 0-.275 1.702M686.3 149.856c-6.337-2.98-12.755-2.278-18.552 2.029a27.002 27.002 0 0 0-3.3 2.917 6.731 6.731 0 0 0-.927-5.007 7.813 7.813 0 0 0-7.37-2.668 6.676 6.676 0 0 0 1.576-2.663 7.094 7.094 0 0 0-.487-5.721 6.109 6.109 0 0 0-1.1-1.349 24.448 24.448 0 0 0 10.856-3.071 17.252 17.252 0 0 0 8.66-15.877c-.705-13.605-14.072-14.231-14.177-14.231h-.003a18.213 18.213 0 0 0-17.347 7.093 5.887 5.887 0 0 0-3.54-4.834c-7.021-1.861-10.85 2.441-12.567 5.34a8.274 8.274 0 0 0-6.677-5.23 10.182 10.182 0 0 0-11.108 6.044c-1.15 2.752-1.22 5.182-.21 7.222a7.857 7.857 0 0 0 3.017 3.16 8.703 8.703 0 0 0-2.23 5.07 5.835 5.835 0 0 0 .326 2.197c-2.435-.822-6.067-1.304-9.151 1.338a9.356 9.356 0 0 0-3.242 7.222 11.281 11.281 0 0 0 .18 1.948c-4.694-1.765-18.52-6.206-25.088-.11-4.283 3.975-4.846 8.1-4.561 10.86a12.8 12.8 0 0 0 3.268 7.218 44.274 44.274 0 0 0-13.692 1.36 15.78 15.78 0 0 0-9.647 7.91c-2.074 4.148-2.024 9.154.144 14.48 3.268 8.031 12.28 11.401 22.35 11.401a53.344 53.344 0 0 0 16.8-2.849c11.935-4.043 12.723-15.326 12.702-18.489 5.805-.838 9.966-3.037 12.378-6.538a13.618 13.618 0 0 0 2.27-8.144 9.828 9.828 0 0 0 4.614.78 11.603 11.603 0 0 0-.877 4.67 8.607 8.607 0 0 0 4.71 7.258 12.205 12.205 0 0 0 12.556.133c-1.285 2.716-2.471 6.552-1.55 10.362.885 3.647 3.53 6.543 7.861 8.607a19.686 19.686 0 0 0 8.39 2.155 12.2 12.2 0 0 0 4.512-.833 12.802 12.802 0 0 0 6.35-5.698c4.511 3.352 9.102 4.687 13.655 3.978 8.262-1.294 13.347-8.825 13.546-9.128 4.787-6.845 6.53-13.232 5.187-18.987a18.56 18.56 0 0 0-8.505-11.325Zm1.893 29.34c-.047.074-4.894 7.23-12.398 8.395-4.342.673-8.762-.764-13.148-4.273a.864.864 0 0 0-1.34.353 11.336 11.336 0 0 1-5.893 5.748c-3.212 1.257-7.085.825-11.508-1.28-3.836-1.83-6.164-4.337-6.923-7.45-1.48-6.08 3.425-12.64 3.474-12.705a.862.862 0 0 0-1.327-1.097c-.063.068-6.175 6.724-13.967 2.212a6.874 6.874 0 0 1-3.852-5.831c-.147-3.944 2.851-8.11 4.504-9.241a.862.862 0 0 0-.975-1.422 13.4 13.4 0 0 0-3.53 4.271c-1.67.191-5.035.183-5.805-1.66a.863.863 0 0 0-1.634.54 12.664 12.664 0 0 1-1.723 9.31c-2.228 3.222-6.245 5.206-11.937 5.89a.866.866 0 0 0-.757.937c.013.131 1.087 13.26-11.509 17.529-11.524 3.904-31.76 5.302-36.997-7.57-2.003-4.92-2.068-9.315-.199-13.056a14.002 14.002 0 0 1 8.544-7.018c4.502-1.184 11.76-2.064 17.403-.652a15.714 15.714 0 0 1 3.632 1.37.862.862 0 0 0 .82-1.517 17.166 17.166 0 0 0-4.033-1.524c-.482-.12-.974-.222-1.474-.311a10.797 10.797 0 0 1-4.648-7.785c-.244-2.37.257-5.926 4.02-9.42 6.465-6 22.019-.07 24.472.92a9.254 9.254 0 0 0 2.504 3.797.85.85 0 0 0 .563.21.862.862 0 0 0 .56-1.517 8.957 8.957 0 0 1-2.64-6.51 7.593 7.593 0 0 1 2.64-5.915c4.158-3.566 9.605-.084 9.835.068a.862.862 0 0 0 1.092-1.32 4.752 4.752 0 0 1-1.503-3.513 7.36 7.36 0 0 1 2.113-4.352 7.316 7.316 0 0 0 .783.264.862.862 0 1 0 .432-1.668 7.481 7.481 0 0 1-1.037-.393l-.01-.002a6.678 6.678 0 0 1-3.242-2.925c-.783-1.571-.696-3.52.251-5.787a8.455 8.455 0 0 1 9.236-5.01 6.603 6.603 0 0 1 5.787 6.222.862.862 0 0 0 1.681.207c.118-.361 2.972-8.859 11.537-6.599.15.058 3.658 1.433 1.867 6.667a.861.861 0 0 0 1.603.629c.05-.113 5.085-11.174 17.798-9.48.487.016 11.975.569 12.598 12.603a15.51 15.51 0 0 1-7.777 14.282 23.4 23.4 0 0 1-13.368 2.812.862.862 0 0 0-.254 1.7 5.649 5.649 0 0 1 3.231 2.312 5.495 5.495 0 0 1 .291 4.396c-.005.026-.55 2.074-3.878 4.156a16.675 16.675 0 0 0-2.75 1.422.863.863 0 0 0 .81 1.516 21.307 21.307 0 0 0 2.608-1.325c2.644-1.092 6.795-2.058 9.33 1.066.02.026 2.1 2.786-1.25 8.395l-.007.013a.862.862 0 0 0 1.482.882v-.002a27.02 27.02 0 0 1 6.418-6.921c5.318-3.933 10.956-4.543 16.7-1.846a17.038 17.038 0 0 1 7.608 10.18c1.228 5.256-.43 11.182-4.934 17.623Z" class="cls-1"/><path d="M636.827 127.392a4.679 4.679 0 0 1-3.126-.52q-.11-.103-.228-.205a.863.863 0 0 0-1.246 1.181 2.122 2.122 0 0 0 .348.335 2.635 2.635 0 0 1 .963 2.307.863.863 0 0 0 1.593.636 5.973 5.973 0 0 1 2.168-2.11.861.861 0 0 0-.472-1.624M784.236 103.203a27.764 27.764 0 0 0-11.909.357 5.417 5.417 0 0 0 .44-1.328 4.563 4.563 0 0 0-1.06-3.773c-2.224-2.758-5.56-2.76-7.956-2.286a8.248 8.248 0 0 0 1.145-3.73 37.753 37.753 0 0 0 9.497.182c8.437-1.318 17.068-8.388 16.298-17.513-.566-6.68-5.847-12.8-12.847-14.879a20.376 20.376 0 0 0-6.336-.725 18.933 18.933 0 0 0 6.315-9.348c1.47-4.787.893-9.516-1.584-12.972-4.925-6.877-13.674-6.958-20.217-4.745a24.29 24.29 0 0 0-10.548 7.206 10.424 10.424 0 0 0-5.242-7.452 16.318 16.318 0 0 0-12.999-.888 11.221 11.221 0 0 0-6.92 6.431 12.036 12.036 0 0 0 .086 9.626 13.84 13.84 0 0 0 2.794 3.925 11.808 11.808 0 0 0-3.04 3.174 10.762 10.762 0 0 0-1.09 8.696 11.698 11.698 0 0 0 5.75 7.337 6.375 6.375 0 0 0-3.128 3.087 7.193 7.193 0 0 0-.55 3.543c-3.794-1.802-13.598-5.145-20.542 4.116a14.633 14.633 0 0 0-2.645 11.493c.835 3.912 3.791 7.044 8.324 8.817a22.707 22.707 0 0 0 7.377 1.503 6.624 6.624 0 0 0-1.645 5.627 8.56 8.56 0 0 0 1.94 4.33c-10.995.54-24.258 3.185-29.508 12.195a14.604 14.604 0 0 0 3.444 18.207 22.878 22.878 0 0 0 14.679 4.941c.807 0 1.618-.036 2.43-.112a58.218 58.218 0 0 0 13.863-3.15 9.691 9.691 0 0 0-1.032 2.854 10.766 10.766 0 0 0 1.843 8.473 8.465 8.465 0 0 0 4.114 2.875 29.798 29.798 0 0 0-7.832 8.526 19.455 19.455 0 0 0-1.537 15.651 21.144 21.144 0 0 0 10.807 12.944 37.51 37.51 0 0 0 15.863 3.535 32.36 32.36 0 0 0 20.833-7.172c6.109-5.127 10.04-12.184 10.513-18.875.568-7.989-4.281-14.802-9.707-17.256a13.082 13.082 0 0 0 7.754-9.576c.866-4.106.259-8.568-2.153-11.343 9.914 1.382 17.806-.186 23.499-4.677 7.177-5.661 8.08-14.232 2.307-21.836a16.297 16.297 0 0 0-9.888-6.015Zm6.513 26.497c-6.136 4.84-15.125 6.02-26.725 3.512l-.005-.003a.863.863 0 1 0-.364 1.686c5.347 1.158 5.996 7.704 5.13 11.823-1.208 5.714-5.913 9.354-12.284 9.495a.862.862 0 0 0 .02 1.723h.019a17.505 17.505 0 0 0 3.36-.4c6.76 1.282 11.275 9.594 10.804 16.247-.443 6.235-4.146 12.844-9.901 17.675-9.02 7.568-23.027 8.935-34.858 3.397a19.388 19.388 0 0 1-9.888-11.886 17.738 17.738 0 0 1 1.37-14.263 28.362 28.362 0 0 1 8.699-8.945c.288.021.578.04.87.04a13.373 13.373 0 0 0 6.498-1.763.861.861 0 1 0-.85-1.498c-3.688 2.098-8.862 2.365-11.62-1.175a8.998 8.998 0 0 1-1.513-7.084 6.719 6.719 0 0 1 3.1-4.684c.016-.01.024-.026.04-.034a37.855 37.855 0 0 0 9.073-5.59.863.863 0 1 0-1.123-1.31c-5.947 5.096-16.062 8.969-25.77 9.864-6 .555-11.921-1.1-15.833-4.425-4.656-3.954-6.005-10.993-3.072-16.023 5.164-8.861 19.105-11.103 29.993-11.414a6.664 6.664 0 0 0 3.323.872c.086 0 .175-.003.264-.005a.862.862 0 0 0-.063-1.723c-3.234.115-5.368-2.674-5.732-5.358a4.714 4.714 0 0 1 3.7-5.575c.005 0 .008-.005.013-.005 4.255-.605 8.199-2.566 10.56-6.282a.862.862 0 0 0-1.455-.924c-3.957 6.219-13.067 6.847-19.629 4.281-2.301-.9-6.308-3.08-7.266-7.57a12.859 12.859 0 0 1 2.338-10.097 12.725 12.725 0 0 1 12.75-5.381 20.35 20.35 0 0 1 6.792 2.362 12.143 12.143 0 0 0 .836 2.197.862.862 0 0 0 .764.463.848.848 0 0 0 .401-.1.866.866 0 0 0 .364-1.165 10.754 10.754 0 0 1-.778-2.131.082.082 0 0 1-.005-.021 6.523 6.523 0 0 1 .16-4.205c.628-1.388 1.993-2.357 4.048-2.883a15.654 15.654 0 0 0 4.05.542 16.662 16.662 0 0 0 2.596-.205.863.863 0 0 0-.275-1.704 13.674 13.674 0 0 1-8.028-1.056 9.95 9.95 0 0 1-4.92-6.292 9.04 9.04 0 0 1 .877-7.303 10.029 10.029 0 0 1 2.9-2.907 27.304 27.304 0 0 0 7.925 4.386.886.886 0 0 0 .29.053.863.863 0 0 0 .29-1.676c-2.547-.911-8.724-3.574-11.044-8.61a10.377 10.377 0 0 1-.042-8.287 9.525 9.525 0 0 1 5.9-5.426 14.51 14.51 0 0 1 11.566.772 9.238 9.238 0 0 1 4.61 8.024 19.171 19.171 0 0 1-1.473 7.847.862.862 0 1 0 1.597.647 21.032 21.032 0 0 0 1.605-8.22c3.38-4.074 6.735-6.53 10.846-7.923 5.96-2.016 13.884-1.995 18.264 4.116 2.16 3.017 2.648 7.193 1.336 11.461-1.506 4.9-4.989 8.883-9.09 10.396-3.783.82-7.3 2.55-9.35 5.221a.863.863 0 1 0 1.37 1.05c3.524-4.595 12.542-6.13 18.248-4.435 6.337 1.882 11.113 7.381 11.621 13.372.534 6.335-4.99 14.125-14.847 15.662-.856.133-6.892.54-9.82-.403a.863.863 0 0 0-1.125.861 6.752 6.752 0 0 1-2.577 5.86.723.723 0 0 0-.068.058 13.889 13.889 0 0 1-6.685 2.498.862.862 0 0 0 .07 1.72.64.64 0 0 0 .071-.002 14.785 14.785 0 0 0 7.604-2.888c.535-.23 6.015-2.496 8.77.919a2.86 2.86 0 0 1 .702 2.383c-.43 2.432-3.79 4.485-3.826 4.503a.863.863 0 0 0 .89 1.48 14.064 14.064 0 0 0 2.627-2.134 26.718 26.718 0 0 1 13.126-.883 14.58 14.58 0 0 1 8.864 5.371c5.235 6.887 4.467 14.336-2 19.437ZM403.136 116.905c1.673 2.158 4.402 3.422 8.107 3.752.388.037.77.053 1.15.053a10.902 10.902 0 0 0 5.26-1.286c2.826-1.545 6.083-4.93 5.858-12.24 6.03-3.058 6.808-6.75 6.36-9.345a7.653 7.653 0 0 0-6.386-6.122 9.995 9.995 0 0 0-6.704.906 11.262 11.262 0 0 0-2.204-9.426 11.667 11.667 0 0 0-10.791-4.31 16.158 16.158 0 0 0-11.323 7.412 19.174 19.174 0 0 0-3.064 9.006c-.371 4.265-.068 10.01 3.47 13.158a10.561 10.561 0 0 0 7.193 2.788 12.069 12.069 0 0 0 1.33-.078 8.817 8.817 0 0 0 1.744 5.732m-9.12-9.73c-3.163-2.816-3.174-8.553-2.899-11.721a17.45 17.45 0 0 1 2.781-8.196 14.48 14.48 0 0 1 10.115-6.662 9.955 9.955 0 0 1 9.212 3.672 9.605 9.605 0 0 1 1.44 9.452c-.149.388-.314.783-.497 1.181a8.926 8.926 0 0 0-1.448 2.726.862.862 0 0 0 1.566.678 25.044 25.044 0 0 0 1.403-2.587c1.231-1.474 3.504-2.97 7.513-2.301a5.936 5.936 0 0 1 4.97 4.716c.521 3.024-1.466 5.632-5.907 7.756l-.006.002h-.002c-.815.388-1.723.765-2.7 1.116a.863.863 0 1 0 .584 1.623 35.19 35.19 0 0 0 1.665-.652c-.026 5.929-2.676 8.673-4.983 9.935a9.478 9.478 0 0 1-5.425 1.027c-3.198-.286-5.515-1.32-6.884-3.075a7.215 7.215 0 0 1-1.367-5.014 12.396 12.396 0 0 0 2.796-1.063.862.862 0 0 0-.866-1.49c-.244.139-6.002 3.378-11.061-1.124M211.567 148.748a11.621 11.621 0 0 1-7.08 3.178.064.064 0 0 0-.032 0 .862.862 0 0 0-.013 1.723h.057a5.585 5.585 0 0 1 4.609 2.967.86.86 0 0 0 .77.472.782.782 0 0 0 .233-.032.862.862 0 0 0 .626-.9 7.87 7.87 0 0 1 1.998-6.141.862.862 0 0 0-1.168-1.267Zm-7.11 4.04Zm4.646 1.047a7.487 7.487 0 0 0-1.147-.898 14.197 14.197 0 0 0 1.519-.662 9.814 9.814 0 0 0-.372 1.56ZM142.853 93.912c-5.61-2.21-10.872-.201-14.813 2.472a7.035 7.035 0 0 0-.207-2.404 8.073 8.073 0 0 0-5.614-5.611c-3.483-1.068-7.222.262-10.16 1.925a9.532 9.532 0 0 0-1.694-9.364 11.945 11.945 0 0 0-5.272-3.198c-10.856-3.409-19.58 1.784-25.944 15.434a11.276 11.276 0 0 0-1.592-.579c-5.813-1.592-8.607 1.454-10.691 4.475a4.726 4.726 0 0 0-2.449-1.647 9.112 9.112 0 0 0-6.025.346c5.334-8.71 3.663-13.972 1.108-16.934a11.03 11.03 0 0 0-11-3.278C31.14 79.9 29.003 95.646 28.891 102.226a11.07 11.07 0 0 0-5.09-3.446 9.408 9.408 0 0 0-7.51 1.15 8.225 8.225 0 0 0-4.426 5.65c-.574 3.185 1.076 6.261 2.084 7.785-4.527 1.836-10.191 7.015-12.684 13.363-1.927 4.907-1.65 9.662.801 13.75a11.224 11.224 0 0 0 7.838 5.184 20.93 20.93 0 0 0 14.517-3.189 16.898 16.898 0 0 0 .673 5.62 9.98 9.98 0 0 0 9.565 6.85 10.11 10.11 0 0 0 2.7-.367 17.51 17.51 0 0 0 11.569-9.634 7.26 7.26 0 0 0 2.066 3.226c2.896 2.593 7.146 2.134 7.263 2.121 7.725-.34 11.443-5.643 13.902-9.19a7.107 7.107 0 0 0 7.374 2.74 12.717 12.717 0 0 0 7.028-3.985 6.429 6.429 0 0 0 1.88 2.635 8.77 8.77 0 0 0 6.308 1.529 17.345 17.345 0 0 0 14.18-10.205c1.118 5.837 5.208 7.843 8.819 8.437a16.431 16.431 0 0 0 14.174-4.865c6.358-6.384 7.049-14.954 6.808-19.93 9.063-2.576 10.914-8.806 10.843-13.64a10.707 10.707 0 0 0-6.721-9.903Zm-5.237 22.056a.861.861 0 0 0-.65.896c.388 5.548-.382 13.399-6.266 19.304a14.693 14.693 0 0 1-12.674 4.38c-5.46-.898-8.025-4.731-7.625-11.395a.862.862 0 0 0-1.715-.163 15.927 15.927 0 0 1-14.158 13.318 7.16 7.16 0 0 1-4.968-1.131 4.808 4.808 0 0 1-1.673-3.213 24.91 24.91 0 0 0 2.31-8.047.862.862 0 0 0-1.713-.199 23.054 23.054 0 0 1-2.233 7.657 10.69 10.69 0 0 1-7.094 4.781 5.322 5.322 0 0 1-5.91-2.616 29.28 29.28 0 0 0 3.857-9.945.863.863 0 0 0-1.689-.35 26.363 26.363 0 0 1-3.86 9.711l-.002.008-.008.008c-.244.335-.495.7-.762 1.084-2.399 3.464-5.688 8.207-12.66 8.513-.037.005-3.654.393-5.976-1.686a6.755 6.755 0 0 1-1.975-5.31.862.862 0 0 0-1.686-.255 16.336 16.336 0 0 1-11.582 11.595 8.32 8.32 0 0 1-10.162-5.334 16.467 16.467 0 0 1-.466-6.758.867.867 0 0 0-.432-.851.883.883 0 0 0-.425-.11.857.857 0 0 0-.526.178c-4.247 3.27-10.003 4.815-14.666 3.93a9.542 9.542 0 0 1-6.68-4.378 13.592 13.592 0 0 1-.676-12.234c2.514-6.397 8.43-11.495 12.698-12.731a.864.864 0 0 0 .424-1.38c-.032-.037-3.082-3.766-2.428-7.366a6.588 6.588 0 0 1 3.582-4.452 7.771 7.771 0 0 1 6.16-.997c3.652 1.066 5.747 4.983 5.768 5.02a.862.862 0 0 0 1.62-.498c-.025-.225-2.34-22.574 18.223-27.73a9.297 9.297 0 0 1 9.275 2.731c3.498 4.056 2.349 10.26-3.326 17.94l-.002.002-.003.003a29.767 29.767 0 0 1-6.533 6.415.862.862 0 0 0 .466 1.587.846.846 0 0 0 .466-.136 30.733 30.733 0 0 0 6.91-6.735c2.648-2.016 5.261-2.679 7.77-1.956a2.984 2.984 0 0 1 1.793 1.393 4.836 4.836 0 0 1 .252.521c.115.492.864 4.504-4.274 7.651a.863.863 0 1 0 .901 1.472c5.575-3.417 5.334-7.863 5.106-9.222 2.459-3.693 4.528-5.965 9.372-4.638a6.86 6.86 0 0 1 1.762.72.968.968 0 0 0 .076.071.264.264 0 0 0 .024.034c.023.02 2.414 2.2.343 6.826a.862.862 0 0 0 .434 1.14.84.84 0 0 0 .351.075.865.865 0 0 0 .788-.51c2.017-4.504.503-7.27-.327-8.33 5.957-13.019 14.04-18.039 24.033-14.897a10.235 10.235 0 0 1 4.525 2.724 7.827 7.827 0 0 1-.534 10.545.863.863 0 0 0 1.15 1.28c2.626-2.03 7.685-5.237 11.997-3.91a6.366 6.366 0 0 1 4.45 4.39 4.877 4.877 0 0 1-.543 3.872.862.862 0 0 0 1.288 1.11c3.693-3.063 9.349-6.221 15.314-3.875a8.995 8.995 0 0 1 5.63 8.324c.06 4.334-1.666 9.956-10.236 12.13Z" class="cls-1"/><path d="M265.434 89.156c-1.563-4.646-6.373-6.806-6.53-6.874a19.74 19.74 0 0 0-8.372-1.532c5.918-2.668 8.895-5.892 8.84-9.61a7.775 7.775 0 0 0-2.624-5.996c-2.367-2.077-5.844-2.7-8.468-2.847a10.845 10.845 0 0 0 4.486-6.342 8.847 8.847 0 0 0-.951-7.214 10.973 10.973 0 0 0-5.302-3.99c.966-.48 1.584-.844 1.762-.954 8.413-3.948 8.892-8.989 7.813-12.524a11.046 11.046 0 0 0-5.79-6.552c-9.397-4.731-17.988-1.029-23.754 3.182a18.99 18.99 0 0 0 .85-6.709 7.487 7.487 0 0 0-4.875-6.75 9.94 9.94 0 0 0-6.753.413 20.728 20.728 0 0 0-6.607 5.206 10.006 10.006 0 0 0-1.131-5.025c-1.296-2.37-3.624-3.967-6.923-4.75-10.786-2.558-16.783 6.491-16.874 6.635-.118.213-2.776 5.177-1.362 9.843a22.985 22.985 0 0 0-11.985.851c-3.619 1.304-8.052 4.14-8.61 10.244-.298 3.252.21 5.853 1.488 7.775-4.174.468-9.972 2.833-10.184 9.696a6.644 6.644 0 0 0 1.584 4.768c-5.643.998-13.666 5.423-13.456 17.285.146 8.35 7.366 12.08 14.48 12.08h.068a20.646 20.646 0 0 0 8.141-1.705 10.974 10.974 0 0 0-1.361 4.006c-.537 3.575.157 6.387 2.06 8.364a8.102 8.102 0 0 0 1.341 1.107 18.377 18.377 0 0 0-9.825 5.654c-2.922 3.425-4.118 7.989-3.558 13.559 1.055 10.466 8.068 14.02 13.765 15.156a23.595 23.595 0 0 0 4.62.45 26.11 26.11 0 0 0 8.478-1.445c5.384-1.854 12.624-5.457 17.102-12.122a9.17 9.17 0 0 0 1.66 2.263c2.082 2.066 5.114 3.116 9.018 3.116.048 0 .097 0 .147-.003 7.633-.05 10.974-4.527 12.414-7.947a11.98 11.98 0 0 0 7.215 2.239 18.052 18.052 0 0 0 6.274-1.215c7.957-2.943 9.376-11.569 9.628-14.465a32.698 32.698 0 0 0 7.643-.217c6.175-.938 10.72-3.737 13.145-8.1 1.778-3.202 2.208-6.231 1.273-9.004Zm-2.781 8.167c-5.237 9.426-19.812 7.36-19.958 7.34a.864.864 0 0 0-.993.853c0 .105-.118 10.686-8.555 13.808-7.083 2.62-11.1-.097-12.283-1.121a12.681 12.681 0 0 0 .448-2.119.86.86 0 0 0-.783-.932.87.87 0 0 0-.935.78 11.268 11.268 0 0 1-.403 1.949.849.849 0 0 0-.192.61c-1.036 3.014-3.82 7.602-11.17 7.651-10.037.097-10.191-7.394-10.194-7.722a.863.863 0 0 0-1.726 0 8.784 8.784 0 0 0 .356 2.19.817.817 0 0 0-.225.238c-4.158 6.711-11.37 10.301-16.688 12.131a23.44 23.44 0 0 1-12.197.935c-7.457-1.487-11.624-6.077-12.385-13.637-.514-5.08.544-9.202 3.142-12.258 3.943-4.634 10.283-5.404 11.293-5.498a16.193 16.193 0 0 0 4.586.636 14.434 14.434 0 0 0 1.455-.066.863.863 0 0 0-.193-1.715c-.058.005-5.769.613-8.717-2.443-1.511-1.57-2.05-3.894-1.595-6.91a7.541 7.541 0 0 1 3.294-5.599c4.033-2.537 10.304-.649 10.37-.628a.863.863 0 0 0 .507-1.65 18.643 18.643 0 0 0-9.039-.345 11.23 11.23 0 0 0 2.737-7.296.862.862 0 0 0-.851-.872.877.877 0 0 0-.872.854c-.082 7.277-7.602 11.228-14.638 11.252h-.076c-9.27 0-12.658-5.588-12.744-10.383-.25-14.26 11.898-15.624 13.666-15.747a14.815 14.815 0 0 0 6.852 1.526c.686 0 1.137-.04 1.202-.044a.862.862 0 1 0-.152-1.718c-.055.005-5.546.45-8.237-2.095a4.843 4.843 0 0 1-1.459-3.894c.233-7.491 8.238-8.08 9.924-8.117a10.393 10.393 0 0 0 6.657 2.095 14.566 14.566 0 0 0 2.903-.278.862.862 0 0 0-.371-1.684c-.053.014-5.2 1.105-8.225-1.563l-.024-.023c-.005-.006-.008-.01-.013-.013-1.76-1.582-2.487-4.198-2.16-7.785.474-5.198 4.328-7.641 7.478-8.775 5.578-2.009 11.501-1.11 12.48-.2a10.104 10.104 0 0 0 4.355 3.515.857.857 0 0 0 .356.079.864.864 0 0 0 .356-1.65 7.71 7.71 0 0 1-4.443-4.52c-1.344-4.009 1.139-8.657 1.136-8.657.217-.332 5.413-8.117 14.996-5.842 2.8.666 4.75 1.972 5.803 3.889 1.802 3.286.42 7.369.406 7.41a.822.822 0 0 0-.016.116 25.378 25.378 0 0 0-2.927 11.678 8.91 8.91 0 0 0-5.19-.534 8.667 8.667 0 0 0-5.428 4.182c-4.64 7.395.091 11.967.14 12.014a.861.861 0 0 0 1.219-.04.862.862 0 0 0-.04-1.22c-.036-.034-3.752-3.632.142-9.838a7.012 7.012 0 0 1 4.326-3.409 7.8 7.8 0 0 1 5.268.977.863.863 0 0 0 1.325-.812c-.058-.563-1.246-13.862 10.812-19.985a8.287 8.287 0 0 1 5.473-.298 5.773 5.773 0 0 1 3.652 5.171c.252 6.002-2.236 9.12-2.272 9.168a.368.368 0 0 0-.03.055 36.978 36.978 0 0 0-4.215 4.428.863.863 0 0 0 1.377 1.04c.134-.176 13.475-17.505 28.993-9.694a9.34 9.34 0 0 1 4.915 5.514c1.283 4.2-1.053 7.725-6.942 10.48a.597.597 0 0 0-.09.05 35.933 35.933 0 0 1-13.574 4.399.861.861 0 0 0 .095 1.717c.031 0 .063-.002.097-.005a38.013 38.013 0 0 0 10.107-2.598c.943.215 4.49 1.179 6.243 3.873a7.197 7.197 0 0 1 .717 5.847c-2.236 9.045-17.353 8.937-17.505 8.927a.853.853 0 0 0-.874.851.862.862 0 0 0 .848.875h.176a31.942 31.942 0 0 0 11.299-2.132c1.092-.097 7.3-.5 10.578 2.38a6.042 6.042 0 0 1 2.032 4.724c.066 4.407-5.941 7.481-10.99 9.286a71.093 71.093 0 0 1-11.508 2.932.863.863 0 0 0 .131 1.715.756.756 0 0 0 .13-.01 72.008 72.008 0 0 0 8.265-1.872c9.238-1.954 14.394.573 14.488.62.042.019 4.316 1.938 5.638 5.868.772 2.297.388 4.858-1.147 7.618Z" class="cls-1"/><path d="M202.033 65.485a8.445 8.445 0 0 0 1.116.062 12.405 12.405 0 0 0 7.541-2.53 1.293 1.293 0 0 0-1.584-2.044 9.907 9.907 0 0 1-6.717 1.948 1.294 1.294 0 0 0-.356 2.564ZM210.382 75.703a1.293 1.293 0 0 0-1.814-.23 9.91 9.91 0 0 1-6.717 1.948 1.294 1.294 0 0 0-.356 2.564 8.43 8.43 0 0 0 1.113.062 12.411 12.411 0 0 0 7.544-2.529 1.293 1.293 0 0 0 .23-1.815ZM211.352 92.243a9.926 9.926 0 0 1-6.72 1.948 1.294 1.294 0 0 0-.353 2.563 8.39 8.39 0 0 0 1.113.063 12.411 12.411 0 0 0 7.544-2.53 1.293 1.293 0 1 0-1.584-2.044ZM286.509 168.596c-2.239-5.878-6.882-9.11-13.08-9.11h-.123c-5.512.04-11.613 2.865-14.07 6.261a8.802 8.802 0 0 0-6.077-3.901c-4.815-.765-8.232 1.67-10.476 4.375a10.862 10.862 0 0 0-1.553-4.339 15.545 15.545 0 0 0-1.383-1.924c4.512.99 11.19 1.296 15.842-.938a9.846 9.846 0 0 0 5.63-6.792c.773-3.221.364-5.902-1.215-7.974a9.732 9.732 0 0 0-4.273-3.058c10.24-2.231 13.053-8.157 13.506-13.046a16.352 16.352 0 0 0-10.529-16.523c-6.952-2.705-13.245-.366-17.233 2.004a15.02 15.02 0 0 1-3.34 4.616.926.926 0 0 0 .133-.092c.091-.089 9.311-9.007 19.814-4.92a14.62 14.62 0 0 1 9.437 14.756c-.662 7.146-6.25 11.246-16.609 12.186a.864.864 0 0 0 .047 1.723c.052 0 5.266.225 7.68 3.404 1.244 1.64 1.548 3.834.904 6.52a8.194 8.194 0 0 1-4.698 5.64c-5.614 2.698-14.808 1.281-17.958-.2a.863.863 0 0 0-.872 1.479 15.269 15.269 0 0 1 3.64 4.03 8.045 8.045 0 0 1 1.173 6.127 20.053 20.053 0 0 0-1.571 3.344.862.862 0 0 0 .43 1.04.851.851 0 0 0 .387.091.863.863 0 0 0 .704-.361 10.725 10.725 0 0 0 1.681-3.525 17.904 17.904 0 0 1 1.328-1.935c2.55-3.21 5.617-4.559 9.105-4.006a6.918 6.918 0 0 1 5.509 4.328 4.269 4.269 0 0 1-.529 4.043.863.863 0 0 0 1.252 1.189 5.846 5.846 0 0 0 1.003-5.465c1.322-2.993 7.211-6.39 13.192-6.431h.112c3.868 0 8.956 1.4 11.467 7.997 5.195 13.632-7.112 20.893-7.612 21.181-18.183 9.618-28.09-2.176-28.5-2.684a.871.871 0 0 0-.741-.314.857.857 0 0 0-.678.432c-4.67 8.204-10.346 6.457-10.582 6.381a.695.695 0 0 0-.18-.039c-3.14-.361-5.35-1.529-6.57-3.475-2.279-3.624-.493-8.876-.474-8.929a.863.863 0 0 0-1.585-.673c-1.898 3.763-4.598 3.454-4.703 3.444a.863.863 0 0 0-.39 1.675c.037.01 3.753 1.22 4.756 4.023.55 1.542.167 3.338-1.134 5.344a13.195 13.195 0 0 1-9.566 5.923 21.351 21.351 0 0 1-12.024-2.202.863.863 0 0 0-1.008 1.364c.06.063 5.939 6.47 1.354 12.83a11.866 11.866 0 0 1-10.78 4.827 27.332 27.332 0 0 1-11.25-4.111.862.862 0 1 0-.89 1.477 36.792 36.792 0 0 0 4.76 2.438.931.931 0 0 0-.065.225c-1.341 16.881-8.757 22.658-8.864 22.742-9.018 7.45-23.004 16.418-38.417 16.826-9.193.246-14.611-2.723-14.71-2.778-.103-.05-10.352-5.12-12.732-14.583-1.424-5.66.217-11.799 4.876-18.243 16.633-22.998 43.017-13.559 43.282-13.46a.862.862 0 0 0 .824-1.492c-.036-.028-3.629-2.836-4.048-6.939-.249-2.445.668-4.896 2.729-7.29a8.53 8.53 0 0 1 5.907-3.207c4.575-.338 8.788 3.257 8.83 3.294a.862.862 0 0 0 1.33-1.05 7.124 7.124 0 0 1-.24-5.347c.9-2.354 3.202-4.242 6.839-5.612a.863.863 0 0 0-.6-1.618c-.131.047-13.119 4.68-18.751-2.488-5.143-6.546-2.54-13.718-1.896-15.232a21.03 21.03 0 0 0 4.574-2.548.862.862 0 1 0-1.044-1.372 19.59 19.59 0 0 1-4.507 2.464 17.196 17.196 0 0 1-10.016.904c-13.65-2.88-11.618-14.054-11.532-14.504.019-.081 1.935-8.15 9.189-12.635a20.697 20.697 0 0 1 9.817-2.966 14.42 14.42 0 0 1-1.459-1.613 21.965 21.965 0 0 0-9.285 3.123 23.616 23.616 0 0 0-9.948 13.73c-.026.133-2.485 13.315 12.862 16.551a18.846 18.846 0 0 0 9.246-.385 16.689 16.689 0 0 0 2.642 15.55c3.792 4.822 10.152 5.074 14.83 4.432a9.15 9.15 0 0 0-2.583 3.63 8.35 8.35 0 0 0-.432 4.2 13.98 13.98 0 0 0-7.981-2.229 10.168 10.168 0 0 0-7.099 3.802c-2.385 2.773-3.44 5.67-3.137 8.608a11.542 11.542 0 0 0 2.414 5.74c-7.745-1.818-28.212-4.33-42.153 14.949-4.978 6.881-6.708 13.503-5.15 19.688 2.584 10.247 13.2 15.484 13.603 15.677.222.126 5.41 2.99 14.412 2.988.333 0 .673-.002 1.014-.01 15.95-.377 30.338-9.576 39.563-17.199.33-.246 8.028-6.166 9.497-23.695a23.874 23.874 0 0 0 5.578 1.286c.448.044.893.065 1.335.065a13.605 13.605 0 0 0 11.017-5.598c3.482-4.84 1.882-9.652.285-12.48a22.45 22.45 0 0 0 10.194 1.189 14.919 14.919 0 0 0 10.81-6.696 10.046 10.046 0 0 0 1.557-3.69 10.75 10.75 0 0 0 6.832 3.046c.89.238 6.98 1.545 11.925-6.198a21.728 21.728 0 0 0 7.167 4.614c4.74 1.88 12.519 2.993 22.687-2.386.14-.081 14.116-8.28 8.392-23.305Zm-59.352 18.102a10.688 10.688 0 0 0-1.325-.974 6.343 6.343 0 0 0 1.365-.859 15.022 15.022 0 0 0-.04 1.833Z" class="cls-1"/><path d="M364.934 99.007a23.896 23.896 0 0 0-4.328 3.522 4.508 4.508 0 0 0-.726-1.566 5.303 5.303 0 0 0-2.505-1.814 10.512 10.512 0 0 0 3.076-6.416c.5-5.09-1.702-8.094-3.637-9.717a11.514 11.514 0 0 0-6.944-2.477 19.161 19.161 0 0 0-2.472.044 10.73 10.73 0 0 0 1.778-2.092 26.872 26.872 0 0 0 5.23-.508 11.648 11.648 0 0 0 9.26-9.476 11.077 11.077 0 0 0-2.023-8.568c-1.393-1.849-4.1-4.161-9.073-4.685a22.366 22.366 0 0 0-7.05.338 17.35 17.35 0 0 0 4.106-6.714c2.477-7.264-.228-11.647-2.932-14.048a13.892 13.892 0 0 0-8.948-3.328c-15.737-.367-21.747 15.064-23.363 20.453a14.983 14.983 0 0 0-7.486-4.52c-.288-.06-7.128-1.453-12.325 2.064a12.667 12.667 0 0 0-5.248 8.75c-.647 3.711.037 6.809 2.035 9.213a14.497 14.497 0 0 0 7.656 4.38 4.023 4.023 0 0 0-1.67 3.578 40.185 40.185 0 0 0-8.843.633c-7.078 1.333-12.087 4.598-14.488 9.437-3.295 6.649-1.48 11.37.623 14.161a11.682 11.682 0 0 0 8.974 4.52c.356.016.712.021 1.063.021a23.735 23.735 0 0 0 11.579-2.91c-.186 2.255.039 6.029 2.982 8.634-14.35-.552-22.354 9.746-24.939 16.489a13.32 13.32 0 0 0 1.94 13.323c2.357 2.739 5.848 4.156 10.085 4.156a22.824 22.824 0 0 0 4.87-.56c11.553-2.53 15.321-10.024 16.426-13.232a8.292 8.292 0 0 0 1.406.935 6.8 6.8 0 0 0-1.56 8.355 7.765 7.765 0 0 0 2.343 2.975 21.632 21.632 0 0 0-9.28 27.33c3.464 7.533 10.77 10.495 18.364 10.495a32.793 32.793 0 0 0 10.762-1.88c7.94-2.792 14.164-7.796 17.073-13.727 4.938-10.065 1.55-16.8.301-18.746a9.917 9.917 0 0 0 6.59-7.638c.999-4.847-.148-7.898-1.66-9.77a13.64 13.64 0 0 0 1.362.079c3.276 0 6.976-1.181 10.632-4.755a18.633 18.633 0 0 0 17.565-1.506 15.004 15.004 0 0 0 6.517-10.312 12.001 12.001 0 0 0-2.92-9.589c-5.053-5.74-14.103-7.235-20.178-3.33Zm21.388 12.7a13.269 13.269 0 0 1-5.773 9.102c-5.832 3.933-14.13 3.608-19.299-.751a.862.862 0 0 0-1.113 1.317 15.531 15.531 0 0 0 2.19 1.526c-5.06 4.659-10.13 4.3-13.709 2.99a6.473 6.473 0 0 0-.518-.196 17.487 17.487 0 0 1-4.737-2.87.862.862 0 0 0-1.168 1.268 18.823 18.823 0 0 0 5.276 3.21c.21.084.438.157.658.236 1.476.633 5.302 3.006 3.796 10.304-1.466 7.109-8.8 7.114-9.13 7.09a.846.846 0 0 0-.878.846.863.863 0 0 0 .846.88h.019a12.634 12.634 0 0 0 2.503-.317c.126.163 5.158 6.735-.107 17.474-2.713 5.528-8.581 10.215-16.1 12.86-9.717 3.42-22.306 2.466-26.983-7.71a19.832 19.832 0 0 1 9.639-25.63 6.933 6.933 0 0 0 4.404-.138.861.861 0 0 0-.626-1.606 5.08 5.08 0 0 1-6.489-2.948 5.236 5.236 0 0 1 1.878-6.903c3.595.838 7.235-1.042 9.1-2.618a.862.862 0 0 0-1.114-1.317c-.259.22-6.433 5.308-11.063.086a.862.862 0 0 0-1.492.414c-.082.424-2.127 10.4-15.51 13.333-5.787 1.268-10.503.189-13.276-3.037a11.579 11.579 0 0 1-1.64-11.582c3.287-8.575 12.436-17.617 27.399-14.925a9.907 9.907 0 0 0 2.82.421c6.36 0 10.385-6.434 10.435-6.515l-1.472-.898c-.217.354-5.439 8.652-13.216 4.551-4.889-2.582-4.017-8.185-3.729-9.526a24.394 24.394 0 0 0 7.4-7.746.862.862 0 0 0-1.516-.822 23.097 23.097 0 0 1-7.12 7.324 22.147 22.147 0 0 1-13.228 3.564 9.967 9.967 0 0 1-7.665-3.836c-1.81-2.401-3.36-6.497-.453-12.357 4.695-9.474 19.118-9.246 22.15-9.089.092.267.197.537.322.814a.863.863 0 1 0 1.572-.715 3.678 3.678 0 0 1-.283-3.22 3.56 3.56 0 0 1 2.296-1.514.854.854 0 0 0 .335-.141c1.103.136 1.854.152 1.951.154h.01a.863.863 0 0 0 .011-1.725c-.076 0-7.664-.15-11.244-4.465-1.657-1.995-2.213-4.622-1.657-7.808a11.005 11.005 0 0 1 4.506-7.612c4.58-3.109 10.948-1.826 11-1.815.074.018 7.204 1.697 8.448 7.92a.862.862 0 0 0 1.692-.337 10.517 10.517 0 0 0-1.02-2.851c.608-2.512 5.573-20.632 21.572-20.632.163 0 .322.003.485.005a12.173 12.173 0 0 1 7.842 2.896c3.365 2.986 4.187 7.091 2.446 12.2-3.998 11.726-17.052 11.496-17.61 11.48a.863.863 0 0 0-.05 1.726h.124a23.61 23.61 0 0 0 4.83-.58 30.734 30.734 0 0 0-7.368 10.428.863.863 0 1 0 1.613.613c.26-.684 6.589-16.725 22.858-15.018a10.922 10.922 0 0 1 7.873 4.01 9.358 9.358 0 0 1 1.705 7.23 9.939 9.939 0 0 1-7.903 8.083 24.743 24.743 0 0 1-4.016.458 8.887 8.887 0 0 0 .55-2.975.862.862 0 0 0-.849-.874.884.884 0 0 0-.877.848 6.994 6.994 0 0 1-.817 3.205.84.84 0 0 0-.348.59c-2.999 4.62-10.752 6.03-10.849 6.045a.863.863 0 0 0 .147 1.713.944.944 0 0 0 .146-.01c.087-.016.464-.084 1.042-.223a18.574 18.574 0 0 0-4.16 9.091.862.862 0 1 0 1.712.2c.06-.52 1.629-12.682 14.043-12.098a9.803 9.803 0 0 1 5.913 2.074c2.354 1.974 3.373 4.742 3.03 8.227-.935 9.537-16.424 11.027-16.581 11.04a.862.862 0 0 0 .076 1.72.713.713 0 0 0 .076-.002 34.154 34.154 0 0 0 8.542-2.074 20.633 20.633 0 0 0 4.985-2.737 4.194 4.194 0 0 1 2.655 1.47 4.038 4.038 0 0 1 .338 3.437.862.862 0 1 0 1.67.427l.003-.002c.438-1.71 3.166-3.97 5.368-5.384 5.295-3.401 13.517-2.019 17.95 3.02a10.182 10.182 0 0 1 2.506 8.23Z" class="cls-1"/></svg>