<svg id="圖層_1" data-name="圖層 1" xmlns="http://www.w3.org/2000/svg" viewBox="0 0 998.83021 256.66499"><defs><style>.cls-1{fill:#0073f7;}.cls-2{fill:#ff4a03;}.cls-3{fill:#004943;}.cls-4,.cls-5,.cls-6,.cls-7{fill:#fffa6f;}.cls-5{font-size:150.26628px;font-family:AdobeMingStd-Light-B5pc-H, Adobe Ming Std;}.cls-6{font-size:113.05672px;font-family:Smokum-Regular, Smokum;}.cls-7{font-size:214.60779px;font-family:Arial-BlackItalic, Arial Black;font-weight:800;font-style:italic;}.cls-8{fill:none;stroke:#004943;stroke-miterlimit:10;stroke-width:3px;}</style></defs><rect class="cls-1" width="328.33656" height="177.3444"/><rect class="cls-2" x="423.88771" y="112.37642" width="436.09317" height="129.93596"/><rect class="cls-3" x="328.33656" y="54.08241" width="77.46196" height="184.68932"/><path class="cls-4" d="M30.73479,93.71184a39.01172,39.01172,0,0,1-7.70267-23.934A43.01522,43.01522,0,0,1,28.99526,47.6633a58.08166,58.08166,0,0,1,16.564-17.80568A82.09766,82.09766,0,0,1,70.489,18.01433,108.75323,108.75323,0,0,1,101.38117,13.79a123.02566,123.02566,0,0,1,38.01471,5.549,88.78346,88.78346,0,0,1,29.5675,15.81872,70.29053,70.29053,0,0,1,26.00546,55.65594q0,11.76333-5.88016,26.58631a105.4415,105.4415,0,0,1-17.14411,28.40731q-5.30346,6.79367-11.84329,13.91323-6.54588,7.12407-13.41687,13.6658-6.87627,6.54247-13.33464,11.67734a95.10741,95.10741,0,0,1-11.67734,8.1168q-5.21859,2.98271-8.365,2.9812-3.31536,0-3.3131-2.9812a4.33339,4.33339,0,0,1,1.73953-3.06417,21.139,21.139,0,0,1,4.72072-3.06416q2.98157-1.49136,6.46025-2.9812,3.47831-1.49134,6.95662-2.81674a197.986,197.986,0,0,0,44.475-24.84527,285.11766,285.11766,0,0,0,38.18067-33.6259,220.3864,220.3864,0,0,0,20.04232-25.841,146.25311,146.25311,0,0,0,13.33465-24.59785q4.72073-11.50988,4.72072-19.46223,0-7.287-3.47831-7.28853-2.48482,0-4.22436,3.14715-1.73915,3.1479-3.31235,11.51289-1.57621,8.3665-3.56128,24.43189-1.49136,11.098-4.30734,23.35467a170.70889,170.70889,0,0,1-7.70191,24.59785,129.68818,129.68818,0,0,1-12.50637,23.85254,105.889,105.889,0,0,1-18.55173,21.12029A151.67071,151.67071,0,0,1,175.837,191.19347q-7.53936,4.96965-11.51214,4.96815-3.31536,0-3.31235-2.9812a4.33208,4.33208,0,0,1,1.73878-3.06417,21.1392,21.1392,0,0,1,4.72072-3.06416q2.98157-1.49136,6.46025-2.89822,3.47832-1.40988,6.95662-2.89972a175.63537,175.63537,0,0,0,26.66853-13.74727,230.8264,230.8264,0,0,0,26.42036-19.2148,263.7625,263.7625,0,0,0,24.10072-22.94129A202.97126,202.97126,0,0,0,277.87266,100.421,128.611,128.611,0,0,0,291.2073,75.16087a66.33328,66.33328,0,0,0,4.803-23.76957,21.64812,21.64812,0,0,0-1.40762-7.70191,12.76486,12.76486,0,0,0-3.39533-5.38455l1.15944-.99273a13.9737,13.9737,0,0,1,4.14062,6.45875,28.176,28.176,0,0,1,1.4906,9.277q0,11.098-5.13486,23.76957A134.9986,134.9986,0,0,1,278.78391,102.491a225.33446,225.33446,0,0,1-20.45722,25.42612,274.43531,274.43531,0,0,1-24.26593,23.19023,212.9271,212.9271,0,0,1-25.675,18.71844,132.05578,132.05578,0,0,1-24.51487,12.09072q-2.98156.99574-6.29429,2.31887-3.31538,1.32388-6.2943,2.73377a29.27153,29.27153,0,0,0-4.88668,2.81523q-1.90662,1.40535-1.90473,2.56781,0,.99348,1.65655.99423,3.64125,0,9.52443-4.14138a104.50666,104.50666,0,0,0,12.50561-10.60013,120.69525,120.69525,0,0,0,16.813-21.28624,179.64743,179.64743,0,0,0,13.16869-25.26017,209.38265,209.38265,0,0,0,9.19251-26.17141,182.31409,182.31409,0,0,0,5.05263-24.0185q2.1499-18.21756,5.88016-28.0754,3.72725-9.85332,8.8621-9.85634,5.29893,0,5.30007,10.60164a44.76687,44.76687,0,0,1-2.56706,14.24514,101.09641,101.09641,0,0,1-6.79141,15.48681,173.86685,173.86685,0,0,1-9.27624,15.32235q-5.05452,7.45449-10.10376,13.74878-5.05566,6.29582-9.02806,10.60013a220.61315,220.61315,0,0,1-18.13759,17.3938q-10.18713,8.78064-21.28474,16.81144a238.61049,238.61049,0,0,1-22.03079,14.24515,126.70149,126.70149,0,0,1-20.37424,9.52442q-2.98044.99574-6.2943,2.31887-3.31536,1.32388-6.29429,2.73377a29.26062,29.26062,0,0,0-4.88593,2.81523q-1.90662,1.40535-1.90549,2.56781,0,.99348,1.65656.99423,4.63585,0,12.50636-6.21132a118.90507,118.90507,0,0,0,16.97816-17.14486A192.96882,192.96882,0,0,0,162.006,145.14493a162.33841,162.33841,0,0,0,15.48756-30.39578,87.96072,87.96072,0,0,0,6.21132-31.72041,61.63007,61.63007,0,0,0-6.04536-27.33161,63.39644,63.39644,0,0,0-17.06114-21.4507A79.14965,79.14965,0,0,0,134.427,20.3332a108.9515,108.9515,0,0,0-33.54293-4.88668A104.68667,104.68667,0,0,0,70.90317,19.5879,81.63844,81.63844,0,0,0,46.63648,31.09928,56.112,56.112,0,0,0,30.48585,48.32713a41.54961,41.54961,0,0,0-5.79718,21.45069A38.03027,38.03027,0,0,0,32.1424,92.96654"/><path class="cls-4" d="M432.28739,153.86551q-2.96832-10.766-1.19272-19.75368a29.93283,29.93283,0,0,1,7.88321-15.32417,34.32884,34.32884,0,0,1,15.99072-9.06014q9.80754-2.704,17.35354-.85349a27.22346,27.22346,0,0,1,12.4684,6.49983,23.688,23.688,0,0,1,6.65564,10.3439L480.498,128.73628a19.16726,19.16726,0,0,0-3.92783-5.34591,15.90082,15.90082,0,0,0-7.30622-3.9481q-4.59237-1.22432-11.283.61791-10.49257,2.8929-14.16789,11.22139-3.67708,8.32776-.40361,20.19625l3.77007,13.6739q3.1851,11.55225,10.8651,16.70845t17.71552,2.38932a25.463,25.463,0,0,0,9.86877-4.70842,15.38871,15.38871,0,0,0,4.65825-6.39957,18.24958,18.24958,0,0,0,1.12239-6.90678l10.94817-3.01852a23.14442,23.14442,0,0,1-.52852,11.73133,25.70228,25.70228,0,0,1-7.44617,11.56806q-5.65092,5.31937-15.99011,8.17121a34.329,34.329,0,0,1-18.37439.41467,29.88777,29.88777,0,0,1-14.63317-9.1577q-6.14268-6.84727-9.154-17.77353Z"/><text class="cls-5" transform="translate(218.15538 190.01761) scale(2.25327 1)">e</text><path class="cls-4" d="M377.9908,66.72607,361.98749,205.72c-.54746,4.75481-.23527,13.99408,10.16088,13.99408h16.08644c18.04005,0,18.8286-.08594,24.19348-6.25555,2.64118-3.03736,5.94266-16.56245,8.38334-27.94077h1.43161l-5.46246,40.75183H352.45819l.36088-3.20138L369.88144,66.72607"/><path class="cls-4" d="M513.77486,125.88009a12.93064,12.93064,0,0,1,5.20426-9.72723,48.56335,48.56335,0,0,1,13.31428-6.95963,101.4217,101.4217,0,0,1,18.15569-4.5608,120.03537,120.03537,0,0,1,39.45778,0,101.56947,101.56947,0,0,1,18.1557,4.5608,48.66274,48.66274,0,0,1,13.31427,6.95963,12.94377,12.94377,0,0,1,5.205,9.72723,13.22844,13.22844,0,0,1-4.84142,9.62966,44.97325,44.97325,0,0,1-12.70929,6.96114,96.96164,96.96164,0,0,1-18.03424,4.70413,126.2027,126.2027,0,0,1-41.6371,0,96.87625,96.87625,0,0,1-18.035-4.70413,44.86276,44.86276,0,0,1-12.70853-6.96114A13.21487,13.21487,0,0,1,513.77486,125.88009Zm24.20709,0q0,6.81857,2.66285,10.85057a17.66391,17.66391,0,0,0,7.02074,6.1917,30.68457,30.68457,0,0,0,10.16713,2.83334,113.84691,113.84691,0,0,0,24.69138,0,30.69494,30.69494,0,0,0,10.16713-2.83334,17.682,17.682,0,0,0,7.02-6.1917q2.66135-4.03277,2.66285-10.85057a21.54285,21.54285,0,0,0-1.93641-9.64814,15.45453,15.45453,0,0,0-5.9307-6.33654,28.5511,28.5511,0,0,0-10.04643-3.50471,97.10569,97.10569,0,0,0-28.565,0,28.5195,28.5195,0,0,0-10.04568,3.50471,15.42476,15.42476,0,0,0-5.9307,6.33654A21.49149,21.49149,0,0,0,537.982,125.88009Z"/><text class="cls-6" transform="translate(642.11045 190.01761) scale(1.32871 1)">M</text><text class="cls-7" transform="matrix(0.40856, 0, -0.14878, 0.98887, 730.25455, 256.66499)">E</text><line class="cls-8" x1="617.02078" y1="161.40707" x2="523.33594" y2="161.40707"/><rect class="cls-3" x="909.00796" y="15.15575" width="89.82225" height="110.03025"/><path class="cls-4" d="M936.18272,43.29056l.57813,1.11914a30.17544,30.17544,0,0,0-3.89356,7.69532A48.7631,48.7631,0,0,0,930.67,61.74173a90.397,90.397,0,0,0-.69433,11.67579A89.81,89.81,0,0,0,930.67,85.02689a48.038,48.038,0,0,0,2.19727,9.60352,32.8745,32.8745,0,0,0,3.89356,7.79492l-.57813,1.05078a38.36,38.36,0,0,1-5.49316-12.75977,73.76337,73.76337,0,0,1-1.792-17.29882,74.44216,74.44216,0,0,1,1.792-17.43164A37.62836,37.62836,0,0,1,936.18272,43.29056Z"/><path class="cls-4" d="M949.86631,59.20853v1.58008H937.6085V59.20853ZM942.503,50.26322v33.416a12.7459,12.7459,0,0,0,.94532,5.55665,3.05044,3.05044,0,0,0,2.87109,1.875,3.16249,3.16249,0,0,0,1.84961-.5918,5.36373,5.36373,0,0,0,1.543-1.8418l.46191,1.51367a5.84217,5.84217,0,0,1-1.67676,1.8418,3.82811,3.82811,0,0,1-2.25488.72266,3.74248,3.74248,0,0,1-2.62109-.98633,6.10146,6.10146,0,0,1-1.61914-2.99219,19.41894,19.41894,0,0,1-.54-4.9668V50.79056Z"/><path class="cls-4" d="M962.2003,58.55228a6.40707,6.40707,0,0,1,4.68359,2.03906,13.89594,13.89594,0,0,1,3.17969,5.88672,32.109,32.109,0,0,1,1.15625,9.17578,32.12787,32.12787,0,0,1-1.15625,9.17579,13.90786,13.90786,0,0,1-3.17969,5.88671,6.42091,6.42091,0,0,1-9.38672,0,13.91524,13.91524,0,0,1-3.21875-5.88671,31.63741,31.63741,0,0,1-1.17578-9.17579,31.6188,31.6188,0,0,1,1.17578-9.17578,13.90328,13.90328,0,0,1,3.21875-5.88672A6.46851,6.46851,0,0,1,962.2003,58.55228Zm0,1.57813a5.61224,5.61224,0,0,0-4.18262,1.875,12.86909,12.86909,0,0,0-2.81348,5.32812,29.57119,29.57119,0,0,0-1.02148,8.32031A29.6504,29.6504,0,0,0,955.2042,83.941a12.86726,12.86726,0,0,0,2.81348,5.36133,5.57978,5.57978,0,0,0,8.34473,0,12.58366,12.58366,0,0,0,2.81445-5.36133,30.22032,30.22032,0,0,0,1.00195-8.28711,30.13935,30.13935,0,0,0-1.00195-8.32031,12.583,12.583,0,0,0-2.81445-5.32812A5.63277,5.63277,0,0,0,962.2003,60.13041Z"/><path class="cls-4" d="M973.378,103.47611l-.53906-1.05078a32.9091,32.9091,0,0,0,3.89258-7.79492,48.173,48.173,0,0,0,2.19726-9.60352,89.64438,89.64438,0,0,0,.69336-11.60937,90.23159,90.23159,0,0,0-.69336-11.67579,48.90134,48.90134,0,0,0-2.19726-9.63671A30.20514,30.20514,0,0,0,972.839,44.4097l.53906-1.11914a36.9096,36.9096,0,0,1,5.51172,12.69532,75.26139,75.26139,0,0,1,1.77344,17.43164,74.57518,74.57518,0,0,1-1.77344,17.29882A37.61854,37.61854,0,0,1,973.378,103.47611Z"/></svg>