<svg id="圖層_1" data-name="圖層 1" xmlns="http://www.w3.org/2000/svg" viewBox="0 0 1112.43876 570.84402"><defs><style>.cls-1{fill:#fffa6f;stroke:#ff4a03;}.cls-1,.cls-11,.cls-2,.cls-3,.cls-4,.cls-5{stroke-miterlimit:10;stroke-width:3px;}.cls-2{fill:#ff4a03;stroke:#a9a9ff;}.cls-3{fill:#a9a9ff;stroke:#ff00c9;}.cls-4{fill:#a6e2c5;stroke:#0073f7;}.cls-5,.cls-6{fill:#ff00c9;}.cls-5{stroke:#fffa6f;}.cls-10,.cls-7,.cls-8,.cls-9{fill:#004943;}.cls-8{font-size:150.26628px;font-family:AdobeMingStd-Light-B5pc-H, Adobe Ming Std;}.cls-9{font-size:113.05672px;font-family:Smokum-Regular, Smokum;}.cls-10{font-size:214.60779px;font-family:Arial-BlackItalic, Arial Black;font-weight:800;font-style:italic;}.cls-11{fill:none;stroke:#004943;}</style></defs><path class="cls-1" d="M1108.96635,77.89938c0-18.17276-20.46146-32.90467-45.70271-32.90467-16.29444,0-30.58737,6.14446-38.67927,15.38573-8.0919-9.24127-22.38483-15.38573-38.67927-15.38573-.61275,0-1.22009.01608-1.82742.03328C978.54433,31.3387,961.002,21.33124,940.20239,21.33124c-25.24048,0-45.702,14.732-45.702,32.90474,0,10.51533,6.85866,19.87135,17.52227,25.89514a23.99966,23.99966,0,0,0-.181,2.849c0,8.82851,4.83858,16.83846,12.69838,22.7482a25.68744,25.68744,0,0,0-5.03587,15.00931c0,17.68215,19.37367,32.10171,43.671,32.86769,4.40068,14.86289,22.73376,26.01233,44.69,26.01233,25.24125,0,45.70272-14.73191,45.70272-32.90467a24.75173,24.75173,0,0,0-2.65139-11.05349c14.21633-4.77939,24.45364-14.66549,26.14413-26.38512C1095.557,105.06183,1108.96635,92.6095,1108.96635,77.89938Z"/><polygon class="cls-2" points="840.002 96.205 840.002 56.349 712.104 56.349 712.104 81.138 653.333 81.138 653.333 111.446 628.731 111.446 628.731 131.374 549.285 131.374 549.285 171.231 672.198 171.231 672.198 311.117 697.354 311.117 697.354 354.74 737.211 354.74 737.211 171.231 762.755 171.231 762.755 151.303 795.477 151.303 795.477 111.446 781.232 111.446 781.232 96.205 840.002 96.205"/><polygon class="cls-3" points="354.863 130.137 328.336 130.137 328.336 0 0 0 0 145.807 97.813 145.807 97.813 244.713 188.264 244.713 188.264 220.587 354.863 220.587 354.863 130.137"/><polygon class="cls-4" points="669.327 196.569 669.327 112.376 405.799 112.376 405.799 375.905 523.336 375.905 523.336 571.349 744.688 571.349 744.688 196.569 669.327 196.569"/><rect class="cls-5" x="328.33663" y="54.08245" width="77.46196" height="241.14592"/><rect class="cls-6" x="374.81215" y="149.68613" width="77.46196" height="92.95103" transform="translate(609.70478 -217.38148) rotate(90)"/><path class="cls-7" d="M30.73486,93.71187a39.01169,39.01169,0,0,1-7.70267-23.934,43.01523,43.01523,0,0,1,5.96314-22.11453,58.08163,58.08163,0,0,1,16.564-17.80567A82.09767,82.09767,0,0,1,70.4891,18.01436,108.75323,108.75323,0,0,1,101.38124,13.79,123.02557,123.02557,0,0,1,139.396,19.339a88.78346,88.78346,0,0,1,29.5675,15.81872,70.29057,70.29057,0,0,1,26.00546,55.65594q0,11.76333-5.88016,26.58631a105.4415,105.4415,0,0,1-17.14411,28.40731q-5.30345,6.79368-11.84329,13.91323-6.54588,7.12409-13.41687,13.6658-6.87627,6.54249-13.33464,11.67734a95.10871,95.10871,0,0,1-11.67734,8.11681q-5.21859,2.98269-8.365,2.98119-3.31536,0-3.3131-2.98119a4.33336,4.33336,0,0,1,1.73953-3.06417,21.13884,21.13884,0,0,1,4.72072-3.06417q2.98156-1.49136,6.46025-2.98119,3.47832-1.49136,6.95662-2.81675a197.986,197.986,0,0,0,44.475-24.84527,285.117,285.117,0,0,0,38.18067-33.6259,220.38759,220.38759,0,0,0,20.04233-25.841,146.25405,146.25405,0,0,0,13.33464-24.59784q4.72072-11.50987,4.72072-19.46223,0-7.287-3.47831-7.28853-2.48482,0-4.22436,3.14715-1.73914,3.1479-3.31235,11.51288-1.57621,8.36651-3.56128,24.43189-1.49136,11.098-4.30734,23.35467a170.70889,170.70889,0,0,1-7.70191,24.59785,129.68693,129.68693,0,0,1-12.50637,23.85254,105.88873,105.88873,0,0,1-18.55173,21.12029,151.66957,151.66957,0,0,1-17.14411,13.58283q-7.53934,4.96965-11.51214,4.96815-3.31536,0-3.31235-2.98119a4.332,4.332,0,0,1,1.73878-3.06417,21.13884,21.13884,0,0,1,4.72072-3.06417q2.98156-1.49136,6.46026-2.89822,3.47831-1.40988,6.95661-2.89972a175.63537,175.63537,0,0,0,26.66853-13.74727,230.8264,230.8264,0,0,0,26.42036-19.2148,263.7625,263.7625,0,0,0,24.10072-22.94129,202.97126,202.97126,0,0,0,19.79415-24.92976A128.61075,128.61075,0,0,0,291.20737,75.1609a66.33328,66.33328,0,0,0,4.80295-23.76957,21.64816,21.64816,0,0,0-1.40762-7.70191,12.76486,12.76486,0,0,0-3.39533-5.38455l1.15944-.99273a13.97368,13.97368,0,0,1,4.14062,6.45875,28.176,28.176,0,0,1,1.4906,9.277q0,11.098-5.13486,23.76957A134.99867,134.99867,0,0,1,278.784,102.491a225.33613,225.33613,0,0,1-20.45721,25.42612,274.438,274.438,0,0,1-24.26593,23.19022,212.92689,212.92689,0,0,1-25.67506,18.71844,132.056,132.056,0,0,1-24.51486,12.09072q-2.98158.99574-6.2943,2.31887-3.31538,1.32389-6.2943,2.73377a29.271,29.271,0,0,0-4.88667,2.81523q-1.90662,1.40537-1.90474,2.56781,0,.99348,1.65655.99423,3.64125,0,9.52443-4.14138a104.5065,104.5065,0,0,0,12.50561-10.60012,120.69533,120.69533,0,0,0,16.813-21.28625,179.64786,179.64786,0,0,0,13.16869-25.26016,209.38173,209.38173,0,0,0,9.19251-26.17142,182.31409,182.31409,0,0,0,5.05263-24.0185q2.1499-18.21756,5.88016-28.0754,3.72725-9.85332,8.8621-9.85634,5.29895,0,5.30007,10.60164a44.76687,44.76687,0,0,1-2.56706,14.24514,101.09556,101.09556,0,0,1-6.79141,15.48681,173.86392,173.86392,0,0,1-9.27624,15.32235q-5.05452,7.45449-10.10376,13.74879-5.05566,6.2958-9.02806,10.60012a220.61149,220.61149,0,0,1-18.13759,17.3938q-10.18713,8.78064-21.28474,16.81145A238.61107,238.61107,0,0,1,153.227,172.39208a126.70149,126.70149,0,0,1-20.37424,9.52442q-2.98044.99574-6.2943,2.31887-3.31536,1.32389-6.29429,2.73377a29.26143,29.26143,0,0,0-4.88593,2.81523q-1.90662,1.40537-1.90548,2.56781,0,.99348,1.65655.99423,4.63586,0,12.50637-6.21131a118.90622,118.90622,0,0,0,16.97815-17.14487A192.96813,192.96813,0,0,0,162.00608,145.145a162.3381,162.3381,0,0,0,15.48756-30.39578A87.96072,87.96072,0,0,0,183.705,83.02877a61.62993,61.62993,0,0,0-6.04536-27.33161,63.39659,63.39659,0,0,0-17.06113-21.45069,79.14972,79.14972,0,0,0-26.17142-13.91324,108.95146,108.95146,0,0,0-33.54293-4.88667,104.68637,104.68637,0,0,0-29.98088,4.14138A81.63777,81.63777,0,0,0,46.63656,31.09932,56.11175,56.11175,0,0,0,30.48592,48.32716a41.54965,41.54965,0,0,0-5.79718,21.4507,38.03019,38.03019,0,0,0,7.45374,23.18871"/><path class="cls-7" d="M432.28746,153.86554q-2.96832-10.766-1.19272-19.75368a29.93283,29.93283,0,0,1,7.88321-15.32417,34.32883,34.32883,0,0,1,15.99072-9.06013q9.80754-2.704,17.35354-.8535a27.22355,27.22355,0,0,1,12.4684,6.49983,23.688,23.688,0,0,1,6.65564,10.3439l-10.94817,3.01852a19.16726,19.16726,0,0,0-3.92783-5.34591,15.90082,15.90082,0,0,0-7.30622-3.9481q-4.59237-1.22432-11.283.61791-10.49257,2.8929-14.16789,11.22139-3.67709,8.32776-.40361,20.19625l3.77007,13.6739q3.1851,11.55225,10.8651,16.70845t17.71552,2.38932a25.463,25.463,0,0,0,9.86877-4.70842,15.38865,15.38865,0,0,0,4.65825-6.39957,18.24938,18.24938,0,0,0,1.12239-6.90678l10.94817-3.01851a23.14438,23.14438,0,0,1-.52852,11.73132,25.70236,25.70236,0,0,1-7.44617,11.56807q-5.65092,5.31936-15.99011,8.1712a34.3289,34.3289,0,0,1-18.37438.41467,29.88775,29.88775,0,0,1-14.63318-9.1577q-6.14268-6.84726-9.154-17.77353Z"/><text class="cls-8" transform="translate(218.15039 190.01776) scale(2.25327 1)">e</text><path class="cls-7" d="M377.99087,66.7261,361.98756,205.72c-.54745,4.75481-.23527,13.99409,10.16088,13.99409h16.08645c18.04,0,18.82859-.08595,24.19347-6.25556,2.64119-3.03736,5.94266-16.56245,8.38334-27.94076h1.43161l-5.46246,40.75182H352.45826l.36088-3.20138L369.88151,66.7261"/><path class="cls-7" d="M513.77493,125.88012a12.9306,12.9306,0,0,1,5.20426-9.72722,48.56309,48.56309,0,0,1,13.31428-6.95964,101.42255,101.42255,0,0,1,18.15569-4.5608,120.03537,120.03537,0,0,1,39.45778,0,101.57032,101.57032,0,0,1,18.1557,4.5608,48.66269,48.66269,0,0,1,13.31428,6.95964,12.94375,12.94375,0,0,1,5.205,9.72722,13.22842,13.22842,0,0,1-4.84142,9.62966,44.97311,44.97311,0,0,1-12.70929,6.96114,96.96164,96.96164,0,0,1-18.03424,4.70413,126.2027,126.2027,0,0,1-41.6371,0,96.87625,96.87625,0,0,1-18.035-4.70413,44.86276,44.86276,0,0,1-12.70853-6.96114A13.21485,13.21485,0,0,1,513.77493,125.88012Zm24.20709,0q0,6.81856,2.66285,10.85057a17.664,17.664,0,0,0,7.02074,6.1917,30.68457,30.68457,0,0,0,10.16713,2.83334,113.84691,113.84691,0,0,0,24.69138,0,30.69494,30.69494,0,0,0,10.16713-2.83334,17.682,17.682,0,0,0,7.02-6.1917q2.66134-4.03275,2.66286-10.85057a21.54284,21.54284,0,0,0-1.93642-9.64814,15.45446,15.45446,0,0,0-5.9307-6.33654,28.5513,28.5513,0,0,0-10.04643-3.50471,97.10569,97.10569,0,0,0-28.565,0,28.51977,28.51977,0,0,0-10.04568,3.50471,15.42476,15.42476,0,0,0-5.9307,6.33654A21.49149,21.49149,0,0,0,537.982,125.88012Z"/><text class="cls-9" transform="translate(642.10547 190.01776) scale(1.32871 1)">M</text><text class="cls-10" transform="matrix(0.40856, 0, -0.14878, 0.98887, 730.24956, 256.66513)">E</text><line class="cls-11" x1="617.02085" y1="161.40711" x2="523.33601" y2="161.40711"/><path d="M936.17773,43.29132l.57813,1.11816a30.18254,30.18254,0,0,0-3.89356,7.69629,48.88544,48.88544,0,0,0-2.19726,9.63672,90.38893,90.38893,0,0,0-.69336,11.67481,89.806,89.806,0,0,0,.69336,11.60937,48.15718,48.15718,0,0,0,2.19726,9.60352,32.838,32.838,0,0,0,3.89356,7.79492l-.57813,1.05176a38.38039,38.38039,0,0,1-5.49316-12.75977,73.77271,73.77271,0,0,1-1.792-17.2998,74.4283,74.4283,0,0,1,1.792-17.43067A37.63945,37.63945,0,0,1,936.17773,43.29132Z"/><path d="M949.86133,59.20929v1.5791H937.60352v-1.5791ZM942.499,50.264V83.679a12.76425,12.76425,0,0,0,.94434,5.55761,3.05268,3.05268,0,0,0,2.87207,1.875,3.1588,3.1588,0,0,0,1.84961-.59277,5.36712,5.36712,0,0,0,1.542-1.84082l.46192,1.51269a5.851,5.851,0,0,1-1.67579,1.8418,3.82523,3.82523,0,0,1-2.25586.72363,3.745,3.745,0,0,1-2.62109-.9873,6.10481,6.10481,0,0,1-1.61914-2.99219,19.46242,19.46242,0,0,1-.53906-4.96679V50.79034Z"/><path d="M962.19531,58.55206a6.40549,6.40549,0,0,1,4.6836,2.03907,13.89118,13.89118,0,0,1,3.17968,5.88671,32.116,32.116,0,0,1,1.15723,9.17579,32.116,32.116,0,0,1-1.15723,9.17578,13.89539,13.89539,0,0,1-3.17968,5.88769,6.41982,6.41982,0,0,1-9.38575,0,13.90282,13.90282,0,0,1-3.21875-5.88769,31.59447,31.59447,0,0,1-1.17578-9.17578,31.59449,31.59449,0,0,1,1.17578-9.17579,13.89863,13.89863,0,0,1,3.21875-5.88671A6.468,6.468,0,0,1,962.19531,58.55206Zm0,1.57813a5.61375,5.61375,0,0,0-4.18261,1.875,12.8802,12.8802,0,0,0-2.81348,5.32812,29.6116,29.6116,0,0,0-1.02149,8.32032,29.69374,29.69374,0,0,0,1.02149,8.28808,12.87392,12.87392,0,0,0,2.81348,5.36035,5.58086,5.58086,0,0,0,8.3457,0,12.60078,12.60078,0,0,0,2.81445-5.36035,30.22777,30.22777,0,0,0,1.00195-8.28808,30.14428,30.14428,0,0,0-1.00195-8.32032,12.60456,12.60456,0,0,0-2.81445-5.32812A5.63481,5.63481,0,0,0,962.19531,60.13019Z"/><path d="M973.374,103.47687l-.54-1.05176a32.87411,32.87411,0,0,0,3.89356-7.79492,48.15718,48.15718,0,0,0,2.19726-9.60352,89.806,89.806,0,0,0,.69336-11.60937,90.38893,90.38893,0,0,0-.69336-11.67481,48.88544,48.88544,0,0,0-2.19726-9.63672,30.21352,30.21352,0,0,0-3.89356-7.69629l.54-1.11816a36.90137,36.90137,0,0,1,5.51172,12.69531,75.24678,75.24678,0,0,1,1.77344,17.43067,74.584,74.584,0,0,1-1.77344,17.2998A37.61862,37.61862,0,0,1,973.374,103.47687Z"/></svg>