<?xml version="1.0" encoding="UTF-8"?>
<svg id="_圖層_1" data-name="圖層 1" xmlns="http://www.w3.org/2000/svg" viewBox="0 0 1920 617.48">
  <defs>
    <style>
      .cls-1 {
        fill: none;
        stroke: #20d371;
        stroke-miterlimit: 10;
        stroke-width: 3px;
      }

      .cls-2, .cls-3 {
        fill: #ff4a03;
      }

      .cls-4 {
        fill: #fffa6f;
      }

      .cls-5 {
        fill: #ff00c9;
      }

      .cls-6 {
        fill: #a9a9ff;
      }

      .cls-7 {
        fill: #20d371;
      }

      .cls-8 {
        font-family: Arial-BlackItalic, 'Arial Black';
        font-size: 214.61px;
      }

      .cls-8, .cls-9 {
        fill: #0073f7;
      }

      .cls-9 {
        font-family: 'WorkSansRoman_196.000wght', 'WorkSansRoman 196.000wght';
        font-size: 65.78px;
        font-variation-settings: ';
      }

      .cls-10 {
        fill: #004943;
        font-family: Smokum-Regular, Smokum;
        font-size: 113.06px;
      }

      .cls-11 {
        letter-spacing: .02em;
      }

      .cls-12 {
        letter-spacing: .01em;
      }

      .cls-3 {
        font-family: AdobeMingStd-Light-B5pc-H, 'Adobe Ming Std';
        font-size: 150.27px;
      }

      .cls-13 {
        letter-spacing: .02em;
      }
    </style>
  </defs>
  <rect class="cls-4" x="43.65" y="31.41" width="328.34" height="177.34"/>
  <rect class="cls-4" x="467.54" y="143.79" width="436.09" height="129.94"/>
  <rect class="cls-4" x="371.99" y="85.49" width="77.46" height="184.69"/>
  <path class="cls-5" d="M74.39,125.12c-5.13-6.9-7.7-14.88-7.7-23.93,0-7.95,1.99-15.32,5.96-22.11,3.98-6.79,9.5-12.73,16.56-17.81,7.07-5.08,15.38-9.03,24.93-11.84,9.55-2.82,19.85-4.22,30.89-4.22,13.91,0,26.59,1.85,38.01,5.55,11.43,3.7,21.28,8.97,29.57,15.82,8.28,6.85,14.68,14.99,19.21,24.43,4.53,9.44,6.79,19.85,6.79,31.22,0,7.84-1.96,16.7-5.88,26.59-3.92,9.88-9.64,19.35-17.14,28.41-3.54,4.53-7.48,9.17-11.84,13.91-4.36,4.75-8.84,9.3-13.42,13.67-4.58,4.36-9.03,8.25-13.33,11.68-4.31,3.42-8.2,6.13-11.68,8.12-3.48,1.99-6.27,2.98-8.36,2.98-2.21,0-3.31-.99-3.31-2.98,0-.99,.58-2.02,1.74-3.06,1.16-1.05,2.73-2.07,4.72-3.06,1.99-.99,4.14-1.99,6.46-2.98,2.32-.99,4.64-1.93,6.96-2.82,15.57-6.19,30.4-14.47,44.47-24.85,14.08-10.38,26.81-21.59,38.18-33.63,7.62-8.5,14.3-17.12,20.04-25.84,5.74-8.72,10.19-16.92,13.33-24.6,3.15-7.67,4.72-14.16,4.72-19.46,0-4.86-1.16-7.29-3.48-7.29-1.66,0-3.06,1.05-4.22,3.15-1.16,2.1-2.26,5.94-3.31,11.51-1.05,5.58-2.24,13.72-3.56,24.43-.99,7.4-2.43,15.19-4.31,23.35-1.88,8.17-4.45,16.37-7.7,24.6-3.26,8.23-7.43,16.18-12.51,23.85-5.08,7.68-11.26,14.71-18.55,21.12-6.41,5.74-12.12,10.27-17.14,13.58-5.03,3.31-8.86,4.97-11.51,4.97-2.21,0-3.31-.99-3.31-2.98,0-.99,.58-2.02,1.74-3.06,1.16-1.05,2.73-2.07,4.72-3.06,1.99-.99,4.14-1.96,6.46-2.9,2.32-.94,4.64-1.91,6.96-2.9,8.72-3.53,17.61-8.12,26.67-13.75,9.05-5.63,17.86-12.03,26.42-19.21,8.56-7.18,16.59-14.83,24.1-22.94,7.51-8.12,14.11-16.43,19.79-24.93,5.69-8.5,10.13-16.92,13.33-25.26,3.2-8.34,4.8-16.26,4.8-23.77,0-2.65-.47-5.22-1.41-7.7-.94-2.48-2.07-4.28-3.4-5.38l1.16-.99c1.77,1.44,3.15,3.59,4.14,6.46,.99,2.87,1.49,5.96,1.49,9.28,0,7.4-1.71,15.32-5.13,23.77-3.42,8.45-8.12,17.01-14.08,25.67-5.96,8.67-12.78,17.14-20.46,25.43-7.68,8.28-15.76,16.01-24.27,23.19-8.51,7.18-17.06,13.42-25.68,18.72-8.61,5.3-16.79,9.33-24.51,12.09-1.99,.66-4.09,1.43-6.29,2.32-2.21,.88-4.31,1.79-6.29,2.73-1.99,.94-3.62,1.88-4.89,2.82-1.27,.94-1.9,1.79-1.9,2.57,0,.66,.55,.99,1.66,.99,2.43,0,5.6-1.38,9.52-4.14,3.92-2.76,8.09-6.29,12.51-10.6,6.18-6.19,11.79-13.28,16.81-21.29,5.02-8.01,9.41-16.42,13.17-25.26,3.75-8.83,6.82-17.56,9.19-26.17,2.37-8.61,4.06-16.62,5.05-24.02,1.43-12.15,3.4-21.51,5.88-28.08,2.48-6.57,5.44-9.86,8.86-9.86s5.3,3.54,5.3,10.6c0,4.42-.86,9.17-2.57,14.25-1.71,5.08-3.98,10.24-6.79,15.49-2.82,5.25-5.91,10.35-9.28,15.32-3.37,4.97-6.74,9.55-10.1,13.75-3.37,4.2-6.38,7.73-9.03,10.6-5.3,5.74-11.35,11.54-18.14,17.39-6.79,5.85-13.89,11.46-21.28,16.81-7.4,5.36-14.74,10.11-22.03,14.25-7.29,4.14-14.08,7.31-20.37,9.52-1.99,.66-4.09,1.43-6.29,2.32-2.21,.88-4.31,1.79-6.29,2.73-1.99,.94-3.62,1.88-4.89,2.82-1.27,.94-1.91,1.79-1.91,2.57,0,.66,.55,.99,1.66,.99,3.09,0,7.26-2.07,12.51-6.21,5.24-4.14,10.9-9.86,16.98-17.14,6.07-7.29,11.87-15.57,17.39-24.85,6.18-9.5,11.35-19.63,15.49-30.4,4.14-10.77,6.21-21.34,6.21-31.72s-2.02-19.05-6.05-27.33c-4.03-8.28-9.72-15.43-17.06-21.45-7.35-6.02-16.07-10.65-26.17-13.91-10.1-3.26-21.29-4.89-33.54-4.89-10.71,0-20.71,1.38-29.98,4.14-9.28,2.76-17.37,6.6-24.27,11.51-6.9,4.92-12.29,10.66-16.15,17.23-3.87,6.57-5.8,13.72-5.8,21.45,0,8.72,2.48,16.46,7.45,23.19"/>
  <path class="cls-6" d="M475.94,185.27c-1.98-7.18-2.38-13.76-1.19-19.75,1.18-5.99,3.81-11.1,7.88-15.32,4.07-4.22,9.4-7.24,15.99-9.06,6.54-1.8,12.32-2.09,17.35-.85,5.03,1.24,9.19,3.4,12.47,6.5,3.28,3.1,5.5,6.55,6.66,10.34l-10.95,3.02c-.81-1.75-2.12-3.53-3.93-5.35-1.81-1.81-4.24-3.13-7.31-3.95-3.06-.82-6.82-.61-11.28,.62-7,1.93-11.72,5.67-14.17,11.22-2.45,5.55-2.59,12.28-.4,20.2l3.77,13.67c2.12,7.7,5.75,13.27,10.87,16.71,5.12,3.44,11.03,4.23,17.72,2.39,4.31-1.19,7.6-2.76,9.87-4.71,2.27-1.95,3.82-4.08,4.66-6.4,.83-2.31,1.21-4.62,1.12-6.91l10.95-3.02c.84,3.66,.67,7.57-.53,11.73-1.2,4.17-3.68,8.02-7.45,11.57-3.77,3.55-9.1,6.27-15.99,8.17-6.59,1.82-12.71,1.95-18.37,.41-5.66-1.54-10.54-4.59-14.63-9.16-4.1-4.56-7.15-10.49-9.15-17.77l-3.94-14.3Z"/>
  <text class="cls-3" transform="translate(261.81 221.43) scale(2.25 1)"><tspan x="0" y="0">e</tspan></text>
  <path class="cls-2" d="M421.64,98.14l-16,138.99c-.55,4.75-.24,13.99,10.16,13.99h16.09c18.04,0,18.83-.09,24.19-6.26,2.64-3.04,5.94-16.56,8.38-27.94h1.43l-5.46,40.75h-64.32l.36-3.2,17.06-156.34"/>
  <path class="cls-7" d="M557.43,157.29c0-3.14,1.73-7.04,5.2-9.73,3.47-2.69,7.91-5.01,13.31-6.96,5.4-1.95,11.46-3.47,18.16-4.56,6.69-1.09,13.27-1.63,19.73-1.63s13.03,.54,19.73,1.63c6.7,1.09,12.75,2.61,18.16,4.56,5.41,1.95,9.84,4.27,13.31,6.96,3.47,2.69,5.21,6.59,5.21,9.73s-1.62,6.97-4.84,9.63c-3.23,2.66-7.47,4.98-12.71,6.96-5.25,1.99-11.26,3.55-18.03,4.7-6.78,1.15-13.72,1.73-20.82,1.73s-14.04-.58-20.82-1.73c-6.78-1.15-12.79-2.72-18.03-4.7-5.25-1.98-9.48-4.3-12.71-6.96-3.23-2.66-4.84-6.62-4.84-9.63Zm24.21,0c0,4.55,.89,8.16,2.66,10.85,1.77,2.69,4.12,4.75,7.02,6.19,2.9,1.44,6.29,2.39,10.17,2.83,3.87,.45,7.99,.67,12.35,.67s8.47-.22,12.35-.67c3.87-.45,7.26-1.39,10.17-2.83,2.91-1.44,5.24-3.5,7.02-6.19,1.77-2.69,2.66-6.3,2.66-10.85,0-3.84-.65-7.06-1.94-9.65-1.29-2.59-3.27-4.71-5.93-6.34-2.66-1.63-6.01-2.8-10.05-3.5-4.04-.7-8.8-1.06-14.28-1.06s-10.25,.35-14.28,1.06c-4.04,.7-7.38,1.87-10.05,3.5-2.66,1.63-4.64,3.74-5.93,6.34-1.29,2.59-1.94,5.81-1.94,9.65Z"/>
  <text class="cls-10" transform="translate(685.76 221.43) scale(1.33 1)"><tspan x="0" y="0">M</tspan></text>
  <text class="cls-8" transform="translate(773.91 288.07) scale(.41 .99) skewX(-20.01)"><tspan x="0" y="0">E</tspan></text>
  <line class="cls-1" x1="660.67" y1="192.82" x2="566.99" y2="192.82"/>
  <g>
    <rect class="cls-4" x="952.66" y="46.57" width="89.82" height="110.03"/>
    <text class="cls-9" transform="translate(970.47 123.51) scale(.59 1)"><tspan class="cls-11" x="0" y="0">(</tspan><tspan class="cls-12" x="20" y="0">t</tspan><tspan class="cls-13" x="42.69" y="0">o</tspan><tspan class="cls-11" x="79.92" y="0">)</tspan></text>
  </g>
  <g>
    <path class="cls-5" d="M1592.3,222.19c4.27,6.69,11.52,9.09,16.85,9.92,1.43,.22,2.88,.33,4.35,.33,2.03,0,4.11-.21,6.19-.64,2.83-.58,5.45-1.4,7.79-2.45,6.04-2.7,10.62-7.62,12.91-13.85,2.33-6.37,1.97-13.56-1-19.74-7.7-16.04-20.24-15.61-26.03-14.39,.52-.67,.98-1.39,1.38-2.16,1.48-2.89,1.69-6.04,.61-9.36-1.06-3.25-3-5.54-5.78-6.82-4.45-2.04-9.91-.98-12.95-.09,1.78-3.33,2.51-7.06,1.98-10.05-.71-4.06-3.51-6.67-7.69-7.17-1-.12-1.94-.12-2.83-.04,8.22-6.73,11.73-18.66,7.81-28.64-3.09-7.89-9.65-13.01-18.97-14.79-7.69-1.47-16.69-.53-24.68,2.59-10.23,3.99-22.67,12.65-25.77,24.42-.85-1.03-2.18-1.97-4.26-2.49-6.59-1.65-10.18,2.91-11.55,5.26-1.24-1.44-2.87-2.58-4.76-3.23-5.59-1.93-11.08-.53-15.89,4.05-4.05,3.85-6.36,9.14-6.33,14.49,.04,9.12,6.7,12.86,11.2,14.35-3.12,1.01-6.27,3.09-9.1,6.91-5.63,7.61-6.23,16.88-1.6,24.8,1.11,1.9,2.45,3.55,3.89,4.89-3.45,.83-10.45,3.56-10.88,12.04-.13,2.47,.31,4.51,1.28,6.1-8.11-1.28-16.06,1.39-22.64,7.68-9.14,8.75-13.79,22.96-11.3,34.55,2.65,12.31,14.45,21.09,28.71,21.35,.19,0,.38,0,.57,0,11.34,0,21.86-6.07,27.58-15.96,2.05-3.55,3.46-7.58,4.21-11.98,.9,.14,1.81,.23,2.75,.23,1.63,0,3.33-.22,5.07-.65,4.08-1.02,9.57-3.43,12.48-9.08,.11-.2,2.55-4.69,2.68-9.54,.82,.03,2.1,.02,3.56-.19-1.21,1.64-2.08,3.95-1.39,6.75,.03,.09,.58,1.72,1.66,3.09-1.52,.43-3.74,1.37-5.23,3.39-1.47,2-1.89,4.58-1.24,7.66,1.43,6.8,8.25,9.16,12.18,9.96,1.15,.23,2.33,.35,3.5,.35,1.52,0,3.02-.2,4.47-.58,4.22-1.14,11.62-4.34,13.79-13.04,.09-.29,1.87-6.34-1.25-12.09,1.05,.24,2.11,.35,3.16,.35,2.86,0,5.64-.77,7.91-1.67,11.41-4.54,13.11-13.07,13.17-17.46,1.83,1.67,4.24,2.61,6.82,2.61h.07c.85,0,1.67-.12,2.46-.32,.02,.12,.06,.24,.12,.35Zm-64.53,9.05c-.24-.03-.5,.05-.69,.23-.18,.17-.29,.42-.27,.67,.19,4.72-2.43,9.56-2.47,9.62-2.62,5.1-7.63,7.28-11.37,8.21-2.53,.63-4.94,.76-7.2,.39-.68-.1-1.13-.21-1.52-.34-2.32-.63-4.44-1.82-6.31-3.56-4.18-3.9-5.95-9.52-4.62-14.67,1.31-5.08,5.42-8.72,10.29-9.19,1.58,1.5,3.41,2.25,3.53,2.3,.11,.04,.21,.06,.32,.06,.34,0,.66-.2,.8-.54,.18-.44-.04-.94-.48-1.12-.04-.01-3.58-1.48-4.53-4.18-.44-1.24-.25-2.6,.54-4.04,3.06-5.48,9.7-2.63,9.98-2.5,.28,.12,.6,.09,.85-.08,.25-.18,.38-.47,.37-.77-.26-3.71-.12-8.86,4-10.73,2.73-1.24,5.85-.59,7.95,1.64,1.78,1.89,1.89,4.59,.33,8.02-1.23,2.69-3.06,4.82-3.07,4.84-.31,.36-.27,.9,.08,1.21,.36,.31,.9,.27,1.21-.08,.08-.09,1.84-2.13,3.16-4.87,3.66-.88,8.55-.04,10.72,2.98,2.45,3.4,2.08,8.32,.46,11.42-3.17,6.05-11.97,5.1-12.06,5.08Zm30.41,18.72c-1.87,7.48-7.87,10.56-12.57,11.83-2.31,.62-4.79,.7-7.18,.21-4.3-.87-9.67-3.08-10.84-8.62-.54-2.58-.23-4.69,.93-6.28,1.94-2.64,5.64-3.04,5.68-3.05,.36-.03,.66-.29,.75-.64,.09-.35-.04-.72-.34-.93-1.42-1-2.25-3.38-2.25-3.38-1.04-4.25,2.46-6.71,3.1-7.13,2.27-.85,4.5-2.36,5.89-5.03,1.87-3.57,2.27-9.27-.59-13.23-2.45-3.4-7.33-4.46-11.33-3.89,1.15-3.4,.74-6.28-1.25-8.39-2.61-2.78-6.51-3.57-9.92-2.03-4.59,2.08-5.21,7.05-5.08,11.11-3.17-.95-8.24-1.07-10.9,3.71-1.05,1.89-1.28,3.72-.67,5.45,.17,.48,.41,.93,.68,1.35-5.09,.96-9.27,4.93-10.66,10.32-1.48,5.76,.48,12.03,5.12,16.36,2.11,1.97,4.5,3.29,7.11,4-.71,4.23-2.05,8.08-4.01,11.47-5.5,9.51-15.69,15.28-26.62,15.09-11-.2-24.16-6.54-27.05-19.98-2.37-11.04,2.07-24.59,10.8-32.94,6.79-6.5,15.12-8.89,23.46-6.76,1.98,1.4,4.36,1.68,5.87,1.68,.85,0,1.42-.08,1.49-.09,.47-.07,.79-.51,.72-.98-.07-.47-.51-.79-.98-.73-.04,0-4.11,.58-6.62-1.7-1.5-1.36-2.18-3.5-2.03-6.36,.21-4.05,2.12-7.08,5.69-9.01,2.21-1.19,4.42-1.59,5.2-1.7,1.98,1.41,4.07,2.21,6,2.21,.27,0,.55-.02,.82-.05,.47-.06,.81-.49,.75-.96-.06-.47-.49-.81-.96-.75-3.39,.42-7.9-2.78-10.73-7.63-4.27-7.31-3.71-15.87,1.5-22.9,3.23-4.37,7.19-6.7,11.81-6.99,1.27-.08,2.59-.02,3.96,.21,4.82,.81,8.47,3.34,8.51,3.37,.39,.27,.92,.18,1.2-.21,.27-.39,.18-.93-.21-1.2-.1-.07-6.15-4.22-13.33-3.88-.02,0-.03-.01-.05-.02-.03,0-3.46-.35-6.86-2.21-4.48-2.46-6.77-6.28-6.79-11.36-.02-4.88,2.09-9.7,5.8-13.23,4.37-4.17,9.13-5.4,14.14-3.67,3.08,1.07,5.37,3.62,5.96,6.66,.47,2.43,.02,4.65-1.35,6.61-.27,.39-.18,.93,.21,1.2,.39,.27,.93,.18,1.2-.21,1.65-2.36,2.2-5.02,1.63-7.93-.22-1.12-.65-2.18-1.22-3.16,.69-1.47,3.65-6.75,10.02-5.16,2.29,.57,3.67,1.73,4.23,3.54,.85,2.74-.54,5.99-.55,6.03-.19,.44,.01,.95,.45,1.13,.11,.05,.23,.07,.34,.07,.33,0,.65-.19,.79-.52,.07-.15,1.58-3.7,.68-7,1.92-12.15,14.72-21.19,25.14-25.25,7.59-2.96,16.46-3.89,23.73-2.5,6.07,1.16,14.07,4.48,17.69,13.72,4.18,10.68-.74,23.74-10.98,29.13-9.38,4.93-20.79,4.73-28.72,3.69-.48-.06-.91,.27-.97,.74-.06,.47,.27,.91,.74,.97,2.71,.36,5.82,.62,9.13,.62,5.12,0,10.71-.63,15.99-2.48-3.16,3.59-4.42,7.95-4.44,8.03-.13,.46,.14,.93,.6,1.06,.46,.13,.93-.14,1.06-.6,.01-.03,.93-3.26,3.16-6.26,2.9-3.91,6.54-5.63,10.85-5.12,4.38,.52,5.79,3.41,6.2,5.75,.56,3.21-.5,7.37-2.88,10.73-.01,.01-.02,.02-.03,.03-1.33,1.86-3.06,3.48-5.17,4.54-.42,.21-.6,.73-.38,1.16,.15,.3,.46,.48,.77,.48,.13,0,.26-.03,.38-.09,2.24-1.12,4.11-2.82,5.56-4.79,1.21-.46,8.46-3.06,13.7-.65,2.33,1.07,3.96,3.02,4.86,5.78,.93,2.86,.76,5.56-.5,8.03-3.1,6.07-11.77,8.93-11.86,8.96-.45,.15-.7,.63-.56,1.08,.12,.37,.46,.6,.82,.6,.09,0,.18-.01,.26-.04,.28-.09,5.22-1.72,9.19-5.23,1.77-.7,17.63-6.33,26.76,12.71,2.77,5.76,3.11,12.47,.93,18.4-2.13,5.79-6.38,10.37-11.99,12.88-2.23,1-4.73,1.78-7.43,2.33-3.39,.69-6.72,.79-9.93,.29-4.98-.78-11.73-2.99-15.65-9.13,1.76-.78,3.27-2.05,4.32-3.73,3.12-4.99,.73-11,.63-11.26-.01-.03-.02-.05-.04-.08-1.76-3.3-4.22-5.36-7.31-6.13-4.49-1.11-9.13,.8-11.52,2.05,.18-3.43-.97-9.88-7.67-13.08-3.46-1.65-8.53-.63-11.08,2.22-3.17,3.54-2.45,7.19-1.76,9.02-1.22,.15-2.35,.45-3.3,.87-2.13,.94-3.58,2.74-3.97,4.95-.41,2.35,.42,4.78,2.23,6.51,.78,.75,1.75,1.38,2.83,1.87-3.71,.96-6.36,3.02-7.76,6.08-2.51,5.46-.75,11.56,4.47,15.55,.68,.52,1.37,.93,2.08,1.28,4.31,5.53,2.29,12.46,2.26,12.57Zm31.52-29.53h-.05c-2.88,0-5.51-1.42-7.04-3.79l-.09-.14c-.22-.36-.67-.5-1.05-.34-.39,.15-.61,.57-.52,.98,0,.03,.64,3.13-.49,6.93-1.52,5.12-5.37,8.93-11.43,11.35-3.98,1.58-9.66,2.75-14.14-.66-4.55-3.48-6.1-8.76-3.94-13.46,1.66-3.61,5.3-5.53,10.82-5.68,.46-.01,.83-.39,.84-.85,0-.46-.35-.85-.81-.87-2.41-.14-4.83-1.1-6.3-2.51-1.39-1.33-2.04-3.18-1.73-4.96,.29-1.66,1.35-2.96,2.96-3.67,1.08-.48,2.45-.76,3.95-.84,.3-.01,.58-.19,.72-.46,.14-.27,.13-.59-.03-.85-.1-.17-2.51-4.23,1.01-8.17,1.39-1.55,3.78-2.44,6.04-2.44,1.07,0,2.12,.2,3.01,.63,7.41,3.54,7.04,11.64,6.48,12.82-.17,.35-.08,.77,.22,1.02,.29,.25,.72,.28,1.04,.06,.06-.04,6.22-4.13,11.77-2.76,2.58,.64,4.66,2.4,6.18,5.22,.19,.49,2.03,5.61-.51,9.65-1.48,2.36-4.06,3.79-6.92,3.8Z"/>
    <path class="cls-5" d="M1623.02,160.84c2.45,2.07,5.65,3.44,9.54,4.05,1.3,.21,2.63,.31,3.98,.31,2.97,0,6.01-.49,8.97-1.47,2.9-.96,5.09-1.87,6.53-2.75-.02,.62,0,1.26,.12,1.96,.13,.94,.64,2.34,1.73,3.27-2.12,.79-4.16,2.07-5.7,3.17-6.3,4.5-10.79,14.71-7.17,22.17,2.42,4.98,7.03,7.73,12.97,7.75h.06c5.74,0,11.68-2.55,15.65-6.37,.09,1.66,.49,3.83,1.86,5.41,1.15,1.33,2.77,2,4.8,2,4.65,0,8.02-3.68,9.93-6.55,.14,1.28,.55,2.67,1.47,3.85,1.4,1.79,3.64,2.7,6.68,2.7h.04c10.05-.03,15.1-8.6,16.53-16.47,2.24,1.49,3.95,2.36,7.27,2.9,.8,.13,1.59,.2,2.41,.2,1.49,0,3.04-.22,4.8-.67,12.16-3.11,13.41-10.8,13.45-11.1,.75-4.28,.08-7.56-1.98-9.75-1.53-1.62-3.53-2.33-5.21-2.63,2.36-1.58,4.09-3.89,4.06-7.2-.02-2.93-.96-5.02-2.77-6.23-1.77-1.17-4.06-1.24-6.02-.97,2.47-2.5,3.54-5.45,3.15-8.84-.54-4.73-4.22-6.61-7.3-7.15,1.64-1.44,2.78-3.4,2.78-6.04,0-2.87-.85-5.07-2.54-6.52-1.44-1.24-3.19-1.67-4.56-1.81,2.6-2.83,4.28-6.4,4.44-10.06,.14-3.11-.86-5.83-2.88-7.86-2.52-2.53-6.49-3.89-10.89-3.72-4.52,.18-8.85,2.16-12.17,5.58-3.69,3.8-5.11,9.22-4.05,15.1-1.45-.72-3.04-1.03-4.7-.87-3.41,.32-5.89,2.31-7.35,3.87-.27-1.51-.93-3.01-2.01-4.48-2.97-4.06-10.08-6.63-18.68-2.67-4.95,2.27-10.07,7.11-10.28,13.88-1.11-1.39-2.67-2.85-4.7-3.6-2.31-.85-4.78-.64-7.34,.65-3.02,1.51-4.64,4.32-4.43,7.71,.09,1.42,.49,2.78,1.13,3.92-1.08-.33-2.2-.56-3.49-.57-5.24-.05-9.64,3.21-11.69,8.72-2.36,6.34-.9,13.41,3.55,17.19Zm-1.94-16.59c1.77-4.76,5.49-7.59,9.96-7.59h.1c1.93,.02,3.54,.65,5.24,1.31,.54,.21,1.09,.42,1.66,.63,0,0,0,0,0,0,.45,.16,.94-.08,1.1-.53,.16-.45-.08-.94-.53-1.1-1.77-.63-3.22-2.99-3.38-5.5-.16-2.67,1.1-4.88,3.47-6.06,2.12-1.06,4.13-1.25,5.97-.57,3.76,1.38,5.73,5.94,5.75,5.98,.18,.41,.64,.62,1.06,.48,.42-.14,.67-.58,.57-1.01-1.19-5.1,.52-11.92,8.91-15.78,5.59-2.56,13.07-2.66,16.57,2.13,1.52,2.08,2.09,4.18,1.7,6.25-.78,4.1-5.07,6.85-5.11,6.87-.4,.25-.52,.79-.27,1.19s.79,.53,1.19,.27c.2-.13,4.96-3.16,5.89-8,.03-.14,.04-.28,.06-.42,.46-.69,3.13-4.45,7.47-4.86,1.94-.19,3.72,.38,5.28,1.68,1.16,.97,1.77,2.01,1.77,2.02,.23,.41,.76,.56,1.18,.32,.41-.23,.56-.76,.32-1.18-.03-.05-.68-1.18-1.95-2.3-.96-3.62-1.72-10.2,3.22-15.29,3.01-3.11,6.92-4.9,11-5.06,3.91-.14,7.42,1.02,9.6,3.21,1.7,1.71,2.5,3.92,2.38,6.57-.27,6.12-5.3,12.02-11.69,13.72-.46,.12-.74,.59-.61,1.05,.1,.39,.45,.64,.83,.64,.07,0,.15,0,.22-.03,2.49-.66,4.79-1.91,6.75-3.54,.74-.07,3.39-.17,5.23,1.42,1.28,1.11,1.93,2.86,1.93,5.21,0,7.29-10.97,7.83-11.08,7.84-.47,.02-.85,.42-.82,.9,.02,.47,.4,.83,.86,.83h.03c2.1-.08,5.1-.64,7.66-1.98,1.05-.02,7.23,.12,7.88,5.81,.63,5.41-3.29,9.62-11.64,12.51-.45,.16-.69,.65-.53,1.1,.12,.36,.46,.58,.81,.58,.09,0,.19-.02,.28-.05,2.41-.84,4.48-1.79,6.22-2.84,.29-.12,5.57-2.18,8.49-.25,1.3,.86,1.97,2.48,2,4.8,.07,7.74-11.96,8.4-12.08,8.41-.48,.02-.84,.43-.82,.9,.02,.46,.4,.82,.86,.82h.04c1.83-.09,4.29-.49,6.62-1.39,.69-.05,4.67-.23,7,2.27,1.66,1.77,2.18,4.55,1.52,8.28-.04,.28-1.2,6.89-12.18,9.7-2.48,.64-4.49,.77-6.5,.44-3.5-.57-4.96-1.5-7.7-3.38,0,0-.02,0-.03-.01-.05-.03-.1-.05-.16-.07-.05-.02-.1-.05-.16-.05-.01,0-.02-.01-.03-.01-.04,0-.08,0-.13,0-.06,0-.12,0-.18,.01-.07,.01-.12,.04-.18,.07-.04,.02-.08,.03-.12,.06-.06,.04-.11,.1-.16,.15-.02,.02-.05,.04-.07,.07,0,0,0,.02,0,.02-.03,.05-.05,.12-.08,.18-.02,.05-.04,.1-.05,.15,0,.01,0,.02-.01,.03-.22,1.67-2.51,16.3-15.04,16.34h-.04c-2.47,0-4.26-.68-5.32-2.03-1.87-2.39-.95-6.21-.94-6.25,.11-.43-.14-.88-.56-1.03-.42-.14-.89,.06-1.07,.48-.04,.09-3.88,8.83-10.2,8.83-1.53,0-2.67-.46-3.49-1.4-1.69-1.95-1.48-5.37-1.4-6.24,.65-.84,1.22-1.71,1.67-2.62,.21-.43,.04-.94-.39-1.15-.43-.21-.95-.03-1.15,.39-2.77,5.61-10.46,9.98-17.54,9.98h-.05c-5.26-.02-9.31-2.42-11.43-6.78-2.61-5.37-.53-14.9,6.62-20.01,1.73-1.24,5.06-3.35,7.93-3.6,.47-.04,.82-.46,.79-.93-.04-.47-.45-.83-.93-.79-2.57,.23-3.06-2.47-3.1-2.79-.91-5.64,3.94-7.86,4.14-7.95,.43-.19,.63-.7,.44-1.14-.19-.43-.69-.63-1.14-.45-.05,.02-3.64,1.65-4.88,5.48-.11,.04-.22,.09-.31,.18-1.03,.93-3.57,2.1-7.15,3.28-4.04,1.33-8.24,1.71-12.13,1.1-3.57-.56-6.49-1.79-8.69-3.66-3.91-3.32-5.17-9.6-3.06-15.27Z"/>
    <path class="cls-5" d="M1686.94,141.36s.09,0,.2,0c.77,0,3.55-.12,5.66-1.73,.38-.29,.45-.83,.16-1.21-.29-.38-.83-.45-1.21-.16-1.91,1.46-4.71,1.37-4.73,1.37-.52-.02-.88,.35-.9,.83-.02,.48,.35,.87,.82,.9"/>
    <path class="cls-5" d="M1686.3,152.46s.08,0,.18,0c.79,0,3.95-.13,5.89-2.06,.34-.34,.34-.88,0-1.22-.34-.34-.88-.34-1.22,0-1.64,1.64-4.75,1.56-4.78,1.56-.46-.02-.87,.36-.89,.83-.02,.48,.35,.87,.83,.89"/>
    <path class="cls-5" d="M1682.19,166.4c.06,0,.59,.09,1.47,.09,1.43,0,3.75-.22,6.32-1.37,.43-.2,.63-.7,.43-1.14-.19-.43-.7-.63-1.14-.44-3.63,1.62-6.78,1.15-6.81,1.15-.48-.08-.91,.24-.99,.71-.08,.47,.24,.91,.71,.99"/>
    <path class="cls-5" d="M1728.83,246.26c-6.34-2.98-12.75-2.28-18.55,2.03-1.27,.94-2.37,1.95-3.3,2.92,.46-3.19-.84-4.9-.93-5.01-1.97-2.43-4.72-2.98-7.37-2.67,1.3-1.47,1.56-2.6,1.58-2.66,.62-2.22,.46-4.14-.49-5.72-.32-.53-.7-.98-1.1-1.35,3.91-.19,7.55-1.22,10.86-3.07,5.6-3.14,9-9.37,8.66-15.88-.7-13.61-14.07-14.23-14.18-14.23h0c-9.07-1.21-14.59,3.59-17.35,7.09-.38-3.61-3.44-4.8-3.54-4.83-7.02-1.86-10.85,2.44-12.57,5.34-1.04-2.77-3.43-4.69-6.68-5.23-3.86-.64-8.99,.98-11.11,6.04-1.15,2.75-1.22,5.18-.21,7.22,.74,1.5,1.94,2.5,3.02,3.16-.88,1.03-2.14,2.87-2.23,5.07-.03,.76,.08,1.49,.33,2.2-2.44-.82-6.07-1.3-9.15,1.34-2.09,1.79-3.24,4.35-3.24,7.22,0,.65,.07,1.31,.18,1.95-4.7-1.76-18.52-6.21-25.09-.11-4.28,3.97-4.85,8.1-4.56,10.86,.3,2.92,1.65,5.45,3.27,7.22-4.85-.35-9.97,.38-13.69,1.36-3.02,.79-7.36,3.34-9.65,7.91-2.07,4.15-2.02,9.15,.14,14.48,3.27,8.03,12.28,11.4,22.35,11.4,5.54,0,11.4-1.02,16.8-2.85,11.94-4.04,12.72-15.33,12.7-18.49,5.81-.84,9.97-3.04,12.38-6.54,1.99-2.89,2.33-6.02,2.27-8.14,1.46,.74,3.32,.83,4.61,.78-.57,1.45-.94,3.04-.88,4.67,.12,3.03,1.74,5.54,4.71,7.26,5.13,2.97,9.62,1.75,12.56,.13-1.29,2.72-2.47,6.55-1.55,10.36,.89,3.65,3.53,6.54,7.86,8.61,3.01,1.43,5.82,2.16,8.39,2.16,1.6,0,3.1-.28,4.51-.83,3.56-1.4,5.51-4.19,6.35-5.7,4.51,3.35,9.1,4.69,13.66,3.98,8.26-1.29,13.35-8.82,13.55-9.13,4.79-6.84,6.53-13.23,5.19-18.99-1.76-7.55-8.18-11.15-8.5-11.33Zm1.89,29.34c-.05,.07-4.89,7.23-12.4,8.4-4.34,.67-8.76-.76-13.15-4.27-.21-.17-.49-.23-.76-.16-.26,.07-.48,.26-.58,.51-.02,.04-1.68,4.1-5.89,5.75-3.21,1.26-7.09,.82-11.51-1.28-3.84-1.83-6.16-4.34-6.92-7.45-1.48-6.08,3.43-12.64,3.47-12.71,.28-.37,.22-.89-.14-1.19-.36-.3-.88-.26-1.19,.09-.06,.07-6.17,6.72-13.97,2.21-2.46-1.43-3.76-3.39-3.85-5.83-.15-3.94,2.85-8.11,4.5-9.24,.39-.27,.49-.8,.22-1.2-.27-.39-.8-.49-1.2-.23-.97,.67-2.4,2.24-3.53,4.27-1.67,.19-5.04,.18-5.81-1.66-.18-.42-.64-.63-1.07-.49-.43,.14-.67,.59-.57,1.03,.01,.05,1.2,5.08-1.72,9.31-2.23,3.22-6.25,5.21-11.94,5.89-.46,.06-.8,.47-.76,.94,.01,.13,1.09,13.26-11.51,17.53-11.52,3.9-31.76,5.3-37-7.57-2-4.92-2.07-9.31-.2-13.06,2.03-4.05,5.87-6.31,8.54-7.02,4.5-1.18,11.76-2.06,17.4-.65,1.36,.34,2.58,.8,3.63,1.37,.42,.23,.94,.07,1.17-.35,.23-.42,.07-.94-.35-1.17-1.18-.64-2.53-1.15-4.03-1.52-.48-.12-.97-.22-1.47-.31-2.06-1.3-4.28-4.17-4.65-7.78-.24-2.37,.26-5.93,4.02-9.42,6.47-6,22.02-.07,24.47,.92,.57,1.52,1.42,2.87,2.5,3.8,.16,.14,.36,.21,.56,.21,.24,0,.48-.1,.65-.3,.31-.36,.27-.91-.09-1.22-1.58-1.36-2.64-3.98-2.64-6.51,0-1.67,.46-4.05,2.64-5.92,4.16-3.57,9.6-.08,9.84,.07,.36,.24,.85,.16,1.13-.17s.26-.83-.04-1.15c-1.04-1.09-1.55-2.27-1.5-3.51,.08-1.94,1.44-3.63,2.11-4.35,.44,.17,.74,.25,.78,.26,.46,.12,.93-.16,1.05-.62,.12-.46-.16-.93-.62-1.05-.01,0-.44-.12-1.04-.39,0,0,0,0-.01,0-1-.46-2.47-1.36-3.24-2.92-.78-1.57-.7-3.52,.25-5.79,1.76-4.2,6.02-5.54,9.24-5.01,2.62,.43,5.52,2.3,5.79,6.22,.03,.41,.35,.75,.76,.8,.41,.05,.8-.2,.92-.59,.12-.36,2.97-8.86,11.54-6.6,.15,.06,3.66,1.43,1.87,6.67-.15,.44,.07,.91,.5,1.08,.43,.17,.92-.03,1.1-.45,.05-.11,5.09-11.17,17.8-9.48,.49,.02,11.97,.57,12.6,12.6,.31,5.86-2.75,11.46-7.78,14.28-3.96,2.22-8.46,3.17-13.37,2.81-.44-.03-.85,.29-.91,.73-.07,.45,.22,.87,.66,.97,.02,0,2.17,.53,3.23,2.31,.69,1.15,.79,2.62,.29,4.4,0,.03-.55,2.07-3.88,4.16-1.07,.43-2.01,.94-2.75,1.42-.38,.24-.5,.73-.29,1.13,.21,.4,.69,.57,1.1,.39,.99-.43,1.86-.87,2.61-1.32,2.64-1.09,6.8-2.06,9.33,1.07,.02,.03,2.1,2.79-1.25,8.39,0,0,0,.01,0,.01-.24,.41-.11,.94,.3,1.18,.41,.24,.94,.11,1.18-.3h0s2.37-3.93,6.42-6.92c5.32-3.93,10.96-4.54,16.7-1.85,.06,.03,6.02,3.37,7.61,10.18,1.23,5.26-.43,11.18-4.93,17.62Z"/>
    <path class="cls-5" d="M1679.36,223.79c-1.91,.17-2.81-.3-3.13-.52-.07-.07-.15-.14-.23-.2-.34-.29-.84-.28-1.16,.03-.32,.3-.36,.8-.09,1.15,.03,.04,.14,.17,.35,.34,1.2,1.18,.97,2.27,.96,2.31-.11,.42,.11,.86,.51,1.02,.1,.04,.21,.06,.32,.06,.31,0,.6-.16,.76-.45,.72-1.34,2.16-2.1,2.17-2.11,.37-.19,.55-.61,.43-1.01-.12-.4-.5-.66-.9-.62"/>
    <path class="cls-5" d="M1826.77,199.61c-3.67-.76-7.82-.62-11.91,.36,.2-.42,.36-.87,.44-1.33,.24-1.34-.12-2.61-1.06-3.77-2.22-2.76-5.56-2.76-7.96-2.29,.63-1.06,1.05-2.28,1.14-3.73,3.59,.73,8.93,.27,9.5,.18,8.44-1.32,17.07-8.39,16.3-17.51-.57-6.68-5.85-12.8-12.85-14.88-1.87-.56-4.07-.8-6.34-.73,2.86-2.22,5.14-5.53,6.32-9.35,1.47-4.79,.89-9.52-1.58-12.97-4.93-6.88-13.67-6.96-20.22-4.74-3.99,1.35-7.3,3.61-10.55,7.21-.63-3.3-2.4-5.86-5.24-7.45-3.69-2.07-8.79-2.41-13-.89-3.35,1.21-5.81,3.5-6.92,6.43-1.31,3.43-1.28,6.66,.09,9.63,.69,1.5,1.68,2.8,2.79,3.93-1.19,.85-2.25,1.94-3.04,3.17-1.56,2.42-1.95,5.59-1.09,8.7,.9,3.24,3.04,5.97,5.75,7.34-1.47,.73-2.53,1.75-3.13,3.09-.53,1.16-.64,2.4-.55,3.54-3.79-1.8-13.6-5.15-20.54,4.12-2.45,3.27-3.46,7.67-2.64,11.49,.84,3.91,3.79,7.04,8.32,8.82,2.27,.89,4.81,1.41,7.38,1.5-1.33,1.39-1.95,3.36-1.64,5.63,.21,1.53,.88,3.09,1.94,4.33-11,.54-24.26,3.18-29.51,12.19-3.4,5.83-1.91,13.65,3.44,18.21,3.72,3.16,9.08,4.94,14.68,4.94,.81,0,1.62-.04,2.43-.11,3.94-.36,8.92-1.37,13.86-3.15-.47,.85-.83,1.81-1.03,2.85-.59,3.01,.12,6.26,1.84,8.47,1.12,1.44,2.55,2.36,4.11,2.88-3.18,2.35-5.93,5.33-7.83,8.53-2.66,4.46-3.22,10.17-1.54,15.65,1.77,5.77,5.81,10.61,10.81,12.94,5.07,2.38,10.53,3.54,15.86,3.54,7.73,0,15.2-2.44,20.83-7.17,6.11-5.13,10.04-12.18,10.51-18.87,.57-7.99-4.28-14.8-9.71-17.26,4-1.73,6.81-5.09,7.75-9.58,.87-4.11,.26-8.57-2.15-11.34,9.91,1.38,17.81-.19,23.5-4.68,7.18-5.66,8.08-14.23,2.31-21.84-2.34-3.08-5.76-5.16-9.89-6.01Zm6.51,26.5c-6.14,4.84-15.12,6.02-26.72,3.51,0,0,0,0,0,0-.46-.09-.92,.2-1.03,.66-.1,.46,.2,.92,.66,1.02,5.35,1.16,6,7.7,5.13,11.82-1.21,5.71-5.91,9.35-12.28,9.49-.48,.01-.85,.4-.84,.88,.01,.47,.4,.84,.86,.84h.02c1.18-.03,2.29-.17,3.36-.4,6.76,1.28,11.28,9.59,10.8,16.25-.44,6.23-4.15,12.84-9.9,17.68-9.02,7.57-23.03,8.93-34.86,3.4-4.56-2.13-8.26-6.58-9.89-11.89-1.54-5.02-1.04-10.22,1.37-14.26,2.05-3.44,5.13-6.61,8.7-8.94,.29,.02,.58,.04,.87,.04,2.25,0,4.56-.66,6.5-1.76,.41-.24,.56-.76,.32-1.18-.24-.41-.77-.56-1.18-.32-3.69,2.1-8.86,2.36-11.62-1.18-1.43-1.84-2.01-4.55-1.51-7.08,.41-2.11,1.51-3.77,3.1-4.68,.02-.01,.02-.03,.04-.03,3.29-1.48,6.43-3.33,9.07-5.59,.36-.31,.4-.86,.09-1.22-.31-.36-.86-.4-1.22-.09-5.95,5.1-16.06,8.97-25.77,9.86-6,.56-11.92-1.1-15.83-4.43-4.66-3.95-6-10.99-3.07-16.02,5.16-8.86,19.1-11.1,29.99-11.41,.96,.54,2.07,.87,3.32,.87,.09,0,.18,0,.26,0,.47-.02,.85-.42,.83-.89-.02-.48-.42-.84-.89-.83-3.23,.12-5.37-2.67-5.73-5.36-.3-2.2,.52-4.82,3.7-5.57,0,0,0,0,.01,0,4.26-.6,8.2-2.57,10.56-6.28,.26-.4,.14-.93-.26-1.19-.4-.26-.93-.14-1.19,.26-3.96,6.22-13.07,6.85-19.63,4.28-2.3-.9-6.31-3.08-7.27-7.57-.71-3.35,.18-7.22,2.34-10.1,3.25-4.33,7.54-6.14,12.75-5.38,3.29,.48,5.95,1.88,6.79,2.36,.35,1.25,.8,2.12,.84,2.2,.15,.3,.46,.46,.76,.46,.14,0,.27-.03,.4-.1,.42-.22,.58-.74,.36-1.17-.01-.02-.47-.91-.78-2.13,0,0,0-.02,0-.02-.31-1.24-.46-2.83,.16-4.21,.63-1.39,1.99-2.36,4.05-2.88,1.29,.35,2.65,.54,4.05,.54,.86,0,1.73-.07,2.59-.2,.47-.08,.79-.52,.71-.99-.08-.47-.52-.79-.99-.71-2.82,.45-5.75,.07-8.03-1.06-2.3-1.14-4.15-3.49-4.92-6.29-.73-2.64-.41-5.3,.88-7.3,.74-1.15,1.76-2.16,2.9-2.91,2.86,2.37,6.18,3.76,7.92,4.39,.1,.03,.2,.05,.29,.05,.35,0,.69-.22,.81-.57,.16-.45-.07-.94-.52-1.1-2.55-.91-8.72-3.57-11.04-8.61-1.16-2.52-1.18-5.31-.04-8.29,1.2-3.15,3.87-4.69,5.9-5.43,3.75-1.36,8.3-1.06,11.57,.77,3.59,2.01,4.49,5.47,4.61,8.02,.11,2.43-.41,5.22-1.47,7.85-.18,.44,.03,.95,.47,1.12,.44,.18,.95-.03,1.12-.48,1.11-2.73,1.67-5.63,1.61-8.22,3.38-4.07,6.73-6.53,10.85-7.92,5.96-2.02,13.88-2,18.26,4.12,2.16,3.02,2.65,7.19,1.34,11.46-1.51,4.9-4.99,8.88-9.09,10.4-3.78,.82-7.3,2.55-9.35,5.22-.29,.38-.22,.92,.16,1.21,.38,.29,.92,.22,1.21-.16,3.52-4.6,12.54-6.13,18.25-4.44,6.34,1.88,11.11,7.38,11.62,13.37,.53,6.33-4.99,14.12-14.85,15.66-.86,.13-6.89,.54-9.82-.4-.27-.09-.56-.04-.79,.14-.23,.17-.35,.44-.34,.73,.13,2.75-1.03,4.61-2.58,5.86-.02,.02-.05,.03-.07,.06-2.67,2.12-6.44,2.48-6.69,2.5-.47,.04-.83,.46-.79,.93,.04,.45,.42,.79,.86,.79,.02,0,.05,0,.07,0,2.13-.18,5.24-1.01,7.6-2.89,.53-.23,6.01-2.5,8.77,.92,.62,.77,.85,1.55,.7,2.38-.43,2.43-3.79,4.49-3.83,4.5-.41,.25-.54,.78-.29,1.18,.16,.27,.45,.42,.74,.42,.15,0,.31-.04,.45-.12,.09-.06,1.41-.86,2.63-2.13,4.46-1.4,9.12-1.71,13.13-.88,3.72,.77,6.78,2.63,8.86,5.37,5.23,6.89,4.47,14.34-2,19.44Z"/>
    <path class="cls-5" d="M1445.67,213.31c1.67,2.16,4.4,3.42,8.11,3.75,.39,.04,.77,.05,1.15,.05,1.91,0,3.71-.44,5.26-1.29,2.83-1.54,6.08-4.93,5.86-12.24,6.03-3.06,6.81-6.75,6.36-9.35-.54-3.11-3.1-5.57-6.39-6.12-2.93-.49-5.1,.02-6.7,.91,.71-3.31-.07-6.73-2.2-9.43-2.58-3.25-6.62-4.87-10.79-4.31-5.78,.77-9.35,4.45-11.32,7.41-1.72,2.57-2.78,5.68-3.06,9.01-.37,4.27-.07,10.01,3.47,13.16,2.41,2.14,4.98,2.79,7.19,2.79,.46,0,.9-.03,1.33-.08-.05,1.15,.08,3.58,1.74,5.73m-9.12-9.73c-3.16-2.81-3.17-8.55-2.9-11.72,.26-3.03,1.22-5.87,2.78-8.2,1.78-2.66,4.98-5.98,10.12-6.66,3.57-.48,7.01,.9,9.21,3.67,2.13,2.69,2.67,6.22,1.44,9.45-.15,.39-.31,.78-.5,1.18-1.07,1.39-1.44,2.69-1.45,2.73-.11,.41,.1,.85,.49,1.02s.85,.03,1.08-.34c.54-.87,1.01-1.74,1.4-2.59,1.23-1.47,3.5-2.97,7.51-2.3,2.56,.43,4.56,2.32,4.97,4.72,.52,3.02-1.47,5.63-5.91,7.76,0,0,0,0,0,0h0c-.81,.39-1.72,.76-2.7,1.12-.45,.16-.68,.65-.52,1.1,.16,.45,.65,.68,1.11,.52,.58-.21,1.13-.43,1.67-.65-.03,5.93-2.68,8.67-4.98,9.93-1.56,.85-3.43,1.21-5.43,1.03-3.2-.29-5.51-1.32-6.88-3.07-1.63-2.09-1.42-4.6-1.37-5.01,1.68-.43,2.77-1.05,2.8-1.06,.41-.24,.55-.77,.31-1.18s-.77-.55-1.18-.31c-.24,.14-6,3.38-11.06-1.12"/>
    <path class="cls-5" d="M1254.1,245.15c-3.41,3.06-6.81,3.17-7.08,3.18-.01,0-.02,0-.03,0-.47,0-.86,.38-.86,.85,0,.47,.37,.86,.85,.87h.06c3.06,.02,4.55,2.85,4.61,2.97,.15,.3,.45,.47,.77,.47,.08,0,.16,0,.23-.03,.4-.11,.66-.49,.63-.9-.31-3.88,1.91-6.05,2-6.14,.34-.32,.36-.86,.04-1.21-.32-.35-.86-.37-1.21-.05Zm-7.11,4.04h0Zm4.65,1.05c-.33-.31-.71-.62-1.15-.9,.48-.18,.99-.39,1.52-.66-.15,.47-.29,1-.37,1.56Z"/>
    <path class="cls-5" d="M1185.38,190.31h0c-5.61-2.21-10.87-.2-14.81,2.47,.07-.78,0-1.58-.21-2.4-.68-2.64-2.77-4.74-5.61-5.61-3.48-1.07-7.22,.26-10.16,1.92,1.33-3.68,.07-7.46-1.69-9.36-1.34-1.44-3.11-2.52-5.27-3.2-10.86-3.41-19.58,1.78-25.94,15.43-.54-.26-1.16-.45-1.59-.58-5.81-1.59-8.61,1.45-10.69,4.48-.61-.79-1.46-1.36-2.45-1.65-1.99-.57-4.01-.46-6.03,.35,5.33-8.71,3.66-13.97,1.11-16.93-2.6-3.02-6.92-4.3-11-3.28-17.36,4.35-19.49,20.1-19.61,26.68-1.14-1.31-2.85-2.79-5.09-3.45-2.41-.71-4.94-.32-7.51,1.15-2.52,1.44-4.01,3.34-4.43,5.65-.57,3.18,1.08,6.26,2.08,7.78-4.53,1.84-10.19,7.02-12.68,13.36-1.93,4.91-1.65,9.66,.8,13.75,1.64,2.73,4.35,4.52,7.84,5.18,4.58,.87,10.1-.37,14.52-3.19-.07,2.06,.15,3.94,.67,5.62,1.29,4.14,5.28,6.85,9.57,6.85,.89,0,1.8-.12,2.7-.37,6.29-1.73,9.71-5.76,11.57-9.63,.42,1.29,1.11,2.37,2.07,3.23,2.9,2.59,7.15,2.13,7.26,2.12,7.72-.34,11.44-5.64,13.9-9.19,1.59,2.25,4.5,3.39,7.37,2.74,2.94-.66,5.3-2,7.03-3.99,.38,1.01,1.01,1.9,1.88,2.63,1.64,1.4,4.42,1.78,6.31,1.53,8.4-1.09,12.36-6.27,14.18-10.2,1.12,5.84,5.21,7.84,8.82,8.44,5.01,.82,10.32-.99,14.17-4.87,6.36-6.38,7.05-14.95,6.81-19.93,9.06-2.58,10.91-8.81,10.84-13.64-.06-4.43-2.7-8.32-6.72-9.9Zm-5.24,22.06c-.41,.1-.68,.48-.65,.9,.39,5.55-.38,13.4-6.27,19.3-3.46,3.48-8.2,5.12-12.67,4.38-5.46-.9-8.03-4.73-7.63-11.4,.03-.46-.32-.86-.78-.91-.46-.04-.88,.29-.94,.75-.06,.48-1.68,11.7-14.16,13.32-1.53,.2-3.79-.13-4.97-1.13-.97-.83-1.52-1.91-1.67-3.21,.45-.89,1.82-3.88,2.31-8.05,.05-.47-.28-.9-.76-.96-.47-.06-.9,.28-.96,.76-.51,4.37-2.1,7.41-2.23,7.66-1.52,2.46-3.9,4.06-7.09,4.78-2.41,.54-4.83-.56-5.91-2.62,.77-1.17,2.74-4.56,3.86-9.95,.1-.47-.2-.92-.67-1.02-.47-.1-.92,.2-1.02,.67-1.29,6.25-3.83,9.68-3.86,9.71,0,0,0,0,0,0h0c-.24,.34-.49,.71-.76,1.09-2.4,3.46-5.69,8.21-12.66,8.51-.04,0-3.65,.39-5.98-1.69-1.32-1.18-1.98-2.97-1.97-5.31,0-.43-.31-.79-.73-.86-.42-.07-.83,.19-.95,.6-1.27,4.19-4.31,9.6-11.58,11.59-4.32,1.19-8.88-1.2-10.16-5.33-.6-1.94-.76-4.21-.47-6.76,.04-.35-.13-.68-.43-.85-.13-.07-.28-.11-.42-.11-.19,0-.37,.06-.53,.18-4.25,3.27-10,4.82-14.67,3.93-2.99-.57-5.3-2.08-6.68-4.38-2.74-4.56-1.88-9.17-.68-12.23,2.51-6.4,8.43-11.5,12.7-12.73,.28-.08,.5-.3,.58-.58,.09-.28,.03-.58-.16-.8-.03-.04-3.08-3.77-2.43-7.37,.32-1.78,1.53-3.28,3.58-4.45,2.15-1.23,4.22-1.56,6.16-1,3.65,1.07,5.75,4.98,5.77,5.02,.19,.37,.62,.55,1.02,.42,.4-.12,.65-.51,.6-.92-.03-.23-2.34-22.57,18.22-27.73,3.46-.86,7.1,.2,9.27,2.73,3.5,4.06,2.35,10.26-3.33,17.94h0s0,0,0,0c-.03,.04-3.08,4.2-6.53,6.42-.4,.26-.52,.79-.26,1.19,.17,.26,.44,.4,.73,.4,.16,0,.32-.04,.47-.14,3.45-2.22,6.38-6.03,6.91-6.73,2.65-2.02,5.26-2.68,7.77-1.96,.78,.22,1.41,.72,1.79,1.39,.09,.16,.17,.33,.25,.52,.12,.49,.86,4.5-4.27,7.65-.41,.25-.53,.78-.29,1.19,.16,.27,.45,.41,.74,.41,.15,0,.31-.04,.45-.13,5.57-3.42,5.33-7.86,5.11-9.22,2.46-3.69,4.53-5.97,9.37-4.64,.75,.21,1.6,.57,1.76,.72,.02,.03,.05,.05,.08,.07,0,.01,.01,.02,.02,.03,.02,.02,2.41,2.2,.34,6.83-.19,.43,0,.95,.43,1.14,.12,.05,.23,.08,.35,.08,.33,0,.64-.19,.79-.51,2.02-4.5,.5-7.27-.33-8.33,5.96-13.02,14.04-18.04,24.03-14.9,1.87,.59,3.39,1.5,4.52,2.72,1.48,1.59,3.4,6.46-.53,10.54-.31,.32-.32,.84-.02,1.17,.3,.34,.81,.38,1.17,.11,2.63-2.03,7.69-5.24,12-3.91,2.26,.7,3.92,2.34,4.45,4.39,.36,1.39,.17,2.7-.54,3.87-.22,.36-.15,.82,.17,1.1,.32,.28,.79,.28,1.12,.01,3.69-3.06,9.35-6.22,15.31-3.88,3.37,1.33,5.58,4.6,5.63,8.32,.06,4.33-1.67,9.96-10.24,12.13Z"/>
    <path class="cls-5" d="M1307.97,185.56c-1.56-4.65-6.37-6.81-6.53-6.87-.17-.08-3.06-1.52-8.37-1.53,5.92-2.67,8.9-5.89,8.84-9.61-.04-2.48-.92-4.5-2.62-6-2.37-2.08-5.84-2.7-8.47-2.85,2.1-1.48,3.79-3.52,4.49-6.34,.69-2.77,.36-5.2-.95-7.21-1.4-2.13-3.61-3.34-5.3-3.99,.97-.48,1.58-.84,1.76-.95,8.41-3.95,8.89-8.99,7.81-12.52-.85-2.77-2.9-5.1-5.79-6.55-9.4-4.73-17.99-1.03-23.76,3.18,.54-1.67,.97-3.9,.85-6.71-.14-3.47-2.62-6.07-4.88-6.75-1.79-.54-4.67-.64-6.75,.41-2.82,1.43-4.97,3.24-6.61,5.21,.03-1.53-.21-3.34-1.13-5.02-1.3-2.37-3.62-3.97-6.92-4.75-10.79-2.56-16.78,6.49-16.87,6.64-.12,.21-2.78,5.18-1.36,9.84-3-.74-7.92-.61-11.99,.85-3.62,1.3-8.05,4.14-8.61,10.24-.3,3.25,.21,5.85,1.49,7.77-4.17,.47-9.97,2.83-10.18,9.7-.06,1.91,.48,3.51,1.58,4.77-5.64,1-13.67,5.42-13.46,17.28,.15,8.35,7.37,12.08,14.48,12.08h.07c2.78-.01,5.62-.59,8.14-1.7-.67,1.13-1.13,2.47-1.36,4.01-.54,3.57,.16,6.39,2.06,8.36,.41,.43,.87,.79,1.34,1.11-2.71,.63-6.82,2.13-9.82,5.65-2.92,3.43-4.12,7.99-3.56,13.56,1.06,10.47,8.07,14.02,13.77,15.16,1.51,.3,3.06,.45,4.62,.45,2.81,0,5.68-.48,8.48-1.45,5.38-1.85,12.62-5.46,17.1-12.12,.4,.76,.93,1.53,1.66,2.26,2.08,2.07,5.11,3.12,9.02,3.12,.05,0,.1,0,.15,0,7.63-.05,10.97-4.53,12.41-7.95,1.26,.93,3.66,2.24,7.21,2.24,1.8,0,3.89-.33,6.27-1.21,7.96-2.94,9.38-11.57,9.63-14.46,1.43,.13,4.34,.28,7.64-.22,6.17-.94,10.72-3.74,13.14-8.1,1.78-3.2,2.21-6.23,1.27-9.01Zm-2.78,8.17c-5.24,9.43-19.81,7.36-19.96,7.34-.25-.03-.5,.04-.69,.2-.19,.16-.3,.4-.3,.65,0,.1-.12,10.69-8.55,13.81-7.08,2.62-11.1-.1-12.28-1.12,.36-1.23,.45-2.09,.45-2.12,.04-.47-.31-.89-.78-.93-.47-.03-.89,.31-.93,.78-.01,.11-.09,.88-.4,1.95-.14,.18-.21,.39-.19,.61-1.04,3.01-3.82,7.6-11.17,7.65-10.04,.1-10.19-7.39-10.19-7.72,0-.48-.39-.86-.86-.86s-.86,.38-.86,.86c0,.07,.01,.97,.36,2.19-.09,.06-.16,.14-.23,.24-4.16,6.71-11.37,10.3-16.69,12.13-4.06,1.4-8.27,1.72-12.2,.93-7.46-1.49-11.62-6.08-12.39-13.64-.51-5.08,.54-9.2,3.14-12.26,3.94-4.63,10.28-5.4,11.29-5.5,1.72,.52,3.42,.64,4.59,.64,.83,0,1.38-.06,1.46-.07,.47-.05,.81-.48,.76-.95-.05-.47-.48-.81-.95-.76-.06,0-5.77,.61-8.72-2.44-1.51-1.57-2.05-3.89-1.59-6.91,.39-2.58,1.5-4.47,3.29-5.6,4.03-2.54,10.3-.65,10.37-.63,.46,.14,.94-.12,1.08-.57,.14-.46-.11-.94-.57-1.08-.23-.07-4.8-1.45-9.04-.35,1.66-1.96,2.7-4.39,2.74-7.3,0-.48-.38-.87-.85-.87-.47,.01-.87,.38-.87,.85-.08,7.28-7.6,11.23-14.64,11.25h-.08c-9.27,0-12.66-5.59-12.74-10.38-.25-14.26,11.9-15.62,13.67-15.75,2.34,1.3,5.24,1.53,6.85,1.53,.69,0,1.14-.04,1.2-.04,.47-.04,.82-.46,.78-.93-.04-.47-.45-.82-.93-.78-.05,0-5.55,.45-8.24-2.09-1.03-.97-1.51-2.25-1.46-3.89,.23-7.49,8.24-8.08,9.92-8.12,2.04,1.7,4.67,2.09,6.66,2.09,1.61,0,2.8-.25,2.9-.28,.47-.1,.76-.56,.65-1.03-.1-.46-.56-.76-1.03-.65-.05,.01-5.2,1.11-8.22-1.56,0,0-.02-.02-.02-.02,0,0,0-.01-.01-.01-1.76-1.58-2.49-4.2-2.16-7.78,.47-5.2,4.33-7.64,7.48-8.77,5.58-2.01,11.5-1.11,12.48-.2,.98,1.46,2.43,2.64,4.35,3.51,.12,.05,.24,.08,.36,.08,.33,0,.64-.19,.79-.51,.2-.43,0-.95-.43-1.14-2.29-1.04-3.78-2.56-4.44-4.52-1.34-4.01,1.14-8.66,1.14-8.66,.22-.33,5.41-8.12,15-5.84,2.8,.67,4.75,1.97,5.8,3.89,1.8,3.29,.42,7.37,.41,7.41-.01,.04,0,.08-.02,.12-2.52,4.6-2.91,9.34-2.93,11.68-1.22-.49-3.12-.99-5.19-.53-2.16,.48-3.99,1.89-5.43,4.18-4.64,7.39,.09,11.97,.14,12.01,.16,.16,.38,.23,.59,.23,.23,0,.46-.09,.63-.27,.33-.35,.31-.89-.04-1.22-.04-.03-3.75-3.63,.14-9.84,1.18-1.88,2.64-3.03,4.33-3.41,2.73-.61,5.24,.96,5.27,.98,.27,.18,.63,.18,.92,.01s.44-.49,.41-.82c-.06-.56-1.25-13.86,10.81-19.98,1.37-.7,3.73-.82,5.47-.3,1.45,.43,3.53,2.33,3.65,5.17,.25,6-2.24,9.12-2.27,9.17-.01,.02-.02,.04-.03,.05-2.63,2.37-4.17,4.37-4.22,4.43-.29,.38-.21,.92,.17,1.21,.38,.29,.92,.21,1.21-.17,.13-.18,13.48-17.5,28.99-9.69,2.46,1.24,4.21,3.2,4.91,5.51,1.28,4.2-1.05,7.72-6.94,10.48-.03,.01-.06,.03-.09,.05-.06,.03-5.74,3.53-13.57,4.4-.47,.05-.81,.48-.76,.95,.05,.44,.42,.77,.86,.77,.03,0,.06,0,.1,0,4.11-.46,7.6-1.57,10.11-2.6,.94,.21,4.49,1.18,6.24,3.87,1.04,1.59,1.28,3.56,.72,5.85-2.24,9.04-17.35,8.94-17.5,8.93-.51,.01-.87,.37-.87,.85,0,.48,.37,.87,.85,.87h.18c1.09,0,6.48-.11,11.3-2.13,1.09-.1,7.3-.5,10.58,2.38,1.34,1.18,2,2.72,2.03,4.72,.07,4.41-5.94,7.48-10.99,9.29-5.67,2.03-11.45,2.92-11.51,2.93-.47,.07-.79,.51-.72,.98,.07,.43,.43,.73,.85,.73,.04,0,.09,0,.13-.01,.19-.03,3.85-.6,8.26-1.87,9.24-1.95,14.39,.57,14.49,.62,.04,.02,4.32,1.94,5.64,5.87,.77,2.3,.39,4.86-1.15,7.62Z"/>
    <path class="cls-5" d="M1244.56,161.89c.06,0,.46,.06,1.12,.06,1.61,0,4.71-.33,7.54-2.53,.57-.44,.67-1.25,.23-1.81-.44-.57-1.25-.67-1.81-.23-3.07,2.38-6.64,1.96-6.72,1.95-.7-.09-1.36,.4-1.46,1.1-.1,.71,.4,1.36,1.1,1.46Z"/>
    <path class="cls-5" d="M1252.91,172.11c-.44-.57-1.25-.67-1.81-.23-3.07,2.38-6.64,1.96-6.72,1.95-.71-.09-1.36,.4-1.46,1.1-.1,.71,.4,1.36,1.1,1.46,.05,0,.46,.06,1.11,.06,1.61,0,4.71-.33,7.54-2.53,.57-.44,.67-1.25,.23-1.81Z"/>
    <path class="cls-5" d="M1253.88,188.64c-3.09,2.39-6.67,1.95-6.72,1.95-.71-.1-1.36,.4-1.46,1.1-.1,.71,.39,1.36,1.1,1.46,.05,0,.46,.06,1.11,.06,1.61,0,4.71-.33,7.54-2.53,.56-.44,.67-1.25,.23-1.81-.44-.57-1.25-.67-1.81-.23Z"/>
    <path class="cls-5" d="M1329.04,265c-2.24-5.88-6.88-9.11-13.08-9.11h-.12c-5.51,.04-11.61,2.86-14.07,6.26-1.3-2.04-3.5-3.49-6.08-3.9-4.82-.76-8.23,1.67-10.48,4.38-.17-1.44-.69-2.9-1.55-4.34-.43-.71-.91-1.36-1.38-1.92,4.51,.99,11.19,1.3,15.84-.94,3-1.44,4.89-3.73,5.63-6.79,.77-3.22,.36-5.9-1.22-7.97-1.15-1.51-2.74-2.46-4.27-3.06,10.24-2.23,13.05-8.16,13.51-13.05,.65-7.06-3.68-13.85-10.53-16.52-6.95-2.7-13.24-.37-17.23,2-.77,1.62-1.85,3.24-3.34,4.62,.04-.03,.09-.05,.13-.09,.09-.09,9.31-9.01,19.81-4.92,6.14,2.39,10.02,8.46,9.44,14.76-.66,7.15-6.25,11.25-16.61,12.19-.45,.04-.8,.43-.78,.88,.01,.46,.38,.82,.83,.84,.05,0,5.27,.23,7.68,3.4,1.24,1.64,1.55,3.83,.9,6.52-.61,2.54-2.19,4.44-4.7,5.64-5.61,2.7-14.81,1.28-17.96-.2-.4-.19-.88-.04-1.11,.34-.23,.38-.12,.88,.24,1.14,.02,.02,2.16,1.58,3.64,4.03,1.25,2.08,1.64,4.13,1.17,6.13-1.06,1.83-1.56,3.3-1.57,3.34-.13,.41,.05,.85,.43,1.04,.12,.06,.26,.09,.39,.09,.27,0,.54-.13,.7-.36,.81-1.14,1.37-2.33,1.68-3.52,.37-.63,.81-1.29,1.33-1.94,2.55-3.21,5.62-4.56,9.1-4.01,2.57,.41,4.68,2.07,5.51,4.33,.45,1.24,.38,3.09-.53,4.04-.33,.35-.31,.89,.03,1.22,.35,.33,.89,.31,1.22-.03,1.34-1.41,1.51-3.74,1-5.46,1.32-2.99,7.21-6.39,13.19-6.43h.11c3.87,0,8.96,1.4,11.47,8,5.2,13.63-7.11,20.89-7.61,21.18-18.18,9.62-28.09-2.18-28.5-2.68-.18-.22-.46-.34-.74-.31-.28,.02-.54,.18-.68,.43-4.67,8.2-10.35,6.46-10.58,6.38-.06-.02-.12-.03-.18-.04-3.14-.36-5.35-1.53-6.57-3.47-2.28-3.62-.49-8.88-.47-8.93,.15-.43-.06-.9-.48-1.08-.42-.18-.9,0-1.11,.4-1.9,3.76-4.6,3.45-4.7,3.44-.45-.07-.87,.22-.97,.66-.1,.44,.15,.88,.58,1.02,.04,.01,3.75,1.22,4.76,4.02,.55,1.54,.17,3.34-1.13,5.34-2.15,3.3-5.63,5.46-9.57,5.92-4.03,.47-8.08-.27-12.02-2.2-.37-.18-.82-.07-1.07,.26-.25,.33-.22,.8,.06,1.1,.06,.06,5.94,6.47,1.35,12.83-2.44,3.39-6.58,5.24-10.78,4.83-3.51-.35-7.3-1.73-11.25-4.11-.41-.25-.94-.12-1.18,.29-.25,.41-.12,.94,.29,1.18,1.61,.97,3.2,1.78,4.76,2.44-.03,.07-.06,.14-.07,.23-1.34,16.88-8.76,22.66-8.86,22.74-9.02,7.45-23,16.42-38.42,16.83-9.19,.25-14.61-2.72-14.71-2.78-.1-.05-10.35-5.12-12.73-14.58-1.42-5.66,.22-11.8,4.88-18.24,16.63-23,43.02-13.56,43.28-13.46,.4,.15,.85-.02,1.05-.39,.21-.37,.11-.84-.23-1.1-.04-.03-3.63-2.84-4.05-6.94-.25-2.45,.67-4.9,2.73-7.29,1.69-1.96,3.68-3.04,5.91-3.21,4.57-.34,8.79,3.26,8.83,3.29,.31,.27,.78,.28,1.1,.03,.32-.26,.42-.71,.23-1.08-.01-.03-1.3-2.57-.24-5.35,.9-2.35,3.2-4.24,6.84-5.61,.44-.17,.67-.66,.5-1.11-.16-.45-.66-.67-1.1-.51-.13,.05-13.12,4.68-18.75-2.49-5.14-6.55-2.54-13.72-1.9-15.23,1.78-.75,3.33-1.6,4.57-2.55,.38-.29,.45-.83,.16-1.21-.29-.38-.83-.45-1.21-.16-1.2,.91-2.72,1.74-4.51,2.46-3.21,1.3-6.67,1.61-10.02,.9-13.65-2.88-11.62-14.05-11.53-14.5,.02-.08,1.94-8.15,9.19-12.63,2.85-1.76,6.13-2.75,9.82-2.97-.51-.49-1.01-1.02-1.46-1.61-3.44,.38-6.54,1.42-9.29,3.12-7.87,4.88-9.86,13.35-9.95,13.73-.03,.13-2.48,13.32,12.86,16.55,3.07,.65,6.23,.51,9.25-.38-.96,3.06-2.09,9.53,2.64,15.55,3.79,4.82,10.15,5.07,14.83,4.43-1.21,1.07-2.07,2.28-2.58,3.63-.59,1.56-.6,3.03-.43,4.2-1.87-1.13-4.79-2.46-7.98-2.23-2.71,.19-5.1,1.47-7.1,3.8-2.39,2.77-3.44,5.67-3.14,8.61,.25,2.38,1.34,4.34,2.41,5.74-7.75-1.82-28.21-4.33-42.15,14.95-4.98,6.88-6.71,13.5-5.15,19.69,2.58,10.25,13.2,15.48,13.6,15.68,.22,.13,5.41,2.99,14.41,2.99,.33,0,.67,0,1.01-.01,15.95-.38,30.34-9.58,39.56-17.2,.33-.25,8.03-6.17,9.5-23.7,1.91,.67,3.77,1.11,5.58,1.29,.45,.04,.89,.07,1.34,.07,4.34,0,8.47-2.07,11.02-5.6,3.48-4.84,1.88-9.65,.29-12.48,3.36,1.19,6.78,1.59,10.19,1.19,4.44-.52,8.38-2.96,10.81-6.7,.83-1.28,1.35-2.51,1.56-3.69,1.56,1.67,3.85,2.69,6.83,3.05,.89,.24,6.98,1.54,11.92-6.2,1.17,1.15,3.58,3.19,7.17,4.61,4.74,1.88,12.52,2.99,22.69-2.39,.14-.08,14.12-8.28,8.39-23.3Zm-59.35,18.1c-.43-.38-.89-.7-1.32-.97,.44-.2,.9-.48,1.36-.86-.05,.58-.07,1.19-.04,1.83Z"/>
    <path class="cls-5" d="M1407.47,195.41c-.81,.52-2.81,1.88-4.33,3.52-.14-.57-.38-1.1-.73-1.57-.69-.96-1.67-1.51-2.51-1.81,1.79-1.84,2.84-3.99,3.08-6.42,.5-5.09-1.7-8.09-3.64-9.72-1.78-1.49-4.18-2.35-6.94-2.48-.87-.04-1.69-.02-2.47,.04,.67-.62,1.28-1.31,1.78-2.09,1.8,0,3.56-.17,5.23-.51,4.79-.95,8.42-4.67,9.26-9.48,.53-3.03-.2-6.16-2.02-8.57-1.39-1.85-4.1-4.16-9.07-4.68-2.57-.27-4.92-.12-7.05,.34,1.69-1.7,3.14-3.89,4.11-6.71,2.48-7.26-.23-11.65-2.93-14.05-2.33-2.07-5.51-3.25-8.95-3.33-15.74-.37-21.75,15.06-23.36,20.45-2.88-3.44-7.23-4.46-7.49-4.52-.29-.06-7.13-1.45-12.33,2.06-2.8,1.89-4.57,4.84-5.25,8.75-.65,3.71,.04,6.81,2.03,9.21,2.04,2.46,5.08,3.73,7.66,4.38-.46,.34-.9,.79-1.21,1.39-.35,.66-.5,1.39-.46,2.19-1.67-.07-5.05-.08-8.84,.63-7.08,1.33-12.09,4.6-14.49,9.44-3.29,6.65-1.48,11.37,.62,14.16,2.06,2.73,5.33,4.38,8.97,4.52,.36,.02,.71,.02,1.06,.02,4.18,0,8.06-.98,11.58-2.91-.19,2.25,.04,6.03,2.98,8.63-14.35-.55-22.35,9.75-24.94,16.49-1.78,4.65-1.02,9.88,1.94,13.32,2.36,2.74,5.85,4.16,10.08,4.16,1.53,0,3.16-.19,4.87-.56,11.55-2.53,15.32-10.02,16.43-13.23,.46,.38,.93,.68,1.41,.93-1.74,1.59-3.38,4.52-1.56,8.36,.65,1.36,1.46,2.32,2.34,2.97-4.27,2.3-7.7,6.25-9.57,11.07-2.09,5.4-1.98,11.33,.29,16.26,3.46,7.53,10.77,10.5,18.36,10.5,3.65,0,7.37-.69,10.76-1.88,7.94-2.79,14.16-7.8,17.07-13.73,4.94-10.07,1.55-16.8,.3-18.75,2.62-.97,5.65-3.06,6.59-7.64,1-4.85-.15-7.9-1.66-9.77,.45,.04,.9,.08,1.36,.08,3.28,0,6.98-1.18,10.63-4.76,2.29,1.01,4.83,1.52,7.38,1.52,3.57,0,7.18-1,10.19-3.03,3.56-2.4,6-6.25,6.52-10.31,.46-3.53-.58-6.93-2.92-9.59-5.05-5.74-14.1-7.24-20.18-3.33Zm21.39,12.7c-.46,3.57-2.62,6.98-5.77,9.1-5.83,3.93-14.13,3.61-19.3-.75-.36-.31-.91-.26-1.21,.1-.31,.36-.26,.91,.1,1.21,.68,.58,1.42,1.08,2.19,1.53-5.06,4.66-10.13,4.3-13.71,2.99-.24-.1-.42-.16-.52-.2-2.85-1.15-4.72-2.85-4.74-2.87-.35-.32-.9-.3-1.22,.05-.32,.35-.3,.9,.05,1.22,.08,.08,2.12,1.93,5.28,3.21,.21,.08,.44,.16,.66,.24,1.48,.63,5.3,3.01,3.8,10.3-1.47,7.11-8.8,7.11-9.13,7.09-.48-.03-.87,.37-.88,.85-.01,.48,.37,.87,.85,.88h.02c.15,0,1.16-.02,2.5-.32,.13,.16,5.16,6.73-.11,17.47-2.71,5.53-8.58,10.21-16.1,12.86-9.72,3.42-22.31,2.47-26.98-7.71-2.07-4.51-2.17-9.95-.25-14.92,1.87-4.85,5.47-8.73,9.88-10.71,.68,.21,1.35,.29,1.98,.29,.95,0,1.8-.19,2.42-.43,.44-.17,.66-.67,.49-1.11-.17-.44-.67-.66-1.12-.49-.18,.07-4.34,1.59-6.49-2.95-1.86-3.93,.97-6.28,1.88-6.9,3.6,.84,7.24-1.04,9.1-2.62,.36-.31,.41-.85,.1-1.21-.31-.36-.85-.41-1.22-.1-.26,.22-6.43,5.31-11.06,.09-.22-.25-.56-.35-.87-.26-.32,.09-.56,.35-.62,.67-.08,.42-2.13,10.4-15.51,13.33-5.79,1.27-10.5,.19-13.28-3.04-2.55-2.97-3.2-7.52-1.64-11.58,3.29-8.58,12.44-17.62,27.4-14.93,.98,.29,1.92,.42,2.82,.42,6.36,0,10.39-6.43,10.43-6.51l-1.47-.9c-.22,.35-5.44,8.65-13.22,4.55-4.89-2.58-4.02-8.19-3.73-9.53,4.99-3.36,7.3-7.56,7.4-7.75,.23-.42,.07-.94-.35-1.17-.42-.23-.94-.07-1.17,.35-.02,.04-2.31,4.18-7.12,7.32-3.91,2.56-8.36,3.75-13.23,3.56-3.12-.12-5.92-1.52-7.66-3.84-1.81-2.4-3.36-6.5-.45-12.36,4.7-9.47,19.12-9.25,22.15-9.09,.09,.27,.2,.54,.32,.81,.14,.32,.46,.51,.79,.51,.12,0,.24-.02,.36-.08,.43-.2,.63-.71,.43-1.14-.61-1.34-.7-2.42-.28-3.22,.63-1.2,2.28-1.51,2.3-1.51,.13-.02,.24-.07,.34-.14,1.1,.14,1.85,.15,1.95,.15h.01c.47,0,.86-.38,.86-.85,0-.47-.37-.87-.85-.87-.08,0-7.66-.15-11.24-4.46-1.66-2-2.21-4.62-1.66-7.81,.6-3.43,2.11-5.99,4.51-7.61,4.58-3.11,10.95-1.83,11-1.81,.07,.02,7.2,1.7,8.45,7.92,.09,.47,.55,.77,1.02,.68,.47-.09,.77-.55,.68-1.01-.21-1.07-.58-2.01-1.02-2.85,.61-2.51,5.57-20.63,21.57-20.63,.16,0,.32,0,.48,0,3.03,.07,5.82,1.1,7.84,2.9,3.36,2.99,4.19,7.09,2.45,12.2-4,11.73-17.05,11.5-17.61,11.48-.47-.03-.87,.36-.89,.84-.01,.48,.36,.87,.84,.89h.12c.49,0,2.39-.04,4.83-.58-5.1,4.62-7.33,10.33-7.37,10.43-.17,.45,.05,.94,.5,1.11,.45,.17,.94-.05,1.11-.5,.26-.68,6.59-16.72,22.86-15.02,3.45,.36,6.17,1.75,7.87,4.01,1.53,2.03,2.15,4.67,1.7,7.23-.72,4.1-3.82,7.27-7.9,8.08-1.29,.26-2.64,.41-4.02,.46,.33-.9,.53-1.89,.55-2.97,0-.47-.37-.87-.85-.87-.48,.02-.87,.37-.88,.85-.02,1.2-.32,2.27-.82,3.21-.19,.14-.32,.34-.35,.59-3,4.62-10.75,6.03-10.85,6.05-.47,.08-.78,.53-.7,1,.07,.42,.44,.71,.85,.71,.05,0,.1,0,.15-.01,.09-.02,.46-.08,1.04-.22-3.51,3.94-4.15,9.01-4.16,9.09-.05,.47,.28,.9,.75,.96,.47,.05,.9-.29,.96-.76,.06-.52,1.63-12.68,14.04-12.1,2.39,.11,4.43,.83,5.91,2.07,2.35,1.97,3.37,4.74,3.03,8.23-.93,9.54-16.42,11.03-16.58,11.04-.47,.04-.82,.46-.78,.93,.04,.45,.42,.79,.86,.79,.03,0,.05,0,.08,0,.17-.02,4.26-.39,8.54-2.07,1.95-.77,3.61-1.69,4.99-2.74,.58,.1,1.91,.43,2.66,1.47,.59,.83,.71,1.99,.34,3.44-.12,.46,.16,.93,.62,1.05,.46,.12,.93-.16,1.05-.62,0,0,0,0,0,0,.44-1.71,3.17-3.97,5.37-5.38,5.29-3.4,13.52-2.02,17.95,3.02,2.57,2.92,2.78,6.09,2.51,8.23Z"/>
  </g>
</svg>