<svg id="圖層_1" data-name="圖層 1" xmlns="http://www.w3.org/2000/svg" viewBox="0 0 360.45595 101.66791"><defs><style>.cls-1{stroke:#000;}</style></defs><path d="M54.3208,85.226v4.51758a26.80535,26.80535,0,0,1-7.603,1.21191c-6.83105,0-10.13672-2.42382-10.46728-8.81445l-1.873-18.62109c-.88135-8.92481-4.40771-12.78125-12.8916-12.78125H17.96v.66113c0,11.01855,0,22.25684.11035,33.165l8.374.66113v4.51758H.88135V85.226L7.272,84.56482c.22071-10.79785.22071-22.03711.22071-33.165V45.55994c0-11.23926,0-22.14746-.22071-33.27539L.88135,11.73376V7.32654H22.58789c17.18848,0,26.44385,7.49219,26.44385,21.04492,0,9.25488-5.28858,17.29883-17.6294,20.05273,9.36573,1.76368,12.45069,6.61133,13.55274,15.86719l2.53418,20.38379Zm-32.394-39.00488c11.12842,0,17.07812-7.93359,17.07812-17.18848,0-10.57812-6.39062-17.0791-19.17187-17.0791h-1.7627C17.96,23.0824,17.96,34.101,17.96,45.55994v.66113Z"/><path d="M61.71631,11.30017h11.5039V61.91833q.10328,8.02442,4.48829,12.22364a14.66274,14.66274,0,0,0,11.01171,4.416,15.00988,15.00988,0,0,0,11.11622-4.416q4.27953-4.19971,4.38378-12.22364V11.30017h11.50391V63.16541q-.20947,12.375-7.76807,19.63769-7.61132,7.47949-19.23584,7.58594a26.63322,26.63322,0,0,1-19.07959-7.57715q-7.82079-7.25537-7.92431-19.61523Z"/><path class="cls-1" d="M182.459,85.45447l-2.395,5.40332a17.10377,17.10377,0,0,1-2.84082.27832,41.10313,41.10313,0,0,1-6.62744-.72461q-3.00805-.55664-5.9873-1.36426-2.98023-.80712-7.71436-2.31152-3.843-1.22462-7.63037-2.28321a24.43693,24.43693,0,0,1-8.13135,5.09571,25.7649,25.7649,0,0,1-9.35693,1.81054,17.01156,17.01156,0,0,1-8.77246-1.97753q-3.31275-1.97608-3.314-5.207,0-3.45262,3.73194-5.40332,3.73021-1.94823,10.081-1.94921a58.42555,58.42555,0,0,1,16.20752,2.61816,31.72143,31.72143,0,0,0,2.70117-6.07129,88.08491,88.08491,0,0,0,2.2002-8.7998l3.9541-18.60254q1.72632-8.07568,3.20264-12.58692a39.09634,39.09634,0,0,1,3.42529-7.79785,27.488,27.488,0,0,1,4.23291-5.51367,19.26275,19.26275,0,0,1,4.957-3.67676,11.16442,11.16442,0,0,1,5.0127-1.28027,8.63947,8.63947,0,0,1,4.67871,1.25293,7.81045,7.81045,0,0,1,3.03516,3.62011,13.65438,13.65438,0,0,1,1.03027,5.48633,31.57792,31.57792,0,0,1-1.05811,7.18457,45.22059,45.22059,0,0,1-2.729,8.02051l-5.17969.7793a52.35051,52.35051,0,0,0,3.89844-9.38477,29.84439,29.84439,0,0,0,1.55957-8.54883,8.07688,8.07688,0,0,0-1.39209-5.06836,4.8478,4.8478,0,0,0-4.06592-1.78222q-5.73707,0-9.58008,7.57422a32.53616,32.53616,0,0,0-2.00488,4.98535q-.78076,2.53418-2.06055,8.38183l-4.957,23.22559a80.13193,80.13193,0,0,1-3.34179,11.86328,29.60114,29.60114,0,0,1-4.39991,7.74121l1.39209.44629q8.40967,2.78468,13.50635,3.98242a39.36517,39.36517,0,0,0,8.82813,1.19727A32.49156,32.49156,0,0,0,182.459,85.45447Zm-35.813-1.83789-1.33643-.38965q-9.97046-3.00732-15.26074-3.00781-8.41113,0-8.41016,4.40039,0,2.228,2.896,3.75976a15.50116,15.50116,0,0,0,7.29638,1.53125,20.43023,20.43023,0,0,0,8.13135-1.6709A19.782,19.782,0,0,0,146.646,83.61658Z"/><path d="M210.34619,7.53064a99.97945,99.97945,0,0,0,0,92.84961h-5.06982a103.176,103.176,0,0,1,0-92.84961Zm57.062,11.2334v9.24512H227.24609V48.68689h37.77637V57.932H227.24609v22.5664h41.852v9.24512h-52.6875V18.764Zm12.82422-11.2334a103.176,103.176,0,0,1,0,92.84961h-5.07031a99.97565,99.97565,0,0,0,0-92.84961Z"/><path class="cls-1" d="M300.854,23.75818a6.35189,6.35189,0,0,1-2.2163-3.82227,8.28872,8.28872,0,0,1,2.95459-8.25488,6.50929,6.50929,0,0,1,4.208-1.542,13.73937,13.73937,0,0,0-3.91845,2.28125,7.62342,7.62342,0,0,0-2.377,3.17969,8.14567,8.14567,0,0,0-.19287,3.98242A11.96788,11.96788,0,0,0,300.854,23.75818Zm3.083,11.11328a4.45045,4.45045,0,0,1-2.73-1.124,5.33728,5.33728,0,0,1-1.70215-2.47364,5.07784,5.07784,0,0,1,0-2.9873,4.31806,4.31806,0,0,1,1.606-2.4082,7.83431,7.83431,0,0,0-1.06006,2.63378,4.91032,4.91032,0,0,0,.09619,2.56934,5.01142,5.01142,0,0,0,1.34912,2.18457A7.33751,7.33751,0,0,0,303.937,34.87146Zm2.313-8.6084a5.405,5.405,0,0,1-2.40918-2.02344,4.723,4.723,0,0,1-.93164-2.92285,4.75836,4.75836,0,0,1,1.31738-2.79394,5.44585,5.44585,0,0,1,2.60156-1.70215,5.27982,5.27982,0,0,0-1.7666,2.15137,7.08338,7.08338,0,0,0-.61035,2.47363,7.34725,7.34725,0,0,0,.32129,2.47265A5.18091,5.18091,0,0,0,306.25,26.26306Zm2.69775,22.16309a5.58313,5.58313,0,0,1-3.08349-.707,4.75335,4.75335,0,0,1-2.248-2.248,4.409,4.409,0,0,1-.19287-3.084,6.03968,6.03968,0,0,1,1.5415-2.82617,5.475,5.475,0,0,0-.54589,2.7627,7.53268,7.53268,0,0,0,.61035,2.56933,7.76674,7.76674,0,0,0,1.47754,2.08789A5.58273,5.58273,0,0,0,308.94775,48.42615Zm-2.95507-8.86524a6.57022,6.57022,0,0,1,2.37695-3.083,5.72348,5.72348,0,0,1,3.66162-1.22071,5.59487,5.59487,0,0,1,2.21631.48145A6.202,6.202,0,0,1,316.207,37.056a6.722,6.722,0,0,1-1.41357-3.14844,7.9282,7.9282,0,0,0,2.47363,2.7627,8.49224,8.49224,0,0,0,3.05127,1.34863,3.48015,3.48015,0,0,1,2.44092-.12793,1.65063,1.65063,0,0,1,.38525.19238,9.24083,9.24083,0,0,0,1.9917-.61035,8.457,8.457,0,0,0,1.86279-1.124,5.7996,5.7996,0,0,1-.57812.835,3.668,3.668,0,0,1,1.542-.51367,2.10109,2.10109,0,0,0-1.06006,1.09179q-.2893.70752-.48193,1.34961a10.86131,10.86131,0,0,0-.28906,1.44532,1.96786,1.96786,0,0,0,.41748,1.44531,4.09554,4.09554,0,0,1-1.28467-1.44531,2.26094,2.26094,0,0,1-.32129-1.83106c.042-.1289.08545-.25683.12842-.38574a8.09983,8.09983,0,0,1-.89942.51367,4.99663,4.99663,0,0,1,1.34912,3.27637,3.48163,3.48163,0,0,0-1.22021-1.70215,8.92658,8.92658,0,0,0-1.73486-.99609,6.56548,6.56548,0,0,1-2.56934.1289,4.92929,4.92929,0,0,1-1.02783-.38574,6.6694,6.6694,0,0,0-.96387.4502,3.68163,3.68163,0,0,1,.57861-.57813,7.73819,7.73819,0,0,1-1.542-1.0918,5.48106,5.48106,0,0,1,.96338,1.66993,8.19564,8.19564,0,0,0-5.97412-2.82715,7.24243,7.24243,0,0,0-3.17969.64258A7.8721,7.8721,0,0,0,305.99268,39.56091Zm7.8374-6.03808a5.49485,5.49485,0,0,1-3.0835.706,4.27387,4.27387,0,0,1-2.89062-1.0918,4.44135,4.44135,0,0,1-1.47754-2.73046,5.60327,5.60327,0,0,1,.25683-3.17969,5.15446,5.15446,0,0,0,.61036,2.76269,7.11022,7.11022,0,0,0,1.57373,1.99121,8.80841,8.80841,0,0,0,2.24853,1.28516A4.99617,4.99617,0,0,0,313.83008,33.52283ZM307.3418,15.92126a6.73841,6.73841,0,0,1,.22509-3.82226,5.67938,5.67938,0,0,1,2.21631-3.05176,5.5666,5.5666,0,0,1,3.66162-.96387,7.29423,7.29423,0,0,1,3.66163,1.15625,8.11585,8.11585,0,0,0-3.501-.12793,7.6372,7.6372,0,0,0-2.92334,1.15625,7.40225,7.40225,0,0,0-2.21582,2.3125A7.64038,7.64038,0,0,0,307.3418,15.92126Zm11.88427,36.42286a5.77361,5.77361,0,0,1-2.73,1.83105,4.86051,4.86051,0,0,1-3.24414.09668,5.03035,5.03035,0,0,1-2.44091-2.12012,6.35771,6.35771,0,0,1-1.02784-3.14746,5.80127,5.80127,0,0,0,1.70215,2.40918,8.29219,8.29219,0,0,0,2.28027,1.38086,8.81573,8.81573,0,0,0,2.666.38574A5.2315,5.2315,0,0,0,319.22607,52.34412Zm7.002,5.2041a7.47839,7.47839,0,0,1-3.95069,3.21191,9.80289,9.80289,0,0,1-5.17089.51367,9.62275,9.62275,0,0,1-4.68946-2.28027,7.37817,7.37817,0,0,1-2.56982-4.40039,15.99043,15.99043,0,0,0,3.34033,3.95019,8.758,8.758,0,0,0,4.04736,2.0879,8.57259,8.57259,0,0,0,4.52881-.51368A14.75218,14.75218,0,0,0,326.228,57.54822Zm-8.15821-48.501a7.11967,7.11967,0,0,1,2.5376-3.21191,6.01544,6.01544,0,0,1,3.82227-1.28516,6.22317,6.22317,0,0,1,3.79,1.34961,6.76518,6.76518,0,0,1,2.44091,3.21191,7.44789,7.44789,0,0,0-2.95507-2.28027,8.38237,8.38237,0,0,0-3.27588-.73926,7.72413,7.72413,0,0,0-3.34082.67481A7.9731,7.9731,0,0,0,318.06982,9.04724Zm2.50538,14.00391.12841-.19239a3.98277,3.98277,0,0,1-.51367-.7705,2.69325,2.69325,0,0,0,.70654.51367,7.443,7.443,0,0,1,3.17969-2.12012A6.35515,6.35515,0,0,1,327.834,20.225a6.50879,6.50879,0,0,1,2.63379,1.47753c-.08593-.17089-.17138-.34277-.25683-.51367a5.78489,5.78489,0,0,0,2.377,1.73438,7.00908,7.00908,0,0,0,5.26758,0,5.79115,5.79115,0,0,0,2.37695-1.73438,5.848,5.848,0,0,1-1.95947,2.63379,4.55134,4.55134,0,0,1-6.32764-.25683,7.30245,7.30245,0,0,1,.83545,2.69726,8.07016,8.07016,0,0,0-1.73486-2.47265,7.555,7.555,0,0,0-2.3125-1.57422,6.342,6.342,0,0,1-1.57373,1.831,4.06283,4.06283,0,0,1-2.08789.93164,3.59845,3.59845,0,0,1-2.34473-.45019,6.29155,6.29155,0,0,1-1.959-1.60547A.73865.73865,0,0,1,320.5752,23.05115Zm10.792,29.03613a6.15339,6.15339,0,0,1-2.0874,2.95508,5.51045,5.51045,0,0,1-3.3086,1.34961,5.33594,5.33594,0,0,1-3.37256-1.125,6.89333,6.89333,0,0,1-2.34472-2.794,7.40226,7.40226,0,0,0,2.73047,1.86328,7.2374,7.2374,0,0,0,2.92285.51368,8.05782,8.05782,0,0,0,2.92285-.73926A6.46971,6.46971,0,0,0,331.36719,52.08728Zm-3.91846-30.38477a9.3252,9.3252,0,0,0-3.11572-.1289,7.71348,7.71348,0,0,0-3.24414,1.15625,4.53614,4.53614,0,0,0,1.89551.707,9.475,9.475,0,0,0,1.895.06445,7.99386,7.99386,0,0,0,1.79834-.48242,5.1592,5.1592,0,0,0,1.606-.99512A4.82825,4.82825,0,0,0,327.44873,21.70251Zm2.95508-17.5371a7.37523,7.37523,0,0,1,4.49658-1.76661,8.61156,8.61156,0,0,1,4.81787,1.05957,9.21768,9.21768,0,0,1,3.56543,3.40528,7.00009,7.00009,0,0,1,1.06006,4.68945A14.15824,14.15824,0,0,0,342.5127,7.056a8.5889,8.5889,0,0,0-3.05127-3.084,8.68554,8.68554,0,0,0-4.272-.80274A14.69478,14.69478,0,0,0,330.40381,4.16541Zm1.28467,5.20312a6.78842,6.78842,0,0,1,3.27636-1.28516,5.08368,5.08368,0,0,1,3.40479.64258,5.43236,5.43236,0,0,1,2.11963,2.73047,6.11854,6.11854,0,0,1,.38525,3.43652,6.06822,6.06822,0,0,0-1.22021-2.89062,8.1335,8.1335,0,0,0-2.12012-1.92676,7.49659,7.49659,0,0,0-2.69775-.96387A6.64375,6.64375,0,0,0,331.68848,9.36853Zm7.77295,39.37891a5.53332,5.53332,0,0,1-.5459,2.56933,3.23884,3.23884,0,0,1-1.7666,1.79883,3.35239,3.35239,0,0,1-2.50538.06445,5.09323,5.09323,0,0,1-2.24853-1.34961,3.49,3.49,0,0,0,2.18408.418,7.97421,7.97421,0,0,0,1.9917-.5459,6.92143,6.92143,0,0,0,1.73438-1.09277A3.65624,3.65624,0,0,0,339.46143,48.74744Zm-5.65284-22.291a5.10674,5.10674,0,0,1,2.28028-1.34961,4.06953,4.06953,0,0,1,2.666,0,3.78409,3.78409,0,0,1,1.83057,1.86328,5.26543,5.26543,0,0,1,.61035,2.63379,4.14033,4.14033,0,0,0-1.25244-1.959,6.60791,6.60791,0,0,0-1.83106-1.124,7.24614,7.24614,0,0,0-2.05566-.51464A3.81523,3.81523,0,0,0,333.80859,26.45642ZM344.729,41.29529a5.29856,5.29856,0,0,1,.96387,2.56933,3.8381,3.8381,0,0,1-.44971,2.57032,3.79781,3.79781,0,0,1-2.18408,1.541,5.09605,5.09605,0,0,1-2.76269.12891,3.97672,3.97672,0,0,0,2.18408-.86719A5.93777,5.93777,0,0,0,343.894,45.599a6.59986,6.59986,0,0,0,.89942-1.959A3.99819,3.99819,0,0,0,344.729,41.29529Zm-2.7622-11.04883a6.47026,6.47026,0,0,1,3.17968,1.2207,4.91762,4.91762,0,0,1,1.83106,6.07032,5.979,5.979,0,0,1-2.05566,2.73046,6.06309,6.06309,0,0,0,1.02783-2.8916,7.16176,7.16176,0,0,0-.25684-2.76172A7.53649,7.53649,0,0,0,344.376,32.141,6.65972,6.65972,0,0,0,341.9668,30.24646Zm7.19482,2.89062a6.17387,6.17387,0,0,1,2.8584,2.8584,7.37216,7.37216,0,0,1,.80322,4.0791,7.03686,7.03686,0,0,1-1.44531,3.82227,6.2105,6.2105,0,0,1-3.30859,2.34473,11.79507,11.79507,0,0,0,2.82666-2.92285,7.526,7.526,0,0,0,1.34912-3.3086,7.065,7.065,0,0,0-.73877-3.53222A11.65687,11.65687,0,0,0,349.16162,33.13708Z"/></svg>