<?xml version="1.0" encoding="UTF-8"?><svg id="_圖層_3" xmlns="http://www.w3.org/2000/svg" viewBox="0 0 773.61 120.68"><polygon points="71.08 74.91 44.44 40.51 32.08 40.51 32.08 88.57 43.14 88.57 43.14 54.25 69.77 88.57 82.2 88.57 82.2 40.51 71.08 40.51 71.08 74.91"/><path d="M90.92,63.79c0-6.18,.82-11.74,2.47-16.68,1.65-5.01,4.12-9.41,7.42-13.11l-1.03-.96c-3.71,3.71-6.66,8.24-8.72,13.59-2.2,5.49-3.23,11.19-3.23,17.23s1.03,11.67,3.16,17.16c2.13,5.36,5.08,9.95,8.79,13.66l1.03-.96c-3.3-3.78-5.77-8.17-7.42-13.18-1.65-5.01-2.47-10.57-2.47-16.75Z"/><path d="M139.05,47.93c-4.53-4.26-10.3-6.38-17.16-6.38-7.41,0-13.46,2.06-18.06,6.25-4.74,4.12-7.07,9.61-7.07,16.48s2.27,12.29,6.87,16.27c4.39,3.78,10.16,5.7,17.3,5.7s13.46-2.06,18.12-6.04c4.53-3.98,6.87-9.41,6.87-16.14s-2.33-11.88-6.87-16.13Zm-5.08,29.93c-3.02,3.71-7.48,5.56-13.39,5.56-4.81,0-8.65-1.92-11.6-5.7-2.88-3.57-4.33-7.96-4.33-13.11,0-5.63,1.24-10.3,3.84-13.87,2.88-4.26,7-6.39,12.36-6.39,5.63,0,10.02,2.06,13.11,6.25,2.68,3.57,4.05,8.24,4.05,13.87s-1.37,10.02-4.05,13.39Z"/><path d="M142.89,33.03l-1.03,.96c3.23,3.71,5.7,8.1,7.41,13.11,1.65,4.94,2.47,10.5,2.47,16.68s-.82,11.74-2.47,16.75c-1.72,5.01-4.19,9.4-7.41,13.18l1.03,.96c3.71-3.71,6.59-8.31,8.79-13.66,2.06-5.49,3.16-11.19,3.16-17.16s-1.1-11.74-3.23-17.23c-2.13-5.35-5.01-9.89-8.72-13.59Z"/><path d="M168.63,80.2c-1.03-.96-2.26-1.44-3.64-1.44-1.51,0-2.68,.48-3.57,1.44-1.03,.96-1.51,2.2-1.51,3.71,0,1.37,.48,2.61,1.51,3.64,.89,.89,2.06,1.37,3.57,1.37,1.37,0,2.61-.48,3.64-1.37,.96-1.03,1.51-2.27,1.51-3.64,0-1.51-.55-2.75-1.51-3.71Z"/></svg>