<?xml version="1.0" encoding="UTF-8"?>
<svg id="_圖層_1" data-name="圖層 1" xmlns="http://www.w3.org/2000/svg" viewBox="0 0 128.12 62.19">
  <polygon points="48.6 36.79 34.88 19.08 28.52 19.08 28.52 43.82 34.21 43.82 34.21 26.15 47.93 43.82 54.33 43.82 54.33 19.08 48.6 19.08 48.6 36.79"/>
  <path d="M58.81,31.06c0-3.18,.42-6.05,1.27-8.59,.85-2.58,2.12-4.84,3.82-6.75l-.53-.5c-1.91,1.91-3.43,4.24-4.49,7-1.13,2.83-1.66,5.76-1.66,8.87s.53,6.01,1.63,8.84c1.1,2.76,2.62,5.13,4.53,7.04l.53-.5c-1.7-1.94-2.97-4.21-3.82-6.79-.85-2.58-1.27-5.45-1.27-8.63Z"/>
  <path d="M85.57,15.22l-.53,.5c1.66,1.91,2.93,4.17,3.82,6.75,.85,2.55,1.27,5.41,1.27,8.59s-.42,6.05-1.27,8.63c-.88,2.58-2.16,4.84-3.82,6.79l.53,.5c1.91-1.91,3.39-4.28,4.53-7.04,1.06-2.83,1.63-5.76,1.63-8.84s-.57-6.05-1.66-8.87c-1.1-2.76-2.58-5.09-4.49-7Z"/>
  <path d="M83.59,22.9c-2.33-2.19-5.3-3.29-8.84-3.29-3.82,0-6.93,1.06-9.3,3.22-2.44,2.12-3.64,4.95-3.64,8.49s1.17,6.33,3.54,8.38c2.26,1.94,5.23,2.93,8.91,2.93s6.93-1.06,9.33-3.11c2.33-2.05,3.54-4.84,3.54-8.31s-1.2-6.12-3.54-8.31Zm-2.62,15.41c-1.56,1.91-3.85,2.86-6.89,2.86-2.48,0-4.46-.99-5.98-2.93-1.48-1.84-2.23-4.1-2.23-6.75,0-2.9,.64-5.3,1.98-7.14,1.48-2.19,3.61-3.29,6.36-3.29,2.9,0,5.16,1.06,6.75,3.22,1.38,1.84,2.09,4.24,2.09,7.14s-.71,5.16-2.09,6.89Z"/>
  <path d="M98.82,39.51c-.53-.5-1.17-.74-1.87-.74-.78,0-1.38,.25-1.84,.74-.53,.5-.78,1.13-.78,1.91,0,.71,.25,1.34,.78,1.87,.46,.46,1.06,.71,1.84,.71,.71,0,1.34-.25,1.87-.71,.49-.53,.78-1.17,.78-1.87,0-.78-.28-1.41-.78-1.91Z"/>
</svg>