<svg id="圖層_1" data-name="圖層 1" xmlns="http://www.w3.org/2000/svg" viewBox="0 0 221.56705 276.89258"><path d="M169.78906,139.48438,117.71441,154.9435a1.48455,1.48455,0,0,0-1.06207,1.42316V223.005a1.49474,1.49474,0,0,0,2.19769,1.31188q3.61216-1.89859,3.61384-8.44872V161.30975a1.48454,1.48454,0,0,1,1.48455-1.48455h87.52992a1.48455,1.48455,0,0,1,1.48455,1.48455V275.408a1.48456,1.48456,0,0,1-1.48455,1.48455H1.48455A1.48456,1.48456,0,0,1,0,275.408V246.17285q0-18.2622.62305-29.88965a209.17777,209.17777,0,0,1,2.69824-23.87011Q5.394,180.17285,9.54785,172.4873a71.3727,71.3727,0,0,1,11.001-14.94531,55.50685,55.50685,0,0,1,17.02051-12.03906,166.73262,166.73262,0,0,1,24.70019-8.92481l33.38387-9.65286a1.48457,1.48457,0,0,0,1.07219-1.42614V84.19364a1.49479,1.49479,0,0,0-2.19875-1.31128q-3.61613,1.903-3.61278,8.44674v29.23518a1.48455,1.48455,0,0,1-1.48455,1.48455H1.48455A1.48456,1.48456,0,0,1,0,120.56428V6.466A1.48455,1.48455,0,0,1,1.48455,4.98145H72.409A1.48454,1.48454,0,0,1,73.89355,6.466V72.824a1.48455,1.48455,0,0,0,1.48456,1.48455h0A1.48641,1.48641,0,0,0,76.856,72.88053Q77.81857,50.59,83.85645,35.70117q6.227-15.353,16.81347-22.832a64.57425,64.57425,0,0,1,21.1709-10.1709A100.75566,100.75566,0,0,1,146.542,0q22.41651,0,39.22949,8.9248,16.81349,8.93262,25.11524,22.625a73.857,73.857,0,0,1,10.1709,30.51172,75.93236,75.93236,0,0,1-3.11328,32.17286,68.42459,68.42459,0,0,1-17.64356,27.81445A69.31748,69.31748,0,0,1,169.78906,139.48438Z"/></svg>