<?xml version="1.0" encoding="UTF-8"?><svg id="_圖層_3" xmlns="http://www.w3.org/2000/svg" viewBox="0 0 773.61 120.68"><path d="M105.22,39.1c5.48-3.62,10.64-6.62,15.48-8.98,4.83-2.36,8.76-3.55,11.78-3.55h1.96c.4,0,.85,.1,1.36,.3,.3,.1,.45-.05,.45-.45-.4-.7-1.13-1.53-2.19-2.49-1.06-.96-2.19-1.43-3.4-1.43-2.62,0-5.28,.71-8,2.11-2.72,1.41-5.13,2.87-7.25,4.38-7.05,4.93-14.17,10.29-21.36,16.08-7.2,5.79-14.42,11.45-21.67,16.99-.4,.4-.73,.48-.98,.23-.25-.25-.33-.63-.23-1.13,0-.2,.08-.78,.23-1.74,.15-.96,.33-2.06,.53-3.32,.2-1.26,.38-2.62,.53-4.08,.15-1.46,.23-2.79,.23-4,0-2.72-.3-5.36-.91-7.93-.6-2.57-1.56-4.81-2.87-6.72-1.31-1.91-3.02-3.45-5.13-4.61-2.11-1.16-4.63-1.74-7.55-1.74-4.63,0-8.86,.86-12.68,2.57-3.83,1.71-7.25,4.48-10.27,8.3-.5,.81-.5,1.23,0,1.28,.5,.05,.91-.13,1.21-.53,1.81-2.51,3.9-4.33,6.27-5.44,2.36-1.11,5.36-1.66,8.98-1.66,3.12,0,5.76,.55,7.93,1.66,2.16,1.11,3.9,2.62,5.21,4.53,1.31,1.91,2.24,4.1,2.79,6.57,.55,2.47,.83,5.01,.83,7.63,0,2.82-.45,5.99-1.36,9.51-.91,3.52-1.91,6.49-3.02,8.91-1.01,2.11-2.19,4.41-3.55,6.87-1.36,2.47-2.79,4.83-4.3,7.1-1.51,2.27-2.97,4.28-4.38,6.04-1.41,1.76-2.62,3.05-3.62,3.85-.3,.3-.43,.65-.38,1.06,.05,.4,.23,.55,.53,.45,.91-.6,1.61-1.08,2.11-1.44,.5-.35,1.03-.6,1.59-.75,.55-.15,1.23-.23,2.04-.23s1.96,.1,3.47,.3c.8,.1,1.31,.02,1.51-.23,.2-.25,.35-.58,.45-.98,.7-2.42,2.06-5.51,4.08-9.29,2.01-3.77,4.28-7.87,6.79-12.3,.8-1.31,1.71-2.52,2.72-3.62,1-1.11,2.11-2.27,3.32-3.47,3.16-3.08,6.71-6.27,10.64-9.56v.62c2.24,.16,3.69,.57,4.34,1.22,.65,.66,.97,2.06,.97,4.2v26.87c0,2.27-.33,3.68-.99,4.24-.66,.56-2.1,.95-4.32,1.19v1.12h32.65l2.74-10.2h-1.68c-1.55,3.44-3.3,5.61-5.25,6.5s-4.97,1.34-9.07,1.34c-3.78,0-6.05-.11-6.81-.33-.76-.22-1.14-.92-1.14-2.12v-14.95h9.32c2.56,0,4.19,.38,4.9,1.14,.71,.76,1.29,2.3,1.74,4.64h1.42v-13.95h-1.42c-.43,2.33-1,3.87-1.71,4.64-.71,.76-2.35,1.14-4.92,1.14h-9.32v-13.48c0-.79,.1-1.32,.31-1.61,.21-.28,.75-.43,1.64-.43h8.22c3.54,0,5.82,.39,6.84,1.17s1.79,2.5,2.3,5.17h1.53l-.21-8.64h-31.48c1.01-.84,2.03-1.69,3.09-2.54,5.44-4.38,10.89-8.38,16.38-12Z"/><path d="M132.04,63.8c0-3.02,2.6-5.86,8.03-5.86,3.32,0,6.4,1.09,6.4,1.09l2.05,6.46h3.93l.3-10.27s-7.01-2.42-12.74-2.42c-7.55,0-14.31,3.56-14.31,12.02,0,14.43,21.8,10.57,21.8,19.87,0,4.29-4.83,6.46-9.24,6.46-3.93,0-6.64-1.51-6.64-1.51l-1.21-6.34h-4.83v10.57s6.1,2.42,12.44,2.42c8.46,0,15.76-4.17,15.76-13.23,0-13.59-21.74-10.09-21.74-19.27Z"/><path d="M168.82,86.24c-.91-.85-1.99-1.27-3.2-1.27-1.33,0-2.36,.42-3.14,1.27-.91,.85-1.33,1.93-1.33,3.26,0,1.21,.42,2.29,1.33,3.2,.79,.79,1.81,1.21,3.14,1.21,1.21,0,2.29-.42,3.2-1.21,.85-.91,1.33-1.99,1.33-3.2,0-1.33-.48-2.42-1.33-3.26Z"/></svg>