<svg xmlns="http://www.w3.org/2000/svg" viewBox="0 0 681.9 58.96"><g id="font"><path d="M33.72,55A18.32,18.32,0,0,1,25.83,49a20.07,20.07,0,0,1-4-9.65A20.1,20.1,0,0,1,23,29a18.36,18.36,0,0,1,5.92-7.91,19.32,19.32,0,0,1,9.3-3.86,19.57,19.57,0,0,1,10.06,1.09,18.35,18.35,0,0,1,7.86,5.92,20.29,20.29,0,0,1,3.94,9.68A20.26,20.26,0,0,1,59,44.32a18.16,18.16,0,0,1-5.89,7.88,19.38,19.38,0,0,1-9.35,3.86A19.3,19.3,0,0,1,33.72,55ZM50,48.88a13.16,13.16,0,0,0,4.26-6,16.76,16.76,0,0,0,.7-8.22,16.85,16.85,0,0,0-3-7.73,13.4,13.4,0,0,0-5.74-4.56,14.13,14.13,0,0,0-7.47-.82,14,14,0,0,0-6.93,2.88,13.23,13.23,0,0,0-4.24,6,16.75,16.75,0,0,0-.69,8.26,16.92,16.92,0,0,0,3,7.7,13.14,13.14,0,0,0,5.78,4.57,14.9,14.9,0,0,0,14.34-2Z"/><path d="M105.89,28c-1.32-8.6,4.3-14.82,11.38-15.91,7.63-1.17,12.86,3.1,14,10.56a18.58,18.58,0,0,1,.2,2.76l-22.37,3.45-.54-3.5,19.68-3-1,1.43c-1-6.25-4.53-8.87-9.37-8.13s-8.56,5.1-7.55,11.68c1.06,6.85,6.05,9.65,11.92,8.74A14.47,14.47,0,0,0,130,32.29l2.1,2.71a18.42,18.42,0,0,1-9.76,4.73C114.36,41,107.25,36.81,105.89,28Z"/><path d="M72.2,28.36C72,27.18,71,26.74,68.94,27l-3.71.53-1-8.2L74,18l.1,4q-.1-.72,1-1.86a10.61,10.61,0,0,1,2.06-1.7,16.19,16.19,0,0,1,10.42-1.76A9.55,9.55,0,0,1,90.84,18a5.76,5.76,0,0,1,2.52,3.58,26.94,26.94,0,0,1,.42,3.1c.13,1.32.23,2.41.31,3.27s.15,1.66.21,2.41c.11,1.51.19,2.47.25,2.89a1.47,1.47,0,0,0,.35.87,1.58,1.58,0,0,0,.54.37,2.79,2.79,0,0,0,1.32.09l3.55-.51,1,7.93L88.06,43.79l-1.52-7.86,3.56-.51c1.21-.17,1.75-.69,1.63-1.56L91,27.61q-.37-2.7-4.46-3.06a14.5,14.5,0,0,0-3.6.16,19.34,19.34,0,0,0-3.75.86,9.81,9.81,0,0,0-2.43,1.19,2.79,2.79,0,0,0-1.48,2.6c0,.83.08,1.78.2,2.84s.23,1.87.29,2.44.12,1,.16,1.26q.22,1.58,2.16,1.29l3.33-.47,1.27,7.83L68.42,46.64l-1.21-8,4.14-.59c1.31-.19,1.91-.66,1.8-1.43Z"/><path d="M184,7.75,184,5l5,0-.11,12.3-4.95-.05,0-2.8a9.82,9.82,0,0,0-8.56-4.81A8.32,8.32,0,0,0,170.2,11a4.57,4.57,0,0,0-1.81,3.85A4.37,4.37,0,0,0,170,18.52a15,15,0,0,0,5.13,2.2l4.75,1.3a18.68,18.68,0,0,1,7,3.27A9.46,9.46,0,0,1,190,29.54a15.73,15.73,0,0,1,.69,5,11.42,11.42,0,0,1-3.52,8.71,12.94,12.94,0,0,1-9.26,3.14,14.7,14.7,0,0,1-10-4.13l0,3.37-5,0L163,30.8l5.06.05,0,3.58q3.57,6.7,9.4,6.75a7.45,7.45,0,0,0,5.32-1.71,6.45,6.45,0,0,0,1.93-4.95q0-4.35-6.08-6.1l-5-1.48c-3.64-1.07-6.31-2.5-8-4.29a9.63,9.63,0,0,1-2.54-7q0-5.35,3.24-8.27c2.12-1.95,5-2.9,8.75-2.87A14.63,14.63,0,0,1,184,7.75Z"/><path d="M199.59,13.16l-6.33.1.23-8,9.77,0L203,22.71a11.86,11.86,0,0,1,5.57-3.2,17.55,17.55,0,0,1,4.93-.55c3.49,0,6,.92,7.55,2.65a7,7,0,0,1,1.75,5.05L222.48,38a1,1,0,0,0,.17.65,1.1,1.1,0,0,0,.76.2l4.18,0-.07,7.88-13.2-.18.07-7.93,3.91,0a1.81,1.81,0,0,0,1-.26.81.81,0,0,0,.41-.72l.07-7.37c0-.92-.64-1.71-1.93-2.39a11.37,11.37,0,0,0-5.26-1.2,20.83,20.83,0,0,0-4.71.37,10.78,10.78,0,0,0-2.77,1c-1.51.85-2.28,1.77-2.29,2.78l-.06,6.78q0,.82,1.2.84l3.6,0-.08,7.94-13-.07V38.51l4.42,0c.62,0,.94-.27.94-.83l.46-24.07c0-.2,0-.33-.14-.39A1,1,0,0,0,199.59,13.16Z"/><path d="M260.63,34l-24.13-.23a9.5,9.5,0,0,0,9.72,9.57,9.31,9.31,0,0,0,5.44-1.46,8.1,8.1,0,0,0,3.1-4l5.4,0a13,13,0,0,1-4.92,7,14.56,14.56,0,0,1-9.06,2.64,15.13,15.13,0,0,1-7.66-2,13.58,13.58,0,0,1-5.27-5.53,16.9,16.9,0,0,1-1.85-8.25,17.15,17.15,0,0,1,1.94-8.19,13.13,13.13,0,0,1,5.32-5.38,15.58,15.58,0,0,1,7.81-1.83,15.2,15.2,0,0,1,7.59,1.94,13,13,0,0,1,5.05,5.2A15.31,15.31,0,0,1,260.83,31,30.17,30.17,0,0,1,260.63,34ZM254.44,25A8.3,8.3,0,0,0,251,21.78a10.65,10.65,0,0,0-4.81-1.12,9.33,9.33,0,0,0-6.5,2.36,9.93,9.93,0,0,0-3.12,6.7l19.07.17A9.25,9.25,0,0,0,254.44,25Z"/><path d="M294,34.32l-24.14-.22a9.5,9.5,0,0,0,9.72,9.57A9.24,9.24,0,0,0,285,42.2a8,8,0,0,0,3.1-4l5.4,0a13,13,0,0,1-4.91,7,14.73,14.73,0,0,1-9.07,2.64,15.23,15.23,0,0,1-7.66-2,13.64,13.64,0,0,1-5.27-5.53,17,17,0,0,1-1.85-8.25,17.28,17.28,0,0,1,2-8.2A13.17,13.17,0,0,1,272,18.55a15.68,15.68,0,0,1,7.81-1.82,15.07,15.07,0,0,1,7.59,1.94,13,13,0,0,1,5.05,5.2,15.28,15.28,0,0,1,1.72,7.43A29.66,29.66,0,0,1,294,34.32Zm-6.2-9.06a8.2,8.2,0,0,0-3.42-3.18A10.77,10.77,0,0,0,279.52,21,9.24,9.24,0,0,0,273,23.33,9.84,9.84,0,0,0,269.91,30L289,30.2A9.22,9.22,0,0,0,287.75,25.26Z"/><path d="M306.88,55.05l6.45.06a2.16,2.16,0,0,1,1.53.5,1.88,1.88,0,0,1,.5,1.46,1.9,1.9,0,0,1-.51,1.47,2.82,2.82,0,0,1-1.77.42l-11.86-.11a2.43,2.43,0,0,1-1.62-.5,1.78,1.78,0,0,1-.54-1.43,1.62,1.62,0,0,1,.7-1.5A5.13,5.13,0,0,1,302.3,55h.51l.26-27.92h-.51a5.24,5.24,0,0,1-2.54-.45,1.64,1.64,0,0,1-.67-1.51,1.77,1.77,0,0,1,.56-1.41,2.51,2.51,0,0,1,1.64-.46l4.09,0a2,2,0,0,1,1.16.28,1,1,0,0,1,.36.84l0,2.61a12.6,12.6,0,0,1,17.87.05,12.53,12.53,0,0,1,3.55,9.21A11.8,11.8,0,0,1,325,45a12,12,0,0,1-8.83,3.33,13.52,13.52,0,0,1-5.23-1,10.67,10.67,0,0,1-4-2.93Zm8.44-10.71a8.36,8.36,0,0,0,6.15-2.3A8.16,8.16,0,0,0,323.92,36a8.14,8.14,0,0,0-2.35-6.06,9,9,0,0,0-12.2-.13,8.21,8.21,0,0,0-2.42,6,8.07,8.07,0,0,0,8.37,8.53Z"/><path d="M445.45,47.55a18.41,18.41,0,0,1-6.21-7.68,20.12,20.12,0,0,1-1.51-10.32,20.09,20.09,0,0,1,3.59-9.8A18.4,18.4,0,0,1,449,13.51a20.35,20.35,0,0,1,19.46,2,18.32,18.32,0,0,1,6.19,7.65,20.19,20.19,0,0,1,1.48,10.34,20.16,20.16,0,0,1-3.57,9.83,18.3,18.3,0,0,1-7.62,6.22,20.37,20.37,0,0,1-19.46-2Zm17.29-2a13.24,13.24,0,0,0,5.6-4.79A17,17,0,0,0,471,33a16.79,16.79,0,0,0-1-8.22A13.29,13.29,0,0,0,465.53,19a14.17,14.17,0,0,0-7-2.61,14,14,0,0,0-7.42,1.12,13.16,13.16,0,0,0-5.56,4.77,16.73,16.73,0,0,0-2.67,7.83,16.78,16.78,0,0,0,1,8.2,13.14,13.14,0,0,0,4.49,5.83,14.93,14.93,0,0,0,14.41,1.49Z"/><path d="M418.27,29.68c.41,0,.58,0,.49-.22a2.17,2.17,0,0,0-.15-.46l-.38-1c-.15-.42-.33-.9-.54-1.42s-.49-1.25-.84-2.16l-1.45-3.76-.56.86-1,1.48c-.37.57-.77,1.16-1.19,1.77l-1.14,1.73q-.51.79-.9,1.35l-.49.71c-.12.2,0,.32.47.37l3.11.32-1.05,7.87-12.6-1.19.91-8,4.08.42c.52.06.79-.06.82-.34-.43-1.16-.84-2.37-1.24-3.61s-.76-2.38-1.09-3.42a25,25,0,0,0-1.48-4,2.17,2.17,0,0,0-1.29-.46L398,16.23l.84-8.16,12.24,1.21-1.24,8.17-3.88-.4c-.44,0-.69,0-.74.1a.45.45,0,0,0,0,.32l.18.58c.08.27.21.64.37,1.09q.81,2.43,2.45,7.85,2.76-3.93,4.18-6c.94-1.39,1.59-2.33,2-2.84.74-1.06,1.15-1.67,1.25-1.83s.19-.24.3-.22a.3.3,0,0,1,.24.14c.05.09.15.32.3.68s.33.83.56,1.4q2.1,5.16,3.89,9.82,1.69-2.3,2.67-3.58l1.53-2,1-1.34.73-1a4,4,0,0,0,.32-.48c.12-.17,0-.31-.31-.44a2.32,2.32,0,0,0-.49-.1l-3.27-.34.61-8.19,12.48,1.24-1.24,8.18-3.34-.35c-.6-.06-1,0-1.11.14s-.42.49-.81,1l-1.41,1.81-1.75,2.3-1.74,2.28-1.93,2.5c-.17.22-.2.35-.08.39a3,3,0,0,0,.44.08l4.35.45-.59,8-12.23-1.32,1-7.87Z"/><path d="M384.51,24.05l1-9.71-8.32-.87-3.13,30.27,5.25.54-.52,5-16.49-1.7.52-5,5.14.53,3.13-30.27L362.82,12l-1,9.71-5-.51,1.52-14.75L391,9.82l-1.52,14.74Z"/><path d="M504.12,44.15l-.06-.37,4.82-.48.09.37c.95,3.83,4.93,5.84,10.52,5.29s8.83-3.42,8.44-7.41v0c-.33-3.4-2.74-5.08-8.16-5.74l-4.38-.51c-7.71-.91-11.58-4-12.14-9.61v0c-.6-6.35,4.58-11.35,12.53-12.13,7.55-.75,13.5,3.07,14.55,9.34l.07.4-4.82.48-.09-.37c-1-3.88-4.51-5.88-9.4-5.4-5.17.54-8.3,3.34-7.93,7.06v0c.32,3.15,2.84,4.91,8,5.5l4.38.52c8.1,1,11.73,3.84,12.32,9.73v0c.68,6.86-4.33,11.73-13.16,12.61C511.31,54.25,505.26,50.72,504.12,44.15Z"/><path d="M543.8,18.59c0-.41-.44-.58-1.19-.5l-6.35.63-1-7.82L546.6,9.61q2.31,26,2.59,28.89l.32,3.16c.07.73.76,1,2.06.9l4.65-.46.8,8-16.31,1.62-1.13-7.92,5-.5c.81-.08,1.27-.25,1.38-.5a1.91,1.91,0,0,0,.1-.92Z"/><path d="M580.32,48.35a24.76,24.76,0,0,1-9.61-.76,14.78,14.78,0,0,1-6.93-4.27,12.75,12.75,0,0,1-3.08-7.42A12.88,12.88,0,0,1,562.22,28a14.56,14.56,0,0,1,5.85-5.53,23.72,23.72,0,0,1,9-2.61,21.68,21.68,0,0,1,9.08.76,13.23,13.23,0,0,1,6.07,3.91,11.13,11.13,0,0,1,2.58,6.2c0,.58.08,1.12.08,1.62a7.2,7.2,0,0,1-.1,1.31l-30.35,3L564.12,33,592,30.25l-2.89.67A7.33,7.33,0,0,0,585.5,25a13.1,13.1,0,0,0-8.16-1.43A15.12,15.12,0,0,0,571,25.46a9.78,9.78,0,0,0-3.83,4,10.41,10.41,0,0,0-.94,5.85,10.34,10.34,0,0,0,2.1,5.52A9.88,9.88,0,0,0,573,44.09a16,16,0,0,0,6.79.6,16.93,16.93,0,0,0,6.67-1.85,10.83,10.83,0,0,0,3.92-3.62l4.76,1.52a13.47,13.47,0,0,1-3.31,3.59,18.2,18.2,0,0,1-5,2.63A27.89,27.89,0,0,1,580.32,48.35Z"/><path d="M619.6,44.46A24.76,24.76,0,0,1,610,43.7a14.7,14.7,0,0,1-6.93-4.27A12.75,12.75,0,0,1,600,32a12.81,12.81,0,0,1,1.53-7.88,14.53,14.53,0,0,1,5.84-5.53,23.72,23.72,0,0,1,9-2.61,21.84,21.84,0,0,1,9.08.76,13.23,13.23,0,0,1,6.07,3.91,11.13,11.13,0,0,1,2.58,6.2,15.65,15.65,0,0,1,.08,1.62,8.33,8.33,0,0,1-.09,1.31l-30.36,3-.36-3.68,27.88-2.76-2.89.68a7.33,7.33,0,0,0-3.61-5.93,13.1,13.1,0,0,0-8.16-1.43,15,15,0,0,0-6.32,1.9,9.72,9.72,0,0,0-3.84,4,10.41,10.41,0,0,0-.94,5.85,10.31,10.31,0,0,0,2.1,5.52,9.81,9.81,0,0,0,4.67,3.22,16,16,0,0,0,6.8.6A16.89,16.89,0,0,0,625.75,39a10.94,10.94,0,0,0,3.92-3.63l4.77,1.52a13.52,13.52,0,0,1-3.32,3.59,18.2,18.2,0,0,1-5,2.63A27.39,27.39,0,0,1,619.6,44.46Z"/><path d="M641,14.23l4.83-.48.58,5.89h.14c1.75-4,6.18-7.08,12.29-7.68,9.66-1,16.7,4.13,17.57,12.83v0c.86,8.72-5.09,15-14.64,16-6.08.6-11.16-1.52-13.62-5H648L649.5,51l-4.83.48ZM671.46,25.3v0c-.68-6.88-5.84-10.8-13.16-10.08-7.17.71-11.77,5.74-11.11,12.48v0c.66,6.72,6.2,10.74,13.33,10C667.85,37,672.13,32.12,671.46,25.3Z"/></g></svg>