<svg xmlns="http://www.w3.org/2000/svg" viewBox="0 0 475.99 60.83"><defs><style>.cls-1{fill:#231815}</style></defs><g id="font"><path d="M48.71 21.89c-2 0-4.07-.16-6.09 0a15.22 15.22 0 0 0-5 1.48c-2.65 1.22-4 4-4.21 6.79a4.54 4.54 0 0 0 1 3.72A10.06 10.06 0 0 0 38 36.4a10.39 10.39 0 0 0 5.24.5 4.92 4.92 0 0 0 2.22-.67 23.86 23.86 0 0 0 2.14-1.4 5.87 5.87 0 0 0 1.34-1.63 8.16 8.16 0 0 0 .66-2.73c.16-.88.35-1.76.54-2.64a5 5 0 0 0 .24-2.31 6.06 6.06 0 0 0-2.75-3.14c-1.51-.92-3.38-.41-4.94.12a7 7 0 0 0-3.59 2.16 7 7 0 0 0-1.36 4.42c.08 2.42 1.76 5.36 4.54 5 2.44-.31 3.29-3.28 3.52-5.34a3.92 3.92 0 0 0-1-3.67 4.56 4.56 0 0 0-2-1 6.14 6.14 0 0 0-1.54-.27c-.51 0-1 .26-1.49.29-.8 0-.81 1.29 0 1.25a8.1 8.1 0 0 1 2-.22 4.81 4.81 0 0 1 1.81.62 2.44 2.44 0 0 1 1 2.56c-.09 1.42-.47 3.43-1.75 4.29-1.92 1.3-3.54-1.32-3.8-2.92a6 6 0 0 1 .79-3.87 4.86 4.86 0 0 1 2.79-1.93c1.27-.45 3-1.16 4.29-.45a6.53 6.53 0 0 1 1.36 1.16 2.41 2.41 0 0 1 .93 1.52 8.47 8.47 0 0 1-.38 2c-.14.75-.33 1.49-.45 2.23a7.59 7.59 0 0 1-.4 2.07 4.17 4.17 0 0 1-1.35 1.6c-.5.34-1 .6-1.54 1a3.88 3.88 0 0 1-1.89.7 9.54 9.54 0 0 1-4.41-.29 9 9 0 0 1-3.1-2 3.28 3.28 0 0 1-1.08-3 8.69 8.69 0 0 1 1.1-3.68 5.72 5.72 0 0 1 3.07-2.48 13.35 13.35 0 0 1 4.6-1.1h5.35a.63.63 0 0 0 0-1.25ZM52.83 21.69v8.17a26.83 26.83 0 0 0 .38 3.69A14.68 14.68 0 0 0 53.8 37a.65.65 0 0 0 .61.45 4.72 4.72 0 0 0 2.22-.53c.65-.48.43-1.49.35-2.18-.24-2.17-.37-4.33-.67-6.48a15.74 15.74 0 0 1-.06-1.82c0-.59-.15-1.15-.21-1.74-.09-.86-.16-1.73-.26-2.59-.08-.63-.28-1.27-1-1.46a2.93 2.93 0 0 0-2.16.68.63.63 0 0 0 .63 1.08 8.31 8.31 0 0 1 .76-.44c.32-.14.36-.17.46.14a9.85 9.85 0 0 1 .2 1.73c.09.81.22 1.64.27 2.46a20.67 20.67 0 0 0 .14 2.49c.29 1.55.27 3.1.43 4.66a16.72 16.72 0 0 1 .25 2.23c0 .31 0 .26-.33.34a8 8 0 0 1-1.07.18l.6.46a15.28 15.28 0 0 1-.6-3.36 27.06 27.06 0 0 1-.33-3.72v-7.87a.63.63 0 0 0-1.25 0Z" class="cls-1"/><path d="M57.51 30a7.89 7.89 0 0 1 .65-3.66 8.82 8.82 0 0 1 2.47-2.73 3.29 3.29 0 0 1 1.65-.46 15.7 15.7 0 0 1 2-.17c.88 0 2.14-.3 2.78.44 1.73 2 1.44 4.76 1.83 7.15a30.32 30.32 0 0 0 .48 3.29c.25.92 1.07.9 1.83.7s1.53-.34 1.76-1.17a5.77 5.77 0 0 0 0-1.66v-2a24.74 24.74 0 0 0-1.52-7.22 3.4 3.4 0 0 0-1.68-2 21.4 21.4 0 0 0-3.46-1.44c-2-.48-4.28.44-5.92 1.46a9.17 9.17 0 0 0-2.69 2.5c-.39.53-.67 1.13-1.07 1.65a6.33 6.33 0 0 0-1 1.4 7.19 7.19 0 0 0-.4 3.67c.2 1 1.15 1.65 2 .94.61-.52-.28-1.4-.89-.88l-.16.14.44-.19c-.39 0 0-2.88.14-3.12a4.33 4.33 0 0 1 .78-1.12 13.67 13.67 0 0 0 .85-1.29 8.67 8.67 0 0 1 4.75-3.61 5 5 0 0 1 2.87-.29 9 9 0 0 1 1.5.63c.54.26 1.16.44 1.68.71a3.11 3.11 0 0 1 1.27 2.14c.31 1.12.63 2.21.85 3.34a22.58 22.58 0 0 1 .35 3.18v1.83a2.22 2.22 0 0 1 0 .63c-.11.41-.26.37-.64.46a1.8 1.8 0 0 1-.44.12c-.28-.08.07.27-.17-.18a4.52 4.52 0 0 1-.2-1.34c-.14-1.2-.39-2.4-.44-3.62A9.74 9.74 0 0 0 68 22.65c-1-1.27-2.68-1-4.1-.95a14 14 0 0 0-3.22.38 6.46 6.46 0 0 0-2.3 1.92 8.05 8.05 0 0 0-2.12 6 .63.63 0 0 0 1.25 0ZM76.5 28.05c2.25 0 4.49-.06 6.74-.1a63.06 63.06 0 0 0 6.59-.31c.9-.12 1.81-.23 2.72-.38a1.54 1.54 0 0 0 1.33-1.34 4.61 4.61 0 0 0 0-2.09 3 3 0 0 0-1.66-1.7c-1.54-.88-3.49-1.75-5.29-1.45s-3.61 1.66-5 2.73a3.22 3.22 0 0 0-1.31 1.82 13.13 13.13 0 0 0-.38 3.25c0 1.83.27 3.85 1.61 5.2 3.08 3.14 7.86 1.36 11.55.72.79-.14.45-1.35-.34-1.21-1.69.29-3.36.74-5.06 1a7.11 7.11 0 0 1-3.9-.4 4.2 4.2 0 0 1-2.45-3.27 10.52 10.52 0 0 1 .24-5.17c.27-.69 1.08-1.12 1.66-1.52a22.38 22.38 0 0 1 2.26-1.34A3.79 3.79 0 0 1 88 21.9a8.3 8.3 0 0 1 2.53.8 6.28 6.28 0 0 1 1.84 1.08 2.31 2.31 0 0 1 .22 2c-.25.42-1.47.4-1.89.46-.92.14-1.85.25-2.77.32-1.85.14-3.71.08-5.56.14s-3.94.08-5.91.08a.63.63 0 0 0 0 1.25ZM149 9.9c0 1.87.07 3.74 0 5.61-.06 2.1-.42 4.17-.56 6.27-.26 3.78 0 7.61-.22 11.4 0 1-.58 2.78.62 3.32a2.36 2.36 0 0 0 2.47-.48c.65-.79.26-2.41.33-3.35a15.69 15.69 0 0 1 1.1-4.78 12.55 12.55 0 0 1 2.81-4.26c.34-.34 1.11-1.29 1.65-1.25 1.09.1 1.33 2.44 1.43 3.18a41.49 41.49 0 0 1 .16 5.11v2.91a4.6 4.6 0 0 0 .1 1.85c.41.9 1.29.81 2.1.64 1.18-.25 2-.33 2-1.64 0-3.56.28-7.1.21-10.67a12.64 12.64 0 0 0-1.2-5.27 4.32 4.32 0 0 0-2.7-2.79 7.26 7.26 0 0 0-4.69.59 5 5 0 0 0-2 1.5c-.48.63-.57 1.4-1 2.05l1.15.15a22.34 22.34 0 0 1-.12-4.48v-4.6c0-.74.31-1.78-.4-2.31s-2.16.08-3 .09a.63.63 0 0 0 0 1.25 8.88 8.88 0 0 0 1.26-.08c.62-.09.77-.3.88.33a22.73 22.73 0 0 1 0 3.5 33.44 33.44 0 0 0 .16 6.64.63.63 0 0 0 1.14.15 11.7 11.7 0 0 0 .68-1.59 3.73 3.73 0 0 1 2.11-1.6c1.51-.59 3.75-1 4.82.56 1.78 2.57 1.74 5.68 1.75 8.65 0 1.53-.08 3-.22 4.56-.06.7-.08 1.4-.07 2.11v1.54-.1c-.28.31-1.51.44-1.71 0a7 7 0 0 1 0-2v-5.22c-.08-2-.14-5.4-2.48-6.22-.82-.29-1.35.18-1.93.7a16 16 0 0 0-2.31 2.48 15.56 15.56 0 0 0-2.77 7.14c-.15 1.07 0 2.26-.14 3.29 0 .29-.22.77-.67.6s-.25-.48-.29-.82a14.46 14.46 0 0 1 .16-2.78c.26-3.65-.17-7.33.2-11 .17-1.76.42-3.51.47-5.29s0-3.74 0-5.61a.63.63 0 0 0-1.25 0ZM142.81 19.89c0-1.63-1.94-2.37-3.27-2.7a13 13 0 0 0-2.85-.31 6.76 6.76 0 0 0-2.9.28c-1.42.6-3.32 1.93-3.7 3.51s-.08 3.14 1.58 3.93a6.1 6.1 0 0 0 2.57.45c.91 0 2.59-.39 3.41.09.43.27.64.94.86 1.37a2.68 2.68 0 0 1 .44 1.37 23.53 23.53 0 0 1-.31 3.13c-.13 1.11-.16 1.73-1.15 2.42s-2.26.42-3.48.17c-1-.22-2.06-.47-3.1-.6s-2.46 0-3.39-.65a3.33 3.33 0 0 1-1.1-2.33c-.11-.57 0-1.75-.46-2.18s-1.08-.18-1.57 0a8.09 8.09 0 0 0-2.16.73c-.49.38-.37.94-.19 1.45a33.46 33.46 0 0 0 .9 3.26 9.38 9.38 0 0 0 3.88 3.84c1.87 1 3.92 1 6 1.1a21.58 21.58 0 0 0 5.79-.12 5 5 0 0 0 3.75-2.75 14.49 14.49 0 0 0 .83-5.11c.13-1.91.36-4.39-.81-6.05-1-1.37-2.71-1.72-4.27-1.92a14.37 14.37 0 0 1-2.35-.37c-.37-.11-.87-.27-1-.69-.33-1.05 1.31-.43 1.74-.26a11.9 11.9 0 0 1 1.81.84 2.17 2.17 0 0 0 1.09.46c1.18.07 2.15-.8 3.27-1 .79-.14.46-1.34-.33-1.2s-1.61.81-2.47.89c-.65.07-1-.31-1.57-.58s-1-.42-1.46-.61c-1.27-.5-3.11-.87-3.33 1-.34 2.78 3.89 2.54 5.59 2.91a3.33 3.33 0 0 1 2.9 3.49 29.55 29.55 0 0 1-.21 5.4c-.21 2-.89 3.59-2.91 4.19a16.6 16.6 0 0 1-5.67.24c-2-.13-4.09 0-5.87-1a7.18 7.18 0 0 1-3.63-4.38 15 15 0 0 0-.33-1.62c-.15-.43-.25-.38.23-.52s.71-.22 1-.34c.11 0 .35-.08.41-.16s0-.61-.08-.26a7.35 7.35 0 0 0 .43 2.53 4 4 0 0 0 1 1.8c1.24 1.24 3.17 1 4.77 1.29s3.67 1.09 5.46.87a3.84 3.84 0 0 0 3.16-2.7 21.62 21.62 0 0 0 .47-4.87 5.93 5.93 0 0 0-.94-2.37 2.44 2.44 0 0 0-1.76-1.42c-1.72-.33-5.14.88-6.2-1.09-.61-1.11.27-2.51 1.12-3.17a5.07 5.07 0 0 1 3-1.42 15.11 15.11 0 0 1 3.49.23c.73.15 2.6.55 2.62 1.55a.63.63 0 0 0 1.25 0ZM177.23 17c-1.9 0-4-.35-5.88.15a5.59 5.59 0 0 0-3.55 3.1 4.38 4.38 0 0 0-.26 2.21 5.71 5.71 0 0 0 .43 2.17 5.59 5.59 0 0 0 1.7 1.69 8 8 0 0 0 1.15.77c.24.12.64.11.82.24l.15-1.14c-1.72.49-3.25.68-4.28 2.3a6.4 6.4 0 0 0-1.06 4.51 5.28 5.28 0 0 0 2.65 3.56 4.16 4.16 0 0 0 2.61.14 17.24 17.24 0 0 0 2.77-.68c.73-.31.41-1.52-.33-1.21a12.1 12.1 0 0 1-1.8.43 5.29 5.29 0 0 1-2.26.32 3.72 3.72 0 0 1-2.43-2.89 5.24 5.24 0 0 1 .85-3.44c.84-1.35 2.2-1.43 3.61-1.83a.63.63 0 0 0 .15-1.14 1.59 1.59 0 0 0-.55-.2 3.33 3.33 0 0 1-1.05-.56 5.3 5.3 0 0 1-1.56-1.38 4.66 4.66 0 0 1-.34-1.93 3 3 0 0 1 .42-1.92c1.75-2.79 5.24-2 8-2a.63.63 0 0 0 0-1.25ZM186 17.33a5.81 5.81 0 0 0-2.45.3 6.19 6.19 0 0 0-1.98 1.37 8.43 8.43 0 0 0-2 4.35c-.33 1.49.58 2.33 1.88 2.85s3.34.91 4.55.13a.64.64 0 0 0-.15-1.15c-3.28-.93-5.15 2.49-5.25 5.29-.16 4.18 5.44 3.34 8.11 3.34a.63.63 0 0 0 0-1.25h-4.2c-1.23 0-2.6-.39-2.66-1.87a4.25 4.25 0 0 1 .25-1.45 6.23 6.23 0 0 1 .62-1.74 2.48 2.48 0 0 1 2.8-1.11l-.15-1.14c-.84.54-2.48.15-3.35-.17-.38-.14-1-.38-1.23-.76s.13-1.13.26-1.56a6 6 0 0 1 1.58-3.05 4.59 4.59 0 0 1 1.52-1 5.48 5.48 0 0 1 1.81-.13.63.63 0 0 0 0-1.25ZM192.74 18.28c0 4.74-.16 9.51.06 14.23s1.39 9.31 2 14c.3 2.22.79 4.38 1.22 6.58.3 1.53 1.09 1.32 2.37.78 1.67-.71 2.47-1.18 2.06-3a75.68 75.68 0 0 1-1.45-7.58c-.32-2.62-.52-5.26-.6-7.9v-4a11.86 11.86 0 0 0 0-1.79 8.58 8.58 0 0 1-.4-1.6l-.62.62c1.42.06 2.81.35 4.25.33a4.81 4.81 0 0 0 2.82-1.44c1.84-1.46 3.51-3.42 2.53-5.91s-3.56-3.12-5.83-3.61c-2.69-.58-5.81-.91-8.46 0-.76.27-.43 1.48.33 1.21a13.78 13.78 0 0 1 6.48-.2c1.85.27 4.4.65 5.72 2.11 2.06 2.27-.18 4.53-2 5.89a4.73 4.73 0 0 1-1.2.75 5.73 5.73 0 0 1-1.49 0c-1 0-2.05-.27-3.08-.31a.65.65 0 0 0-.63.63 22.07 22.07 0 0 0 .35 2.26c.06 1 0 2 0 3 0 2.16.11 4.32.28 6.48.16 2 .37 3.94.67 5.9.14 1 .32 1.91.53 2.86s.87 2.26.72 3.21c-.08.56-.57.65-1.1.88 0 0-1.23.4-.87.65a8 8 0 0 1-.45-2c-.48-2.06-.72-4.17-1-6.26-.58-4.15-1.62-8.25-1.82-12.46-.22-4.72-.06-9.49-.06-14.23a.63.63 0 0 0-1.25 0ZM263.12 20.13h7.94c2.38 0 5 .34 7.34-.32.65-.18 1.59-.26 2-.86s.14-1.47 0-2.12a35.13 35.13 0 0 0-1-3.47q-.3-.94-.63-1.89a3.06 3.06 0 0 1-.31-1l-.46.6a25.43 25.43 0 0 1 3.26-.26c.73-.06 1.55-.33 2.27-.32l-.6-.46a9.21 9.21 0 0 1 .19 2.47c.07 1 .08 1.9.08 2.86v3a6.53 6.53 0 0 0 0 1.82.64.64 0 0 0 .77.43 8.56 8.56 0 0 0 1.44-.52 16.11 16.11 0 0 1 2-.51 31.7 31.7 0 0 1 4-.91l-.61-.46a10.93 10.93 0 0 1 .08 3.7 8.52 8.52 0 0 1-.1 1.24c-.15.82-.48.86-1.31.93-2.16.2-4.44-.07-6.62-.08a.64.64 0 0 0-.6.46 20.69 20.69 0 0 0-.54 4 28.23 28.23 0 0 0-.48 4.67c.07 2 1.21 4.6 3.38 5.08 1 .21 1.55-.43 2.27-1a3.29 3.29 0 0 0 1.45-2.39c.12-.79 0-1.58.09-2.37s.35-1 1.14-.94a2.6 2.6 0 0 1 .79 0c.25.11.16.22.14.65 0 1 0 1.89-.11 2.85-.41 3.09-1.22 6.09-4.7 6.72a14.22 14.22 0 0 1-4.24.53c-1.69-.22-2.41-2.23-2.83-3.65a20.8 20.8 0 0 1-.61-9.91c.27-1.22.84-2.38 1.11-3.58.19-.84-.24-1.33-1-1.56a16.18 16.18 0 0 0-4.17-.2 31 31 0 0 1-5.19-.29c-.79-.12-1.57-.14-2.37-.19-1.05-.06-2-.39-3-.53-.7-.09-.87.07-.68-.79a12.9 12.9 0 0 0 .44-1.73c.09-.8-1.16-.79-1.25 0-.09.94-.9 2.08-.45 3.05s2.21.83 3 1c1.59.33 3.23.3 4.83.54a29.32 29.32 0 0 0 4.68.19c.89 0 1.78 0 2.67.06.5 0 1.17-.15 1.18.46a7.7 7.7 0 0 1-.58 1.8 20.76 20.76 0 0 0-.61 2.68 23 23 0 0 0 .79 9.39c.74 2.47 2 4.7 4.89 4.57a24.47 24.47 0 0 0 4.07-.65 5.88 5.88 0 0 0 3.11-1.7c2-2.22 2.32-5.72 2.28-8.58 0-.75.2-2-.71-2.3a6.07 6.07 0 0 0-1.48 0 3.89 3.89 0 0 0-1.48.1c-1.34.52-.85 2.42-.91 3.51a2.79 2.79 0 0 1-1.4 2.61 1.35 1.35 0 0 1-2-.25c-1.58-1.58-1.3-3.82-1.05-5.82.12-.9.26-1.8.36-2.7a13.28 13.28 0 0 1 .41-2.95l-.61.46c1.6 0 3.2 0 4.79.08a7.87 7.87 0 0 0 3.64-.38c1-.51.75-1.65.82-2.62a13.08 13.08 0 0 0-.09-4.46.62.62 0 0 0-.6-.45 28.42 28.42 0 0 0-3.87.85c-.64.16-1.3.27-1.93.46s-1.24.55-1.91.68l.77.43a9.69 9.69 0 0 1 0-2.22v-3.24c0-.84-.1-1.67-.14-2.51a6.44 6.44 0 0 0-.18-2.19.64.64 0 0 0-.6-.46c-.9 0-1.81.3-2.72.35a19.39 19.39 0 0 0-3.14.28.63.63 0 0 0-.46.6 3.89 3.89 0 0 0 .38 1.37c.37 1 .7 2.1 1 3.16.17.56 1 2.54.74 3.12s-2.69.74-3.1.75c-4.37.14-8.78 0-13.15 0a.63.63 0 0 0 0 1.25ZM296.71 22.45h2.8a7.61 7.61 0 0 1 1.5-.07c.4.09.37.13.46.53s.12.73.19 1.09c.16.83.37 1.66.53 2.5a35.08 35.08 0 0 0 1 4.53c.37 1.13.47 2.5 1.17 3.47.24.34.87.47 1.08 0 .49-1.08.68-2.26 1.07-3.38a30.81 30.81 0 0 0 1.23-4c.11-.54.28-2.51.83-2.79a6.73 6.73 0 0 1 1.79 0 15 15 0 0 1 1.9 0l-.62-.63c.16 1.54-.42 3.27-.58 4.82a22.49 22.49 0 0 0-.09 4.85.63.63 0 0 0 .94.54c.84-.39 1.26-1.64 1.6-2.43a33.11 33.11 0 0 0 1.49-4.64c.42-1.53.78-3.1 1.28-4.61a1.93 1.93 0 0 1 1.94-1.47 11.25 11.25 0 0 1 2.32 0l-.62-.63c.16 1.23-.47 2.57-.77 3.75s-.66 2.56-1 3.82c-.78 2.53-1.68 5-2.51 7.53-.38 1.18-.76 2.36-1.12 3.54-.3 1-.47 2.83-1.45 3.31a4.23 4.23 0 0 1-2 .26 4.6 4.6 0 0 1-1.35-.1c-.77-.39-.87-2.55-1-3.28-.09-.51-.72-.54-1-.28A9.89 9.89 0 0 0 306 41c-.32.47-.65.93-1 1.42-.49.76-1 1-1.55 0a18.36 18.36 0 0 1-.58-1.82c-.19-.51-.41-1-.62-1.52-.49-1.18-.89-2.4-1.27-3.62s-.71-2.36-1.16-3.51-1-2.19-1.34-3.35a26.69 26.69 0 0 1-.91-3.73 14.13 14.13 0 0 0-.37-1.62 4.16 4.16 0 0 0-.32-1.37.63.63 0 0 0-1.08.63 9.24 9.24 0 0 1 .38 1.63c.2.77.21 1.57.36 2.34a21.33 21.33 0 0 0 1.2 3.81c.65 1.55 1.28 3.06 1.78 4.67.45 1.43.88 2.87 1.45 4.27s.9 2.8 1.48 4.12a1.7 1.7 0 0 0 1.82 1.06c.92-.06 1.36-.68 1.81-1.39.34-.54.72-1 1.07-1.58a7.79 7.79 0 0 1 1.34-1.87l-1-.28a9.26 9.26 0 0 0 .92 3.49c.57.81 1.57.75 2.46.79 1.11.06 2.57 0 3.43-.78s1-2.23 1.26-3.25c1-3.27 2.14-6.48 3.2-9.73.54-1.63 1-3.27 1.46-4.93.37-1.48 1.17-3.22 1-4.75a.65.65 0 0 0-.63-.62 7.56 7.56 0 0 0-4.13.46c-1.1.62-1.33 2-1.65 3.07-.51 1.83-1 3.67-1.53 5.48a22.67 22.67 0 0 1-1 2.79c-.21.46-.51 1.36-1 1.57l.94.54a22.48 22.48 0 0 1 .09-4.85c.16-1.55.74-3.26.58-4.82a.65.65 0 0 0-.63-.62 21.85 21.85 0 0 0-2.29 0 15.33 15.33 0 0 0-1.66 0c-.95.12-1.16 1-1.34 1.8a36.18 36.18 0 0 1-1.07 4.28c-.26.76-.57 1.5-.81 2.26a20.49 20.49 0 0 1-.73 2.46h1.08a6.76 6.76 0 0 1-.74-2.29c-.23-.77-.51-1.52-.69-2.3-.42-1.86-.75-3.75-1.11-5.62-.18-1-.09-2.3-1.31-2.51a7.5 7.5 0 0 0-1.57.05c-1.09.05-2.18 0-3.27 0a.63.63 0 0 0 0 1.25ZM337.06 23.27a9.76 9.76 0 0 0-3.81.25 10.81 10.81 0 0 0-3.19 2.48 15.29 15.29 0 0 0-2.48 3 8.43 8.43 0 0 0-1 3.37c-.3 2.44.09 4.87 2.48 6.05a11.21 11.21 0 0 0 7.1 1 10.75 10.75 0 0 0 3.58-1.29 14.22 14.22 0 0 0 1.4-1.17 14.18 14.18 0 0 0 1.51-1.28 14.42 14.42 0 0 0 2.1-3.15 5.65 5.65 0 0 0 .32-3.54 14.84 14.84 0 0 0-1.57-3.88 4.39 4.39 0 0 0-2.15-2.35c-2.57-.81-4.86.58-6.73 2.24-2.18 1.92-4.24 3.75-4.92 6.69a7.51 7.51 0 0 0 0 4.33 8.89 8.89 0 0 0 2.46 3.53c.57.57 1.46-.32.88-.88a7.84 7.84 0 0 1-1.92-2.44 5.69 5.69 0 0 1-.31-3.62 9 9 0 0 1 2.91-5.1c1.59-1.44 3.39-3.5 5.67-3.75a2.45 2.45 0 0 1 2.45 1 15.87 15.87 0 0 1 1.57 3.07 6.35 6.35 0 0 1 .55 3.19 7.78 7.78 0 0 1-1.61 3 10.43 10.43 0 0 1-2.06 2 7.32 7.32 0 0 1-2.78 1.66 10.21 10.21 0 0 1-3.24.6 11.66 11.66 0 0 1-3.16-.51 6.54 6.54 0 0 1-2.25-1 3.79 3.79 0 0 1-1.1-3.15 8.93 8.93 0 0 1 .62-3.47 9.87 9.87 0 0 1 2.06-2.74 15.49 15.49 0 0 1 2.72-2.4c1.17-.75 2.61-.47 3.92-.46a.63.63 0 0 0 0-1.25Z" class="cls-1"/><path d="M336.88 24.47a1.69 1.69 0 0 1 1.43 1.13 27 27 0 0 1 1.23 2.47 7.71 7.71 0 0 1-.46 5.81 7.6 7.6 0 0 1-1.63 2.12 12.12 12.12 0 0 1-2.14 1.47 8.25 8.25 0 0 1-2.45 1.08c-.26.06-1.25.35-1.43.17-.58-.56-1.46.32-.89.89s1.39.37 2 .26a8.59 8.59 0 0 0 2.77-1c2-1.12 3.92-2.44 4.91-4.63a8.74 8.74 0 0 0 .33-6.94c-.25-.6-.59-1.17-.89-1.74a6.6 6.6 0 0 0-.6-1.15 2.8 2.8 0 0 0-2.23-1.23.63.63 0 0 0 0 1.25ZM378.65 23a24.08 24.08 0 0 0-4.73.09 7.79 7.79 0 0 0-3.39 1.71 8.65 8.65 0 0 0-3.1 4.93c-.17.61-.46 1.18-.15 1.79.44.88 1.62 1.08 2.49 1.19a37.47 37.47 0 0 0 4.49.29h1.17c.39 0 .38-.09.54.17a4.48 4.48 0 0 1 .11 1.64 7.18 7.18 0 0 1-1.19 4.12c-1.19 1.62-3.47.74-4.91.05-.77-.37-1.55-.72-2.31-1.11s-1.4-.67-2-1.06v1.08a29.93 29.93 0 0 1 2.61-1.9l-.76-.1c.53.51 1 1.13 1.47 1.67s1.17 1.31 1.79 1.94c.95 1 1.82 2 3.27 2.09 2.84.15 4.75-2.56 5.65-4.93s1.67-6-.94-7.62a6.09 6.09 0 0 0-3.14-.67c-.34 0-1 0-1.32-.2s-.17-.08 0-.27.61-.35.88-.55.78-.73 1.12-.71.67.54.93.8a1.44 1.44 0 0 0 1.64.34c1.62-.61 1.11-2.63.89-4-.13-.8-1.33-.46-1.2.33a5.73 5.73 0 0 1 .18 2.14c-.29.91-1.05-.25-1.37-.51-.95-.75-1.86-.25-2.72.4s-2 .93-1.77 2a1.74 1.74 0 0 0 1.6 1.28c.86.16 1.73 0 2.58.2a2.75 2.75 0 0 1 2.18 3.38c-.22 2.5-1.25 5.75-3.63 7a2.79 2.79 0 0 1-2.1.23 5.81 5.81 0 0 1-1.76-1.52c-.62-.63-1.19-1.3-1.79-1.94s-1-1.24-1.58-1.78a.62.62 0 0 0-.75-.1 30.51 30.51 0 0 0-2.61 1.9.63.63 0 0 0 0 1.08c.56.35 1.19.62 1.77.93s1.36.66 2 1a9.64 9.64 0 0 0 3.92 1.28c3 .08 4.3-2.81 4.54-5.39a6.37 6.37 0 0 0-.29-3.33 1.29 1.29 0 0 0-1.05-.63c-.77-.07-1.58 0-2.35 0a20.65 20.65 0 0 1-4.37-.38 1.6 1.6 0 0 1-.67-.25c-.25-.26-.06-.57 0-.89a9 9 0 0 1 .84-2.25 8.19 8.19 0 0 1 3.63-3.31c1.74-.76 3.73-.43 5.58-.41a.63.63 0 0 0 0-1.25ZM389.93 14.69a41.76 41.76 0 0 1-.31 7.07c-.39 2.29-1 4.54-1.34 6.83s-.64 4.51-.84 6.77c-.1 1.09-.2 2.19-.24 3.29a11.26 11.26 0 0 0 .06 3.07.65.65 0 0 0 .61.46 3.62 3.62 0 0 0 1.64-.54 7.1 7.1 0 0 0 1.42-.67 1.67 1.67 0 0 0 .53-1.25c.07-.86.06-1.73.11-2.59.1-1.79.16-3.58.27-5.37s.65-3.79.93-5.69.59-3.8.92-5.69a22.81 22.81 0 0 0 .67-5.06c0-.67 0-1.68-.66-2.07a1.31 1.31 0 0 0-1.19 0 22.81 22.81 0 0 1-2.33.62c-.79.16-.46 1.37.33 1.21.57-.12 1.15-.24 1.71-.4a3.32 3.32 0 0 1 .58-.2c.32 0 .09-.21.25.22.39 1-.06 2.47-.23 3.41-.51 2.85-.94 5.7-1.4 8.55-.2 1.28-.51 2.54-.69 3.82a35.82 35.82 0 0 0-.18 3.73c-.05 1.36-.23 2.72-.32 4.08-.06.8 0 1.44-.66 1.94a4.3 4.3 0 0 1-1.7.7l.6.46a12 12 0 0 1 0-3.44c.07-1.18.17-2.36.29-3.54.23-2.3.53-4.6.94-6.88.38-2.12.94-4.21 1.25-6.35a46.88 46.88 0 0 0 .21-6.49.63.63 0 0 0-1.25 0ZM397.88 29a20.54 20.54 0 0 0 4.83-.28c1.56-.37 3.08-.88 4.62-1.28.53-.14 1.2-.24 1.51-.76a3.08 3.08 0 0 0 .1-1.9 3 3 0 0 0-2.54-2.24 5.44 5.44 0 0 0-3.27.12 4.62 4.62 0 0 0-2.35 2.72c-.24.68-.39 1.38-.56 2.07a7 7 0 0 0-.31 2.12 3.4 3.4 0 0 0 .7 1.53 5.18 5.18 0 0 0 1.29 1.43 5.23 5.23 0 0 0 1.92 1.08 6 6 0 0 0 2.24 0 10.29 10.29 0 0 0 2.35-.66 3.2 3.2 0 0 0 1.71-1.06c.48-.65-.61-1.27-1.08-.63-.24.33-.76.41-1.11.55a9.71 9.71 0 0 1-1.72.52 3.8 3.8 0 0 1-3-.45 5.28 5.28 0 0 1-1.93-2.13 2 2 0 0 1 0-1.27c.13-.59.27-1.18.43-1.77a4.7 4.7 0 0 1 1.49-2.7 3.25 3.25 0 0 1 2.33-.4c.73.1 1.86.31 2.14 1.1a2.36 2.36 0 0 1 .11.79 1.61 1.61 0 0 1 0 .38c-.06.16.08 0-.05.13s-.54.15-.71.19l-1.05.28c-1.26.34-2.51.77-3.78 1.05a19.23 19.23 0 0 1-4.29.19.63.63 0 0 0 0 1.25ZM414 27.7a14.93 14.93 0 0 0 3.37-.62c1.13-.28 2.27-.41 3.42-.6.47-.07 1-.09 1.43-.2a11.36 11.36 0 0 0 1.39-.47 5.19 5.19 0 0 0 2.47-1.64.64.64 0 0 0 0-.64 5.34 5.34 0 0 0-1.71-1.41 6.55 6.55 0 0 0-2.39-.87 3.13 3.13 0 0 0-3.34 2.07c-.11.36-.29.7-.37 1.06a4.43 4.43 0 0 0-.07 1.31 9.8 9.8 0 0 0 .55 2.79 8.53 8.53 0 0 0 1 2.05 3.44 3.44 0 0 0 1.66 1.14 3.62 3.62 0 0 0 2.47 0l1.29-.47a3.09 3.09 0 0 0 1.15-.44c.62-.51-.27-1.39-.88-.88.15-.13-.16 0-.24 0a3.42 3.42 0 0 0-.54.18l-1.21.44a2.47 2.47 0 0 1-1.94-.11 2.54 2.54 0 0 1-1.22-1.5 9 9 0 0 1-.71-2.37 7.6 7.6 0 0 1-.1-1.35 3.08 3.08 0 0 1 .28-1.08 2.27 2.27 0 0 1 .41-.94 3.86 3.86 0 0 1 .83-.55c.59-.32 1.41 0 2 .23a4.71 4.71 0 0 1 1.23.7 2.69 2.69 0 0 1 .8.66v-.64a3.07 3.07 0 0 1-1.16.79 7.38 7.38 0 0 1-1.3.53 11.35 11.35 0 0 1-2.52.49 27.37 27.37 0 0 0-3 .54 13.7 13.7 0 0 1-3 .57.63.63 0 0 0 0 1.25ZM432 52.82a114.86 114.86 0 0 1 1.19-16.26c.36-2.46.73-4.9 1.05-7.35a28.73 28.73 0 0 0 .2-3.71v-1.78c0-.77-.06-.86.76-1a32.48 32.48 0 0 1 3.28-.29c1.51 0 1.95.78 2.66 1.95.18.3.47.6.62.91a3.92 3.92 0 0 1 .12 1.74 3.68 3.68 0 0 1-.12 1.48c-.29.69-1.1 1.05-1.73 1.37-1.49.78-3.76 1.22-3.87 3.23a58.78 58.78 0 0 1-.79 7.47c-.24 1.38-.46 2.76-.6 4.16-.08.79-.12 1.58-.18 2.37s-.24 1.28-.31 1.93a10.42 10.42 0 0 1-.36 3.09c-.23.54-.47.63-1 .66h-.47c-.4.06-.36-.26-.44.17.15-.79-1.06-1.13-1.2-.34-.29 1.58 2 1.62 3 1.31 1.94-.59 1.49-3.54 1.73-5s.34-3.08.51-4.63c.21-1.81.59-3.58.85-5.37.2-1.34.28-2.69.45-4 .1-.81-.14-1.84.45-2.52a7.36 7.36 0 0 1 2.09-1c1-.49 2.33-1 2.89-2.09a7 7 0 0 0 .34-3.54 5.23 5.23 0 0 0-1.12-2.27 4.62 4.62 0 0 0-2-2.14 8.74 8.74 0 0 0-3.81 0c-.88.11-2.37-.05-2.9.87-.44.74-.17 2-.17 2.78a40.29 40.29 0 0 1-.36 5.38c-.48 3.58-1 7.13-1.4 10.72-.2 1.95-.49 3.89-.62 5.84s-.06 3.92-.06 5.88a.63.63 0 0 0 1.25 0ZM455.83 33.28c-.15-.17-.29-.34-.43-.52l-.1-.14a4 4 0 0 1-.22-.34 3 3 0 0 1-.15-.31v-.05a1.94 1.94 0 0 1-.05-.2s0-.05 0-.07 0 .11 0 0v-.24.06a.53.53 0 0 1 .05-.19s-.06.1 0 0a.59.59 0 0 0 0-.08v-.06c-.06.1 0 0 0 0l.14-.15.06-.06c-.08.08 0 0 0 0l.1-.05c.05 0 0 0 0 0h.1s-.14 0 0 0-.11 0 0 0-.1 0 0 0a.73.73 0 0 1 .09.08s.08.1 0 0l.1.18s0 .09 0 0v.05l.06.19V31.55a.57.57 0 0 0 0 .13c0 .29 0 .58.05.86a4.35 4.35 0 0 1 0 .51v.13c0 .04 0-.14 0 0a1.42 1.42 0 0 1 0 .22c0 .12 0 0 0 0a.59.59 0 0 0 0 .08c0 .11.08-.09 0 0s.11-.08 0 0 .17-.06.07 0 .19 0 .07 0h.06c-.05 0-.08 0 0 0s.16.12.11.07.09.12.06.06-.05-.09 0 0 0 0 0-.06 0 .14 0 0a1.08 1.08 0 0 1 0-.18v-.6a4.37 4.37 0 0 0-.17-1.14v-.23c0-.02 0 .11 0 0v-.31a.71.71 0 0 0 0-.14v.08-.06.08c0 .01.06-.1 0 0s0 .05 0 0-.12.08-.07.06h-.1l-.48-.06s-.13-.18-.09-.09c0-.09 0-.1 0 0v-.14c0-.07 0 0 0 0a.19.19 0 0 1 .07-.11.62.62 0 0 0-.23.85.64.64 0 0 0 .86.23 1 1 0 0 0 .44-1.22 1 1 0 0 0-.44-.55.74.74 0 0 0-.87.16c-.46.45-.32 1.2-.21 1.77 0 .19.08.39.13.58s0-.21 0 0a1 1 0 0 1 0 .17v.4c-.05.64.06 1.44.83 1.58 1.32.24 1.34-1.48 1.29-2.35a4.61 4.61 0 0 0-.18-1.34 2.05 2.05 0 0 0-.77-1.06 1.27 1.27 0 0 0-1.4.07 2.15 2.15 0 0 0-.88 1.13 2 2 0 0 0 .06 1.21 5.68 5.68 0 0 0 1.21 1.82.62.62 0 0 0 .88 0 .63.63 0 0 0 0-.88Z" class="cls-1"/><path d="M402.4 32.69a5.31 5.31 0 0 1-.4 1.76c-.23.62-.42 1.25-.67 1.85 0 .08-.14.26-.12.34s.09-.2.16-.13h-.18c-.19 0-.38 0-.57.08a1.73 1.73 0 0 0-1.29 1 3.25 3.25 0 0 0-.11 1.35c0 .59 0 1.16.43 1.61a2.19 2.19 0 0 0 3-.24 2.24 2.24 0 0 0 .42-1.68 2.7 2.7 0 0 0-.89-1.7c-.61-.52-1.5.36-.89.89a1.05 1.05 0 0 1 .42.55 1.57 1.57 0 0 1 .13.71.74.74 0 0 1-.86.69c-.13 0-.39 0-.48-.14s0-.54 0-.69-.14-.81.13-1 .77-.13 1.18-.28.64-.73.83-1.23.43-1.2.64-1.81a5.71 5.71 0 0 0 .4-2 .63.63 0 0 0-1.25 0ZM405.65 33.18a12.81 12.81 0 0 0 .17 2.15c.06.33.11.66.19 1 0 .15.09.3.14.44s.09.2.14.3v.09c0 .07 0 .06 0 0l.08-.31c-.08.15-.33.26-.46.38a1.8 1.8 0 0 0-.42.45 1.89 1.89 0 0 0-.19 1.32 2 2 0 0 0 .51 1.12 1.54 1.54 0 0 0 1.33.31 3.18 3.18 0 0 0 .6-.18 3.09 3.09 0 0 0 .57-.23c.38-.26.42-.77.49-1.18a3 3 0 0 0-.05-1.46 1.48 1.48 0 0 0-1-.86.63.63 0 0 0-.75.48.64.64 0 0 0 .44.77c.25.09.19.23.19.54a3.09 3.09 0 0 1-.07.52 1.18 1.18 0 0 1-.08.39l.23-.23a2 2 0 0 1-.43.16 1.85 1.85 0 0 1-.4.12c-.22 0-.23-.06-.28-.26a.92.92 0 0 1 0-.71c.17-.26.52-.39.73-.61a1 1 0 0 0 .14-1.14 4 4 0 0 1-.32-1 12.36 12.36 0 0 1-.22-2.34.63.63 0 0 0-1.25 0ZM419.73 30.57a6.29 6.29 0 0 1-.71 1.36c-.3.49-.57 1-.85 1.48 0 0-.07.12-.08.16s-.06 0 0 0 .13-.1.15-.07h-.14a6.08 6.08 0 0 0-.61 0 1.61 1.61 0 0 0-1.26.65 2 2 0 0 0-.51 1.54 1.49 1.49 0 0 0 1 1.17 3.68 3.68 0 0 0 1.44.09 2.42 2.42 0 0 0 1.39-.71 1.61 1.61 0 0 0 .39-1.43c0-.62-.5-1.32-1.19-1.29s-.81 1.28 0 1.25c-.25 0-.07-.12-.08 0v.16a2 2 0 0 1 0 .35v.05c0-.06 0 .07 0 0l-.13.1a1.49 1.49 0 0 1-.2.15 1 1 0 0 1-.54.12 5.65 5.65 0 0 1-.59 0c-.15 0-.17 0-.24-.17s0-.2.06-.32a1.11 1.11 0 0 1 .37-.46c-.09 0 .1 0 0 0h.3a3.88 3.88 0 0 0 .59 0c.57-.06.82-.46 1.07-.92s.56-1 .85-1.48a6.3 6.3 0 0 0 .73-1.47.62.62 0 0 0-1.2-.34ZM423 31.72a3.21 3.21 0 0 0 .55 1.71c.14.26.31.49.46.74l.2.33.08.13a.46.46 0 0 1 0-.26l.16-.28h-.09l-.22.11a2.18 2.18 0 0 0-.37.2 1.67 1.67 0 0 0-.53.56 1.85 1.85 0 0 0-.14.81c0 .46-.08.91.27 1.27a1.8 1.8 0 0 0 2.46 0 3.75 3.75 0 0 0 .51-.38 1.69 1.69 0 0 0 .39-.69 2 2 0 0 0 .08-1.46 1.34 1.34 0 0 0-1.14-.78.65.65 0 0 0-.62.63.62.62 0 0 0 .62.62s-.07 0-.08 0 .13.11.08.08 0 .11 0 0v.18a.89.89 0 0 1-.33.67c-.26.17-.44.36-.68.36h-.05c.09 0 0 0 0 0h-.28c-.02 0 0 0 0 0a.08.08 0 0 1 0 .07v-.79c0-.09.06 0 .07-.05l.13-.09.32-.14a.93.93 0 0 0 .61-.78 1.8 1.8 0 0 0-.37-.85c-.2-.36-.44-.69-.64-1a1.72 1.72 0 0 1-.29-.92.64.64 0 0 0-.63-.63.63.63 0 0 0-.62.63ZM234.34 21.76c-.8 0-1.8-.24-2.26.61a2.89 2.89 0 0 0-.28.92c-.05.31-.12.61-.16.92a2 2 0 0 0 .21 1.42 1.73 1.73 0 0 0 1.12.67 1.68 1.68 0 0 0 1.73-1.16 5.61 5.61 0 0 0 .39-1.2 8.26 8.26 0 0 0 .06-1.65.63.63 0 1 0-1.25 0v1.17a.57.57 0 0 1 0 .13s0-.1 0 0l-.06.25c0 .16-.08.32-.13.47s0 .09-.05.13 0 .07 0 .07l-.18.33-.05.07c-.07.1 0 0 0 0a.71.71 0 0 1-.12.13l-.06.06c0 .06.13-.08 0 0h-.06c-.09.06.1 0 0 0h.05-.07s.17 0 0 0h-.09L233 25c.13 0 0 0 0 0l-.11-.06c.12.08 0 0 0 0s0 .09 0 0v-.08s0-.11 0 0v-.11a2.64 2.64 0 0 1 0-.28v-.11a1.7 1.7 0 0 0 0-.22c0-.12.05-.23.07-.35a3.62 3.62 0 0 1 .14-.67v-.08c0-.12-.07.12 0 0v-.06c.05-.12-.08.12 0 0h.05-.14H234.27a.63.63 0 0 0 0-1.25Z" class="cls-1"/><path d="M230.17 20.74a3.72 3.72 0 0 0-2.54.46 2.26 2.26 0 0 0-1 2.11 1.65 1.65 0 0 0 1.21 1.81 3.56 3.56 0 0 0 2.58-.44.63.63 0 0 0-.32-1.17 3.37 3.37 0 0 0-2.54 4.71 2.84 2.84 0 0 0 2.44 1.35 3.24 3.24 0 0 0 1.47-.25c.49-.19.66-.55 1-.88l-1.05-.28a9.63 9.63 0 0 0 .79 2.12 2 2 0 0 0 2 .92 2.86 2.86 0 0 0 2.13-1.5 3.73 3.73 0 0 0 .36-1.22v-.47c-.05.23-.15.06.06.07a1.27 1.27 0 0 0 .38-.07 4.4 4.4 0 0 0 2.36-1.68c.48-.66 1.05-1.48.43-2.24a2.7 2.7 0 0 0-1.92-.75 1 1 0 0 0-.24 0l.1.17c.07.21.11.24.13.1a1.83 1.83 0 0 0 .17-.45c.19-.51.35-1 .5-1.57.26-1 .27-2.17-.83-2.62s-2.12.28-3 .84h.63c-.14-.09-.28-.59-.39-.74a1.91 1.91 0 0 0-.73-.59 4.11 4.11 0 0 0-2.35-.28 2.52 2.52 0 0 0-1.89.95 3 3 0 0 0-.25 2.19c.14.79 1.35.46 1.21-.33-.09-.48-.14-1.09.33-1.38a3 3 0 0 1 1.62-.27 1.61 1.61 0 0 1 1.24.56 2.42 2.42 0 0 0 .7 1 .6.6 0 0 0 .63 0c.55-.37 2.3-1.52 2.06 0-.15.89-.62 1.68-.8 2.54a1 1 0 0 0 .2.91c.28.31.68.26 1.05.28a1.86 1.86 0 0 1 .81.19c.18.12.17 0 .09.2a4 4 0 0 1-.44.64 3.09 3.09 0 0 1-1.2 1c-.37.17-.77.19-1.14.34-.84.36-.58 1.19-.82 1.9s-1.22 1.51-1.93 1c-.54-.41-.6-1.4-.82-2a.64.64 0 0 0-1-.28c-.17.17-.28.42-.47.56a2 2 0 0 1-.75.21 1.89 1.89 0 0 1-1.59-.56 2.1 2.1 0 0 1-.08-1.75 2.21 2.21 0 0 1 1.45-1.25l-.31-1.16a2.57 2.57 0 0 1-1.47.36c-.52-.1-.49-.53-.46-1 .07-1.15 1.47-1 2.27-1a.63.63 0 0 0 0-1.25Z" class="cls-1"/><path d="M236.31 27.67a31 31 0 0 1 .06 3.73 14.24 14.24 0 0 1-.36 1.84 1.87 1.87 0 0 1-.87 1.23 6.22 6.22 0 0 1-1.47.86 6 6 0 0 0-1.32.51c-.81.5-.4 1.25 0 1.91s.15 1.61 1.08 1.68c.47 0 .78-.31 1.17-.5s1-.46 1.55-.69a8 8 0 0 0 1.26-.58 5 5 0 0 0 1-1.11 6.33 6.33 0 0 0 .77-1.23c.26-.57.36-1.18.58-1.77a11.41 11.41 0 0 0 1-3.76 7 7 0 0 0-1.2-3.39c-.37-.72-1.45-.09-1.08.63a6.07 6.07 0 0 1 1 2.56 7.26 7.26 0 0 1-.66 3 18.28 18.28 0 0 1-1 2.7 9.12 9.12 0 0 1-.81 1.07 2.51 2.51 0 0 1-1.12.67c-.38.16-.73.35-1.1.52-.2.09-1.24.37-1.29.62l.15.11c.12.15.17.17.13 0s0-.14 0-.17a1.51 1.51 0 0 0 0-.42 5.64 5.64 0 0 0-.46-.92 1.87 1.87 0 0 0-.12-.25s-.12.29 0 .31.3-.12.39-.15a8.14 8.14 0 0 0 1.44-.57 5.16 5.16 0 0 0 1.95-1.66 9 9 0 0 0 .75-3.19 33.51 33.51 0 0 0-.07-3.61.63.63 0 0 0-1.25 0ZM31.11 44.22c3.94 0 7.91.15 11.84-.11 3.7-.24 7.37-.83 11-1.38 3.83-.57 7.64-1 11.51-1.21 1.76-.11 3.5-.32 5.25-.57a22.73 22.73 0 0 0 4.74-.74c.46-.17.67-.88.15-1.14-1.52-.75-3.67 0-5.16.45-2.26.69-4.41 1.63-6.64 2.39s-4.69.92-7 1.63-4.49 1.74-7.05 1.79a.63.63 0 0 0 0 1.25 18.24 18.24 0 0 0 6.13-1.4 57 57 0 0 1 6.57-1.56c2.13-.54 4.13-1.47 6.19-2.2 1-.35 2-.68 3-1s2.41-.77 3.32-.32l.19-1.1a22.72 22.72 0 0 1-4.74.73c-1.79.26-3.58.45-5.38.56-3.66.22-7.27.62-10.9 1.16-3.8.56-7.59 1.19-11.43 1.42S35 43 31.11 43a.63.63 0 0 0 0 1.25Z" class="cls-1"/><path d="M44.17 47.58A65.78 65.78 0 0 0 55.91 47c3.93-.69 7.78-1.44 11.77-1.77 1.89-.16 3.78 0 5.66-.11 2.08-.18 4.07-.36 6.17-.34l5.68.08c1.91 0 3.79-.32 5.7-.35a.63.63 0 0 0 0-1.25c-1.91 0-3.79.36-5.7.35s-3.79-.06-5.68-.08a48.87 48.87 0 0 0-5.8.29c-2 .22-4 0-6 .16a95.81 95.81 0 0 0-11.19 1.65 62.66 62.66 0 0 1-12.32.72.63.63 0 0 0 0 1.25Z" class="cls-1"/></g></svg>