<svg xmlns="http://www.w3.org/2000/svg" viewBox="0 0 298.96 266.09"><defs><style>.cls-1{fill:#fff;stroke:#221714;stroke-miterlimit:10;}.cls-2{fill:#020202;}</style></defs><g id="font"><path class="cls-1" d="M154.44,148.42H133.32V159.3h1.05c-4.1,5.11-2.06,9.22.82,10.92-5.29,5.85-2.94,10.58.23,12.34l.2.1c-5.84,5.68-3.46,10.32-.2,12a17,17,0,0,0,5.92,1h40.79V185.59H139.57a4.65,4.65,0,0,1-1.66-.26,1.34,1.34,0,0,1-.63-2.13,20.5,20.5,0,0,0,4.06.49h40.79v-10.8H139.57a4.4,4.4,0,0,1-1.66-.28,1.45,1.45,0,0,1-.9-1.7,20.92,20.92,0,0,0,4.33.54h40.79V161H139.57a4.63,4.63,0,0,1-1.66-.27,1.44,1.44,0,0,1-.95-1.38h45.17V148.42H158.9c2.29-3,6.14-3.72,16.23-4.61-14-1.22-16-2.22-18.46-9.16-2.47,6.94-4.48,7.94-18.47,9.16C148.29,144.7,152.14,145.46,154.44,148.42Z"/><path class="cls-1" d="M158.75,219.54l18.11-4.77,5.4-1.2.21-7v-8.77H106.56v15.94l2.1.44,21.63,5.41c-5.59,1.54-14.23,1.6-26-4.85v24.05s26.72,4.68,40.22-7.82c13.5,12.5,40.22,7.82,40.22,7.82V214.69C173,221.14,164.33,221.08,158.75,219.54ZM144.52,217c-1.75-5.42-3.17-6.2-13.09-7.15,9.92-1,11.34-1.73,13.09-7.15,1.75,5.42,3.17,6.19,13.09,7.15C147.69,210.84,146.27,211.62,144.52,217Z"/><path class="cls-1" d="M113.88,169.54c-1.53,4.4-7,8.11-7,8.11v18h20.81V158.42h-3.57l11.74-14.37H116.18c-3.58,12.28-17.86,7.18-17.86,7.18v25.5A22.84,22.84,0,0,0,113.88,169.54Z"/><path class="cls-2" d="M93.62,102.31v-.06H74.55V43.44H70.74L84,23.76H65.16c-5.59,17-34.08,9.71-34.08,9.71V75.74c8,0,29.22-14.84,29.22-14.84-1.45,5.34-7.93,9.91-7.93,9.91s-5.17,5.41-10.65,6v25.44H29a31.27,31.27,0,0,1-3.53,0,2,2,0,0,1-.44-2.91,17,17,0,0,1,4.79-3.54,7.67,7.67,0,0,1-1.48.14,8.53,8.53,0,0,0-1.49.45,9,9,0,0,0-2.7,1.77,14.88,14.88,0,0,0-3,4.38,11.9,11.9,0,0,0-1.61,5,14.94,14.94,0,0,0,.68,4.83,8.37,8.37,0,0,0,.78,2.13l0,.1A9,9,0,0,0,29,119.21h64.6v-16.9Z"/><path class="cls-2" d="M158.75,99.43l18.11-4.78,5.4-1.2.21-7V77.64H106.56V93.58l2.1.44,21.63,5.41c-5.59,1.53-14.23,1.6-26-4.85v24s26.72,4.69,40.22-7.81c13.5,12.5,40.22,7.81,40.22,7.81v-24C173,101,164.33,101,158.75,99.43Zm-14.23-2.51c-1.75-5.41-3.17-6.19-13.09-7.15,9.92-1,11.34-1.73,13.09-7.15,1.75,5.42,3.17,6.2,13.09,7.15C147.69,90.73,146.27,91.51,144.52,96.92Z"/><path class="cls-2" d="M154.44,28.31H133.32V39.18h1.05c-4.1,5.11-2.06,9.22.82,10.93-5.29,5.84-2.94,10.58.23,12.34l.2.09c-5.84,5.69-3.46,10.32-.2,12a16.78,16.78,0,0,0,5.92,1.06h40.79V65.48H139.57a4.89,4.89,0,0,1-1.66-.26,1.34,1.34,0,0,1-.63-2.14,19.78,19.78,0,0,0,4.06.49h40.79V52.78H139.57a4.4,4.4,0,0,1-1.66-.28,1.47,1.47,0,0,1-.9-1.71,20.26,20.26,0,0,0,4.33.54h40.79V40.84H139.57a4.63,4.63,0,0,1-1.66-.27,1.45,1.45,0,0,1-.95-1.39h45.17V28.31H158.9c2.29-3,6.14-3.73,16.23-4.61-14-1.23-16-2.22-18.46-9.17-2.47,7-4.48,7.94-18.47,9.17C148.29,24.58,152.14,25.35,154.44,28.31Z"/><path class="cls-2" d="M113.88,49.42c-1.53,4.4-7,8.12-7,8.12v18h20.81V38.3h-3.57l11.74-14.37H116.18c-3.58,12.29-17.86,7.19-17.86,7.19V56.61A22.79,22.79,0,0,0,113.88,49.42Z"/><path class="cls-2" d="M275.61,81.45H242.74V76h27.35V57.86H242.74V53.3l26.69-.24V32.24L251,32.4c2.18-6.52,4.2-7.5,16.62-8.7-12.71-1.23-14.53-2.22-16.78-9.17-2.24,7-4.06,7.94-16.77,9.17,12.42,1.2,14.44,2.18,16.62,8.7l-35.2.32c2.22-6.81,4.11-7.8,16.72-9-12.71-1.23-14.52-2.22-16.77-9.17-2.24,7-4.06,7.94-16.77,9.17,12.62,1.22,14.5,2.21,16.72,9l-20.24.18V53.72l9.54-.08c-.37.26-.83.61-1.36,1-.28.18-8,5.08-8.07,10.83v.07a10,10,0,0,0-.11,1.36,9.06,9.06,0,0,0,5.88,8.57,23.18,23.18,0,0,0-2.59,1.85c-1.7,1-8.8,5.73-8.91,11.14a7.4,7.4,0,0,0,.15,1.66c0,.27,0,.53,0,.81h0a9.81,9.81,0,0,0,10.08,9.52h22.11v19.11h20.89V100.5h32.87ZM205.83,56.27a9.17,9.17,0,0,1,2.67-1.34,14.45,14.45,0,0,1,4.79-1.37l8.56-.07v4.37H204.7A3.17,3.17,0,0,1,205.83,56.27Zm-5.16,25.18c-.33-.81-.19-1.83,1.25-2.91a7.16,7.16,0,0,1,2.2-1.08L208.76,76h13.09v5.41Z"/><path class="cls-1" d="M275.61,201H242.17v-5.42h27.92V177.44H242.17v-4l27.26-.24V152.35l-18.41.17c2.18-6.53,4.2-7.51,16.62-8.71-12.71-1.22-14.53-2.22-16.78-9.16-2.24,6.94-4.06,7.94-16.77,9.16,12.42,1.2,14.44,2.18,16.62,8.71l-35.2.31c2.22-6.81,4.11-7.8,16.72-9-12.71-1.22-14.52-2.22-16.77-9.16-2.24,6.94-4.06,7.94-16.77,9.16,12.62,1.22,14.5,2.21,16.72,9l-20.24.18v20.83l8.82-.08-.64.51c-.28.18-8,5.08-8.07,10.84v.06a10.25,10.25,0,0,0-.11,1.36,9.09,9.09,0,0,0,5.88,8.58,24.15,24.15,0,0,0-2.59,1.84c-1.7,1.05-8.8,5.74-8.91,11.14a7.55,7.55,0,0,0,.15,1.67c0,.26,0,.53,0,.8h0a9.81,9.81,0,0,0,10.08,9.52h22.69v19.43h19.74V220.08h33.44Zm-53.18-27.45v3.85H204.7c.19-.73.84-1.55,2.32-2.39l4-1.35ZM200.67,201c-.41-1-.09-2.35,2.58-3.73l5.51-1.69h13.67V201Z"/><path class="cls-1" d="M87,189.64a37.6,37.6,0,0,0,4.89-13.31,58.88,58.88,0,0,0,.82-6.86,37.26,37.26,0,0,0-1.05-12.68c-4-13.73-21.65-17.61-34.35-16.46a49.45,49.45,0,0,0-27.35,11.94c-.95.81-1.89,1.67-2.77,2.57a1.82,1.82,0,0,0-.57.6,3.05,3.05,0,0,0-.25,1.47q0,15.41,0,30.81a50,50,0,0,1,24.42-7.9,13.82,13.82,0,0,1,5.9.66,5.75,5.75,0,0,1,3.72,4.32c.37,2.82-2,5.21-4.32,6.83-8.68,6-19.43,8.06-29.83,9.92q0,18,.08,36.1H92.44q0-13.75,0-27.52H39c9-.84,18.06-1.8,26.59-4.74S82.18,197.3,87,189.64Z"/></g></svg>