<svg xmlns="http://www.w3.org/2000/svg" viewBox="0 0 451.58 169.14"><g id="font"><path d="M64.84,20.17c-4.28-4.64-10.19-7-17.55-7s-13.23,2.31-17.55,7.07c-4,4.39-6,10.23-6,17.35s1.95,12.83,6,17.22c4.34,4.64,10.25,7,17.54,7S60.51,59.51,64.84,55c4-4.45,6-10.28,6-17.35s-2-13-6-17.43ZM36.28,25.3h0c2.57-3.09,6.17-4.6,11-4.6s8.52,1.53,11.09,4.55,3.88,7.05,3.88,12.36S61,47,58.38,49.89,52.05,54.3,47.29,54.3s-8.48-1.55-11.08-4.61c-2.53-2.9-3.81-7-3.81-12.09S33.67,28.37,36.28,25.3Z"/><path d="M71.93,13.39h0A34.24,34.24,0,0,0,47.29,3.48a34,34,0,0,0-24.63,9.91A32.07,32.07,0,0,0,12.44,37.33,32.27,32.27,0,0,0,22.66,61.26a34.21,34.21,0,0,0,24.63,9.92,34.48,34.48,0,0,0,24.64-9.92A32.49,32.49,0,0,0,82.15,37.33,32.29,32.29,0,0,0,71.93,13.39Zm6,23.94A28.42,28.42,0,0,1,69,58.4a30.22,30.22,0,0,1-21.74,8.67,30.38,30.38,0,0,1-21.73-8.66,28.45,28.45,0,0,1-8.93-21.08,28.6,28.6,0,0,1,8.93-21.08A30.35,30.35,0,0,1,47.29,7.58,30.25,30.25,0,0,1,69,16.24,28.63,28.63,0,0,1,78,37.33Z"/><polygon points="125.08 13.58 125.08 48.3 96.44 13.77 96.28 13.58 89.75 13.58 89.75 62.43 97.82 62.43 97.82 27.71 126.47 62.25 126.62 62.43 133.15 62.43 133.15 13.58 125.08 13.58"/><path d="M180.88,50.77l-.52.44a19.81,19.81,0,0,1-7.16,3.59A33.44,33.44,0,0,1,164,56.07c-4.76,0-8.3-.74-10.52-2.2a6.36,6.36,0,0,1-3.25-5.55,5.79,5.79,0,0,1,1.35-4A8.24,8.24,0,0,1,155.44,42a21,21,0,0,1,6.11-.79H175V34.28H161.83c-3.11,0-5.51-.61-7.15-1.81a5.84,5.84,0,0,1-2.39-5,6.23,6.23,0,0,1,3.05-5.29c2.08-1.45,5.31-2.19,9.59-2.19a32.83,32.83,0,0,1,7.17.77,28.11,28.11,0,0,1,6.67,2.45l.51.27,2.4-6.43-.38-.21A28.28,28.28,0,0,0,173.7,14a41.9,41.9,0,0,0-9-1,30,30,0,0,0-11.35,1.89A15.18,15.18,0,0,0,146.46,20a11.85,11.85,0,0,0-2.24,7,12.47,12.47,0,0,0,1.58,6.26,11,11,0,0,0,4.29,4.22l-.5.22A13.32,13.32,0,0,0,144.18,42a11.37,11.37,0,0,0-2.07,6.79,11.94,11.94,0,0,0,2.46,7.38,15.74,15.74,0,0,0,7.27,5A34,34,0,0,0,163.59,63a41.23,41.23,0,0,0,11.33-1.49,23.31,23.31,0,0,0,8.49-4.16l.31-.25Z"/><path d="M228,63.22c-13.44,0-21.32-5.54-21.32-13.53A10.6,10.6,0,0,1,217.19,39c5.34,7.38,13.36,14.14,20.05,18.45l.07-.14c-10.77-9.22-23.29-19.6-23.29-31,0-9.29,9.92-13.8,19.63-13.8,9.29,0,18.3,4.1,18.3,11.89,0,3.75-3.38,7.44-7.39,9.56-6.34-6.76-12.25-10.32-19.56-14.55l-.07.07c12.24,8.4,23.29,16.94,23.29,28.89C248.22,58.37,241,63.22,228,63.22Z"/><polygon points="292.84 13.58 292.84 34.15 265.58 34.15 265.58 13.58 257.51 13.58 257.51 62.43 265.58 62.43 265.58 41.12 292.84 41.12 292.84 62.43 300.9 62.43 300.9 13.58 292.84 13.58"/><path d="M348.11,50.71l-.6.5a19.78,19.78,0,0,1-7.17,3.59,33.44,33.44,0,0,1-9.25,1.27c-4.75,0-8.29-.74-10.52-2.2a6.38,6.38,0,0,1-3.25-5.55,5.79,5.79,0,0,1,1.35-4A8.32,8.32,0,0,1,322.59,42a21,21,0,0,1,6.11-.79h13.46V34.28H329c-3.11,0-5.52-.61-7.15-1.81a5.85,5.85,0,0,1-2.4-5,6.26,6.26,0,0,1,3.05-5.29c2.09-1.45,5.32-2.19,9.6-2.19a32.89,32.89,0,0,1,7.17.77,27.88,27.88,0,0,1,6.66,2.45l.52.27,2.4-6.43-.39-.21a28.15,28.15,0,0,0-7.6-2.79,41.81,41.81,0,0,0-9-1,29.94,29.94,0,0,0-11.35,1.89A15.18,15.18,0,0,0,313.61,20a11.85,11.85,0,0,0-2.24,7A12.47,12.47,0,0,0,313,33.2a11,11,0,0,0,4.29,4.22l-.5.22A13.29,13.29,0,0,0,311.32,42a11.36,11.36,0,0,0-2.06,6.79,11.88,11.88,0,0,0,2.46,7.38,15.74,15.74,0,0,0,7.27,5A34,34,0,0,0,330.74,63a41.23,41.23,0,0,0,11.33-1.49c3.37-1,5.61-1.83,7.85-3.66l.26-.22Z"/><path d="M412.77,17.19a33.2,33.2,0,0,0-4.46-5.68c1.87-1.93,2.79-3.69,2.79-5.39,0-2.43-1.82-3.82-5-3.82a19.55,19.55,0,0,0-7.67,2A39.37,39.37,0,0,0,380.57,0C370,0,364.5,5.81,364.5,11.54c0,7.16,5,11.1,14.16,11.1a35.89,35.89,0,0,0,4.53-.28c-.05.47-.09.95-.11,1.44-.43,0-.86-.05-1.28-.05-19.82,0-34.2,11.57-34.2,27.5,0,6,1.66,10.71,4.94,13.9a26.88,26.88,0,0,0-.27,3.66c0,10.19,5.91,16,16.23,16,7.57,0,15-3.27,21.51-9.47a56.59,56.59,0,0,0,13.18-20.2l.2-.53L401.58,54l-.2.52A54.81,54.81,0,0,1,388.71,74c-6.15,5.9-13.14,9-20.21,9-9,0-14.2-5.14-14.2-14.1,0-.71,0-1.45.11-2.2a18.66,18.66,0,0,0,10.8,2.95c16.66,0,31.29-18.35,31.29-29.44,0-5.77-3.65-8.94-10.27-8.94-16.29,0-30.15,16.1-33.33,31.54A12.82,12.82,0,0,1,350,54.3c0-14.78,18.15-28.69,32.23-28.69.33,0,.65,0,1,0A7,7,0,0,0,389.71,31c1.47,0,2.43-.74,2.43-1.9,0-1.86-2.73-4.27-7.18-5.07a15.89,15.89,0,0,1,.16-2C393.33,20.64,402,17,407,12.76a32.94,32.94,0,0,1,4.26,5.46l.32.51,1.51-1.1Zm-29.25,3.24a37.65,37.65,0,0,1-4.86.35c-10.15,0-12.28-5-12.28-9.24,0-4.66,4.44-9.68,14.19-9.68A38.17,38.17,0,0,1,396.33,5.3C389.67,8.94,384.94,14.52,383.52,20.43Zm2-.31c.87-2.89,3.77-9.43,12.83-13.81a34.8,34.8,0,0,1,7.32,5.21C401.14,15.33,393.23,18.71,385.54,20.12Zm4.64,8.79c0,.17,0,.41-.59.41A5.55,5.55,0,0,1,385.25,26C388.5,26.66,390.18,28.3,390.18,28.91ZM406.1,4.16c3.11,0,3.11,1.48,3.11,2a6.32,6.32,0,0,1-2.16,4.16,37.37,37.37,0,0,0-6.55-4.89A16.36,16.36,0,0,1,406.1,4.16ZM354.69,64.53c3-18.53,19-31.42,31.54-31.42,5.41,0,8.38,2.51,8.38,7.08,0,10.38-14.24,27.58-29.4,27.58A16.94,16.94,0,0,1,354.69,64.53Z"/><path d="M411.81,13.37h20.4v3.76h3.88V21H440V36.87h-3.94V40.7h-3.88v3.82H416.52V63.65h-4.71ZM431.51,40V36.19h3.94V21.63h-3.94V17.81h-15V40Z"/><path d="M417,64.16H411.3V12.85h21.43v3.77h3.87v3.82h3.94v17H436.6v3.82h-3.87V45H417Zm-4.7-1H416V44h15.7V40.53H416V17.3h15.7V13.88H412.33Zm19.7-23h3.54V36.71H432Zm-15-.68h14V35.68h3.94V22.15H431V18.32H417ZM436,36.36h3.54V21.47H436ZM432,21.12h3.54V17.65H432Z"/><path d="M26.81,135.94c1.16-3,4.67-6.4,10.44-10.16a72,72,0,0,0,10.41-7.85,16.8,16.8,0,0,0,5-11.72A13.48,13.48,0,0,0,48,95.62h0a17.36,17.36,0,0,0-11.68-4c-5.19,0-9.41,1.7-12.56,5S19,104.44,19,109.93v.51H25.7v-.5c.07-4.11,1.05-7.25,3-9.36,1.69-2.15,4.13-3.19,7.47-3.19,3.1,0,5.54.77,7.25,2.3a8.14,8.14,0,0,1,2.55,6.45,12,12,0,0,1-3.69,8.31,61.56,61.56,0,0,1-7.72,6,61,61,0,0,0-10.89,8.66,17.68,17.68,0,0,0-5.08,12.32v.51H52.74v-5.95Z"/><path d="M102.53,152.35c1-2.37,2.34-5.38,4-9,.46-1,2.2-4.63,5.06-9.86,15.28-14.82,27.69-31.57,27.69-37.35a1.73,1.73,0,0,0-1.74-1.91c-6.51,0-25,33.71-27.33,38-7.59,7.35-21.51,19.63-36.11,26.59,10.76-7,19-14,25-21.32,8.21-9.89,12.37-20.49,12.37-31.52,0-5.08-2.21-10.9-7-12-1.19-6.31-5.38-9.77-11.86-9.77-15.94,0-42.29,21.49-42.29,46a33.27,33.27,0,0,0,2.35,12.41l.78.32.77-.33.31-.76a31.23,31.23,0,0,1-2.26-11.64c0-10.43,5.3-21.64,14.54-30.73,8.18-8,18.31-13.25,25.8-13.25,3.71,0,8.35,1.33,9.8,7.55-6.89.21-16.7,5.34-25.16,13.19-9.21,8.55-14.7,18.25-14.7,26,0,6.54,3.29,7.92,6,7.92,13.76,0,36.22-23.94,36.22-42.86,0-.65,0-1.29-.09-1.89,3.5,1.26,4.83,6.59,4.83,9.88,0,6.9-5.28,17.73-14.13,29-9.25,11.78-20.73,21.92-31.5,27.84l-.27.71.23.66.72.38c16.14-4.46,32.92-18,42.84-27.12-1.06,2-1.93,3.81-2.53,5.12-4.72,10.2-8.75,20.78-8.79,20.89l.55.8h.93l.52-.31.08-.15a122.11,122.11,0,0,1,13.29-19.87c9-10.71,17.64-16.2,25.82-16.34l.58-.59v-.82l-.6-.59C122.59,125.75,109.13,142.56,102.53,152.35Zm12.35-24.85c10.43-18.45,19.23-30.73,22.45-31.26C137.18,100.54,128.7,113.32,114.88,127.5ZM68.6,138.78c-2.72,0-4.1-2-4.1-5.91,0-7.28,5.27-16.47,14.08-24.58,8.15-7.51,17.58-12.4,24.16-12.56a21,21,0,0,1,.12,2.2c0,6.54-5.25,16.26-14,26C81.06,132.54,72.56,138.78,68.6,138.78Z"/><path d="M186.61,107.64a24.22,24.22,0,0,0-5.64-8,25.7,25.7,0,0,0-8.57-5.29,31.62,31.62,0,0,0-21.51,0,26.18,26.18,0,0,0-8.57,5.33,24.77,24.77,0,0,0,0,36.07,25.93,25.93,0,0,0,8.6,5.32,31.62,31.62,0,0,0,21.48,0A25.7,25.7,0,0,0,181,135.8a24.41,24.41,0,0,0,5.64-8,26.35,26.35,0,0,0,0-20.14Zm-6.16,10a18.05,18.05,0,0,1-1.42,7.19,17.6,17.6,0,0,1-3.94,5.74,17.83,17.83,0,0,1-6,3.8,20.62,20.62,0,0,1-7.53,1.34,20.36,20.36,0,0,1-7.46-1.34,18.26,18.26,0,0,1-6-3.8,17.34,17.34,0,0,1-4-5.74,18.05,18.05,0,0,1-1.42-7.19A17.76,17.76,0,0,1,154.15,101a20.36,20.36,0,0,1,7.46-1.34,20.62,20.62,0,0,1,7.53,1.34,17.59,17.59,0,0,1,6,3.83,18.31,18.31,0,0,1,3.94,5.74A17.82,17.82,0,0,1,180.45,117.69Z"/><path d="M245.55,121.55a12.33,12.33,0,0,0-4.4-4,27.52,27.52,0,0,0-5.89-2.34c-2.12-.59-4.25-1.13-6.32-1.6a55.1,55.1,0,0,1-5.7-1.57,11.32,11.32,0,0,1-4.07-2.26,4.6,4.6,0,0,1-1.47-3.62,5.83,5.83,0,0,1,1.12-3.49,7.78,7.78,0,0,1,3.64-2.53,18.69,18.69,0,0,1,6.57-1,26,26,0,0,1,6.63.9,22.13,22.13,0,0,1,6.47,2.88l.51.33,2.7-6.36-.35-.24a24.84,24.84,0,0,0-7.4-3.18,34.19,34.19,0,0,0-8.56-1.1,26.58,26.58,0,0,0-10.76,1.91,14.2,14.2,0,0,0-6.35,5.13,12.71,12.71,0,0,0-2.07,7,11.45,11.45,0,0,0,1.69,6.47,12.14,12.14,0,0,0,4.39,4,29.71,29.71,0,0,0,5.89,2.38c2.12.61,4.25,1.14,6.34,1.59a49.15,49.15,0,0,1,5.68,1.58,11.65,11.65,0,0,1,4.08,2.3,4.52,4.52,0,0,1,1.47,3.54,5.62,5.62,0,0,1-1.15,3.45,7.7,7.7,0,0,1-3.67,2.43,20.41,20.41,0,0,1-6.72.92A26,26,0,0,1,219,133.6a22.36,22.36,0,0,1-6.95-3.83l-.5-.43-3,6.21.28.26a22.66,22.66,0,0,0,8.2,4.4,34.7,34.7,0,0,0,10.82,1.69A26.93,26.93,0,0,0,238.68,140a14.4,14.4,0,0,0,6.45-5.12,12.46,12.46,0,0,0,2.11-6.94A11.24,11.24,0,0,0,245.55,121.55Z"/><path d="M330.15,131l-.52.42a19.48,19.48,0,0,1-7.1,3.56,32.73,32.73,0,0,1-9.15,1.27c-4.71,0-8.22-.74-10.42-2.19a6.31,6.31,0,0,1-3.22-5.49,5.75,5.75,0,0,1,1.34-3.93,8.15,8.15,0,0,1,3.88-2.35,20.89,20.89,0,0,1,6.05-.79h13.33v-6.83h-13c-3.08,0-5.47-.61-7.09-1.8a5.78,5.78,0,0,1-2.37-5,6.19,6.19,0,0,1,3-5.23c2.07-1.44,5.26-2.17,9.5-2.17a32.8,32.8,0,0,1,7.1.76,27.81,27.81,0,0,1,6.6,2.43l.51.26,2.38-6.36-.38-.21A27.89,27.89,0,0,0,323,94.58a41.07,41.07,0,0,0-9-1,29.58,29.58,0,0,0-11.23,1.87,15,15,0,0,0-6.78,5,11.73,11.73,0,0,0-2.21,6.89,12.33,12.33,0,0,0,1.56,6.2,10.88,10.88,0,0,0,4.25,4.18l-.5.21a13.31,13.31,0,0,0-5.36,4.33,11.27,11.27,0,0,0-2,6.72,11.86,11.86,0,0,0,2.43,7.31,15.55,15.55,0,0,0,7.2,5A33.64,33.64,0,0,0,313,143.07a40.87,40.87,0,0,0,11.22-1.47,23.3,23.3,0,0,0,8.4-4.12l.3-.25Z"/><path d="M391.05,94.13a6.7,6.7,0,0,0-4.76-1.64,22,22,0,0,0-6.36,1.12,47.49,47.49,0,0,0-7.6,3.18,68.19,68.19,0,0,0-7.91,4.81c-8.54,6-12.69,11.24-12.69,16.13,0,3.08,1.57,5.1,4.67,6C349,127.5,343.15,131.61,339,136c-4.44,4.72-6.69,9.55-6.69,14.36a12.53,12.53,0,0,0,2.44,7.68,15.14,15.14,0,0,0,6.93,5,29.79,29.79,0,0,0,10.45,1.67A49.5,49.5,0,0,0,364.21,163a79,79,0,0,0,13.48-4.82l.26-.12,1.59-7.65-1.07.55c-4.64,2.41-8.83,4.38-12.44,5.86a71.29,71.29,0,0,1-9.87,3.3,34,34,0,0,1-8,1.08,13.12,13.12,0,0,1-8.35-2.56,7.82,7.82,0,0,1-3.19-6.5c0-5.47,4.46-11.44,13.27-17.75A83.2,83.2,0,0,1,366,125.23l.28-.12.9-4.31h-1.59a20.08,20.08,0,0,1-5-.64,4.87,4.87,0,0,1-2.19-1.73,4.11,4.11,0,0,1-.88-2.52c0-1.94,1-4.22,3-6.78a35.1,35.1,0,0,1,8.37-7.43,42.68,42.68,0,0,1,8-4.26,19,19,0,0,1,6.66-1.57c3.42,0,3.82,1.72,3.82,3,0,3.37-2.76,8-8.21,13.87l-.36.39,3.59,3.82.42-.39a38.32,38.32,0,0,0,5.22-6,31.93,31.93,0,0,0,3.58-6.41,15.48,15.48,0,0,0,1.24-5.57A5.81,5.81,0,0,0,391.05,94.13Z"/><path d="M437.5,100.86A16,16,0,0,0,430.31,95a28.13,28.13,0,0,0-11.15-2H399.63v48.36h8V127h11.54a27.73,27.73,0,0,0,11.15-2,16.84,16.84,0,0,0,7.19-24.12Zm-29.88-1H419c4.31,0,7.62.89,9.81,2.66a10.14,10.14,0,0,1,0,14.9c-2.19,1.76-5.5,2.66-9.81,2.66H407.62Z"/><polygon points="261.52 134.45 261.52 92.99 253.53 92.99 253.53 141.35 287.93 141.35 287.93 134.45 261.52 134.45"/></g></svg>