<svg xmlns="http://www.w3.org/2000/svg" viewBox="0 0 450.12 254.58"><defs><style>.cls-1{fill:none;stroke:#000;stroke-miterlimit:10;stroke-width:5px}</style></defs><g id="font"><path d="M142.25 67.37c-3.15 12.51-10.8 21.88-20.91 27.17a41 41 0 1 1 21.15-44.68M258.89 68.53a41.74 41.74 0 0 1 .81 8.19 41 41 0 0 1-41 41c-22.65 0-41-18.34-41-42.35M181.45 59.52A41 41 0 0 1 254.66 57M329.67 76.82a40.88 40.88 0 0 1-11.44-21M317.71 42.48A41 41 0 1 1 341.53 85M188.83 161.86a41 41 0 1 1 .83-13.93M320.65 104.34A41 41 0 1 1 265 160M260.83 148.17a41.44 41.44 0 0 1-.74-7.77 41 41 0 0 1 41-41 41.59 41.59 0 0 1 8.1.8" class="cls-1"/><path d="M118.05 54.83v7.58H85.1v-7.58ZM199.1 73.5l-1.61-5.11a31.8 31.8 0 0 0 7.64-12.16l4.61.92c-.32.92-.69 1.8-1.06 2.72h9.4a30.32 30.32 0 0 0-1.66-2.9l5.07-.83c.5 1.1 1 2.35 1.52 3.73h13.72v3.87h-14v1.8H235v3.77h-12.27v1.8H235v3.78h-12.27v1.89h15.06v3.91h-35.38V70a97.274 97.274 0 0 1-3.31 3.5Zm2 12.9v-4.05h33.77v3.5a39.68 39.68 0 0 1-9.58 6.59 135.54 135.54 0 0 0 15 2.81l-2.62 4A111.23 111.23 0 0 1 219.41 95a86.72 86.72 0 0 1-19 4.42L198.22 95a93.24 93.24 0 0 0 15-2.63 22 22 0 0 1-7.74-6Zm17-22.66h-11.03v1.8h11.05Zm0 5.57h-11.03v1.8h11.05Zm0 5.58h-11.03v1.89h11.05Zm9.31 11.51H211a30.61 30.61 0 0 0 8.11 4.15 44.12 44.12 0 0 0 8.32-4.15ZM281.26 136.16l-1.61-5.16a31.8 31.8 0 0 0 7.64-12.16l4.61.92c-.32.92-.69 1.8-1.06 2.72h9.4a30.32 30.32 0 0 0-1.66-2.9l5.07-.83c.5 1.11 1 2.35 1.52 3.73h13.72v3.87h-14v1.8h12.25V132h-12.25v1.8h12.25v3.78h-12.25v1.89H320v3.91h-35.43v-10.77c-1.05 1.2-2.16 2.39-3.31 3.55Zm2 12.9V145h33.77v3.5a39.4 39.4 0 0 1-9.58 6.59 131 131 0 0 0 15 2.81l-2.62 4a110.21 110.21 0 0 1-18.25-4.33 87.28 87.28 0 0 1-19 4.43l-2.17-4.38a92.15 92.15 0 0 0 15-2.63 22 22 0 0 1-7.74-6Zm17-22.67h-11v1.8h11Zm0 5.57h-11v1.8h11Zm0 5.58h-11v1.89h11Zm9.31 11.52h-16.43a30.62 30.62 0 0 0 8.11 4.14 44.71 44.71 0 0 0 8.34-4.14ZM131.77 137.7V133h40.17v4.7h-17.65v4.56h16.08v26c0 3.78-1.7 5.67-5.07 5.67h-4.79l-1.2-4.66 4.47.23c1.29 0 1.94-.78 1.94-2.25V164l-2.21 3a14.76 14.76 0 0 1-3.6-6.63 23 23 0 0 1-3.31 6.82l-2.22-4.19a18.41 18.41 0 0 0 3.74-9.63H156v-4.33h6c0 6.17 1.2 10.64 3.69 13.45v-15.8h-11.4v27.13h-4.7V164l-2.39 3.31a15.59 15.59 0 0 1-3.36-6.86 22.9 22.9 0 0 1-3.55 7l-2.21-4.19a18.72 18.72 0 0 0 4-9.81h-2.26v-4.33H146q0 9.46 3.59 13.82v-16.21H138v27.36h-4.66v-31.83h16.26v-4.56ZM351.1 32.93a41 41 0 0 0-3.86-5.76l4.14-2a59 59 0 0 1 4.24 6.5l-2.49 1.24H363a63.22 63.22 0 0 0 3.54-7.79l4.66 1.66a36.94 36.94 0 0 1-3.14 6.13h9v4.61H361.7v5.29h13.13v4.61H361.7v5.48h18.15v4.65H361.7V68h-4.88V57.57h-18.34v-4.65h18.34v-5.48h-13.13v-4.61h13.13v-5.29h-15.34v-4.61Z"/><path d="M242.67 64.36s48.17-35.24 93.55-19.14M331.67 57.57s-32.39-15.79-82 17.21M179.52 144.71s41.52 19.74 89.59-1.34M174.52 155.92s36.35 22.21 100.43-.54M350.69 81s-30.87 9.47-31.94 33.67M342.12 70.27S309 81.64 305.78 113.63M131.11 54.19s33-13.18 59.19 14.34M131.84 69.43S162 56.14 184.42 81.52" class="cls-1"/><path d="M68.26 218.18a10.25 10.25 0 0 1 0 13.1 8.3 8.3 0 0 1-6.38 2.63 8.27 8.27 0 0 1-6.39-2.63 10.24 10.24 0 0 1 0-13.1 8.1 8.1 0 0 1 6.35-2.59 8.21 8.21 0 0 1 6.42 2.59Zm-10.05 2.42a7.25 7.25 0 0 0-1.11 4.17 7.14 7.14 0 0 0 1.11 4.13 4.57 4.57 0 0 0 7.39 0 8.06 8.06 0 0 0 0-8.3 4.57 4.57 0 0 0-7.39 0ZM89.49 222.72v10.71h-3.83v-10.38c0-2.85-1.31-4.26-3.93-4.26a3.52 3.52 0 0 0-2.49 1 4.87 4.87 0 0 0-1.41 3.2v10.44H74v-17.37h3.83v2a7 7 0 0 1 2.29-1.85 6.18 6.18 0 0 1 2.85-.64c4.34.02 6.52 2.43 6.52 7.15ZM107.47 218.48a11.64 11.64 0 0 1 2.08 7.33h-13a6.24 6.24 0 0 0 1.31 3.69 4 4 0 0 0 3.19 1.28 4.7 4.7 0 0 0 2.86-.81 5.71 5.71 0 0 0 1.54-2.11h3.83a7.84 7.84 0 0 1-2.42 4.06 8.61 8.61 0 0 1-5.78 2 8.15 8.15 0 0 1-6.15-2.39 10.56 10.56 0 0 1-.13-13.27 7.53 7.53 0 0 1 6.12-2.66 7.77 7.77 0 0 1 6.55 2.88ZM98 219.79a5.68 5.68 0 0 0-1.42 3.13h8.94c-.33-2.82-1.85-4.2-4.53-4.2a4 4 0 0 0-2.99 1.07ZM137.81 221.1h-3.73a3.16 3.16 0 0 0-1.21-1.84 4.93 4.93 0 0 0-2.62-.54 4.66 4.66 0 0 0-2.29.43 1.49 1.49 0 0 0-.87 1.45c0 .54.44 1 1.38 1.44a27.46 27.46 0 0 0 3.46 1 14 14 0 0 1 4.37 1.65 4.17 4.17 0 0 1 2.08 3.66c0 3.7-2.62 5.55-7.83 5.55-4.84 0-7.43-2-7.8-6.12h3.73a3.85 3.85 0 0 0 1.18 2.35 4.85 4.85 0 0 0 2.76.64c2.68 0 4-.74 4-2.15a2.16 2.16 0 0 0-1.51-1.92 20.42 20.42 0 0 0-3.43-1 14.76 14.76 0 0 1-4.34-1.51 4 4 0 0 1-2-3.53 4.17 4.17 0 0 1 2-3.73 8.64 8.64 0 0 1 5.17-1.38c4.57.04 7.09 1.86 7.5 5.55ZM145.23 209v9.41a6.12 6.12 0 0 1 2.39-2.15 6.19 6.19 0 0 1 2.92-.64 5.83 5.83 0 0 1 4.74 1.85 8.08 8.08 0 0 1 1.48 5.24v10.75h-3.83v-10.11a5.69 5.69 0 0 0-.88-3.39 3.52 3.52 0 0 0-3-1.24 3.29 3.29 0 0 0-2.83 1.41 5.81 5.81 0 0 0-1 3.59v9.71h-3.82V209ZM174.73 218.48a11.58 11.58 0 0 1 2.09 7.33h-13a6.3 6.3 0 0 0 1.31 3.69 4.07 4.07 0 0 0 3.2 1.28 4.69 4.69 0 0 0 2.85-.81 5.72 5.72 0 0 0 1.55-2.11h3.83a7.91 7.91 0 0 1-2.42 4.06 8.63 8.63 0 0 1-5.78 2 8.12 8.12 0 0 1-6.15-2.39 10.53 10.53 0 0 1-.13-13.27 7.5 7.5 0 0 1 6.11-2.66 7.76 7.76 0 0 1 6.54 2.88Zm-9.44 1.31a5.74 5.74 0 0 0-1.41 3.13h8.94c-.34-2.82-1.85-4.2-4.54-4.2a4 4 0 0 0-2.99 1.07ZM193.78 218.48a11.58 11.58 0 0 1 2.09 7.33h-13a6.3 6.3 0 0 0 1.31 3.69 4.07 4.07 0 0 0 3.2 1.28 4.69 4.69 0 0 0 2.85-.81 5.72 5.72 0 0 0 1.55-2.11h3.83a7.91 7.91 0 0 1-2.42 4.06 8.63 8.63 0 0 1-5.78 2 8.12 8.12 0 0 1-6.15-2.39 10.53 10.53 0 0 1-.13-13.27 7.5 7.5 0 0 1 6.11-2.66 7.76 7.76 0 0 1 6.54 2.88Zm-9.44 1.31a5.74 5.74 0 0 0-1.41 3.13h8.94c-.34-2.82-1.85-4.2-4.54-4.2a4 4 0 0 0-2.99 1.07ZM213.74 218.31a11.35 11.35 0 0 1 0 12.87 7.08 7.08 0 0 1-5.89 2.73 6.36 6.36 0 0 1-5.17-2.86v9h-3.83v-24h3.56v1.85a6.28 6.28 0 0 1 5.24-2.32 7.39 7.39 0 0 1 6.09 2.73Zm-10.08 2.15a7.05 7.05 0 0 0-1.07 4.17v.27a6.74 6.74 0 0 0 1.34 4.4 3.73 3.73 0 0 0 3.06 1.51 4.45 4.45 0 0 0 3.76-1.64 7.49 7.49 0 0 0 1.08-4.34 8.09 8.09 0 0 0-1-4.33 4.17 4.17 0 0 0-3.73-1.82 3.9 3.9 0 0 0-3.44 1.78ZM224 229.47a4.63 4.63 0 0 1 .88 2.89 7.56 7.56 0 0 1-1.55 4.67 8 8 0 0 1-4.2 2.72v-2.22a5.51 5.51 0 0 0 2.32-1.61 3.91 3.91 0 0 0 .87-2.38 2.78 2.78 0 0 1-.84.13 2.54 2.54 0 0 1-1.85-.77 2.59 2.59 0 0 1-.73-1.88 2.41 2.41 0 0 1 .8-1.92 2.75 2.75 0 0 1 2-.74 2.84 2.84 0 0 1 2.3 1.11ZM245 216.06h3.86v3.16H245V229a1.35 1.35 0 0 0 .27.94 1.11 1.11 0 0 0 .87.31h2.29v3.15h-2.93a4.16 4.16 0 0 1-3.32-1.21 4.49 4.49 0 0 1-1-3.19v-9.81H238v-3.16h3.13v-4l3.83-1.58ZM254.09 216.06l3.46 12.84 3.45-12.84h3.53l3.43 12.84 3.46-12.84h4.23l-5.85 17.37h-3.56l-3.46-12.7-3.49 12.7h-3.56l-5.85-17.37ZM292.23 218.18a10.25 10.25 0 0 1 0 13.1 9.07 9.07 0 0 1-12.77 0 10.24 10.24 0 0 1 0-13.1 8.1 8.1 0 0 1 6.35-2.59 8.2 8.2 0 0 1 6.42 2.59Zm-10.05 2.42a7.25 7.25 0 0 0-1.11 4.17 7.14 7.14 0 0 0 1.11 4.13 4.57 4.57 0 0 0 7.39 0 8.06 8.06 0 0 0 0-8.3 4.57 4.57 0 0 0-7.39 0ZM323.21 221.1h-3.73a3.16 3.16 0 0 0-1.21-1.84 4.93 4.93 0 0 0-2.62-.54 4.66 4.66 0 0 0-2.29.43 1.49 1.49 0 0 0-.87 1.45c0 .54.44 1 1.38 1.44a27.46 27.46 0 0 0 3.46 1 14 14 0 0 1 4.37 1.65 4.17 4.17 0 0 1 2.08 3.66c0 3.7-2.62 5.55-7.83 5.55-4.84 0-7.43-2-7.8-6.12h3.73a3.85 3.85 0 0 0 1.18 2.35 4.85 4.85 0 0 0 2.76.64c2.68 0 4-.74 4-2.15a2.16 2.16 0 0 0-1.51-1.92 20.42 20.42 0 0 0-3.43-1 14.76 14.76 0 0 1-4.34-1.51 4 4 0 0 1-2-3.53 4.17 4.17 0 0 1 2-3.73 8.64 8.64 0 0 1 5.17-1.38c4.57.04 7.09 1.86 7.5 5.55ZM331 209v24.46h-3.83V209ZM349.28 218.48a11.58 11.58 0 0 1 2.08 7.33h-13a6.24 6.24 0 0 0 1.31 3.69 4.06 4.06 0 0 0 3.19 1.28 4.7 4.7 0 0 0 2.86-.81 5.71 5.71 0 0 0 1.54-2.11h3.83a7.83 7.83 0 0 1-2.41 4.06 8.63 8.63 0 0 1-5.78 2 8.12 8.12 0 0 1-6.15-2.39 9.25 9.25 0 0 1-2.42-6.79 9.42 9.42 0 0 1 2.28-6.48 7.53 7.53 0 0 1 6.12-2.66 7.77 7.77 0 0 1 6.55 2.88Zm-9.44 1.31a5.6 5.6 0 0 0-1.41 3.13h8.94c-.34-2.82-1.85-4.2-4.54-4.2a4 4 0 0 0-2.99 1.07ZM368.33 218.48a11.58 11.58 0 0 1 2.08 7.33h-13a6.3 6.3 0 0 0 1.31 3.69 4.06 4.06 0 0 0 3.19 1.28 4.7 4.7 0 0 0 2.86-.81 5.71 5.71 0 0 0 1.54-2.11h3.84a7.91 7.91 0 0 1-2.42 4.06 8.63 8.63 0 0 1-5.78 2 8.12 8.12 0 0 1-6.15-2.39 9.29 9.29 0 0 1-2.42-6.79 9.42 9.42 0 0 1 2.28-6.48 7.53 7.53 0 0 1 6.12-2.66 7.77 7.77 0 0 1 6.55 2.88Zm-9.44 1.31a5.6 5.6 0 0 0-1.41 3.13h8.94c-.34-2.82-1.85-4.2-4.54-4.2a4 4 0 0 0-2.99 1.07ZM388.29 218.31a10.13 10.13 0 0 1 2 6.52 10 10 0 0 1-2 6.35 7 7 0 0 1-5.88 2.73 6.36 6.36 0 0 1-5.17-2.86v9h-3.83v-24H377v1.85a6.28 6.28 0 0 1 5.24-2.32 7.41 7.41 0 0 1 6.05 2.73Zm-10.08 2.15a7.05 7.05 0 0 0-1.08 4.17v.27a6.74 6.74 0 0 0 1.35 4.4 3.72 3.72 0 0 0 3.06 1.51 4.45 4.45 0 0 0 3.76-1.64 7.57 7.57 0 0 0 1.07-4.34 8.1 8.1 0 0 0-1-4.33 4.18 4.18 0 0 0-3.73-1.82 3.9 3.9 0 0 0-3.43 1.78ZM398.13 229.13a2.6 2.6 0 0 1 .78 1.89 2.64 2.64 0 0 1-.78 1.88 2.74 2.74 0 0 1-1.88.74 2.58 2.58 0 0 1-2.62-2.62 2.51 2.51 0 0 1 .77-1.89 2.37 2.37 0 0 1 1.85-.77 2.52 2.52 0 0 1 1.88.77Z"/></g></svg>