<svg xmlns="http://www.w3.org/2000/svg" viewBox="0 0 622.8 118.2"><defs><style>.cls-1{fill:#231815;}</style></defs><g id="font"><path class="cls-1" d="M23.33,36.18c0,8.38.41,16.76.11,25.14S22.08,78,22,86.41a1.25,1.25,0,0,0,2.5,0c.07-8.39,1.13-16.71,1.43-25.09s-.1-16.76-.11-25.14a1.25,1.25,0,0,0-2.5,0Z"/><path class="cls-1" d="M135.69,26.93c0,2.66-.4,5.31-.39,8,0,2.33.07,5.34,1.88,7.08a1.32,1.32,0,0,0,1.52.2c4.47-2.06,9.19-4.28,14.14-4.82,4.61-.51,9.24.14,13.85.05a25.15,25.15,0,0,0,7.12-1,8.28,8.28,0,0,0,3.37-1.49c.82-.84.68-2.15.7-3.22.05-2.48,0-4.95,0-7.43a1.25,1.25,0,0,0-2.5,0c0,2.37.11,4.72,0,7.09,0,.6-.06,1.22,0,1.82,0,.14-.05.13.08,0s-.11.08-.2.1c-.7.15-1.39.53-2.07.74a19,19,0,0,1-3.25.71,42.42,42.42,0,0,1-6.76.16c-4.25-.15-8.56-.5-12.76.36-4.52.92-8.78,2.88-12.94,4.79l1.51.19c-1.45-1.4-1.18-4.44-1.14-6.26.05-2.34.36-4.68.38-7a1.25,1.25,0,0,0-2.5,0Z"/><path class="cls-1" d="M146.26,24.28V53.37a1.25,1.25,0,0,0,2.5,0V24.28a1.25,1.25,0,0,0-2.5,0Z"/><path class="cls-1" d="M129.34,59.86a15.63,15.63,0,0,0,3.94-1.76,29.46,29.46,0,0,1,4.62-1.44c3.15-.92,6-2.68,9.09-3.78a14.34,14.34,0,0,1,5.06-.92,43,43,0,0,0,5.08,0c3-.32,5.86-1.28,8.89-1.3a1.25,1.25,0,0,0,0-2.5c-3.11,0-6,1-9.11,1.32-1.78.17-3.55,0-5.33,0a15.31,15.31,0,0,0-4.83.87c-3.12,1-6,2.82-9.1,3.79-1.52.47-3.08.78-4.56,1.35s-2.81,1.68-4.42,2-.91,2.7.67,2.41Z"/><path class="cls-1" d="M218.26,33.3c5.56,2.75,11.55,5.51,15.61,10.37,1,1.24,2.79-.53,1.77-1.76-4.19-5-10.37-7.93-16.12-10.77-1.43-.71-2.7,1.44-1.26,2.16Z"/><path class="cls-1" d="M245.66,29.69c-3.15-.57-6.08,1.27-8.44,3.16A30.9,30.9,0,0,0,231,39.52a1.25,1.25,0,1,0,2.16,1.26A29.56,29.56,0,0,1,238.57,35a16.07,16.07,0,0,1,3.48-2.28,7.44,7.44,0,0,1,1.57-.53,5,5,0,0,1,1.38,0,1.29,1.29,0,0,0,1.54-.87,1.27,1.27,0,0,0-.88-1.54Z"/><path class="cls-1" d="M213.61,46.68c2.73,0,5.46.32,8.19.11s5.11-.91,7.69-1.21a71.26,71.26,0,0,1,8.14-.21h9a1.25,1.25,0,0,0,0-2.5h-8.78a73.22,73.22,0,0,0-8.38.21c-2.5.29-5,1-7.46,1.19-2.8.26-5.62-.07-8.42-.09a1.25,1.25,0,0,0,0,2.5Z"/><path class="cls-1" d="M220.21,62.55c4.24,0,8.49.63,12.71.07,2-.27,4-.9,6-1.14a57.15,57.15,0,0,1,6.41-.25,1.25,1.25,0,0,0,0-2.5,57.15,57.15,0,0,0-6.41.25c-2,.23-3.9.79-5.88,1.11-4.22.7-8.58,0-12.83,0a1.25,1.25,0,0,0,0,2.5Z"/><path class="cls-1" d="M217.57,77.09c10.72-.16,21-3.93,31.73-4a1.25,1.25,0,0,0,0-2.5c-10.73,0-21,3.81-31.73,4a1.25,1.25,0,0,0,0,2.5Z"/><path class="cls-1" d="M229.54,44.11V69.3c0,4.2,0,8.39,0,12.59s-.14,8.37,0,12.53c.17,4.41,1.22,8.73,1.3,13.14a1.25,1.25,0,0,0,2.5,0c-.07-3.88-.88-7.67-1.2-11.53-.34-4.11-.11-8.29-.12-12.41q0-12.59,0-25.19V44.11a1.25,1.25,0,0,0-2.5,0Z"/><path class="cls-1" d="M297.84,71.61a6.37,6.37,0,0,1,0-1c0-.07,0-.15,0-.22,0-.27-.06.29,0,0s.08-.3.11-.44-.16.28,0,.06l.11-.19s-.24.25,0,.07-.26.15-.06,0,.07,0,0,0-.12,0,0,0l.13,0-.2,0a1.77,1.77,0,0,0,.23,0c.13,0,.11,0-.08,0l.17,0-.55-.32c-.12-.17-.15-.21-.09-.1l-.08-.19c0,.1,0,.29,0-.1,0,.26-.06-.06,0-.08a1.06,1.06,0,0,0,0,.19l0,.06c0,.13,0,.09,0-.1a.8.8,0,0,0-.08.16l-.12.2-.07.09c-.06.09-.06.09,0,0s0,0-.05.05l-.17.17c0,.06-.11.11-.16.16l-.09.07c-.08.06,0,0,.11-.08a2.5,2.5,0,0,0-.35.21c-.17.11.24-.06.11,0l-.18,0,1.41.57a.83.83,0,0,1-.07-.13c-.12-.19.06.11,0,.11s-.07-.22-.08-.24c-.06-.18,0,.12,0,.15s0-.1,0-.12v-.12c0-.19-.08.29,0,.11a.23.23,0,0,0,0-.11c0-.1.14-.12-.06.14a1.39,1.39,0,0,0,.11-.21.61.61,0,0,0,.07-.1s-.22.25-.09.11.13-.13.2-.2.27-.24.09-.09.08,0,.12-.07l.27-.15.12-.06c.19-.09-.22.08-.08,0l.54-.17.27-.06c.26,0-.29,0,0,0a3.13,3.13,0,0,1,.53,0c.32,0-.2-.06,0,0l.3.08c.18,0-.28-.15,0,0l.2.12s-.18-.15,0,0l.15.13.14.14s.2.23.08.08.1.16.12.2.05.11.08.15-.07-.23,0-.07.07.2.09.31l0,.16c0,.14,0-.29,0-.06a3.66,3.66,0,0,0,0,.65c-.05,0,.05-.27,0-.09a1.55,1.55,0,0,0,0,.21c0,.13-.06.25-.1.37s-.09.28-.14.41a.87.87,0,0,1-.07.17c.08-.1.08-.18,0,0s-.24.51-.37.76c-.25.47-.52.92-.79,1.38a1.27,1.27,0,0,0,.45,1.71,1.28,1.28,0,0,0,1.71-.45c1.21-2.07,2.84-4.9,1.13-7.17a3.8,3.8,0,0,0-3.27-1.66,5.24,5.24,0,0,0-3.21,1.25,2.89,2.89,0,0,0-.61,3.7,1.3,1.3,0,0,0,1.41.58,3.57,3.57,0,0,0,1.86-1.21,3.47,3.47,0,0,0,1-2.28,2,2,0,0,0-.56-1.41,2.29,2.29,0,0,0-1.94-.36,2.55,2.55,0,0,0-1.84,1.69,5,5,0,0,0-.19,2.36,1.28,1.28,0,0,0,1.25,1.25c.61,0,1.34-.55,1.25-1.25Z"/><path class="cls-1" d="M357.53,53.78a5.1,5.1,0,0,1,1.22-3.7,17.11,17.11,0,0,1,4.05-3.78,18.31,18.31,0,0,1,4.49-1.7,6.71,6.71,0,0,1,3.84-.15c3.09,1.12,2.9,6.16,2.66,8.75-.19,2.07-1.25,3.34-2.61,4.82a32.91,32.91,0,0,0-3.65,5c-1.31,2.13-2.34,4.37-3.43,6.61a10.1,10.1,0,0,1-1.77,2.64,3.16,3.16,0,0,0-1.07,2.39,1.28,1.28,0,0,0,1.25,1.25c2,.1,3.65-.81,5.31-1.75a10.88,10.88,0,0,1,2.59-1.2,12.5,12.5,0,0,1,3.51-.13c5.22.24,10.47.06,15.69.06a1.25,1.25,0,0,0,0-2.5c-5.22,0-10.47.18-15.69-.06a11.94,11.94,0,0,0-6.08,1c-1.71.85-3.32,2.22-5.33,2.11l1.25,1.25c0-.57,1.11-1.41,1.46-1.91a25.59,25.59,0,0,0,1.85-3.61,47,47,0,0,1,3.72-6.55c1.3-1.9,3.08-3.44,4.32-5.38a10.77,10.77,0,0,0,1.26-5.91c0-3.48-.77-8-4.57-9.23-3.06-1-7.06.45-9.79,1.84a17.94,17.94,0,0,0-5.23,4.67A7.6,7.6,0,0,0,355,53.78a1.25,1.25,0,0,0,2.5,0Z"/><path class="cls-1" d="M484.7,37.25c-1.93,1.74-1.6,5.6-1.1,7.86a5.32,5.32,0,0,0,1.82,3.3c1.27.88,2.9.4,4.23-.09a24.12,24.12,0,0,1,5.48-1.47,60.92,60.92,0,0,0,7.61-1.23c2.52-.66,4.92-1.65,7.56-1.49,1.84.11,3.94.31,5.39-1.05,2.52-2.35,1.41-6.59,1.38-9.6a1.25,1.25,0,0,0-2.5,0c0,2.24.78,5-.14,7.1-.59,1.39-2.19,1.17-3.46,1.09a17.56,17.56,0,0,0-6.15.75,46.23,46.23,0,0,1-6.23,1.48c-2.15.32-4.37.42-6.49.89-1.28.29-2.46.93-3.71,1.33-1,.32-1.57.55-2-.5a9.11,9.11,0,0,1-.58-3.66c0-.87,0-2.33.69-2.94,1.2-1.08-.57-2.84-1.77-1.77Z"/><path class="cls-1" d="M492.09,35.81V47.69c0,3.81.75,7.56.78,11.38a1.25,1.25,0,0,0,2.5,0c0-3.82-.78-7.57-.78-11.38V35.81a1.25,1.25,0,0,0-2.5,0Z"/><path class="cls-1" d="M480.94,64.19a47.66,47.66,0,0,0,8.34-2.35c2.8-.91,5.67-1.62,8.49-2.49s5.46-1.93,8.23-2.75c2.38-.7,5-1.68,7.49-1.71a1.25,1.25,0,0,0,0-2.5c-2.51,0-4.9,1-7.31,1.57-2.78.73-5.44,1.89-8.19,2.71s-5.7,1.65-8.54,2.5-5.57,2.13-8.51,2.52c-1.57.21-1.59,2.71,0,2.5Z"/><path class="cls-1" d="M539.19,13.83c1.19-.12,1.73.84,2.57,1.55a29.47,29.47,0,0,0,3.09,2.22,14.07,14.07,0,0,1,1.68,1.18c.37.32.66.71,1,1a2.39,2.39,0,0,0,2.87.43A6.45,6.45,0,0,0,552.19,18c.64-1.05,1.42-2,2-3.06a32.81,32.81,0,0,1,4.68-6.3c1.12-1.15-.64-2.92-1.77-1.77a31.78,31.78,0,0,0-4.46,5.79c-.68,1.12-1.35,2.21-2.12,3.26-.24.33-.45.68-.66,1a6.1,6.1,0,0,0-.73,1.09l-.13.14a1.88,1.88,0,0,0,.3-.12c0-.07-.39-.36-.44-.41a8.9,8.9,0,0,0-1-.94c-1-.8-2.12-1.44-3.18-2.17-1.78-1.23-3.13-3.45-5.54-3.2-1.58.17-1.6,2.67,0,2.5Z"/><path class="cls-1" d="M538.71,27.84a11.51,11.51,0,0,0,3-.45c1.13-.27,2.29-.38,3.43-.56,2.5-.41,5-.87,7.51-1.37,2-.4,4.12-1.16,6.23-1,1.46.12,3.27.38,4.36-.86s-.71-3-1.77-1.76c-.62.7-2.67.06-3.54.09a42.05,42.05,0,0,0-6.37,1.2l-6.65,1.2c-1.07.19-2.16.28-3.22.5a14.56,14.56,0,0,1-3,.5,1.25,1.25,0,0,0,0,2.5Z"/><path class="cls-1" d="M548.09,25.63c0,2.86-.13,5.73,0,8.6s1,5.51,1,8.31a1.25,1.25,0,0,0,2.5,0c0-2.81-.92-5.51-1-8.31s0-5.74,0-8.6a1.25,1.25,0,0,0-2.5,0Z"/><path class="cls-1" d="M540.64,37a52.13,52.13,0,0,0,8.83-.57c2.86-.5,5.64-1.39,8.56-1.36a1.25,1.25,0,0,0,0-2.5c-2.92,0-5.72.78-8.57,1.33a47.34,47.34,0,0,1-8.82.6,1.25,1.25,0,0,0,0,2.5Z"/><path class="cls-1" d="M536.78,44.27a67.12,67.12,0,0,0,6.94-.41c1.24-.12,2.46-.39,3.7-.48s2.41-.1,3.61-.21c2.38-.23,4.77-.63,7.14-.92,1.19-.15,2.36-.43,3.55-.46s2.38.05,3.56.06a1.25,1.25,0,0,0,0-2.5c-1.18,0-2.37-.1-3.56-.06a32.83,32.83,0,0,0-3.55.46c-2.37.3-4.77.68-7.14.92-1.2.12-2.41.13-3.61.21s-2.46.36-3.7.48a64.45,64.45,0,0,1-6.94.41,1.25,1.25,0,0,0,0,2.5Z"/><path class="cls-1" d="M548.57,42.54V69.11a1.25,1.25,0,0,0,2.5,0V42.54a1.25,1.25,0,0,0-2.5,0Z"/><path class="cls-1" d="M601.32,67.66a3,3,0,0,0-.5-1.49c-.16-.22-.33-.43-.5-.64s.1.18-.1-.14a2.29,2.29,0,0,1-.18-.29,1.48,1.48,0,0,1-.14-.46c0,.21,0,0,0,0s0-.25,0-.37c0-.34,0-.68,0-1a13.83,13.83,0,0,1,0-1.82c0,.38,0-.08,0-.18s.07-.27.11-.4.11-.27,0-.08,0,0,0-.06a.75.75,0,0,0,.1-.17l-.08.1.1-.12s.1-.09.12-.1l-.14.09.14-.08s.12-.07.14-.08c-.26.16-.09,0,0,0l.18,0c.29-.08-.26,0,.06,0h.42c-.17,0-.21,0-.11,0a.65.65,0,0,0,.2,0c.2,0,0,0-.06,0l.21.12c.18.08,0,0,0,0s.19.19.29.29c-.22-.24,0,0,0,0l.13.23a2,2,0,0,0,.1.21c.09.15-.09-.28,0,0s.1.3.14.45.08.32.11.47l0,.19c0,.15,0,.13,0,0a1.23,1.23,0,0,0,0,.19,8.55,8.55,0,0,1,0,.88c0,.14,0,.28,0,.42s0,0,0-.06a1,1,0,0,1,0,.22c0,.18-.1.34-.15.52s.09-.14,0,0a3.59,3.59,0,0,0-.17.34c-.11.19-.22.38-.35.57l-.13.18c.14-.19-.06.07-.1.11s-.31.32-.48.48.19-.1-.09.08l-.27.17s-.31.14-.13.07-.2,0-.23.06-.17,0,0,0c-.07,0-.48-.06-.16,0a1.28,1.28,0,0,0-1.53.88,1.26,1.26,0,0,0,.87,1.54c2.2.42,4.06-1.39,4.91-3.26a7,7,0,0,0,.15-5.06,4.31,4.31,0,0,0-1.59-2.25,3.5,3.5,0,0,0-2.81-.4c-1.91.47-2.52,2.39-2.58,4.14a22.23,22.23,0,0,0,.07,2.58,4.07,4.07,0,0,0,.66,2,4.83,4.83,0,0,0,.34.45s.3.39.19.23l.2.31c.07.13.07.14,0,0,0,.14,0,.14,0,0a1.25,1.25,0,0,0,2.5,0Z"/><path class="cls-1" d="M38.58,40.19a2.26,2.26,0,0,0-2.3,1A4,4,0,0,0,36,42.88c0,.58,0,1.15,0,1.72a6.07,6.07,0,0,0,.48,3.13,3.22,3.22,0,0,0,2.2,1.54,3.36,3.36,0,0,0,2.87-.85A6.25,6.25,0,0,0,43.1,46a4.25,4.25,0,0,0,.22-2.87,4.92,4.92,0,0,0-1.09-1.68A6.26,6.26,0,0,0,40.42,40a2.17,2.17,0,0,0-2.72.28,1.25,1.25,0,0,0,1.77,1.76s.09-.07.1-.1-.25.17-.35.2c.26-.07-.35,0-.07,0s-.34-.08-.13,0l.12,0,.13,0-.14-.06.11.06.27.16.17.12c.2.14-.19-.16-.07,0s.41.35.6.54.33.35.48.53a1.34,1.34,0,0,0,.11.14s-.2-.28-.1-.13a2.2,2.2,0,0,1,.17.25l0,.07c.1.14-.1,0,0-.09s.09.38.11.39L41,44a.86.86,0,0,1,0,.16,1.13,1.13,0,0,1,0,.26,1,1,0,0,0,0,.17c0-.19,0-.21,0-.07a1.16,1.16,0,0,1,0,.18,3.52,3.52,0,0,1-.13.43c0,.06-.11.36,0,0a1.15,1.15,0,0,1-.12.25,3.23,3.23,0,0,1-.22.41,2.63,2.63,0,0,0-.3.44l.09-.11-.11.13-.17.18a2.16,2.16,0,0,1-.28.26l.12-.09-.14.09-.14.08c-.23.13.26-.07,0,0a1.23,1.23,0,0,0-.29.07s.31,0,.11,0h-.22c-.26,0,.3.08.05,0l-.14,0c-.17,0-.13-.12,0,0a.85.85,0,0,0-.19-.1.5.5,0,0,0-.12-.08l.09.07-.11-.1c-.13-.13-.06-.18,0,0a.94.94,0,0,0-.09-.12,1.28,1.28,0,0,0-.11-.2c.09,0,.09.27,0,0,0-.05,0-.1-.05-.15v-.08c0-.13,0-.1,0,.09,0,0,0-.27,0-.32s0-.24,0-.37c0-1,0-2,0-3.06v-.09c0-.15,0-.12,0,.08l0-.14c0-.13,0-.08-.06.13l0-.09a.71.71,0,0,1-.31.31l.08,0c-.32.17-.22.1-.1.07-.1,0-.33,0-.1,0h.5a1.26,1.26,0,0,0,1.25-1.25,1.28,1.28,0,0,0-1.25-1.25Z"/><path class="cls-1" d="M43.89,41.71c0,1.24,0,2.48,0,3.72h2.5a28.07,28.07,0,0,1,.3-5.5c0-.24.09-.47.15-.7,0-.06.18-.58.09-.39a1.19,1.19,0,0,1,.09-.15c0-.08,0-.06,0,0,.11-.09.1-.09,0,0,.13-.06.12-.06,0,0l.2,0c-.15,0-.15,0,0,0h.24c-.12,0-.11,0,0,0s.12,0,0,0l.15.09c-.14-.11-.15-.12-.06,0s.08.09,0-.05c0,.07.19.42.08.11a2.65,2.65,0,0,1,.12.37c0,.14.05.27.08.41-.06-.32,0,.12,0,.18,0,.49,0,1,0,1.47.06,1.9.06,3.79.06,5.69a1.25,1.25,0,0,0,2.5,0c0-1.82,0-3.64,0-5.45A13.36,13.36,0,0,0,50,38.4a2.85,2.85,0,0,0-2.9-2.18,2.61,2.61,0,0,0-1.94.82,4.7,4.7,0,0,0-.9,2.4,31.57,31.57,0,0,0-.36,6,1.25,1.25,0,0,0,2.5,0c0-1.24,0-2.48,0-3.72a1.25,1.25,0,0,0-2.5,0Z"/><path class="cls-1" d="M56.94,39.14c-1.52,0-3.63-.46-4.81.75s-1,2.81-.82,4.2c.24,1.55.37,3.32,2,4a6.37,6.37,0,0,0,4.2.22A1.26,1.26,0,0,0,58,46.26c-1.42-1.34-3.28,0-4.48,1a8.71,8.71,0,0,0-3,4.49c-.5,1.92-.61,4.3.62,6a4.37,4.37,0,0,0,2.57,1.66,7.12,7.12,0,0,0,1.9.17c.62,0,1.27-.32,1.87-.29,1.61.09,1.61-2.41,0-2.5-.8,0-1.54.32-2.35.29a2.52,2.52,0,0,1-1.89-.68c-.83-.94-.63-2.58-.37-3.7a5.9,5.9,0,0,1,1.88-3.13,9.31,9.31,0,0,1,1.1-.89,5.84,5.84,0,0,0,.65-.38c.19-.17.09.11-.23-.19l.56-2.09a4.32,4.32,0,0,1-2.34,0c-.35-.1-.27,0-.3-.35-.07-.62-.29-1.22-.39-1.84-.07-.43-.29-1.72.12-2.08.22-.19.87,0,1.14,0,.63,0,1.27,0,1.9,0a1.25,1.25,0,0,0,0-2.5Z"/><path class="cls-1" d="M105.61,67.49a17.65,17.65,0,0,0-3.56,0,4.57,4.57,0,0,0-2.61,1.76,7.22,7.22,0,0,0-1.68,3.14,5.74,5.74,0,0,0,.53,3.31A3.85,3.85,0,0,0,100.72,78a4.68,4.68,0,0,0,1.75,0c.44,0,1.12-.25,1.52,0,.72.45,1,2,1.15,2.75a6.6,6.6,0,0,1,.16,2.54c0,.08-.22.65,0,.35s.09,0,0,0-.25.13-.36.18c-.5.21-1,.38-1.51.61a11.79,11.79,0,0,1-4.9.65,1.25,1.25,0,0,0,0,2.5,19.66,19.66,0,0,0,4.72-.42,19.49,19.49,0,0,0,2.9-1.16c2-.92,1.92-3.51,1.57-5.41-.39-2.1-1.28-4.92-3.75-5.16-.83-.08-2.27.53-2.91-.1a3.28,3.28,0,0,1-.79-2.51,4.87,4.87,0,0,1,1.9-2.76c.91-.58,2.48-.14,3.5-.12a1.25,1.25,0,0,0,0-2.5Z"/><path class="cls-1" d="M112.15,73.15c0,5,.1,10,0,15h2.5a4.25,4.25,0,0,1,.8-2.49c.2-.29.38-.48.61-.52a.13.13,0,0,1,.15.05,2,2,0,0,1,.28.71,4.9,4.9,0,0,1,.13,1c0,.7,0,1.4,0,2.1a1.25,1.25,0,0,0,2.5,0c0-2,.26-4.95-1.8-6-3-1.61-5.34,2.73-5.18,5.2a1.25,1.25,0,0,0,2.5,0c.11-5,0-10,0-15a1.25,1.25,0,0,0-2.5,0Z"/><path class="cls-1" d="M124.39,84.67c1.22,0,2.44,0,3.66,0a19,19,0,0,0,2-.22c.51-.08,1.07-.25,1.52-.32a1.85,1.85,0,0,0,1.45-.78,2.81,2.81,0,0,0,.26-.62c0-.06.05-.14.08-.2-.06.13.15-.26.18-.31a3.66,3.66,0,0,0,.62-1.59,1.89,1.89,0,0,0-.89-1.68,5.05,5.05,0,0,0-2.81-.75,3.94,3.94,0,0,0-2.88,1.3,5.52,5.52,0,0,0-1.35,2.86,7.79,7.79,0,0,0,0,3.33A4,4,0,0,0,128.76,88a5,5,0,0,0,1.79.27,5.45,5.45,0,0,0,1.07-.07c.13,0,.25-.06.38-.09l.25-.07c-.13,0-.12,0,0,0a1.26,1.26,0,0,0,1.25-1.25,1.28,1.28,0,0,0-1.25-1.25,5.22,5.22,0,0,0-1.15.2c.15,0-.17,0-.2,0h-.31a4,4,0,0,1-.69,0l-.35-.1c-.18-.05.17.09,0,0l-.21-.11a4.23,4.23,0,0,1-.4-.24c-.17-.12.18.19-.07-.06l-.2-.2c-.14-.14.1.14,0,0s-.12-.23-.05-.08,0,0,0-.08,0,.18,0,0a8.66,8.66,0,0,1,0-1.25c0-.19,0-.38,0-.57s-.06.28,0-.14a2,2,0,0,1,0-.26c0-.17.08-.33.12-.49s.08-.23,0,0a3.59,3.59,0,0,1,.17-.34,3.18,3.18,0,0,1,.28-.43c-.1.13.21-.21.23-.23l.2-.17c-.06,0-.14.07,0,0l.22-.13c-.2.11.05,0,.11,0l.22,0c-.07,0-.22,0,0,0h.49c.25,0,.1,0,0,0l.24,0,.56.16c.08,0,.18.11,0,0l.21.11c.23.12,0,0,0,0a3.43,3.43,0,0,1-.19-.48c-.06-.19,0-.09,0,0,.09-.12,0,0,0,.07-.12.19-.24.39-.35.59a5.51,5.51,0,0,0-.29.66c0,.06-.08.34-.13.37l.07-.18.34-.34.18-.07c-.1,0-.1,0,0,0h.06l-.32,0-.48.08a18,18,0,0,1-2.92.43c-1.11,0-2.22,0-3.33,0a1.26,1.26,0,0,0-1.25,1.25,1.28,1.28,0,0,0,1.25,1.25Z"/><path class="cls-1" d="M138.85,85.23a12.61,12.61,0,0,0,3.06-.3c.46-.12.9-.3,1.35-.46a6.07,6.07,0,0,0,.83-.35c.27-.16.49-.38.74-.56-.17.11,0,0,.11,0a1.67,1.67,0,0,0,.23-.12,2,2,0,0,0,.69-.72,2.94,2.94,0,0,0,.32-1.37,2.83,2.83,0,0,0-1.11-2.49,4.56,4.56,0,0,0-2.7-.62,3.8,3.8,0,0,0-2.62,1.5,5.22,5.22,0,0,0-.94,2.4,4.6,4.6,0,0,0,.28,3,5.11,5.11,0,0,0,2.72,2.14,5.6,5.6,0,0,0,1.91.23,6.69,6.69,0,0,0,1,0,2,2,0,0,0,.42-.09l.11,0c.1,0,.22,0,0,0A1.26,1.26,0,0,0,146.48,86a1.28,1.28,0,0,0-1.25-1.25,1.94,1.94,0,0,0-.68.11l-.24.09c.17-.07.1,0,0,0-.45,0-.9,0-1.35,0s.13.05-.06,0l-.29-.07-.17-.06-.13-.06c-.15-.08-.29-.17-.43-.26s.12.11,0,0l-.26-.24a1.66,1.66,0,0,1-.36-.39c0,.09.18.14,0,0l0-.08c.06.17.07.19,0,.06a1.21,1.21,0,0,0-.05-.18c-.08-.29,0,.28,0,0a4.69,4.69,0,0,1,0-.53,1.94,1.94,0,0,1,0-.24c0-.31,0,.2,0,0s.05-.3.08-.45.05-.27.08-.4.19-.41.16-.52l-.06.14s0-.1.07-.16l.09-.15s.1-.21.14-.21-.21.23,0,0,.21-.29.31-.31l-.12.09.16-.1.24-.14c.24-.14-.14,0,0,0a1.6,1.6,0,0,0,.21,0c.25-.07-.05,0-.06,0s.24,0,.29,0h.2c.32,0-.26-.06.06,0a5.12,5.12,0,0,1,.56.15s.15.07.18.07l-.14-.06.15.08c.08,0,.19.17-.11-.09.16.14-.14-.27,0-.06a.52.52,0,0,0,.06.13c-.16-.18-.07-.22,0-.06a1.21,1.21,0,0,0,.05.18c.06.25,0-.26,0,0v.39c0,.27.07-.28,0,0a.74.74,0,0,0,0,.14c0,.22.16-.24,0-.07s.21-.21.22-.21a2.32,2.32,0,0,0-.51.3l-.38.29-.13.11c.09-.07.09-.07,0,0l-.18.1c.26-.13-.14,0-.19.06-.4.14-.79.3-1.2.41-.21.06-.43.1-.65.14s.17,0,0,0l-.38,0c-.46,0-.92,0-1.38,0A1.26,1.26,0,0,0,137.6,84a1.27,1.27,0,0,0,1.25,1.25Z"/><path class="cls-1" d="M151.89,80.82v15.9c0,.79,0,1.58,0,2.37s.24,1.5.23,2.23a1.25,1.25,0,0,0,2.5,0c0-.75-.24-1.46-.23-2.23s0-1.58,0-2.37V80.82a1.25,1.25,0,0,0-2.5,0Z"/><path class="cls-1" d="M153.53,82.07c.54,0,1.08,0,1.61-.06.24,0,.47,0,.7,0l.19,0c-.18,0-.22,0-.09,0,.31.11-.19-.11,0,0s-.25-.24-.05,0c-.13-.18-.17-.22-.1-.12l.05.1c-.11-.09-.1-.28-.05-.08s0,.37,0,0c0,.33,0,.65,0,1s0,.36,0,.54,0,.25,0,.38V84c0,.15,0,.13,0-.06a.83.83,0,0,1,0,.15c.08-.17.08-.2,0-.08s.19-.18,0,0l-.23.22.07,0-.13.1-.45.34c.27-.2-.08,0-.13.09s-.38.24-.58.34l-.18.09c.15-.06.16-.07,0,0s-.24.09-.37.12l-.18,0c-.15,0-.13,0,0,0a1.22,1.22,0,0,1-.38,0,1.26,1.26,0,0,0-1.25,1.25,1.28,1.28,0,0,0,1.25,1.25,5.19,5.19,0,0,0,3-1c.15-.1.3-.22.45-.33s-.19.13,0,0,.45-.33.66-.52a2.57,2.57,0,0,0,.78-1.35,8.37,8.37,0,0,0,0-1.5c0-.31,0-.61,0-.91a2.48,2.48,0,0,0-1.38-2.31,8.61,8.61,0,0,0-3.4-.18,1.26,1.26,0,0,0-1.25,1.25,1.28,1.28,0,0,0,1.25,1.25Z"/><path class="cls-1" d="M401.21,42.5h6.93a1.25,1.25,0,0,0,0-2.5h-6.93a1.25,1.25,0,0,0,0,2.5Z"/><path class="cls-1" d="M405.38,37.52a24.05,24.05,0,0,1-1.86,3.86c-.71,1.33-1.41,2.65-2.08,4s-1.35,2.73-2,4.1C398.87,50.57,398,51.74,398,53a1.25,1.25,0,0,0,2.5,0,3.29,3.29,0,0,1,.56-1.2c.32-.61.62-1.24.93-1.86.68-1.35,1.33-2.73,2-4.08,1.28-2.51,2.92-5,3.8-7.67.5-1.54-1.91-2.19-2.41-.67Z"/><path class="cls-1" d="M408.45,47.9a12.22,12.22,0,0,0,.19,3.77,1.33,1.33,0,0,0,1.21.92c.88.11,1.58-.76,2.18-1.28.39-.33.78-.68,1.19-1l.5-.38c.12-.1.26-.19.38-.3s.24-.14-.11,0l-1.21-.32.06.08.14.25.26.52a5.83,5.83,0,0,0,.55,1l.28.36s.13.17.07.08c.05.08.11.16.15.24-.06-.11,0,0,0,.07a1.72,1.72,0,0,0,1.3,1.35c1,.12,1.61-.79,2.28-1.39s1.35-1.39,2-2.07c1.14-1.15-.63-2.92-1.76-1.77-.56.56-1.08,1.17-1.66,1.73-.26.25-.55.48-.81.74l-.26.27-.16.18a.66.66,0,0,1,.17-.12l1.22.32c.15.17,0,0,0-.15a3.13,3.13,0,0,0-.33-.66,9.4,9.4,0,0,1-.58-.8,11.84,11.84,0,0,0-1.17-2,1.23,1.23,0,0,0-1.22-.32,3.33,3.33,0,0,0-1.08.73c-.45.36-.9.69-1.33,1.06s-.69.58-1,.89l-.27.24c-.16.16,0,0-.05,0s.32-.06.27-.06l1.21.92A10.06,10.06,0,0,1,411,47.9a1.25,1.25,0,0,0-2.5,0Z"/><path class="cls-1" d="M427.11,44.81a4.8,4.8,0,0,0-2.43.35,3.52,3.52,0,0,0-1.51,1.92,3.71,3.71,0,0,0-.3,2.15,3.28,3.28,0,0,0,1.39,1.86,4.42,4.42,0,0,0,2.1.76,3.19,3.19,0,0,0,2.41-.86,6.78,6.78,0,0,0,1.42-1.74,3,3,0,0,0,.29-2.82,4.85,4.85,0,0,0-1.68-1.53,1.93,1.93,0,0,0-2.58,0,1.29,1.29,0,0,0,0,1.77,1.27,1.27,0,0,0,1.77,0c.12-.13-.14.1-.14.1a.79.79,0,0,1-.56.11c-.22,0-.09,0,0,0s.09.12-.1,0c.13.11.33.19.48.3l.4.28.12.09c.14.09-.23-.22,0,0l.12.11.06.05c-.21-.16.06.07,0,.06s-.08-.29-.08-.31c0,.15,0,0,0-.08,0,0,0,.13,0,.17s-.08.26-.12.39.11-.21,0-.06a1.74,1.74,0,0,1-.1.19,3.79,3.79,0,0,1-.2.34,2,2,0,0,1-.13.18s.18-.22,0,0a7.41,7.41,0,0,1-.54.58s-.19.24-.25.24l.12-.09-.11.07-.15.08c-.14.09.29-.07,0,0l-.16,0c-.18,0,.07,0,.1,0a1,1,0,0,0-.25,0,1,1,0,0,0-.17,0s.3.06.08,0l-.32-.09-.13,0c-.23-.08.22.1.07,0a2,2,0,0,1-.32-.17.57.57,0,0,1-.13-.08c-.12-.08-.08-.13.05,0-.05-.07-.16-.13-.22-.2l-.1-.1c-.14-.15.06.06.07.09a.83.83,0,0,0-.08-.12c-.13-.22,0,0,0,0l0-.13c-.08-.22,0,.25,0,.1a.61.61,0,0,0,0-.14c0-.15-.07.26,0,.11s.11-.45.19-.67a.78.78,0,0,1,0-.14c.09-.26-.13.26,0,0a3.65,3.65,0,0,1,.18-.34l.08-.13c.13-.19-.19.19,0,0l.1-.1c.16-.16-.26.14,0,0s0-.07-.06,0a.65.65,0,0,1,.21-.06c.24-.06,0,0,0,0s.19,0,.22,0c.3,0,.61,0,.92,0a1.26,1.26,0,0,0,1.25-1.25,1.28,1.28,0,0,0-1.25-1.25Z"/><path class="cls-1" d="M486.46,74.59a8.54,8.54,0,0,0-2.08.09A2.89,2.89,0,0,0,482.6,76a5.88,5.88,0,0,0-.65,1.83,8.08,8.08,0,0,0-.32,1.82,2.9,2.9,0,0,0,3,2.78l.49,0,.2,0c.11,0,.1,0,.1,0s-.34-.29-.35-.31S485,82,485,82s0,.29,0,.32,0,.26,0,.38,0,.24,0,.1-.13.23-.1.18-.22.26-.3.35c-.44.5-.75,1.14-1.27,1.41a5.46,5.46,0,0,1-2.07,0,1.25,1.25,0,0,0,0,2.5,11.68,11.68,0,0,0,2.29,0,3.65,3.65,0,0,0,2-1.11c.48-.52.75-.9,1.18-1.43a3.4,3.4,0,0,0,.81-2.09,2.7,2.7,0,0,0-.54-2.08,2.38,2.38,0,0,0-2.08-.58,4,4,0,0,1-.49,0c-.13,0,.1.08,0,0a1.15,1.15,0,0,1-.2-.16c-.11-.12,0,0,0,0l-.06-.1c0,.12.05.13,0,0s0,0,0,.06a.91.91,0,0,1,0-.17c0-.06,0-.12,0-.18s0,.17,0,0,.14-.58.21-.87.14-.62.23-.92a1.17,1.17,0,0,1,.3-.53c-.09.07.08,0,.1,0a.63.63,0,0,1,.32,0c.39,0,.78,0,1.16,0a1.25,1.25,0,0,0,0-2.5Z"/><path class="cls-1" d="M504.3,76.17a4.25,4.25,0,0,0-3.08.77,6.53,6.53,0,0,0-1,1.17,2.82,2.82,0,0,0-.61,1.31,2.56,2.56,0,0,0,1.43,2.7,5.87,5.87,0,0,0,2.47.16v-2.5a3.35,3.35,0,0,0-2.39.92,4.63,4.63,0,0,0-1.4,2.35,3.67,3.67,0,0,0,.67,3.09,3.06,3.06,0,0,0,2.55.66,1.25,1.25,0,0,0,0-2.5c-.25,0-.5,0-.75,0H502c.17,0,.19,0,.05,0l.13.06c-.12-.07-.11-.06,0,0s.08.11,0,0c0,.09,0,.07,0-.07s0,.12,0-.16,0-.3,0-.45,0-.13,0-.2c0,.13,0,.13,0,0s.14-.31,0-.12a3.26,3.26,0,0,1,.24-.4c.2-.3-.14.15.11-.14a3.49,3.49,0,0,1,.32-.35c.07-.07.27-.18,0-.06l.16-.09c.12-.06.1,0-.06,0l.27-.06c-.33.06.14,0,.21,0A1.26,1.26,0,0,0,504.77,81a1.28,1.28,0,0,0-1.25-1.25c-.51,0-1,.09-1.53,0,.16,0,.18,0,0,0s-.12,0,.05,0,.14.11,0,0h0c-.07-.13-.07-.12,0,0,0-.14,0-.13,0,0v-.21c0,.14,0,.17,0,.08s0-.07,0,.06l.13-.18.27-.38,0,0,.16-.19a4,4,0,0,1,.29-.29c.07-.06.06-.06,0,0,.12-.07.13-.08,0,0a1,1,0,0,1,.25-.07c-.12,0-.1,0,.06,0,.35,0,.7,0,1.05,0a1.26,1.26,0,0,0,1.25-1.25,1.28,1.28,0,0,0-1.25-1.25Z"/><path class="cls-1" d="M512,75a6.52,6.52,0,0,0-2.41.28,3.07,3.07,0,0,0-1.91,2.26,4,4,0,0,0,.24,2.91,3.21,3.21,0,0,0,2.89,1.34A1.3,1.3,0,0,0,512,80.58a1.26,1.26,0,0,0-1.25-1.25,4.17,4.17,0,0,0-4.13,3.9,3.49,3.49,0,0,0,1,2.8,3.37,3.37,0,0,0,2.55,1,1.25,1.25,0,0,0,0-2.5l-.45,0c-.09,0-.08,0,.06,0l-.19-.05c.24.07,0,0-.06,0,.21.14-.06-.06-.1-.1a1.84,1.84,0,0,1-.24-.3l-.06-.11c.06.12.06.11,0,0,0,.13,0,.14,0,0a1.28,1.28,0,0,1,0-.19c0-.17,0-.33,0-.5a1.76,1.76,0,0,1,.52-1,1.51,1.51,0,0,1,1.11-.43v-2.5c-.07,0-.47,0-.26,0a1.82,1.82,0,0,1-.38-.11c.24.1-.37-.15-.1-.06L510,79.1a.31.31,0,0,1,.09.18l-.06-.23c0,.13,0,.11,0,0v-.38c0-.16,0-.17,0,0l0-.17c0-.15.06-.29.1-.44s-.05,0,.08-.15.08-.12,0,0l.15-.14c-.2.18,0,0,.08,0-.25.15.09,0,.18,0s.38,0,.09,0a3.4,3.4,0,0,1,.45,0H512a1.25,1.25,0,0,0,0-2.5Z"/><path class="cls-1" d="M517.3,86.68a38.15,38.15,0,0,1,.19-5.45l.21-1.51,0-.28s.07-.5,0-.21a6.89,6.89,0,0,1,.33-1.46c-.05.11.13-.21.15-.24-.14.21,0,0,.07-.07-.12.09-.12.1,0,0-.14.06-.15.06,0,0-.11,0-.11,0,0,0h.21a1.66,1.66,0,0,1,.5.12c.12.09.14.1.06,0a.86.86,0,0,1,.14.13c.06.06.06.06,0,0a1.55,1.55,0,0,1,.12.22c-.1-.18,0,.18,0,0a.89.89,0,0,1,0,.37,1.78,1.78,0,0,1-.29.8c.07-.09-.07.08-.07.09s-.28.1-.24.1a6.73,6.73,0,0,1-1.1,0,1.25,1.25,0,0,0,0,2.5,4.88,4.88,0,0,0,2.53-.42,3.44,3.44,0,0,0,1.49-2.06,3.22,3.22,0,0,0-1.63-4,3,3,0,0,0-4,1.1,5.56,5.56,0,0,0-.57,1.77c-.11.66-.18,1.3-.25,1.86a25.38,25.38,0,0,0-.35,3.26c0,1.11,0,2.23,0,3.34a1.25,1.25,0,0,0,2.5,0Z"/><path class="cls-1" d="M525.08,81.61a1.25,1.25,0,0,0,0-2.5,1.25,1.25,0,0,0,0,2.5Z"/><path class="cls-1" d="M490.65,76.11V80c0,.63,0,1.25,0,1.87v.51c0,.08,0,.15,0,.22s0-.06,0,0a6.85,6.85,0,0,0-.11.91,1.4,1.4,0,0,0,1.66,1.51,3.17,3.17,0,0,0,1-.34l.29-.14c-.24.11.12,0,.17,0,.62-.23,1.23-.45,1.83-.73a4.54,4.54,0,0,1,1.37-.35,1.26,1.26,0,0,0,1.25-1.25A1.28,1.28,0,0,0,496.83,81a4.91,4.91,0,0,0-1.56.26c-.27.09-.55.21-.82.32l-.37.17-.13.06c.07,0,.06,0,0,0-.42.17-.86.31-1.29.47l-.69.31-.15.07.09,0-.1,0c.16,0,.18,0,0,0l1.08.62c.24.44.1.55.13.22s0,.08,0-.2a5.36,5.36,0,0,0,.09-1.06c0-.66,0-1.33,0-2V76.11a1.25,1.25,0,0,0-2.5,0Z"/></g></svg>