<svg xmlns="http://www.w3.org/2000/svg" viewBox="0 0 512.4 116.68"><defs><style>.cls-1{fill:#231815;}</style></defs><g id="font"><path class="cls-1" d="M18.09,62.63a27.55,27.55,0,0,0,7-.59c2.46-.61,4.89-1.35,7.36-1.93C37.11,59,41.54,57.54,46.06,56A83.41,83.41,0,0,1,60.19,53c2.58-.39,5.15-.89,7.73-1.27,1.09-.16,1.53-.07,1.63,1.12a11.73,11.73,0,0,1-.09,3.45l.43-.43c-1.82.42-3.69-.09-5.53.05a33.42,33.42,0,0,0-5.59,1.24c-4,1-8.06,1.51-12,2.54-2,.51-3.91,1.12-5.92,1.49s-4.19.64-6.29.93A24.6,24.6,0,0,0,29,63.33a34.52,34.52,0,0,1-5.57,1.44c-1.93.4-3.82,1.53-5.81,1.55-1.83,0-.89-1.9-.39-2.9.36-.71.49-.89,1.36-.9s1.81.1,2.7.13a16.56,16.56,0,0,0,5.35-.31C28.4,61.8,30,61,31.84,60.56c2.09-.43,4.06-1.21,6.11-1.76,1.83-.49,3.64-.66,5.43-1.3a58.41,58.41,0,0,1,6-1.82c4.16-1,8.45-1.43,12.56-2.65,1.16-.34,2.3-.71,3.47-1,.83-.21,2.63-.86,3.41-.3l-.31-.54c0,1.63-1,3-.87,4.68.08.79,1.33.8,1.25,0A7.19,7.19,0,0,1,69.55,53c.17-.57.51-1.64.12-2.18-.5-.71-1.86-.49-2.57-.39-2.83.4-5.54,1.49-8.32,2.12-2.43.56-4.89,1-7.35,1.45a55.69,55.69,0,0,0-7.15,1.87c-1,.33-2,.76-3.07,1s-2.26.35-3.38.63c-2.36.59-4.63,1.44-7,2-2.23.48-4.13,1.83-6.46,2-1.1,0-2.21,0-3.31-.06a21.7,21.7,0,0,0-3-.11c-1.36.18-1.68,1-2.21,2.13-.42,1-.92,2.3-.31,3.29.75,1.22,2.55.9,3.71.63s2-.64,3-1a25.66,25.66,0,0,1,3.48-.75c2.19-.38,4.14-1.5,6.33-1.91,2.39-.46,4.82-.68,7.22-1.05,2.74-.42,5.33-1.18,8-1.85s5.3-1.12,8-1.65,5-1.26,7.53-1.79,5,.23,7.44-.34a.58.58,0,0,0,.44-.43,11.33,11.33,0,0,0,0-4.71,1.89,1.89,0,0,0-1.94-1.53,33.71,33.71,0,0,0-5.52.87c-2.17.35-4.35.67-6.52,1a70.87,70.87,0,0,0-12.28,3A114.08,114.08,0,0,1,32.6,58.8c-2.32.52-4.6,1.17-6.89,1.79a27.9,27.9,0,0,1-7.62.79.63.63,0,0,0,0,1.25Z"/><path class="cls-1" d="M100.94,23.9a12.16,12.16,0,0,1-3.62,5.61c-1.87,1.81-3.59,3.75-5.42,5.59A32.08,32.08,0,0,1,86,39.68a30.2,30.2,0,0,1-2.64,1.68c-1,.51-2.07.72-3,1.26a.64.64,0,0,0-.23.86c1.17,1.75,1.49,3.85,2.4,5.72a.61.61,0,0,0,.7.29,18.63,18.63,0,0,0,4.62-3.27,46.84,46.84,0,0,1,5.56-4A13.77,13.77,0,0,0,97.42,39c.7-.9,1.54-1.62,2.28-2.47.45-.52.9-1.66,1.58-1.86l-.71-.29c1,1.94.78,4,.8,6.13a51.89,51.89,0,0,1-.16,6.48c-.25,2.09-.47,4.18-.75,6.27a30.06,30.06,0,0,1-.42,3,6.76,6.76,0,0,0-.41,2.13c.08,1.37,2.1,1.33,3.12,1.35,2.1,0,4.2.29,6.3.36s4.27.06,6.4,0a58.63,58.63,0,0,0,6.61-.62,56.59,56.59,0,0,0,6.58-1.27,35.43,35.43,0,0,1,4.1-.69c1.13-.14,2.23-.46,3.36-.55.8-.07.81-1.32,0-1.25-1.82.14-3.66.56-5.48.83-2.07.32-4,1-6.11,1.36a75,75,0,0,1-12.61.92c-2.05,0-4.08,0-6.13-.21-.94-.07-1.88-.16-2.82-.17s-2.24.14-1.89-1.23a68,68,0,0,0,1.49-11.12c.18-2.31,0-4.63.07-6.94a11.19,11.19,0,0,0-1-5.45.63.63,0,0,0-.7-.29,2.69,2.69,0,0,0-1.38,1.13,17.88,17.88,0,0,1-1.69,2c-.77.78-1.38,1.72-2.16,2.47a12.7,12.7,0,0,1-2.33,1.64,53.27,53.27,0,0,0-5.28,3.65c-1.7,1.32-3.25,3.08-5.26,3.91l.71.28c-.91-1.88-1.23-4-2.4-5.72l-.22.85c1-.53,2.06-.76,3-1.26s2-1.28,3-1.91a32.74,32.74,0,0,0,6.13-4.87l5.62-5.79a12.73,12.73,0,0,0,3.42-5.63c.19-.78-1-1.12-1.21-.34Z"/><path class="cls-1" d="M102,24.7a11.24,11.24,0,0,1,2.46,0l-.44-.44a7.62,7.62,0,0,1-.37,4.12,4.7,4.7,0,0,0-.42,2.87.62.62,0,0,0,.43.44c3,.65,5.87-.31,8.65-1.48s5.82-1.74,8.5-3.07c2.15-1.06,1-3.07.69-4.84,0-.15-.29-1-.2-1.11s1.24-.1,1.53-.09c1.34.06,2.31.57,2.46,2,.09.77-.22,1.68.18,2.39s1.35.82,2.11.84a13.94,13.94,0,0,0,4-.69c1.37-.39,2.81-.68,4.15-1.15.52-.18,1.57-.79,2.12-.64s.35.93.37,1.38c0,.6.28,1.67-.28,2.11s-1.31.27-1.86.35c-1.36.18-2.69.55-4.05.75a32.07,32.07,0,0,1-4.79.22c-2.06,0-2.15,2.16-2,3.75s1.32,2.26,2.86,2.47a16.64,16.64,0,0,0,5.31-.3c.76-.14,1.08-.22,1,.69a2,2,0,0,1-1.15,1.88c-1.25.48-3,.06-4.34,0-1.74-.06-3.26-.19-3.59,1.91a31.15,31.15,0,0,0,0,4.1,2,2,0,0,0,.64,1.91,6.32,6.32,0,0,0,3.23.83c.72.06,1.45,0,2.17,0,.48,0,1.76-.27,2.19,0,1.08.71-.48,2.07-1,2.35a8.81,8.81,0,0,1-3,.72,19.61,19.61,0,0,1-2.54.09c-1.1,0-2.42-.31-3.13.78s-.8,4,.33,5c1.42,1.24,3.93.93,5.66.84a23,23,0,0,0,3.51-.27c1.49-.32,3-1.36,4.5-1.33l-.54-.31a1.45,1.45,0,0,1,.13,1.44c-.42.77-1.11.53-1.77.5-.81,0-.8,1.21,0,1.25,1,0,2,.18,2.67-.76a2.92,2.92,0,0,0,.2-2.86c-.52-.85-1.6-.48-2.39-.21a15.94,15.94,0,0,1-4.65,1.25c-1.85.06-4.07.46-5.85-.16-1-.36-1-1.14-1-2.11,0-.77-.07-1.64.88-1.86a8.31,8.31,0,0,1,1.79.07,13.77,13.77,0,0,0,5.29-.77c1.49-.61,2.94-2.11,2.28-3.87a1.6,1.6,0,0,0-1.46-1c-1.56-.19-3.16.11-4.73-.08-.54-.07-1.87-.14-2.18-.73-.19-.38,0-1.32,0-1.73,0-1.16-.63-3.73,1-3.82,2.16-.12,5.38,1.08,7.15-.62,1-.92,1.72-3.9,0-4.46a5.18,5.18,0,0,0-2.27.24,15.86,15.86,0,0,1-3.08.23c-.76,0-2.14,0-2.67-.68a2.57,2.57,0,0,1-.23-1.48c0-.71-.12-1.5.79-1.66a17,17,0,0,1,1.74.08,25.31,25.31,0,0,0,2.75-.25c1.56-.21,3.08-.63,4.63-.84a4.18,4.18,0,0,0,2.54-.73c.87-.84.58-2.16.55-3.23,0-.71.1-1.55-.52-2-1-.74-2.41,0-3.35.32-1.34.47-2.76.77-4.13,1.16-.67.19-1.34.38-2,.51s-2,.47-2.6.11-.19-1.35-.24-1.9a3.81,3.81,0,0,0-.32-1.37,3,3,0,0,0-2-1.68c-1.6-.46-4.47-.44-4.08,1.84.17,1,1.19,3.28.32,4a8.35,8.35,0,0,1-2.38.92c-.93.33-1.87.59-2.8.89-3.69,1.18-7.27,3.62-11.3,2.75l.44.44c-.31-1.07.55-2.31.76-3.35a8.93,8.93,0,0,0,0-3.64.6.6,0,0,0-.44-.43,12.39,12.39,0,0,0-2.79-.08.63.63,0,0,0,0,1.25Z"/><path class="cls-1" d="M105.13,35.45c0,.77-.07,1.86,1,2a2.36,2.36,0,0,0,1.06-.31c.73-.27,1.52-.43,2.26-.7a38.48,38.48,0,0,1,4.08-1.26,13.91,13.91,0,0,1,1.9-.48,16.24,16.24,0,0,0,2.19-.3,12.22,12.22,0,0,0,1.66-.51,5.35,5.35,0,0,0,1.4-.57c.89-.72.14-1.74-.34-2.45-.62-.9-1.82-.7-2.73-.47-1.28.34-2.54.81-3.79,1.25-1.56.55-3.12,1.06-4.71,1.52-1.3.37-2.84.48-3.92,1.35-.63.5.26,1.38.88.88a4.58,4.58,0,0,1,1.78-.6c.62-.15,1.24-.32,1.86-.5,1.36-.4,2.7-.83,4-1.3s2.5-.88,3.76-1.27c.4-.12,1.36-.51,1.75-.22.15.12.26.45.37.6.22.31.23.2-.06.35a10,10,0,0,1-3.57.94,23.92,23.92,0,0,0-3.74.79c-1.33.36-2.62.87-3.92,1.32-.58.2-1.2.29-1.76.54l-.32.15c.15.08.19,0,.14-.13a2.4,2.4,0,0,0,0-.6c0-.8-1.22-.8-1.25,0Z"/><path class="cls-1" d="M107.46,42.22c1.37,0,2.75.06,4.1,0s2.54-.39,3.82-.56,2.61-.45,3.92-.57a3.39,3.39,0,0,1,.45,0l-.11-.13a3.52,3.52,0,0,1,0,.65c0,.17.13.65,0,.79s-.38.1-.53.12c-2.57.26-5.14,1-7.74.94-1.28,0-2.55-.06-3.83,0h-.95c.22.35.31.39.27.11a3.84,3.84,0,0,1,0-.48,2.77,2.77,0,0,1,.15-1c0-.21,0-.2,0,0l.38,0c.81,0,.81-1.21,0-1.25a1.66,1.66,0,0,0-1.34.26,2.49,2.49,0,0,0-.44,1.39c-.11.9-.24,2.07.93,2.17s2.68,0,4,0a21,21,0,0,0,4.27-.32c.73-.13,1.46-.18,2.19-.26s1.27-.23,1.92-.33c.85-.12,1.78-.15,1.92-1.2a12,12,0,0,0,0-1.47,1.2,1.2,0,0,0-.45-1.06,2,2,0,0,0-1.44-.15c-.66.09-1.32.16-2,.26-1.56.23-3.11.49-4.66.73a32,32,0,0,1-4.9.15.63.63,0,0,0,0,1.25Z"/><path class="cls-1" d="M106,52.34c0,.65-.45,1.1-.31,1.77a.62.62,0,0,0,.6.45,13.63,13.63,0,0,1,2,0c.72.08,1.43.25,2.16.32,1.35.12,2.63.34,4,.34a28.76,28.76,0,0,0,3.83-.25,1.74,1.74,0,0,0,1.63-1.74,11.74,11.74,0,0,0,0-1.33c0-.43.09-.84.08-1.27,0-.85-.64-1.17-1.44-1.14-.44,0-.87.12-1.31.18s-1.06,0-1.58,0c-1.4.06-2.78.17-4.18.15a19.54,19.54,0,0,0-2.54.07c-.6.06-1.16,0-1.75,0C105.89,50,106,51,106,52a.63.63,0,0,0,1.25,0c0-.18-.15-.77,0-.92-.12.17.14.1.26.1s.44,0,.66,0c.51,0,1-.12,1.53-.14s1.19,0,1.78,0c1.15,0,2.3,0,3.45-.11a25.79,25.79,0,0,0,2.64-.14c.33,0,.65-.11,1-.13.06,0,.28,0,.32,0l-.13-.18v.06a1,1,0,0,0,0,.3c-.05.67,0,1.31,0,2,0,.38,0,.68-.39.8a10.66,10.66,0,0,1-1.28.16,20,20,0,0,1-3.28.1,28.49,28.49,0,0,1-3.79-.4c-.55-.08-1.1-.21-1.66-.27a16.53,16.53,0,0,0-2,.05l.61.46s.23-.46.27-.58a3.07,3.07,0,0,0,.08-.85.63.63,0,0,0-1.25,0Z"/><path class="cls-1" d="M102.89,69.11c0,1.25-.58,2.44-.57,3.68a.61.61,0,0,0,.31.54,4.6,4.6,0,0,0,2.65,0c1.13-.14,2.25-.13,3.38-.34,2.69-.49,5.39-.92,8.08-1.38a58.84,58.84,0,0,0,7.53-1.78c1.15-.36,2.3-.74,3.46-1.07a10.48,10.48,0,0,0,1.44-.46c.41-.18,1-.74,1.47-.68L130,67a6.16,6.16,0,0,1-1.33,2.49c-.62,1-1.29,1.87-2,2.79a28.28,28.28,0,0,1-4.46,4.56c-3.48,3.08-7.68,4.67-12,6.14s-8.49,3.3-13,4.34a42.47,42.47,0,0,1-6.9,1.06,13.38,13.38,0,0,1-3.74-.12,20.56,20.56,0,0,0-3-.8.63.63,0,0,0-.61.79,9.43,9.43,0,0,1,.85,2.21c.11,1,.25,1.91.29,2.87a1.5,1.5,0,0,0,1.62,1.54,23.74,23.74,0,0,0,5.26-.32,49.63,49.63,0,0,0,5.56-.94c1.88-.59,3.76-1.21,5.68-1.67s4.1-.77,6.14-1.23c3.36-.75,7-1.63,9.77-3.77,1.36-1,2.52-2.33,3.82-3.46s2.74-2.12,4-3.29A39,39,0,0,0,133,72a22.34,22.34,0,0,0,2.25-4.64c.4-1.13.8-2.5-.14-3.48s-2.17-.66-3.29-.47c-1.84.31-3.66.62-5.47,1.06-2.26.54-4.56.84-6.85,1.21s-4.8.87-7.22,1.18c-1.88.24-3.77.52-5.67.62-1.14.06-2.64,0-3.49.91-.56.58.32,1.47.88.89s2.21-.51,3.1-.58c1.57-.11,3.14-.34,4.7-.53,3.41-.43,6.77-1.09,10.16-1.61s6.57-1.35,9.89-1.9c.51-.08,1.54-.45,2-.14.87.59.5,1.58.23,2.36a21.41,21.41,0,0,1-2.18,4.49,37.54,37.54,0,0,1-6,7.37c-2.16,2-4.56,3.77-6.72,5.81-5.06,4.77-12.14,4.78-18.5,6.55-1.81.51-3.59,1.19-5.41,1.65-1.63.41-3.43.45-5.1.71a18,18,0,0,1-2.94.12,7.3,7.3,0,0,1-1.14,0c-.74-.18-.52-.5-.56-1-.06-.84-.2-1.69-.31-2.53a10.41,10.41,0,0,0-.86-2.14l-.6.79a25.87,25.87,0,0,1,2.83.79,11.93,11.93,0,0,0,2.53.18,36.48,36.48,0,0,0,5.71-.58,61.13,61.13,0,0,0,11.18-3.16c3.6-1.35,7.41-2.41,10.87-4.08s5.9-3.86,8.69-6.23A21.57,21.57,0,0,0,129,71.19c.84-1.22,2.12-2.69,2.23-4.21a.64.64,0,0,0-.62-.63c-.79-.1-1.27.47-1.94.79a25.66,25.66,0,0,1-3.46,1.07,62.85,62.85,0,0,1-7.13,1.88c-2.57.46-5.16.78-7.72,1.26a31.41,31.41,0,0,1-4,.64c-.46,0-.92,0-1.38.1s-1.24.39-1.77.16l.31.54c0-1.22.54-2.44.57-3.68a.63.63,0,0,0-1.25,0Z"/><path class="cls-1" d="M112.76,72a19.57,19.57,0,0,0,3.39,3.29,42.31,42.31,0,0,0,4.17,3.51A44,44,0,0,0,125,81.88a45.22,45.22,0,0,0,5.21,2.25c1.72.67,3.48,1.07,5.25,1.58a17,17,0,0,0,2.4.72,20.2,20.2,0,0,0,2.58,0c2,0,4,0,5.93.12a15.79,15.79,0,0,0,2.57.06,10.48,10.48,0,0,1,2.3-.4l-.45-.61c-.11,1-.61,2-.65,3,0,.45.07.89.07,1.33,0,1,.24.63-.39.51-1.06-.21-2.17,0-3.25-.18s-2.19-.41-3.29-.57a39.73,39.73,0,0,1-6.57-1.65c-1.94-.63-3.94-1.09-5.89-1.69-3.75-1.15-7.56-2.57-10.62-5.09a31.22,31.22,0,0,1-4.22-4.6c-.63-.77-1.31-1.51-1.95-2.28a8.46,8.46,0,0,1-1.71-2.52l-.29.71a1.32,1.32,0,0,1,1.1-.09l-.43-.44,0,.18c.11.79,1.32.46,1.21-.33l0-.18a.61.61,0,0,0-.44-.44,2.55,2.55,0,0,0-2.06.22.65.65,0,0,0-.29.7,3.84,3.84,0,0,0,.89,1.5c.46.63.89,1.27,1.41,1.87,1.31,1.52,2.53,3.11,3.87,4.61a22.59,22.59,0,0,0,8.2,5.6,102.18,102.18,0,0,0,10.27,3.28,46.15,46.15,0,0,0,5.54,1.6c2,.33,4,.81,6,1,.54,0,1.09,0,1.63,0s.86.19,1.3.21a1,1,0,0,0,1-.53c.45-.79.12-1.84.16-2.69,0-1,.54-2,.65-3a.63.63,0,0,0-.46-.6c-1.27-.2-2.55.43-3.84.39-1.83-.06-3.64-.21-5.47-.21s-3.71.22-5.44-.39-3.38-.85-5-1.42a38.2,38.2,0,0,1-9.91-5.07,45.53,45.53,0,0,1-4.32-3.5c-1.21-1.13-2.8-2.12-3.71-3.51-.43-.68-1.52,0-1.08.63Z"/><path class="cls-1" d="M174.35,31.12a31.18,31.18,0,0,0-4.43.08,22.21,22.21,0,0,0-4.17,1.15c-1.37.46-2.73.95-4.1,1.39s-2.88.67-4.29,1.14c-1.2.4-4.26,1-4.61,2.48-.2.86.34,1.71.42,2.55s-.14,1.57.54,2.11a.65.65,0,0,0,.76.09,16,16,0,0,1,4.31-1.29,15.81,15.81,0,0,0,2.27-.61c1-.35,2.12-.46,3.15-.76,1.47-.41,2.76-1.13,4.27-1.4.84-.16,1.63-.41,2.45-.65l1.3-.37a5.63,5.63,0,0,1,1.73-.46c.7.16.42,1.06.42,1.58s.24,1.71-.17,2.19a7.13,7.13,0,0,1-1.81.76c-1.11.47-2.22,1-3.34,1.42-1.78.72-3.64,1.23-5.41,2a28,28,0,0,1-5,1.84c-1.44.3-5,.37-4.09,2.71.13.33.36.61.48.94a5.77,5.77,0,0,1,.23,1.38,2.91,2.91,0,0,0,.35,1.23c.65.9,1.72.27,2.55.05,1.45-.38,3-.37,4.42-.65,1.9-.36,3.73-1.06,5.61-1.52s3.65-.77,5.46-1.23a13.73,13.73,0,0,0,1.42-.44c.88-.34,1-.23,1,.69a18.39,18.39,0,0,1,.1,3c-.15.86-1.63,1.4-2.36,1.76a39.85,39.85,0,0,1-5.4,2.13c-1.94.65-3.87,1.33-5.81,2a29.82,29.82,0,0,1-3,.94,7.63,7.63,0,0,0-2.06.54.64.64,0,0,0-.31.54c0,1.21.68,2.47,1,3.61.22.82.56,1.77,1.53,1.81a4.59,4.59,0,0,0,1.5-.37c.78-.25,1.57-.47,2.35-.71a24.14,24.14,0,0,0,4-1.73,45.32,45.32,0,0,1,4.29-1.88c1.38-.57,2.6-1.45,4-2a37.38,37.38,0,0,1,3.9-1c.74-.21,1.29-.25,1.41.68a12.69,12.69,0,0,1,0,1.51,49.67,49.67,0,0,0,1.14,9.25c.31,1.53.76,3,1.1,4.55.29,1.29.33,3.11,1.12,4.19a1.46,1.46,0,0,0,1.8.41,11.18,11.18,0,0,0,1.61-1.06c.62-.37,1.33-.6,1.95-1,2.07-1.26,1.22-4.33.67-6.23A111.83,111.83,0,0,1,188,59.29c-.14-.78-.27-1.56-.45-2.33-.1-.49-.47-1.38-.28-1.85s1.51-.67,2-.72l-.44-1.07.2-.14a.63.63,0,0,0,.33,1.21c2.14-.48,4.26-1,6.38-1.56,1.29-.34,3.82-.54,4.49-1.92a5.61,5.61,0,0,0-.23-3.63c-.49-1.28-1.65-1.5-2.87-1.19-2.09.53-4.1,1.21-6.22,1.61s-4.35.74-6.49,1.32c-.53.14-1.21.44-1.7.13s-.34-.61-.4-1.09-.43-1.86,0-2.38,2-.67,2.62-.87c1.15-.33,2.3-.68,3.44-1,2-.64,4-1.36,6-2.12a2.23,2.23,0,0,0,1.71-2.34c0-.88-.06-2.26-.87-2.81a2.89,2.89,0,0,0-2-.16c-1.08.13-2.15.37-3.21.58-2.23.44-4.51.41-6.72.9-1.09.24-2.19.5-3-.43a2.69,2.69,0,0,1-.7-1.57c0-.61.35-.63.85-.8a36.91,36.91,0,0,1,5.79-1.27c1.36-.24,3-.24,4.2-1s1.31-2.59,1-3.91-1.64-1.32-2.87-1.15c-5,.68-10,2.32-15,3.14-.79.13-.45,1.33.34,1.2,4.18-.68,8.31-1.73,12.45-2.63a19.86,19.86,0,0,1,2.95-.54c.37,0,.66-.09.89.2s.15.93.14,1.24c-.06,2-2,1.84-3.49,2.09-1.82.31-3.67.55-5.44,1-.95.26-2.53.52-2.95,1.55s.27,2.53,1,3.31c1.05,1.16,2.41,1.15,3.84.85,2-.42,4-.45,6-.78,1-.16,2-.41,3-.59a9.9,9.9,0,0,1,1.71-.23c.47,0,.57,0,.75.39a3.86,3.86,0,0,1,.2,1.69c-.16.85-1.39,1-2.1,1.32-1.94.74-3.9,1.4-5.88,2l-2.75.82a10.6,10.6,0,0,0-2.42.74c-.88.54-.82,1.75-.74,2.63s0,2.56.8,3.18c1,.79,2.91-.06,4-.35,2.26-.6,4.64-.83,6.93-1.31,1.1-.23,2.19-.52,3.26-.85s2.46-1.14,2.95.08a4.2,4.2,0,0,1,.18,1.06c.08.67.22,1-.24,1.47-.71.78-2.22.92-3.21,1.18-2.19.57-4.38,1.12-6.58,1.61l.33,1.21a.9.9,0,0,0,.35-.18.63.63,0,0,0-.44-1.07c-1,.1-2.71.25-3.15,1.26a4.1,4.1,0,0,0,.07,2.35c.29,1.35.55,2.71.79,4.07a84.68,84.68,0,0,0,2.12,9.44c.39,1.32,1,3,.63,4.4-.32,1.2-2.26,1.58-3.2,2.26-.16.12-.41.41-.6.46-.75.18-.7-.39-.82-.86-.17-.7-.32-1.41-.47-2.12-.35-1.61-.81-3.2-1.16-4.81a47.78,47.78,0,0,1-1.19-9.37c0-1.29.16-3.41-1.59-3.64a3.77,3.77,0,0,0-1.44.25c-.62.17-1.25.25-1.87.4a16.58,16.58,0,0,0-3.65,1.37c-.73.37-1.41.83-2.15,1.18s-1.69.61-2.52,1c-1.4.59-2.69,1.42-4.07,2a23,23,0,0,1-2.57.9,17.69,17.69,0,0,1-2.35.72c-1,.14-.86-1.07-1.1-1.82a6.89,6.89,0,0,1-.7-2.23l-.31.54a12.05,12.05,0,0,1,2.42-.59c1-.3,2-.64,3-1,1.78-.63,3.57-1.24,5.37-1.85a42.22,42.22,0,0,0,5.11-2c1.07-.51,2.78-1.07,3.23-2.3a6,6,0,0,0,0-2.27c0-.74.07-1.51,0-2.24a1.4,1.4,0,0,0-1.77-1.35c-.44.11-.84.33-1.27.47-1,.34-2.13.55-3.19.79-2,.45-4,.9-6,1.48a38.33,38.33,0,0,1-5.61,1.09,14.15,14.15,0,0,0-2.34.52c-.1,0-.46.2-.54.16.09,0,0-.25,0-.2-.2-.29-.09-.94-.14-1.29-.07-.53-.92-1.83-.56-2.16s1.27-.26,1.68-.34a23.82,23.82,0,0,0,5.18-1.56c2-.93,4.16-1.57,6.25-2.36,1.89-.72,3.76-1.55,5.6-2.37,1.07-.47,1.11-1.24,1.11-2.34s.3-2.59-.35-3.42c-.91-1.16-3.2,0-4.27.29a47.3,47.3,0,0,0-5.53,1.59,20.36,20.36,0,0,1-3.5,1c-1,.21-1.91.64-2.91.82A18.36,18.36,0,0,0,153.84,41l.75.09c-.35-.27-.2-1.61-.32-2.08-.26-1-.5-1.49.66-2a38.7,38.7,0,0,1,5.76-1.77c2.2-.53,4.32-1.42,6.47-2.12a21.26,21.26,0,0,1,7.19-.82.63.63,0,0,0,0-1.25Z"/><path class="cls-1" d="M167.41,31.41a7.62,7.62,0,0,1-5.09-1.63,12.32,12.32,0,0,1-2-1.77,26.35,26.35,0,0,1-1.24-2.7.64.64,0,0,0-1.08,0,2.41,2.41,0,0,0-.06,2,10.15,10.15,0,0,1,.07,1.1c0,.47.09.94.12,1.41.06.91,0,1.82,0,2.72a3,3,0,0,0,.16,1c.12.3.43.65.41,1-.07.8,1.18.79,1.25,0s-.5-1.1-.56-1.73c-.09-.86,0-1.75,0-2.61s-.15-1.67-.17-2.5a4.64,4.64,0,0,0-.14-.92c-.06-.26-.17-.54,0-.77H158c.26.47.39,1,.62,1.48a7.13,7.13,0,0,0,.8,1.46,6.45,6.45,0,0,0,1,1c.4.32.76.67,1.16,1a9.07,9.07,0,0,0,5.76,1.81.63.63,0,0,0,0-1.25Z"/><path class="cls-1" d="M177.57,31a18.66,18.66,0,0,0,3.73-5.72A12.1,12.1,0,0,0,182.38,22c.12-.59.16-1.19.26-1.78a10.51,10.51,0,0,0,.34-1.63l-1.23.16c.47,1.67.27,3.38.53,5.08.13.87.29,1.74.45,2.61.08.39.11.78.17,1.17s.27.91.35,1.38c.14.79,1.34.45,1.21-.34-.08-.43-.26-.83-.34-1.26s-.09-.86-.18-1.28c-.18-.87-.33-1.75-.45-2.62a24.47,24.47,0,0,1-.14-2.71,11.08,11.08,0,0,0-.39-2.36.63.63,0,0,0-1.23.17,11.51,11.51,0,0,1-.33,1.5c-.08.56-.13,1.13-.24,1.68a12.1,12.1,0,0,1-1,3,17,17,0,0,1-3.45,5.29c-.6.54.29,1.42.89.88Z"/><path class="cls-1" d="M222.6,37.44c-.54.06-.6-.19-.79-.67s-.42-1.23-.6-1.85a4.15,4.15,0,0,1-.34-1.46c.1-.55,1-.75,1.45-.89.7-.2,2.13-.7,2.59.11a4,4,0,0,1,.26,1.47c.08.65.24,1.2-.19,1.75-.62.78-1.63,1.85-2.58.92-.4-.38-1.15-1.73-.37-2.07a2.45,2.45,0,0,1,2.33.58c.47.39.43.94.51,1.52s.23,1.21.29,1.82a5.68,5.68,0,0,1-.76,3.14,2.7,2.7,0,0,1-.91,1.15,12,12,0,0,1-1.26.59c-.86.38-3.11.91-2.55,2.27a4.71,4.71,0,0,0,1.14,1.52,1.9,1.9,0,0,0,2.06.21,12.29,12.29,0,0,0,2.57-1.45,5.74,5.74,0,0,0,2.26-2.27,13.5,13.5,0,0,0,1.17-7,4.93,4.93,0,0,0-1.07-3.11,3.42,3.42,0,0,0-1.19-1c-.42-.2-.77-.23-1-.69-.31-.74-1.52-.41-1.21.33a2.23,2.23,0,0,0,.74,1.07c.4.28.89.35,1.28.67,1.17,1,1.19,2.34,1.21,3.74a14.59,14.59,0,0,1-.56,4.1,5,5,0,0,1-2.5,3.21c-.53.31-1,.7-1.53,1-.32.17-1,.5-1.38.33s-.55-.63-.71-.86c0,0-.15-.24-.15-.24s-.12.22-.06.24.59-.35.66-.38c.8-.36,1.63-.64,2.41-1a4.75,4.75,0,0,0,2.06-2.68,6.25,6.25,0,0,0,.37-3.63c-.12-.7-.2-1.41-.32-2.11a1.92,1.92,0,0,0-.81-1.38,3.8,3.8,0,0,0-2.68-.94,1.85,1.85,0,0,0-2,1.37c-.45,2,1.68,4.4,3.7,3.42a4.92,4.92,0,0,0,2.21-2.36,4,4,0,0,0,0-1.78,7,7,0,0,0-.33-1.83,2.34,2.34,0,0,0-2.75-1.19c-1.14.16-2.87.5-3.5,1.57a2.08,2.08,0,0,0-.12,1.55c.18.76.4,1.52.65,2.26.39,1.14.79,2.4,2.23,2.24.79-.08.8-1.33,0-1.25Z"/><path class="cls-1" d="M258.43,23.69a18.69,18.69,0,0,0,.06,3.74.62.62,0,0,0,.43.44c1,.29,2.14-.26,3.14-.45,1.92-.36,3.89-.58,5.82-.86,4.28-.62,8.58-1.07,12.84-1.82,2.13-.38,4.18-.35,6.32-.53s4-.49,6-.71,4.13-.4,6.19-.6,4.16-.54,6.26-.59c1.92,0,3.84.25,5.77.12.92-.06,2.1,0,2.52-.95a2.92,2.92,0,0,0-.6-3.17c-.93-.81-2.33-.72-3.47-.65a62.31,62.31,0,0,0-10.95,1.67,26.36,26.36,0,0,1-6.38.73c-2.07,0-4.15-.1-6.21.08-2.25.19-4.47.64-6.71.85s-4.22.85-6.37,1.09a64.51,64.51,0,0,1-6.65.65c-2.45,0-4.91,0-7.36,0a.63.63,0,0,0,0,1.25,83.89,83.89,0,0,0,11.1-.23c3.58-.47,7.08-1.26,10.66-1.65,1.78-.19,3.55-.55,5.33-.71s3.83-.09,5.73-.08a29.34,29.34,0,0,0,4.87-.25c2-.34,4-1,6-1.35a36.12,36.12,0,0,1,5.37-.74c1.09,0,2.75-.41,3.77.05.76.34,1.18,1.55.47,2-.46.32-1.66.16-2.23.16-2,0-3.92-.23-5.89-.09-3.67.25-7.35.7-11,1.1-1.77.2-3.53.47-5.31.65s-3.67.06-5.47.31c-4.3.57-8.55,1.37-12.86,1.9-1.95.24-3.88.58-5.83.86-.84.13-1.69.19-2.52.39a4.41,4.41,0,0,1-2,.33l.44.44a17.66,17.66,0,0,1,0-3.41.63.63,0,0,0-1.25,0Z"/><path class="cls-1" d="M309.62,19a11.87,11.87,0,0,0,0,1.46,1.74,1.74,0,0,0,.24.77,1.54,1.54,0,0,0,.76.59,3.14,3.14,0,0,0,1,.18,3.62,3.62,0,0,0,1,0A1.71,1.71,0,0,0,314,20.32a2.51,2.51,0,0,0-.76-1.87,2.68,2.68,0,0,0-1.46-.46,5.5,5.5,0,0,0-1.67.06,1.38,1.38,0,0,0-1.18,1,2.7,2.7,0,0,0,.48,2,3,3,0,0,0,1.36,1.31.62.62,0,0,0,.77-.44.65.65,0,0,0-.43-.77c.22.09,0,0-.06,0s.11.11,0,0l-.12-.11-.19-.21-.06-.07s.08.1,0,0l-.13-.17-.17-.28c0-.09-.16-.24-.16-.33s0,.14,0,0l0-.08c0-.05,0-.1-.05-.15l0-.15s0,0,0-.06,0,.15,0,0a.71.71,0,0,0,0-.14c0-.15,0,.09,0,0s0-.1,0-.12-.05.16,0,.07.07-.11,0,0,.1-.06,0,0,0,0,0,0a.25.25,0,0,0,.09,0c-.07.08-.13.05-.06,0l.09,0,.25-.06h.07c.08,0-.14,0-.05,0l.17,0a5.15,5.15,0,0,1,.68,0l.31,0,.15,0c.11,0,0,0-.05,0h.1l.51.12c.1,0,0,.06,0,0l.07,0c.09,0-.05-.06,0,0l.05.06c.08.07,0,0,0,0s.15.24.19.31,0,.1,0,0l0,.09a.83.83,0,0,1,.06.21.29.29,0,0,1,0,.09s0,.13,0,0,0,.08,0,.1a1.09,1.09,0,0,1,0,.18c0,.13,0,0,0,0l0,.12c0,.1,0,0,0,0l0,.05-.06.09c0,.08.07-.05,0,0a.17.17,0,0,0-.06.06c-.05.07.08,0,0,0l-.08.05c-.06,0-.06,0,0,0l-.18.05a.13.13,0,0,1-.09,0h-.36l-.41,0h-.11c.14,0,0,0,0,0l-.19-.05-.17-.05c-.11,0,.05,0,.05,0s-.08,0-.09,0l0,0c-.1-.05,0,0,0,0a.47.47,0,0,0-.1-.1s.09.13.05.06l0-.06c-.07-.1,0,.15,0,0a.5.5,0,0,1,0-.13c0-.17,0,.1,0,0,0-.48,0-.95,0-1.42a.65.65,0,0,0-.63-.63.64.64,0,0,0-.62.63Z"/><path class="cls-1" d="M284.25,21.21c0,3.2-.15,6.41-.1,9.62,0,3,.49,6,.46,9a39.91,39.91,0,0,1-.16,4.51,29,29,0,0,1-.58,4.25,40.7,40.7,0,0,0-.95,4.07c-.23,1.38-.64,2.73-.76,4.13a20.8,20.8,0,0,1-.16,2.08,3.24,3.24,0,0,0-.11,1.35,1.4,1.4,0,0,0,1.29,1.21,5.27,5.27,0,0,0,2.52-.33c1-.51.48-1.79.47-2.74a29.62,29.62,0,0,1,.71-4.14c.24-1.63.39-3.26.64-4.89a51.51,51.51,0,0,0,.9-8.59,80.07,80.07,0,0,0-.34-9.67c-.22-1.6-.74-3.11-1-4.7a29.65,29.65,0,0,1-.22-5.73.63.63,0,0,0-1.25,0,39.27,39.27,0,0,0,.13,5.2c.2,1.59.77,3.09,1,4.67a67.25,67.25,0,0,1,.43,10.23c0,3.42-.67,6.68-1.1,10.06-.22,1.69-.38,3.39-.76,5.06a14.48,14.48,0,0,0-.37,2.07c-.05.85.16,1.67.08,2.51l.31-.54a4.13,4.13,0,0,1-2,.29c-.46-.27.09-1.75.1-2.23a33.16,33.16,0,0,1,.74-5c.31-1.82,1-3.55,1.28-5.35.1-.62,0-1.23.1-1.84.05-.82.24-1.6.26-2.42.06-1.82.13-3.65.07-5.47s-.33-3.63-.4-5.45c-.14-3.77.05-7.54.06-11.3a.63.63,0,0,0-1.25,0Z"/><path class="cls-1" d="M260.74,40A72.47,72.47,0,0,1,260.4,49c-.37,3.07-.63,6.17-1.12,9.23-.22,1.42-.53,2.83-.78,4.24-.11.63-.23,1.25-.32,1.88a20.79,20.79,0,0,1-.18,2.09c-.29,1.2-.2,2.36-.55,3.57a8.23,8.23,0,0,0-.53,2.53c.1,1.73,2.19,1.5,3.08.48a4.85,4.85,0,0,0,.84-2.39c.22-1.34.46-2.68.65-4a57.65,57.65,0,0,1,1.87-8.43,45.88,45.88,0,0,0,1.71-8.11c.19-1.71.3-3.42.35-5.14a20.22,20.22,0,0,0-.06-4.26c-.48-2.44-3-1.53-4.57-.75-.73.35-.09,1.43.63,1.08.41-.2.87-.3,1.3-.46s.51-.28,1-.07.31.16.46.58a11,11,0,0,1,0,3.39,57.59,57.59,0,0,1-.62,7.65c-.71,4.59-2.52,8.89-3.18,13.51a38.77,38.77,0,0,1-1,5.86c-.1.35-.43,1.12-.94,1.1s-.22-.61-.13-1c.2-.83.53-1.63.68-2.47a6.74,6.74,0,0,0,.09-1.19,9.63,9.63,0,0,1,.25-1.61c.15-1.06.14-2.14.33-3.21.41-2.34.88-4.66,1.18-7,.32-2.56.59-5.13.89-7.7A71.2,71.2,0,0,0,262,40a.63.63,0,0,0-1.25,0Z"/><path class="cls-1" d="M261.63,40.06a65.78,65.78,0,0,0,9.82-.56c3.11-.47,6.1-1.39,9.23-1.84,1.62-.23,3.23-.55,4.85-.7s3.19-.12,4.79-.35c3.37-.49,6.81-.34,10.21-.69a37.28,37.28,0,0,0,4.15-.86,20,20,0,0,1,5.24-.32,16.14,16.14,0,0,0,1.84,0c.76-.06.83,0,.79.79-.08,1.54,0,3.07,0,4.61s-.44,2.95-.6,4.43c-.18,1.7-.17,3.38-.21,5.08s-.22,3.15-.28,4.73-.18,3.44-.28,5.15-.43,3.5-.66,5.25a14,14,0,0,1-.34,2.41c0,.11,0,.36,0,.39-.22.14-1.2-.55-1.38-.65a48.34,48.34,0,0,1-4.44-3.1A23.4,23.4,0,0,0,300.27,61l.29.71a2.38,2.38,0,0,1,1.14-1.69c.71-.31,1.66.43,2.27.74.92.46,1.66,1.38,2.69,1.6a.63.63,0,0,0,.7-.29,9.87,9.87,0,0,0,1.12-5.21c0-1.25.23-2.47.29-3.72s0-2.79,0-4.18c-.07-2.63-.24-5.26-.55-7.88-.17-1.46-.15-3.07-1.89-3.35-2.56-.4-5.37,0-7.92.23s-5.34,0-8,.17-5.35.1-8,.42-5.09.8-7.62,1.29a66.32,66.32,0,0,1-9.31,1.25,23.13,23.13,0,0,0-2.64.25c-.31.06-1.06.3-1.35.16s0,.22,0-.09a3.32,3.32,0,0,1,.26-.79c.24-.77-1-1.09-1.2-.33-.35,1.14-.64,2.45,1,2.46a10.29,10.29,0,0,0,1.92-.24,23.81,23.81,0,0,1,2.79-.21c5.32-.36,10.46-1.78,15.74-2.44,2.67-.34,5.34-.27,8-.44s5.2,0,7.79-.16,5.2-.47,7.81-.33c.61,0,1,0,1.24.61a8,8,0,0,1,.24,1.77c.16,1.39.28,2.79.37,4.18a52.77,52.77,0,0,1,.05,8.8c-.24,2.28.14,5.13-1.15,7.15l.71-.29c-.83-.18-1.62-1.07-2.39-1.47a6.47,6.47,0,0,0-2.46-1c-1.36,0-2.6,1.47-2.79,2.72a.63.63,0,0,0,.29.7,23.57,23.57,0,0,1,4.3,3,43,43,0,0,0,4.2,2.91c.68.4,2,1.24,2.81.72a1.23,1.23,0,0,0,.48-.89c.13-.62.1-1.35.19-2,.49-3.6.83-7.14,1-10.77.1-1.8.27-3.62.31-5.43a53.93,53.93,0,0,1,.26-5.54,40.22,40.22,0,0,0,.56-4.89c0-.91,0-1.83,0-2.74a11.93,11.93,0,0,0,.05-1.79,1.32,1.32,0,0,0-1.43-1.26c-1.64,0-3.33,0-5,0a23.3,23.3,0,0,0-4.83.86,34,34,0,0,1-5.7.69c-1.76.12-3.54,0-5.3.19s-3.7.37-5.58.5-3.76.5-5.64.77a41.16,41.16,0,0,0-5.71,1.12c-4.21,1.24-8.66,1.24-13,1.24a.63.63,0,0,0,0,1.25Z"/><path class="cls-1" d="M270.3,47.31c.32.1.6.55.82.78s.71.75,1,1.14.63.88.94,1.31a3.34,3.34,0,0,1,.36.48c0-.3-.39,0-.51.11a8.2,8.2,0,0,0-1.84,1.38c-.72.7-1.51,1.36-2.19,2.1-.32.36-.6.75-.94,1.1s-.56.43-.67.77a1.13,1.13,0,0,0,.19.94,8.05,8.05,0,0,1,.62,1.11c.23.55.72,1.15,1.39.92a2.29,2.29,0,0,0,.82-.7c.35-.36.76-.67,1.12-1,.64-.63,1.39-1.09,2-1.7a26,26,0,0,0,2.1-2.1l.16-.21c.27-.2.16-.32-.34-.36,0,.08.12.44.15.5.15.42.38.81.53,1.23a6.7,6.7,0,0,0,1,1.71c.34.42.81.75,1.34.44.31-.18.55-.4.88-.57a2.72,2.72,0,0,0,1-.75,1.39,1.39,0,0,0-.27-1.86,29,29,0,0,1-2-2.46c-.68-.94-1.19-2-1.86-2.93-.35-.47-.77-.88-1.11-1.36a14.23,14.23,0,0,0-.89-1.3A15.09,15.09,0,0,0,273,44.92a1.9,1.9,0,0,0-1.08-.7c-.84-.06-1.73.94-2.3,1.44s.28,1.42.88.89c.35-.31.74-.58,1.1-.89,0,0,.23-.18.19-.18a4.4,4.4,0,0,1,.5.48c.28.25.58.49.84.76a9.19,9.19,0,0,1,.85,1.22c.52.75,1.15,1.37,1.6,2.17a23.87,23.87,0,0,0,1.52,2.33c.47.65,1,1.27,1.48,1.9.14.17.69.63.68.85s-.93.55-1.12.68a1.16,1.16,0,0,0-.25.2l-.12.1c.38.06.47,0,.28-.14a3.76,3.76,0,0,0-.39-.62,14.38,14.38,0,0,1-.89-2c-.19-.48-.24-1.1-.89-1.15s-1.12.75-1.53,1.19c-.59.62-1.24,1.24-1.88,1.81s-1.29,1-1.87,1.54c-.27.27-.57.5-.85.75a2.09,2.09,0,0,0-.41.43l-.14.15c.21.1.24,0,.08-.14a2.15,2.15,0,0,0-.35-.82,1.71,1.71,0,0,0-.2-.27c-.08-.19-.13-.2-.15-.06a2.81,2.81,0,0,0,.31-.29c.56-.57,1-1.21,1.61-1.76s1.31-1.3,2-1.88c.89-.76,3-1.34,1.87-2.82-.61-.79-1.14-1.62-1.81-2.36-.52-.58-1.12-1.42-1.89-1.66s-1.1,1-.34,1.2Z"/><path class="cls-1" d="M291.55,45.34c.28.28.57.55.84.85a12.24,12.24,0,0,1,.71,1.06,10,10,0,0,0,.73.86c.1.11.25.43.37.49l.05.07.11-.27a1.82,1.82,0,0,0-.3.21c-.66.48-1,1.24-1.56,1.79a22.59,22.59,0,0,0-1.9,1.89c-.65.75-2.31,2.33-.72,3,.49.2.88.77,1.47.79s1.16-.82,1.6-1.28c.58-.62,1-1.36,1.61-2a7.55,7.55,0,0,1,1.08-.86,4.54,4.54,0,0,1,.87-.66l-.7-.28c.59.81,1.27,1.57,1.83,2.4.31.48.5,1.08,1,1.39.69.42,1.3-.06,1.78-.55s.65-.74,1-1.07.82-.46,1-.88c.32-.83-.52-1.32-1.1-1.7a10.22,10.22,0,0,1-2.17-1.93c-.63-.74-1.28-1.44-1.88-2.21a15.35,15.35,0,0,0-1.95-2.16,13.73,13.73,0,0,1-1-1,1.51,1.51,0,0,0-1-.62,1.39,1.39,0,0,0-1,.5c-.35.35-.69.67-1.08,1-.61.52.28,1.4.89.88.22-.19.46-.36.67-.56a5.66,5.66,0,0,1,.4-.44c.13-.1-.13-.19.12,0a1.5,1.5,0,0,1,.2.24c.15.17.3.33.46.49a23.47,23.47,0,0,1,2.53,2.74c.69.9,1.46,1.73,2.21,2.58A6.2,6.2,0,0,0,300,51.22l.69.46c.14.09.27.2.41.28s.07.15.11,0l.29-.38A8,8,0,0,0,300,52.91c-.17.19-.62.5-.71.73-.11.07-.11.1,0,.1s.11,0,0-.06-.11-.16-.15-.23c-.68-1.07-1.46-2.05-2.21-3.07a.65.65,0,0,0-.71-.29,6.92,6.92,0,0,0-1.74,1.22,6.6,6.6,0,0,0-1.54,1.58,8.52,8.52,0,0,1-.77.92c-.22.24-.68.59-.8.9-.15.13-.14.17,0,.12s.17,0,0-.08a2,2,0,0,0-.33-.24,2.4,2.4,0,0,0-.28-.27c-.2-.12-.43-.13-.63-.24l.31.54c0-.26.43-.61.59-.8.41-.5.82-1,1.28-1.45s1-.83,1.38-1.3a9.4,9.4,0,0,1,1.17-1.42c.35-.26.7-.5.67-1a2.57,2.57,0,0,0-.74-1.28,9.32,9.32,0,0,1-.65-.76c-.16-.23-.29-.49-.45-.72a10.08,10.08,0,0,0-1.25-1.36c-.57-.57-1.46.32-.88.88Z"/><path class="cls-1" d="M347.44,17.52c-1.14,2.31-2.37,4.58-3.63,6.83a22.68,22.68,0,0,1-4,5.64c-1.7,1.61-3.59,3-5.23,4.69-.89.91-1.73,1.85-2.63,2.74a8.85,8.85,0,0,0-1.84,2,.62.62,0,0,0,.1.75c.58.5,1.3.5,1.92.94a3.16,3.16,0,0,0,1.47.82c1.23.15,2-1.1,2.75-1.88,1.23-1.29,2.12-2.8,3.28-4.12a11.53,11.53,0,0,1,1.63-1.72c.61-.46,1.24-.86,1.83-1.35,1.18-1,2.33-1.74,2.95-3.22s1.23-3.08,1.85-4.61c1.48-3.6,4.08-6.6,5.58-10.16a.63.63,0,0,0-.37-.92,6.13,6.13,0,0,0-4.14.46c-1.3.77-1.39,2.72-2.3,3.84-.51.62.37,1.51.88.89a13.69,13.69,0,0,0,1.5-2.83,1.83,1.83,0,0,1,1.66-1.11,4.27,4.27,0,0,1,2.07,0l-.38-.92c-1.26,3-3.33,5.59-4.81,8.47-.76,1.49-1.35,3.09-2,4.64-.56,1.32-.84,2.58-2,3.54s-2.31,1.67-3.39,2.58a15.56,15.56,0,0,0-2.45,2.85,33,33,0,0,1-3,3.66c-.29.31-.74.77-1.25.62-.27-.09-.6-.51-.86-.69-.45-.3-1.13-.28-1.52-.61l.1.76a12.07,12.07,0,0,1,2.33-2.41c.86-.89,1.68-1.81,2.57-2.68,1.66-1.61,3.59-3,5.18-4.64A25.84,25.84,0,0,0,344.89,25c1.26-2.25,2.49-4.52,3.63-6.83.35-.72-.73-1.35-1.08-.63Z"/><path class="cls-1" d="M348.47,23.16c0,2.32,0,4.65,0,7,0,1,.17,2,.25,3,.1,1.16-.07,2.32,0,3.48.21,2.26.64,4.47.75,6.74s.08,4.37.1,6.55a11.84,11.84,0,0,1,0,3.31c-.15.44-.17.39-.65.4a5.33,5.33,0,0,1-1.13,0c-.9-.26-.67-2.46-.64-3.22.05-1,.4-2,.52-3a46.43,46.43,0,0,0,.06-6.13,22.91,22.91,0,0,0,0-2.75c-.13-1.14-.57-2.19-.67-3.34-.21-2.28-.31-4.54-.42-6.82,0-1-.37-2.1.37-2.87s1.57-1.34,2.26-2.19c.5-.62-.38-1.51-.88-.89-1.13,1.39-3,2.24-3.1,4.18-.07,2.26.27,4.51.42,6.75a23.29,23.29,0,0,0,.3,3.34c.13.59.36,1.17.46,1.76a15.37,15.37,0,0,1,.05,2.35c0,2.45.34,5.08-.22,7.48a12.6,12.6,0,0,0-.35,3.3c0,.87-.19,2,.39,2.79a1.75,1.75,0,0,0,1.63.52,5.47,5.47,0,0,0,2.06-.12,1.43,1.43,0,0,0,.82-1.28,29.79,29.79,0,0,0,0-3.78c0-2.75,0-5.51-.23-8.26-.11-1.44-.33-2.85-.53-4.27s0-3.14-.19-4.71a90.48,90.48,0,0,1-.18-9.32.63.63,0,0,0-1.25,0Z"/><path class="cls-1" d="M349.57,23.63c3.13-.26,6-1.67,9-2.34s6.05-.93,9.1-1.38a.58.58,0,0,0,.44-.43c.17-.9-.63-1.47-1.14-2.09a29.49,29.49,0,0,1-2.6-4.27l-.1.76c.32-.31,1.72-1.38,2.21-1.3.71.13,1.13,1.92,1.4,2.52.68,1.49.87,3.86,2.09,5a1.72,1.72,0,0,0,1.51.3c1-.1,2-.13,3-.24a60.06,60.06,0,0,1,6.4-.65,5.58,5.58,0,0,1,1.29,0c.48.13.51.53.54,1,.07.84.11,1.41-.8,1.44-2.22.06-4.4-.36-6.6-.46-1.06,0-2.09-.22-3.15-.22s-2.13.07-3.2.06a29.34,29.34,0,0,0-6.09.88c-2.54.51-5.07,1.05-7.63,1.44-1.33.2-2.67.39-4,.49a4.31,4.31,0,0,0-1.35.09l-.31.09c0,.24.06.25.07,0a1.25,1.25,0,0,1,.09-.37.63.63,0,0,0-1.21-.33,1.83,1.83,0,0,0,.15,1.76c.56.58,1.66.08,2.33,0a78.44,78.44,0,0,0,8.37-1.2c2.85-.57,5.84-1.52,8.75-1.63a77.49,77.49,0,0,1,7.92.19c1.33.09,2.65.32,4,.38.91,0,2.3.3,3.16-.15,1.06-.55,1-2.72.65-3.68a1.42,1.42,0,0,0-1.31-1.05,19.19,19.19,0,0,0-3.71.12c-1.29.16-2.58.36-3.87.5a18.35,18.35,0,0,1-3.76.3c-.65-.07-.11.13-.44-.17a4.88,4.88,0,0,1-.58-1.2c-.25-.66-.42-1.36-.65-2a19.39,19.39,0,0,0-1.48-3.44c-1.14-1.91-3.44-.58-4.65.62a.64.64,0,0,0-.1.76,39.46,39.46,0,0,0,2.07,3.57c.15.2,1.56,1.72,1.54,1.83l.44-.44c-2.92.42-5.79.66-8.68,1.29-3.05.66-6,2.12-9.13,2.38-.79.06-.8,1.31,0,1.25Z"/><path class="cls-1" d="M350,33.36a50.73,50.73,0,0,0,6.41-.16c2.41-.32,4.82-.21,7.24-.37,2.21-.15,4.37-.66,6.58-.83a29.35,29.35,0,0,1,6.81.46c1,.16,2.06.38,3.1.47.59,0,1.17,0,1.76.11a2.22,2.22,0,0,0,.56.11c-.19,0,.07-.58-.16,0-.12.32,0,.59-.33.71s-.76-.17-1-.19c-1.18-.06-2.39,0-3.57,0-4.85,0-9.64.55-14.47.81-2.76.15-5.51.16-8.27.16-1.25,0-2.5,0-3.74,0-.54,0-1.6.32-2.07,0l.28.7a3.49,3.49,0,0,1,.56-1.6c.53-.59-.35-1.48-.89-.88a4.3,4.3,0,0,0-.87,2.15.65.65,0,0,0,.29.71,2.91,2.91,0,0,0,1.73.22c.95-.06,1.89-.07,2.84-.07,2.8,0,5.6,0,8.4-.08,5.65-.22,11.25-.89,16.91-.89a19.22,19.22,0,0,1,3.56.13c.65.12,1.28.09,1.62-.56a4.61,4.61,0,0,0,.41-1.67c0-.72-.67-.83-1.25-.94-1.15-.22-2.31-.2-3.46-.38s-2.53-.41-3.81-.57a32.74,32.74,0,0,0-7.47.08c-1.51.16-3,.51-4.49.6-1.37.07-2.75.05-4.13.09-1.54.05-3.06.38-4.6.42s-3,0-4.46,0a.63.63,0,0,0,0,1.25Z"/><path class="cls-1" d="M350.54,43.86a41.46,41.46,0,0,0,6.68-.48,59.8,59.8,0,0,1,7.67-.86c2.39-.08,4.76-.1,7.15-.34a61.23,61.23,0,0,1,7.42-.49c.92,0,1.84,0,2.77,0,.47,0,2.42.13,1.16.71-.34.15-1,0-1.37,0a8.28,8.28,0,0,0-1.2.18c-1.13.23-2.23.59-3.37.8-4.67.85-9.38.75-14.07,1.31-2.59.31-5.15.62-7.75.74-1.15,0-2.29,0-3.43.09-.27,0-1.09.19-1.32,0s-.11-1.21-.1-1.55c0-.8-1.21-.8-1.25,0s-.23,1.65.25,2.28a2.27,2.27,0,0,0,2,.54c2.58-.09,5.15-.24,7.72-.37,2.79-.14,5.52-.85,8.32-.87a61.78,61.78,0,0,0,8.15-.68,32.33,32.33,0,0,0,3.78-.73c.61-.16,1.22-.35,1.85-.45s1.4,0,2.1-.07a1.62,1.62,0,0,0,.86-2.77,3.35,3.35,0,0,0-1.94-.43l-3.62,0c-2.9,0-5.71.41-8.6.64-3.34.26-6.67.14-10,.57a75.06,75.06,0,0,1-9.82,1,.63.63,0,0,0,0,1.25Z"/><path class="cls-1" d="M346.23,54.51a2.66,2.66,0,0,0,.45,2c.73.73,2.07.41,3,.4,3,0,6,0,9-.19s5.95-.67,8.93-1,6-.55,8.93-.86c1.34-.14,2.68-.29,4-.47a38.71,38.71,0,0,0,4.32-.61,1.06,1.06,0,0,0,.93-1.25A3.23,3.23,0,0,0,385,50.4a2.59,2.59,0,0,0-1.94-.15c-1.59.22-3.17.47-4.75.72-3,.47-6.06,1-9.11,1.18-3.32.25-6.65.69-10,.75s-6.8,0-10.2,0a.63.63,0,0,0,0,1.25c4.87,0,9.84.3,14.68-.32,2.54-.33,5.1-.36,7.64-.64s4.87-.65,7.3-1l3.32-.51c.61-.09,2.81-.75,2.51.62-.08.36-.09.21-.43.31a15,15,0,0,1-1.9.31c-1.38.21-2.76.39-4.14.55-5.06.57-10.14.93-15.19,1.58a75.33,75.33,0,0,1-8.48.58c-1.4,0-2.8,0-4.2,0-.56,0-1.14.07-1.69,0-.93-.06-.93-.3-.93-1.16a.63.63,0,0,0-1.25,0Z"/><path class="cls-1" d="M367.22,20.3c0,1.42-.89,2.65-1.34,4-.52,1.52-1,3-1.61,4.54a78.67,78.67,0,0,0-2.62,9.45,31.77,31.77,0,0,0-1,4.32c-.17,1.68-.57,3.22-.9,4.86-.56,2.81-.71,5.7-1.29,8.5a.63.63,0,0,0,1.14.48c.74-1.31,3,.3,3.54-1.28.28-.79.06-1.76.29-2.6.32-1.11.67-2.21,1-3.33.57-2.19,1.43-4.32,1.91-6.53s.7-4.66,1.28-7c1.12-4.4,3.18-8.71,3.21-13.32,0-1,0-1.93,0-2.89,0-.51.05-.95-.43-1.25-.87-.56-2.51,0-3.2.62s.29,1.42.88.88a2.21,2.21,0,0,1,1-.4l.37,0c.34,0,.38,0,.13-.06a2.25,2.25,0,0,1-.06.62c0,.54,0,1.09,0,1.63a24.41,24.41,0,0,1-.75,5.77c-.92,4-2.49,7.82-3.16,11.92a94.67,94.67,0,0,1-2.85,11.35,20.22,20.22,0,0,0-.72,2.41c-.07.42,0,.94-.1,1.34s.41.15-.23.35-1.34-.1-2,.16a2.22,2.22,0,0,0-1.18,1l1.14.48c.59-2.79.73-5.69,1.3-8.49a39.07,39.07,0,0,0,.89-4.51,32,32,0,0,1,1.1-5.14,76.15,76.15,0,0,1,2.68-9.42c.58-1.5,1-3,1.59-4.54.49-1.31,1.2-2.43,1.23-3.87a.63.63,0,0,0-1.25,0Z"/><path class="cls-1" d="M348.37,64.4c-.05,1.39-.59,3.33,1.24,3.71a6.87,6.87,0,0,0,2.59-.18,18.92,18.92,0,0,1,4-.22c6,.15,11.76-1.6,17.43-3.27.84-.24.84-.39.64.43-.11.46-.23.93-.34,1.4a11.49,11.49,0,0,1-1.65,3.57,36.29,36.29,0,0,1-5.32,5.69c-2.14,2-4.48,3.84-6.8,5.67a67.23,67.23,0,0,1-7.61,5.36c-3,1.74-6,3.56-9.16,5.12a38.25,38.25,0,0,1-4.79,2.18c-.11,0-3.62,1.09-3.64,1l-.92.71a5.09,5.09,0,0,1,1.64,2.11,3.17,3.17,0,0,0,.77,1.3c.8.61,1.66,0,2.41-.4a39.18,39.18,0,0,1,4.82-1.66,19,19,0,0,0,4.44-2.26c1.43-.93,2.91-1.74,4.39-2.58.65-.38,1.29-.78,1.91-1.2a18.59,18.59,0,0,1,2.91-1.41,20.47,20.47,0,0,0,3.52-2.57c1.45-1,3.1-1.84,4.59-2.86,2.58-1.78,5.47-3.56,7.59-5.88s3.07-5.22,4.11-8.07c.57-1.57,1.2-3.13,1.66-4.74a26.92,26.92,0,0,0,.62-2.69,3.62,3.62,0,0,0,.12-1.6c-.29-.9-1.43-1-2.23-.92-1.58.09-3.11.56-4.71.62-2,.08-3.9.44-5.88.69s-3.74.42-5.59.79-3.86.72-5.81,1l-3.42.45a22.18,22.18,0,0,1-2.88.41.63.63,0,0,0,0,1.25,27.46,27.46,0,0,0,4-.55c1.75-.23,3.51-.46,5.26-.73,1.52-.24,3-.62,4.54-.88s3.16-.37,4.74-.59a43.29,43.29,0,0,1,4.83-.57,26.19,26.19,0,0,0,3.94-.49c.35-.06,1.69-.43,2,0,.2.25-.32,1.8-.4,2.18a40.46,40.46,0,0,1-1.54,4.79c-1,2.84-1.91,6-3.88,8.37s-4.57,3.89-6.95,5.57c-1.26.89-2.54,1.74-3.88,2.5a40.38,40.38,0,0,0-3.76,2.72c-1.1.82-2.46,1.06-3.61,1.81-1.35.86-2.69,1.68-4.09,2.46-1.58.88-3,2-4.6,2.83a26.79,26.79,0,0,1-4.8,1.75,18.76,18.76,0,0,0-2.2.83,5.45,5.45,0,0,1-1.08.54c-.45.05-.18.21-.51-.17s-.63-1.39-1-2a5.23,5.23,0,0,0-1.32-1.25c-.48-.34-1,.21-.91.7a1.2,1.2,0,0,0,1.48.95,17.77,17.77,0,0,0,3.26-.92,46.34,46.34,0,0,0,8.78-4.29c3-1.71,6.1-3.25,8.94-5.22,2.63-1.82,5.13-3.84,7.64-5.83a75.6,75.6,0,0,0,6.7-6.08,17,17,0,0,0,4.36-6.46c.34-1,1.57-4-.25-4.33-1-.18-2.37.57-3.36.88-1.69.53-3.4,1-5.13,1.35-2,.42-3.93.81-5.91,1a45.59,45.59,0,0,1-5.48.15c-1.35,0-2.57.32-3.88.45-.69.08-1.28.17-1.39-.63a11.57,11.57,0,0,1,.12-1.85c0-.8-1.22-.8-1.25,0Z"/><path class="cls-1" d="M357.65,67.4c.14,1.23,1,1.91,1.84,2.71a32.42,32.42,0,0,1,3.29,3.83c1.14,1.45,2.18,3,3.42,4.36s2.36,2.45,3.53,3.68a23.93,23.93,0,0,0,7.77,5.36c1.63.68,3.32,1.23,5,1.76a12.16,12.16,0,0,0,2.76.76,22,22,0,0,1,2.78.34l-.44-.44c.09.48-.39,1.32-.48,1.85-.18,1-.37,1.22-1.43.93-1.67-.47-3.36-.92-5-1.5a34.9,34.9,0,0,1-10.92-5.76,22.69,22.69,0,0,1-4.12-4.13c-1.16-1.59-2.07-3.35-3.12-5S360.08,73,359,71.4a21.22,21.22,0,0,1-1.51-2.56c-.19-.38-.33-.77-.51-1.15-.3-.66-.06-.48.19,0,.35.73,1.43.09,1.08-.63s-1.91-1.71-2.65-.72a1.21,1.21,0,0,0-.07,1.23A20.76,20.76,0,0,0,356.67,70a39.66,39.66,0,0,0,3.48,4.92c1.41,1.81,2.44,3.85,3.68,5.77a27.34,27.34,0,0,0,8.32,7.88c3.67,2.35,7.93,3.55,12.06,4.8,1,.3,2.77,1.15,3.62.13a4,4,0,0,0,.52-1.83c.17-.8.6-1.42.44-2.25a.6.6,0,0,0-.43-.44,41.45,41.45,0,0,1-4.63-.81c-1.59-.49-3.16-1-4.72-1.59a23.17,23.17,0,0,1-8.11-5.19,79.89,79.89,0,0,1-6.44-7.32c-.91-1.19-1.83-2.37-2.81-3.5a14.67,14.67,0,0,0-1.39-1.45c-.52-.46-1.28-1-1.36-1.73s-1.34-.8-1.25,0Z"/><path class="cls-1" d="M437.27,35.19a37.57,37.57,0,0,1-5.55-4c-1.66-1.51-3.28-3-4.85-4.61a17.86,17.86,0,0,1-2.36-2.32c-.28-.41-.3-.88-.79-1.1-.74-.33-1.43.35-2.1.57s-1.4.16-1.91.58a1.37,1.37,0,0,0-.44,1.27A7.88,7.88,0,0,0,420,27c.19.41.3.85.49,1.25a10.87,10.87,0,0,0,3.36,4.07,35.13,35.13,0,0,0,5.2,3.43c1.05.55,2.13,1,3.18,1.59a15.62,15.62,0,0,0,1.47.75c.37.16.94.23,1.2.59v-.59c-.34.52-1.63.49-2.17.6-1.09.2-2.17.45-3.28.62a70.78,70.78,0,0,1-7.54.76c-4.78.23-9.62.25-14.39,0-1.41-.06-1.89.67-2,2-.05.93-.18,2.74.51,3.48a2.89,2.89,0,0,0,1.61.63,26.42,26.42,0,0,0,3.44.38c2.48.17,5,.46,7.44.52,2.88.07,5.79,0,8.67,0a37.21,37.21,0,0,0,3.94-.36c1.32-.17,2.55-.61,3.86-.85.73-.13.42-1.25-.31-1.12-1,.19-2,.58-3,.74a35.37,35.37,0,0,1-3.55.4c-2.21.12-4.45.06-6.67.08s-4.48-.06-6.73-.25a58.54,58.54,0,0,1-6.76-.61c-.44-.09-.86-.07-1.08-.47a1.73,1.73,0,0,1-.13-.81,6.06,6.06,0,0,1,0-2c.25-.85,1.14-.5,1.85-.46,1.15.05,2.3,0,3.45,0,4.48,0,9,0,13.44-.39a60.36,60.36,0,0,0,6.95-1c1.12-.25,2.78-.19,3.47-1.26a.59.59,0,0,0,0-.59,2.31,2.31,0,0,0-1.22-.88A26.91,26.91,0,0,1,432.2,36a31.65,31.65,0,0,1-5.58-3.1c-1.43-1.13-3.07-2-4.15-3.56a12,12,0,0,1-1.2-2.27c-.17-.42-.41-.84-.58-1.26s-.26-.5.18-.75a5.45,5.45,0,0,1,1.06-.25c.36-.11.63-.29,1-.42s.1-.24.44.14c.17.19.29.46.46.67.56.68,1.3,1.21,1.92,1.84s1.27,1.3,1.91,1.94c1.35,1.34,2.78,2.62,4.22,3.86a37.17,37.17,0,0,0,4.83,3.31c.63.4,1.22-.6.58-1Z"/><path class="cls-1" d="M434.89,45.33v2a4.8,4.8,0,0,1,0,1.51c-.29.67-1.49.36-2,.4s-1,.24-1.53.28c-2.46.23-4.9.83-7.38.95-1.37.07-2.75,0-4.13,0a42.8,42.8,0,0,0-4.37.43c-1.45.17-2.9.3-4.35.47-.68.08-1.36.27-2.05.29a11.5,11.5,0,0,0-1.76,0,.58.58,0,0,0-.43.56,4.56,4.56,0,0,0,.52,1.46,4.72,4.72,0,0,1,.3,2.38c0,1,.17,1.91,1.22,2.14a6.79,6.79,0,0,0,1.56,0,21.82,21.82,0,0,1,2.68.2c1.85.19,3.68.38,5.55.43s3.5,0,5.25,0a28.36,28.36,0,0,0,5.21-.2c1.66-.32,3.34-.48,5-.8,1.21-.24,3.11-1.35,4.3-.78l-.28-.5a8.46,8.46,0,0,1-.49,1.7,6.61,6.61,0,0,1-.25,1.34c-.43.79-1.33.5-2,.48a15.12,15.12,0,0,0-2.33.15c-2.71.34-5.38,1-8.07,1.5a91.42,91.42,0,0,1-16.59,1.6c-1.18,0-3,.09-2.53,1.75a4.23,4.23,0,0,1,.29,1.62,4.37,4.37,0,0,0,0,1.53c.18.61.49.87,1.12.79a3,3,0,0,1,1.74,0c.43.15.83.36,1.28.47a13.53,13.53,0,0,0,3.65.26c2.85-.07,5.71,0,8.57,0a81,81,0,0,0,9.22-.09c1.41-.16,2.69-.69,4.07-.91.95-.15,1.88,0,2.67-.67.58-.47-.25-1.29-.82-.82s-1.87.29-2.59.47a25.27,25.27,0,0,1-4.24.85c-2.6.19-5.23,0-7.84,0s-5.2,0-7.8,0a29.7,29.7,0,0,1-3.53,0c-1.11-.11-2.06-.79-3.14-.87a3,3,0,0,0-1,.1c-.16,0-.56,0-.36.15s.07-.59.08-.79a6.19,6.19,0,0,0,0-1.49c-.09-.41-.48-.84,0-1.11s1.55,0,2.09,0c1.31,0,2.61-.15,3.92-.23a111,111,0,0,0,16-2.17,41.13,41.13,0,0,1,4.25-.76c1.16-.12,2.5.19,3.62-.1a1.93,1.93,0,0,0,1.37-1.62,19.25,19.25,0,0,0,.71-3,.57.57,0,0,0-.29-.5,3.87,3.87,0,0,0-2.86,0,26,26,0,0,1-4,.89c-1.67.2-3.32.67-5,.73s-3.28,0-4.91,0c-3.41,0-6.72-.25-10.11-.54a15.66,15.66,0,0,0-2.27-.07,2.22,2.22,0,0,1-.57,0c-.62-.19-.48-.69-.47-1.22a7.15,7.15,0,0,0,0-1.73c-.16-.67-.73-1.23-.81-1.91l-.42.56c.67-.12,1.38,0,2.07-.07.87-.11,1.75-.25,2.63-.34,1.7-.16,3.39-.39,5.09-.59a37.54,37.54,0,0,1,4.86-.18c1.57,0,3-.29,4.57-.37s2.71-.48,4.11-.59a14.51,14.51,0,0,0,1.61-.23c.7-.11,1.38.06,2.07,0a1.45,1.45,0,0,0,1.42-1.24,23.94,23.94,0,0,0,0-3.88.58.58,0,0,0-1.16,0Z"/><path class="cls-1" d="M437.6,35.76a5.82,5.82,0,0,1,1-1.95c.32-.55.65-1.09,1-1.63.8-1.26,1.49-2.59,2.28-3.86,1.54-2.44,3.19-4.78,4.57-7.32a5.64,5.64,0,0,0,.55-1.23c.23-.8-.07-.09.47-.33,0,0,.72,0,.45-.27.08.09-.33.87-.38,1-.33.78-.72,1.54-1.06,2.32-1.2,2.75-2.16,5.59-3.35,8.34-.53,1.23-1.07,2.46-1.59,3.7-.24.58-.55,1.17-.77,1.76a1.34,1.34,0,0,0-.12.81c.33,1.18,1.95.55,2.73.36,3-.71,6.05-1,9.05-1.47,1.47-.24,2.93-.51,4.4-.8.24,0,1.32-.11,1.06-.41.17.2,0,1.08,0,1.35,0,.73,0,1.48,0,2.21a6.68,6.68,0,0,1,0,1.89c-.29.73-2,1-2.64,1.13s-1.44.22-2.16.33c-3.55.53-7.11,1-10.67,1.51a.58.58,0,0,0-.41.71c.69,1.66.63,3.35.86,5.11a.61.61,0,0,0,.42.56,13.12,13.12,0,0,0,4.24,0c1.67-.1,3.33-.28,5-.46s3.44-.32,5.14-.57l.89-.16c.14,0,.44-.15.58-.09-.37-.15-.08.42,0,.62a19.62,19.62,0,0,1,.23,2.42c.07,1,0,1.7-1,2.11a16.39,16.39,0,0,1-3.39.8c-3.21.59-6.52.52-9.71,1.1-.74.14-.43,1.25.3,1.12,1.87-.34,3.86-.39,5.76-.57A51.36,51.36,0,0,0,456.6,55a6.13,6.13,0,0,0,3.27-1.28c1-1,.58-2.71.46-4-.09-.85-.06-2.49-1.15-2.69a4.23,4.23,0,0,0-1.22.17c-.76.13-1.53.2-2.3.29-2.12.23-4.24.5-6.37.69-.9.08-1.8.13-2.69.19a9.76,9.76,0,0,1-3.05,0L444,49c-.24-1.87-.17-3.66-.9-5.42l-.4.72c3.55-.52,7.11-1,10.67-1.51a18.77,18.77,0,0,0,4.32-1A1.81,1.81,0,0,0,459,39.7c0-1.27-.05-2.56,0-3.83,0-.63.21-1.66-.45-2a1.3,1.3,0,0,0-.89,0c-.71.11-1.44.32-2.16.46q-2.78.53-5.57.94c-1.54.23-3.07.46-4.6.73-1.09.18-2.19.52-3.28.67-.6.08-.27.14-.14-.09a7.24,7.24,0,0,0,.39-.79c.28-.63.51-1.29.78-1.92.65-1.56,1.35-3.1,2-4.67s1.09-3,1.7-4.44,1.52-3.12,2.08-4.74c.24-.7.32-1.42-.55-1.65-.64-.16-1.81-.29-2.22.35-.28.43-.31,1.11-.55,1.58-.4.81-.9,1.59-1.35,2.37-.93,1.57-2,3.05-3,4.57s-1.81,3.1-2.77,4.61c-.72,1.15-1.88,2.6-2,4-.06.75,1.1.74,1.16,0Z"/><path class="cls-1" d="M444.41,55.86c0,1.11.13,2.22.15,3.33,0,.55,0,1.08.57,1.36a3.12,3.12,0,0,0,1.49,0,23.68,23.68,0,0,1,2.92.07c2.17.17,4.34.17,6.51.15,1.08,0,2.16,0,3.23-.11.5,0,1-.06,1.49-.13a5.06,5.06,0,0,1,1.44-.25l-.43-.56a19,19,0,0,1,.33,3c-.09,1-2.17,1.46-3,1.71a61.24,61.24,0,0,1-7,1.43c-1.24.21-2.47.17-3.72.31a8,8,0,0,0-2.5.41c-1,.57-.55,2.46-.55,3.42,0,2.3,0,4.62.17,6.92a34.43,34.43,0,0,1,.09,6.42,11.14,11.14,0,0,0-.1,1.41c0,.22.12.78,0,1-.3.51-2.26.19-2.74.19s-1,0-1.49,0-.32.19-.49-.39a16.24,16.24,0,0,1-.4-3.49c-.19-2.62-.37-5.24-.5-7.86-.07-1.34,0-2.68-.11-4a23.32,23.32,0,0,0-.64-3.12c-.13-.73-1.25-.42-1.12.31a19.38,19.38,0,0,1,.61,3.23c0,1.44,0,2.87.14,4.31.15,2.69.29,5.4.53,8.08.09,1,.19,2,.37,3,.1.53.31,1.14.93,1.24a9.94,9.94,0,0,0,1.42-.09c.66,0,1.33,0,2,0a3.76,3.76,0,0,0,2.08-.15,1.53,1.53,0,0,0,.59-1.33c0-1,.07-1.91.15-2.87a66.4,66.4,0,0,0-.23-7.33c-.07-2.35-.08-4.7-.16-7,0-.47-.05-.57.32-.73a7,7,0,0,1,1.39-.23c1.42-.21,2.84-.15,4.27-.39a40.26,40.26,0,0,0,8.35-1.89c.76-.3,2.19-.77,2.46-1.66a3,3,0,0,0-.07-1.26c-.11-.81-.19-1.61-.25-2.42a.58.58,0,0,0-.42-.56,3.44,3.44,0,0,0-1.46.14,20.45,20.45,0,0,1-3.13.27c-2,.06-3.92,0-5.88,0s-3.62-.27-5.43-.19a2.74,2.74,0,0,1-.69,0c-.33-.08-.23,0-.21-.51,0-1-.13-2.08-.15-3.11a.58.58,0,0,0-1.16,0Z"/><path class="cls-1" d="M438.19,51.55v1.2a3.29,3.29,0,0,0,.08,1.21,2.47,2.47,0,0,0,1.66,1.5,3.23,3.23,0,0,0,2.17-.09,1.73,1.73,0,0,0,.83-.75,5.15,5.15,0,0,0,.23-.54,5,5,0,0,0,.18-.48,2.83,2.83,0,0,0,.08-1.26,1.79,1.79,0,0,0-.24-.63c-.1-.16-.29-.36-.36-.46A.61.61,0,0,0,442,51a.6.6,0,0,0-.2.8c.09.12.21.23.3.36,0,0,0,.08.05.1a.41.41,0,0,1,.05.09l0,.07a1.26,1.26,0,0,1,0,.61,4,4,0,0,1-.25.76.78.78,0,0,1-.34.46,1.29,1.29,0,0,1-.56.14h-.4l-.19,0-.13,0a1.41,1.41,0,0,1-.65-.27l-.1-.09-.07-.09a2.16,2.16,0,0,1-.22-.36.35.35,0,0,1,0-.06,2.17,2.17,0,0,1,0-.26c0-.18,0-.36,0-.54V51.55a.6.6,0,0,0-.58-.59.59.59,0,0,0-.58.59Z"/><path class="cls-1" d="M436.67,51.59c0,.66-.05,1.34,0,2a4.19,4.19,0,0,0,.62,1.66,4.48,4.48,0,0,0,4.41,2.45,3.18,3.18,0,0,0,1.6-.59,3.93,3.93,0,0,0,1.07-1.26,5.11,5.11,0,0,0,.68-1.66,14.45,14.45,0,0,0,.08-2.18c0-.6.11-1.35-.38-1.8s-1.37.31-.83.82c.13.11.05.5.05.65,0,.32,0,.63,0,.94a5,5,0,0,1-.18,1.81c-.36,1-1.07,2.08-2.22,2.12a4.43,4.43,0,0,1-1.76-.32,3.24,3.24,0,0,1-1.17-1,4,4,0,0,1-.8-1.57,11.46,11.46,0,0,1,0-2,.58.58,0,0,0-1.16,0Z"/><path class="cls-1" d="M442.67,51.18v0l0,.16s0,0,0,0l0,.15,0,0-.06.14,0,0-.09.11a.46.46,0,0,1,.07-.07l-.12.09.15-.1.29-.24-.12.09a3.3,3.3,0,0,1,.57-.34l-.14.06.19-.06-.15,0c.21,0,.42,0,.63,0a.58.58,0,0,0,0-1.16h-.54a1.4,1.4,0,0,0-.63.16,4.74,4.74,0,0,0-.8.55l.12-.09a2.67,2.67,0,0,0-.32.24.88.88,0,0,0-.19.32.68.68,0,0,0,0,.4.61.61,0,0,0,.26.35.59.59,0,0,0,.45,0,.58.58,0,0,0,.35-.26.78.78,0,0,0,.06-.45Z"/><path class="cls-1" d="M438.69,50.84a5.74,5.74,0,0,0-.71,0,2.3,2.3,0,0,0-.47.09c-.11,0-.2.07-.31.09l.16,0h-.07a.63.63,0,0,0-.41.17.61.61,0,0,0-.17.42.63.63,0,0,0,.17.41.69.69,0,0,0,.41.17.82.82,0,0,0,.28,0l.16-.06.36-.09-.15,0a6.39,6.39,0,0,1,.75,0,.58.58,0,0,0,.41-.17.63.63,0,0,0,.17-.41.59.59,0,0,0-.58-.58Z"/><path class="cls-1" d="M489,57.54c-.61,0-.76-.39-.88-.93a13.61,13.61,0,0,1-.3-1.88c0-.49.4-.84.77-1.27a2.71,2.71,0,0,1,.67-.72,4.74,4.74,0,0,1,1.19-.31,5.08,5.08,0,0,1,1.21-.29,3.08,3.08,0,0,1,.43,0s-.12,0-.11,0-.05-.08,0,.06c.29.85.8,1.64,1.12,2.48a4.75,4.75,0,0,1,.34,1.28,3.53,3.53,0,0,1-.24,1.4c-.14.41-.33.81-.51,1.21a1.34,1.34,0,0,1-.58.81,2.32,2.32,0,0,1-1,.12A7.65,7.65,0,0,1,490,59.4c-.62-.11-.8-.66-1-1.24a.64.64,0,0,0-.86-.22.63.63,0,0,0-.22.85,2.72,2.72,0,0,0,1.54,1.75,4.79,4.79,0,0,0,1.31.15,6.4,6.4,0,0,0,1.45,0c1.14-.23,1.52-1.18,1.94-2.14a5.19,5.19,0,0,0,.47-3.48,21.22,21.22,0,0,0-1.42-3.38c-.42-.89-1.38-.86-2.23-.66-.52.13-1,.28-1.54.4a2.38,2.38,0,0,0-1.28.74,5,5,0,0,0-1.46,2.13,4.34,4.34,0,0,0,.1,1.48c.09.45.13.9.24,1.35A2.06,2.06,0,0,0,489,58.79a.63.63,0,0,0,0-1.25Z"/><path class="cls-1" d="M491.1,57.8a1,1,0,0,0-.25-.61c-.08-.08,0,0,0,.06s0,0,0,0a.07.07,0,0,1,0-.05s0,0,0,.05,0-.12,0-.17a1.28,1.28,0,0,0,0-.19,2.67,2.67,0,0,1,0-.4v-.1c0-.09,0,.11,0,0s0-.14,0-.14-.07.12,0,0l0-.07,0-.07s-.09.1,0,0L491,56c.08-.08,0,0,0,0l.07,0s.13-.1.15-.09l-.06,0,.1,0,.09,0c.11,0,0,0-.05,0h.17s-.13,0-.07,0l.08,0h0l0,0,.07.05-.05,0h0c-.07-.09,0,.06,0-.06s0,0,0,0,0-.13,0,0V56c0,.32,0,.65,0,1v.56s0,.09,0,0,0,0,0,0,0-.07,0-.07-.06.09,0,0,0,0,0,0l-.08.06s-.08.05,0,0l-.1.07-.08,0a3.63,3.63,0,0,0-.93.5.63.63,0,0,0,.88.89c.11-.1-.08,0,0,0l.09-.06c.05,0,.19-.1.07,0,.17-.1.37-.14.54-.23a1.52,1.52,0,0,0,.72-.72,2.32,2.32,0,0,0,.1-.91c0-.38,0-.76,0-1.14a1.22,1.22,0,0,0-.5-1,1.57,1.57,0,0,0-.94-.28,1.93,1.93,0,0,0-1.68,1.24A2.36,2.36,0,0,0,489.6,57a2.56,2.56,0,0,0,.07.62,1.37,1.37,0,0,0,.13.31l.13.16,0,0a.38.38,0,0,1-.12-.28.64.64,0,0,0,.63.62.62.62,0,0,0,.62-.62Z"/></g></svg>