<svg id="圖層_1" data-name="圖層 1" xmlns="http://www.w3.org/2000/svg" viewBox="0 0 170.96316 29.8662"><polygon points="19.387 21.49 19.225 21.49 4.453 0 0 0 0 28.897 4.412 28.897 4.412 7.163 4.574 7.163 19.508 28.897 23.799 28.897 23.799 0 19.387 0 19.387 21.49"/><path d="M51.22586,26.75272,40.98886.0872H39.81433l-10.237,26.66552a15.45894,15.45894,0,0,0-2.91318.97151v1.17318h8.98344V27.72423a14.67909,14.67909,0,0,0-3.48-.97151l2.65565-7.40421h9.61839L47.179,26.75272q-.80937.16146-1.65825.40469a17.35924,17.35924,0,0,0-1.65962.56682v1.17318h10.44V27.72423a5.739,5.739,0,0,0-1.477-.6077C52.29821,26.983,51.76544,26.86036,51.22586,26.75272Zm-15.59735-9.508L38.727,8.74634,39.73394,5.186h.08039l.7644,3.48,3.17888,8.57875Z"/><polygon points="54.908 3.763 64.58 3.763 64.58 28.897 68.952 28.897 68.952 3.763 78.585 3.763 78.585 0 54.908 0 54.908 3.763"/><polygon points="93.069 25.194 90.923 25.194 90.923 27.306 84.866 27.306 84.866 25.194 82.756 25.194 82.756 1.661 80.194 1.661 80.194 25.54 82.376 25.54 82.376 27.686 84.52 27.686 84.52 29.866 91.303 29.866 91.303 27.686 93.415 27.686 93.415 25.54 95.56 25.54 95.56 1.661 93.069 1.661 93.069 25.194"/><path d="M121.13666,20.03388c-.32293-2.83278-1.74-4.53327-4.33025-5.1001v-.08039a6.46943,6.46943,0,0,0,3.76342-2.54937,6.9299,6.9299,0,0,0,1.21405-4.0482,7.607,7.607,0,0,0-2.67064-6.27328A11.03154,11.03154,0,0,0,112.15187,0H99.36277V28.89741h4.412V16.95856H111.585a5.83246,5.83246,0,0,1,3.8043,1.05191,5.014,5.014,0,0,1,1.53834,3.48l.36381,3.60264a7.41683,7.41683,0,0,0,1.25492,3.8043h4.77582a6.99039,6.99039,0,0,1-1.69913-4.24986Zm-9.55162-6.8401h-7.81026V3.76342h7.77074A7.07011,7.07011,0,0,1,115.997,4.89708a4.3116,4.3116,0,0,1,1.3762,3.52088,4.42535,4.42535,0,0,1-1.41707,3.52089A6.70149,6.70149,0,0,1,111.585,13.19378Z"/><path d="M131.10387,3.04535a9.46537,9.46537,0,0,0-2.7156.39787,6.87249,6.87249,0,0,0-2.23326,1.09l.90066,1.55742a5.80628,5.80628,0,0,1,1.74682-.88158,6.68641,6.68641,0,0,1,2.0602-.32974,3.47041,3.47041,0,0,1,2.266.62405,2.42854,2.42854,0,0,1,.744,1.97165v.312h-3.356a5.93238,5.93238,0,0,0-3.54813.86524,2.74495,2.74495,0,0,0-1.15819,2.31773,2.85523,2.85523,0,0,0,1.14184,2.35452,5.08772,5.08772,0,0,0,3.21839.8993,6.22965,6.22965,0,0,0,2.38722-.41558,3.28073,3.28073,0,0,0,1.48793-1.10777V14.0849h2.21554V7.54456Q136.2612,3.046,131.10387,3.04535Zm2.76874,7.82115a3.27563,3.27563,0,0,1-3.21839,1.69641,3.37641,3.37641,0,0,1-1.8858-.44965,1.41922,1.41922,0,0,1-.67447-1.24676q0-1.59012,2.73332-1.59148h3.04534Z"/><polygon points="145.715 0 141.344 0 141.344 28.897 161.62 28.897 161.62 25.134 145.715 25.134 145.715 0"/><path d="M170.0734,23.95945a3.06664,3.06664,0,0,0-2.14605-.85024,2.71329,2.71329,0,0,0-2.10381.85024,2.83942,2.83942,0,0,0-.89112,2.18556,2.93254,2.93254,0,0,0,.89112,2.14469,2.831,2.831,0,0,0,2.10381.81073,3.21316,3.21316,0,0,0,2.14605-.81073,3.107,3.107,0,0,0,.88976-2.14469A2.99456,2.99456,0,0,0,170.0734,23.95945Z"/></svg>