<?xml version="1.0" encoding="UTF-8"?><svg id="_圖層_3" xmlns="http://www.w3.org/2000/svg" viewBox="0 0 773.61 120.68"><polygon points="67.1 72.73 66.82 72.73 41.17 35.42 33.44 35.42 33.44 85.58 41.1 85.58 41.1 47.85 41.38 47.85 67.31 85.58 74.76 85.58 74.76 35.42 67.1 35.42 67.1 72.73"/><path d="M122.4,81.86l-17.78-46.31h-2.04l-17.78,46.31c-1.69,.38-3.37,.94-5.06,1.69v2.04h15.6v-2.04c-2.06-.84-4.08-1.41-6.04-1.69l4.61-12.86h16.7l4.75,12.86c-.94,.19-1.9,.42-2.88,.7-.98,.28-1.94,.61-2.88,.98v2.04h18.13v-2.04c-.8-.47-1.65-.82-2.56-1.05s-1.84-.44-2.78-.63Zm-27.09-16.51l5.38-14.76,1.75-6.18h.14l1.33,6.04,5.52,14.9h-14.12Z"/><polygon points="128.79 41.95 145.59 41.95 145.59 85.58 153.18 85.58 153.18 41.95 169.9 41.95 169.9 35.42 128.79 35.42 128.79 41.95"/><polygon points="195.06 79.15 191.34 79.15 191.34 82.82 180.82 82.82 180.82 79.15 177.15 79.15 177.15 38.29 172.71 38.29 172.71 79.76 176.49 79.76 176.49 83.48 180.22 83.48 180.22 87.27 192 87.27 192 83.48 195.66 83.48 195.66 79.76 199.39 79.76 199.39 38.29 195.06 38.29 195.06 79.15"/><path d="M243.8,70.2c-.56-4.92-3.02-7.87-7.52-8.85v-.14c2.74-.7,4.92-2.18,6.53-4.43,1.41-2.04,2.11-4.36,2.11-7.03,0-4.78-1.55-8.36-4.64-10.89-2.95-2.32-7.03-3.44-12.09-3.44h-22.2v50.17h7.66v-20.73h13.56c2.88,0,5.06,.56,6.6,1.83,1.48,1.26,2.39,3.23,2.67,6.04l.63,6.25c.28,2.81,.98,5.06,2.18,6.6h8.29c-1.69-1.83-2.67-4.29-2.95-7.38l-.84-8.01Zm-16.58-11.87h-13.56v-16.37h13.49c3.51,0,6.04,.63,7.73,1.97,1.55,1.26,2.39,3.3,2.39,6.11s-.84,4.71-2.46,6.11c-1.69,1.41-4.22,2.18-7.59,2.18Z"/><path d="M261.11,40.69c-1.6,0-3.18,.23-4.72,.69-1.54,.46-2.84,1.09-3.88,1.89l1.56,2.7c.84-.64,1.85-1.15,3.03-1.53,1.18-.38,2.37-.57,3.58-.57,1.76,0,3.07,.36,3.94,1.08,.86,.72,1.29,1.86,1.29,3.43v.54h-5.83c-2.76,0-4.82,.5-6.16,1.5-1.34,1-2.01,2.34-2.01,4.03s.66,3.05,1.98,4.09c1.32,1.04,3.19,1.56,5.59,1.56,1.6,0,2.98-.24,4.15-.72,1.16-.48,2.02-1.12,2.58-1.92v2.4h3.85v-11.36c0-5.21-2.98-7.81-8.95-7.81Zm4.81,13.58c-1,1.96-2.86,2.94-5.59,2.94-1.4,0-2.49-.26-3.28-.78-.78-.52-1.17-1.24-1.17-2.16,0-1.84,1.58-2.76,4.75-2.76h5.29v2.76Z"/><polygon points="286.48 35.42 278.89 35.42 278.89 85.58 314.1 85.58 314.1 79.05 286.48 79.05 286.48 35.42"/><path d="M328.78,77.01c-1.05-.98-2.32-1.48-3.72-1.48-1.55,0-2.74,.49-3.65,1.48-1.05,.98-1.55,2.25-1.55,3.79,0,1.4,.49,2.67,1.55,3.72,.91,.91,2.11,1.41,3.65,1.41,1.41,0,2.67-.49,3.72-1.41,.98-1.05,1.55-2.32,1.55-3.72,0-1.55-.56-2.81-1.55-3.79Z"/></svg>