<svg id="圖層_1" data-name="圖層 1" xmlns="http://www.w3.org/2000/svg" viewBox="0 0 142.67959 55.9826"><path d="M1.82108,18.69422a31.00439,31.00439,0,0,1,1.45727-9.835A21.70042,21.70042,0,0,1,7.64947,1.12932l-.607-.56683a22.75982,22.75982,0,0,0-5.1403,8.01328A26.97463,26.97463,0,0,0,0,18.7351,27.69326,27.69326,0,0,0,1.862,28.85355a23.58753,23.58753,0,0,0,5.1805,8.05416l.607-.56683a22.23914,22.23914,0,0,1-4.37112-7.77074A31.44726,31.44726,0,0,1,1.82108,18.69422Z"/><path d="M29.70678,8.98045c-2.59025-1.94166-6.152-2.8723-10.68461-2.8723q-3.15673,0-11.89933.36381V7.686c.729.12127,1.45727.28341,2.22644.48507a1.99167,1.99167,0,0,1,1.09278.526,1.61953,1.61953,0,0,1,.44488,1.17453v17.6453A1.84889,1.84889,0,0,1,9.18714,29.419l-2.469.56683V31.1999c6.27327.12263,10.88762.203,13.88255.203a13.68176,13.68176,0,0,0,9.71309-3.44049,12.46793,12.46793,0,0,0,3.64284-9.43036C33.95664,14.32309,32.53956,11.1265,29.70678,8.98045ZM26.59058,26.668a9.61173,9.61173,0,0,1-7.56841,3.07532c-1.74068,0-2.87366-.24254-3.35941-.6881a3.23225,3.23225,0,0,1-.526-2.22508V10.03372A1.99963,1.99963,0,0,1,15.98637,8.212a3.07259,3.07259,0,0,1,1.90215-.44556c3.52156,0,6.27327.80937,8.2163,2.50986,2.10449,1.78088,3.15708,4.49239,3.15708,8.095C29.2619,21.8513,28.37146,24.64457,26.59058,26.668Z"/><path d="M32.45917.56249l-.607.56683a22.99677,22.99677,0,0,1,4.37045,7.72986,31.00468,31.00468,0,0,1,1.45727,9.835,31.44755,31.44755,0,0,1-1.45727,9.87592,23.5952,23.5952,0,0,1-4.37045,7.77074l.607.56683a24.20888,24.20888,0,0,0,5.1805-8.05416A28.57128,28.57128,0,0,0,39.50094,18.7351,27.78358,27.78358,0,0,0,37.59879,8.57577,23.33269,23.33269,0,0,0,32.45917.56249Z"/><path d="M51.10732,4.40766,39.97716,33.30507h4.69473l2.71152-7.44645H59.8087l2.71151,7.44645h4.73562L56.12567,4.40766ZM48.71941,22.2151l4.816-13.0725h.16215l4.77581,13.0725Z"/><rect x="70.16288" y="4.40766" width="4.37113" height="28.89741"/><path d="M122.49038,33.30507V21.77091l8.78807-13.32229a44.0609,44.0609,0,0,1,5.94541,5.09125l.21392.218.838-.62678-.27524-.28478a47.22542,47.22542,0,0,0-6.11317-5.32058l2.0568-3.11808h-5.30177l-.44275.70283A35.35172,35.35172,0,0,0,110.50588,0C92.08392,0,77.097,11.214,77.097,24.99637c0,7.07447,4.22465,11.3652,12.56018,12.76184a15.79624,15.79624,0,0,0-2.48669,7.78437c0,6.73246,6.898,10.44,19.42345,10.44,6.85441,0,13.21149-1.462,17.90078-4.115,4.20489-2.38041,6.71543-5.55384,6.71543-8.48882,0-4.51011-5.42371-7.20255-14.508-7.20255-3.57947,0-7.10444.26843-10.5136.52732-3.296.25207-6.70385.511-10.049.511a42.63357,42.63357,0,0,1-4.7724-.25889A52.89625,52.89625,0,0,1,100.801,26.57422L101.90874,25.6l-.62815-.83662-1.148,1.011a53.36131,53.36131,0,0,0-9.89636,11.03C82.61269,35.62306,78.418,31.93867,78.418,26.41617c0-11.55188,14.22593-24.47178,33.26513-24.47178a32.61112,32.61112,0,0,1,15.8783,4.17918l-7.25663,11.51875L111.96724,4.40766h-5.30177l11.45378,17.36325V33.30507Zm-31.72815,4.618a40.71454,40.71454,0,0,0,5.37738.33519c3.55768,0,7.08129-.26842,10.48839-.52731,3.30628-.25072,6.725-.511,10.07417-.511,6.50015,0,13.44654,1.631,13.44654,6.2106,0,4.7036-8.388,11.50828-23.55477,11.50828-11.82984,0-18.345-3.36146-18.345-9.46578A15.054,15.054,0,0,1,90.76223,37.92308Z"/><path d="M141.78915,28.36711a3.06386,3.06386,0,0,0-2.14537-.85024,2.71378,2.71378,0,0,0-2.10449.85024,2.84127,2.84127,0,0,0-.89044,2.18557,2.93451,2.93451,0,0,0,.89044,2.14468,2.83149,2.83149,0,0,0,2.10449.81073,3.21016,3.21016,0,0,0,2.14537-.81073,3.10463,3.10463,0,0,0,.89044-2.14468A2.99244,2.99244,0,0,0,141.78915,28.36711Z"/></svg>