<?xml version="1.0" encoding="UTF-8"?><svg id="_圖層_3" xmlns="http://www.w3.org/2000/svg" viewBox="0 0 773.61 120.68"><path d="M86.83,18.71l-1,.94c3.14,3.61,5.55,7.89,7.22,12.77,1.61,4.81,2.41,10.23,2.41,16.25s-.8,11.44-2.41,16.32c-1.67,4.88-4.08,9.16-7.22,12.84l1,.94c3.61-3.61,6.42-8.09,8.56-13.31,2.01-5.35,3.08-10.9,3.08-16.72s-1.07-11.43-3.14-16.78c-2.07-5.22-4.88-9.63-8.49-13.24Z"/><path d="M82.28,32.62c-4.28-3.21-10.16-4.75-17.65-4.75-3.48,0-10.03,.2-19.66,.6v2.01c1.2,.2,2.41,.47,3.68,.8,.8,.13,1.4,.47,1.81,.87,.47,.47,.74,1.14,.74,1.94v29.16c0,1.67-.94,2.74-2.81,3.14l-4.08,.94v2.01c10.37,.2,17.99,.33,22.94,.33,6.69,0,12.04-1.94,16.05-5.68,4.01-3.88,6.02-9.03,6.02-15.58,0-6.95-2.34-12.24-7.02-15.78Zm-5.15,29.22c-2.94,3.34-7.15,5.08-12.5,5.08-2.88,0-4.75-.4-5.55-1.14-.6-.6-.87-1.8-.87-3.68v-27.75c0-1.4,.47-2.41,1.4-3.01,.67-.54,1.74-.74,3.14-.74,5.82,0,10.37,1.34,13.57,4.15,3.48,2.94,5.22,7.42,5.22,13.37s-1.47,10.36-4.41,13.71Z"/><path d="M36.21,48.67c0-6.02,.8-11.43,2.41-16.25,1.61-4.88,4.01-9.16,7.22-12.77l-1-.94c-3.61,3.61-6.49,8.03-8.49,13.24-2.14,5.35-3.14,10.9-3.14,16.78s1,11.37,3.08,16.72c2.07,5.22,4.95,9.7,8.56,13.31l1-.94c-3.21-3.68-5.62-7.96-7.22-12.84-1.6-4.88-2.41-10.3-2.41-16.32Z"/><path d="M117.66,25.07l-18.39,47.75h7.76l4.48-12.3h20.53l4.48,12.3h7.82l-18.39-47.75h-8.29Zm-3.95,29.42l7.96-21.6h.27l7.89,21.6h-16.12Z"/><rect x="149.15" y="25.07" width="7.22" height="47.75"/><path d="M226.06,77.56c-5.91,0-11.74,.44-17.37,.87-5.45,.41-11.08,.84-16.6,.84-2.73,0-5.38-.14-7.89-.43,3.54-5.41,8.78-11.17,15.59-17.15l1.83-1.61-1.04-1.38-1.9,1.67c-7.21,6.34-12.71,12.47-16.35,18.23-12.6-1.95-19.53-8.04-19.53-17.16,0-19.09,23.51-40.44,54.97-40.44,10.19,0,18.96,2.9,26.24,6.91l-11.99,19.03-13.78-21.87h-8.76l18.92,28.69v19.06h7.22v-19.06l14.52-22.01c3.83,2.72,7.11,5.65,9.82,8.41l.35,.36,1.39-1.04-.46-.47c-3.18-3.28-6.57-6.22-10.1-8.79l3.4-5.15h-8.76l-.73,1.16c-9.36-5.47-19.45-8.45-29.24-8.45-30.44,0-55.21,18.53-55.21,41.31,0,11.69,6.98,18.78,20.75,21.09-2.73,4.68-4.11,9-4.11,12.86,0,11.13,11.4,17.25,32.1,17.25,11.33,0,21.83-2.42,29.58-6.8,6.95-3.93,11.1-9.18,11.1-14.03,0-2.79-1.73-11.9-23.97-11.9Zm-16.7,31c-19.55,0-30.31-5.55-30.31-15.64,0-3.7,1.4-7.89,4.15-12.48,2.74,.37,5.73,.56,8.88,.56,5.88,0,11.7-.44,17.33-.87,5.46-.42,11.11-.85,16.65-.85,10.74,0,22.22,2.7,22.22,10.26s-13.86,19.02-38.92,19.02Z"/><path d="M267.52,64.65c-1-.94-2.21-1.4-3.54-1.4-1.47,0-2.61,.47-3.48,1.4-1,.94-1.47,2.14-1.47,3.61,0,1.34,.47,2.54,1.47,3.54,.87,.87,2.01,1.34,3.48,1.34,1.34,0,2.54-.47,3.54-1.34,.94-1,1.47-2.21,1.47-3.54,0-1.47-.54-2.68-1.47-3.61Z"/></svg>