<?xml version="1.0" encoding="UTF-8"?><svg id="_圖層_3" xmlns="http://www.w3.org/2000/svg" viewBox="0 0 773.61 120.68"><path d="M63.42,65.77c0,3.86-.9,6.69-2.65,8.56-1.81,1.87-4.64,2.83-8.5,2.83s-6.75-.96-8.56-2.83-2.65-4.7-2.65-8.56v-26.76h-6.57v26.64c0,5.61,1.57,9.89,4.7,12.9,3.01,2.89,7.35,4.34,13.08,4.34s10.01-1.51,13.08-4.4c3.07-2.95,4.64-7.23,4.64-12.84v-26.64h-6.57v26.76Z"/><polygon points="104.47 73.72 88.34 45.95 84.11 45.95 76.89 82.04 82.05 82.04 87.56 54.28 103.7 82.04 107.93 82.04 115.14 45.95 109.99 45.95 104.47 73.72"/><path d="M152.72,68.84c-.48-4.22-2.59-6.75-6.45-7.59v-.12c2.35-.6,4.22-1.87,5.61-3.8,1.21-1.75,1.81-3.74,1.81-6.03,0-4.1-1.33-7.17-3.98-9.34-2.53-1.99-6.03-2.95-10.37-2.95h-19.05v43.04h6.57v-17.78h11.63c2.47,0,4.34,.48,5.67,1.57,1.27,1.08,2.05,2.77,2.29,5.18l.54,5.36c.24,2.41,.84,4.34,1.87,5.67h7.11c-1.45-1.57-2.29-3.68-2.53-6.33l-.72-6.87Zm-14.23-10.19h-11.63v-14.04h11.57c3.01,0,5.18,.54,6.63,1.69,1.33,1.08,2.05,2.83,2.05,5.24s-.72,4.04-2.11,5.24c-1.45,1.21-3.62,1.87-6.51,1.87Z"/><path d="M180.22,39.85h-19.16c-.48,0-.88,.39-.88,.88v13.84c0,.48,.39,.88,.88,.88h3.19c.69,0,1.25,.56,1.25,1.25v8.51c0,.48,.39,.88,.88,.88h3.19c.48,0,.88-.39,.88-.88v-8.51c-.04-.34-.33-.88-.88-.88h-3.19c-.69,0-1.25-.56-1.25-1.25v-3.19c0-.69,.56-1.25,1.25-1.25h13.84c.48,0,.88-.39,.88-.88v-8.51c0-.48-.39-.88-.88-.88Z"/><path d="M180.22,71.77h-8.51c-.69,0-1.25-.56-1.25-1.25v-3.19c0-.69,.56-1.25,1.25-1.25h3.19c.48,0,.88-.39,.88-.88v-8.51c0-.48-.39-.88-.88-.88h-3.19c-.48,0-.88,.39-.88,.88v8.51c0,.69-.56,1.25-1.25,1.25h-8.51c-.48,0-.88,.39-.88,.88v13.84c0,.48,.39,.88,.88,.88h19.16c.48,0,.88-.39,.88-.88v-8.51c0-.48-.39-.88-.88-.88Z"/><path d="M205.41,45.54c-4.74,0-8.51,1.4-11.29,4.2-2.78,2.8-4.18,6.81-4.18,12.04v20.26h5.05v-9.95h20.83v9.95h5.16v-20.26c0-5.22-1.39-9.24-4.18-12.04-2.78-2.8-6.58-4.2-11.39-4.2Zm10.41,22.06h-20.83v-6.29c0-3.68,.92-6.46,2.76-8.35,1.84-1.89,4.39-2.84,7.66-2.84s5.82,.95,7.65,2.84,2.76,4.67,2.76,8.35v6.29Z"/><polygon points="236.82 39 230.31 39 230.31 82.04 260.5 82.04 260.5 76.44 236.82 76.44 236.82 39"/><rect x="266.05" y="39" width="6.51" height="43.04"/><path d="M379.64,34.12l-.9-.84c-3.26,3.26-5.85,7.23-7.65,11.93-.1,.24-.16,.5-.26,.74h-26.35c1.2-2.03,1.87-3.89,1.87-5.47,0-1.12-.71-1.81-1.86-1.81-8.33,0-19.34,19.13-21.72,24.55v.02c-1.9,1.11-3.68,2.07-5.41,2.92,0-.14,.01-.28,.01-.42,0-4.19-3.77-8.67-14.34-8.67s-17.18,6.29-18.89,12.43c-3.96-2.06-6.22-5.35-6.22-9.12,0-7.42,8.27-15.31,23.61-15.31,10.3,0,17.77,1.38,22.85,4.21l.47,.27,.67-1.34-.43-.24c-7.1-3.99-16.85-4.45-23.56-4.45-12.37,0-25.17,6.31-25.17,16.86,0,4.52,2.71,8.41,7.46,10.72-.06,.48-.08,.93-.08,1.34,0,8.67,10.58,11.81,17.69,11.81,11.93,0,18.36-10.67,22.63-20.03,7.1-4.28,13.11-9.22,17.1-13.79h12.24l-6.29,31.6h5.1l6.34-31.6h10.9c-.78,3.2-1.2,6.48-1.2,9.9,0,5.24,.9,10.25,2.77,15.07,1.87,4.7,4.46,8.74,7.72,12l.9-.84c-2.89-3.31-5.06-7.17-6.51-11.57-1.45-4.4-2.17-9.28-2.17-14.71s.72-10.31,2.17-14.65c1.45-4.4,3.62-8.26,6.51-11.51Zm-37.69,11.83l-.29,1.49c-3.4,4.53-9.32,9.76-16.4,14.28,3.62-7.08,12.69-21.49,19.23-21.49,.31,0,.31,.1,.31,.25,0,1.53-.76,3.41-2.1,5.47h-.75Zm-38.92,12.68c9.43,0,12.78,3.67,12.78,7.11,0,.23-.01,.45-.04,.66-2.77-1.92-5.97-2.93-9.29-2.93-9.29,0-15.45,4.06-16.22,8.02-1.69-.29-3.26-.74-4.68-1.33,1.39-5.66,7.85-11.52,17.45-11.52Zm14.48,9.14c1.39-.67,2.81-1.41,4.23-2.21l-.16,.38c-.57,1.31-1.29,2.59-2.13,3.8l-.21-.23c-.62-.69-1.18-1.25-1.73-1.74Zm-21.13,4.2c-1.71,0-3.21-.09-4.58-.26,.59-2.95,5.72-6.69,14.69-6.69,2.97,0,5.7,.81,8.11,2.42-6.63,2.96-12.92,4.53-18.22,4.53Zm0,1.55c5.4,0,11.77-1.56,18.51-4.53-2.52,4.29-9.92,6.89-15.99,6.89-2.34,0-6.16-.36-7.01-2.61,1.37,.16,2.84,.24,4.48,.24Zm-11.06-1.79c1.48,.58,3.13,1.02,4.93,1.31,.79,4.16,8.01,5.12,10.57,5.12,6.65,0,12.85-3.35,15.42-8.33,.13-.26,.26-.52,.38-.8,.47,.42,.94,.91,1.45,1.48l.32,.35,.56-.42c-4.85,6.49-13.2,11.11-20.91,11.11-4.73,0-12.73-1.92-12.73-9.12,0-.25,0-.48,.02-.7Z"/><path d="M416.59,33.28l-.9,.84c2.83,3.26,5,7.11,6.51,11.51,1.45,4.34,2.17,9.22,2.17,14.65s-.72,10.31-2.17,14.71c-1.51,4.4-3.68,8.26-6.51,11.57l.9,.84c3.25-3.25,5.79-7.29,7.72-12,1.81-4.82,2.77-9.82,2.77-15.07s-.96-10.31-2.83-15.13c-1.87-4.7-4.4-8.68-7.65-11.93Z"/><path d="M388.26,41.47v1.93l3.98,.54c.84,.12,1.45,.3,1.75,.6,.3,.36,.48,.96,.48,1.81v27.97c0,.84-.18,1.45-.48,1.81-.3,.24-.9,.48-1.75,.6l-3.98,.54v1.93c3.86-.18,6.99-.24,9.46-.24,2.29,0,5.42,.06,9.4,.18v-1.87l-4.04-.54c-1.51-.24-2.23-1.03-2.23-2.41v-27.97c0-.6,.12-1.15,.42-1.51,.36-.48,.96-.78,1.87-.9l3.98-.54v-1.87c-3.98,.12-7.11,.18-9.4,.18-2.53,0-5.67-.12-9.46-.24Z"/><path d="M444.7,46.32c-1.74,.81-3.5,1.97-5.22,3.45-1.72,1.48-3.31,3.17-4.72,5.04-1.34,1.76-2.51,3.6-3.49,5.48-.98,1.88-1.73,3.77-2.23,5.6-.5,1.84-.75,3.63-.75,5.33,0,2.35,.44,4.43,1.3,6.18,.87,1.76,2.12,3.15,3.71,4.13,1.6,.98,3.44,1.48,5.49,1.48,2.26,0,4.53-.55,6.75-1.64,2.21-1.08,4.43-2.73,6.62-4.9l.14-.14-.57-1.05-.69,.56c-2.11,1.82-4,3.14-5.63,3.91-1.61,.77-3.29,1.15-5,1.15-2.63,0-4.72-.98-6.24-2.9-1.53-1.94-2.3-4.62-2.3-7.96,0-1.98,.23-3.92,.68-5.76,.45-1.85,1.12-3.68,2.01-5.47,.88-1.78,2-3.52,3.31-5.16,1.21-1.49,2.49-2.79,3.81-3.85,1.32-1.06,2.67-1.89,4.01-2.49,1.33-.59,2.57-.88,3.68-.88,.9,0,1.62,.24,2.14,.7,.52,.47,.78,1.09,.78,1.92,0,1.15-.42,2.33-1.25,3.52-.85,1.21-2.03,2.33-3.51,3.33-1.49,1-3.08,1.76-4.75,2.24l-.27,.08,.95,2.57,.23-.06c1.8-.5,3.5-1.37,5.08-2.58,1.57-1.21,2.84-2.61,3.79-4.15,.95-1.56,1.44-3.08,1.44-4.53,0-1.33-.42-2.4-1.24-3.19-1.67-1.59-4.59-1.56-8.04,.05Z"/><path d="M466.21,74.69c-.9-.84-1.99-1.27-3.19-1.27-1.33,0-2.35,.42-3.13,1.27-.9,.84-1.33,1.93-1.33,3.26,0,1.21,.42,2.29,1.33,3.19,.78,.78,1.81,1.21,3.13,1.21,1.21,0,2.29-.42,3.19-1.21,.84-.9,1.33-1.99,1.33-3.19,0-1.33-.48-2.41-1.33-3.26Z"/></svg>