<svg id="圖層_1" data-name="圖層 1" xmlns="http://www.w3.org/2000/svg" viewBox="0 0 290.70728 36.34522"><path d="M19.42754,21.81476c0,2.59025-.60771,4.4924-1.78088,5.74733-1.21405,1.25493-3.1162,1.90215-5.70645,1.90215-2.63112,0-4.53327-.64722-5.74732-1.90215S4.412,24.405,4.412,21.81476V3.84518H0V21.73437c0,3.76342,1.05327,6.63709,3.15708,8.6605,2.02342,1.943,4.938,2.91454,8.78313,2.91454,3.8043,0,6.71884-1.01239,8.78177-2.954,2.0643-1.9839,3.11756-4.85757,3.11756-8.621V3.84518h-4.412Z"/><polygon points="46.98 27.154 36.146 8.517 33.309 8.517 28.464 32.743 31.925 32.743 35.626 14.106 46.46 32.743 49.298 32.743 54.143 8.517 50.682 8.517 46.98 27.154"/><path d="M79.37249,23.87906c-.32293-2.83279-1.74-4.53328-4.33025-5.1001v-.0804a6.46933,6.46933,0,0,0,3.76342-2.54937,6.92987,6.92987,0,0,0,1.21406-4.0482,7.607,7.607,0,0,0-2.67064-6.27327A11.03159,11.03159,0,0,0,70.3877,3.84518H57.59861v28.8974h4.412V20.80374h7.81026a5.83252,5.83252,0,0,1,3.8043,1.0519,5.014,5.014,0,0,1,1.53834,3.48l.36381,3.60264a7.41666,7.41666,0,0,0,1.25493,3.80429h4.77581a6.9904,6.9904,0,0,1-1.69913-4.24986ZM69.82087,17.039H62.01061V7.6086h7.77075a7.07015,7.07015,0,0,1,4.45152,1.13366,4.31162,4.31162,0,0,1,1.37619,3.52088A4.42533,4.42533,0,0,1,74.192,15.784,6.70145,6.70145,0,0,1,69.82087,17.039Z"/><path d="M97.83533,25.848H92.118a.84116.84116,0,0,1-.8407-.8407V22.86394a.842.842,0,0,1,.8407-.8407h2.14333a.59.59,0,0,0,.59-.58863v-5.716a.58908.58908,0,0,0-.59-.58863H92.118a.58879.58879,0,0,0-.58863.58863v5.716a.842.842,0,0,1-.8407.8407H84.9713a.58966.58966,0,0,0-.58863.58863v9.29a.58965.58965,0,0,0,.58863.58863h12.864a.58849.58849,0,0,0,.58727-.58863V26.438A.58879.58879,0,0,0,97.83533,25.848Z"/><path d="M97.83533,4.41064H84.97266a.58966.58966,0,0,0-.58863.58863v9.29a.58965.58965,0,0,0,.58863.58863H87.116a.842.842,0,0,1,.8407.84071V21.436a.58966.58966,0,0,0,.58863.58863h2.14333a.58966.58966,0,0,0,.58863-.58863V15.71862A.64543.64543,0,0,0,90.69,15.13H88.54532a.842.842,0,0,1-.8407-.84071V12.1446a.84087.84087,0,0,1,.8407-.83935h9.29a.58966.58966,0,0,0,.58863-.58863V4.99927A.58966.58966,0,0,0,97.83533,4.41064Z"/><path d="M114.74075,8.24083a10.20731,10.20731,0,0,0-7.57862,2.82052q-2.80418,2.82053-2.80281,8.08005V32.74258h3.39144V26.06326h13.98135v6.67932H125.193V19.1414q0-5.25885-2.80418-8.08005A10.29622,10.29622,0,0,0,114.74075,8.24083ZM121.73211,23.052H107.75076V18.83073a7.73389,7.73389,0,0,1,1.85174-5.607,7.88859,7.88859,0,0,1,10.27787,0,7.73389,7.73389,0,0,1,1.85174,5.607Z"/><polygon points="135.822 3.845 131.451 3.845 131.451 32.743 151.728 32.743 151.728 28.979 135.822 28.979 135.822 3.845"/><rect x="155.44484" y="3.84518" width="4.37113" height="28.89741"/><path d="M231.7025.56683,231.09615,0a22.7615,22.7615,0,0,0-5.141,8.01328c-.06651.1664-.11037.33707-.1733.50415H208.101A7.58269,7.58269,0,0,0,209.36042,4.841a1.14326,1.14326,0,0,0-1.24812-1.21541c-5.59,0-12.988,12.845-14.58428,16.48166l-.00613.01635c-1.272.7426-2.46489,1.3871-3.6258,1.95937.00613-.09265.00954-.18667.00954-.27932,0-2.81371-2.52894-5.81954-9.62657-5.81954-6.8292,0-11.53621,4.22124-12.67872,8.343-2.6611-1.38165-4.17765-3.59446-4.17765-6.12476,0-4.98292,5.55589-10.27787,15.85216-10.27787,6.91641,0,11.93408.92518,15.33845,2.82733l.31817.1785.45237-.90066-.29022-.16215c-4.767-2.67745-11.31071-2.98675-15.81877-2.98675-8.30556,0-16.89589,4.23487-16.89589,11.3216,0,3.03445,1.82108,5.6465,5.00745,7.19983a7.77574,7.77574,0,0,0-.05722.90066c0,5.81818,7.10308,7.93016,11.87753,7.93016,8.00783,0,12.3265-7.16576,15.19267-13.4513a49.55032,49.55032,0,0,0,11.47412-9.253h8.2123l-4.2226,21.21387h3.4255l4.25667-21.21387h7.315a28.147,28.147,0,0,0,1.05531,16.76235,23.57736,23.57736,0,0,0,5.18049,8.05416l.60635-.56683a22.239,22.239,0,0,1-4.37113-7.77074,31.44764,31.44764,0,0,1-1.45659-9.87592,31.00482,31.00482,0,0,1,1.45659-9.835A21.70024,21.70024,0,0,1,231.7025.56683Zm-25.30022,7.9506-.196,1.00268a43.603,43.603,0,0,1-11.00634,9.57743c2.42878-4.75265,8.52015-14.42826,12.9124-14.42826.20439,0,.20439.06812.20439.17168a7.27489,7.27489,0,0,1-1.41009,3.67647Zm-26.12322,8.51173c6.32778,0,8.58284,2.46625,8.58284,4.77445a4.00087,4.00087,0,0,1-.02589.44011,10.89076,10.89076,0,0,0-6.23785-1.96619c-6.23445,0-10.37462,2.72378-10.89171,5.38215a14.77883,14.77883,0,0,1-3.14005-.89521C169.497,20.96426,173.83683,17.02916,180.27906,17.02916Zm9.72331,6.13838c.93813-.45373,1.88852-.94971,2.8396-1.48111l-.109.2548a14.85794,14.85794,0,0,1-1.42865,2.54937l-.139-.15261A15.63757,15.63757,0,0,0,190.00237,23.16754Zm-14.18845,2.82189a24.3783,24.3783,0,0,1-3.076-.17441c.39787-1.97846,3.84041-4.49376,9.86025-4.49376a9.64434,9.64434,0,0,1,5.44824,1.62691A30.98906,30.98906,0,0,1,175.81392,25.98943Zm0,1.04373a31.83989,31.83989,0,0,0,12.428-3.03854c-1.693,2.87912-6.66093,4.62593-10.73161,4.62593-1.56832,0-4.13541-.23981-4.707-1.74954A25.56332,25.56332,0,0,0,175.81392,27.03316Zm-7.42534-1.20179a16.45512,16.45512,0,0,0,3.307.88022c.53141,2.796,5.3808,3.4364,7.09559,3.4364,4.46651,0,8.62576-2.24551,10.35146-5.59335.08584-.17169.17236-.35154.25139-.53413a13.35794,13.35794,0,0,1,.977.99332l.21393.23845.37539-.28342c-3.25587,4.35887-8.86012,7.45871-14.03857,7.45871-3.17548,0-8.54877-1.29035-8.54877-6.12475C168.37292,26.138,168.37837,25.98125,168.38858,25.83137Z"/><path d="M256.51219,0l-.60634.56683a22.98356,22.98356,0,0,1,4.36976,7.72987,31.00384,31.00384,0,0,1,1.458,9.835,31.44679,31.44679,0,0,1-1.458,9.87592,23.58142,23.58142,0,0,1-4.36976,7.77074l.60634.56683a24.198,24.198,0,0,0,5.1805-8.05416A28.57124,28.57124,0,0,0,263.554,18.17261a27.78358,27.78358,0,0,0-1.90215-10.15933A23.32268,23.32268,0,0,0,256.51219,0Z"/><path d="M237.4907,5.50479V6.79923l2.67064.36517a2.15725,2.15725,0,0,1,1.17317.40468,1.89038,1.89038,0,0,1,.32429,1.21405v18.779a1.89038,1.89038,0,0,1-.32429,1.21405,2.557,2.557,0,0,1-1.17317.40468l-2.67064.36381v1.29581c2.59025-.12127,4.69406-.16215,6.35367-.16215q2.30751,0,6.31415.12127V29.54463l-2.71151-.36381a1.517,1.517,0,0,1-1.49747-1.61873V8.78313a1.58518,1.58518,0,0,1,.282-1.01239,1.76992,1.76992,0,0,1,1.25493-.60634l2.672-.36517V5.54566q-4.008.1206-6.31415.12127C242.14388,5.66693,240.04007,5.58518,237.4907,5.50479Z"/><path d="M275.37154,8.7638a15.56221,15.56221,0,0,0-3.50794,2.315,21.62042,21.62042,0,0,0-3.17139,3.38463,25.79778,25.79778,0,0,0-2.34157,3.67621,18.65423,18.65423,0,0,0-1.49474,3.7607,13.78656,13.78656,0,0,0-.50347,3.57675,9.359,9.359,0,0,0,.8734,4.15175,6.6215,6.6215,0,0,0,2.49351,2.7742,6.93193,6.93193,0,0,0,3.68712.992,10.23088,10.23088,0,0,0,4.5285-1.10368,17.20711,17.20711,0,0,0,4.44266-3.28789l.09334-.09265-.38424-.70445-.46055.37607a17.78811,17.78811,0,0,1-3.77773,2.62295,7.76949,7.76949,0,0,1-3.356.77394,5.05823,5.05823,0,0,1-4.1865-1.94712,8.4774,8.4774,0,0,1-1.54448-5.34672,16.34643,16.34643,0,0,1,.45578-3.86834,17.79942,17.79942,0,0,1,1.34758-3.66941,19.09855,19.09855,0,0,1,2.22372-3.46365,16.99877,16.99877,0,0,1,2.55823-2.5848,12.14681,12.14681,0,0,1,2.69176-1.66915,6.21468,6.21468,0,0,1,2.46829-.59272,2.0956,2.0956,0,0,1,1.43888.47145,1.62058,1.62058,0,0,1,.5205,1.28627,4.15788,4.15788,0,0,1-.84207,2.36542,8.95429,8.95429,0,0,1-2.3552,2.236,11.42313,11.42313,0,0,1-3.1891,1.50428l-.17918.05314.635,1.72365.15533-.0436a9.96556,9.96556,0,0,0,3.40711-1.73183,10.341,10.341,0,0,0,2.54392-2.78782,5.87053,5.87053,0,0,0,.9647-3.044,2.83359,2.83359,0,0,0-.83661-2.1406C279.64661,7.66421,277.68587,7.68465,275.37154,8.7638Z"/><path d="M289.81752,27.80463a3.06667,3.06667,0,0,0-2.14605-.85025,2.71327,2.71327,0,0,0-2.10381.85025,2.83937,2.83937,0,0,0-.89112,2.18556,2.93252,2.93252,0,0,0,.89112,2.14469,2.831,2.831,0,0,0,2.10381.81073,3.21323,3.21323,0,0,0,2.14605-.81073,3.107,3.107,0,0,0,.88976-2.14469A2.99459,2.99459,0,0,0,289.81752,27.80463Z"/></svg>