<svg id="圖層_1" data-name="圖層 1" xmlns="http://www.w3.org/2000/svg" viewBox="0 0 171.06201 313.99902"><path d="M22.78791,265.83887H1.48455A1.48456,1.48456,0,0,1,0,264.35432V239.58416a1.48456,1.48456,0,0,1,1.48455-1.48455H27.0257a1.48455,1.48455,0,0,1,1.48455,1.48455v20.91762a1.48456,1.48456,0,0,0,1.48456,1.48455H50.52766a1.48455,1.48455,0,0,1,1.48455,1.48455v20.53285a1.48455,1.48455,0,0,0,1.48455,1.48455H117.951a1.48456,1.48456,0,0,0,1.48455-1.48455V263.47088a1.48454,1.48454,0,0,1,1.48455-1.48455h20.91761a1.48456,1.48456,0,0,0,1.48456-1.48455V172.16131a1.48455,1.48455,0,0,0-1.48456-1.48455H120.9201a1.48455,1.48455,0,0,1-1.48455-1.48455v-20.9186a1.48456,1.48456,0,0,0-1.48455-1.48455H53.49676a1.48455,1.48455,0,0,0-1.48455,1.48455v20.9186a1.48456,1.48456,0,0,1-1.48455,1.48455H29.99481a1.48455,1.48455,0,0,0-1.48456,1.48455v20.91762a1.48455,1.48455,0,0,1-1.48455,1.48455H1.48455A1.48456,1.48456,0,0,1,0,193.07893V1.48455A1.48456,1.48456,0,0,1,1.48455,0H145.69074a1.48455,1.48455,0,0,1,1.48455,1.48455V26.25471a1.48455,1.48455,0,0,1-1.48455,1.48455H29.99481a1.48455,1.48455,0,0,0-1.48456,1.48455v111.8434a1.48456,1.48456,0,0,0,1.48456,1.48455H46.67512a1.48456,1.48456,0,0,0,1.48455-1.48455V120.53436a1.48455,1.48455,0,0,1,1.48455-1.48456h72.54457a1.48456,1.48456,0,0,1,1.48455,1.48456v20.53285a1.48456,1.48456,0,0,0,1.48455,1.48455h20.53285a1.48454,1.48454,0,0,1,1.48455,1.48455v20.91762a1.48456,1.48456,0,0,0,1.48455,1.48455h20.91762A1.48454,1.48454,0,0,1,171.062,167.923v96.43129a1.48455,1.48455,0,0,1-1.48455,1.48455H148.65984a1.48455,1.48455,0,0,0-1.48455,1.48455V288.242a1.48454,1.48454,0,0,1-1.48455,1.48455H125.15789a1.48456,1.48456,0,0,0-1.48455,1.48455v21.30336a1.48455,1.48455,0,0,1-1.48455,1.48455H49.64422a1.48454,1.48454,0,0,1-1.48455-1.48455V291.21111a1.48456,1.48456,0,0,0-1.48455-1.48455H25.757a1.48455,1.48455,0,0,1-1.48455-1.48455V267.32342A1.48455,1.48455,0,0,0,22.78791,265.83887Z"/></svg>