<svg id="圖層_1" data-name="圖層 1" xmlns="http://www.w3.org/2000/svg" viewBox="0 0 924.46958 575.36863"><defs><style>.cls-1{fill:#ff4a03;}.cls-2{fill:#0073f7;}.cls-3{fill:#a6e2c5;}.cls-4{fill:#ff00c9;}.cls-5{fill:#fffa6f;}.cls-6{fill:#20d371;}.cls-7{fill:#004943;}.cls-8{fill:#a9a9ff;}</style></defs><path class="cls-1" d="M31.2513,372.81551A239.49513,239.49513,0,0,0,0,302.93486l16.06234-10.54159a258.6701,258.6701,0,0,1,33.7541,75.47846Z"/><rect class="cls-2" x="-36.82639" y="370.56081" width="145.40312" height="19.21278" transform="translate(-335.87303 292.88943) rotate(-71.39672)"/><path class="cls-3" d="M133.88059,382.22711a118.71254,118.71254,0,0,1-21.0962-3.24783,23.9644,23.9644,0,0,1-10.06959-4.57161c-6.1979-5.20107-7.01183-13.014-7.44867-17.21012-.8358-8.02627-1.87614-18.01356,1.28554-27.64733A31.29425,31.29425,0,0,1,111.277,311.59364L109.8849,308.153a95.39456,95.39456,0,0,1,80.06522,4.33228c4.28848,2.30231,9.53353,5.738,12.05159,11.91792,2.09,5.13359,1.45293,10.1414.79133,13.46309-3.549,17.82546-18.27727,33.67833-37.522,40.38827A80.62315,80.62315,0,0,1,133.88059,382.22711Zm-18.70731-22.52853a20.8065,20.8065,0,0,0,2.14.60993c16.073,3.89649,30.08135,3.8301,41.63436-.19631,12.94235-4.51242,22.7571-14.71655,25.00342-25.99813a8.43164,8.43164,0,0,0,.24465-2.45046,11.65151,11.65151,0,0,0-3.33364-2.251,76.09027,76.09027,0,0,0-58.10188-5.47486l-.03431,3.94062c-2.97258-.02588-6.525,3.41158-7.91964,7.66135-1.88208,5.73576-1.14462,12.818-.43121,19.66662A19.57626,19.57626,0,0,0,115.17328,359.69858Zm.118.2337Zm-.37427-.35191Z"/><path class="cls-4" d="M255.98447,397.864a107.70645,107.70645,0,0,1-10.72869-1.26991c-3.504-.56142-9.36895-1.49989-13.88183-5.94155-5.05964-4.97942-5.78478-11.83409-6.1335-15.12974a196.07576,196.07576,0,0,1,1.35868-51.52566l18.97258,3.0268a176.83441,176.83441,0,0,0-1.22591,46.47655,17.36268,17.36268,0,0,0,.58223,3.41254,23.57537,23.57537,0,0,0,3.36391.709c7.55623,1.20694,15.99089,2.20837,20.4363-1.26864a24.39637,24.39637,0,0,0,4.63526-5.79239,166.02467,166.02467,0,0,0,17.66811-36.52191l18.45685,5.24409a403.62276,403.62276,0,0,0-8.9647,58.53533l-19.15341-1.50426q.23181-2.95865.50682-5.92148-.62934.55755-1.30685,1.08949C273.193,397.2554,264.5009,398.35736,255.98447,397.864Zm-10.93054-20.6564Zm-.42427-.4273Z"/><path class="cls-5" d="M357.62592,429.15846l-18.79668-3.97776a499.24814,499.24814,0,0,0,10.73742-95.5539l19.21026.29134A518.54023,518.54023,0,0,1,357.62592,429.15846Z"/><path class="cls-6" d="M426.92825,422.465l-6.5761-7.003a186.49756,186.49756,0,0,0-44.99321-35.161l1.48563-17.4416a87.6441,87.6441,0,0,0,32.52487-20.49484c3.005-3.00069,3.55348-4.5328,3.6516-4.94057a4.5688,4.5688,0,0,0-2.269-1.33826c-2.70279-.72039-6.43517-.248-10.04732.21129-7.22547.91576-8.37126,2.27232-8.47807,2.42453L388.44111,347.55l-17.65323-7.57626,3.785-8.82982c4.94188-11.52544,18.57947-13.25507,23.71362-13.90671,4.93874-.62672,11.08635-1.4049,17.42837.2888,8.74185,2.33746,15.1545,9.02224,16.33631,17.031,1.587,10.72371-6.46118,18.76154-9.10562,21.40187a106.81825,106.81825,0,0,1-22.63724,17.21229,205.70474,205.70474,0,0,1,34.04987,29.13864l6.57543,7.003Z"/><path class="cls-7" d="M428.21709,575.36863l-18.67317-1.44182a443.0178,443.0178,0,0,1,14.16961-81.90419,13.7955,13.7955,0,0,1,3.3458-6.28078,11.88014,11.88014,0,0,1,8.43364-3.6119c5.33515-.056,9.54582,3.30044,11.58116,5.30641a408.52513,408.52513,0,0,0,58.81424,48.05556l.88193-66.92757,18.72763.24785-1.10517,83.81233-14.26539,7.85472A427.22164,427.22164,0,0,1,439.409,506.08351,424.40174,424.40174,0,0,0,428.21709,575.36863Z"/><path class="cls-1" d="M636.85742,553.289c-6.80427-20.68648-13.05035-41.77119-18.64728-62.9336-11.40974,19.6586-21.90606,39.94629-31.31933,60.54859l-17.03424-7.78456a720.8766,720.8766,0,0,1,43.96776-81.78622l17.04467,2.74959c6.788,27.97693,14.78872,56.02129,23.77942,83.35493Z"/><path class="cls-2" d="M570.80167,522.76681l-1.9365-18.62692A824.26864,824.26864,0,0,0,660.1702,489.41l4.019,18.293A842.83981,842.83981,0,0,1,570.80167,522.76681Z"/><path class="cls-3" d="M802.48489,548.52041l-11.62312-48.07269c-.47567-1.96668-.967-4.00028-1.42729-6.09a254.8829,254.8829,0,0,0-21.794,23.92838l-13.84328.85654a167.451,167.451,0,0,1-19.74405-23.06678c-.4706.8789-.9242,1.76566-1.36529,2.62786L707.972,547.02514l-16.67371-8.52786,24.71587-48.32143c2.8063-5.48827,6.65086-13.00391,13.931-17.664l13.082,3.07556a148.69044,148.69044,0,0,0,16.80955,22.81143,273.88624,273.88624,0,0,1,30.89358-30.401l15.36595,7.73009c-.38293,6.454,1.32146,13.50139,2.97,20.31724l11.62311,48.07268Z"/><path class="cls-8" d="M865.19982,549.35127l-1.05122-10.4208c-1.72693-17.11923.79382-33.88677,3.23076-50.10275,1.87079-12.44571,3.63774-24.20074,3.61175-36.0124a13.04161,13.04161,0,0,1,2.59421-8.46067c3.32684-4.22083,8.21721-4.53859,9.82552-4.64981,13.43467-.88784,27.09439-1.50875,40.5955-1.84222l.46324,18.72245c-11.57725.287-23.27361.78754-34.83958,1.49162-.40371,11.40593-2.0911,22.63068-3.72992,33.53458-1.831,12.18059-3.58307,23.84012-3.59853,35.32741a142.25837,142.25837,0,0,1,26.87586-1.08959l-1.01386,18.70036a123.5186,123.5186,0,0,0-32.72462,2.59519Z"/><rect class="cls-5" x="859.00286" y="482.95263" width="50.22753" height="18.72904" transform="translate(-18.61088 35.01917) rotate(-2.24552)"/><path class="cls-4" d="M115.82345,105.43975l-18.47618-2.22311a383.14456,383.14456,0,0,0-9.33237-46.963L68.155,101.2468,50.09914,99.93473,24.30018,6.93992,42.82479,1.80151l18.607,67.06977L80.90928,24.745l17.89247.78342a393.46275,393.46275,0,0,1,11.99214,43.21463,437.70409,437.70409,0,0,1,24.64275-44.78579l16.26689,10.24529A424.19481,424.19481,0,0,0,115.82345,105.43975Z"/><path class="cls-2" d="M189.99929,120.65806l-15.625-65.08817c-2.20639-9.19167-4.70708-19.60766-4.28643-30.3757l19.2092.7492c-.31679,8.1146,1.76082,16.76946,3.77018,25.13814l1.81338,7.55384q.44222-.65058.93243-1.2868c3.31073-4.29113,7.6871-7.06872,11.53157-9.21927,27.5006-15.37938,47.54068-10.73927,57.039-6.60468l-7.672,17.6261c-15.06767-6.554-32.98037,1.84166-39.98279,5.75729-2.25365,1.26016-4.50488,2.64018-5.69526,4.18328-1.59789,2.07189-2.24769,5.69153-2.71175,9.29555a136.54117,136.54117,0,0,0,.52087,38.54184Z"/><rect class="cls-3" x="262.78319" y="69.56181" width="50.98753" height="19.22408" transform="translate(187.72962 360.70952) rotate(-85.70372)"/><path class="cls-1" d="M353.49933,66.63571q-7.04385-.52917-13.99259-1.71146l3.23092-18.94947A133.93681,133.93681,0,0,0,398.41021,43.619l4.82066,18.61033A153.39008,153.39008,0,0,1,353.49933,66.63571Z"/><path class="cls-1" d="M400.264,120.02413a30.153,30.153,0,0,1-4.30025-.67c-17.39984-3.77881-30.3167-14.153-34.55513-27.75074-2.35268-7.54863-1.75383-15.2292-1.2724-21.40037L365.5244,1.16118,384.69025,2.6575,379.3021,71.69933c-.38978,4.996-.79286,10.16453.45981,14.1826,2.53417,8.13109,12.13745,12.9177,20.27983,14.68588.55078.11937.96588.19224,1.2755.237.06828-.09439.144-.203.22777-.32446A48.51769,48.51769,0,0,0,409.859,78.10445l19.1153,2.04387a67.80226,67.80226,0,0,1-11.61569,31.26406,20.19069,20.19069,0,0,1-6.84987,6.61524A18.2792,18.2792,0,0,1,400.264,120.02413Zm.4964-18.50673-.0001.00134Z"/><path class="cls-6" d="M502.80827,110.0659a85.23908,85.23908,0,0,1-12.21976-1.82034c-11.57189-2.59061-19.59136-7.52987-24.5163-15.09962-3.88081-5.96233-5.20413-12.81236-5.38418-19.30755q-5.40534-.61788-10.78081-1.38277l2.70794-19.03179q4.91907.70036,9.86982,1.27a25.74306,25.74306,0,0,1,4.05932-10.68026c3.35913-4.7474,8.577-7.74954,15.51071-8.92437,14.929-2.53751,30.74013,3.86253,40.27894,16.29589,5.18312,6.7554,5.56355,14.87934.94547,20.21664-4.04494,4.67571-9.64595,4.75384-11.75474,4.78368-10.47879.146-21.00778-.12723-31.50516-.81231a15.61175,15.61175,0,0,0,2.16573,7.08814c2.05156,3.1529,6.17357,5.38555,12.60236,6.82328a65.42713,65.42713,0,0,0,26.204.51087L524.44,108.90871A84.91216,84.91216,0,0,1,502.80827,110.0659Zm-12.5358-56.24974a20.65085,20.65085,0,0,0-5.00156.22536c-2.14469.36468-2.93793.9398-3.03316,1.07519a4.45415,4.45415,0,0,0-.48058,1.30461q9.3597.60027,18.72967.73738A22.99043,22.99043,0,0,0,490.27247,53.81616Z"/><path class="cls-8" d="M299.19183,1.87566a11.863,11.863,0,0,0-12.77644-.0178,12.11459,12.11459,0,0,0-5.34362,9.64435,12.57907,12.57907,0,0,0,4.71,10.43507l.96077-1.2254a11.27414,11.27414,0,0,0,5.57129,1.95437,11.77665,11.77665,0,0,0,2.14948-.03645A11.27365,11.27365,0,0,0,304.633,13.02788,11.37533,11.37533,0,0,0,299.19183,1.87566Z"/><path class="cls-5" d="M520.71189,292.52779a42.39385,42.39385,0,0,1-28.58876-7.27562c-9.55314-6.59782-15.30021-16.43227-15.7678-26.98225-.41166-9.28042,3.23958-17.79522,9.76629-22.77579,6.04142-4.60591,13.16025-5.36438,18.3606-5.92442l53.35295-5.70156,1.7352,16.231,1.44094-.02461c.39267,23.03918-13.57345,44.44809-33.20885,50.90373A36.071,36.071,0,0,1,520.71189,292.52779ZM504.955,248.7404c-2.81706.32882-5.75371.80846-7.24373,1.94448-1.484,1.13264-2.39637,3.841-2.26775,6.73908.27449,6.1941,4.8401,10.24357,7.53761,12.10651,5.65886,3.90845,13.05951,5.20229,18.85291,3.29694,10.51249-3.45586,18.548-15.07081,19.88273-28.021l-35.07518,3.74925C506.09329,248.61425,505.52626,248.67373,504.955,248.7404Z"/><path class="cls-3" d="M554.23342,295.03976a851.72622,851.72622,0,0,1-33.29209-143.483l18.91677-2.68841a832.6318,832.6318,0,0,0,32.54309,140.256Z"/><path class="cls-7" d="M626.72835,276.3705a35.27728,35.27728,0,0,1-18.17009-2.534c-9.5718-4.16826-17.02532-12.74078-20.44927-23.51731-3.49244-10.99262-2.311-22.55227,3.24087-31.71428,8.91326-14.71106,28.075-22.13256,44.572-17.26308l-1.381,4.67918a37.47439,37.47439,0,0,1,15.86052,10.30577c8.012,8.6952,11.556,20.24805,9.48083,30.9043-2.02753,10.40647-9.049,19.45421-19.264,24.821A39.85873,39.85873,0,0,1,626.72835,276.3705Zm-4.10762-57.25724a20.8361,20.8361,0,0,0-14.92994,9.39251c-2.65521,4.38241-3.1678,10.37451-1.37162,16.0287,1.75427,5.52221,5.3516,9.81754,9.8694,11.78469,4.55122,1.98337,10.36163,1.54,15.54224-1.18081,4.98388-2.61865,8.49692-6.94017,9.39675-11.56049.9181-4.7137-.86818-10.06176-4.77805-14.30451-3.76026-4.08175-8.70815-6.21875-13.23552-5.7158Z"/><path class="cls-8" d="M715.23357,267.17771l-17.16386-1.31091A174.84739,174.84739,0,0,1,686.02389,202.423l-.02523-9.55365,19.10688-.05107.02489,9.55368a155.95684,155.95684,0,0,0,4.41155,36.51583L722.249,216.955c1.70917-2.95162,5.71318-9.86384,13.66092-11.21153,7.01746-1.22165,12.57947,2.76519,15.25087,4.66606l23.28652,16.55879a245.9051,245.9051,0,0,1-.281-29.47427l.483-9.54185,19.08237.96621-.483,9.54185a226.9823,226.9823,0,0,0,2.54758,47.19707l-14.97,9.29386-40.74021-28.9718q-.36981-.26277-.686-.47948c-.17991.28937-.385.63-.61845,1.03295Z"/><rect class="cls-4" x="818.56727" y="181.18406" width="19.1069" height="76.86742" transform="translate(-19.87742 97.49057) rotate(-6.65766)"/><path class="cls-2" d="M886.55458,240.33976l-5.71234-28.29819c-1.27166-6.29911-2.56606-11.75558-5.53559-14.72465-4.01965-4.01926-11.66526-3.6354-17.0697-1.5849-14.37732,5.46485-23.22915,23.7917-18.57218,38.44983l-18.20969,5.786c-7.79-24.51993,5.94532-52.95595,29.99279-62.095,13.83639-5.26216,28.50406-2.93126,37.36868,5.93278,7.28926,7.28877,9.292,17.21,10.75464,24.45567l5.71235,28.2982Z"/></svg>