<?xml version="1.0" encoding="UTF-8"?>
<svg id="_圖層_1" data-name="圖層 1" xmlns="http://www.w3.org/2000/svg" viewBox="0 0 1920 162.56">
  <defs>
    <style>
      .cls-1, .cls-2, .cls-3, .cls-4, .cls-5, .cls-6 {
        stroke-miterlimit: 10;
      }

      .cls-1, .cls-2, .cls-3, .cls-4, .cls-5, .cls-6, .cls-7, .cls-8, .cls-9, .cls-10, .cls-11, .cls-12, .cls-13, .cls-14, .cls-15 {
        fill: none;
        stroke-width: 14px;
      }

      .cls-1, .cls-12, .cls-14 {
        stroke: #a9a9ff;
      }

      .cls-2, .cls-13 {
        stroke: #a6e2c5;
      }

      .cls-3, .cls-9 {
        stroke: #0073f7;
      }

      .cls-4, .cls-7 {
        stroke: #ff00c9;
      }

      .cls-5, .cls-8 {
        stroke: #ff4a03;
      }

      .cls-6 {
        stroke: #fffa6f;
      }

      .cls-7, .cls-8, .cls-9, .cls-10, .cls-11, .cls-12, .cls-13, .cls-14, .cls-15 {
        stroke-linejoin: bevel;
      }

      .cls-10 {
        stroke: #004943;
      }

      .cls-11, .cls-15 {
        stroke: #20d371;
      }

      .cls-14, .cls-15 {
        stroke-linecap: square;
      }
    </style>
  </defs>
  <path class="cls-13" d="M613.94,162.56c.89,35.6,4.88,71.13,11.91,106.05"/>
  <g>
    <g>
      <path class="cls-5" d="M991.64,43.05c11.58,15.59,20.63,33.06,26.71,51.5"/>
      <path class="cls-3" d="M1029.34,50.79c-9.31,34.07-18.62,68.14-27.93,102.21"/>
      <path class="cls-2" d="M1076.01,53.2c-5.79,.28-10.38,5.5-11.86,11.1-1.49,5.6-.56,11.53,.37,17.25,.46,2.85,1.1,5.99,3.42,7.72,1.31,.98,2.98,1.34,4.59,1.63,11.4,2.07,23.51,2.12,34.22-2.32,10.71-4.44,19.74-13.98,21.34-25.46,.27-1.94,.32-4.01-.53-5.78-1.12-2.34-3.55-3.73-5.9-4.83-16.39-7.61-36.15-7.54-52.48,.2"/>
      <path class="cls-4" d="M1158.72,53.69c-1.2,11.88-.82,23.92,1.12,35.7,.4,2.41,.96,5.01,2.81,6.62,1.72,1.51,4.16,1.81,6.44,2.04,6.99,.71,14.87,1.15,20.14-3.5,1.94-1.71,3.32-3.96,4.59-6.21,5.15-9.09,9.18-18.82,11.97-28.89-2.46,14.53-3.85,29.25-4.15,43.99"/>
      <path class="cls-6" d="M1248.44,51.61c1.02,23.82-.28,47.74-3.86,71.32"/>
      <path class="cls-15" d="M1266.29,54.34c1.57-4.33,6.84-5.78,11.36-6.62,3.3-.61,6.71-1.23,10-.55,3.29,.68,6.48,2.98,7.16,6.27,.75,3.62-1.63,7.11-4.09,9.87-6.96,7.8-15.67,14.03-25.31,18.08,13.17,6.39,25.35,14.82,35.97,24.9"/>
    </g>
    <path class="cls-10" d="M1408.42,117.49c3.12-20.06,8.13-39.83,14.96-58.95,.21-.58,.43-1.18,.89-1.59,1.46-1.29,3.63,.29,4.9,1.76,15.51,17.85,33.05,33.92,52.18,47.82,1.88-20.8,3.77-41.6,5.65-62.4"/>
    <path class="cls-8" d="M1528.88,106.09c11.07-19.99,23.44-39.27,36.99-57.66,3.49,21.51,7.84,42.88,13.03,64.04"/>
    <path class="cls-3" d="M1524.45,80.58c23.31-.62,46.59-2.55,69.68-5.78"/>
    <path class="cls-13" d="M1619.5,109.91c7.07-11.53,14.14-23.06,21.2-34.59,2.32-3.79,4.82-7.75,8.74-9.85,4.55,9.13,10.3,17.67,17.04,25.33,8.88-9.49,18.71-18.11,29.29-25.67-.79,5.77,.14,11.63,1.07,17.38,1.96,12.17,3.93,24.33,5.89,36.5"/>
    <path class="cls-1" d="M1792.4,51.64c-10.02-.53-20.05-.84-30.08-.96-.84,0-1.79,.03-2.37,.65-.47,.51-.53,1.25-.58,1.93-1.6,21.28-10.54,41.76-10.04,63.1,8.75-1.19,17.65-1.21,26.4-.05"/>
    <path class="cls-6" d="M1778.66,83.65c-12.51-.47-25.01-.95-37.52-1.42"/>
    <path class="cls-7" d="M127.6,47.37c7.94,22.04,15.87,44.08,23.81,66.13,6.09-17.19,12.19-34.38,18.28-51.57,7.11,16.66,12.64,34.24,16.47,52.3,5.89-19.15,13.5-37.59,22.67-54.91"/>
    <path class="cls-9" d="M234.88,54.79c.25,6.83,2.35,13.43,4.44,19.94,4.97,15.47,9.93,30.94,14.9,46.42-2.29-9.78-3.19-19.89-2.66-29.93,.19-3.6,.62-7.36,2.61-10.38,1.47-2.23,3.67-3.86,5.89-5.34,10.26-6.79,23.27-11.19,34.89-7.14"/>
    <path class="cls-13" d="M316.66,69.23v37.13"/>
    <path class="cls-12" d="M315.15,38.49c-1.53-1.03-1.78-3.6-.32-4.73,1.46-1.13,4.07,.07,3.97,1.91s-3.18,2.56-3.93,.87c-.1-.22-.15-.47-.06-.69"/>
    <path class="cls-8" d="M353.74,67.68c14.55,1.37,29.38-.38,43.22-5.09"/>
    <path class="cls-8" d="M375.5,26.94c-.05,16.81-.1,33.62-.15,50.43-.01,4.35,0,8.83,1.6,12.87,3.25,8.2,12.33,12.69,21.07,13.91,1.94,.27,4.06,.38,5.7-.69,1.05-.68,1.76-1.77,2.4-2.85,3.55-6.05,5.55-13.01,5.77-20.02"/>
    <path class="cls-11" d="M434.13,67.11c14.61,.97,29.29,.8,43.88-.5,1.19-.11,2.52-.3,3.28-1.31,1.26-1.7,.01-4.23-1.39-5.79-5.9-6.61-15.01-9.55-23.24-7.51-2.49,.62-5.05,1.79-6.46,4.14-1.15,1.91-1.35,4.29-1.53,6.57-.57,7.38-.9,15.61,3.43,21.29,3.38,4.43,8.85,6.18,14.08,6.95,7.27,1.06,14.71,.65,21.84-1.21"/>
    <path class="cls-6" d="M641.2,72.5c-13.1-.13-26.21-.26-39.31-.38-3.5-.03-7.21-.02-10.22,1.77-3.48,2.07-5.34,6.19-5.63,10.23-.93,12.9,13.61,23.4,26.28,20.81,12.67-2.59,21.65-15.19,22.93-28.06"/>
    <path class="cls-13" d="M627.56,9.57c.89,35.6,4.88,71.13,11.91,106.05"/>
    <path class="cls-10" d="M697.27,62.18c-8.73-3.73-19.81-.86-25.63,6.64-7.38,9.49-4.56,25.27,5.83,31.31,10.39,6.05,25.77,.37,29.42-11.08,3.65-11.45-6.02-25.16-18.04-25.23"/>
    <path class="cls-14" d="M743.34,61.58c-1.7,14.9-.61,30.12,3.19,44.63,6.86-9.19,13.73-18.39,20.59-27.58,1.45-1.95,3.22-4.07,5.65-4.2,2.17-.11,4.03,1.44,5.65,2.9,9.06,8.18,18.13,16.36,27.19,24.55-.51-12.04,.25-24.14,2.25-36.02"/>
    <path class="cls-4" d="M838.34,57.21c0,18.77,0,37.55,0,56.32"/>
    <path class="cls-9" d="M838.63,98.28c-2.86-14.76,7.37-30.85,21.94-34.52,6.88-1.74,15.09-.52,19.49,5.05,3.26,4.13,3.83,9.71,4.26,14.95,.58,7.03,1.17,14.05,1.75,21.08"/>
  </g>
</svg>