<svg xmlns="http://www.w3.org/2000/svg" viewBox="0 0 1671.75302 145.45008"><defs><style>.cls-1,.cls-10,.cls-11,.cls-12,.cls-13,.cls-15,.cls-2,.cls-3,.cls-4,.cls-5,.cls-6,.cls-7,.cls-8,.cls-9{fill:none;stroke-width:14px;}.cls-1,.cls-8{stroke:#ff4a03;}.cls-1,.cls-10,.cls-2,.cls-3,.cls-4,.cls-5{stroke-miterlimit:10;}.cls-12,.cls-2{stroke:#0073f7;}.cls-3,.cls-9{stroke:#a6e2c5;}.cls-11,.cls-4{stroke:#ff00c9;}.cls-5{stroke:#fffa6f;}.cls-13,.cls-6{stroke:#20d371;}.cls-15,.cls-6{stroke-linecap:square;}.cls-11,.cls-12,.cls-13,.cls-15,.cls-6,.cls-7,.cls-8,.cls-9{stroke-linejoin:bevel;}.cls-7{stroke:#004943;}.cls-10,.cls-15{stroke:#a9a9ff;}.cls-14{fill:#a9a9ff;}</style></defs><g id="font"><path class="cls-1" d="M870.629,33.65553a182.21466,182.21466,0,0,1,26.708,51.503"/><path class="cls-2" d="M908.32763,41.39819,880.39629,143.60476"/><path class="cls-3" d="M954.99606,43.81116c-5.78856.285-10.37511,5.50224-11.86035,11.10427s-.56034,11.52622.37246,17.24623c.4649,2.85083,1.09921,5.99231,3.41563,7.71788a10.74136,10.74136,0,0,0,4.5903,1.62968c11.40447,2.07449,23.51045,2.12368,34.21711-2.31849s19.7425-13.98448,21.34438-25.46487a10.17862,10.17862,0,0,0-.52949-5.781c-1.11582-2.34193-3.54716-3.73229-5.89987-4.82519a62.69473,62.69473,0,0,0-52.48178.20059"/><path class="cls-4" d="M1037.70692,44.30269a136.03377,136.03377,0,0,0,1.12484,35.70224c.39805,2.415.96483,5.00791,2.80585,6.62071,1.72294,1.50936,4.16209,1.80676,6.441,2.03729,6.98824.70693,14.87176,1.14584,20.14353-3.49567a23.3471,23.3471,0,0,0,4.59316-6.21329,127.97494,127.97494,0,0,0,11.96916-28.89459,300.24127,300.24127,0,0,0-4.15121,43.98623"/><path class="cls-5" d="M1127.42932,42.216a370.28409,370.28409,0,0,1-3.85705,71.31543"/><path class="cls-6" d="M1145.27329,44.9464c1.56513-4.326,6.84069-5.77522,11.36343-6.617,3.30274-.61474,6.706-1.22942,9.99611-.55037s6.47965,2.97676,7.16219,6.26615c.752,3.62428-1.62944,7.11139-4.09286,9.87408a70.77859,70.77859,0,0,1-25.31077,18.07585A143.35024,143.35024,0,0,1,1180.3653,96.8954"/><path class="cls-7" d="M1287.40349,108.103a323.57,323.57,0,0,1,14.95574-58.94955,3.67889,3.67889,0,0,1,.89426-1.59209c1.45808-1.2854,3.62942.29252,4.90427,1.75984a312.23206,312.23206,0,0,0,52.18092,47.81567L1365.991,34.7353"/><path class="cls-8" d="M1407.86573,96.69493a530.233,530.233,0,0,1,36.99239-57.66142q5.236,32.26356,13.0317,64.04162"/><path class="cls-2" d="M1403.43384,71.19236a620.947,620.947,0,0,0,69.68387-5.7822"/><path class="cls-9" d="M1498.4864,100.51338l21.20449-34.59c2.32307-3.78954,4.82335-7.75062,8.74051-9.85136a118.29388,118.29388,0,0,0,17.03774,25.33482,197.39581,197.39581,0,0,1,29.28887-25.672c-.79242,5.77363.13847,11.62907,1.06743,17.38231l5.89315,36.49754"/><path class="cls-10" d="M1671.386,42.25014q-15.02613-.7889-30.07631-.95661a3.07689,3.07689,0,0,0-2.365.64652,3.11645,3.11645,0,0,0-.58473,1.93408c-1.59845,21.28328-10.54284,41.76064-10.04383,63.098a99.53107,99.53107,0,0,1,26.3993-.05154"/><path class="cls-5" d="M1657.64525,74.25859,1620.12642,72.834"/><path class="cls-11" d="M6.5861,36.90224l23.80877,66.12551L48.67875,51.45366a283.08767,283.08767,0,0,1,16.46886,52.30043,315.60925,315.60925,0,0,1,22.67475-54.9096"/><path class="cls-12" d="M113.86305,44.32409c.24581,6.82686,2.352,13.43246,4.43974,19.9369l14.89813,46.41511a106.65562,106.65562,0,0,1-2.65553-29.92888c.19146-3.60456.62091-7.36041,2.60543-10.37556a19.90208,19.90208,0,0,1,5.89005-5.33643c10.262-6.795,23.2699-11.18813,34.89125-7.13554"/><path class="cls-9" d="M195.64237,58.76272v37.1311"/><path class="cls-8" d="M232.72483,57.21633a104.1746,104.1746,0,0,0,43.21541-5.0907"/><path class="cls-8" d="M254.48391,16.48082l-.14608,50.43287c-.01261,4.35182-.003,8.82689,1.59951,12.87292,3.24958,8.20444,12.328,12.69182,21.06765,13.91288,1.93834.27081,4.06026.3805,5.69976-.68838a8.165,8.165,0,0,0,2.39705-2.852,42.445,42.445,0,0,0,5.77252-20.02008"/><path class="cls-13" d="M313.117,56.647a282.945,282.945,0,0,0,43.87543-.49578,4.30237,4.30237,0,0,0,3.27567-1.31336c1.26243-1.70166.01326-4.22764-1.387-5.79416a23.90389,23.90389,0,0,0-23.23653-7.50807c-2.49361.61845-5.05317,1.79382-6.45952,4.13611-1.1456,1.908-1.35309,4.29168-1.5281,6.56836-.56727,7.37909-.90433,15.61142,3.42877,21.28935,3.38166,4.43118,8.85416,6.1828,14.07568,6.94649a55.03154,55.03154,0,0,0,21.83851-1.21151"/><path class="cls-14" d="M199.35182,20.5984a8.6393,8.6393,0,0,0-9.27932.6841,8.82253,8.82253,0,0,0-3.35441,7.29533,9.16076,9.16076,0,0,0,3.98971,7.32106l.63087-.94231a8.2105,8.2105,0,0,0,4.15253,1.11533,8.57736,8.57736,0,0,0,1.559-.14374,8.12016,8.12016,0,0,0,2.30164-15.32977Z"/><path class="cls-5" d="M520.18829,63.11038l-39.31389-.38294c-3.5048-.03414-7.21-.01712-10.22426,1.77148-3.48147,2.06584-5.34282,6.19118-5.63372,10.229-.9294,12.90029,13.60892,23.40228,26.281,20.814s21.64763-15.191,22.928-28.06121"/><path class="cls-9" d="M506.54626.17487A615.76368,615.76368,0,0,0,518.45141,106.22"/><path class="cls-7" d="M576.25333,52.788a22.3383,22.3383,0,0,0-25.63312,6.63518c-7.37919,9.48871-4.56206,25.26673,5.82726,31.31237s25.77177.37257,29.4224-11.08-6.01887-25.15806-18.039-25.22641"/><path class="cls-15" d="M622.32569,52.18487a121.9662,121.9662,0,0,0,3.19355,44.62875L646.10947,69.233c1.45226-1.94531,3.22426-4.07017,5.64861-4.196,2.17175-.1127,4.03358,1.43781,5.64775,2.89508l27.18875,24.54606a173.14282,173.14282,0,0,1,2.24612-36.023"/><path class="cls-4" d="M717.32531,47.816v56.32242"/><path class="cls-12" d="M717.61755,88.88935c-2.86014-14.75848,7.36588-30.84815,21.94251-34.52444,6.88292-1.73591,15.08691-.5195,19.49066,5.0478,3.26423,4.12672,3.82738,9.70551,4.26352,14.94905l1.75341,21.08068"/></g></svg>