<svg xmlns="http://www.w3.org/2000/svg" viewBox="0 0 351.77192 43.78344"><defs><style>.cls-1{fill:#a9a9ff;}</style></defs><g id="font"><path class="cls-1" d="M9.78315,32.36537l-3.34409-.67672L7.826,27.7397H17.0762l1.35225,3.949-3.30936.67672v2.13438H25.43644V32.36537L22.484,31.68865,14.5861,9.59631l-3.55849.17726L2.9165,31.68865,0,32.36537v2.13438H9.78315Zm2.73924-18.17932,3.59322,10.70781h-7.329Z"/><polygon class="cls-1" points="31.816 33.283 29.169 33.07 29.137 16.668 36.714 34.682 38.997 34.682 38.997 13.168 40.579 12.955 40.579 11.738 35.041 11.738 35.041 12.955 37.567 13.168 37.597 29.297 30.233 11.738 25.912 11.738 25.912 12.986 27.677 13.168 27.737 13.32 27.737 33.07 25.912 33.283 25.912 34.5 31.816 34.5 31.816 33.283"/><path class="cls-1" d="M67.6185,9.09805H63.206l-9.78315,25.4017h4.12742l2.3835-6.54566H70.856l2.3835,6.54566h4.16216ZM61.10758,24.75133l4.234-11.49113h.14133L69.681,24.75133Z"/><path class="cls-1" d="M97.99443,32.64924a11.21165,11.21165,0,0,0,3.98488-6.93732H98.20763a7.86682,7.86682,0,0,1-2.66737,4.48315,7.44727,7.44727,0,0,1-4.62568,1.387q-4.26876,0-6.29653-2.66737c-1.28158-1.67205-1.92118-4.02082-1.92118-7.07985a11.23493,11.23493,0,0,1,1.95591-7.00918,7.18456,7.18456,0,0,1,6.19113-2.80991,7.88891,7.88891,0,0,1,4.55381,1.20972,6.19245,6.19245,0,0,1,2.45418,3.80643h3.77168a9.41367,9.41367,0,0,0-3.38-6.11927,11.22833,11.22833,0,0,0-7.329-2.31284c-4.05556,0-7.11459,1.31632-9.25016,4.02082a14.18259,14.18259,0,0,0-2.84584,9.21423c0,3.84235.88993,6.90139,2.73924,9.17829,2.09964,2.63264,5.23054,3.98489,9.39269,3.98489A10.92653,10.92653,0,0,0,97.99443,32.64924Z"/><path class="cls-1" d="M105.49349,21.6923A35.53026,35.53026,0,0,1,109.585,5.07842h-1.81458a36.92311,36.92311,0,0,0,0,33.22775H109.585A35.74257,35.74257,0,0,1,105.49349,21.6923Z"/><path class="cls-1" d="M121.1839,8.59978c-3.87828,0-6.93851,1.24566-9.14356,3.80643a13.68685,13.68685,0,0,0-3.16683,9.42862,13.64913,13.64913,0,0,0,3.16683,9.39149A11.61861,11.61861,0,0,0,121.1839,34.998a12.75437,12.75437,0,0,0,6.72293-1.708c.854,1.139,1.708,2.34757,2.5979,3.62916l2.5967-2.13438q-1.33308-1.86847-2.66857-3.62916a13.83847,13.83847,0,0,0,3.09617-9.32082,13.67282,13.67282,0,0,0-3.20277-9.46336A11.60435,11.60435,0,0,0,121.1839,8.59978Zm6.83072,19.56751c-1.28158-1.49478-2.562-2.95363-3.84235-4.30468l-2.24217,2.205c1.20972,1.31632,2.4913,2.77517,3.80762,4.37655a8.73278,8.73278,0,0,1-4.55382,1.13785,7.797,7.797,0,0,1-6.29772-2.7033,10.81017,10.81017,0,0,1-2.13438-7.04392,10.84539,10.84539,0,0,1,2.13438-7.07985,8.68352,8.68352,0,0,1,12.55832-.1066,11.03082,11.03082,0,0,1,2.17031,7.18645A11.37436,11.37436,0,0,1,128.01462,28.16729Z"/><path class="cls-1" d="M134.59621,5.07842h-1.81457a35.77691,35.77691,0,0,1,0,33.22775h1.81457a36.923,36.923,0,0,0,0-33.22775Z"/><path class="cls-1" d="M164.02413,23.75241a9.07578,9.07578,0,0,0-2.38171-.33177h-.30662v.91747h.30662a8.27217,8.27217,0,0,1,1.8523.22158,34.39374,34.39374,0,0,0-2.72905,5.29162c-4.39092,3.52017-7.974,5.61981-9.59151,5.61981-.015,0-.36292-.0036-.36292-.27189,0-1.86608,1.82-3.4998,4.12382-5.5683.869-.78093,1.76727-1.587,2.665-2.4925,3.44111-3.46986,7.39126-8.07637,7.39126-12.93561,0-2.79074-1.49-3.66868-2.83086-3.89386-.49646-2.32-2.1745-3.59442-4.74845-3.59442-6.32886,0-16.79952,7.98055-16.79952,17.07381a11.687,11.687,0,0,0,.93723,4.62448l.118.27428.87375-.34735-.12336-.28985a10.775,10.775,0,0,1-.88813-4.26156c0-8.60458,9.89874-16.15634,15.882-16.15634a3.54955,3.54955,0,0,1,3.77888,2.61347c-2.662.0539-6.52111,1.94274-9.87838,4.84367-3.66988,3.17042-5.86114,6.79838-5.86114,9.7029,0,2.62426,1.54508,3.01592,2.46615,3.01592,5.47068,0,14.39685-8.89323,14.39685-15.918,0-.20841-.01078-.41082-.02575-.60606,1.18516.327,1.78523,1.30674,1.78523,2.9189,0,3.84715-3.04106,6.82713-6.26119,9.982-.56054.54976-1.12708,1.10432-1.684,1.67085-3.53274,3.59921-6.23484,6.5732-6.23484,9.34358a1.18928,1.18928,0,0,0,1.28039,1.18936c2.15773,0,6.24382-2.83985,8.96389-4.9347a13.68361,13.68361,0,0,0-.87195,4.38493,7.53921,7.53921,0,0,0,7.45833,7.94462c3.39321,0,6.81755-2.49489,6.81755-8.06679a9.76752,9.76752,0,0,0-.09387-1.2169h.7119l2.38351-6.54566h10.92221l2.3835,6.54566h4.16215l-9.78315-25.4017h-4.41248l-8.00189,20.77662a14.22389,14.22389,0,0,0-4.47918-4.63586c.22159-.22278.43119-.43478.618-.6336,3.16862-3.40878,5.46829-6.70975,5.46829-7.84641a.71483.71483,0,0,0-.763-.7929,5.20681,5.20681,0,0,0-2.78355,1.47082A31.41776,31.41776,0,0,0,164.02413,23.75241ZM181.95132,13.2602h.14134l4.19808,11.49113h-8.57343Zm-9.45617,3.604c-.14013.92586-1.96369,3.6591-5.23293,7.13974-.2144.22637-.45993.48509-.73841.75817a11.17553,11.17553,0,0,0-1.31212-.61564,42.22115,42.22115,0,0,1,5.21736-6.03542A6.01541,6.01541,0,0,1,172.49515,16.8642Zm.03107,17.63555a8.78239,8.78239,0,0,1,.09829,1.2169c0,5.27725-3.17821,7.14932-5.90008,7.14932a6.64151,6.64151,0,0,1-6.54086-7.02715,14.33536,14.33536,0,0,1,1.34506-5.48326c1.83674-1.47082,3.692-3.08418,5.13292-4.46518a13.15737,13.15737,0,0,1,4.71207,5.12738l-1.341,3.482Zm-10.06335-6.05219a37.85079,37.85079,0,0,1,2.20265-3.54651,10.13978,10.13978,0,0,1,1.17977.52461C164.8865,26.34313,163.7211,27.384,162.46287,28.44756ZM151.91077,15.7503c3.23689-2.78714,6.92474-4.58855,9.39628-4.58855.01617,0,.03174,0,.04791.0012a6.60585,6.60585,0,0,1,.04072.727c0,5.3587-10.03528,14.99932-13.47818,14.99932-1.02767,0-1.54868-.70547-1.54868-2.09725C146.36882,22.11989,148.44031,18.73987,151.91077,15.7503Z"/><path class="cls-1" d="M203.07709,10.16523l3.62916-.39166v-1.351H195.74811v1.351l3.62916.39166c.07186,3.416.07186,6.86666.07186,10.35328v1.92118c0,3.48662,0,6.90139-.07186,10.31735l-3.62916.39046v1.35225h10.95814V33.1475l-3.62916-.4264c-.07067-3.416-.07067-6.86665-.07067-10.28141V20.51851C203.00642,17.03189,203.00642,13.54526,203.07709,10.16523Z"/><polygon class="cls-1" points="210.935 9.098 210.935 34.5 214.814 34.5 214.814 15.395 214.956 15.395 228.084 34.5 231.855 34.5 231.855 9.098 227.977 9.098 227.977 27.989 227.834 27.989 214.85 9.098 210.935 9.098"/><path class="cls-1" d="M236.31442,21.93664h1.884a.51883.51883,0,0,0,.51862-.51862V16.39349a.73941.73941,0,0,1,.739-.739h1.884a.74018.74018,0,0,1,.739.739V33.98233a.51755.51755,0,0,0,.51742.51742h1.884a.51833.51833,0,0,0,.51743-.51742V10.11253l-.0012-.0012a.51627.51627,0,0,0-.51623-.51622H239.4561a.51859.51859,0,0,0-.51863.51742v5.02453a.74017.74017,0,0,1-.739.739h-1.884a.51832.51832,0,0,0-.51742.51742V21.418A.51858.51858,0,0,0,236.31442,21.93664Z"/><path class="cls-1" d="M245.73705,34.49855h1.88405a.51833.51833,0,0,0,.51743-.51742V16.39349a.7394.7394,0,0,1,.739-.739h1.88405a.73941.73941,0,0,1,.739.739V21.418a.51832.51832,0,0,0,.51742.51742h1.88405a.51858.51858,0,0,0,.51862-.51742V16.39349a.51883.51883,0,0,0-.51862-.51862H252.018a.73941.73941,0,0,1-.739-.739V10.11133a.51832.51832,0,0,0-.51742-.51742h-5.02453a.51858.51858,0,0,0-.51862.51742v23.8698A.51858.51858,0,0,0,245.73705,34.49855Z"/><path class="cls-1" d="M261.867,15.94314a5.21319,5.21319,0,0,0-3.11772.76056A2.411,2.411,0,0,0,257.73,18.74106a2.50983,2.50983,0,0,0,1.00371,2.0697,4.47456,4.47456,0,0,0,2.82906.79051,5.47611,5.47611,0,0,0,2.09845-.36531,2.89418,2.89418,0,0,0,1.30913-.97377V21.4791h1.94633V15.72994q0-3.95434-4.53226-3.95494a8.32858,8.32858,0,0,0-2.38829.34974,6.02217,6.02217,0,0,0-1.9619.95819l.79051,1.369a5.11107,5.11107,0,0,1,1.5367-.77494,5.86452,5.86452,0,0,1,1.80979-.28985,3.05647,3.05647,0,0,1,1.993.54856,2.13858,2.13858,0,0,1,.654,1.73314v.27428ZM264.81828,18.65a2.88164,2.88164,0,0,1-2.82907,1.49119,2.975,2.975,0,0,1-1.65887-.39525,1.24753,1.24753,0,0,1-.59288-1.09594q0-1.39776,2.40386-1.399h2.677Z"/><path class="cls-1" d="M274.4062,29.45965c.22757,0,.46472-.00718.70966-.02156a18.87455,18.87455,0,0,0-1.00311,5.80785c0,3.64353,2.42662,5.73359,6.65825,5.73359,5.48086,0,14.83642-3.1285,24.6579-11.90675l1.38227-1.23472a11.11434,11.11434,0,0,0,1.77737,3.17506c2.09965,2.63264,5.23054,3.98489,9.39269,3.98489a10.92651,10.92651,0,0,0,7.04392-2.34877A11.21171,11.21171,0,0,0,329.01,25.71192h-3.77169a7.86677,7.86677,0,0,1-2.66737,4.48315,7.44727,7.44727,0,0,1-4.62568,1.387q-4.26874,0-6.29653-2.66737c-1.28158-1.67205-1.92117-4.02082-1.92117-7.07985a11.23487,11.23487,0,0,1,1.95591-7.00918,7.18454,7.18454,0,0,1,6.19113-2.80991,7.88891,7.88891,0,0,1,4.55381,1.20972,6.1924,6.1924,0,0,1,2.45417,3.80643h3.77169a9.41368,9.41368,0,0,0-3.38-6.11927,11.22831,11.22831,0,0,0-7.329-2.31284c-4.05555,0-7.11458,1.31632-9.25016,4.02082a14.18264,14.18264,0,0,0-2.84583,9.21423,19.11267,19.11267,0,0,0,.4633,4.32774l-2.0018,1.78194c-9.48312,8.44528-18.37815,11.454-23.53981,11.454-3.36805,0-5.076-1.39656-5.076-4.15257a17.31229,17.31229,0,0,1,1.25583-6.05219c8.41294-1.56185,21.6887-10.00593,28.647-18.26436,3.13809-3.73216,4.72989-6.54446,4.72989-8.36023,0-.9594-.412-2.56916-3.17282-2.56916-2.72007,0-6.699,1.66845-9.24477,3.21833-9.8646,6.01985-18.73987,15.85571-22.20493,24.57646a9.861,9.861,0,0,1-1.29895.08265c-2.16193,0-4.47237-.96059-4.47237-3.65431,0-1.87447,1.1642-6.19712,8.9615-14.07586l.42879-.43359L278.1719,8.56146l-.43359.43837c-6.14082,6.2055-9.3867,11.46957-9.3867,15.2233C268.35161,27.40433,270.72793,29.45965,274.4062,29.45965ZM307.15485,1.58222c1.5906,0,1.5906.69109,1.5906.98694,0,.51862-.315,2.57993-4.37,7.35413-6.33066,7.46313-18.67219,15.49758-26.67131,17.5002,3.69563-8.05481,12.18522-17.31335,21.06528-22.87806C301.40689,2.88416,305.08994,1.58222,307.15485,1.58222Z"/><polygon class="cls-1" points="351.772 31.192 336.794 31.192 336.794 23.115 350.313 23.115 350.313 19.807 336.794 19.807 336.794 12.406 351.167 12.406 351.167 9.098 332.916 9.098 332.916 34.5 351.772 34.5 351.772 31.192"/></g></svg>