<?xml version="1.0" encoding="UTF-8"?><svg id="_圖層_3" xmlns="http://www.w3.org/2000/svg" viewBox="0 0 773.61 120.68"><path d="M42.37,73.5l-3.97-.8,1.65-4.69h10.99l1.61,4.69-3.93,.8v2.54h12.26v-2.54l-3.51-.8-9.39-26.25-4.23,.21-9.64,26.04-3.47,.8v2.54h11.63v-2.54Zm3.26-21.6l4.27,12.73h-8.71l4.44-12.73Z"/><polygon points="68.56 74.59 65.41 74.34 65.37 54.84 74.38 76.25 77.09 76.25 77.09 50.68 78.97 50.43 78.97 48.98 72.39 48.98 72.39 50.43 75.39 50.68 75.43 69.85 66.68 48.98 61.54 48.98 61.54 50.47 63.64 50.68 63.71 50.87 63.71 74.34 61.54 74.59 61.54 76.04 68.56 76.04 68.56 74.59"/><path d="M111.11,45.85h-5.24l-11.63,30.19h4.91l2.83-7.78h12.98l2.83,7.78h4.95l-11.63-30.19Zm-7.74,18.6l5.03-13.66h.17l4.99,13.66h-10.19Z"/><path d="M147.2,73.84c2.5-1.99,4.06-4.73,4.74-8.24h-4.48c-.59,2.37-1.65,4.14-3.17,5.33-1.44,1.1-3.3,1.65-5.5,1.65-3.38,0-5.88-1.06-7.48-3.17-1.52-1.99-2.28-4.78-2.28-8.41s.76-6.3,2.32-8.33c1.65-2.24,4.1-3.34,7.36-3.34,2.2,0,3.97,.46,5.41,1.44,1.44,.97,2.41,2.49,2.92,4.52h4.48c-.47-3.04-1.82-5.5-4.02-7.27-2.28-1.86-5.2-2.75-8.71-2.75-4.82,0-8.45,1.56-10.99,4.78-2.28,2.83-3.38,6.47-3.38,10.95s1.06,8.2,3.26,10.91c2.5,3.13,6.22,4.74,11.16,4.74,3.26,0,6.05-.93,8.37-2.79Z"/><path d="M156.12,60.81c0-6.89,1.61-13.49,4.86-19.74h-2.16c-3.13,6.26-4.69,12.81-4.69,19.74s1.56,13.49,4.69,19.74h2.16c-3.26-6.3-4.86-12.89-4.86-19.74Z"/><path d="M174.76,45.26c-4.61,0-8.25,1.48-10.87,4.52-2.54,2.88-3.76,6.6-3.76,11.21s1.23,8.29,3.76,11.16c2.62,2.96,6.26,4.48,10.87,4.48,3.09,0,5.75-.68,7.99-2.03,1.01,1.35,2.03,2.79,3.09,4.31l3.09-2.54c-1.06-1.48-2.11-2.92-3.17-4.31,2.45-2.88,3.68-6.55,3.68-11.08s-1.27-8.41-3.81-11.25c-2.66-3-6.3-4.48-10.86-4.48Zm8.12,23.25c-1.52-1.78-3.04-3.51-4.57-5.12l-2.66,2.62c1.44,1.56,2.96,3.3,4.52,5.2-1.48,.89-3.3,1.35-5.41,1.35-3.21,0-5.71-1.1-7.48-3.21-1.69-2.07-2.54-4.86-2.54-8.37s.85-6.34,2.54-8.41c1.78-2.2,4.27-3.26,7.48-3.26s5.71,1.01,7.44,3.13c1.69,2.07,2.58,4.9,2.58,8.54,0,3.09-.63,5.58-1.9,7.53Z"/><path d="M190.7,41.07h-2.16c3.21,6.26,4.86,12.85,4.86,19.74s-1.65,13.44-4.86,19.74h2.16c3.13-6.26,4.69-12.85,4.69-19.74s-1.56-13.49-4.69-19.74Z"/><path d="M225.67,63.26c-.96-.26-1.91-.39-2.83-.39h-.36v1.09h.36c.7,0,1.44,.09,2.2,.26-1.19,1.86-2.23,3.87-3.24,6.29-5.22,4.18-9.48,6.68-11.4,6.68-.02,0-.43,0-.43-.32,0-2.22,2.16-4.16,4.9-6.62,1.03-.93,2.1-1.89,3.17-2.96,4.09-4.12,8.78-9.6,8.78-15.37,0-3.32-1.77-4.36-3.36-4.63-.59-2.76-2.58-4.27-5.64-4.27-7.52,0-19.96,9.48-19.96,20.29,0,1.92,.38,3.77,1.11,5.5l.14,.33,1.04-.41-.15-.34c-.7-1.64-1.06-3.34-1.06-5.06,0-10.23,11.76-19.2,18.87-19.2,1.68,0,3.78,.55,4.49,3.11-3.16,.06-7.75,2.31-11.74,5.76-4.36,3.77-6.97,8.08-6.97,11.53,0,3.12,1.84,3.58,2.93,3.58,6.5,0,17.11-10.57,17.11-18.92,0-.25-.01-.49-.03-.72,1.41,.39,2.12,1.55,2.12,3.47,0,4.57-3.61,8.11-7.44,11.86-.67,.65-1.34,1.31-2,1.99-4.2,4.28-7.41,7.81-7.41,11.1,0,.97,.79,1.41,1.52,1.41,2.56,0,7.42-3.37,10.65-5.86-.69,1.98-1.04,3.73-1.04,5.21,0,6.13,4.57,9.44,8.86,9.44,4.03,0,8.1-2.96,8.1-9.59,0-.48-.05-.96-.11-1.45h.85l2.83-7.78h12.98l2.83,7.78h4.95l-11.63-30.19h-5.24l-9.51,24.69c-1.29-2.16-3.12-4.09-5.32-5.51,.26-.26,.51-.52,.73-.75,3.77-4.05,6.5-7.97,6.5-9.32,0-.59-.34-.94-.91-.94-.79,0-1.9,.59-3.31,1.75-2.84,2.37-5.11,4.83-6.95,7.51Zm21.3-12.47h.17l4.99,13.66h-10.19l5.03-13.66Zm-11.24,4.28c-.17,1.1-2.33,4.35-6.22,8.48-.25,.27-.55,.58-.88,.9-.47-.26-.99-.5-1.56-.73,2.33-3.2,4.77-5.89,6.2-7.17,.78-.71,1.95-1.38,2.46-1.48Zm.04,20.96c.07,.48,.12,.97,.12,1.45,0,6.27-3.78,8.5-7.01,8.5-3.77,0-7.77-2.93-7.77-8.35,0-1.85,.54-4.04,1.6-6.52,2.18-1.75,4.39-3.67,6.1-5.31,2.4,1.47,4.35,3.67,5.6,6.09l-1.59,4.14h2.96Zm-11.96-7.19c.73-1.34,1.61-2.77,2.62-4.21,.46,.17,.93,.38,1.4,.62-1.14,1.09-2.52,2.33-4.02,3.59Zm-12.54-15.09c3.85-3.31,8.23-5.45,11.17-5.45,.02,0,.04,0,.06,0,.03,.3,.05,.58,.05,.86,0,6.37-11.93,17.83-16.02,17.83-1.22,0-1.84-.84-1.84-2.49,0-3.18,2.46-7.19,6.59-10.75Z"/><path d="M272.09,47.12l4.31-.47v-1.61h-13.02v1.61l4.31,.47c.09,4.06,.09,8.16,.09,12.3v2.28c0,4.14,0,8.2-.09,12.26l-4.31,.46v1.61h13.02v-1.61l-4.31-.51c-.08-4.06-.08-8.16-.08-12.22v-2.28c0-4.14,0-8.29,.08-12.3Z"/><polygon points="281.42 45.85 281.42 76.04 286.03 76.04 286.03 53.33 286.2 53.33 301.8 76.04 306.29 76.04 306.29 45.85 301.68 45.85 301.68 68.3 301.51 68.3 286.08 45.85 281.42 45.85"/><path d="M311.58,61.11h2.24c.34,0,.62-.28,.62-.62v-5.97c0-.48,.39-.88,.88-.88h2.24c.48,0,.88,.39,.88,.88v20.9c0,.34,.27,.61,.61,.61h2.24c.34,0,.61-.28,.61-.61v-28.37h0c0-.34-.27-.61-.61-.61h-5.97c-.34,0-.62,.28-.62,.61v5.97c0,.48-.39,.88-.88,.88h-2.24c-.34,0-.61,.28-.61,.61v5.97c0,.34,.28,.62,.61,.62Z"/><path d="M322.78,76.03h2.24c.34,0,.61-.28,.61-.61v-20.9c0-.49,.39-.88,.88-.88h2.24c.48,0,.88,.39,.88,.88v5.97c0,.34,.28,.61,.61,.61h2.24c.34,0,.62-.28,.62-.61v-5.97c0-.34-.28-.62-.62-.62h-2.24c-.48,0-.88-.39-.88-.88v-5.97c0-.34-.28-.61-.61-.61h-5.97c-.34,0-.62,.28-.62,.61v28.37c0,.34,.28,.61,.62,.61Z"/><path d="M341.95,53.98c-1.66,0-2.9,.3-3.71,.9-.81,.6-1.21,1.41-1.21,2.42s.4,1.83,1.19,2.46c.8,.63,1.92,.94,3.36,.94,.96,0,1.79-.15,2.49-.43s1.22-.67,1.56-1.16v1.45h2.31v-6.83c0-3.13-1.79-4.7-5.39-4.7-.97,0-1.91,.14-2.84,.42-.93,.28-1.71,.66-2.33,1.14l.94,1.63c.51-.38,1.11-.69,1.83-.92,.71-.23,1.43-.34,2.15-.34,1.06,0,1.85,.22,2.37,.65,.52,.43,.78,1.12,.78,2.06v.33h-3.51Zm3.51,3.22c-.6,1.18-1.72,1.77-3.36,1.77-.84,0-1.5-.16-1.97-.47-.47-.31-.7-.75-.7-1.3,0-1.11,.95-1.66,2.86-1.66h3.18v1.66Z"/><path d="M356.85,70.05c.27,0,.55,0,.84-.03-.79,2.43-1.19,4.75-1.19,6.9,0,4.33,2.88,6.81,7.91,6.81,6.51,0,17.63-3.72,29.3-14.15l1.64-1.47c.52,1.41,1.22,2.67,2.11,3.77,2.5,3.13,6.22,4.74,11.16,4.74,3.26,0,6.05-.93,8.37-2.79,2.5-1.99,4.06-4.73,4.74-8.24h-4.48c-.59,2.37-1.65,4.14-3.17,5.33-1.44,1.1-3.3,1.65-5.5,1.65-3.38,0-5.88-1.06-7.48-3.17-1.52-1.99-2.28-4.78-2.28-8.41s.76-6.3,2.32-8.33c1.65-2.24,4.1-3.34,7.36-3.34,2.2,0,3.97,.46,5.41,1.44,1.44,.97,2.41,2.49,2.92,4.52h4.48c-.47-3.04-1.82-5.5-4.02-7.27-2.28-1.86-5.2-2.75-8.71-2.75-4.82,0-8.45,1.56-10.99,4.78-2.28,2.83-3.38,6.47-3.38,10.95,0,1.87,.19,3.58,.55,5.14l-2.38,2.12c-11.27,10.04-21.84,13.61-27.97,13.61-4,0-6.03-1.66-6.03-4.93,0-2.16,.5-4.58,1.49-7.19,10-1.86,25.77-11.89,34.04-21.71,3.73-4.44,5.62-7.78,5.62-9.94,0-1.14-.49-3.05-3.77-3.05s-7.96,1.98-10.99,3.82c-11.72,7.15-22.27,18.84-26.39,29.21-.5,.07-1,.1-1.54,.1-2.57,0-5.31-1.14-5.31-4.34,0-2.23,1.38-7.36,10.65-16.73l.51-.52-1.37-1.37-.52,.52c-7.3,7.37-11.16,13.63-11.16,18.09,0,3.78,2.82,6.22,7.2,6.22Zm38.92-33.13c1.89,0,1.89,.82,1.89,1.17,0,.62-.37,3.07-5.19,8.74-7.52,8.87-22.19,18.42-31.7,20.8,4.39-9.57,14.48-20.58,25.03-27.19,3.13-1.97,7.51-3.52,9.97-3.52Z"/><polygon points="448.79 72.1 431 72.1 431 62.51 447.06 62.51 447.06 58.57 431 58.57 431 49.78 448.08 49.78 448.08 45.85 426.39 45.85 426.39 76.04 448.79 76.04 448.79 72.1"/></svg>