<?xml version="1.0" encoding="UTF-8"?><svg id="_圖層_3" xmlns="http://www.w3.org/2000/svg" viewBox="0 0 773.61 120.68"><polygon points="35.99 47.22 36.17 47.22 46.25 70.68 50.57 70.68 60.65 47.22 60.83 47.22 60.83 70.68 65.84 70.68 65.84 37.83 59.91 37.83 48.5 64.15 48.36 64.15 36.91 37.83 30.97 37.83 30.97 70.68 35.99 70.68 35.99 47.22"/><path d="M75.99,62.12c4.33,0,9.94-4.03,10.3-8.73,.08-.91-.16-1.69-.69-2.27-.55-.6-1.38-.93-2.32-.93-1.23,0-2.42,.63-3.05,1.27-.33,.33-.67,.75-.36,1.08,.32,.32,.67,0,.8-.12,.07-.07,.16-.15,.29-.25,.37-.3,1.32-.74,2.21-.74,.46,0,.82,.13,1.05,.39,.28,.31,.4,.82,.34,1.43-.47,4.42-4.91,7.73-8.56,7.73-2.31,0-3.92-1.63-3.92-3.96,0-3.22,1.52-6.1,4.66-8.82,3.04-2.64,7.25-4.34,10.72-4.34,1.37,0,5.83,.33,5.83,4.64,0,3.16-2.28,5.92-4.49,8.59l-.46,.55c-.46,.56-.94,1.12-1.41,1.67-2.58,3.02-5.02,5.88-5.02,8.45,0,1.81,1.08,2.93,2.82,2.93,2.19,0,4.89-1.41,8.21-4.31-1.68,2.8-3.59,5.86-5.94,9.33-8,1.28-17.12,4.6-24.42,8.9-5.72,3.33-24.38,14.88-24.38,23.89,0,3.77,3.46,5.11,6.42,5.11,5.23,0,12.04-3.28,20.22-9.76,8.81-6.95,13.7-12.9,20.16-21.19,1.66-2.12,3.14-4.13,4.51-6.13,1.77-.2,3.44-.29,4.97-.29,4.34,0,18.51,1.05,18.51,14.51,0,10.32-8.66,18.55-19.71,18.75-3.94,.09-7.42-1.07-9.54-3.15-1.53-1.5-2.3-3.41-2.3-5.69,0-6.31,4.91-10.51,9.78-11.87,.22-.07,.39-.11,.52-.13,.25-.06,.64-.14,.64-.56l-.02-.22-.15-.12c-.11-.08-.28-.22-1.32,.04-5.62,1.44-11.32,6.26-11.32,12.71,0,2.56,.88,4.73,2.62,6.45,2.44,2.41,6.51,3.77,11.07,3.7,12.09-.17,22.31-9.24,22.31-19.82,0-11.6-10.89-15.74-21.09-15.74-1.44,0-2.86,.09-4.11,.2,1.68-2.48,3.15-4.81,4.71-7.26,2.11-3.34,4.3-6.79,7.14-10.83,1.66-2.35,3.38-4.68,5.21-7.04,.63,1.09,1.56,2.02,2.82,2.77,1.01,.55,3.5,1.42,7.55,2.71,3.63,1.1,5.8,1.84,6.53,2.21,2.07,1.06,3.13,2.48,3.13,4.32,0,1.47-.74,2.62-2.21,3.45-1.47,.83-3.45,1.29-5.93,1.29-2.76,0-4.78-.51-6.12-1.52-1.47-1.1-2.39-2.99-2.76-5.57h-4.97c.28,4.14,1.75,7.18,4.46,9.11,2.26,1.56,5.38,2.39,9.39,2.39s7.36-.83,9.66-2.48c2.3-1.7,3.45-4,3.45-6.95s-1.43-5.38-4.23-7.08c-1.29-.78-4.19-1.84-8.6-3.22-3.08-.92-4.97-1.61-5.7-2.02-1.66-.88-2.44-2.03-2.44-3.5,0-1.66,.69-2.85,2.12-3.59,1.15-.64,2.81-.97,4.97-.97,2.48,0,4.32,.46,5.61,1.43,1.29,.92,2.12,2.48,2.58,4.6h4.97c-.32-3.59-1.61-6.21-3.91-7.91-2.16-1.66-5.15-2.44-8.97-2.44-3.5,0-6.39,.78-8.69,2.35-2.44,1.66-3.63,3.91-3.63,6.81,0,.33,.02,.66,.05,.97-1.3,1.58-2.67,3.32-4.4,5.6-1.32,1.73-2.36,3.18-3.37,4.59-1.04,1.45-2.01,2.81-3.21,4.37-1.76,2.29-2.79,3.19-5.08,5-2.07,1.6-3.83,2.45-5.07,2.45-.43,0-.87-.22-.87-.71,0-2.27,2.66-5.47,5-8.3l.13-.16c3.09-3.69,6.28-7.5,6.28-11.16,0-3.86-3.35-6.46-8.32-6.46-4.22,0-8.99,2.45-11.64,4.73-3.82,3.34-5.6,6.46-5.6,9.81,0,3.06,2.21,5.04,5.63,5.04Zm-31.39,50.3c-2.49,0-4.04-1.37-4.04-3.57,0-7,11.37-16.74,22.63-23.28,6.86-3.98,15.33-7.13,22.84-8.51-7.86,11.32-13.92,18.34-22.15,25.67-6.83,6.07-14.03,9.69-19.28,9.69Z"/><path d="M157.42,63.13c3.22,0,6.03-1.38,8.33-4.05l-.87-1.29c-1.84,1.61-3.82,2.44-5.84,2.44-4.23,0-6.35-2.34-6.35-7.04v-.6h13.02c-.09-2.3-.83-4.19-2.21-5.66-1.52-1.66-3.45-2.44-5.75-2.44-3.17,0-5.61,.92-7.36,2.76-1.66,1.7-2.48,3.96-2.48,6.81s.92,5.06,2.76,6.72c1.75,1.56,4,2.35,6.76,2.35Zm-3.54-15.13c.74-1.2,1.88-1.75,3.36-1.75,2.3,0,3.59,1.47,3.91,4.42h-8.28c.18-1.1,.51-2.02,1.01-2.67Z"/><path d="M142.38,74.77l.69-.64c-2.21-2.53-3.86-5.47-4.97-8.83-1.1-3.36-1.66-7.08-1.66-11.23s.55-7.87,1.66-11.18c1.1-3.36,2.76-6.3,4.97-8.79l-.69-.64c-2.48,2.48-4.46,5.52-5.84,9.11-1.47,3.68-2.16,7.5-2.16,11.55s.69,7.82,2.12,11.5c1.43,3.59,3.4,6.67,5.89,9.15Z"/><path d="M170.58,74.13l.69,.64c2.48-2.49,4.42-5.57,5.89-9.15,1.38-3.68,2.12-7.5,2.12-11.5s-.74-7.87-2.16-11.55c-1.43-3.59-3.36-6.62-5.84-9.11l-.69,.64c2.16,2.48,3.82,5.43,4.97,8.79,1.1,3.31,1.66,7.04,1.66,11.18s-.55,7.87-1.66,11.23c-1.15,3.36-2.81,6.3-4.97,8.83Z"/><path d="M207.42,61.2h-2.62l-1.66,7.31h-11.59c-.09-4.42-.09-8.79-.09-12.61v-3.36c0-4.46,0-8.92,.09-13.34l4.74-.5v-1.75h-14.22v1.75l4.69,.5c.09,4.37,.09,8.88,.09,13.39v2.62c0,4.28,0,8.74-.09,13.2l-4.69,.5v1.75h24.98l.37-9.48Z"/><polygon points="217.85 55.96 234.18 55.96 234.18 51.68 217.85 51.68 217.85 42.11 235.15 42.11 235.15 37.83 212.84 37.83 212.84 70.68 217.85 70.68 217.85 55.96"/></svg>