<svg xmlns="http://www.w3.org/2000/svg" viewBox="0 0 128.11219 50.28863"><defs><style>.cls-1{fill:#a9a9ff;}</style></defs><g id="font"><polygon class="cls-1" points="3.147 8.631 3.262 8.631 9.584 23.352 12.297 23.352 18.619 8.631 18.734 8.631 18.734 23.352 21.88 23.352 21.88 2.742 18.156 2.742 10.998 19.253 10.911 19.253 3.724 2.742 0 2.742 0 23.352 3.147 23.352 3.147 8.631"/><path class="cls-1" d="M28.24727,17.98021c2.71957,0,6.237-2.52764,6.46537-5.47608a1.81331,1.81331,0,0,0-.431-1.42563,1.93978,1.93978,0,0,0-1.45819-.585,2.89509,2.89509,0,0,0-1.91638.794c-.20748.207-.42079.47132-.22449.6754.20116.20116.41788,0,.49951-.0758.0447-.04082.10155-.09329.1827-.15646a2.53037,2.53037,0,0,1,1.38384-.46646.84446.84446,0,0,1,.6579.24392,1.16131,1.16131,0,0,1,.21429.89988,5.76855,5.76855,0,0,1-5.37356,4.85025,2.3676,2.3676,0,0,1-2.46254-2.48683c0-2.01746.95625-3.82695,2.92414-5.53342a11.02011,11.02011,0,0,1,6.72582-2.724c.85809,0,3.65687.2099,3.65687,2.90956,0,1.98441-1.43194,3.71616-2.81675,5.39057l-.28571.346c-.28911.34984-.58891.70066-.88774,1.05051-1.6195,1.896-3.14863,3.687-3.14863,5.30116a1.67446,1.67446,0,0,0,1.76673,1.84059c1.37315,0,3.066-.88726,5.14859-2.70257-1.05683,1.758-2.25409,3.67922-3.72733,5.857A46.381,46.381,0,0,0,19.81546,32.0917c-3.58837,2.08645-15.2966,9.3351-15.2966,14.988,0,2.36827,2.171,3.20888,4.03,3.20888,3.28274,0,7.55185-2.06022,12.68926-6.12233,5.52662-4.35949,8.598-8.09606,12.65184-13.29809,1.04469-1.32942,1.9713-2.58985,2.83085-3.8493a28.70264,28.70264,0,0,1,3.117-.18464c2.72492,0,11.61493.656,11.61493,9.10284,0,6.47412-5.43187,11.64117-12.36613,11.76459a8.29389,8.29389,0,0,1-5.98677-1.97664,4.812,4.812,0,0,1-1.44555-3.56941c0-3.95911,3.08157-6.59269,6.13934-7.4469.14091-.04178.24781-.06608.326-.08357.15937-.036.39941-.09038.39941-.35374l-.01021-.14091-.09572-.07483c-.067-.0515-.17881-.139-.82652.0243-3.52908.90183-7.10141,3.93092-7.10141,7.97652a5.476,5.476,0,0,0,1.64137,4.04463,9.72457,9.72457,0,0,0,6.943,2.3226c7.58877-.10593,14.00021-5.80067,14.00021-12.43611,0-7.28071-6.83514-9.87444-13.232-9.87444-.90572,0-1.79151.0583-2.58159.1273,1.05295-1.5539,1.9781-3.01646,2.9533-4.55676,1.325-2.09326,2.69528-4.25842,4.4829-6.79384,1.03916-1.475,2.11944-2.93386,3.26689-4.41756a4.87316,4.87316,0,0,0,1.77043,1.73831,36.97006,36.97006,0,0,0,4.7346,1.70259A38.48861,38.48861,0,0,1,58.56252,15.299a3.025,3.025,0,0,1,1.963,2.71326,2.39478,2.39478,0,0,1-1.38578,2.16517,7.58246,7.58246,0,0,1-3.723.80854,6.32186,6.32186,0,0,1-3.83958-.95334A5.06588,5.06588,0,0,1,49.84549,16.54H46.728a7.15134,7.15134,0,0,0,2.79975,5.71515,10.2067,10.2067,0,0,0,5.8891,1.50142,10.23256,10.23256,0,0,0,6.0611-1.55876,5.12219,5.12219,0,0,0,2.16517-4.35852,4.965,4.965,0,0,0-2.65592-4.445A30.75267,30.75267,0,0,0,55.58979,11.373a22.94347,22.94347,0,0,1-3.57914-1.26917,2.42419,2.42419,0,0,1-1.53058-2.19432,2.33919,2.33919,0,0,1,1.32845-2.25166,6.48078,6.48078,0,0,1,3.11753-.6064,5.76546,5.76546,0,0,1,3.5218.895A4.57107,4.57107,0,0,1,60.064,8.83268h3.11753a6.52332,6.52332,0,0,0-2.45379-4.964A9.05366,9.05366,0,0,0,55.099,2.33815a9.49165,9.49165,0,0,0-5.45568,1.47227,4.87651,4.87651,0,0,0-2.27984,4.272,5.68173,5.68173,0,0,0,.0342.60992c-.81656.99233-1.67222,2.08366-2.75863,3.51536-.82652,1.0855-1.48054,1.998-2.11318,2.88041-.64965.90669-1.26334,1.76285-2.01551,2.74047a14.891,14.891,0,0,1-3.188,3.13891,6.03548,6.03548,0,0,1-3.18021,1.53933c-.27211,0-.54713-.139-.54713-.448,0-1.42368,1.66858-3.4353,3.14037-5.20981l.08455-.102c1.93582-2.31288,3.93821-4.70545,3.93821-6.99986,0-2.42464-2.09909-4.05337-5.22342-4.05337A12.51288,12.51288,0,0,0,28.2322,8.66455c-2.39888,2.09617-3.51645,4.0524-3.51645,6.15635C24.71575,16.7402,26.102,17.98021,28.24727,17.98021ZM8.54891,49.54229c-1.56508,0-2.53736-.85713-2.53736-2.23806,0-4.39058,7.133-10.50125,14.20234-14.609A46.95319,46.95319,0,0,1,34.544,27.35613,83.12813,83.12813,0,0,1,20.64489,43.46271C16.36168,47.26925,11.83942,49.54229,8.54891,49.54229Z"/><path class="cls-1" d="M79.34151,18.61869a6.72622,6.72622,0,0,0,5.22439-2.54028l-.54809-.80854a5.55437,5.55437,0,0,1-3.6666,1.52961q-3.98242,0-3.9834-4.41585v-.37512h8.16894a5.30746,5.30746,0,0,0-1.38482-3.55095A4.6761,4.6761,0,0,0,79.54365,6.928a6.05218,6.05218,0,0,0-4.619,1.73175,5.84921,5.84921,0,0,0-1.55877,4.272,5.401,5.401,0,0,0,1.73175,4.21469A6.13,6.13,0,0,0,79.34151,18.61869ZM77.119,9.12227a2.30255,2.30255,0,0,1,2.10686-1.09813c1.44312,0,2.25166.92418,2.45379,2.77157H76.48345A3.69517,3.69517,0,0,1,77.119,9.12227Z"/><path class="cls-1" d="M69.90243,25.92175l.43245-.40427a15.87633,15.87633,0,0,1-3.11752-5.54216,22.44809,22.44809,0,0,1-1.03886-7.0436,22.14037,22.14037,0,0,1,1.03886-7.01444,15.49153,15.49153,0,0,1,3.11752-5.513L69.90243,0a16.24714,16.24714,0,0,0-3.66659,5.71515,19.24435,19.24435,0,0,0-1.35663,7.24573,19.74758,19.74758,0,0,0,1.32845,7.21657A16.84862,16.84862,0,0,0,69.90243,25.92175Z"/><path class="cls-1" d="M87.59694,25.51748l.43245.40427a17.27783,17.27783,0,0,0,3.69478-5.7443,20.3742,20.3742,0,0,0,1.32845-7.21657A19.832,19.832,0,0,0,91.696,5.71515,16.6502,16.6502,0,0,0,88.02939,0l-.43245.40427a16.41081,16.41081,0,0,1,3.11753,5.513,22.11315,22.11315,0,0,1,1.03885,7.01444,22.42033,22.42033,0,0,1-1.03885,7.0436A16.838,16.838,0,0,1,87.59694,25.51748Z"/><path class="cls-1" d="M110.71117,17.40588h-1.64526l-1.03982,4.58981h-7.27391c-.05734-2.7706-.05734-5.513-.05734-7.90947V11.97936c0-2.79975,0-5.5995.05734-8.37107l2.9737-.31681V2.19335H94.80574V3.29148l2.94455.31681c.05831,2.74241.05831,5.57132.05831,8.40022v1.64526c0,2.68411,0,5.48386-.05831,8.28458l-2.94455.31681v1.09716h15.67414Z"/><polygon class="cls-1" points="117.259 14.115 127.506 14.115 127.506 11.431 117.259 11.431 117.259 5.427 128.112 5.427 128.112 2.742 114.112 2.742 114.112 23.352 117.259 23.352 117.259 14.115"/></g></svg>