<?xml version="1.0" encoding="UTF-8"?><svg id="_圖層_3" xmlns="http://www.w3.org/2000/svg" viewBox="0 0 773.61 120.68"><polygon points="37.28 70.33 37.28 63.8 37.28 57.27 37.28 50.74 43.81 50.74 43.81 44.21 37.28 44.21 37.28 37.68 30.75 37.68 30.75 44.21 30.75 50.74 30.75 57.27 30.75 63.8 30.75 70.33 30.75 76.86 37.28 76.86 37.28 70.33"/><polygon points="50.34 57.27 50.34 63.8 50.34 70.33 50.34 76.86 56.87 76.86 56.87 70.33 56.87 63.8 56.87 57.27 56.87 50.74 56.87 44.21 56.87 37.68 50.34 37.68 50.34 44.21 50.34 50.74 43.81 50.74 43.81 57.27 50.34 57.27"/><polygon points="74.98 62.23 97.13 62.23 97.13 56.81 74.98 56.81 74.98 44.68 98.53 44.68 98.53 39.27 68.63 39.27 68.63 80.88 99.52 80.88 99.52 75.46 74.98 75.46 74.98 62.23"/><path d="M129.06,65.03l9.03,.58v10.78c-2.86,.7-5.95,1.05-8.63,1.05-12.01,0-18.48-6.47-18.48-18.36s6.41-18.48,16.9-18.48c3.38,0,6.53,.35,9.67,1.4l.88,8.28h3.5v-11.31c-4.55-1.46-8.68-2.16-13.11-2.16-13.52,0-22.85,9.09-22.85,22.38s8.16,21.86,22.26,21.86c5.19,0,9.91-.64,14.45-1.98v-13.46l6.41-.58v-2.91h-20.05v2.91Z"/><path d="M160.93,70.16h17.89l3.9,10.72h6.82l-16.03-41.61h-7.23l-16.03,41.61h6.76l3.9-10.72Zm8.86-24.07h.23l6.88,18.83h-14.05l6.94-18.83Z"/><path d="M196.7,32.68c-4.31,8.63-6.47,17.66-6.47,27.22s2.16,18.59,6.47,27.22h2.97c-4.49-8.68-6.7-17.78-6.7-27.22s2.22-18.59,6.7-27.22h-2.97Z"/><polygon points="235.75 39.27 201.66 39.27 201.66 44.68 215.53 44.68 215.53 80.88 221.88 80.88 221.88 44.68 235.75 44.68 235.75 39.27"/><path d="M240.65,32.68h-2.97c4.43,8.63,6.7,17.72,6.7,27.22s-2.27,18.53-6.7,27.22h2.97c4.31-8.63,6.47-17.72,6.47-27.22s-2.16-18.59-6.47-27.22Z"/><rect x="252" y="39.27" width="6.29" height="41.61"/><path d="M311.24,56.92c0,.62,.58,1.08,1.38,1.08,1.27,0,2.05-1.08,2.05-2.07s-.74-1.92-2.4-1.92c-6.13,0-10.7,4.81-14.01,9.12-1.09-.5-2.1-.9-3.1-1.24,2.66-4.01,5.65-9.56,5.65-14.26,0-5.47-2.85-8.48-8.03-8.48-17.94,0-31.34,20.45-31.34,38.74,0,6.09,1.92,25.98,26.65,25.98,11.48,0,23.83-6.4,23.83-20.44,0-8-4.69-15.45-12.28-19.58,3.09-3.98,7.27-8.33,12.62-8.33,.12,0,.22,0,.31,.02-1.08,.47-1.33,1-1.33,1.4Zm-23.15,45.44c-15.75,0-25.15-9.16-25.15-24.5,0-17.57,12.76-37.21,29.83-37.21,4.21,0,6.53,2.48,6.53,6.98,0,4.16-3.76,9.32-7.12,13.42-5.8-1.34-12.29-1.23-18.75,.05l-.49,.1,.3,1.48,.49-.1c6.06-1.2,11.99-1.34,17.35-.23-1.43,1.69-2.87,3.33-4.12,4.74-5.84,6.59-8.8,11.55-8.8,14.74,0,.78,.29,2.1,2.25,2.1s4.79-2,6.05-3.06c3.25-2.71,5.53-6.06,7.73-9.29,.43-.63,.85-1.25,1.29-1.87l.61-.9c.85-1.25,1.73-2.53,2.64-3.76,7.22,3.82,11.69,10.83,11.69,18.38,0,13.01-11.57,18.94-22.33,18.94Zm6.48-34.02l-.57,.84c-2.56,3.83-5.58,8.08-8.48,10.51-1.62,1.35-3.89,2.73-5.11,2.73-.69,0-.75-.27-.75-.59,0-2.03,3.7-5.99,6.96-9.49,1.14-1.22,2.27-2.43,3.29-3.59,1.42-1.61,2.88-3.49,4.36-5.57,1.08,.35,2.11,.74,3.07,1.17-.96,1.31-1.88,2.67-2.77,4Z"/><polygon points="346.93 44.68 346.93 39.27 317.03 39.27 317.03 80.88 347.92 80.88 347.92 75.46 323.39 75.46 323.39 62.23 345.53 62.23 345.53 56.81 323.39 56.81 323.39 44.68 346.93 44.68"/></svg>