<svg xmlns="http://www.w3.org/2000/svg" viewBox="0 0 193.60775 43.45167"><defs><style>.cls-1{fill:#a9a9ff;}</style></defs><g id="font"><polygon class="cls-1" points="3.986 22.982 3.986 18.996 3.986 15.01 3.986 11.024 7.972 11.024 7.972 7.038 3.986 7.038 3.986 3.052 0 3.052 0 7.038 0 11.024 0 15.01 0 18.996 0 22.982 0 26.968 3.986 26.968 3.986 22.982"/><polygon class="cls-1" points="11.958 15.01 11.958 18.996 11.958 22.982 11.958 26.968 15.944 26.968 15.944 22.982 15.944 18.996 15.944 15.01 15.944 11.024 15.944 7.038 15.944 3.052 11.958 3.052 11.958 7.038 11.958 11.024 7.972 11.024 7.972 15.01 11.958 15.01"/><polygon class="cls-1" points="27.001 18.037 40.52 18.037 40.52 14.729 27.001 14.729 27.001 7.328 41.374 7.328 41.374 4.02 23.122 4.02 23.122 29.421 41.978 29.421 41.978 26.113 27.001 26.113 27.001 18.037"/><path class="cls-1" d="M60.01045,19.74477l5.5144.35573v6.58159a22.92429,22.92429,0,0,1-5.26527.64079c-7.329,0-11.27794-3.95015-11.27794-11.20727,0-6.97325,3.913-11.27793,10.31735-11.27793a18.25348,18.25348,0,0,1,5.90487.854l.53419,5.05207h2.13437V3.84116a25.50209,25.50209,0,0,0-8.0045-1.31632c-8.25364,0-13.94651,5.55033-13.94651,13.66144,0,8.468,4.98141,13.34164,13.59078,13.34164a30.75714,30.75714,0,0,0,8.82256-1.20972V20.1005l3.91422-.35573V17.96612H60.01045Z"/><path class="cls-1" d="M79.463,22.87567H90.38518l2.3835,6.54565h4.16215L87.14768,4.01962H82.7352l-9.78315,25.4017h4.12741Zm5.4078-14.6939h.14134l4.19808,11.49114H80.63676Z"/><path class="cls-1" d="M101.30019,0a36.92311,36.92311,0,0,0,0,33.22775h1.81458a35.77691,35.77691,0,0,1,0-33.22775Z"/><polygon class="cls-1" points="125.138 4.02 104.324 4.02 104.324 7.328 112.793 7.328 112.793 29.421 116.67 29.421 116.67 7.328 125.138 7.328 125.138 4.02"/><path class="cls-1" d="M128.126,0h-1.81457a35.77691,35.77691,0,0,1,0,33.22775H128.126A36.923,36.923,0,0,0,128.126,0Z"/><rect class="cls-1" x="135.05495" y="4.01962" width="3.84236" height="25.4017"/><path class="cls-1" d="M171.21836,14.7993c0,.38088.35334.65636.83962.65636a1.26066,1.26066,0,0,0,1.25044-1.26482c0-.5845-.45275-1.17378-1.46364-1.17378-3.74474,0-6.52949,2.93327-8.55367,5.56949a19.38107,19.38107,0,0,0-1.89-.75817c1.62474-2.447,3.4477-5.833,3.4477-8.704,0-3.33691-1.74092-5.17545-4.90236-5.17545-10.94795,0-19.12793,12.48406-19.12793,23.647,0,3.719,1.17319,15.8557,16.26773,15.8557,7.00679,0,14.54777-3.90464,14.54777-12.47807a13.77787,13.77787,0,0,0-7.49427-11.95346c1.887-2.429,4.44-5.08561,7.70507-5.08561a1.66911,1.66911,0,0,1,.18745.01078C171.37287,14.234,171.21836,14.55855,171.21836,14.7993ZM157.08621,42.5342c-9.61128,0-15.34906-5.58986-15.34906-14.9538,0-10.72219,7.78712-22.714,18.20926-22.714,2.56976,0,3.98489,1.51275,3.98489,4.258,0,2.53681-2.29427,5.69047-4.34361,8.19255a27.714,27.714,0,0,0-11.44682.02755l-.30183.05988.18146.9055.3-.05989a26.93087,26.93087,0,0,1,10.59342-.14133c-.87076,1.03365-1.7517,2.03376-2.51346,2.89254-3.56508,4.02082-5.37247,7.04751-5.37247,8.99863a1.19674,1.19674,0,0,0,1.37261,1.28039c1.16421,0,2.92668-1.2217,3.695-1.86728a26.3443,26.3443,0,0,0,4.7185-5.6737c.26111-.38328.521-.76416.78512-1.14265l.37369-.54736c.51982-.76177,1.05521-1.54629,1.60857-2.29368a12.84954,12.84954,0,0,1,7.135,11.21805C170.71651,38.917,163.651,42.5342,157.08621,42.5342Zm3.95554-20.764-.34555.51263a32.46426,32.46426,0,0,1-5.176,6.41631,6.79323,6.79323,0,0,1-3.11952,1.66366c-.421,0-.45514-.16409-.45514-.36292,0-1.23966,2.25715-3.6579,4.24839-5.79108.69289-.7426,1.38519-1.484,2.00562-2.19306a41.59645,41.59645,0,0,0,2.66018-3.40159,18.07728,18.07728,0,0,1,1.87267.71625C162.14367,20.13044,161.58433,20.96287,161.04175,21.77015Z"/><polygon class="cls-1" points="193.003 7.328 193.003 4.02 174.752 4.02 174.752 29.421 193.608 29.421 193.608 26.113 178.63 26.113 178.63 18.037 192.149 18.037 192.149 14.729 178.63 14.729 178.63 7.328 193.003 7.328"/></g></svg>