<svg xmlns="http://www.w3.org/2000/svg" viewBox="0 0 137.73633 26.27246"><defs><style>.cls-1{fill:#a9a9ff;}</style></defs><g id="font"><path class="cls-1" d="M3.87354.669,16.728,19.37012h.14111V.669h3.83838v25.1455H16.97461L3.97949,6.90234H3.83838V25.81445H0V.669Z"/><path class="cls-1" d="M33.59277,8.86914c5.30371,0,8.95362,3.707,8.95362,8.5127a8.6162,8.6162,0,0,1-8.89551,8.89062,8.58538,8.58538,0,0,1-8.98926-8.67676C24.66162,11.7666,29.32617,8.86914,33.59277,8.86914Zm-.31689,1.24219c-2.68359,0-5.00928,2.13183-5.00928,6.88965,0,4.64843,2.30322,8.03613,5.73633,8.03613,2.5874,0,4.93262-1.88965,4.93262-7.11133C38.93555,13.81348,37.02637,10.11133,33.27588,10.11133Z"/><path class="cls-1" d="M70.54053,22.22266c0,1.09179.03515,2.85254,0,3.06347s.03515.31739-.28174.3877-9.438.17578-12.74854.21094c-3.3457,0-9.71972-.14063-10.10742-.14063a.50231.50231,0,0,1-.56347-.35254c-.10547-.21094.03515-5.42285.10546-5.70508.0708-.24609.3877-.24609.81006-.3164.458-.07129,6.938-.03614,7.11426-.07129.21094-.07031.3169-.38672.3169-.59863,0-.21094-.21143-6.44434-.24659-7.88868a21.46894,21.46894,0,0,1,.07032-3.02832c0-.28125-.21143-.38769-.49317-.38769s-6.2334-.03516-6.55029-.07031c-.352-.07032-.88037-.17579-.95069-.35157A18.05794,18.05794,0,0,1,46.69873,4.79a16.11258,16.11258,0,0,1,.14063-3.16992c.17626-.31739.28173-.35254.56347-.35254.24658,0,4.47266-.03516,7.04346-.10547,2.53564-.07031,12.18506,0,16.34082-.07031,4.19092-.07032,8.24072-.07032,8.8042-.10547.52832-.03516.52832.03515.81006.35254.28174.3164,17.6792,16.19922,17.96093,16.34082.3169.14062.3169.03515.3169-.10645,0-.14062-.3169-9.50879-.3169-9.75488s-.03515-.3877-.21142-.3877H90.896c-.2461,0-.35205-.07031-.38721-.3164V1.47949c.03516-.35254.17627-.42285.458-.42285.24658,0,21.76416.03516,22.4331.10547.66944.03516.98633.24707,1.05664,1.05664.07032.77539.14112,4.12012.14112,4.4375a.494.494,0,0,1-.458.56348c-.14111,0-7.39551.17578-7.67725.17578-.24658,0-.38769-.03516-.31689.21191.03515.2461,0,17.291-.03565,17.57324a.64755.64755,0,0,1-.59863.63379c-.38721,0-22.8208.07032-23.208.07032a1.042,1.042,0,0,1-.81006-.28125c-.21142-.21192-19.123-17.32715-19.19336-17.39747s-.07031,0-.07031.17579c.03516.14062.10547,10.21289.07031,10.46,0,.28125,0,.38672.28174.38672.3169,0,7.60694.07031,7.81836.10546.21094.03614.24658.10645.24658.28223C70.64648,19.82715,70.54053,21.0957,70.54053,22.22266Z"/><path class="cls-1" d="M137.73633,18.94727l-.21094,6.86718H117.6626V24.47656l3.59228-.38769c.07032-3.38086.07032-6.76172.07032-10.21289V11.97363c0-3.45117,0-6.86718-.07032-10.248l-3.59228-.38672V0h19.123l.21143,6.79688h-1.90186l-1.02148-5.10645h-9.15625c-.07031,3.3457-.07031,6.72656-.07031,10.21289h5.81054l.56348-3.80273h1.585v9.08593h-1.585l-.52832-3.7334h-5.8457c0,3.80372,0,7.25489.07031,10.6709h9.896l1.02148-5.17675Z"/></g></svg>