<?xml version="1.0" encoding="UTF-8"?><svg id="_圖層_3" xmlns="http://www.w3.org/2000/svg" viewBox="0 0 773.61 120.68"><path d="M35.49,37.85l23.64,34.4h.26V37.85h7.06v46.25h-6.87l-23.9-34.78h-.26v34.78h-7.06V37.85h7.12Z"/><path d="M90.15,52.93c9.75,0,16.47,6.82,16.47,15.66,0,10.31-7.79,16.35-16.36,16.35-10.54,0-16.53-7.82-16.53-15.96,0-10.72,8.58-16.05,16.43-16.05Zm-.58,2.28c-4.94,0-9.21,3.92-9.21,12.67s4.24,14.78,10.55,14.78c4.76,0,9.07-3.48,9.07-13.08,0-7.56-3.51-14.37-10.41-14.37Z"/><path d="M158.1,77.49c0,2.01,.06,5.25,0,5.63s.06,.58-.52,.71-17.36,.32-23.45,.39c-6.15,0-17.88-.26-18.59-.26s-.84-.26-1.04-.65c-.19-.39,.06-9.97,.19-10.49,.13-.45,.71-.45,1.49-.58,.84-.13,12.76-.07,13.08-.13,.39-.13,.58-.71,.58-1.1s-.39-11.85-.45-14.51c-.13-2.59,.06-5.05,.13-5.57,0-.52-.39-.71-.91-.71s-11.46-.06-12.05-.13c-.65-.13-1.62-.32-1.75-.65-.13-.39-.45-2.53-.58-4.02-.13-1.49,.06-5.51,.26-5.83,.32-.58,.52-.65,1.04-.65,.45,0,8.23-.06,12.95-.19,4.66-.13,22.41,0,30.05-.13,7.71-.13,15.16-.13,16.19-.19,.97-.06,.97,.06,1.49,.65,.52,.58,32.52,29.79,33.03,30.05,.58,.26,.58,.06,.58-.2s-.58-17.49-.58-17.94-.06-.71-.39-.71h-13.34c-.45,0-.65-.13-.71-.58v-10.36c.06-.65,.32-.78,.84-.78,.45,0,40.03,.06,41.26,.19,1.23,.06,1.81,.45,1.94,1.94,.13,1.43,.26,7.58,.26,8.16s-.26,.97-.84,1.04c-.26,0-13.6,.32-14.12,.32-.45,0-.71-.06-.58,.39,.06,.45,0,31.8-.07,32.32-.06,.52-.39,1.17-1.1,1.17s-41.97,.13-42.69,.13-1.04-.13-1.49-.52c-.39-.39-35.17-31.87-35.3-32s-.13,0-.13,.32c.06,.26,.19,18.78,.13,19.24,0,.52,0,.71,.52,.71,.58,0,13.99,.13,14.38,.19,.39,.07,.45,.2,.45,.52,0,.39-.19,2.72-.19,4.79Z"/><path d="M281.69,71.47l-.39,12.63h-36.53v-2.46l6.61-.71c.13-6.22,.13-12.44,.13-18.78v-3.5c0-6.35,0-12.63-.13-18.85l-6.61-.71v-2.46h35.17l.39,12.5h-3.5l-1.88-9.39h-16.84c-.13,6.15-.13,12.37-.13,18.78h10.69l1.04-6.99h2.92v16.71h-2.92l-.97-6.87h-10.75c0,7,0,13.34,.13,19.63h18.2l1.88-9.52h3.5Z"/></svg>