<svg xmlns="http://www.w3.org/2000/svg" viewBox="0 0 304.15091 41.73171"><defs><style>.cls-1{fill:#a9a9ff;}</style></defs><g id="font"><polygon class="cls-1" points="17.041 22.271 16.899 22.271 3.914 3.38 0 3.38 0 28.782 3.878 28.782 3.878 9.677 4.021 9.677 17.148 28.782 20.92 28.782 20.92 3.38 17.041 3.38 17.041 22.271"/><path class="cls-1" d="M34.144,2.94165a7.0718,7.0718,0,0,0-3.27223-.72942,6.99423,6.99423,0,0,0-3.2363.72942,5.66092,5.66092,0,0,0-2.241,2.00981,5.42861,5.42861,0,0,0-.81806,2.98717,5.47982,5.47982,0,0,0,.81806,2.95243,5.68856,5.68856,0,0,0,2.241,2.06252,6.93471,6.93471,0,0,0,3.27223.74739,6.85229,6.85229,0,0,0,3.2363-.74739,5.53177,5.53177,0,0,0,3.0243-5.015A5.51078,5.51078,0,0,0,36.367,4.95146,5.53066,5.53066,0,0,0,34.144,2.94165ZM33.69966,10.606a3.93188,3.93188,0,0,1-2.82787,1.03246,3.9083,3.9083,0,0,1-2.8099-1.05042A3.54405,3.54405,0,0,1,26.96,7.9027a3.43363,3.43363,0,0,1,1.10192-2.64941A3.99225,3.99225,0,0,1,30.87179,4.24a3.97694,3.97694,0,0,1,2.82787,1.01328,3.50164,3.50164,0,0,1,1.08515,2.68534A3.51389,3.51389,0,0,1,33.69966,10.606Z"/><polygon class="cls-1" points="38.84 6.688 47.343 6.688 47.343 28.782 51.185 28.782 51.185 6.688 59.652 6.688 59.652 3.38 38.84 3.38 38.84 6.688"/><polygon class="cls-1" points="91.979 10.393 91.979 3.884 73.484 3.884 73.484 10.393 76.115 10.393 76.115 6.516 81.238 6.516 81.238 26.149 77.325 26.149 77.325 28.782 88.102 28.782 88.102 26.149 84.189 26.149 84.189 6.516 89.347 6.516 89.347 10.393 91.979 10.393"/><path class="cls-1" d="M126.039,6.85108a4.27558,4.27558,0,0,0,.7923-2.04814,1.07746,1.07746,0,0,0-1.20492-1.1127,5.14066,5.14066,0,0,0-2.24457.71984c-1.99065,1.06719-7.75538,6.21509-11.93789,11.5618l-.71326.36412c-1.0049.51383-1.9062.975-2.79073,1.399,1.73433-3.174,2.71707-6.17556,2.71707-8.33748,0-2.24816-1.28937-2.73325-2.38231-2.74043-.27128-1.65169-1.43669-2.556-3.31055-2.556-5.74377,0-11.59534,6.55883-11.59534,12.99549a8.58384,8.58384,0,0,0,.948,4.03759l.14014.2671.78572-.39526-.13714-.27428a8.03882,8.03882,0,0,1-.81926-3.63515c0-5.98272,5.38864-12.078,10.67787-12.078a2.10388,2.10388,0,0,1,2.39129,1.71157c-4.5634.71026-8.7525,6.4187-8.7525,8.84532,0,.55815.21739,1.49359,1.67564,1.49359,2.74942,0,7.98954-3.69264,8.065-9.4933.939.03713,1.396.6336,1.396,1.82176,0,1.87327-1.2732,4.91553-3.89206,9.29807-5.421,2.36314-14.4262,6.30012-14.4262,10.11612,0,.83363.60007,1.31153,1.6457,1.31153,5.46889,0,10.99347-5.92642,14.08963-11.03719,1.07018-.48987,2.10743-1.01448,3.11473-1.53071C108.3531,20.23944,106.393,23.68055,106.393,26.53c0,2.49849,1.19954,3.95973,3.38482,4.14179.88154,4.12981,3.80822,6.7852,7.511,6.7852,3.99387,0,6.1492-3.55968,6.1492-6.90977a9.78329,9.78329,0,0,0-2.27211-6.30731,10.12327,10.12327,0,0,0,2.3332-5.98751c0-2.835-1.73673-3.25785-2.77158-3.25785-2.68294,0-5.8294,1.73193-8.06259,4.42685a16.76563,16.76563,0,0,0-2.26613-.28866l-.106-.006q.80039-1.20554,1.80979-2.50328C117.46611,13.87823,123.87463,10.29339,126.039,6.85108Zm-.14074-2.04814a3.18813,3.18813,0,0,1-.59647,1.45526c-1.38519,2.332-5.2527,5.17065-11.80434,8.65967,4.134-4.894,8.98545-9.02139,10.44071-9.74961a4.25034,4.25034,0,0,1,1.70379-.57612C125.88624,4.59214,125.89821,4.6688,125.89821,4.80294ZM117.28885,36.5395c-3.47525,0-5.90667-2.89614-6.60854-5.86773,3.0746-.20961,7.19723-2.58114,9.89095-5.70006a8.84017,8.84017,0,0,1,1.94932,5.57549C122.52058,33.45173,120.68684,36.5395,117.28885,36.5395Zm2.6512-12.29721c-2.56077,3.02669-6.56542,5.391-9.41186,5.53357a8.76874,8.76874,0,0,1-.05329-.96419c0-2.40626,1.31571-5.34791,3.616-8.09194A13.57135,13.57135,0,0,1,119.94005,24.24229Zm.5809-.72583a14.47442,14.47442,0,0,0-5.7785-3.5537c2.18408-2.38351,4.65382-4.01962,6.10609-4.01962.74379,0,1.73313.23955,1.73313,2.30924A9.04306,9.04306,0,0,1,120.521,23.51646ZM92.33869,28.81167c0-3.10933,8.1165-6.808,12.55353-8.71716C101.9883,23.859,95.69,29.17459,92.76149,29.17459,92.371,29.17459,92.33869,29.00331,92.33869,28.81167Zm7.18166-13.23624c0-2.18827,3.91362-7.28227,7.9015-7.92905-.18744,3.64832-5.49344,8.504-7.38647,8.504A.50108.50108,0,0,1,99.52035,15.57543ZM110.36171,20.049c.6342.04072,1.17738.09941,1.672.18086a13.509,13.509,0,0,0-2.50748,7.91228,12.3017,12.3017,0,0,0,.09582,1.58221c-1.51454-.25272-2.28169-1.35584-2.28169-3.2854,0-1.823.93663-4.20168,2.73444-6.97924V20.031Z"/><path class="cls-1" d="M137.96426,9.78435c-2.1703,0-4.41128,1.88525-5.69166,5.08681l-.39167-4.69634-.53419-.35573-5.47847,2.13437v1.175l3.095.31979c.07187,1.56545.1066,2.9177.1066,5.12274v2.02778c0,1.81458-.03473,4.58975-.07066,6.54686l-2.84584.42639v1.20972h9.46336V27.572l-3.2375-.46233c-.03593-1.99184-.07186-4.69634-.07186-6.51092v-3.059a9.42569,9.42569,0,0,1,3.38-5.15867l.46232.42639a3.54493,3.54493,0,0,0,2.41944,1.10312c1.56545,0,2.20624-1.03125,2.20624-2.66857A3.08112,3.08112,0,0,0,137.96426,9.78435Z"/><polygon class="cls-1" points="143.652 28.782 156.994 28.782 156.994 25.508 147.352 25.508 147.352 17.219 156.46 17.219 156.46 13.981 147.352 13.981 147.352 6.013 156.994 6.013 156.994 2.739 143.652 2.739 143.652 28.782"/><path class="cls-1" d="M187.76277,0l-.533.49826a20.22639,20.22639,0,0,1,3.84236,6.79479,27.25436,27.25436,0,0,1,1.28038,8.6453,27.6436,27.6436,0,0,1-1.28038,8.68123,20.753,20.753,0,0,1-3.84236,6.83072l.533.49826a21.283,21.283,0,0,0,4.55381-7.07985,25.116,25.116,0,0,0,1.63731-8.89443,24.44755,24.44755,0,0,0-1.672-8.93036A20.52162,20.52162,0,0,0,187.76277,0Z"/><path class="cls-1" d="M160.83155,15.93835a27.2884,27.2884,0,0,1,1.28038-8.6453A19.09342,19.09342,0,0,1,165.95429.49826L165.42129,0a20.02475,20.02475,0,0,0-4.51908,7.04392,23.72321,23.72321,0,0,0-1.672,8.93036,24.34361,24.34361,0,0,0,1.63731,8.89443,20.75453,20.75453,0,0,0,4.55381,7.07985l.533-.49826a19.56781,19.56781,0,0,1-3.84236-6.83072A27.67834,27.67834,0,0,1,160.83155,15.93835Z"/><path class="cls-1" d="M188.93775,26.0425l-1.60138-.3198a3.143,3.143,0,0,1-2.27691-2.20624L177.65982,4.41128h-1.56545l-7.54218,19.17585c-.57013,1.31631-1.24565,2.02777-2.09964,2.1703l-2.205.28507v1.10312q2.13437-.1078,4.58854-.1066,2.13438,0,4.37655.1066V26.0425l-2.5979-.3198c-.56893-.07187-.85279-.28506-.85279-.60486a6.31279,6.31279,0,0,1,.60486-1.993l1.81338-4.66042h6.90258c.60486,1.63612,1.20972,3.20157,1.81458,4.767a6.08261,6.08261,0,0,1,.533,1.672c0,.4276-.35573.67673-1.03126.81926l-1.993.3198v1.10312c2.27691-.1066,4.16335-.14254,5.58627-.14254,1.56544,0,3.23749.03594,4.94547.14254Zm-16.18748-9.0717L175.632,9.49929q1.44089,3.843,2.88177,7.47151Z"/><polygon class="cls-1" points="215.718 3.38 194.906 3.38 194.906 6.688 203.409 6.688 203.409 28.782 207.251 28.782 207.251 6.688 215.718 6.688 215.718 3.38"/><rect class="cls-1" x="218.62138" y="24.94896" width="7.66555" height="3.83277"/><polygon class="cls-1" points="218.621 17.283 214.789 17.283 214.789 24.949 218.621 24.949 218.621 21.116 226.287 21.116 226.287 13.451 218.621 13.451 218.621 17.283"/><polygon class="cls-1" points="246.139 4.056 250.302 4.554 250.374 22.627 235.965 2.705 229.952 2.705 229.952 4.056 232.727 4.411 233.119 4.91 233.047 26.967 229.775 27.429 229.775 28.782 238.989 28.782 238.989 27.429 234.826 26.896 234.755 7.186 250.657 29.031 252.046 29.031 252.08 4.518 255.354 4.056 255.354 2.705 246.139 2.705 246.139 4.056"/><rect class="cls-1" x="259.43802" y="3.38003" width="3.84236" height="25.4017"/><polygon class="cls-1" points="281.492 28.995 281.492 3.842 283.343 3.593 283.343 2.17 276.868 2.17 276.868 3.593 279.82 3.842 279.856 22.698 271.247 2.17 266.194 2.17 266.194 3.629 268.258 3.842 268.329 4.021 268.329 27.11 266.194 27.359 266.194 28.782 273.096 28.782 273.096 27.359 270.001 27.11 269.966 7.934 278.825 28.995 281.492 28.995"/><path class="cls-1" d="M301.33981,13.66144a14.41331,14.41331,0,0,0-5.26527,1.38818,5.94712,5.94712,0,0,0-4.41128-1.74391c-2.9177,0-5.55034,1.63612-5.55034,4.44722a4.0882,4.0882,0,0,0,1.95711,3.38,8.59112,8.59112,0,0,0-2.241,5.44254c.14133,1.95711,1.672,2.74043,3.69982,2.562a8.222,8.222,0,0,0,4.767-2.5967l.03594.03473c-.57013.74739-2.41944,3.27343-2.98837,4.05675-2.8111,1.74272-3.66509,2.02778-6.83072,3.98369-2.24217,1.38818-5.33714,3.55849-5.5144,5.621-.1078,1.175.74619,1.49478,1.49358,1.49478,1.95711,0,5.58627-2.4901,8.39617-5.76353a54.36018,54.36018,0,0,0,4.41128-5.7276,33.783,33.783,0,0,0,4.16335-2.63264c.78213-.56892,1.70678-1.31631,2.13438-1.708.42639-.39166.533-.56892.46233-.64079-.1066-.1066-.28507.07187-.49826.24913-.81806.71146-1.56545,1.31632-2.49011,1.99305a28.36572,28.36572,0,0,1-3.38,2.1703v-.03593l2.09845-2.77517c.67672-.92465,1.139-1.56544,1.77984-2.34757.35573-.42759.2132-.57013-.46352-.57013-.533,0-1.13786.5342-1.70679,1.10312-2.02777,2.13438-3.94895,3.62916-5.83539,3.59323-1.10193-.03593-1.74272-.88872-1.63612-2.13438a9.8625,9.8625,0,0,1,1.88525-4.51788,10.64322,10.64322,0,0,0,3.20276.49826,15.64674,15.64674,0,0,0,6.72412-1.53071c2.41824-1.28039,4.41128-3.27223,4.41128-5.22934C304.15091,14.089,302.58546,13.66144,301.33981,13.66144Zm-13.8387,22.27081a19.65307,19.65307,0,0,1-4.55382,4.58974,4.02315,4.02315,0,0,1-2.20624.71146.81643.81643,0,0,1-.81806-.92465c-.03593-1.63732,2.66857-4.02082,4.55382-5.23054,3.27343-2.13438,4.41128-2.52484,6.475-3.87709C289.95528,32.69475,288.81742,34.18953,287.50111,35.93225Zm.78212-15.04843a3.87532,3.87532,0,0,1-1.81458-3.13089c0-2.562,2.41944-4.01962,4.94548-4.01962a5.9123,5.9123,0,0,1,4.05555,1.60018,24.0943,24.0943,0,0,0-4.01962,2.526A23.78338,23.78338,0,0,0,288.28323,20.88382Zm11.02881-.39166a13.29307,13.29307,0,0,1-6.33246,1.67205,10.23929,10.23929,0,0,1-2.95244-.4264,18.44727,18.44727,0,0,1,2.27691-2.77516,24.296,24.296,0,0,1,3.69982-3.06023,4.89179,4.89179,0,0,1,1.03126,1.77984c.2132.60486.17846.92466.28506.88872.07067,0,.14253-.31979,0-1.03125a5.90179,5.90179,0,0,0-.81806-1.92118,9.9683,9.9683,0,0,1,4.83768-1.56545c1.06719,0,2.38351.28506,2.38351,1.60138C303.72332,17.11213,301.553,19.31837,299.312,20.49216Z"/></g></svg>