<?xml version="1.0" encoding="UTF-8"?><svg id="_圖層_3" xmlns="http://www.w3.org/2000/svg" viewBox="0 0 773.61 120.68"><polygon points="55.24 71.29 55.02 71.29 34.82 41.9 28.73 41.9 28.73 81.42 34.76 81.42 34.76 51.69 34.99 51.69 55.41 81.42 61.28 81.42 61.28 41.9 55.24 41.9 55.24 71.29"/><path d="M81.85,41.21c-1.48-.76-3.17-1.13-5.09-1.13s-3.56,.38-5.04,1.13c-1.48,.76-2.64,1.8-3.49,3.13-.85,1.33-1.27,2.88-1.27,4.65s.42,3.23,1.27,4.59c.85,1.37,2.01,2.44,3.49,3.21,1.48,.78,3.17,1.16,5.09,1.16s3.56-.39,5.04-1.16c1.48-.77,2.63-1.84,3.46-3.21,.83-1.36,1.25-2.9,1.25-4.59s-.42-3.32-1.25-4.65c-.83-1.33-1.98-2.37-3.46-3.13Zm-.69,11.92c-1.13,1.07-2.59,1.61-4.4,1.61s-3.23-.54-4.37-1.63c-1.14-1.09-1.71-2.48-1.71-4.18s.57-3.07,1.71-4.12c1.14-1.05,2.6-1.58,4.37-1.58s3.27,.53,4.4,1.58c1.13,1.05,1.69,2.44,1.69,4.18s-.56,3.08-1.69,4.15Z"/><polygon points="89.16 47.04 102.39 47.04 102.39 81.42 108.36 81.42 108.36 47.04 121.54 47.04 121.54 41.9 89.16 41.9 89.16 47.04"/><polygon points="171.83 52.81 171.83 42.68 143.06 42.68 143.06 52.81 147.15 52.81 147.15 46.78 155.12 46.78 155.12 77.32 149.03 77.32 149.03 81.42 165.8 81.42 165.8 77.32 159.71 77.32 159.71 46.78 167.74 46.78 167.74 52.81 171.83 52.81"/><path d="M224.82,47.3c.82-1.31,1.23-2.39,1.23-3.19,0-1.07-.72-1.73-1.87-1.73-.91,0-2.12,.39-3.49,1.12-3.1,1.66-12.07,9.67-18.57,17.99l-1.11,.57c-1.56,.8-2.97,1.52-4.34,2.18,2.7-4.94,4.23-9.61,4.23-12.97s-2.01-4.25-3.71-4.26c-.42-2.57-2.24-3.98-5.15-3.98-8.94,0-18.04,10.2-18.04,20.22,0,2.31,.5,4.42,1.47,6.28l.22,.42,1.22-.61-.21-.43c-.85-1.69-1.27-3.59-1.27-5.66,0-9.31,8.38-18.79,16.61-18.79,2.13,0,3.38,.89,3.72,2.66-7.1,1.11-13.62,9.99-13.62,13.76,0,.87,.34,2.32,2.61,2.32,4.28,0,12.43-5.75,12.55-14.77,1.46,.06,2.17,.99,2.17,2.83,0,2.91-1.98,7.65-6.06,14.47-8.43,3.68-22.44,9.8-22.44,15.74,0,1.3,.93,2.04,2.56,2.04,8.51,0,17.1-9.22,21.92-17.17,1.66-.76,3.28-1.58,4.85-2.38-2.98,4.18-6.03,9.53-6.03,13.96,0,3.89,1.87,6.16,5.27,6.44,1.37,6.43,5.92,10.56,11.69,10.56,6.21,0,9.57-5.54,9.57-10.75,0-3.62-1.19-6.92-3.53-9.81,2.38-3.13,3.63-6.34,3.63-9.32,0-4.41-2.7-5.07-4.31-5.07-4.17,0-9.07,2.69-12.54,6.89-1.17-.23-2.36-.38-3.53-.45h-.16c.83-1.26,1.77-2.56,2.82-3.9,8.34-4.27,18.31-9.85,21.68-15.2Zm-.22-3.19c0,.27-.12,.93-.93,2.26-2.16,3.63-8.17,8.04-18.37,13.47,6.43-7.61,13.98-14.04,16.24-15.17,1.48-.74,2.26-.9,2.65-.9s.4,.12,.4,.33Zm-13.39,49.38c-5.41,0-9.19-4.51-10.28-9.13,4.78-.33,11.2-4.02,15.39-8.87,2.01,2.57,3.03,5.48,3.03,8.67,0,4.52-2.85,9.32-8.14,9.32Zm4.12-19.13c-3.98,4.71-10.21,8.39-14.64,8.61-.05-.5-.08-1-.08-1.5,0-3.74,2.05-8.32,5.63-12.59,3.61,1.12,6.82,3.05,9.1,5.48Zm.9-1.13c-2.33-2.41-5.41-4.31-8.99-5.53,3.4-3.71,7.24-6.25,9.5-6.25,1.16,0,2.7,.37,2.7,3.59,0,2.56-1.11,5.38-3.21,8.19Zm-43.85,8.24c0-4.84,12.63-10.59,19.53-13.56-4.52,5.86-14.32,14.13-18.87,14.13-.61,0-.66-.27-.66-.56Zm11.17-20.59c0-3.4,6.09-11.33,12.29-12.34-.29,5.68-8.55,13.23-11.49,13.23-.7,0-.8-.56-.8-.89Zm16.87,6.96c.99,.06,1.83,.15,2.6,.28-2.55,3.58-3.9,7.82-3.9,12.31,0,.88,.05,1.69,.15,2.46-2.36-.39-3.55-2.11-3.55-5.11,0-2.84,1.46-6.54,4.25-10.86v.89l.45,.03Z"/><path d="M243.38,51.86c-3.38,0-6.86,2.93-8.86,7.91l-.61-7.31-.83-.55-8.52,3.32v1.83l4.82,.5c.11,2.44,.17,4.54,.17,7.97v3.15c0,2.82-.05,7.14-.11,10.19l-4.43,.66v1.88h14.72v-1.88l-5.04-.72c-.06-3.1-.11-7.31-.11-10.13v-4.76c1.16-3.71,2.77-6.2,5.26-8.03l.72,.66c1.16,1.05,2.33,1.72,3.76,1.72,2.44,0,3.43-1.6,3.43-4.15-.72-1.44-2.49-2.27-4.37-2.27Z"/><polygon points="252.23 81.42 272.98 81.42 272.98 76.32 257.98 76.32 257.98 63.43 272.15 63.43 272.15 58.39 257.98 58.39 257.98 45.99 272.98 45.99 272.98 40.9 252.23 40.9 252.23 81.42"/><path d="M320.85,36.64l-.83,.78c2.6,2.99,4.59,6.53,5.98,10.57,1.33,3.99,1.99,8.47,1.99,13.45s-.66,9.46-1.99,13.51c-1.38,4.04-3.38,7.58-5.98,10.63l.83,.78c2.99-2.99,5.31-6.7,7.08-11.01,1.66-4.43,2.55-9.02,2.55-13.84s-.89-9.46-2.6-13.89c-1.72-4.32-4.04-7.97-7.03-10.96Z"/><path d="M278.95,61.43c0-4.98,.67-9.46,1.99-13.45,1.33-4.04,3.32-7.58,5.98-10.57l-.83-.78c-2.99,2.99-5.37,6.64-7.03,10.96-1.77,4.43-2.6,9.02-2.6,13.89s.83,9.41,2.55,13.84c1.72,4.32,4.1,8.03,7.08,11.01l.83-.78c-2.66-3.04-4.65-6.59-5.98-10.63-1.33-4.04-1.99-8.53-1.99-13.51Z"/><path d="M322.68,77.16l-2.49-.5c-1.6-.33-2.77-1.44-3.54-3.43l-11.51-29.72h-2.44l-11.73,29.83c-.89,2.05-1.94,3.15-3.27,3.38l-3.43,.44v1.72c2.21-.11,4.59-.17,7.14-.17,2.21,0,4.48,.05,6.81,.17v-1.72l-4.04-.5c-.89-.11-1.33-.44-1.33-.94s.28-1.55,.94-3.1l2.82-7.25h10.74c.94,2.55,1.88,4.98,2.82,7.42,.55,1.33,.83,2.21,.83,2.6,0,.67-.55,1.05-1.6,1.27l-3.1,.5v1.72c3.54-.17,6.48-.22,8.69-.22,2.44,0,5.04,.06,7.69,.22v-1.72Zm-25.18-14.11l4.48-11.62c1.49,3.99,2.99,7.86,4.48,11.62h-8.97Z"/><polygon points="364.35 41.9 331.97 41.9 331.97 47.04 345.19 47.04 345.19 81.42 351.17 81.42 351.17 47.04 364.35 47.04 364.35 41.9"/><rect x="368.86" y="75.45" width="11.93" height="5.96"/><polygon points="368.86 63.53 362.9 63.53 362.9 75.45 368.86 75.45 368.86 69.49 380.79 69.49 380.79 57.56 368.86 57.56 368.86 63.53"/><polygon points="411.68 42.95 418.15 43.72 418.26 71.84 395.85 40.85 386.49 40.85 386.49 42.95 390.81 43.5 391.42 44.28 391.31 78.59 386.21 79.31 386.21 81.42 400.55 81.42 400.55 79.31 394.07 78.48 393.96 47.82 418.7 81.8 420.86 81.8 420.92 43.67 426.01 42.95 426.01 40.85 411.68 40.85 411.68 42.95"/><rect x="432.37" y="41.9" width="5.98" height="39.52"/><polygon points="466.68 81.75 466.68 42.62 469.56 42.23 469.56 40.01 459.48 40.01 459.48 42.23 464.08 42.62 464.13 71.95 450.74 40.01 442.88 40.01 442.88 42.28 446.09 42.62 446.2 42.89 446.2 78.82 442.88 79.2 442.88 81.42 453.61 81.42 453.61 79.2 448.8 78.82 448.74 48.98 462.53 81.75 466.68 81.75"/><path d="M497.56,57.89c-1.94,0-4.93,.72-8.19,2.16-1.83-1.94-4.37-2.71-6.86-2.71-4.54,0-8.64,2.55-8.64,6.92,0,2.21,1.27,4.1,3.04,5.26-2.38,2.93-3.65,6.14-3.49,8.47,.22,3.04,2.6,4.26,5.76,3.99,2.38-.17,5.15-1.77,7.42-4.04l.06,.05c-.89,1.16-3.76,5.09-4.65,6.31-4.37,2.71-5.7,3.15-10.63,6.2-3.49,2.16-8.3,5.54-8.58,8.75-.17,1.83,1.16,2.33,2.32,2.33,3.04,0,8.69-3.87,13.06-8.97,3.54-4.15,4.21-5.09,6.86-8.91,1.83-1,4.21-2.38,6.48-4.1,1.22-.89,2.66-2.05,3.32-2.66,.66-.61,.83-.89,.72-1-.17-.17-.44,.11-.78,.39-1.27,1.11-2.44,2.05-3.87,3.1-1.99,1.49-3.93,2.66-5.26,3.38v-.06l3.26-4.32c1.05-1.44,1.77-2.44,2.77-3.65,.55-.67,.33-.89-.72-.89-.83,0-1.77,.83-2.66,1.72-3.15,3.32-6.14,5.65-9.08,5.59-1.71-.06-2.71-1.38-2.55-3.32,.22-2.33,1.33-4.71,2.93-7.03,1.27,.44,3.21,.78,4.98,.78,3.15,0,7.19-.72,10.46-2.38,3.76-1.99,6.86-5.09,6.86-8.14,0-2.55-2.44-3.21-4.37-3.21Zm-21.53,34.65c-2.44,3.27-5.2,5.98-7.08,7.14-1.38,.83-2.55,1.16-3.43,1.11-.78-.06-1.27-.5-1.27-1.44-.06-2.55,4.15-6.26,7.08-8.14,5.09-3.32,6.86-3.93,10.07-6.03-1.55,2.32-3.32,4.65-5.37,7.36Zm1.22-23.41c-1.6-1.11-2.82-2.82-2.82-4.87,0-3.99,3.76-6.25,7.69-6.25,2.33,0,4.48,.83,6.31,2.49-2.05,1-4.15,2.33-6.25,3.93-1.83,1.38-3.82,3.43-4.93,4.71Zm17.16-.61c-3.38,1.83-6.75,2.6-9.85,2.6-1.55,0-3.15-.22-4.59-.66,1-1.49,2.21-2.99,3.54-4.32,1.99-1.99,3.93-3.54,5.76-4.76,.66,.72,1.27,1.72,1.6,2.77,.33,.94,.28,1.44,.44,1.38,.11,0,.22-.5,0-1.6-.17-.83-.67-2.1-1.27-2.99,2.93-1.72,5.53-2.44,7.53-2.44,1.66,0,3.71,.44,3.71,2.49,0,2.27-3.38,5.7-6.86,7.53Z"/></svg>