<?xml version="1.0" encoding="UTF-8"?><svg id="_圖層_3" xmlns="http://www.w3.org/2000/svg" viewBox="0 0 773.61 120.68"><rect x="486.7" y="75.26" width="4.56" height="4.56"/><g><path d="M48.47,74.98c-1.35,.76-3.18,1.19-5.46,1.19-2.54,0-4.41-.46-5.64-1.4-1.35-1.02-2.2-2.75-2.54-5.13h-4.58c.25,3.81,1.61,6.61,4.11,8.39,2.08,1.44,4.96,2.2,8.64,2.2s6.78-.76,8.9-2.29c2.12-1.57,3.18-3.69,3.18-6.4s-1.31-4.96-3.9-6.53c-1.19-.72-3.86-1.69-7.92-2.97-2.84-.85-4.58-1.48-5.25-1.86-1.53-.8-2.25-1.86-2.25-3.22,0-1.52,.64-2.63,1.95-3.3,1.06-.59,2.58-.89,4.58-.89,2.29,0,3.98,.42,5.17,1.31,1.19,.85,1.95,2.29,2.37,4.24h4.58c-.3-3.3-1.48-5.72-3.6-7.29-1.99-1.52-4.75-2.25-8.26-2.25-3.22,0-5.89,.72-8.01,2.16-2.25,1.52-3.35,3.6-3.35,6.27s1.14,4.66,3.47,6.06c.93,.51,3.22,1.31,6.95,2.5,3.35,1.02,5.34,1.69,6.01,2.03,1.91,.97,2.88,2.29,2.88,3.98,0,1.35-.68,2.41-2.03,3.18Z"/><path d="M56.08,79.17l.08,1.48h.35c3.12-.02,6.88-1.57,10.93-4.49,.92,3.7,3.01,6.92,6.2,9.57l.3,.25,.69-.92-.27-.22c-3.14-2.62-5.13-5.79-5.91-9.41,10.19-7.82,19.42-21.67,19.42-29.18,0-2.16-1.32-2.48-2.1-2.48-5.78,0-18.87,14.25-18.87,27.8,0,.78,.03,1.39,.09,1.98-4.49,3.48-8.33,5.52-10.53,5.62l-.37,.02Zm11.99-6.52c-.01-.36-.02-.72-.02-1.09,0-12.99,12.29-26.65,17.71-26.65,.23,0,.95,0,.95,1.33,0,7.5-9.29,18.85-18.64,26.41Z"/><path d="M100.59,56.89h.17l15.63,22.75h4.49v-30.25h-4.62v22.5h-.17l-15.46-22.5h-4.66v16.6l-1.08-.67-1.09,1.63h-.18c-5.22,0-15.69,3.7-15.69,12.03,0,.94,.33,1.48,1.01,1.48,1.78,0,5.73-3.26,7.21-4.64,1.14-1.07,3.62-3.62,5.31-5.36l-3.28,5c-4.75,7.21-10.87,13.77-20.19,13.77-2.54,0-5.44-.94-7.83-3.08l-.22,.29c2.79,2.5,6.56,3.55,10.91,3.55,6.88,0,11.27-4.98,14.68-9.89,1.07-1.56,2.1-3.04,3.01-4.42,2.87-4.33,4.91-7.4,7.42-8.85v12.8h4.62v-22.75Zm-8.03,11.95c-1.14,1.2-5.07,5.25-6.61,6.7-1.38,1.31-5.33,4.57-6.99,4.57-.44,0-.65-.51-.65-1.12,0-4.68,10.22-11.78,15.35-11.78l-1.09,1.63Z"/><rect x="126.93" y="49.39" width="4.58" height="30.25"/><path d="M143.29,53.52c.16-.19,.52-.29,1.09-.29h5.81c2.36,0,3.94,.26,4.74,.77,.8,.51,1.35,1.74,1.63,3.67h1.18l-.14-6.06h-22.56v.79c1.57,.11,2.58,.4,3.04,.86s.68,1.44,.68,2.95v18.34c0,1.83-.2,2.95-.61,3.39s-1.44,.74-3.11,.92v.79h11.85v-.79c-1.6-.12-2.64-.4-3.11-.83-.48-.43-.71-1.42-.71-2.97v-9.27h6.14c1.79,0,2.94,.27,3.43,.8s.9,1.62,1.22,3.26h.99v-9.78h-.99c-.3,1.63-.7,2.72-1.2,3.25s-1.65,.8-3.45,.8h-6.14v-9.45c0-.56,.08-.94,.24-1.14Z"/><rect x="161.16" y="49.39" width="4.58" height="30.25"/><path d="M216.84,49.83l.85-.29c.44-1.27,1.01-2.7,1.71-4.32,.69-1.61,1.27-2.8,1.71-3.56,0-.51-.25-.89-.76-1.14-2.03-1.2-4.22-2.04-6.6-2.52-2.37-.47-4.7-.71-6.98-.71-3.04,0-5.95,.52-8.73,1.57-2.79,1.05-5.32,2.45-7.6,4.22-1.84,1.39-3.66,3.1-5.46,5.13-1.8,2.03-3.43,4.21-4.89,6.55-1.46,2.34-2.64,4.78-3.56,7.31-.92,2.53-1.38,5-1.38,7.41,0,2.15,.38,3.94,1.14,5.36,.76,1.42,1.79,2.56,3.09,3.42,1.3,.85,2.78,1.45,4.46,1.8,1.68,.35,3.43,.52,5.27,.52,5.7,0,10.93-1.25,15.71-3.75,4.78-2.5,8.62-5.93,11.53-10.3,.19-.32,.36-.65,.52-1,.16-.35,.24-.77,.24-1.28,0-.89-.13-1.33-.38-1.33-.13,0-.29,.13-.47,.38-3.93,5.38-8.07,9.48-12.44,12.29-4.37,2.82-9.21,4.22-14.53,4.22-1.27,0-2.5-.11-3.7-.33s-2.26-.62-3.18-1.19c-.92-.57-1.66-1.36-2.23-2.37-.57-1.01-.85-2.31-.85-3.89,0-2.91,.58-5.9,1.76-8.97,1.17-3.07,2.64-5.98,4.41-8.73,1.77-2.75,3.65-5.24,5.65-7.45,1.99-2.22,3.78-3.89,5.36-5.03,1.39-1.01,2.88-1.88,4.46-2.61,1.58-.73,3.29-1.09,5.13-1.09,2.28,0,4.13,.25,5.55,.76s2.56,1.17,3.42,1.99c.85,.82,1.44,1.74,1.76,2.75s.47,1.99,.47,2.94c0,.51-.05,1.09-.14,1.76-.09,.66-.21,1.16-.33,1.47Z"/><path d="M229.08,49.39l-11.65,30.25h4.92l2.84-7.79h13.01l2.84,7.79h4.96l-11.65-30.25h-5.25Zm-2.5,18.64l5.04-13.68h.17l5,13.68h-10.21Z"/><path d="M271.38,62.06v18.31h4.6v-18.39c0-4.16-1.1-7.4-3.26-9.62-2.17-2.23-5.15-3.35-8.87-3.35-2.75,0-5.15,.6-7.13,1.8-.81,.49-1.54,1.1-2.18,1.82v-3.36h-4.47v31.11h4.6v-17.59c0-3.28,.78-5.72,2.3-7.23,1.55-1.54,3.61-2.29,6.28-2.29s4.56,.73,5.98,2.17c1.42,1.45,2.14,3.68,2.14,6.63Z"/><polygon points="281.38 53.33 291.51 53.33 291.51 79.64 296.08 79.64 296.08 53.33 306.17 53.33 306.17 49.39 281.38 49.39 281.38 53.33"/><path d="M352.16,70.32c.76-1.89,1.14-3.83,1.14-5.8,0-2.26-.42-4.35-1.25-6.27-.83-1.92-1.94-3.59-3.32-5-1.38-1.41-2.96-2.52-4.72-3.32-1.76-.8-3.58-1.21-5.44-1.21-1.75,0-3.5,.4-5.25,1.21-1.75,.8-3.32,1.91-4.72,3.32-1.4,1.41-2.54,3.08-3.43,5-.89,1.92-1.34,4.01-1.34,6.27,0,2.03,.37,4,1.1,5.91,.73,1.91,1.76,3.59,3.07,5.04,1.31,1.45,2.87,2.62,4.68,3.49,1.81,.87,3.77,1.31,5.89,1.31s3.99-.45,5.78-1.35c1.79-.9,3.35-2.09,4.68-3.56,1.33-1.47,2.37-3.15,3.14-5.04Zm-4.24,.85c-.34,1.89-.9,3.47-1.69,4.74-.79,1.27-1.82,2.22-3.07,2.84-1.26,.62-2.79,.93-4.6,.93s-3.37-.31-4.62-.93c-1.24-.62-2.26-1.57-3.05-2.84-.79-1.27-1.36-2.85-1.69-4.74-.34-1.89-.51-4.11-.51-6.65,0-1.95,.13-3.83,.38-5.66,.25-1.82,.74-3.44,1.46-4.87,.72-1.42,1.72-2.56,3.01-3.41,1.28-.85,2.96-1.27,5.02-1.27s3.73,.42,5.02,1.27c1.28,.85,2.29,1.98,3.01,3.41,.72,1.43,1.21,3.05,1.46,4.87,.26,1.82,.38,3.71,.38,5.66,0,2.54-.17,4.76-.51,6.65Z"/><path d="M390.67,45.37l-.63,.59c1.99,2.29,3.52,5,4.58,8.09,1.02,3.05,1.52,6.48,1.52,10.3s-.51,7.24-1.52,10.34c-1.06,3.09-2.58,5.8-4.58,8.13l.63,.59c2.29-2.29,4.07-5.13,5.42-8.43,1.27-3.39,1.95-6.91,1.95-10.59s-.68-7.24-1.99-10.63c-1.31-3.3-3.09-6.1-5.38-8.39Z"/><path d="M384.86,52.95c1.14,0,1.99,.21,2.5,.68,.42,.38,.8,1.19,1.23,2.37,.38,1.19,.76,1.78,1.1,1.78,.42,0,.68-.34,.68-.93,.09-3.81,.13-6.02,.13-6.53,0-.8-.21-1.19-.64-1.19-.25,0-.55,.34-.97,1.02-.42,.68-1.23,1.02-2.33,1.02h-16.82c-.97,0-1.69-.38-2.16-1.14-.38-.59-.72-.85-1.02-.85-.38,0-.68,.51-.89,1.53l-1.14,5.04c-.17,.59-.21,1.02-.21,1.31,0,.47,.17,.72,.55,.72,.34,0,.81-.47,1.4-1.35,.64-1.06,1.31-1.86,1.99-2.41,.76-.72,1.61-1.06,2.54-1.06h4.74v20.67c0,.64-.17,1.14-.42,1.48-.34,.34-.8,.59-1.44,.72l-2.75,.55v1.31c2.88-.17,5.13-.21,6.74-.21,1.53,0,3.77,.04,6.74,.21v-1.31l-2.8-.59c-.55-.13-.93-.38-1.19-.72s-.38-.8-.38-1.44v-20.67h4.83Z"/><path d="M364.7,45.96l-.63-.59c-2.29,2.29-4.11,5.08-5.38,8.39-1.35,3.39-1.99,6.91-1.99,10.63s.64,7.2,1.95,10.59c1.31,3.3,3.14,6.14,5.42,8.43l.63-.59c-2.03-2.33-3.56-5.04-4.58-8.13-1.02-3.09-1.52-6.53-1.52-10.34s.51-7.24,1.52-10.3c1.02-3.09,2.54-5.8,4.58-8.09Z"/><polygon points="426.58 79.64 426.58 49.39 421.97 49.39 421.97 62.14 406.12 62.14 406.12 49.39 401.5 49.39 401.5 79.64 406.12 79.64 406.12 66.08 421.97 66.08 421.97 79.64 426.58 79.64"/><path d="M459.88,46.13c-4.96,0-18.3,11.31-18.3,18.73,0,2.08,.97,3.98,3.47,5.17,.3,.13,.47,.21,.47,.34,0,.34-1.31,.85-2.97,1.48-8.05,3.14-17.88,9.62-17.88,19.02,0,5.04,2.03,7.46,3.98,7.46,5.08,0,21.35-17.12,29.78-26.18l-.26-.26c-8.64,9.41-23.81,24.7-28.81,24.7-1.86,0-4.15-1.95-4.15-6.18,0-8.22,11.61-15.12,18.05-17.75,1.91-.76,2.58-1.74,2.58-2.29,0-.25-.26-.47-.59-.68-2.12-1.27-3.05-2.67-3.05-4.53,0-6.78,14.57-18.22,18.43-18.22,.97,0,1.36,.59,1.36,1.27,0,2.75-5.04,7.41-6.65,9.07l.25,.25c2.67-2.29,6.74-5.34,6.74-8.77,0-1.74-1.27-2.63-2.46-2.63Z"/><polygon points="486.7 66.13 486.7 61.57 468.44 61.57 468.44 52.44 486.7 52.44 486.7 47.87 463.88 47.87 463.88 79.82 468.44 79.82 468.44 66.13 477.57 66.13 477.57 70.7 482.14 70.7 482.14 66.13 486.7 66.13"/><rect x="482.14" y="70.7" width="4.56" height="4.56"/><rect x="486.7" y="52.44" width="4.56" height="9.13"/></g></svg>