<svg xmlns="http://www.w3.org/2000/svg" viewBox="0 0 387.13764 51.24537"><defs><style>.cls-1{fill:#a9a9ff;}</style></defs><g id="font"><rect class="cls-1" x="383.30486" y="31.8767" width="3.83277" height="3.83277"/><path class="cls-1" d="M15.29756,31.64314a9.34615,9.34615,0,0,1-4.58855.99532,7.78391,7.78391,0,0,1-4.73228-1.17379A6.24377,6.24377,0,0,1,3.84236,27.16H0c.2132,3.20156,1.35225,5.55033,3.45069,7.04392A12.57971,12.57971,0,0,0,10.709,36.05442q4.80234,0,7.47031-1.92118a6.31162,6.31162,0,0,0,2.66857-5.37187,6.12118,6.12118,0,0,0-3.27343-5.47967,37.93162,37.93162,0,0,0-6.65225-2.4901,27.96727,27.96727,0,0,1-4.41129-1.56545,2.98507,2.98507,0,0,1-1.88644-2.7033,2.88418,2.88418,0,0,1,1.63731-2.77517,7.98763,7.98763,0,0,1,3.84236-.74739,7.10585,7.10585,0,0,1,4.34061,1.10312,5.63375,5.63375,0,0,1,1.99185,3.55729H20.279a8.04257,8.04257,0,0,0-3.02429-6.11926,11.16621,11.16621,0,0,0-6.93732-1.88525,11.69841,11.69841,0,0,0-6.72413,1.81458A6.00892,6.00892,0,0,0,.78332,16.736a5.60208,5.60208,0,0,0,2.9165,5.088,45.56415,45.56415,0,0,0,5.8354,2.09844,47.43824,47.43824,0,0,1,5.05088,1.708c1.60138.81806,2.41944,1.92118,2.41944,3.3441A2.95159,2.95159,0,0,1,15.29756,31.64314Z"/><path class="cls-1" d="M21.6923,35.15731l.06947,1.24086.29165-.0024c2.61587-.01676,5.7809-1.31751,9.1747-3.76689a15.08153,15.08153,0,0,0,5.20658,8.03445l.24793.206.58091-.77494-.22338-.18685a14.02226,14.02226,0,0,1-4.95925-7.90509c8.55307-6.566,16.30546-18.19849,16.30546-24.501,0-1.81458-1.10552-2.08527-1.76428-2.08527-4.85025,0-15.84492,11.96544-15.84492,23.34877a16.11679,16.11679,0,0,0,.07186,1.65887c-3.77348,2.9201-6.99241,4.63886-8.84652,4.71911Zm10.07241-5.47488c-.01258-.29824-.01857-.60486-.01857-.91747,0-10.91142,10.32214-22.3798,14.876-22.3798.19643,0,.7953,0,.7953,1.1163C47.41739,13.80277,39.6195,23.3344,31.76471,29.68243Z"/><path class="cls-1" d="M59.06783,16.451h.14253L72.3376,35.55616h3.77169V10.15445H72.231V29.04523h-.14254L59.10376,10.15445H55.18954V24.09721l-.9043-.56039-.91268,1.369h-.15211c-4.38254,0-13.17635,3.10335-13.17635,10.10295,0,.79051.27308,1.24685.85159,1.24685,1.49119,0,4.80773-2.738,6.05578-3.89506.95819-.89711,3.04346-3.04226,4.458-4.50351l-2.75361,4.19929c-3.98728,6.05578-9.12919,11.56419-16.95044,11.56419a9.985,9.985,0,0,1-6.572-2.58712l-.18325.24314c2.34278,2.09964,5.50841,2.98238,9.16032,2.98238,5.7815,0,9.46336-4.18371,12.32357-8.30754.8983-1.30793,1.76547-2.556,2.526-3.7118,2.414-3.63514,4.12458-6.217,6.22946-7.43124V35.55616h3.87829ZM52.32214,26.48806c-.95819,1.0037-4.26036,4.41248-5.55392,5.62938-1.15582,1.09593-4.47237,3.834-5.87253,3.834-.36531,0-.54737-.4252-.54737-.94262,0-3.9262,8.58062-9.88975,12.8865-9.88975Z"/><rect class="cls-1" x="81.19011" y="10.15445" width="3.84236" height="25.4017"/><path class="cls-1" d="M94.92941,13.62072c.13295-.1617.43837-.242.91387-.242h4.87721a8.18285,8.18285,0,0,1,3.9765.648q1.0079.64859,1.37261,3.08538h.98934l-.121-5.0892H87.99089v.66115a4.22422,4.22422,0,0,1,2.55239.71985,3.70447,3.70447,0,0,1,.57372,2.47573V31.28381q0,2.29967-.51264,2.84344a4.68233,4.68233,0,0,1-2.61347.769v.66h9.95084v-.66a4.77175,4.77175,0,0,1-2.61348-.69948,3.53218,3.53218,0,0,1-.59887-2.49609V23.9201h5.15748q2.25834,0,2.883.66834a5.90338,5.90338,0,0,1,1.02407,2.73564h.83363V19.10877h-.83363a5.82172,5.82172,0,0,1-1.0061,2.73085q-.62521.67373-2.90093.67313H94.72938V14.57652A1.59527,1.59527,0,0,1,94.92941,13.62072Z"/><rect class="cls-1" x="109.93352" y="10.15445" width="3.84236" height="25.4017"/><path class="cls-1" d="M156.68616,10.52336l.71745-.23955q.557-1.5936,1.43609-3.62676a29.48969,29.48969,0,0,1,1.4349-2.98957,1.02307,1.02307,0,0,0-.6384-.957A17.52212,17.52212,0,0,0,154.09545.59767,29.9002,29.9002,0,0,0,148.2361,0a20.71488,20.71488,0,0,0-7.33378,1.31512,24.14368,24.14368,0,0,0-6.378,3.54771,32.4623,32.4623,0,0,0-4.58376,4.30588,39.98011,39.98011,0,0,0-4.10586,5.5,32.56876,32.56876,0,0,0-2.98956,6.13843,18.17762,18.17762,0,0,0-1.15582,6.21867,9.51165,9.51165,0,0,0,.9558,4.50471,7.72731,7.72731,0,0,0,2.59191,2.86979,10.6931,10.6931,0,0,0,3.74654,1.51514,21.79845,21.79845,0,0,0,4.42445.43837,28.01271,28.01271,0,0,0,13.19433-3.15006,25.82258,25.82258,0,0,0,9.68613-8.64889,8.634,8.634,0,0,0,.43838-.83722,2.6115,2.6115,0,0,0,.19882-1.07677q0-1.1157-.3186-1.1163c-.1078,0-.23955.1078-.39885.3198a40.29082,40.29082,0,0,1-10.44311,10.32334,22.03611,22.03611,0,0,1-12.1978,3.54771,17.15692,17.15692,0,0,1-3.10933-.27908,7.61257,7.61257,0,0,1-2.671-.99652,5.42339,5.42339,0,0,1-1.87327-1.993,6.61586,6.61586,0,0,1-.71744-3.26864,21.05115,21.05115,0,0,1,1.47562-7.53379,39.48647,39.48647,0,0,1,3.707-7.33377,48.771,48.771,0,0,1,4.743-6.2582,29.83177,29.83177,0,0,1,4.50471-4.22564,21.908,21.908,0,0,1,3.74653-2.19186A10.17867,10.17867,0,0,1,147.678.71745a14.18509,14.18509,0,0,1,4.664.63839,7.87882,7.87882,0,0,1,2.86979,1.67445,5.456,5.456,0,0,1,1.47442,2.31164,8.265,8.265,0,0,1,.39885,2.47094,10.47221,10.47221,0,0,1-.11977,1.47442A5.70689,5.70689,0,0,1,156.68616,10.52336Z"/><path class="cls-1" d="M166.964,10.15445l-9.78315,25.40171h4.12742l2.3835-6.54566H174.614l2.3835,6.54566h4.16216l-9.78316-25.40171Zm-2.09844,15.65329,4.234-11.49113h.14133L173.439,25.80774Z"/><path class="cls-1" d="M202.48541,20.79519V36.1694h3.85912V20.72452c0-3.49261-.91987-6.21029-2.73444-8.07517a9.953,9.953,0,0,0-7.44636-2.81709,11.47348,11.47348,0,0,0-5.98991,1.50916,7.76136,7.76136,0,0,0-1.82656,1.52712V10.04546h-3.75252V36.1694h3.85912V21.40005c0-2.7572.651-4.80055,1.935-6.07375a7.10031,7.10031,0,0,1,5.27666-1.92,6.748,6.748,0,0,1,5.02153,1.82536C201.88055,16.44619,202.48541,18.31826,202.48541,20.79519Z"/><polygon class="cls-1" points="210.889 13.463 219.392 13.463 219.392 35.556 223.234 35.556 223.234 13.463 231.701 13.463 231.701 10.154 210.889 10.154 210.889 13.463"/><path class="cls-1" d="M270.3231,27.73131a12.94108,12.94108,0,0,0,.96058-4.87241,13.10241,13.10241,0,0,0-1.04922-5.26408,13.77731,13.77731,0,0,0-2.79193-4.19808,13.19294,13.19294,0,0,0-3.96692-2.79194,10.9055,10.9055,0,0,0-4.56939-1.01329,10.48921,10.48921,0,0,0-4.41128,1.01329,13.46106,13.46106,0,0,0-3.96572,2.79194,14.65826,14.65826,0,0,0-2.88057,4.19808,12.36143,12.36143,0,0,0-1.12109,5.26408,13.67953,13.67953,0,0,0,.92466,4.961,13.49786,13.49786,0,0,0,2.57874,4.23282,12.6996,12.6996,0,0,0,3.931,2.93447,11.20175,11.20175,0,0,0,4.94427,1.10192,10.63144,10.63144,0,0,0,4.85445-1.13785,13.33,13.33,0,0,0,3.92979-2.98717A14.13309,14.13309,0,0,0,270.3231,27.73131Zm-3.5573.71146a11.249,11.249,0,0,1-1.42172,3.98369,6.29784,6.29784,0,0,1-2.57873,2.38231,9.94216,9.94216,0,0,1-7.73622,0,6.30594,6.30594,0,0,1-2.56077-2.38231,11.22607,11.22607,0,0,1-1.42292-3.98369,31.989,31.989,0,0,1-.42759-5.58387,34.19145,34.19145,0,0,1,.321-4.749,12.99144,12.99144,0,0,1,1.22648-4.09028,7.28934,7.28934,0,0,1,2.526-2.86261,8.85693,8.85693,0,0,1,8.42971,0,7.305,7.305,0,0,1,2.52483,2.86261,12.9917,12.9917,0,0,1,1.22649,4.09028,34.19145,34.19145,0,0,1,.321,4.749A31.988,31.988,0,0,1,266.7658,28.44277Z"/><path class="cls-1" d="M302.66092,6.77443l-.533.49826a20.22627,20.22627,0,0,1,3.84235,6.79479,27.25429,27.25429,0,0,1,1.28039,8.64529,27.64366,27.64366,0,0,1-1.28039,8.68124,20.753,20.753,0,0,1-3.84235,6.83072l.533.49826a21.28287,21.28287,0,0,0,4.55381-7.07985,25.11608,25.11608,0,0,0,1.63732-8.89443A24.44765,24.44765,0,0,0,307.18,13.81834,20.52143,20.52143,0,0,0,302.66092,6.77443Z"/><path class="cls-1" d="M297.78731,13.14282a3.09424,3.09424,0,0,1,2.09964.56893,5.25262,5.25262,0,0,1,1.03126,1.993c.31979.99532.64079,1.49358.92465,1.49358.35573,0,.56893-.28386.56893-.78212.07187-3.20276.1078-5.05208.1078-5.47967,0-.67553-.17847-.99532-.53419-.99532-.2132,0-.46233.28386-.81806.854a2.15031,2.15031,0,0,1-1.95711.85279H285.08646a1.97855,1.97855,0,0,1-1.81458-.95939c-.3198-.49826-.60486-.71266-.854-.71266q-.4797,0-.74619,1.28158l-.96059,4.23282a4.01074,4.01074,0,0,0-.17846,1.10312c0,.39166.14253.60486.46232.60486.28507,0,.67673-.39166,1.17379-1.13785a7.70266,7.70266,0,0,1,1.672-2.02778,3.022,3.022,0,0,1,2.13557-.88992h3.98369V30.50408a2.06764,2.06764,0,0,1-.35573,1.24565,2.29094,2.29094,0,0,1-1.20972.60486l-2.31164.46233V33.92c2.41824-.14253,4.30468-.17846,5.65574-.17846,1.28158,0,3.16682.03593,5.65693.17846V32.81692l-2.34757-.49826a1.65113,1.65113,0,0,1-.99653-.60486,1.96219,1.96219,0,0,1-.31979-1.20972V13.14282Z"/><path class="cls-1" d="M280.85244,7.27269l-.533-.49826a20.02457,20.02457,0,0,0-4.51908,7.04391,23.72311,23.72311,0,0,0-1.67205,8.93037,24.34365,24.34365,0,0,0,1.63731,8.89443,20.75455,20.75455,0,0,0,4.55382,7.07985l.533-.49826a19.56779,19.56779,0,0,1-3.84235-6.83072,27.67811,27.67811,0,0,1-1.28039-8.68124,27.288,27.288,0,0,1,1.28039-8.64529A19.09331,19.09331,0,0,1,280.85244,7.27269Z"/><polygon class="cls-1" points="332.821 35.556 332.821 10.154 328.944 10.154 328.944 20.863 315.638 20.863 315.638 10.154 311.76 10.154 311.76 35.556 315.638 35.556 315.638 24.172 328.944 24.172 328.944 35.556 332.821 35.556"/><path class="cls-1" d="M360.77894,7.41522c-4.16215,0-15.36822,9.49929-15.36822,15.72515a4.60451,4.60451,0,0,0,2.9165,4.33942c.24913.10779.39166.17846.39166.28506,0,.28506-1.10312.71146-2.49011,1.24565-6.76,2.63264-15.01369,8.07517-15.01369,15.97308,0,4.234,1.708,6.26179,3.3441,6.26179,4.26994,0,17.93139-14.37289,25.01124-21.98574l-.2144-.2144c-7.25712,7.89791-19.9939,20.7413-24.192,20.7413-1.56545,0-3.48663-1.63612-3.48663-5.19341,0-6.90259,9.74842-12.70085,15.15622-14.90709,1.60018-.6408,2.17031-1.45885,2.17031-1.92118,0-.2132-.2144-.39166-.49826-.56893-1.77865-1.06719-2.562-2.24217-2.562-3.80642,0-5.69287,12.23852-15.29876,15.476-15.29876a1.01078,1.01078,0,0,1,1.139,1.06719c0,2.31284-4.234,6.22586-5.58627,7.614l.2132.21319c2.24218-1.92117,5.65694-4.48314,5.65694-7.36491A2.07612,2.07612,0,0,0,360.77894,7.41522Z"/><polygon class="cls-1" points="383.305 24.211 383.305 20.378 367.974 20.378 367.974 12.713 383.305 12.713 383.305 8.88 364.141 8.88 364.141 35.709 367.974 35.709 367.974 24.211 375.639 24.211 375.639 28.044 379.472 28.044 379.472 24.211 383.305 24.211"/><rect class="cls-1" x="379.47209" y="28.04392" width="3.83277" height="3.83277"/><rect class="cls-1" x="383.30486" y="12.71283" width="3.83277" height="7.66555"/></g></svg>