<svg xmlns="http://www.w3.org/2000/svg" viewBox="0 0 187.2669 34.92615"><defs><style>.cls-1{fill:#a9a9ff;}</style></defs><g id="font"><path class="cls-1" d="M3.87829,21.86956h6.58159c6.08333,0,9.14356-2.5979,9.14356-7.79131,0-5.15867-3.0243-7.72064-9.0729-7.72064H0V31.75932H3.87829Zm0-12.20379h6.33246A6.628,6.628,0,0,1,14.3729,10.733a3.885,3.885,0,0,1,1.35225,3.34529A4.2158,4.2158,0,0,1,14.40883,17.493a6.67724,6.67724,0,0,1-4.19808,1.06718H3.87829Z"/><path class="cls-1" d="M27.85109,3.47585l-.533-.49826A20.02462,20.02462,0,0,0,22.799,10.0215a23.72331,23.72331,0,0,0-1.672,8.93037,24.34357,24.34357,0,0,0,1.63732,8.89442,20.743,20.743,0,0,0,4.55381,7.07986l.533-.49827a19.56747,19.56747,0,0,1-3.84236-6.83072,27.67829,27.67829,0,0,1-1.28039-8.68123,27.28843,27.28843,0,0,1,1.28039-8.6453A19.09322,19.09322,0,0,1,27.85109,3.47585Z"/><path class="cls-1" d="M51.225,19.05846a11.04573,11.04573,0,0,0-3.55729-8.36023,12.51407,12.51407,0,0,0-8.89443-3.30936,13.369,13.369,0,0,0-9.35676,3.23749,10.74076,10.74076,0,0,0-3.66389,8.5387,10.563,10.563,0,0,0,3.5573,8.4321A13.28566,13.28566,0,0,0,38.275,30.5496a13.98669,13.98669,0,0,0,9.39269-3.1309A10.62633,10.62633,0,0,0,51.225,19.05846ZM45.03508,26.209q-2.34816,2.88177-6.93731,2.88177a7.269,7.269,0,0,1-6.01267-2.95243,10.489,10.489,0,0,1-2.241-6.79479A11.91766,11.91766,0,0,1,31.836,12.15708,7.27567,7.27567,0,0,1,38.2403,8.84772a7.948,7.948,0,0,1,6.79478,3.23749,11.72236,11.72236,0,0,1,2.09845,7.18645A10.825,10.825,0,0,1,45.03508,26.209Z"/><path class="cls-1" d="M54.21338,27.84629a25.116,25.116,0,0,0,1.63731-8.89442,24.44744,24.44744,0,0,0-1.672-8.93037,20.52146,20.52146,0,0,0-4.51907-7.04391l-.533.49826a20.22634,20.22634,0,0,1,3.84236,6.79478,27.25469,27.25469,0,0,1,1.28038,8.6453,27.64384,27.64384,0,0,1-1.28038,8.68123,20.75279,20.75279,0,0,1-3.84236,6.83072l.533.49827A21.271,21.271,0,0,0,54.21338,27.84629Z"/><path class="cls-1" d="M74.69716,24.9286c0-3.6639-1.92118-5.8342-7.11459-7.89791l-1.56545-.60486c-2.8111-1.10312-4.41248-2.59671-4.41248-5.088,0-2.98836,2.31284-4.55381,5.44374-4.55381a5.99,5.99,0,0,1,3.16683.78332l.99532,4.66041h2.02778l.24913-5.088a10.518,10.518,0,0,0-6.40313-2.06251c-4.90954,0-8.68123,2.63263-8.68123,7.15051,0,3.913,2.66857,6.1552,6.72412,7.79131l1.45885.60486c3.48663,1.387,4.90954,2.59671,4.90954,5.12274,0,3.16683-2.45537,4.87481-6.22586,4.87481a7.92241,7.92241,0,0,1-4.09148-.96059l-.99652-4.87481H58.18988l-.24913,5.47848a14.78088,14.78088,0,0,0,7.57811,2.0637C70.92667,32.32824,74.69716,29.55308,74.69716,24.9286Z"/><rect class="cls-1" x="78.85452" y="6.35761" width="3.84236" height="25.4017"/><path class="cls-1" d="M136.70544,9.799v21.9603h3.84235V6.35761h-1.21758a4.35053,4.35053,0,0,0,.12285-1.01209c0-2.23259-1.82536-4.84007-6.96966-4.84007A24.215,24.215,0,0,0,126.25574,1.581a22.62194,22.62194,0,0,1-5.82282,1.02407A11.08351,11.08351,0,0,1,113.177.2144L112.92847,0l-.55036.73541.21619.18685a11.76588,11.76588,0,0,0,7.83862,2.6003,24.08274,24.08274,0,0,0,6.16957-1.06839,22.84514,22.84514,0,0,1,5.88091-1.03125c4.467,0,6.05219,2.11281,6.05219,3.9226a3.5648,3.5648,0,0,1-.16821,1.01209h-1.66194V8.67225a6.52308,6.52308,0,0,1-4.04,1.29655,18.55335,18.55335,0,0,1-6.81754-1.75349,19.09753,19.09753,0,0,0-7.08943-1.80619,15.58272,15.58272,0,0,0-1.95771.12456c-.1581-1.28039-1.00251-3.077-4.49333-3.077-7.526,0-13.68659,7.01637-15.3808,13.88063-5.71562.14253-11.978,3.7118-11.978,8.73154,0,5.22574,6.86186,7.123,11.47436,7.123,6.65346,0,10.22991-4.57178,14.55675-11.02881,2.79433-4.16095,5.44673-7.68231,9.61248-8.63572l.291-.06707-.18206-.90669-.30722.07186c-4.70293,1.08636-7.46313,4.9886-10.13229,8.76268-3.35248,4.74186-9.68195,10.27782-16.48572,10.27782-3.1794,0-7.90988-1.49-7.90988-5.597,0-4.41847,5.63956-7.59129,10.84914-7.79371a16.35533,16.35533,0,0,0-.29464,3.077,14.12628,14.12628,0,0,0,.77793,4.72749l.1072.30183.87375-.35094-.09822-.27788a13.11918,13.11918,0,0,1-.74319-4.4005,15.74393,15.74393,0,0,1,.30722-3.08179,9.34653,9.34653,0,0,1,7.17986,3.24348c.60546.75458.6336.9546.6336,1.26841,0,.08624-.006.17847-.012.28267-.009.15092-.01917.32459-.01917.539a.6592.6592,0,0,0,.642.70188.72943.72943,0,0,0,.79291-.763,6.46045,6.46045,0,0,0-1.31333-2.65539,10.21693,10.21693,0,0,0-7.6871-3.52855c1.887-7.30982,8.1674-12.98472,14.44536-12.98472,2.17031,0,3.40278.78812,3.58364,2.2841-7.10979,1.28278-10.82758,6.984-10.82758,9.734a1.61717,1.61717,0,0,0,1.6445,1.79781c5.19221,0,9.85981-6.57081,10.11073-10.73536a15.02068,15.02068,0,0,1,1.93975-.12815,18.30713,18.30713,0,0,1,6.79658,1.7499,19.20832,19.20832,0,0,0,7.11039,1.80978A7.6232,7.6232,0,0,0,136.70544,9.799ZM105.981,16.39229c0-2.3847,3.48722-7.553,9.89275-8.78663-.52222,3.47105-5.8899,9.667-9.22561,9.667C106.46546,17.27263,105.981,17.27263,105.981,16.39229Z"/><path class="cls-1" d="M162.53114,13.00628,157.47787,26.4102,151.90957,14.028q-.82644-1.84154-1.13067-2.635a3.74214,3.74214,0,0,1-.30423-1.23487,1.11815,1.11815,0,0,1,.8504-1.14744,7.187,7.187,0,0,1,1.81937-.17607V8.22609h-9.47533v.60845a3.13463,3.13463,0,0,1,1.95351.69589,10.85243,10.85243,0,0,1,1.781,3.09616l8.79023,19.54954h.53539l7.87635-20.00708A6.88431,6.88431,0,0,1,166.22138,9.443a3.27791,3.27791,0,0,1,1.66726-.60845V8.22609h-7.27628v.60845a5.40448,5.40448,0,0,1,1.71636.24674,1.39419,1.39419,0,0,1,.88513,1.41213,3.93786,3.93786,0,0,1-.17367,1.00611Q162.86591,12.11755,162.53114,13.00628Z"/><path class="cls-1" d="M187.2669,31.24189V26.21617a.51833.51833,0,0,0-.51742-.51743h-6.596a.7394.7394,0,0,1-.739-.739v-1.884a.74017.74017,0,0,1,.739-.739H183.609a.51832.51832,0,0,0,.51742-.51742V16.79473a.51755.51755,0,0,0-.51742-.51742h-3.45549a.51755.51755,0,0,0-.51742.51742v5.02453a.74018.74018,0,0,1-.739.739h-8.1662a.51731.51731,0,0,0-.51623.51742v8.1662a.51731.51731,0,0,0,.51623.51743h16.0186A.51833.51833,0,0,0,187.2669,31.24189Z"/><path class="cls-1" d="M186.74948,6.85468h-16.0174a.51756.51756,0,0,0-.51743.51742v8.1662a.51757.51757,0,0,0,.51743.51743h3.45429a.74017.74017,0,0,1,.739.739v5.02573a.51833.51833,0,0,0,.51743.51742l3.45428-.0012a.51756.51756,0,0,0,.51743-.51742V16.79473a.54109.54109,0,0,0-.51743-.51742H175.4428a.74018.74018,0,0,1-.739-.739V13.65306a.73914.73914,0,0,1,.739-.73781h11.30668a.51833.51833,0,0,0,.51742-.51743V7.3721A.51832.51832,0,0,0,186.74948,6.85468Z"/></g></svg>