<?xml version="1.0" encoding="UTF-8"?><svg id="_圖層_3" xmlns="http://www.w3.org/2000/svg" viewBox="0 0 773.61 120.68"><path d="M38.3,66.35h11.3c10.44,0,15.69-4.46,15.69-13.37s-5.19-13.25-15.57-13.25H31.64v43.6h6.66v-16.98Zm0-20.95h10.87c3.24,0,5.62,.61,7.14,1.83,1.53,1.1,2.32,3.05,2.32,5.74s-.79,4.64-2.26,5.86c-1.53,1.22-3.91,1.83-7.21,1.83h-10.87v-15.27Z"/><path d="M79.44,34.78l-.91-.86c-3.3,3.3-5.92,7.33-7.76,12.09-1.95,4.89-2.87,9.95-2.87,15.33s.92,10.38,2.81,15.27c1.89,4.76,4.52,8.85,7.82,12.15l.91-.86c-2.93-3.36-5.13-7.27-6.6-11.72-1.46-4.46-2.2-9.41-2.2-14.9s.73-10.44,2.2-14.84c1.47-4.46,3.67-8.37,6.6-11.66Z"/><path d="M119.56,61.53c0-5.74-2.08-10.56-6.11-14.35-4.03-3.79-9.16-5.68-15.27-5.68-6.6,0-11.97,1.83-16.06,5.56-4.21,3.67-6.29,8.55-6.29,14.66s2.01,10.93,6.11,14.47c3.91,3.36,9.04,5.07,15.39,5.07s11.97-1.83,16.12-5.37c4.03-3.54,6.11-8.37,6.11-14.35Zm-10.62,12.27c-2.69,3.3-6.66,4.95-11.91,4.95-4.27,0-7.69-1.71-10.32-5.07-2.57-3.18-3.85-7.08-3.85-11.66,0-5.01,1.1-9.16,3.42-12.33,2.57-3.79,6.23-5.68,10.99-5.68,5.01,0,8.91,1.83,11.66,5.56,2.38,3.18,3.6,7.33,3.6,12.33s-1.22,8.92-3.6,11.91Z"/><path d="M124.69,76.61c1.83-4.89,2.81-9.95,2.81-15.27s-.98-10.44-2.87-15.33c-1.89-4.76-4.46-8.79-7.76-12.09l-.91,.86c2.87,3.3,5.07,7.21,6.6,11.66,1.47,4.4,2.2,9.34,2.2,14.84s-.73,10.44-2.2,14.9c-1.53,4.46-3.73,8.37-6.6,11.72l.91,.86c3.3-3.3,5.86-7.39,7.82-12.15Z"/><path d="M159.85,71.6c0-6.29-3.3-10.01-12.21-13.56l-2.69-1.04c-4.83-1.89-7.57-4.46-7.57-8.73,0-5.13,3.97-7.82,9.34-7.82,2.08,0,3.73,.37,5.44,1.34l1.71,8h3.48l.43-8.73c-2.93-2.14-6.47-3.54-10.99-3.54-8.43,0-14.9,4.52-14.9,12.27,0,6.72,4.58,10.56,11.54,13.37l2.5,1.04c5.98,2.38,8.43,4.46,8.43,8.79,0,5.44-4.21,8.37-10.69,8.37-2.87,0-4.88-.49-7.02-1.65l-1.71-8.37h-3.42l-.43,9.4c3.05,1.96,7.94,3.54,13.01,3.54,9.28,0,15.75-4.76,15.75-12.7Z"/><rect x="166.99" y="39.73" width="6.6" height="43.6"/><path d="M266.28,45.63v37.69h6.6V39.73h-2.09c.14-.58,.21-1.16,.21-1.74,0-3.83-3.13-8.31-11.96-8.31-3.74,0-7.27,.94-10.69,1.85-3.4,.9-6.61,1.76-9.99,1.76s-8.52-.71-12.45-4.1l-.43-.37-.94,1.26,.37,.32c3.38,2.92,8.03,4.46,13.45,4.46,3.68,0,7.19-.93,10.59-1.83,3.43-.91,6.67-1.77,10.09-1.77,7.67,0,10.39,3.63,10.39,6.73,0,.58-.12,1.16-.29,1.74h-2.85v3.97c-1.72,1.32-4.06,2.23-6.93,2.23-4.15,0-7.99-1.53-11.7-3.01-3.82-1.53-7.78-3.1-12.17-3.1-1.12,0-2.24,.07-3.36,.21-.27-2.2-1.72-5.28-7.71-5.28-12.92,0-23.49,12.04-26.4,23.83-9.81,.24-20.56,6.37-20.56,14.99s11.78,12.23,19.69,12.23c11.42,0,17.56-7.85,24.99-18.93,4.8-7.14,9.35-13.19,16.5-14.82l.5-.12-.31-1.56-.53,.12c-8.07,1.86-12.81,8.56-17.39,15.04-5.75,8.14-16.62,17.64-28.3,17.64-5.46,0-13.58-2.56-13.58-9.61,0-7.58,9.68-13.03,18.62-13.38-.34,1.75-.51,3.53-.51,5.28,0,2.88,.45,5.61,1.34,8.11l.18,.52,1.5-.6-.17-.48c-.85-2.39-1.28-4.93-1.28-7.55,0-1.76,.18-3.54,.53-5.29,3.74,.11,8.77,1.2,12.32,5.57,1.04,1.3,1.09,1.64,1.09,2.18,0,.15-.01,.31-.02,.49-.02,.26-.03,.56-.03,.93,0,.69,.47,1.2,1.1,1.2,.83,0,1.36-.51,1.36-1.31,0-1.64-2.16-4.44-2.25-4.56-2.89-3.63-7.67-5.82-13.19-6.06,3.24-12.55,14.02-22.29,24.79-22.29,3.73,0,5.84,1.35,6.15,3.92-12.2,2.2-18.58,11.99-18.58,16.71,0,1.87,1.11,3.09,2.82,3.09,8.91,0,16.92-11.28,17.35-18.43,1.12-.15,2.24-.22,3.33-.22,4.12,0,7.78,1.46,11.67,3,3.84,1.53,7.81,3.11,12.2,3.11,2.74,0,5.08-.72,6.93-1.87Zm-52.74,11.32c0-4.09,5.99-12.96,16.98-15.08-.9,5.96-10.11,16.59-15.84,16.59-.31,0-1.15,0-1.15-1.51Z"/><path d="M310.61,51.14l-8.67,23.01-9.56-21.25c-.95-2.11-1.59-3.61-1.94-4.52-.35-.91-.52-1.62-.52-2.12,0-.99,.49-1.65,1.46-1.97,.56-.18,1.6-.28,3.12-.3v-1.04h-16.26v1.04c1.47,.1,2.59,.5,3.35,1.19s1.78,2.47,3.06,5.31l15.09,33.56h.92l13.52-34.34c.91-2.34,1.84-3.9,2.77-4.68,.61-.52,1.57-.87,2.86-1.04v-1.04h-12.49v1.04c1.37,.04,2.35,.18,2.95,.42,1.01,.43,1.52,1.23,1.52,2.42,0,.44-.1,1.02-.3,1.73-.2,.71-.49,1.57-.87,2.59Z"/><path d="M353.07,82.44v-8.63c0-.49-.4-.89-.89-.89h-11.32c-.7,0-1.27-.57-1.27-1.27v-3.23c0-.7,.57-1.27,1.27-1.27h5.93c.49,0,.89-.4,.89-.89v-8.62c0-.49-.4-.89-.89-.89h-5.93c-.49,0-.89,.4-.89,.89v8.62c0,.7-.57,1.27-1.27,1.27h-14.02c-.49,0-.89,.4-.89,.89v14.02c0,.49,.4,.89,.89,.89h27.49c.49,0,.89-.4,.89-.89Z"/><path d="M352.18,40.58h-27.49c-.49,0-.89,.4-.89,.89v14.02c0,.49,.4,.89,.89,.89h5.93c.7,0,1.27,.57,1.27,1.27v8.63c0,.49,.4,.89,.89,.89h5.93c.49,0,.89-.4,.89-.89v-8.62c-.02-.42-.36-.89-.89-.89h-5.93c-.7,0-1.27-.57-1.27-1.27v-3.24c0-.7,.57-1.27,1.27-1.27h19.41c.49,0,.89-.4,.89-.89v-8.63c0-.49-.4-.89-.89-.89Z"/></svg>