<?xml version="1.0" encoding="UTF-8"?><svg id="_圖層_3" xmlns="http://www.w3.org/2000/svg" viewBox="0 0 773.61 120.68"><polygon points="34.01 75.63 36.76 75.63 36.76 78.42 45.44 78.42 45.44 75.63 48.14 75.63 48.14 72.89 50.89 72.89 50.89 64.2 48.14 64.2 48.14 61.45 45.44 61.45 45.44 58.71 37.2 58.71 37.2 56 34.5 56 34.5 48.25 37.2 48.25 37.2 45.5 44.96 45.5 44.96 48.25 47.7 48.25 47.7 53.74 50.89 53.74 50.89 47.76 48.14 47.76 48.14 45.02 45.44 45.02 45.44 42.31 36.76 42.31 36.76 45.02 34.01 45.02 34.01 47.76 31.22 47.76 31.22 56.45 34.01 56.45 34.01 59.19 36.76 59.19 36.76 61.94 44.96 61.94 44.96 64.69 47.7 64.69 47.7 72.44 44.96 72.44 44.96 75.15 37.2 75.15 37.2 72.44 34.5 72.44 34.5 66.95 31.22 66.95 31.22 72.89 34.01 72.89 34.01 75.63"/><polygon points="70.89 77.18 70.89 45 83.22 45 83.22 40.19 52.91 40.19 52.91 45 65.3 45 65.3 77.18 70.89 77.18"/><path d="M110.21,48.8l2.69-3.52-1.03-.77-5.11,5.18c-4.9-2.08-9.74-3.13-14.39-3.13-12.44,0-19.33,7.6-19.33,12.86,0,2.94,2.19,6.08,8.34,6.08,8.88,0,16.87-5.81,24.23-12.83-.42,.57-.88,1.2-1.37,1.88-1.63,2.27-3.46,4.51-5.24,6.69-4.82,5.9-9.38,11.47-9.38,16.84,0,1.97,.95,2.26,1.51,2.26,2.68,0,6.14-5.56,9.17-10.77,.33-.56,.61-1.04,.83-1.41,1.03-1.69,2.22-3.62,3.46-5.61,.17,.23,.36,.45,.56,.66-.22,1.61-.53,3.22-.86,4.93-.63,3.27-1.28,6.65-1.28,10.11,0,8.08,3.31,17.51,12.64,17.51,7.26,0,11.75-5.57,11.75-10.73,0-3.48-1.78-8.83-10.26-14.55l-.35-.24-.8,1.07,.39,.26c6.25,4.22,9.69,9,9.69,13.46,0,5.62-5.38,9.39-10.41,9.39-5.46,0-11.3-4.25-11.3-16.17,0-3.31,.64-6.65,1.26-9.87,.27-1.38,.54-2.8,.75-4.18,2.36,1.53,5.64,1.87,8.09,1.87,10.02,0,25.18-8.1,25.18-20.3,0-6.06-5.11-8.2-9.49-8.2-8.97,0-16.36,8.38-20.98,15.4-.88,1.32-1.8,2.73-2.73,4.18-.43-.8-1.14-.98-1.73-.91,.21-.3,.42-.6,.63-.9,1.24-1.77,2.53-3.46,4.88-6.53Zm-17.84-.91c4.19,0,8.67,.95,13.34,2.81-6.86,6.73-15.07,13.45-24.34,13.45-4.38,0-7-1.77-7-4.74,0-4.71,6.41-11.52,17.99-11.52Zm14.44,11.15c.91-1.42,1.82-2.83,2.69-4.17l.75-1.15c6.36-9.7,13.23-14.82,19.88-14.82,3.76,0,8.15,1.8,8.15,6.87,0,7.55-9.51,18.97-23.84,18.97-3.54,0-6.26-.7-7.88-2.04,.17-1.31,.26-2.47,.26-3.54v-.11Zm-2.98,2.15c-1.4,2.24-2.75,4.43-3.92,6.33-.3,.49-.66,1.11-1.07,1.81-1.98,3.4-5.68,9.72-7.64,9.72-.07,0-.17,0-.17-.35,0-1.72,5.98-11.32,12.32-20.55,0,.09,0,.19,0,.3,0,.99,.16,1.89,.48,2.75Zm.96-1.5c-.07-.39-.11-.8-.11-1.25,0-.61,.14-.86,.13-.88,.15,0,.53,0,.63,1.1l-.65,1.03Z"/><path d="M159.92,77.18h6.06l-14.25-37h-6.43l-14.25,37h6.01l3.47-9.53h15.91l3.47,9.53Zm-17.67-14.2l6.17-16.74h.21l6.11,16.74h-12.49Z"/><path d="M191.89,33.24c-7,0-12.96,2.44-17.88,7.41-4.98,4.92-7.41,10.88-7.41,17.88s2.44,12.9,7.41,17.88c4.92,4.92,10.88,7.41,17.88,7.41s12.9-2.49,17.88-7.41c4.92-4.97,7.41-10.93,7.41-17.88s-2.49-12.96-7.41-17.88-10.93-7.41-17.88-7.41Zm16.27,41.56c-4.56,4.46-9.95,6.68-16.27,6.68s-11.76-2.23-16.27-6.68c-4.46-4.56-6.69-9.95-6.69-16.27s2.23-11.76,6.69-16.27c4.51-4.46,9.95-6.69,16.27-6.69s11.71,2.23,16.27,6.69c4.46,4.51,6.69,9.95,6.69,16.27s-2.23,11.71-6.69,16.27Z"/><polygon points="200.02 66.72 199.87 66.72 184.06 41.27 178.21 41.27 178.21 76.05 183.8 76.05 183.8 50.34 183.96 50.34 199.97 76.05 205.62 76.05 205.62 41.27 200.02 41.27 200.02 66.72"/><path d="M245.71,75.42v-25.03h-5.49v3.58c-1.97-2.9-4.66-4.3-8.19-4.3s-6.58,1.24-8.81,3.78c-2.28,2.49-3.37,5.7-3.37,9.74s1.09,7.26,3.37,9.69c2.23,2.44,5.18,3.68,8.81,3.68s6.22-1.5,8.19-4.46v4.15c0,5.03-2.33,7.57-6.99,7.57-2.18,0-3.78-.36-4.77-.98-1.04-.68-1.66-1.81-1.97-3.37h-5.49c.52,2.95,1.71,5.13,3.68,6.58,1.97,1.4,4.82,2.12,8.55,2.12,8.29,0,12.49-4.25,12.49-12.75Zm-7.36-5.7c-1.35,1.55-3.16,2.33-5.49,2.33-2.7,0-4.61-.93-5.8-2.69-1.04-1.5-1.55-3.58-1.55-6.17,0-2.85,.62-5.08,1.97-6.63,1.24-1.66,3.06-2.44,5.39-2.44s4.15,.78,5.49,2.44c1.24,1.61,1.92,3.83,1.92,6.63s-.67,4.92-1.92,6.53Z"/><path d="M270.84,43.61l2.12,5.7h1.35c.17-1.42,.3-2.82,.39-4.22,.09-1.4,.15-2.79,.18-4.17h-24.56v1.5c.69,.28,1.4,.53,2.12,.75,.72,.23,1.43,.41,2.12,.54v30.72c-1.62,.28-3.04,.69-4.25,1.24v1.5h25.54c.07-1.52,.05-3.02-.05-4.51-.1-1.48-.28-2.95-.52-4.4h-1.3l-2.54,6.22h-11.92v-14.45h8.45l2.02,3.94h1.29c.21-3.56,.21-7.05,0-10.47h-1.29l-2.02,3.83h-8.45v-13.73h11.29Z"/><path d="M294.1,75.68c-.69-.28-1.4-.51-2.12-.7-.73-.19-1.49-.37-2.28-.54v-13.31h4.88c.62,1.38,1.24,2.69,1.84,3.91,.6,1.23,1.25,2.44,1.94,3.63,.69,1.19,1.43,2.37,2.23,3.52,.79,1.16,1.67,2.34,2.64,3.55l1.97,1.45h6.3v-1.29l-2.82-1.5c-1.76-2.28-3.45-4.58-5.08-6.89-1.62-2.31-3.18-4.65-4.66-6.99,2.29-.73,4.1-1.92,5.43-3.57,1.33-1.66,2-3.75,2-6.27,0-1.8-.3-3.33-.91-4.61s-1.44-2.33-2.52-3.16c-1.07-.83-2.35-1.43-3.82-1.81-1.47-.38-3.05-.57-4.75-.57-1.56,0-3.16,.07-4.8,.21s-3.16,.21-4.54,.21h-4.56v1.5c.55,.24,1.17,.47,1.86,.7s1.48,.42,2.38,.59v30.72c-.69,.14-1.38,.29-2.07,.47-.69,.17-1.42,.43-2.18,.78v1.5h13.63v-1.5Zm-4.4-32.23c.45-.1,.94-.17,1.48-.21,.54-.03,1.22-.05,2.05-.05,2.35,0,4.27,.6,5.75,1.8,1.48,1.2,2.23,3.07,2.23,5.61s-.7,4.46-2.1,5.97c-1.4,1.51-3.29,2.26-5.67,2.26h-3.73v-15.39Z"/><path d="M335.8,71.48c-1.66,.93-3.89,1.45-6.68,1.45-3.11,0-5.39-.57-6.89-1.71-1.66-1.24-2.69-3.37-3.11-6.27h-5.6c.31,4.66,1.97,8.08,5.03,10.26,2.54,1.76,6.06,2.7,10.57,2.7s8.29-.93,10.88-2.8c2.59-1.92,3.89-4.51,3.89-7.82s-1.61-6.06-4.77-7.98c-1.45-.88-4.72-2.07-9.69-3.63-3.47-1.04-5.6-1.81-6.43-2.28-1.87-.98-2.75-2.28-2.75-3.94,0-1.86,.78-3.21,2.38-4.04,1.29-.73,3.16-1.09,5.6-1.09,2.8,0,4.87,.52,6.32,1.61,1.45,1.04,2.38,2.8,2.9,5.18h5.6c-.36-4.04-1.81-7-4.41-8.91-2.44-1.86-5.8-2.75-10.1-2.75-3.94,0-7.2,.88-9.79,2.64-2.75,1.86-4.09,4.41-4.09,7.67s1.4,5.7,4.25,7.41c1.14,.62,3.94,1.61,8.5,3.06,4.09,1.24,6.53,2.07,7.36,2.49,2.33,1.19,3.52,2.8,3.52,4.87,0,1.66-.83,2.95-2.49,3.89Z"/></svg>