<svg xmlns="http://www.w3.org/2000/svg" viewBox="0 0 214.66404 42.92107"><defs><style>.cls-1{fill:#a9a9ff;}</style></defs><g id="font"><polygon class="cls-1" points="1.916 29.104 3.803 29.104 3.803 31.02 9.765 31.02 9.765 29.104 11.62 29.104 11.62 27.217 13.507 27.217 13.507 21.255 11.62 21.255 11.62 19.369 9.765 19.369 9.765 17.483 4.107 17.483 4.107 15.627 2.252 15.627 2.252 10.304 4.107 10.304 4.107 8.418 9.431 8.418 9.431 10.304 11.316 10.304 11.316 14.076 13.507 14.076 13.507 9.969 11.62 9.969 11.62 8.084 9.765 8.084 9.765 6.227 3.803 6.227 3.803 8.084 1.916 8.084 1.916 9.969 0 9.969 0 15.931 1.916 15.931 1.916 17.818 3.803 17.818 3.803 19.704 9.431 19.704 9.431 21.59 11.316 21.59 11.316 26.913 9.431 26.913 9.431 28.77 4.107 28.77 4.107 26.913 2.252 26.913 2.252 23.142 0 23.142 0 27.217 1.916 27.217 1.916 29.104"/><polygon class="cls-1" points="27.238 30.169 27.238 8.075 35.705 8.075 35.705 4.767 14.893 4.767 14.893 8.075 23.395 8.075 23.395 30.169 27.238 30.169"/><path class="cls-1" d="M54.23494,10.67906l1.84931-2.41943-.70487-.52821-3.51058,3.5561a25.33176,25.33176,0,0,0-9.87957-2.14875c-8.54409,0-13.26978,5.21976-13.26978,8.82735,0,2.017,1.50376,4.17174,5.724,4.17174,6.0959,0,11.58335-3.98728,16.63363-8.8058-.29045.39406-.60246.82285-.93843,1.29117C49.02117,16.18029,47.76,17.72178,46.54005,19.213c-3.31176,4.04957-6.43966,7.874-6.43966,11.5642,0,1.35225.64977,1.55467,1.03724,1.55467,1.84153,0,4.21546-3.81721,6.29593-7.39606.22338-.38447.41562-.71505.56953-.96777.70487-1.16181,1.52293-2.48651,2.37512-3.84954a4.15379,4.15379,0,0,0,.38567.45394c-.15211,1.10552-.36591,2.21343-.59168,3.38362a36.65893,36.65893,0,0,0-.88154,6.94331c0,5.54554,2.27212,12.02173,8.67524,12.02173A7.7388,7.7388,0,0,0,66.0315,35.555c0-2.39069-1.2217-6.06536-7.04273-9.99156l-.24194-.16409-.54976.73541.26709.17966C62.75208,29.20932,65.114,32.49114,65.114,35.555c0,3.85793-3.69624,6.44864-7.14813,6.44864-3.75013,0-7.75777-2.9165-7.75777-11.10426a36.24361,36.24361,0,0,1,.86717-6.77682c.18205-.94622.3695-1.92.51682-2.87219a10.62719,10.62719,0,0,0,5.55213,1.28278c6.88163,0,17.28581-5.55991,17.28581-13.93931,0-4.15737-3.50938-5.63178-6.51452-5.63178-6.15759,0-11.23242,5.75035-14.40344,10.57246-.60666.9031-1.23547,1.87207-1.87626,2.86979a1.13768,1.13768,0,0,0-1.18517-.62642q.21649-.31082.43239-.618C51.73405,13.9477,52.62278,12.78589,54.23494,10.67906Zm-12.24571-.62282a24.81434,24.81434,0,0,1,9.16152,1.932c-4.70652,4.61969-10.34729,9.23219-16.70729,9.23219-3.00993,0-4.80654-1.21691-4.80654-3.25427C29.63692,14.73342,34.03562,10.05624,41.98923,10.05624Zm9.9155,7.65237c.62163-.97616,1.25044-1.94393,1.84752-2.86021l.51383-.7917C58.63065,7.39845,63.35035,3.87949,67.91554,3.87949c2.58173,0,5.59705,1.23487,5.59705,4.71431,0,5.18382-6.52829,13.02184-16.36834,13.02184-2.43321,0-4.29869-.48269-5.4096-1.399a18.40229,18.40229,0,0,0,.17787-2.43261Zm-2.041,1.47442c-.96059,1.5379-1.88944,3.04107-2.68893,4.34421-.20661.33776-.45514.763-.73422,1.24086-1.36243,2.3332-3.898,6.67621-5.24191,6.67621-.05031,0-.11978,0-.11978-.24075,0-1.18217,4.10227-7.77334,8.46145-14.11059-.00419.06468-.00659.13295-.00659.20362A5.24036,5.24036,0,0,0,49.86378,19.183Zm.66115-1.02886a4.70811,4.70811,0,0,1-.07366-.85758,1.8032,1.8032,0,0,1,.08983-.60606c.10121,0,.36292,0,.43179.757Z"/><path class="cls-1" d="M88.36219,30.16872h4.16215L82.74119,4.767H78.32871L68.54555,30.16872H72.673l2.38351-6.54566h10.9222ZM76.23026,20.4203l4.234-11.49114h.14134L84.8037,20.4203Z"/><path class="cls-1" d="M110.30721,0A16.6007,16.6007,0,0,0,98.03276,5.08681a16.59725,16.59725,0,0,0-5.088,12.27445,16.7065,16.7065,0,0,0,5.088,12.27326,17.34817,17.34817,0,0,0,24.54771,0,16.84639,16.84639,0,0,0,5.088-12.27326,16.735,16.735,0,0,0-5.088-12.27445A16.71,16.71,0,0,0,110.30721,0Zm11.17014,28.5326A15.76058,15.76058,0,0,1,94.54613,17.36126,15.33536,15.33536,0,0,1,99.13588,6.18993a15.88879,15.88879,0,0,1,22.34147,0,15.33536,15.33536,0,0,1,4.58975,11.17133A15.39379,15.39379,0,0,1,121.47735,28.5326Z"/><polygon class="cls-1" points="115.892 22.982 115.786 22.982 104.934 5.514 100.915 5.514 100.915 29.387 104.757 29.387 104.757 11.74 104.863 11.74 115.856 29.387 119.735 29.387 119.735 5.514 115.892 5.514 115.892 22.982"/><path class="cls-1" d="M147.26233,28.959V11.775h-3.77169v2.45537a6.369,6.369,0,0,0-5.621-2.95243,7.65871,7.65871,0,0,0-6.0474,2.5967,9.45025,9.45025,0,0,0-2.31283,6.68819,9.3034,9.3034,0,0,0,2.31283,6.65345,7.83732,7.83732,0,0,0,6.0474,2.526,6.3872,6.3872,0,0,0,5.621-3.06023v2.84583c0,3.4519-1.60018,5.19461-4.80174,5.19461a6.33566,6.33566,0,0,1-3.27343-.67553,3.37675,3.37675,0,0,1-1.35225-2.31284h-3.77049a6.73729,6.73729,0,0,0,2.526,4.51789,10.06087,10.06087,0,0,0,5.87013,1.45884C144.38056,37.71089,147.26233,34.7932,147.26233,28.959Zm-5.05207-3.913a4.71524,4.71524,0,0,1-3.77049,1.60019,4.46711,4.46711,0,0,1-3.98489-1.84932,7.38745,7.38745,0,0,1-1.06719-4.234,6.75968,6.75968,0,0,1,1.35105-4.55382,4.33519,4.33519,0,0,1,3.701-1.672,4.5589,4.5589,0,0,1,3.77049,1.672,7.2953,7.2953,0,0,1,1.31632,4.55382A7.14957,7.14957,0,0,1,142.21026,25.046Z"/><path class="cls-1" d="M164.50861,7.12057l1.45765,3.913h.92466q.17787-1.45885.2671-2.89974.088-1.43909.12456-2.8626H150.42317V6.30252q.71147.28566,1.45885.51622a14.09412,14.09412,0,0,0,1.45765.3725V28.28347a11.77684,11.77684,0,0,0-2.9165.854v1.03126h17.53494a26.89527,26.89527,0,0,0-.03474-3.095q-.10779-1.52892-.35573-3.0231h-.88992L164.935,28.3194h-8.18058V18.39611h5.79827l1.387,2.70331h.88872a60.41844,60.41844,0,0,0,0-7.18526h-.88872l-1.387,2.63144h-5.79827v-9.425Z"/><path class="cls-1" d="M180.4781,29.13746a12.50113,12.50113,0,0,0-1.45765-.48029q-.74739-.19584-1.56545-.3737V19.14231h3.35368q.64138,1.42292,1.26362,2.68533.62161,1.263,1.33308,2.49011T184.9349,26.736q.81746,1.19295,1.81458,2.4374l1.351.99533h4.32864V29.28l-1.93675-1.03245q-1.81458-2.34638-3.48543-4.72988-1.67265-2.38231-3.20156-4.80175a7.5855,7.5855,0,0,0,3.72857-2.45417,6.64277,6.64277,0,0,0,1.37381-4.30349,7.33955,7.33955,0,0,0-.624-3.16563,5.876,5.876,0,0,0-1.72834-2.17031,7.1727,7.1727,0,0,0-2.62185-1.24445,12.99569,12.99569,0,0,0-3.26145-.39166q-1.60439,0-3.29858.14253-1.69421.14193-3.11892.14253h-3.1309V6.30252q.56952.24972,1.28039.48029a13.405,13.405,0,0,0,1.63611.40843V28.28347c-.47431.09462-.94861.20242-1.42292.3198a8.85216,8.85216,0,0,0-1.49358.53419v1.03126h9.35436ZM177.455,7.01278a6.39848,6.39848,0,0,1,1.01329-.14134c.36771-.02275.836-.03593,1.405-.03593a6.08817,6.08817,0,0,1,3.949,1.23727,4.66144,4.66144,0,0,1,1.52951,3.85074,5.7939,5.7939,0,0,1-1.44088,4.09987,5.05379,5.05379,0,0,1-3.89506,1.55467H177.455Z"/><path class="cls-1" d="M209.11371,26.25569a9.346,9.346,0,0,1-4.58855.99533,7.784,7.784,0,0,1-4.73228-1.17379,6.24377,6.24377,0,0,1-2.13437-4.30468h-3.84236c.2132,3.20156,1.35225,5.55033,3.4507,7.04392a12.57975,12.57975,0,0,0,7.25831,1.85051q4.80234,0,7.47031-1.92118a6.31163,6.31163,0,0,0,2.66857-5.37187,6.12118,6.12118,0,0,0-3.27343-5.47967,37.93222,37.93222,0,0,0-6.65225-2.49011,27.96587,27.96587,0,0,1-4.41128-1.56544,2.98507,2.98507,0,0,1-1.88645-2.70331,2.88417,2.88417,0,0,1,1.63732-2.77516,7.98756,7.98756,0,0,1,3.84235-.74739A7.10582,7.10582,0,0,1,208.26092,8.716a5.63373,5.63373,0,0,1,1.99184,3.55729h3.84236a8.04256,8.04256,0,0,0-3.0243-6.11926,11.16621,11.16621,0,0,0-6.93732-1.88525,11.69838,11.69838,0,0,0-6.72412,1.81458,6.0089,6.0089,0,0,0-2.8099,5.26527,5.60207,5.60207,0,0,0,2.9165,5.088,45.56541,45.56541,0,0,0,5.83539,2.09844,47.43735,47.43735,0,0,1,5.05088,1.708c1.60138.81806,2.41944,1.92118,2.41944,3.3441A2.95156,2.95156,0,0,1,209.11371,26.25569Z"/></g></svg>