<svg xmlns="http://www.w3.org/2000/svg" viewBox="0 0 253.47087 40.36629"><defs><style>.cls-1{fill:#a9a9ff;}</style></defs><g id="font"><polygon class="cls-1" points="8.503 34.193 12.345 34.193 12.345 12.1 20.812 12.1 20.812 8.791 0 8.791 0 12.1 8.503 12.1 8.503 34.193"/><path class="cls-1" d="M44.45418,11.26835a4.43639,4.43639,0,0,1,2.63144-.73661V9.849H36.88086v.68271a4.4293,4.4293,0,0,1,2.641.73661,3.82678,3.82678,0,0,1,.59288,2.56916V21.006H28.93983V13.83751a3.75832,3.75832,0,0,1,.60726-2.56916,4.44938,4.44938,0,0,1,2.62665-.73661V9.849H21.969v.68271a4.43948,4.43948,0,0,1,2.63143.73661,3.78293,3.78293,0,0,1,.60247,2.56916v15.936q0,2.37871-.539,2.94165a4.86318,4.86318,0,0,1-2.69492.7953v.68272H32.17374v-.68272a4.64831,4.64831,0,0,1-2.62665-.733,3.71456,3.71456,0,0,1-.60726-2.57275V22.62294H40.11476v7.15052q0,2.37871-.5306,2.95a4.7026,4.7026,0,0,1-2.7033.78691v.68272H47.08562v-.68272a4.76915,4.76915,0,0,1-2.63144-.7414,3.695,3.695,0,0,1-.60246-2.56436V13.83751A3.77627,3.77627,0,0,1,44.45418,11.26835Z"/><path class="cls-1" d="M70.61645,15.57064H64.02168a.7394.7394,0,0,1-.739-.739V9.80711a.51782.51782,0,0,0-.51862-.51743H49.88833a.51679.51679,0,0,0-.51742.51743V33.6757a.51755.51755,0,0,0,.51742.51743h3.45429A.51833.51833,0,0,0,53.86,33.6757V16.08807a.74018.74018,0,0,1,.739-.739h8.1662a.74017.74017,0,0,1,.739.739v5.02452a.51781.51781,0,0,0,.51742.51862h6.59477a.51858.51858,0,0,0,.51742-.51862V16.08807A.51833.51833,0,0,0,70.61645,15.57064Z"/><path class="cls-1" d="M70.61645,24.9777H64.02168a.74017.74017,0,0,1-.739-.739V22.35465a.51755.51755,0,0,0-.51743-.51742h-8.1662a.51755.51755,0,0,0-.51742.51742V33.6757a.51859.51859,0,0,0,.51742.51863h3.45549a.51859.51859,0,0,0,.51742-.51863V25.49513a.74018.74018,0,0,1,.739-.739h3.45428a.74018.74018,0,0,1,.739.739v8.1662a.51832.51832,0,0,0,.51742.51742h6.59477a.51832.51832,0,0,0,.51742-.51742v-8.1662A.51833.51833,0,0,0,70.61645,24.9777Z"/><path class="cls-1" d="M77.04653,33.40382a6.84159,6.84159,0,0,0,2.241,1.0588,11.1549,11.1549,0,0,0,3.00813.3701,9.522,9.522,0,0,0,3.13868-.55575,12.03769,12.03769,0,0,0,2.87937-1.44927,9.22936,9.22936,0,0,0,2.135-1.99544,3.74119,3.74119,0,0,0,.85279-2.26732,2.98142,2.98142,0,0,0-.86537-2.16073,3.4681,3.4681,0,0,0-2.57335-.88273,5.53617,5.53617,0,0,0-2.98717.81446,8.03555,8.03555,0,0,0-2.24816,2.13917l-.08983.12456.46413.333.08863-.12816a7.672,7.672,0,0,1,.78931-.9546,6.8933,6.8933,0,0,1,.99712-.84681,5.072,5.072,0,0,1,1.12229-.59048,3.40478,3.40478,0,0,1,1.19414-.21919,1.97037,1.97037,0,0,1,1.64331.64079,3.1267,3.1267,0,0,1,.515,1.94394,4.11619,4.11619,0,0,1-.64438,2.30445,5.67812,5.67812,0,0,1-1.6439,1.6433,7.73832,7.73832,0,0,1-2.19247.98575,6.62407,6.62407,0,0,1-4.38553-.08624,5.31573,5.31573,0,0,1-1.6421-1.07917,4.818,4.818,0,0,1-1.0612-1.54748,4.4839,4.4839,0,0,1-.38388-1.79422,6.0984,6.0984,0,0,1,.54617-2.74522A5.86392,5.86392,0,0,1,79.38272,24.622,9.05,9.05,0,0,1,81.43206,23.32q1.17138-.548,2.35595-1.09593a3.56958,3.56958,0,0,0,1.61935-1.33549,3.8313,3.8313,0,0,0,.509-2.02777,8.44636,8.44636,0,0,1,.239-1.89723,6.44537,6.44537,0,0,1,.77374-1.90081,4.5041,4.5041,0,0,1,1.41214-1.44328,3.925,3.925,0,0,1,2.16731-.56773,3.50678,3.50678,0,0,1,2.18768.60606,2.291,2.291,0,0,1,.76236,1.91758,3.62548,3.62548,0,0,1-.22038,1.13786,4.45482,4.45482,0,0,1-.66176,1.23367,4.00076,4.00076,0,0,1-1.09952.99652,2.82072,2.82072,0,0,1-1.51575.40244,4.04108,4.04108,0,0,1-1.284-.14133l-.18985-.07426-.05809.65157.106.04312a2.81782,2.81782,0,0,0,.58031.12936,5.95948,5.95948,0,0,0,2.62545-.2168,5.44406,5.44406,0,0,0,1.65887-.8456,4.57981,4.57981,0,0,0,1.22649-1.38459,3.693,3.693,0,0,0,.4767-1.87087,2.72793,2.72793,0,0,0-.40424-1.49718A3.36927,3.36927,0,0,0,93.679,13.11886a4.3126,4.3126,0,0,0-1.372-.56773,6.7068,6.7068,0,0,0-1.49418-.17127,8.23647,8.23647,0,0,0-3.14647.55934A6.37124,6.37124,0,0,0,85.42353,14.452a6.2303,6.2303,0,0,0-1.3259,2.18229,7.74069,7.74069,0,0,0-.43418,2.59191,13.24726,13.24726,0,0,1-.05989,1.39657,2.51135,2.51135,0,0,1-.21379.81685,1.18929,1.18929,0,0,1-.41742.47192,7.15651,7.15651,0,0,1-.79949.43c-.86417.38089-1.73193.79171-2.57814,1.21931a11.28388,11.28388,0,0,0-2.25235,1.4816,6.89734,6.89734,0,0,0-1.58581,1.95951,5.58611,5.58611,0,0,0-.61145,2.68893,4.4805,4.4805,0,0,0,.48868,2.07808A4.7794,4.7794,0,0,0,77.04653,33.40382Z"/><path class="cls-1" d="M96.97874,34.19313l2.38351-6.54566h10.9222l2.38351,6.54566h4.16215L107.047,8.79142h-4.41248L92.85133,34.19313Zm7.79131-21.23955h.14134l4.19808,11.49113H100.536Z"/><path class="cls-1" d="M128.74285,18.93031v-3.1309h-4.19808V9.85861l-3.77169,1.56545v4.37535h-3.41476v3.1309h3.41476V29.60338a4.76954,4.76954,0,0,0,1.03125,3.3441,4.38926,4.38926,0,0,0,3.45189,1.24565h3.0231v-3.1309h-2.41824a1.34684,1.34684,0,0,1-.99652-.35573,1.63471,1.63471,0,0,1-.31979-1.10312V18.93031Z"/><polygon class="cls-1" points="150.974 30.885 135.996 30.885 135.996 22.809 149.515 22.809 149.515 19.5 135.996 19.5 135.996 12.1 150.369 12.1 150.369 8.791 132.118 8.791 132.118 34.193 150.974 34.193 150.974 30.885"/><path class="cls-1" d="M188.75749,28.53739l2.53921-2.26732-.5815-.77854-2.668,2.37513C178.5,36.36942,169.52236,39.39851,164.3038,39.39851c-2.45537,0-5.38265-.77374-5.38265-4.45919a17.77644,17.77644,0,0,1,1.33788-6.32288c8.34346-1.46723,21.66954-9.92209,28.6368-18.1913,3.09077-3.67467,4.658-6.42109,4.658-8.16261,0-1.03245-.49707-2.26253-2.8662-2.26253-2.66078,0-6.575,1.6445-9.08547,3.17282-9.87478,6.027-18.74945,15.88924-22.14444,24.59442a10.00742,10.00742,0,0,1-1.51874.1102c-2.31044,0-4.779-1.04084-4.779-3.96094,0-2.34757,1.57024-6.7337,9.05014-14.29145l.21439-.21679-.71864-.71864-.21679.21918c-6.08273,6.14681-9.29807,11.33663-9.29807,15.0077,0,3.63515,2.9692,4.92991,5.748,4.92991.35992,0,.7444-.01916,1.14744-.05629a18.94216,18.94216,0,0,0-1.13426,6.1492c0,3.4998,2.25594,5.427,6.35162,5.427C169.72777,40.36629,179.00069,37.25935,188.75749,28.53739ZM190.68765.969c1.89722,0,1.89722.97377,1.89722,1.29356,0,.69829-.433,2.83147-4.44242,7.55176-6.5253,7.6931-19.4112,15.99105-27.43786,17.74215,3.61478-8.35185,12.15288-17.76131,21.43418-23.57634C184.81812,2.29128,188.573.969,190.68765.969Z"/><rect class="cls-1" x="196.7099" y="8.79142" width="3.84236" height="25.4017"/><polygon class="cls-1" points="217.469 35.045 217.469 10.251 215.278 10.251 215.278 29.052 213.727 29.052 213.727 25.28 211.841 25.28 211.841 21.508 209.956 21.508 209.956 17.766 208.069 17.766 208.069 13.993 206.214 13.993 206.214 10.251 203.962 10.251 203.962 35.045 206.214 35.045 206.214 18.1 207.765 18.1 207.765 21.842 209.62 21.842 209.62 25.615 211.507 25.615 211.507 29.357 213.393 29.357 213.393 33.128 215.278 33.128 215.278 35.045 217.469 35.045"/><path class="cls-1" d="M227.71344,12.77631a12.93521,12.93521,0,0,0-2.95363,8.78663,12.53327,12.53327,0,0,0,2.95363,8.68123q3.20156,3.62916,8.96509,3.62916a19.56064,19.56064,0,0,0,5.7276-.81806,14.24632,14.24632,0,0,0,4.37655-2.2781v-10.067H236.35754v3.27223h6.54685v4.98141a10.102,10.102,0,0,1-2.5967,1.13785,12.3125,12.3125,0,0,1-3.27343.4276c-2.9177,0-5.05207-.854-6.43906-2.49131-1.31631-1.49358-1.95711-3.66389-1.95711-6.475,0-2.9165.67553-5.15867,2.09845-6.79479a6.80251,6.80251,0,0,1,5.44373-2.31283,7.46216,7.46216,0,0,1,4.48315,1.175,5.65624,5.65624,0,0,1,2.205,3.628h3.87829a9.14708,9.14708,0,0,0-3.27343-6.08333,11.40239,11.40239,0,0,0-7.293-2.09844A10.4606,10.4606,0,0,0,227.71344,12.77631Z"/><path class="cls-1" d="M223.83515,9.11122a16.59726,16.59726,0,0,0-5.088,12.27446,16.7065,16.7065,0,0,0,5.088,12.27325,17.34817,17.34817,0,0,0,24.54771,0,16.84639,16.84639,0,0,0,5.088-12.27325,16.735,16.735,0,0,0-5.088-12.27446,17.35107,17.35107,0,0,0-24.54771,0Zm28.03434,12.27446a15.66924,15.66924,0,0,1-15.75988,15.75988A15.339,15.339,0,0,1,224.93827,32.557a15.39377,15.39377,0,0,1-4.58975-11.17133,15.76058,15.76058,0,1,1,31.521,0Z"/></g></svg>