<svg id="圖層_1" data-name="圖層 1" xmlns="http://www.w3.org/2000/svg" viewBox="0 0 265.01367 265.01367"><path d="M226.18555,38.8291c25.79492,25.79492,38.82812,57.02149,38.82812,93.67774,0,36.38476-13.0332,67.61132-38.82812,93.67773-26.06836,25.7959-57.293,38.8291-93.67969,38.8291-36.65625,0-67.88086-13.0332-93.67774-38.8291C12.76172,200.11816,0,168.8916,0,132.50684,0,95.85059,12.76172,64.624,38.82812,38.8291,64.625,12.76172,95.84961,0,132.50586,0,168.89258,0,200.11719,12.76172,226.18555,38.8291Zm-178.93946,8.417C23.89453,70.86914,12.21875,99.37988,12.21875,132.50684s11.67578,61.36621,35.02734,85.26074c23.62305,23.35156,52.13477,35.02734,85.25977,35.02734,33.12695,0,61.36719-11.67578,85.26172-35.02734,23.35156-23.89453,35.02734-52.13379,35.02734-85.26074s-11.67578-61.6377-35.02734-85.26075c-23.89453-23.35156-52.13477-35.02734-85.26172-35.02734C99.38086,12.21875,70.86914,23.89453,47.24609,47.24609Zm172.15039,8.00213V208.68049a1.48455,1.48455,0,0,1-1.48455,1.48455H196.9865a1.48456,1.48456,0,0,1-1.48455-1.48455v-8.70668a1.48454,1.48454,0,0,0-1.48455-1.48455H70.99627a1.48455,1.48455,0,0,0-1.48455,1.48455v8.70668a1.48456,1.48456,0,0,1-1.48455,1.48455H47.10174a1.48455,1.48455,0,0,1-1.48455-1.48455V55.24822a1.48455,1.48455,0,0,1,1.48455-1.48455H217.91193A1.48455,1.48455,0,0,1,219.39648,55.24822ZM70.99627,175.40918H194.0174a1.48455,1.48455,0,0,0,1.48455-1.48455V149.93a1.48824,1.48824,0,0,0-2.53013-1.05325c-3.40021,3.16365-8.3552,4.80976-15.12026,4.80976h-16.291c-7.06055,0-12.49024-1.90136-15.74805-5.15918-3.25977-3.25879-4.88867-8.418-4.88867-14.93457v-54.993a1.48456,1.48456,0,0,0-1.48455-1.48456h-19.568a1.48456,1.48456,0,0,0-1.48455,1.48456v23.22443c0,15.47754-2.98633,28.23926-8.6875,38.55664-4.73144,7.88448-12.00591,15.25943-21.82163,22.61889a1.49545,1.49545,0,0,1-1.8942-.08716L71.19506,149.53321a1.48708,1.48708,0,0,1,.175-2.33517c7.899-5.35054,13.8701-10.71585,17.69239-16.32011,4.88672-7.875,7.33008-17.9209,7.33008-29.86816v-22.41A1.48456,1.48456,0,0,0,94.908,77.11523H70.99627a1.48456,1.48456,0,0,0-1.48455,1.48456v95.32484A1.48456,1.48456,0,0,0,70.99627,175.40918ZM162.918,129.249a5.79188,5.79188,0,0,0,1.429,4.13391,1.4702,1.4702,0,0,0,.45684.33548,9.53222,9.53222,0,0,0,4.3603.9603h4.07227c3.80078,0,5.70117-1.90039,6.24609-5.70117l.941-12.23491a1.48456,1.48456,0,0,1,1.942-1.29707l11.19028,3.66253a1.48455,1.48455,0,0,0,1.94633-1.4109V78.59979a1.48455,1.48455,0,0,0-1.48455-1.48456H164.40252a1.48456,1.48456,0,0,0-1.48455,1.48456Z"/></svg>