<?xml version="1.0" encoding="UTF-8"?><svg id="_圖層_3" xmlns="http://www.w3.org/2000/svg" viewBox="0 0 773.61 120.68"><polygon points="31.22 43.65 47.88 43.65 47.88 86.95 55.41 86.95 55.41 43.65 72 43.65 72 37.17 31.22 37.17 31.22 43.65"/><polygon points="85.59 64.64 112.08 64.64 112.08 58.15 85.59 58.15 85.59 43.65 113.75 43.65 113.75 37.17 77.99 37.17 77.99 86.95 114.94 86.95 114.94 80.46 85.59 80.46 85.59 64.64"/><polygon points="143.92 52.1 143.92 60.81 152.64 60.81 152.64 52.1 152.64 43.38 143.92 43.38 143.92 52.1"/><polygon points="143.92 86.95 152.64 86.95 152.64 78.23 152.64 69.52 143.92 69.52 143.92 78.23 143.92 86.95"/><polygon points="126.5 60.81 126.5 52.1 126.5 43.38 135.21 43.38 143.92 43.38 143.92 34.67 135.21 34.67 126.5 34.67 117.79 34.67 117.79 43.38 117.79 52.1 117.79 60.81 117.79 69.52 117.79 78.23 117.79 86.95 126.5 86.95 126.5 78.23 126.5 69.52 135.21 69.52 143.92 69.52 143.92 60.81 135.21 60.81 126.5 60.81"/><path d="M183.59,53.48c1.95-.84,3-2.37,3-4.6,0-2.02-.63-3.49-1.88-4.46-1.25-.98-3-1.46-5.37-1.46h-8.65v20.08h4.18v-7.81h3.63c1.53,0,2.51,.42,3.07,1.26,.28,.49,.56,1.53,.7,3.07,.14,1.53,.49,2.72,.98,3.49h4.74c-.98-.98-1.46-2.58-1.6-4.67-.14-2.79-1.12-4.39-2.79-4.88Zm-4.6-1.88h-4.11v-5.09h4.11c2.23,0,3.42,.84,3.42,2.51s-1.19,2.58-3.42,2.58Z"/><path d="M178.78,36.19c-4.67,0-8.65,1.6-11.85,4.88-3.35,3.28-4.95,7.25-4.95,11.92s1.6,8.57,4.95,11.92c3.21,3.21,7.18,4.88,11.85,4.88s8.58-1.67,11.85-4.88c3.28-3.35,4.95-7.32,4.95-11.92s-1.67-8.65-4.95-11.92c-3.28-3.28-7.25-4.88-11.85-4.88Zm9.97,26.77c-2.79,2.72-6.07,4.11-9.97,4.11s-7.25-1.39-9.97-4.11c-2.79-2.79-4.11-6.07-4.11-9.97s1.32-7.25,4.11-10.04c2.72-2.79,6.07-4.11,9.97-4.11s7.18,1.32,9.97,4.11c2.72,2.79,4.11,6.14,4.11,10.04s-1.4,7.18-4.11,9.97Z"/><rect x="201.22" y="37.17" width="7.53" height="49.78"/><polygon points="218.65 86.95 226.25 86.95 226.25 64.64 251 64.64 251 58.15 226.25 58.15 226.25 43.65 252.46 43.65 252.46 37.17 218.65 37.17 218.65 86.95"/><polygon points="257.4 42.33 263.32 43.72 263.32 81.37 257.4 82.76 257.4 86.95 276.57 86.95 276.57 82.76 270.64 81.37 270.64 43.72 276.57 42.33 276.57 38.15 257.4 38.49 257.4 42.33"/><path d="M313.68,80.18c-2.95,.88-6.05,1.33-9.31,1.33-4.83,0-8.4-.78-10.7-2.34-2.3-1.56-3.45-3.59-3.45-6.1,0-1.77,.49-3.23,1.46-4.39,.98-1.16,2.35-2.02,4.11-2.58,1.77-.56,3.83-.84,6.2-.84h12.83v-5.99h-12.55c-3.21,0-5.67-.65-7.39-1.95-1.72-1.3-2.58-3.16-2.58-5.57s1.08-4.26,3.24-5.82c2.16-1.56,5.42-2.34,9.79-2.34,2.51,0,4.91,.27,7.21,.8,2.3,.53,4.54,1.38,6.73,2.54l2.02-5.57c-2.09-1.21-4.55-2.14-7.39-2.79-2.83-.65-5.78-.98-8.85-.98-4.42,0-8.1,.63-11.05,1.88-2.95,1.26-5.13,2.92-6.55,4.98-1.42,2.07-2.13,4.34-2.13,6.8,0,2.28,.5,4.32,1.5,6.13,1,1.81,2.44,3.23,4.32,4.25,.26,.14,.53,.25,.8,.37-.54,.19-1.08,.4-1.6,.64-2.14,1-3.86,2.43-5.16,4.28-1.3,1.86-1.95,4.07-1.95,6.62,0,2.7,.78,5.1,2.34,7.22,1.56,2.11,3.88,3.76,6.97,4.95,3.09,1.19,6.91,1.78,11.47,1.78,4,0,7.69-.5,11.08-1.5,3.39-1,6.13-2.38,8.22-4.15l-2.37-5.44c-1.91,1.63-4.33,2.88-7.28,3.76Z"/><path d="M386.57,49.72c-.47-1.45-1.1-2.86-1.86-4.19-.66-1.16-1.46-2.22-2.37-3.17,1.55-1.39,3.28-2.58,5.15-3.52,2.05-1.04,4.24-1.77,6.49-2.17l.63-.11-.43-1.71-.54,.08c-2.51,.38-4.92,1.14-7.15,2.25-2.07,1.03-4.06,2.26-5.94,3.65-1.9-1.39-4.01-2.49-6.29-3.27-2.43-.83-5.05-1.25-7.79-1.25-4.61,0-8.97,.87-12.96,2.59-3.97,1.71-7.46,3.93-10.38,6.59-2.92,2.66-5.25,5.61-6.92,8.77-1.69,3.19-2.55,6.31-2.55,9.27,0,1.68,.23,3.31,.69,4.84,.46,1.55,1.15,2.93,2.05,4.1,.91,1.18,2.08,2.14,3.48,2.85,1.41,.71,3.06,1.08,4.91,1.08,2.41,0,4.66-.53,6.69-1.57,2.02-1.03,3.8-2.49,5.28-4.34,1.48-1.83,2.64-4.03,3.45-6.53,.81-2.49,1.21-5.23,1.21-8.16v-2.62h-2.04v2.97c0,2.39-.34,4.71-1.02,6.9-.67,2.18-1.62,4.11-2.8,5.75-1.18,1.62-2.61,2.92-4.27,3.87-1.64,.94-3.47,1.42-5.45,1.42-1.57,0-2.88-.27-3.91-.81-1.02-.53-1.86-1.27-2.5-2.21-.65-.95-1.11-2.06-1.37-3.31-.27-1.28-.41-2.65-.41-4.09,0-3.6,.82-6.98,2.44-10.03,1.63-3.07,3.82-5.78,6.51-8.05,2.7-2.27,5.83-4.06,9.3-5.33,3.47-1.27,7.1-1.91,10.77-1.91,1.94,0,4.1,.33,6.42,.99,2.07,.58,4,1.55,5.74,2.88-2.28,1.97-4.41,4.28-6.33,6.88-2.06,2.78-4.04,5.74-5.89,8.79-1.82,3.02-3.62,6.1-5.34,9.18-1.7,3.03-3.46,5.85-5.23,8.38-1.75,2.51-3.63,4.7-5.57,6.53-1.86,1.75-3.92,2.93-6.14,3.52-1.15-.18-2.12-.34-2.92-.5-.83-.16-1.59-.31-2.26-.45-.69-.14-1.31-.25-1.86-.32-1.43-.18-2.93-.15-3.87,.25-.71,.3-1.1,.91-1.1,1.7s.47,1.43,1.31,1.72c.68,.23,1.58,.35,2.78,.35,.94,0,1.78-.02,2.51-.07,.74-.05,1.41-.12,2.01-.22,.59-.1,1.17-.2,1.77-.32,.54-.11,1.1-.21,1.7-.29,.75,.18,1.5,.34,2.24,.5,.77,.16,1.63,.31,2.56,.43,.92,.12,1.94,.21,3.07,.28,1.13,.07,2.44,.1,3.87,.1,3.87,0,7.74-.78,11.52-2.31,3.76-1.53,7.19-3.65,10.17-6.31,2.99-2.66,5.44-5.86,7.28-9.52,1.85-3.67,2.78-7.69,2.78-11.94,0-1.42-.11-2.9-.32-4.41-.21-1.52-.56-3.01-1.04-4.46Zm-32.36,32.78c2.42-1.95,4.64-4.2,6.61-6.68,1.96-2.47,3.8-5.17,5.48-8.01,1.69-2.87,3.34-5.76,4.89-8.59,1.57-2.87,3.18-5.68,4.76-8.34,1.45-2.44,3.04-4.67,4.74-6.64,.87,1.09,1.52,2.42,1.93,3.95,.49,1.82,.75,3.66,.75,5.45,0,2.41-.27,4.94-.79,7.51-.52,2.57-1.32,5.11-2.37,7.55-1.04,2.43-2.36,4.77-3.91,6.96-1.54,2.17-3.39,4.09-5.49,5.69-2.1,1.6-4.5,2.9-7.12,3.85-2.62,.95-5.55,1.43-8.72,1.43-1.84,0-3.5-.05-4.95-.14-.76-.05-1.52-.12-2.27-.22,2.36-.95,4.52-2.21,6.45-3.76Z"/><path d="M399.73,78.44c-1.05-.98-2.3-1.46-3.7-1.46-1.53,0-2.72,.49-3.63,1.46-1.05,.98-1.53,2.23-1.53,3.76,0,1.39,.49,2.65,1.53,3.69,.91,.91,2.09,1.4,3.63,1.4,1.39,0,2.65-.49,3.7-1.4,.98-1.04,1.53-2.3,1.53-3.69,0-1.53-.56-2.79-1.53-3.76Z"/></svg>