<svg id="圖層_1" data-name="圖層 1" xmlns="http://www.w3.org/2000/svg" viewBox="0 0 104.81071 40.83094"><polygon points="0 32.986 4.185 32.986 4.185 21.531 18.147 21.531 18.147 17.733 4.185 17.733 4.185 8.455 19.843 8.455 19.843 4.658 0 4.658 0 32.986"/><path d="M37.9099,6.84672a17.20168,17.20168,0,0,0-2.7444,1.18582,24.56793,24.56793,0,0,0-2.83532,1.77029c-3.12626,2.25085-4.64588,4.28155-4.64588,6.209a2.5785,2.5785,0,0,0,1.09036,2.20474,21.36727,21.36727,0,0,0-5.4362,4.09777,8.22077,8.22077,0,0,0-2.47165,5.505,5.06942,5.06942,0,0,0,.94619,3.04638,5.75147,5.75147,0,0,0,2.64179,1.95342,10.6292,10.6292,0,0,0,3.83866.63707,17.40455,17.40455,0,0,0,4.35818-.62408,27.75053,27.75053,0,0,0,4.81472-1.77484l.302-.14287.79682-3.95035-1.24427.665c-1.61767.86437-3.0756,1.57157-4.33285,2.10214a24.31809,24.31809,0,0,1-3.39771,1.17348c-2.347.58772-4.16921.51174-5.35113-.44679A2.43382,2.43382,0,0,1,23.2891,28.461c0-1.82744,1.506-3.86593,4.47508-6.05769a28.46114,28.46114,0,0,1,5.57453-3.25679l.31951-.13767.47731-2.34372-1.10594.00065A6.53514,6.53514,0,0,1,31.4262,16.471a1.29864,1.29864,0,0,1-.56758-.46887,1.09311,1.09311,0,0,1-.2247-.64876,3.88585,3.88585,0,0,1,.96567-2.17812A12.06415,12.06415,0,0,1,34.433,10.588a14.33949,14.33949,0,0,1,2.71778-1.49364A6.0398,6.0398,0,0,1,39.31,8.56051c.8793,0,.8793.337.8793.63382,0,.75916-.47991,2.19306-2.76583,4.71341l-.40653.44874,1.8677,2.0424.4916-.47277a14.3959,14.3959,0,0,0,1.89628-2.25151,12.09009,12.09009,0,0,0,1.30271-2.4132,6.11437,6.11437,0,0,0,.47017-2.18006,2.58734,2.58734,0,0,0-.75915-1.93849C41.37579,6.26355,39.86267,6.22329,37.9099,6.84672Z"/><path d="M51.98259,2.921a9.71637,9.71637,0,0,0-3.04248.4968A8.16473,8.16473,0,0,0,46.36,4.76471l-.47082.37731,1.39817,2.14175.57538-.49225a5.1916,5.1916,0,0,1,1.74561-.954,7.25894,7.25894,0,0,1,2.29631-.35133,3.52127,3.52127,0,0,1,2.33852.64421,2.46814,2.46814,0,0,1,.69942,1.969v.2221H51.28772A6.34528,6.34528,0,0,0,47.07436,9.4463a3.64255,3.64255,0,0,0-1.34947,2.8574,3.69977,3.69977,0,0,0,1.46636,3.02755,6.09212,6.09212,0,0,0,3.86528,1.10789,6.7871,6.7871,0,0,0,3.52435-.84683,5.70456,5.70456,0,0,0,.47731-.31951v1.05074h2.75739V8.13839a4.88887,4.88887,0,0,0-1.56442-3.91853A6.39831,6.39831,0,0,0,51.98259,2.921Zm-.61824,11.06983a3.89773,3.89773,0,0,1-2.221-.51563,1.37047,1.37047,0,0,1-.62343-1.2105,1.31838,1.31838,0,0,1,.57018-1.11179,3.90414,3.90414,0,0,1,2.35216-.49875H54.9426v1.38519a3.30142,3.30142,0,0,1-1.2644,1.41312A4.40856,4.40856,0,0,1,51.36435,13.99087Z"/><path d="M104.51133,11.64715a15.47494,15.47494,0,0,0-3.85034.04546,8.36241,8.36241,0,0,0,.06624-1.02282A5.503,5.503,0,0,0,96.90935,5.029C96.55867,1.87484,94.276,0,90.7614,0,85.19531,0,76.71793,5.04266,75.27819,14.511l-.04806.31432.97282.19352.052-.34419C77.61022,5.74207,85.55054.9845,90.7614.9845c2.84506,0,4.68224,1.36571,5.1089,3.76723a10.20626,10.20626,0,0,0-1.98265-.189c-6.6454,0-12.90245,6.046-12.90245,10.73213,0,2.42035,2.306,3.52239,4.44845,3.52239,5.63557,0,11.36206-8.04033,11.52571-12.69984A4.62353,4.62353,0,0,1,99.744,10.66979a7.32442,7.32442,0,0,1-.09871,1.18647c-4.85238,1.02347-8.20138,4.36857-11.43609,8.06241a1.77838,1.77838,0,0,0-1.34038-.80916c-.52147,0-1.13.37081-1.13,1.417a2.05274,2.05274,0,0,0,.69032,1.43974C83.0094,25.86986,77.81153,30.882,71.49213,30.882c-5.18228,0-8.154-1.92549-8.154-5.28229,0-3.92178,4.36143-8.154,11.40751-8.154,3.68995,0,5.24723,1.57677,5.52388,3.20808a15.10641,15.10641,0,0,0-5.04461-.90527c-5.19982,0-9.2333,3.11132-9.2333,5.78753,0,2.421,3.39576,3.42628,5.21346,3.42628,4.47183,0,9.19628-3.75293,9.97687-6.8649a20.38624,20.38624,0,0,1,2.38592,1.2657l.25912.15975.58706-.78708-.302-.19223a19.47,19.47,0,0,0-2.81454-1.48195c-.07014-2.15279-1.8138-4.59911-6.55189-4.59911-7.65328,0-12.39072,4.74263-12.39072,9.13718,0,3.4094,3.8471,6.93569,10.28534,6.93569,6.85971,0,9.79439-3.79969,12.90051-7.82213.552-.715,1.12153-1.45208,1.719-2.17617a3.56786,3.56786,0,0,0,.36562.14352c-.165.74812-.34094,1.41246-.53381,2.12746a36.58031,36.58031,0,0,0-1.63976,9.02224A6.91617,6.91617,0,0,0,92.42,40.83094c2.773,0,6.01093-1.77484,6.01093-6.77723A10.4802,10.4802,0,0,0,90.225,23.64758l-.3299-.07144-.19418.97412.32276.06689a9.441,9.441,0,0,1,7.42274,9.43656c0,4.27571-2.70738,5.79273-5.02642,5.79273A5.9418,5.9418,0,0,1,86.435,33.83031a33.264,33.264,0,0,1,1.48844-8.28646c.24028-.876.48836-1.77873.67993-2.684.09806.00584.20067.00974.30717.00974,5.84923,0,10.512-5.23359,11.57312-10.1691a15.37106,15.37106,0,0,1,3.96139-.074l.36562.037V11.677Zm-17.788,8.87937c0-.24678.06235-.43251.14547-.43251.18833,0,.47082.20392.676.58577l-.48511.55784A1.1032,1.1032,0,0,1,86.72337,20.52652Zm1.92225.34743c3.0795-3.601,6.24342-6.89607,10.79773-7.9676-1.143,4.41144-5.35893,8.97873-10.53277,8.97873-.0526,0-.10325-.00065-.15066,0,.00325-.0513.00519-.1.00519-.14547A3.19006,3.19006,0,0,0,88.64562,20.874Zm-4.10556-3.51914c-1.17283,0-2.57036-.35718-2.57036-2.05993,0-4.929,6.824-9.74893,11.91795-9.74893a8.39433,8.39433,0,0,1,2.09045.24418c.00065.04221.00065.08442.00065.126C95.97875,9.95609,89.25347,17.35481,84.54006,17.35481Zm-9.31512,3.37692a14.15639,14.15639,0,0,1,5.00239.97476c-.7124,2.33528-5.90637,5.6661-9.947,5.6661-.33834,0-3.30549-.05131-3.30549-1.83653C66.97485,23.62355,70.2654,20.73173,75.22494,20.73173Z"/><path d="M100.54409,29.052a2.56136,2.56136,0,0,0-.80007.89748,2.58867,2.58867,0,0,0-.30782,1.25986,1.823,1.823,0,0,0,1.9833,1.98459,2.14943,2.14943,0,0,0,1.63391-.75851,2.51684,2.51684,0,0,0,.65071-1.73392,2.01648,2.01648,0,0,0-.541-1.43844A2.07045,2.07045,0,0,0,100.54409,29.052Z"/></svg>