<?xml version="1.0" encoding="UTF-8"?><svg id="_圖層_3" xmlns="http://www.w3.org/2000/svg" viewBox="0 0 773.61 120.68"><path d="M103.62,65.33h22.76v-5.57h-22.76v-12.46h24.2v-5.57h-24.67c2.76-1.03,4.42-2.58,4.42-4.07,0-.65-.38-2.76-5.25-2.76s-9.66,1.38-14.05,4.2c-.95-.41-1.97-.89-3.04-1.39-4.02-1.88-8.57-4.01-12.39-4.01-1.7,0-3.48,.3-5.29,.9-.67-1.8-2.33-2.82-4.65-2.82-1.88,0-4.16,.92-6.12,2.46-6.01,4.74-9.35,15.77-9.49,16.23l-.19,.63,1.79,.36,.16-.53c.03-.11,3.22-10.77,8.84-15.27,1.69-1.34,3.47-2.08,5.02-2.08,2.04,0,2.64,.89,2.83,1.72-4.76,2.06-9.43,6.22-9.43,11.1,0,1.54,.94,2.46,2.52,2.46,6.59,0,9.05-7.64,9.05-12.46h0c1.7-.59,3.41-.89,4.97-.89,3.12,0,7.49,2.01,11.34,3.78,.79,.36,1.56,.72,2.3,1.05-6.6,4.91-11.96,12.61-16.7,19.43l-1.12,1.56c-2.06-.47-3.99-.98-5.86-1.47-5.69-1.5-11.06-2.92-18.95-2.92-13.3,0-23.24,10-23.24,18.93,0,5.77,5.01,11.99,16,11.99,16.7,0,23.92-10.91,31.56-22.46,.27-.41,.54-.81,.8-1.22,.19-.29,.38-.58,.57-.87,1.45,.27,3.05,.53,4.61,.65l-1.7,2.5,1.27,.64,2.7-3.08c3.04-.03,5.88-.58,8.92-1.71l.58-.22-.68-1.72-.55,.21c-2.34,.87-4.47,1.37-6.58,1.56l2.7-3.05-3.29-.12-2.19,3.24c-1.43-.04-2.97-.21-4.68-.5l.61-.88c4.82-6.97,10.53-14.78,17.43-19.55,2.89,1.13,5.18,1.66,7.17,1.66,.43,0,.82-.04,1.23-.06v41.62h31.75v-5.57h-25.22v-13.6Zm-1.29-28.63c2.24,0,3.05,.57,3.05,.95,0,1.01-3.34,3.47-9.52,3.47-1.41,0-3.09-.36-5.22-1.11,3.81-2.22,7.65-3.31,11.69-3.31Zm-44.2,9.7c0-3.31,3.11-6.97,7.66-9.14-.59,5.64-5.24,9.67-7.24,9.67-.18,0-.41,0-.41-.53Zm-35.7,29.47c0-10.61,12.49-17.13,21.44-17.13,7.31,0,12.51,1.34,18.03,2.75,1.81,.46,3.67,.94,5.62,1.37-10.32,13.36-23.75,22.28-33.65,22.28-5.54,0-11.43-3.25-11.43-9.28Z"/><path d="M161,38.25c-1.56,.5-3.24,1.23-4.98,2.15-1.74,.92-3.47,2-5.15,3.21-5.67,4.09-8.43,7.77-8.43,11.27,0,1.13,.31,2.86,1.98,4-4.13,2.29-7.45,4.79-9.87,7.44-2.98,3.26-4.49,6.62-4.49,9.99,0,2.1,.58,3.96,1.72,5.53,1.12,1.55,2.74,2.74,4.8,3.55,1.98,.77,4.32,1.16,6.97,1.16,2.38,0,5.04-.38,7.91-1.13,2.85-.74,5.79-1.83,8.74-3.22l.55-.26,1.45-7.17-2.26,1.21c-2.94,1.57-5.58,2.85-7.86,3.82-2.25,.95-4.33,1.66-6.17,2.13-4.26,1.07-7.57,.93-9.71-.81-1.16-.94-1.72-2.13-1.72-3.62,0-3.32,2.73-7.02,8.12-11,3.38-2.49,6.78-4.48,10.12-5.91l.58-.25,.87-4.25h-2.01c-1.89-.08-2.67-.27-2.91-.35-.4-.17-.74-.44-1.03-.85-.27-.38-.41-.77-.41-1.18,0-1.09,.59-2.42,1.75-3.95,1.25-1.64,2.98-3.22,5.14-4.7,1.64-1.13,3.29-2.04,4.93-2.71,1.57-.64,2.89-.97,3.92-.97,1.6,0,1.6,.61,1.6,1.15,0,1.38-.87,3.98-5.02,8.56l-.74,.81,3.39,3.71,.89-.86c1.26-1.21,2.42-2.59,3.44-4.09,1.03-1.51,1.83-2.98,2.36-4.38,.57-1.45,.85-2.79,.85-3.96,0-1.45-.46-2.63-1.38-3.52-1.66-1.6-4.4-1.67-7.94-.54Z"/><polygon points="183.98 41.73 177.51 41.73 177.51 84.49 207.52 84.49 207.52 78.92 183.98 78.92 183.98 41.73"/><polygon points="261.53 73.53 261.29 73.53 239.43 41.73 232.84 41.73 232.84 84.49 239.37 84.49 239.37 52.33 239.61 52.33 261.71 84.49 268.06 84.49 268.06 41.73 261.53 41.73 261.53 73.53"/><path d="M306.08,40.33c-2.3-1.42-4.98-2.14-7.97-2.14-3.22,0-6.4,.87-9.47,2.57-3.05,1.69-5.8,4.03-8.19,6.93-2.38,2.89-4.29,6.25-5.7,9.96-1.41,3.72-2.12,7.56-2.12,11.43,0,2.41,.35,4.67,1.06,6.71,.71,2.06,1.74,3.85,3.08,5.3,1.34,1.46,2.97,2.6,4.86,3.38,1.88,.78,3.94,1.17,6.13,1.17,2.48,0,4.92-.45,7.26-1.34,2.33-.89,4.57-2.23,6.65-3.98,2.08-1.75,3.96-3.87,5.6-6.29,1.92-2.84,3.42-5.92,4.48-9.16,1.06-3.25,1.6-6.52,1.6-9.71s-.64-6.25-1.89-8.81c-1.26-2.57-3.07-4.6-5.37-6.02Zm-26.99,36.74c-.89-2.01-1.33-4.43-1.33-7.18,0-2.97,.47-6.24,1.38-9.74,.92-3.5,2.1-6.54,3.53-9.03,1.26-2.24,2.71-4.17,4.29-5.73,1.57-1.55,3.27-2.74,5.05-3.54,1.77-.79,3.58-1.19,5.38-1.19s3.27,.3,4.57,.89c1.3,.59,2.43,1.44,3.34,2.54,.92,1.11,1.64,2.49,2.14,4.1,.5,1.63,.76,3.5,.76,5.55,0,2.63-.36,5.57-1.08,8.74-.72,3.17-1.61,5.92-2.66,8.17-1.18,2.53-2.64,4.78-4.34,6.69-1.7,1.9-3.58,3.38-5.59,4.41-4.09,2.1-8.52,2.01-11.68-.07-1.62-1.07-2.89-2.61-3.76-4.59Z"/><polygon points="328.35 47.3 342.6 47.3 342.6 84.49 349.13 84.49 349.13 47.3 363.39 47.3 363.39 41.73 328.35 41.73 328.35 47.3"/><path d="M323.26,34.96c-4.43,8.86-6.65,18.15-6.65,27.97s2.22,19.11,6.65,27.97h3.06c-4.61-8.92-6.89-18.27-6.89-27.97s2.28-19.11,6.89-27.97h-3.06Z"/><path d="M365.37,34.96c4.55,8.86,6.89,18.21,6.89,27.97s-2.34,19.05-6.89,27.97h3.05c4.43-8.86,6.65-18.21,6.65-27.97s-2.22-19.11-6.65-27.97h-3.05Z"/><path d="M394.1,42.08l3.48,.3c.12,5.75,.12,11.56,.12,17.37h-10.9c0-5.81,0-11.62,.12-17.31l3.48-.36v-2.4h-12.46v2.4l3.12,.3c.12,5.99,.12,11.98,.12,18.09v3.18c0,5.99,0,12.1-.12,18.09l-3.12,.3v2.46h12.46v-2.46l-3.48-.36c-.12-5.81-.12-11.98-.12-19.29h10.9c0,7.31,0,13.48-.12,19.35l-3.48,.3v2.46h12.46v-2.46l-3.11-.3c-.12-5.99-.12-12.1-.12-18.09v-3.18c0-6.11,0-12.1,.12-18.09l3.11-.3v-2.4h-12.46v2.4Z"/><rect x="413.02" y="41.73" width="6.47" height="42.77"/><polygon points="458.17 73.53 457.93 73.53 436.07 41.73 429.48 41.73 429.48 84.49 436.01 84.49 436.01 52.33 436.25 52.33 458.35 84.49 464.7 84.49 464.7 41.73 458.17 41.73 458.17 73.53"/><path d="M495.43,66.14l7.62,.58c.1,3.84,.15,7.84,.15,11.63v2.09c-2.6,1.24-5.43,1.8-9.05,1.8-10.01,0-16.23-7.42-16.23-19.37s6.31-19.42,16.47-19.42c3.73,0,6.35,.56,8.86,1.93l1.4,8.91h4.76l-.28-11.17-.56-.34c-4.27-2.61-8.79-3.77-14.65-3.77-13.82,0-23.11,9.59-23.11,23.86s9.22,23.86,22.93,23.86c5.26,0,9.92-.7,15.52-4.12l.58-.35v-3.81c0-4.51,.05-8.34,.1-11.82l5.46-.52v-4.22h-19.97v4.24Z"/><path d="M532.76,77.18c-.9-.84-1.98-1.26-3.18-1.26-1.32,0-2.34,.42-3.11,1.26-.9,.84-1.32,1.92-1.32,3.23,0,1.2,.42,2.28,1.32,3.18,.78,.78,1.8,1.2,3.11,1.2,1.2,0,2.28-.42,3.18-1.2,.84-.9,1.32-1.98,1.32-3.18,0-1.32-.48-2.4-1.32-3.23Z"/></svg>