<?xml version="1.0" encoding="UTF-8"?><svg id="_圖層_3" xmlns="http://www.w3.org/2000/svg" viewBox="0 0 773.61 120.68"><path d="M60.66,63.96c-1.86-.99-3.91-1.81-6.12-2.44-2.14-.61-4.29-1.18-6.46-1.69-2.08-.5-4.03-1.07-5.78-1.71-1.61-.59-2.91-1.4-3.87-2.42-.89-.94-1.32-2.19-1.32-3.79,0-1.44,.38-2.7,1.15-3.84,.77-1.13,2.02-2.05,3.7-2.75,3.08-1.27,8.09-1.61,13.32-.16,2.23,.62,4.36,1.6,6.34,2.92l1.21,.81,2.7-6.38-.81-.56c-2.06-1.42-4.54-2.55-7.36-3.35-2.8-.8-5.67-1.2-8.52-1.2-4.31,0-7.92,.66-10.73,1.97-2.86,1.33-5.03,3.13-6.43,5.35-1.4,2.21-2.11,4.68-2.11,7.33,0,2.85,.62,5.21,1.85,7.02,1.2,1.76,2.8,3.2,4.76,4.27,1.86,1.02,3.94,1.84,6.18,2.45,2.16,.59,4.32,1.14,6.48,1.66,2.09,.5,4.02,1.09,5.73,1.74,1.59,.61,2.89,1.44,3.86,2.46,.89,.94,1.32,2.19,1.32,3.79,0,1.35-.38,2.54-1.15,3.65-.77,1.1-2.02,2.01-3.73,2.68-1.78,.71-4.17,1.07-7.08,1.07-3.06,0-6.01-.55-8.77-1.63-2.75-1.08-4.96-2.42-6.56-3.98l-1.18-1.14-3.17,6.22,.6,.62c1.94,1.99,4.7,3.63,8.19,4.88,3.45,1.23,7.11,1.86,10.87,1.86,4.36,0,8-.66,10.83-1.97,2.88-1.33,5.07-3.12,6.5-5.34,1.43-2.22,2.15-4.67,2.15-7.27,0-2.8-.63-5.13-1.86-6.92-1.2-1.74-2.8-3.15-4.76-4.19Z"/><path d="M111.12,77.62c-1.73,1.6-4.03,2.88-6.84,3.8-2.85,.93-5.98,1.41-9.29,1.41-4.81,0-8.38-.82-10.64-2.43-2.16-1.54-3.21-3.49-3.21-5.95,0-1.78,.45-3.19,1.37-4.31,.95-1.15,2.3-2.02,4.04-2.6,1.83-.61,3.98-.92,6.41-.92h13.6v-6.89h-13.39c-3.26,0-5.78-.67-7.49-1.99-1.64-1.26-2.43-3.03-2.43-5.41s.99-4.14,3.02-5.69c2.11-1.6,5.4-2.42,9.77-2.42,2.46,0,4.84,.28,7.1,.84,2.24,.55,4.4,1.44,6.43,2.63l1.22,.72,2.49-6.39-.86-.53c-2.15-1.32-4.72-2.35-7.63-3.05-2.88-.7-5.89-1.05-8.96-1.05-4.35,0-8.05,.65-11.01,1.92-3.02,1.3-5.33,3.08-6.85,5.29-1.54,2.23-2.31,4.71-2.31,7.37s.6,4.84,1.78,6.84c.97,1.64,2.27,3,3.88,4.05-2.26,1.06-4.1,2.55-5.5,4.45-1.5,2.05-2.26,4.56-2.26,7.47s.84,5.47,2.51,7.75c1.65,2.26,4.08,4.03,7.22,5.28,3.07,1.22,6.94,1.83,11.51,1.83,4.12,0,7.96-.55,11.42-1.63,3.52-1.1,6.39-2.69,8.53-4.73l.64-.62-3.08-6.16-1.18,1.09Z"/><path d="M155.28,39.01h-9.89c-.56,0-1.02,.46-1.02,1.02v16.07c0,.8-.65,1.45-1.45,1.45h-9.89c-.8,0-1.45-.65-1.45-1.45v-16.07c0-.56-.46-1.02-1.02-1.02h-9.89c-.56,0-1.02,.46-1.02,1.02v16.07c0,.56,.46,1.02,1.02,1.02h9.89c.8,0,1.45,.65,1.45,1.45v3.71c0,.56,.46,1.02,1.02,1.02h9.89c.56,0,1.02-.46,1.02-1.02v-3.71c0-.8,.65-1.45,1.45-1.45h9.89c.56,0,1.02-.46,1.02-1.02v-16.07c0-.56-.46-1.02-1.02-1.02Z"/><path d="M155.28,69.92h-9.89c-.8,0-1.45-.65-1.45-1.45v-3.71c0-.56-.46-1.02-1.02-1.02h-9.89c-.56,0-1.02,.46-1.02,1.02v3.71c0,.8-.65,1.45-1.45,1.45h-9.89c-.56,0-1.02,.46-1.02,1.02v16.07c0,.56,.46,1.02,1.02,1.02h9.89c.56,0,1.02-.46,1.02-1.02v-16.07c0-.8,.65-1.45,1.45-1.45h9.89c.8,0,1.45,.65,1.45,1.45v16.07c0,.56,.46,1.02,1.02,1.02h9.89c.56,0,1.02-.46,1.02-1.02v-16.07c0-.56-.46-1.02-1.02-1.02Z"/><path d="M189.86,72.4c0,4.1-.66,7.06-1.97,8.89-1.31,1.82-3.37,2.73-6.17,2.73-5.58,0-8.38-3.85-8.38-11.56V39.79h-5.61v33.2c0,10.64,4.66,15.97,13.98,15.97,4.63,0,8.07-1.29,10.34-3.86,2.27-2.57,3.4-6.66,3.4-12.24V39.79h-5.61v32.62Z"/><path d="M225.52,37.05c-1.9-1.63-4.62-2.46-8.07-2.46-1.93,0-3.85,.3-5.69,.9-1.85,.6-3.45,1.42-4.77,2.43l-.85,.66,2.74,4.57,1.08-.87c.86-.7,1.93-1.27,3.16-1.69,1.24-.42,2.59-.64,3.99-.64,1.84,0,3.21,.36,4.05,1.08,.78,.66,1.17,1.72,1.18,3.23h-6.14c-3.48,0-6,.64-7.71,1.97-1.77,1.38-2.67,3.24-2.67,5.54s.91,4.17,2.7,5.57c1.7,1.33,4.1,2.01,7.11,2.01,2.13,0,4-.37,5.55-1.09,.52-.24,1-.51,1.43-.81v1.69h5.84v-14.65c0-3.25-.99-5.74-2.94-7.43h0Zm-13.79,14.5c0-.71,.29-1.22,.93-1.66,.53-.35,1.65-.78,3.95-.78h5.72v2.09c-1.08,2.11-3.02,3.13-5.93,3.13-1.61,0-2.84-.28-3.66-.84-.7-.48-1.01-1.08-1.01-1.95Z"/><path d="M273,41.96c-1.93-1.2-4.58-1.31-7.12-.04-1.16,.58-2.29,1.41-3.36,2.48-1.05,1.04-1.98,2.26-2.78,3.62-.84,1.42-1.59,3.11-2.21,5.03-.62,1.89-1.29,4.53-2,7.85l-2.43,11.42c-.47,2.25-.91,4.02-1.32,5.28-.3,.92-.67,1.82-1.11,2.68-6.81-1.85-12.67-1.85-16.09-.06-2.43,1.27-2.94,3.08-2.94,4.39,0,1.22,.46,2.94,2.62,4.23,1.54,.92,3.56,1.38,6,1.38,2.05,0,4.13-.4,6.18-1.19,1.83-.71,3.46-1.68,4.87-2.91,1.32,.38,2.66,.78,4,1.21,1.96,.62,3.56,1.1,4.79,1.43,1.25,.34,2.51,.62,3.78,.86,1.76,.31,3.2,.46,4.27,.46,.58,0,1.21-.06,1.95-.19l.64-.11,2.66-6-2.25,.42c-1.26,.24-2.41,.35-3.4,.35-1.43,0-3.16-.24-5.14-.7-1.91-.45-4.41-1.18-7.47-2.18,.73-1.12,1.36-2.35,1.88-3.67,.72-1.85,1.43-4.37,2.11-7.47l3.04-14.25c.51-2.34,.93-4.04,1.24-5.05,.3-.97,.69-1.94,1.15-2.87,1.36-2.68,2.94-3.99,4.8-3.99,.94,0,1.33,.36,1.55,.63,.4,.51,.6,1.3,.6,2.37,0,1.3-.3,2.95-.9,4.89-.61,1.97-1.39,3.84-2.31,5.55l-1.14,2.12,6.21-.93,.27-.6c.71-1.57,1.3-3.29,1.75-5.14,.46-1.89,.68-3.43,.68-4.7,0-1.44-.25-2.73-.73-3.85-.52-1.19-1.3-2.12-2.33-2.77Zm-26.07,42.84c-.65,.46-1.36,.86-2.12,1.19-2.91,1.25-6.44,1.18-8.43,.13-.75-.4-1.14-.82-1.14-1.24,0-1.24,2.15-1.49,3.96-1.49s4.4,.48,7.73,1.42Z"/><path d="M318.17,43.47c-2.26,1.68-4.49,3.99-6.62,6.86-.8,1.08-1.56,2.21-2.27,3.37,.03-.39,.07-.79,.1-1.2,.27-3.37,.41-5.85,.41-7.38v-2.83l-6.2,2.83,.03,.81c.02,.53,.03,1.14,.03,1.83,0,3.02-.22,6.36-.66,9.92-.44,3.58-1.02,7.07-1.74,10.37l-4.59,21.19h5.72l2.8-12.87,.64,.13c.87,.18,1.65,.26,2.32,.26,2.81,0,5.68-.79,8.53-2.36,2.79-1.53,5.38-3.65,7.71-6.29,2.32-2.64,4.18-5.57,5.52-8.7,1.36-3.17,2.05-6.37,2.05-9.53,0-2.65-.63-4.83-1.87-6.46-2.55-3.36-6.99-3.6-11.9,.05Zm-12.41,30.22l.52-2.39c.75-3.41,1.63-6.45,2.6-9.03,.96-2.55,2.17-4.96,3.6-7.16,1.98-3.1,4.02-5.58,6.07-7.38,1.91-1.67,3.55-2.52,4.88-2.52,.74,0,1.25,.32,1.68,1.03,.53,.87,.8,2.17,.8,3.85,0,2.17-.48,4.8-1.42,7.83-.94,3.04-2.09,5.6-3.41,7.61-1.41,2.15-3.01,3.84-4.77,5.01-2.75,1.83-5.5,2.04-8.07,1.21l-.82-.27-1.66,2.23Z"/><polygon points="342.1 40.83 335.97 40.83 335.97 88.03 362.28 88.03 362.28 82.88 342.1 82.88 342.1 40.83"/><path d="M372.42,79.66c-1.72-5.1-2.6-10.74-2.6-16.77s.85-11.73,2.6-16.84c1.8-5.33,4.24-9.61,7.45-13.08l.79-.85-2.43-2.43-.85,.82c-3.98,3.84-7.07,8.68-9.18,14.37-2.22,5.74-3.3,11.63-3.3,18.01s1.11,12.36,3.3,18c2.14,5.64,5.23,10.43,9.18,14.24l.85,.82,2.43-2.43-.79-.85c-3.2-3.47-5.64-7.72-7.45-13.01Z"/><path d="M432.35,44.88c-2.25-5.89-5.26-10.59-9.18-14.37l-.85-.82-2.42,2.42,.77,.85c3.21,3.55,5.72,7.96,7.45,13.08,1.72,5.25,2.6,10.91,2.6,16.85s-.87,11.47-2.59,16.76c-1.75,5.1-4.26,9.48-7.46,13.03l-.77,.85,2.42,2.42,.85-.82c3.84-3.7,6.93-8.49,9.19-14.24,2.19-5.84,3.3-11.9,3.3-18s-1.08-12.08-3.3-18h0Z"/><path d="M420.52,84.78c.14-3.46,.74-7.19,1.78-11.08l.41-1.52h-3.68l-.29,.8c-1.21,3.37-2.35,5.63-3.36,6.7-1.3,1.3-3.35,1.96-6.08,1.96h-15.55c-1.22,0-1.67-.28-1.75-.34,0,0-.19-.19-.19-1.19v-15.81h13.64c.93,0,1.66,.17,2.18,.53,.3,.18,.61,.46,.86,1.25l1.72,6.21h3.08l-.05-1.25c-.14-3.9-.21-6.62-.21-8.15,0-.83,0-2.15,.07-3.95l.08-2.17c.04-1.03,.06-1.77,.06-2.21v-1.21h-3.62l-.8,4.63c-.14,.76-.4,1.37-.75,1.78-.35,.18-1.15,.46-2.61,.46h-13.64v-14.41c0-1.74,.62-1.74,1.17-1.74h15.69c1.03,0,1.83,.22,2.48,.71,.63,.42,1.11,1.07,1.51,2.04l1.99,4.88h3.01l-.08-1.28c-.14-2.2-.14-3.58-.14-4.27,0-1.17,.07-2.9,.21-5.11l.08-1.31-1.31,.03c-5.92,.14-11.28,.21-15.94,.21-5.38,0-12-.07-19.66-.21l-1.23-.02v3.33l6.05,.85c.23,.02,.95,.1,.95,2.02v34.81c0,.59-.11,.84-.02,.82-.12,.08-.52,.28-1.56,.43l-5.7,.6v3.36l1.22-.02c9.31-.14,15.95-.21,20.01-.21,9.35,0,15.65,.07,18.71,.21l1.21,.05,.05-1.21Z"/><path d="M535.9,27.38l-2.07,.72c-7.89,2.76-23.08,20.12-32.15,30.49-.98,1.13-1.89,2.16-2.68,3.06-9.98,11.33-27.37,24.57-43.57,24.57-8.34,0-17.31-3.99-17.31-12.76,0-9.62,12.35-23.54,34.67-23.54,9.04,0,14.45,3.23,14.45,8.64,0,.17,0,.34-.02,.51-4.71-1.71-9.47-2.58-14.14-2.58-14.76,0-26.64,8.83-26.64,16.14,0,5.9,8.74,8.09,14.25,8.09,13.14,0,25.59-10.11,28.03-19.1,1.57,.64,3.16,1.39,4.72,2.23l.55,.29,.82-1.64-.52-.28c-1.8-.97-3.51-1.78-5.21-2.47,.05-.37,.07-.77,.07-1.19,0-6.6-6.22-10.54-16.63-10.54-14.84,0-36.3,9.06-36.3,25.45,0,12.88,15.32,16.28,23.42,16.28,16.65,0,30-13.59,40.85-26.89,6.6-8.03,19.99-23.3,28.32-29.78-3.7,4.93-11.75,15.68-21.96,29.58-8.33,1.56-12.68,7.92-12.68,13.46,0,1.21,.19,2.29,.58,3.22l-6.68,9.22h4.46l.18-.29c1.32-2.14,2.68-4.28,4.03-6.35,1.2,.87,2.83,1.32,4.76,1.32,6.13,0,11.55-4.2,15.1-7.36l3.92-3.45-1.15-1.53-3.99,3.51c-3.42,3-8.57,6.99-13.88,6.99-1.59,0-2.85-.36-3.76-1.08,3.57-5.53,7.13-10.89,10.58-15.96,.84-.11,1.75-.17,2.7-.17h.6v-1.91h-.6c-.44,0-.87,.02-1.3,.04,14.38-20.82,24.69-33.15,24.79-33.28l1.41-1.68Zm-87.57,45.25c0-5.73,10.39-14.24,24.73-14.24,4.47,0,9.1,.84,13.74,2.5-2.56,7.55-15.88,16.8-27.95,16.8-3.93,0-10.53-.66-10.53-5.06Zm47.73,3.5c0-4.1,2.84-9.09,9.03-11.06-2.84,3.88-5.84,7.99-8.94,12.27-.06-.4-.09-.8-.09-1.21Z"/><path d="M558.34,69.92h-3.71c-.8,0-1.45-.65-1.45-1.45v-9.89c0-.56-.46-1.02-1.02-1.02h-3.71c-.56,0-1.02,.46-1.02,1.02v9.89c0,.56,.46,1.02,1.02,1.02h3.71c.8,0,1.45,.65,1.45,1.45v3.71c0,.8-.65,1.45-1.45,1.45h-16.07c-.56,0-1.02,.46-1.02,1.02v9.89c0,.56,.46,1.02,1.02,1.02h22.26c.56,0,1.02-.46,1.02-1.02v-16.07c0-.56-.46-1.02-1.02-1.02Z"/><path d="M558.34,39.01h-22.26c-.56,0-1.02,.46-1.02,1.02v16.07c0,.56,.46,1.02,1.02,1.02h3.71c.8,0,1.45,.65,1.45,1.45v9.89c0,.56,.46,1.02,1.02,1.02h3.71c.56,0,1.02-.46,1.02-1.02v-9.89c0-.56-.46-1.02-1.02-1.02h-3.71c-.8,0-1.45-.65-1.45-1.45v-3.71c0-.8,.65-1.45,1.45-1.45h16.07c.56,0,1.02-.46,1.02-1.02v-9.89c0-.56-.46-1.02-1.02-1.02Z"/><path d="M598.34,67.86c0,1.69-.16,3.53-.47,5.48-.3,1.86-.91,3.62-1.79,5.21-.85,1.54-2.08,2.83-3.65,3.84-1.55,.99-3.67,1.49-6.32,1.49s-4.77-.5-6.32-1.49c-1.57-1.01-2.8-2.3-3.65-3.84-.88-1.6-1.49-3.35-1.79-5.21-.31-1.94-.47-3.79-.47-5.48v-30.61h-7.04v31.8c0,2.75,.32,5.41,.95,7.92,.64,2.58,1.74,4.9,3.26,6.88,1.53,2.01,3.56,3.64,6.04,4.84,2.47,1.2,5.51,1.8,9.03,1.8s6.57-.61,9.03-1.8c2.47-1.2,4.5-2.82,6.04-4.84,1.52-1.99,2.61-4.3,3.26-6.88,.63-2.51,.95-5.18,.95-7.92v-31.8h-7.04v30.61Z"/><path d="M732.36,85.51h-13c-.12-5.93-.12-12.16-.12-19.05h8.51l.66,5.81h2.52v-14.26h-2.52l-.66,5.87h-8.51c0-6.41,0-12.34,.12-18.15h11.92l1.26,8.27h3.41l-.6-10.78h-26.29v2.4l4.13,.3c.18,5.99,.18,12.04,.18,18.09v3.18c0,1.01,0,2.03,0,3.04l-.16-.21-5.74,5.11c-16.86,14.99-39.92,24.3-60.19,24.3s-32.6-9.26-32.6-24.76c0-21.77,28.5-48.07,63.88-48.07,15.42,0,24.27,5.71,24.27,15.66,0,2.78-.67,5.74-2,8.82-7-3.96-14.66-5.97-22.76-5.97-18.49,0-31.37,11.59-31.37,21.99,0,5.66,4.25,11.71,16.19,11.71,18.17,0,32.83-11.86,39.22-23.31,2.12,1.42,4.1,2.97,6.02,4.73l.98,.89,1.88-2.5-.81-.74c-2.15-1.97-4.34-3.68-6.66-5.19,1.62-3.66,2.44-7.17,2.44-10.43,0-5.64-2.67-18.77-27.38-18.77-37.11,0-67,28-67,51.18,0,17.19,13.68,27.87,35.71,27.87s44.99-9.65,62.4-25.19l3.68-3.29c-.02,3.77-.05,7.53-.16,11.22l-4.13,.3v2.46h27.43l.6-10.72h-3.47l-1.26,8.21Zm-69.48-9.82c-8.18,0-13.07-3.21-13.07-8.59,0-7.88,10.75-18.88,28.26-18.88,7.59,0,14.78,1.9,21.39,5.66-5.88,10.7-19.54,21.82-36.57,21.82Z"/><path d="M750.07,80.93c-1.9-1.84-5.02-1.84-6.93,0-.96,.93-1.45,2.14-1.45,3.6s.48,2.6,1.42,3.57c.96,.99,2.13,1.49,3.49,1.49s2.53-.5,3.49-1.49c.95-.98,1.43-2.18,1.43-3.57s-.49-2.66-1.45-3.6Z"/></svg>