<?xml version="1.0" encoding="UTF-8"?><svg id="_圖層_3" xmlns="http://www.w3.org/2000/svg" viewBox="0 0 773.61 120.68"><path d="M102.66,36.04l-15.22,39.51c-.62-2.75-1.86-5.32-3.76-7.66,2.83-3.72,4.33-7.55,4.33-11.1,0-5.25-3.22-6.04-5.14-6.04-4.97,0-10.81,3.21-14.95,8.21-1.4-.27-2.81-.45-4.2-.53h-.2c.99-1.5,2.11-3.05,3.36-4.65,9.94-5.09,21.82-11.73,25.83-18.11,.97-1.56,1.47-2.84,1.47-3.8,0-1.27-.86-2.06-2.23-2.06-1.09,0-2.53,.46-4.16,1.34-3.69,1.98-14.38,11.52-22.13,21.43l-1.4,.71c-1.83,.94-3.48,1.78-5.1,2.56,3.21-5.88,5.04-11.45,5.04-15.45s-2.39-5.07-4.42-5.08c-.5-3.06-2.66-4.74-6.14-4.74-10.65,0-21.5,12.16-21.5,24.09,0,2.74,.59,5.26,1.76,7.48l.26,.49,1.46-.73-.25-.51c-1.01-2.02-1.52-4.28-1.52-6.74,0-11.09,9.99-22.39,19.79-22.39,2.53,0,4.02,1.07,4.43,3.17-8.46,1.32-16.22,11.9-16.22,16.4,0,1.03,.4,2.77,3.11,2.77,5.1,0,14.81-6.84,14.95-17.6,1.74,.07,2.59,1.17,2.59,3.38,0,3.47-2.36,9.11-7.21,17.24-10.05,4.38-26.74,11.68-26.74,18.75,0,1.54,1.11,2.43,3.05,2.43,10.14,0,20.38-10.99,26.12-20.46,1.99-.91,3.91-1.88,5.77-2.84-3.56,4.98-7.19,11.36-7.19,16.64,0,4.63,2.22,7.34,6.27,7.68,1.63,7.66,7.06,12.58,13.92,12.58,7.4,0,11.4-6.6,11.4-12.81,0-1.12-.1-2.21-.29-3.27h6.08l3.78-10.38h17.32l3.78,10.38h6.6l-15.51-40.27h-6.99ZM30.25,76.37c0-5.77,15.05-12.62,23.27-16.16-5.38,6.98-17.06,16.83-22.48,16.83-.73,0-.78-.32-.78-.67Zm46.25,14.32c-6.44,0-10.95-5.37-12.25-10.88,5.7-.39,13.34-4.78,18.33-10.56,2.4,3.06,3.61,6.53,3.61,10.33,0,5.39-3.4,11.11-9.7,11.11Zm4.92-22.79c-4.75,5.61-12.17,9.99-17.45,10.26-.07-.6-.1-1.2-.1-1.79,0-4.46,2.44-9.91,6.7-15,4.3,1.33,8.12,3.63,10.84,6.53Zm-9.63-7.93c4.05-4.42,8.63-7.45,11.32-7.45,1.38,0,3.21,.44,3.21,4.28,0,3.05-1.32,6.41-3.82,9.76-2.78-2.88-6.45-5.14-10.71-6.59Zm-8.12,.16c1.18,.08,2.19,.18,3.1,.33-3.04,4.26-4.65,9.31-4.65,14.67,0,1.05,.06,2.01,.18,2.93-2.81-.47-4.23-2.51-4.23-6.09,0-3.38,1.74-7.79,5.07-12.93v1.06l.53,.03Zm28.8-28.26c0,.32-.14,1.11-1.11,2.7-2.57,4.32-9.73,9.58-21.88,16.05,7.66-9.07,16.66-16.72,19.35-18.07,1.77-.88,2.69-1.07,3.16-1.07s.48,.14,.48,.39Zm-48.9,19.97c0-4.06,7.26-13.5,14.65-14.7-.35,6.76-10.18,15.76-13.69,15.76-.83,0-.95-.67-.95-1.07Zm55.77,9.03l6.71-18.22h.23l6.66,18.22h-13.59Z"/><polygon points="151.95 48.12 151.95 55.17 159 55.17 159 48.12 159 41.07 151.95 41.07 151.95 48.12"/><polygon points="137.85 55.17 137.85 48.12 137.85 41.07 144.9 41.07 151.95 41.07 151.95 34.02 144.9 34.02 137.85 34.02 130.8 34.02 130.8 41.07 130.8 48.12 130.8 55.17 130.8 62.22 130.8 69.27 130.8 76.32 137.85 76.32 137.85 69.27 137.85 62.22 144.9 62.22 151.95 62.22 151.95 55.17 144.9 55.17 137.85 55.17"/><path d="M186.7,36.04h-16.7v40.27h6.15v-15.68h10.44c9.65,0,14.5-4.12,14.5-12.35s-4.79-12.24-14.38-12.24Zm6.15,17.66c-1.41,1.13-3.61,1.69-6.66,1.69h-10.04v-14.1h10.04c2.99,0,5.19,.56,6.6,1.69,1.41,1.02,2.14,2.82,2.14,5.3s-.73,4.29-2.09,5.42Z"/><polygon points="216.48 53.98 208.24 36.16 202 36.16 213.7 59.8 213.7 76.32 219.26 76.32 219.26 59.79 230.97 36.16 224.73 36.16 216.48 53.98"/><path d="M238.75,68.25c-1.35,0-2.43,.34-3.22,1.13-.9,.79-1.3,1.81-1.3,3.1,0,1.18,.39,2.2,1.18,2.99s1.81,1.18,2.93,1.18c.62,0,1.07-.06,1.41-.17,0,1.35-.51,2.65-1.47,3.95-1.01,1.24-2.31,2.09-3.78,2.65v3.5c2.82-.79,5.08-2.26,6.77-4.4,1.64-2.14,2.48-4.62,2.48-7.5,0-1.92-.45-3.44-1.35-4.68-1.01-1.18-2.2-1.75-3.67-1.75Z"/><path d="M294.7,56.85c-1.58-.96-5.13-2.26-10.55-3.95-3.78-1.13-6.09-1.97-6.99-2.48-2.03-1.07-2.99-2.48-2.99-4.29,0-2.03,.85-3.5,2.59-4.4,1.41-.79,3.44-1.18,6.09-1.18,3.05,0,5.3,.56,6.88,1.75,1.58,1.13,2.6,3.05,3.16,5.64h6.09c-.39-4.4-1.97-7.61-4.79-9.7-2.65-2.03-6.32-2.99-11-2.99-4.29,0-7.84,.96-10.66,2.88-2.99,2.03-4.46,4.79-4.46,8.35s1.52,6.2,4.63,8.07c1.24,.68,4.29,1.75,9.25,3.33,4.46,1.35,7.11,2.26,8.01,2.71,2.54,1.3,3.84,3.05,3.84,5.3,0,1.81-.9,3.22-2.71,4.23-1.81,1.01-4.23,1.58-7.28,1.58-3.38,0-5.87-.62-7.5-1.86-1.81-1.35-2.93-3.67-3.38-6.83h-6.09c.34,5.08,2.14,8.8,5.47,11.17,2.76,1.92,6.6,2.93,11.51,2.93s9.03-1.01,11.85-3.05c2.82-2.09,4.23-4.91,4.23-8.52s-1.75-6.6-5.19-8.69Z"/><path d="M324.75,52.8h-3.44v-10.43h-3.5v-10.43h-4.12v10.43h-3.44v10.43h-3.5v13.99h-3.55v11.11h4.17v-10.55h16.81v10.55h4.06v-11.11h-3.5v-13.99Zm-4.06,10.49h-9.87v-9.87h3.5v-10.43h2.88v10.43h3.5v9.87Z"/><polygon points="330.67 41.29 344.15 41.29 344.15 76.32 350.25 76.32 350.25 41.29 363.67 41.29 363.67 36.04 330.67 36.04 330.67 41.29"/><rect x="368.63" y="36.04" width="6.09" height="40.27"/><path d="M435.19,30.18c-1.58,0-3.53,.84-5.81,2.5-3.59,2.63-7.25,7.44-11.84,15.55-3.2-.57-6.33-.87-9.32-.87-17.95,0-27.51,10.78-27.51,18.56,0,4.4,2.93,9.11,11.16,9.11,3.54,0,8.48-1.56,14.09-4.43-1.57,2.93-3.13,5.71-4.66,8.31-19.85,4.28-31.99,19.69-31.99,26.74,0,3.85,2.47,4.42,3.94,4.42,15.05,0,23.82-13.96,31.02-29.17,1.56-.27,3.23-.46,5.08-.57l.89-.06v-2.51l-1.01,.07c-1.32,.09-2.55,.2-3.71,.34,.74-1.62,1.47-3.23,2.18-4.81,.76-1.69,1.5-3.35,2.24-4.95,14.43-8.45,28.95-22.79,28.95-34,0-2.57-1.46-4.24-3.71-4.24Zm-23.29,34.18c2.85-5.8,4.85-9.77,6.8-13.34l2.29,.48,.45-2.47-1.47-.32c4.06-7.12,7.53-11.59,10.86-14.03,2.05-1.49,3.62-2.01,4.35-2.01,.83,0,1.25,.58,1.25,1.73,0,9.49-11.93,21.82-24.54,29.95Zm-20.03,8.16c-5.45,0-8.7-2.47-8.7-6.61,0-6.73,8.71-16.05,25.06-16.05,2.64,0,5.34,.23,8.05,.69-1.63,3.01-3.21,6.16-4.87,9.46l-3.41,6.71c-6.46,3.69-12.33,5.8-16.12,5.8Zm-18.62,35.04c-.72,0-1.48-.15-1.48-1.92,0-5.12,9.42-18.91,27.72-23.75-10.35,16.8-19.4,25.66-26.24,25.66Z"/><polygon points="440.66 76.32 446.81 76.32 446.81 58.26 466.83 58.26 466.83 53.02 446.81 53.02 446.81 41.29 468.02 41.29 468.02 36.04 440.66 36.04 440.66 76.32"/><polygon points="472.02 40.21 476.81 41.34 476.81 71.8 472.02 72.93 472.02 76.32 487.53 76.32 487.53 72.93 482.73 71.8 482.73 41.34 487.53 40.21 487.53 36.83 472.02 37.11 472.02 40.21"/><polygon points="500.16 58.26 521.59 58.26 521.59 53.02 500.16 53.02 500.16 41.29 522.95 41.29 522.95 36.04 494.01 36.04 494.01 76.32 523.91 76.32 523.91 71.07 500.16 71.07 500.16 58.26"/><path d="M554.42,28.48c-7.61,0-14.1,2.65-19.46,8.07-5.42,5.36-8.07,11.84-8.07,19.46s2.65,14.04,8.07,19.46,11.85,8.07,19.46,8.07,14.05-2.71,19.46-8.07c5.36-5.42,8.07-11.9,8.07-19.46s-2.71-14.1-8.07-19.46c-5.42-5.42-11.9-8.07-19.46-8.07Zm17.71,45.24c-4.96,4.85-10.83,7.28-17.71,7.28s-12.8-2.43-17.71-7.28c-4.85-4.96-7.28-10.83-7.28-17.71s2.43-12.8,7.28-17.71c4.91-4.85,10.83-7.28,17.71-7.28s12.75,2.43,17.71,7.28c4.85,4.91,7.28,10.83,7.28,17.71s-2.42,12.75-7.28,17.71Z"/><path d="M555.26,37.22h-13.93v37.85h13.82c6.15,0,10.83-1.69,14.05-5.08,3.05-3.33,4.57-7.95,4.57-13.88s-1.52-10.55-4.51-13.76c-3.16-3.44-7.84-5.13-13.99-5.13Zm9.14,29.28c-2.14,2.2-5.59,3.33-10.32,3.33h-6.66v-27.36h6.77c4.74,0,8.18,1.07,10.32,3.27,2.09,2.14,3.16,5.64,3.16,10.38s-1.13,8.12-3.27,10.38Z"/><path d="M593.27,69.43c-.85-.79-1.86-1.18-2.99-1.18-1.24,0-2.2,.4-2.93,1.18-.85,.79-1.24,1.81-1.24,3.05,0,1.13,.39,2.14,1.24,2.99,.73,.73,1.69,1.13,2.93,1.13,1.13,0,2.14-.4,2.99-1.13,.79-.85,1.24-1.86,1.24-2.99,0-1.24-.45-2.26-1.24-3.05Z"/></svg>