<?xml version="1.0" encoding="UTF-8"?><svg id="_圖層_3" xmlns="http://www.w3.org/2000/svg" viewBox="0 0 773.61 120.68"><path d="M108.94,35.21c0-1.26-.81-2.05-2.11-2.05-9.37,0-21.74,21.5-24.41,27.58v.02c-2.13,1.23-4.11,2.31-6.04,3.26,0-.15,.01-.29,.01-.44,0-4.72-4.24-9.75-16.12-9.75s-19.3,7.05-21.22,13.95c-4.43-2.31-6.95-6-6.95-10.21,0-8.33,9.29-17.18,26.5-17.18,11.56,0,19.95,1.55,25.65,4.73l.55,.31,.77-1.55-.5-.28c-7.98-4.48-18.93-5-26.47-5-13.9,0-28.28,7.09-28.28,18.96,0,5.08,3.05,9.45,8.37,12.05-.06,.54-.09,1.04-.09,1.5,0,9.75,11.89,13.29,19.89,13.29,13.4,0,20.63-11.99,25.43-22.51,14.52-8.76,25.03-19.96,25.03-26.68Zm-1.79,0c0,5.72-9.28,15.75-21.87,23.79,4.08-7.97,14.23-24.06,21.55-24.06,.32,0,.32,.09,.32,.27Zm-46.88,20.41c10.57,0,14.34,4.12,14.34,7.97,0,.24-.02,.48-.04,.7-3.11-2.14-6.69-3.27-10.42-3.27-10.43,0-17.35,4.55-18.24,9-1.88-.33-3.63-.83-5.22-1.48,1.56-6.35,8.81-12.91,19.57-12.91Zm16.3,10.25c1.54-.75,3.11-1.56,4.67-2.44l-.16,.37c-.64,1.47-1.44,2.89-2.37,4.24l-.22-.24c-.69-.76-1.32-1.39-1.92-1.94Zm-23.77,4.7c-1.91,0-3.59-.1-5.12-.29,.68-3.3,6.43-7.48,16.47-7.48,3.32,0,6.37,.91,9.07,2.7-7.43,3.32-14.48,5.07-20.42,5.07Zm0,1.79c6.05,0,13.19-1.75,20.74-5.06-2.86,4.78-11.13,7.68-17.9,7.68-2.61,0-6.87-.4-7.84-2.88,1.54,.18,3.19,.27,5.01,.27Zm-12.4-2c1.66,.64,3.5,1.13,5.5,1.46,.9,4.68,9.02,5.75,11.89,5.75,7.48,0,14.44-3.76,17.33-9.37,.13-.27,.28-.56,.41-.87,.52,.47,1.04,1.01,1.61,1.64l.37,.41,.54-.4c-5.45,7.23-14.77,12.36-23.39,12.36-5.3,0-14.28-2.15-14.28-10.23,0-.27,0-.52,.02-.76Z"/><rect x="96.21" y="73.48" width="3.07" height="5.97"/><rect x="99.28" y="67.45" width="3.01" height="6.03"/><rect x="102.29" y="61.49" width="2.9" height="5.97"/><rect x="105.19" y="67.45" width="21.03" height="3.01"/><rect x="114.17" y="37.44" width="3.07" height="5.97"/><rect x="126.23" y="61.49" width="3.01" height="5.97"/><rect x="132.31" y="73.48" width="2.9" height="5.97"/><rect x="129.24" y="67.45" width="3.07" height="6.03"/><rect x="108.26" y="49.49" width="3.01" height="5.91"/><rect x="105.19" y="55.4" width="3.07" height="6.08"/><rect x="111.28" y="43.41" width="2.9" height="6.08"/><rect x="120.26" y="49.49" width="3.07" height="5.91"/><rect x="123.33" y="55.4" width="2.9" height="6.08"/><rect x="117.25" y="43.41" width="3.01" height="6.08"/><path d="M191.86,32.96h-4.47l.75,1.46c4.35,8.47,6.55,17.42,6.55,26.6s-2.21,18.08-6.56,26.6l-.75,1.46h4.46l.28-.56c4.34-8.68,6.54-17.93,6.54-27.51s-2.2-18.84-6.54-27.51l-.28-.56Z"/><path d="M183.72,45.66c-3.41-4.08-8.57-6.15-15.32-6.15h-15.72v43.38h14.97c6.68,0,11.92-2.04,15.58-6.07,3.48-3.85,5.24-9.1,5.24-15.62s-1.6-11.9-4.75-15.54Zm-25.49-1.02h9.66c5.37,0,9.18,1.4,11.64,4.29,2.26,2.64,3.41,6.77,3.41,12.27s-1.31,9.37-3.9,12.18c-2.73,2.94-6.62,4.37-11.9,4.37h-8.9V44.64Z"/><path d="M151.4,32.96h-4.48l-.28,.56c-4.34,8.67-6.54,17.93-6.54,27.51s2.2,18.83,6.54,27.51l.28,.56h4.47l-.76-1.47c-4.35-8.41-6.55-17.36-6.55-26.6s2.2-18.24,6.55-26.6l.76-1.47Z"/><path d="M206.01,53.66c-1.04,0-1.85,.35-2.49,1.04-.69,.7-1.04,1.51-1.04,2.49s.35,1.85,1.04,2.55c.64,.64,1.45,.99,2.49,.99,.93,0,1.8-.35,2.49-.99,.7-.7,1.04-1.56,1.04-2.55s-.35-1.8-1.04-2.49-1.56-1.04-2.49-1.04Z"/><path d="M206.01,74.87c-1.04,0-1.85,.35-2.49,1.04-.69,.7-1.04,1.51-1.04,2.49s.35,1.86,1.04,2.55c.64,.64,1.45,.99,2.49,.99,.93,0,1.8-.35,2.49-.99,.7-.7,1.04-1.57,1.04-2.55s-.35-1.8-1.04-2.49c-.7-.69-1.56-1.04-2.49-1.04Z"/><path d="M221.54,61.02c0-4.98,.81-9.97,2.55-15.07,1.28-4.17,3.13-8.17,5.51-12h-4.06c-2.55,3.71-4.52,7.71-5.97,11.94-1.74,4.98-2.55,10.02-2.55,15.18s.81,10.08,2.55,15.07c1.45,4.17,3.42,8.17,5.97,11.94h4.06c-2.38-3.88-4.23-7.88-5.51-12-1.74-5.1-2.55-10.14-2.55-15.07Z"/></svg>