<svg id="圖層_1" data-name="圖層 1" xmlns="http://www.w3.org/2000/svg" viewBox="0 0 109.78518 30.92226"><path d="M43.31818,1.24037a1.06387,1.06387,0,0,0-1.16245-1.13c-5.15955,0-11.9777,11.842-13.448,15.19487l-.00519.011c-1.16569.67928-2.25865,1.27024-3.32108,1.79562.0052-.08053.00779-.16041.00779-.24028,0-2.59764-2.33332-5.37321-8.88261-5.37321-6.29083,0-10.63018,3.88476-11.69131,7.68315A6.39273,6.39273,0,0,1,.9845,13.55446c0-4.58677,5.11605-9.46188,14.59742-9.46188,6.3707,0,10.99254.85267,14.12984,2.60607l.30457.17015.42342-.85138-.27535-.15456C25.76725,3.39381,19.73619,3.10807,15.58192,3.10807,7.92279,3.10807,0,7.01557,0,13.55446c0,2.799,1.67807,5.20761,4.6134,6.64021a7.17382,7.17382,0,0,0-.052.8241c0,5.37061,6.55254,7.32014,10.95683,7.32014,7.38378,0,11.36595-6.60514,14.009-12.39917C37.52415,11.11463,43.31818,4.942,43.31818,1.24037Zm-.98451,0c0,3.15223-5.11344,8.6774-12.04783,13.10767,2.2489-4.39065,7.839-13.25444,11.86989-13.25444C42.33367,1.0936,42.33367,1.14556,42.33367,1.24037Zm-25.827,11.24257c5.82325,0,7.89811,2.26709,7.89811,4.38871a3.5403,3.5403,0,0,1-.02208.38574,10.05167,10.05167,0,0,0-5.73818-1.80276c-5.744,0-9.55995,2.50737-10.04636,4.95759a13.53134,13.53134,0,0,1-2.873-.8176C6.587,16.09885,10.58082,12.48294,16.50668,12.48294Zm8.98067,5.64856c.85008-.41108,1.7125-.86047,2.57491-1.34168l-.08832.20521A13.69305,13.69305,0,0,1,26.666,19.33161l-.11884-.13118A14.65354,14.65354,0,0,0,25.48735,18.1315ZM12.392,20.71874a22.27237,22.27237,0,0,1-2.82233-.1604c.37666-1.8164,3.54447-4.1192,9.07484-4.1192a8.88,8.88,0,0,1,4.99785,1.4865A28.51359,28.51359,0,0,1,12.392,20.71874Zm0,.98451a29.32477,29.32477,0,0,0,11.42635-2.78856c-1.57481,2.6327-6.12977,4.229-9.86387,4.229-1.43584,0-3.78216-.2182-4.32052-1.58846A23.63575,23.63575,0,0,0,12.392,21.70325Zm-6.83308-1.1027a15.32407,15.32407,0,0,0,3.02819.804c.4981,2.57815,4.96733,3.16912,6.548,3.16912,4.1205,0,7.9572-2.07227,9.54891-5.16021.074-.14806.15326-.31042.22728-.47991a12.32069,12.32069,0,0,1,.8858.904l.20392.22794.29548-.22275C23.2917,23.82682,18.15812,26.653,13.41289,26.653c-2.92169,0-7.86694-1.18647-7.86694-5.63427C5.546,20.87135,5.5505,20.73238,5.55894,20.60055Z"/><rect x="36.30586" y="22.32376" width="1.69106" height="3.28861"/><rect x="37.99692" y="19.00398" width="1.65989" height="3.31978"/><rect x="39.65681" y="15.71667" width="1.59625" height="3.28731"/><rect x="41.25306" y="19.00398" width="11.58805" height="1.65989"/><rect x="46.20155" y="2.46873" width="1.69236" height="3.28731"/><rect x="52.8411" y="15.71667" width="1.65989" height="3.28731"/><rect x="56.19336" y="22.32376" width="1.59625" height="3.28861"/><rect x="54.501" y="19.00398" width="1.69236" height="3.31978"/><rect x="42.94542" y="9.10829" width="1.65989" height="3.25614"/><rect x="41.25306" y="12.36442" width="1.69236" height="3.35225"/><rect x="44.6053" y="5.75604" width="1.59625" height="3.35225"/><rect x="49.5538" y="9.10829" width="1.69106" height="3.25614"/><rect x="51.24486" y="12.36442" width="1.59624" height="3.35225"/><rect x="47.89391" y="5.75604" width="1.65989" height="3.35225"/><path d="M88.99825,0H86.53634l.41433.80592a31.8229,31.8229,0,0,1,3.61071,14.65521A32.01836,32.01836,0,0,1,86.95,30.11764l-.41108.80462h2.45931l.15261-.30587a33.68664,33.68664,0,0,0,0-30.31052Z"/><path d="M84.51538,6.99738c-1.88-2.2502-4.7186-3.39056-8.43712-3.39056H67.41644V27.50637h8.2475c3.67825,0,6.56552-1.12413,8.58259-3.34186a12.39974,12.39974,0,0,0,2.88727-8.60727C87.1338,11.88289,86.2506,9.00016,84.51538,6.99738ZM70.47126,6.43694h5.32c2.96066,0,5.0576.77215,6.41162,2.3619,1.24556,1.45338,1.87744,3.727,1.87744,6.7584,0,2.90611-.72409,5.1641-2.15019,6.71034-1.50144,1.62028-3.64449,2.40866-6.55319,2.40866H70.47126Z"/><path d="M66.71119,0H64.24408l-.15261.30587a33.68673,33.68673,0,0,0,0,30.31052l.15261.30587h2.46451L66.291,30.115A31.5564,31.5564,0,0,1,66.29037.80851Z"/><path d="M96.79311,11.40589a1.76271,1.76271,0,0,0-1.37285.57538,1.86079,1.86079,0,0,0-.57408,1.37285,1.93053,1.93053,0,0,0,.57408,1.404,1.85048,1.85048,0,0,0,1.37285.54291,2.00957,2.00957,0,0,0,1.37285-.54291,1.92658,1.92658,0,0,0,.57538-1.404,1.85707,1.85707,0,0,0-.57538-1.37285A1.90762,1.90762,0,0,0,96.79311,11.40589Z"/><path d="M96.79311,23.09006a1.76608,1.76608,0,0,0-1.37285.57408,1.86078,1.86078,0,0,0-.57408,1.37285,1.9335,1.9335,0,0,0,.57408,1.40532,1.85548,1.85548,0,0,0,1.37285.54291,2.01562,2.01562,0,0,0,1.37285-.54291,1.92953,1.92953,0,0,0,.57538-1.40532,1.85705,1.85705,0,0,0-.57538-1.37285A1.91154,1.91154,0,0,0,96.79311,23.09006Z"/><path d="M105.34842,15.4608a25.46748,25.46748,0,0,1,1.404-8.29944A28.02548,28.02548,0,0,1,109.78518.553h-2.234a26.93849,26.93849,0,0,0-3.28861,6.57592,25.42384,25.42384,0,0,0,0,16.66383,28.14278,28.14278,0,0,0,3.28861,6.57592h2.234a29.26744,29.26744,0,0,1-3.03274-6.60839A25.61688,25.61688,0,0,1,105.34842,15.4608Z"/></svg>