<svg id="圖層_1" data-name="圖層 1" xmlns="http://www.w3.org/2000/svg" viewBox="0 0 204.76709 29.87598"><polygon points="0 4.969 9.22 4.969 9.22 28.927 13.387 28.927 13.387 4.969 22.569 4.969 22.569 1.382 0 1.382 0 4.969"/><polygon points="30.086 16.581 44.746 16.581 44.746 12.995 30.086 12.995 30.086 4.969 45.672 4.969 45.672 1.382 25.88 1.382 25.88 28.927 46.328 28.927 46.328 25.339 30.086 25.339 30.086 16.581"/><polygon points="62.367 9.642 62.367 14.464 67.188 14.464 67.188 9.642 67.188 4.821 62.367 4.821 62.367 9.642"/><polygon points="62.367 28.927 67.188 28.927 67.188 24.105 67.188 19.284 62.367 19.284 62.367 24.105 62.367 28.927"/><polygon points="52.724 14.464 52.724 9.642 52.724 4.821 57.545 4.821 62.367 4.821 62.367 0 57.545 0 52.724 0 47.903 0 47.903 4.821 47.903 9.642 47.903 14.464 47.903 19.284 47.903 24.105 47.903 28.927 52.724 28.927 52.724 24.105 52.724 19.284 57.545 19.284 62.367 19.284 62.367 14.464 57.545 14.464 52.724 14.464"/><path d="M84.316,10.41A2.57054,2.57054,0,0,0,85.9746,7.863,2.91837,2.91837,0,0,0,84.933,5.394a4.696,4.696,0,0,0-2.97039-.81046h-4.7842V15.69492H79.4935V11.37375h2.006a1.86118,1.86118,0,0,1,1.69755.69487,4.73939,4.73939,0,0,1,.38575,1.69755,4.43791,4.43791,0,0,0,.54031,1.92875h2.623a3.9679,3.9679,0,0,1-.88709-2.58465C85.78173,11.56727,85.24142,10.67888,84.316,10.41ZM81.76968,9.36837H79.4935V6.55124h2.27618c1.23453,0,1.89043.46368,1.89043,1.38843C83.66011,8.86573,83.00421,9.36837,81.76968,9.36837Z"/><path d="M81.65409.84163a8.81751,8.81751,0,0,0-6.55838,2.70025,8.85328,8.85328,0,0,0-2.73921,6.598,8.97214,8.97214,0,0,0,2.73921,6.59605,8.96668,8.96668,0,0,0,6.55838,2.70024,9.09564,9.09564,0,0,0,6.55838-2.70024,9.12443,9.12443,0,0,0,2.73856-6.596,9.00071,9.00071,0,0,0-2.73856-6.598A8.94142,8.94142,0,0,0,81.65409.84163ZM87.17082,15.656a7.82427,7.82427,0,0,1-11.03411,0,7.45458,7.45458,0,0,1-2.27618-5.51608,7.54181,7.54181,0,0,1,2.27618-5.55634,7.82585,7.82585,0,0,1,11.03411,0A7.69539,7.69539,0,0,1,89.447,10.13987,7.60613,7.60613,0,0,1,87.17082,15.656Z"/><rect x="94.07144" y="1.38194" width="4.16661" height="27.54468"/><polygon points="103.714 28.927 107.919 28.927 107.919 16.581 121.615 16.581 121.615 12.995 107.919 12.995 107.919 4.969 122.425 4.969 122.425 1.382 103.714 1.382 103.714 28.927"/><polygon points="125.158 4.237 128.438 5.008 128.438 25.841 125.158 26.612 125.158 28.927 135.767 28.927 135.767 26.612 132.488 25.841 132.488 5.008 135.767 4.237 135.767 1.922 125.158 2.114 125.158 4.237"/><path d="M156.303,25.18473a17.83565,17.83565,0,0,1-5.14917.73383q-4.01237,0-5.92066-1.29232a3.91759,3.91759,0,0,1-1.90926-3.37563,3.64791,3.64791,0,0,1,.80981-2.42879,4.74311,4.74311,0,0,1,2.27618-1.4274A11.4108,11.4108,0,0,1,149.842,16.932h7.09739V13.61551h-6.94283a6.66856,6.66856,0,0,1-4.08868-1.08062,3.63681,3.63681,0,0,1-1.42675-3.08469,3.85007,3.85007,0,0,1,1.79366-3.22107,9.28162,9.28162,0,0,1,5.41867-1.29232,17.56445,17.56445,0,0,1,3.99192.44419,15.27908,15.27908,0,0,1,3.72241,1.40662l1.11828-3.08469a14.70566,14.70566,0,0,0-4.08867-1.543,21.84042,21.84042,0,0,0-4.89785-.5403,15.66259,15.66259,0,0,0-6.11353,1.04165,8.07471,8.07471,0,0,0-3.62565,2.75739,6.51356,6.51356,0,0,0-1.17608,3.76138,6.90568,6.90568,0,0,0,.82929,3.39381,5.848,5.848,0,0,0,2.39113,2.35216c.14262.07752.29491.13662.44314.20359a8.72348,8.72348,0,0,0-.88669.3562,7.06135,7.06135,0,0,0-2.85415,2.371,6.2271,6.2271,0,0,0-1.08,3.664,6.5591,6.5591,0,0,0,1.29232,3.99257,8.32479,8.32479,0,0,0,3.85684,2.73791,17.81819,17.81819,0,0,0,6.34473.9845,21.61446,21.61446,0,0,0,6.13237-.82994,12.36834,12.36834,0,0,0,4.55106-2.295l-1.31116-3.00807A10.93744,10.93744,0,0,1,156.303,25.18473Z"/><path d="M196.63454,8.32469a12.60668,12.60668,0,0,0-1.03061-2.319,8.8753,8.8753,0,0,0-1.31181-1.7534,13.13447,13.13447,0,0,1,6.44409-3.15353l.35-.063-.237-.94749-.29938.04546a13.25716,13.25716,0,0,0-3.95555,1.24686,21.98356,21.98356,0,0,0-3.28471,2.02226,13.09673,13.09673,0,0,0-3.47889-1.80795A13.25954,13.25954,0,0,0,185.51926.9013a17.9844,17.9844,0,0,0-7.17078,1.43519,20.61073,20.61073,0,0,0-5.74272,3.64708,18.00181,18.00181,0,0,0-3.83021,4.85239,11.003,11.003,0,0,0-1.40857,5.13163,9.39172,9.39172,0,0,0,.38055,2.67881,6.90775,6.90775,0,0,0,1.13516,2.26773,5.61406,5.61406,0,0,0,1.92551,1.57807,5.94167,5.94167,0,0,0,2.71583.59616,8.03363,8.03363,0,0,0,3.69968-.86632,9.00153,9.00153,0,0,0,2.923-2.40216,11.26059,11.26059,0,0,0,1.90861-3.61526,14.64733,14.64733,0,0,0,.67214-4.51794V10.2359h-1.128v1.643a12.91745,12.91745,0,0,1-.56369,3.81787,10.87457,10.87457,0,0,1-1.55209,3.18016,7.55115,7.55115,0,0,1-2.36515,2.1437,5.97542,5.97542,0,0,1-3.01585.78578,4.67314,4.67314,0,0,1-2.16123-.44549,3.74826,3.74826,0,0,1-1.3826-1.22284,5.07186,5.07186,0,0,1-.75916-1.82938,10.98226,10.98226,0,0,1-.22469-2.26384,11.729,11.729,0,0,1,1.35012-5.5518A14.91366,14.91366,0,0,1,174.528,6.03942a17.12225,17.12225,0,0,1,5.14657-2.95026A17.29991,17.29991,0,0,1,185.63485,2.03a13.26514,13.26514,0,0,1,3.55422.54615,9.34147,9.34147,0,0,1,3.17366,1.59625,23.57267,23.57267,0,0,0-3.50421,3.80684c-1.14166,1.53715-2.23786,3.17431-3.25744,4.866-1.00723,1.669-2.00212,3.37822-2.95675,5.08032-.94035,1.67808-1.91446,3.23926-2.89442,4.63938a23.268,23.268,0,0,1-3.0795,3.61266,7.8937,7.8937,0,0,1-3.39511,1.94758c-.63447-.09806-1.17218-.18963-1.617-.2773-.46108-.089-.87865-.17339-1.24946-.25q-.57277-.1169-1.02737-.17794a4.54363,4.54363,0,0,0-2.1398.13963,1.00846,1.00846,0,0,0,.11755,1.893,4.8319,4.8319,0,0,0,1.5365.19223c.52147,0,.9858-.013,1.39038-.03961.40978-.02663.77994-.0656,1.11179-.1195.32535-.0526.64941-.1104.97736-.17469.29613-.06039.61045-.11364.94164-.1617q.62636.14612,1.23713.27665c.42666.09027.90268.16949,1.41571.23573q.76176.09645,1.6995.15651c.628.03832,1.34818.0578,2.14175.0578a16.88851,16.88851,0,0,0,6.3733-1.278,19.45521,19.45521,0,0,0,5.63038-3.49187,17.59814,17.59814,0,0,0,4.02958-5.26736,14.56244,14.56244,0,0,0,1.53975-6.609,17.64385,17.64385,0,0,0-.17664-2.43788A14.40162,14.40162,0,0,0,196.63454,8.32469ZM178.72709,26.46593a23.40387,23.40387,0,0,0,3.65812-3.69708,39.42674,39.42674,0,0,0,3.03469-4.43417c.9358-1.5865,1.84562-3.186,2.70479-4.753.87085-1.58846,1.758-3.14184,2.636-4.6173a26.056,26.056,0,0,1,2.62426-3.675,6.00555,6.00555,0,0,1,1.07023,2.184,11.553,11.553,0,0,1,.41237,3.01715,20.90816,20.90816,0,0,1-.437,4.15752,21.50763,21.50763,0,0,1-1.30986,4.17765,21.20225,21.20225,0,0,1-2.16448,3.85359,14.47259,14.47259,0,0,1-3.03534,3.14768,14.76193,14.76193,0,0,1-3.94191,2.13136,14.1574,14.1574,0,0,1-4.82381.79033c-1.01632,0-1.93719-.026-2.73661-.07728-.42211-.02727-.84293-.06818-1.25855-.12273A14.00138,14.00138,0,0,0,178.72709,26.46593Z"/><path d="M203.91831,24.21971a2.92051,2.92051,0,0,0-2.045-.81046,2.58679,2.58679,0,0,0-2.006.81046,2.7083,2.7083,0,0,0-.84878,2.0833,2.7972,2.7972,0,0,0,.84878,2.04434,2.699,2.699,0,0,0,2.006.7728,3.06,3.06,0,0,0,2.045-.7728,2.95938,2.95938,0,0,0,.84878-2.04434A2.85241,2.85241,0,0,0,203.91831,24.21971Z"/></svg>