<?xml version="1.0" encoding="UTF-8"?><svg id="_圖層_3" xmlns="http://www.w3.org/2000/svg" viewBox="0 0 773.61 120.68"><polygon points="34.82 85.49 42.42 85.49 42.42 64.7 67.76 64.7 67.76 57.8 42.42 57.8 42.42 40.96 70.84 40.96 70.84 34.07 34.82 34.07 34.82 85.49"/><path d="M103.64,38.04c-1.56,.5-3.24,1.23-4.98,2.15-1.74,.92-3.47,2-5.15,3.21-5.67,4.09-8.43,7.77-8.43,11.27,0,1.13,.31,2.86,1.98,4-4.13,2.29-7.45,4.79-9.87,7.44-2.98,3.26-4.49,6.62-4.49,9.99,0,2.1,.58,3.96,1.72,5.53,1.12,1.55,2.74,2.74,4.8,3.55,1.98,.77,4.32,1.16,6.97,1.16,2.38,0,5.04-.38,7.91-1.13,2.85-.74,5.79-1.83,8.74-3.22l.55-.26,1.45-7.17-2.26,1.21c-2.94,1.57-5.58,2.85-7.86,3.82-2.25,.95-4.33,1.66-6.17,2.13-4.26,1.07-7.57,.93-9.71-.81-1.16-.94-1.72-2.13-1.72-3.62,0-3.32,2.73-7.02,8.12-11,3.38-2.49,6.78-4.48,10.12-5.91l.58-.25,.87-4.25h-2.01c-1.89-.08-2.67-.27-2.91-.35-.4-.17-.74-.44-1.03-.85-.27-.38-.41-.77-.41-1.18,0-1.09,.59-2.42,1.75-3.95,1.25-1.64,2.98-3.22,5.14-4.7,1.64-1.13,3.29-2.04,4.93-2.71,1.57-.64,2.89-.97,3.92-.97,1.6,0,1.6,.61,1.6,1.15,0,1.38-.87,3.98-5.02,8.56l-.74,.81,3.39,3.71,.89-.86c1.26-1.21,2.42-2.59,3.44-4.09,1.03-1.51,1.83-2.98,2.36-4.38,.57-1.45,.85-2.79,.85-3.96,0-1.45-.46-2.63-1.38-3.52-1.65-1.6-4.4-1.67-7.94-.54Z"/><path d="M129.18,30.92c-1.85,0-3.71,.3-5.52,.9-1.83,.6-3.41,1.42-4.68,2.44l-.85,.68,2.54,3.89,1.04-.89c.86-.73,1.92-1.32,3.17-1.73,1.27-.42,2.67-.64,4.17-.64,1.93,0,3.36,.39,4.24,1.17,.85,.75,1.27,1.92,1.27,3.57v.4h-6.63c-3.55,0-6.05,.67-7.65,2.04-1.63,1.4-2.45,3.14-2.45,5.19,0,2.25,.9,4.1,2.66,5.5,1.68,1.33,4.04,2.01,7.02,2.01,2.54,0,4.7-.52,6.4-1.54,.31-.18,.59-.38,.87-.58v1.91h5.01v-14.86c0-3.11-.95-5.5-2.84-7.11-1.83-1.56-4.44-2.36-7.75-2.36Zm-1.12,20.09c-1.79,0-3.15-.31-4.03-.94-.77-.54-1.13-1.24-1.13-2.2,0-.83,.33-1.48,1.03-2.02,.54-.41,1.71-.91,4.27-.91h6.35v2.51c-.55,1.12-1.3,1.96-2.3,2.57-1.06,.65-2.47,.98-4.2,.98Z"/><path d="M224.53,46.76c-2.51-.25-4.64-.25-6.99,.08,.08-.65,.12-1.27,.12-1.86,0-5.1-2.46-8.72-6.93-10.24-.64-5.73-4.78-9.13-11.16-9.13-10.1,0-25.49,9.15-28.11,26.34l-.09,.57,1.77,.35,.09-.62c2.46-16.21,16.87-24.85,26.33-24.85,5.16,0,8.5,2.48,9.27,6.84-1.15-.23-2.35-.34-3.6-.34-12.06,0-23.42,10.97-23.42,19.48,0,4.39,4.19,6.39,8.07,6.39,10.23,0,20.62-14.59,20.92-23.05,3.27,1.43,5.05,4.33,5.05,8.26,0,.71-.06,1.43-.18,2.15-8.81,1.86-14.89,7.93-20.76,14.63-.66-.9-1.57-1.47-2.43-1.47-.95,0-2.05,.67-2.05,2.57,0,.91,.46,1.85,1.25,2.61-6.21,7.09-15.64,16.18-27.11,16.18-9.41,0-14.8-3.5-14.8-9.59,0-7.12,7.92-14.8,20.71-14.8,6.7,0,9.52,2.86,10.03,5.82-3.08-1.09-6.16-1.64-9.16-1.64-9.44,0-16.76,5.65-16.76,10.51,0,4.39,6.16,6.22,9.46,6.22,8.12,0,16.69-6.81,18.11-12.46,1.47,.66,2.92,1.43,4.33,2.3l.47,.29,1.07-1.43-.55-.35c-1.64-1.04-3.36-1.95-5.11-2.69-.13-3.91-3.29-8.35-11.89-8.35-13.89,0-22.49,8.61-22.49,16.59,0,6.19,6.98,12.59,18.67,12.59,12.45,0,17.78-6.9,23.42-14.2,1-1.3,2.04-2.64,3.12-3.95,.23,.1,.45,.19,.66,.26-.3,1.36-.62,2.56-.97,3.86-.97,3.42-2.98,10.54-2.98,16.38,0,7.95,6.43,12.71,12.65,12.71,5.03,0,10.91-3.22,10.91-12.3s-6.13-16.99-14.9-18.89l-.6-.13-.35,1.77,.59,.12c7.93,1.65,13.47,8.7,13.47,17.13,0,7.76-4.91,10.51-9.12,10.51-5.34,0-10.86-4.08-10.86-10.92,0-4.8,1.39-10.28,2.7-15.04,.44-1.59,.89-3.23,1.23-4.87,.18,.01,.36,.02,.56,.02,10.62,0,19.08-9.5,21.01-18.46,2.45-.37,4.65-.39,7.19-.13l.66,.07v-1.79l-.54-.05Zm-32.29,16.12c0-.45,.11-.79,.26-.79,.34,0,.85,.37,1.23,1.06l-.88,1.01c-.44-.47-.61-.96-.61-1.29Zm3.49,.63c5.59-6.54,11.33-12.52,19.6-14.46-2.07,8.01-9.73,16.3-19.12,16.3-.1,0-.19,0-.27,0,0-.09,0-.18,0-.26,0-.53-.07-1.06-.22-1.57Zm-7.45-6.39c-2.13,0-4.67-.65-4.67-3.74,0-8.95,12.39-17.7,21.63-17.7,1.38,0,2.65,.15,3.79,.44,0,.08,0,.15,0,.23,0,7.33-12.21,20.76-20.76,20.76Zm-16.91,6.13c2.92,0,5.98,.6,9.08,1.77-1.29,4.24-10.72,10.29-18.06,10.29-.61,0-6-.09-6-3.33,0-3.47,5.97-8.72,14.98-8.72Z"/><path d="M217.33,78.35c-.6,.41-1.09,.96-1.45,1.63-.37,.68-.56,1.45-.56,2.29,0,2.26,1.35,3.6,3.6,3.6,1.14,0,2.16-.48,2.97-1.38,.78-.87,1.18-1.93,1.18-3.15,0-1.05-.33-1.92-.98-2.61-1.15-1.2-3.25-1.43-4.75-.38Z"/></svg>