<svg id="圖層_1" data-name="圖層 1" xmlns="http://www.w3.org/2000/svg" viewBox="0 0 204.77034 46.30416"><path d="M12.95051.87021,0,29.19873H4.43676l3.22756-7.21234H21.86885l3.22691,7.21234h4.47573L16.621.87021ZM9.295,18.34191,14.76691,6.11483l5.47127,12.22708Z"/><path d="M45.73787.639a12.43581,12.43581,0,0,0-6.49538,1.63716,8.42623,8.42623,0,0,0-1.9807,1.65469V.87021h-4.0692V29.19873h4.18479V13.183c0-2.98923.70591-5.205,2.09824-6.58565a7.69981,7.69981,0,0,1,5.722-2.08266,7.31494,7.31494,0,0,1,5.44529,1.9794c1.29427,1.317,1.95017,3.347,1.95017,6.033V29.19873h4.1848V12.45047c0-3.788-.9975-6.73372-2.9652-8.75663A10.79544,10.79544,0,0,0,45.73787.639Z"/><path d="M130.57017.6559c-3.91919,0-8.56311,1.77094-13.80319,5.26346a36.5314,36.5314,0,0,0-9.10666,8.21762c-2.43853-.32145-7.62147-1.63586-7.62147-6.9766,0-3.39511,2.8587-5.95508,6.65-5.95508,2.71518,0,4.73744,1.36311,5.15241,3.475.01234.06169.02013.11884.02728.16625.01688.12274.06234.44744.37666.44744.40912,0,.40912-.45848.40912-.67928,0-3.02949-3.01975-4.6147-6.00313-4.6147-4.16726,0-8.66572,2.7522-8.66572,7.19935,0,5.97651,5.833,7.53574,8.9086,7.94162-2.49438,3.47109-3.78151,6.56358-3.93088,9.44111a4.45954,4.45954,0,0,0,1.10984,3.43927,5.06587,5.06587,0,0,0,3.7354,1.38519,11.80433,11.80433,0,0,0,6.461-2.53075,70.9895,70.9895,0,0,1-8.61116,9.434c-3.75683,3.3542-11.68157,8.98133-22.54034,8.98133-7.21558,0-13.07714-1.95472-16.506-5.50374A12.56473,12.56473,0,0,1,63.19658,30.243c.30718-8.58909,8.91834-13.722,17.06647-13.722,7.35131,0,11.3179,4.3413,11.3179,8.42544a8.78674,8.78674,0,0,1-8.69429,8.42413,8.22162,8.22162,0,0,1-2.45151-.3325,2.40024,2.40024,0,0,1-.34874-.13962c-.376-.18119-.54745-.03637-.63966.15781-.15262.45328.51822.74682.62862.78968a6.72391,6.72391,0,0,0,2.88792.53771c5.37711,0,11.13477-3.777,11.13477-9.39955,0-6.49928-6.9214-9.89959-13.75838-9.89959-11.60883,0-18.138,7.83772-18.38736,15.21241A13.44342,13.44342,0,0,0,65.613,40.49909c4.8842,5.0511,13.0148,5.80507,17.42689,5.80507,11.15165,0,18.08993-4.07439,23.92682-8.47674,4.75952-3.58733,9.697-10.10675,13.30184-14.86757.58382-.77084,1.13647-1.50013,1.63327-2.14759.19222-.20781.37406-.39874.5442-.57733a7.03373,7.03373,0,0,0,1.52287-1.98459,1.27863,1.27863,0,0,0,.06753-1.17738.79081.79081,0,0,0-.66434-.36821c-.954-.05975-1.79042.84553-2.332,1.60469a41.54784,41.54784,0,0,1-4.75172,5.51738c-2.17747,2.25085-5.73623,4.529-8.32543,4.529a2.45681,2.45681,0,0,1-1.89627-.64421,3.59046,3.59046,0,0,1-.589-2.74181c.25133-3.52369,2.33723-6.596,4.65951-9.68658a35.71349,35.71349,0,0,0,14.27726-3.22691C129.24862,9.9392,134.451,6.35771,134.451,3.49642,134.451,1.54494,132.43917.6559,130.57017.6559Zm-6.61683,10.48471a33.87876,33.87876,0,0,1-13.02325,3.11587,40.14071,40.14071,0,0,1,7.07661-6.95063c3.06132-2.42035,7.68251-5.63817,12.44787-5.63817a1.63775,1.63775,0,0,1,1.8664,1.82874c0,2.70089-4.3374,5.85507-8.367,7.64354Z"/><path d="M155.93089,19.479a9.18211,9.18211,0,0,0,4.088-3.40939,9.57039,9.57039,0,0,0,1.43714-5.27775,9.72333,9.72333,0,0,0-1.43714-5.35568,9.18747,9.18747,0,0,0-4.088-3.41A15.1602,15.1602,0,0,0,149.7602.87021H138.98911V29.19873h4.18479V20.63562h6.5863q.96243,0,1.85861-.08507l6.12847,8.64818h4.75757l-6.84347-9.60346C155.7523,19.5576,155.84257,19.51864,155.93089,19.479Zm1.34038-8.68714a5.47785,5.47785,0,0,1-1.86511,4.46728,8.73533,8.73533,0,0,1-5.72389,1.61768H143.1739V4.668h6.50837a8.736,8.736,0,0,1,5.72325,1.617A5.52375,5.52375,0,0,1,157.27127,10.79188Z"/><rect x="184.77244" y="7.75281" width="4.15622" height="4.15622"/><rect x="180.61622" y="11.90902" width="4.15622" height="4.15622"/><rect x="172.30379" y="11.90902" width="4.15622" height="4.15622"/><rect x="188.92866" y="3.59659" width="4.15622" height="4.15622"/><rect x="163.99135" y="3.59659" width="4.15622" height="4.15622"/><rect x="168.14757" y="7.75281" width="4.15622" height="4.15622"/><rect x="176.46" y="16.06524" width="4.15622" height="16.62487"/><path d="M203.969,24.623a2.77194,2.77194,0,0,0-3.81723,0,2.65046,2.65046,0,0,0-.80007,1.982,2.72992,2.72992,0,0,0,.78449,1.96641,2.66859,2.66859,0,0,0,3.84709.0013,2.7315,2.7315,0,0,0,.78709-1.96771A2.64868,2.64868,0,0,0,203.969,24.623Z"/></svg>