<?xml version="1.0" encoding="UTF-8"?><svg id="_圖層_3" xmlns="http://www.w3.org/2000/svg" viewBox="0 0 773.61 120.68"><path d="M71.83,38.78c-4.09-2.15-8.88-3.24-14.26-3.24h-21.07v51.19h21.07c5.38,0,10.17-1.09,14.26-3.24,4.1-2.16,7.35-5.21,9.64-9.06,2.29-3.84,3.45-8.32,3.45-13.3s-1.16-9.45-3.45-13.3c-2.29-3.85-5.53-6.9-9.64-9.06Zm-27.76,3.62h13.23c4.1,0,7.7,.81,10.69,2.4,2.97,1.58,5.31,3.79,6.95,6.56,1.65,2.77,2.48,6.06,2.48,9.77s-.84,6.95-2.48,9.74c-1.64,2.79-3.98,5.01-6.95,6.59-2.99,1.59-6.59,2.4-10.69,2.4h-13.23V42.4Z"/><polygon points="90.39 42.4 100.28 42.4 100.28 79.86 90.39 79.86 90.39 86.73 117.6 86.73 117.6 79.86 107.78 79.86 107.78 42.4 117.6 42.4 117.6 35.54 90.39 35.54 90.39 42.4"/><path d="M212.42,27.02c-11.21,0-26.06,25.81-29.26,33.12l-.02,.06c-2.64,1.54-5.1,2.87-7.49,4.04,.02-.25,.03-.49,.03-.73,0-5.61-5.06-11.61-19.27-11.61s-23.23,8.54-25.46,16.84c-5.46-2.79-8.57-7.31-8.57-12.48,0-10.08,11.22-20.79,32.01-20.79,8.89,0,21.77,.59,30.92,5.71l.55,.31,.81-1.63-.5-.28c-9.58-5.38-22.73-6-31.79-6-16.67,0-33.91,8.49-33.91,22.69,0,6.09,3.67,11.33,10.09,14.43-.08,.67-.12,1.3-.12,1.87,0,11.64,14.24,15.86,23.8,15.86,16.07,0,24.75-14.42,30.5-27.05,17.45-10.52,30.09-23.97,30.09-32.02,0-1.47-.9-2.34-2.41-2.34Zm0,1.9c.48,0,.51,.19,.51,.44,0,6.98-11.38,19.24-26.76,28.98,4.78-9.46,17.25-29.43,26.25-29.43Zm-56.02,24.88c12.81,0,17.38,5.02,17.38,9.71,0,.37-.03,.73-.07,1.06-3.77-2.64-8.11-4.03-12.63-4.03-12.57,0-20.9,5.51-21.85,10.85-2.36-.4-4.55-1.03-6.52-1.86,1.84-7.72,10.63-15.73,23.7-15.73Zm19.39,12.43c2.01-.97,4.06-2.04,6.11-3.19l-.34,.79c-.79,1.82-1.79,3.58-2.96,5.26l-.36-.4c-.89-.98-1.68-1.77-2.45-2.45Zm-28.38,5.81c-2.34,0-4.42-.12-6.31-.37,.71-4.04,7.69-9.23,19.97-9.23,4.1,0,7.85,1.14,11.17,3.4-9.04,4.06-17.6,6.2-24.83,6.2Zm0,1.9c7.36,0,16.06-2.15,25.26-6.23-3.28,5.99-13.49,9.63-21.84,9.63-3.24,0-8.57-.51-9.62-3.74,1.9,.23,3.94,.35,6.21,.35Zm-15.04-2.46c2.04,.81,4.34,1.42,6.83,1.82,.99,5.62,10.75,6.91,14.2,6.91,8.95,0,17.29-4.5,20.74-11.2,.19-.39,.39-.79,.56-1.2,.67,.6,1.34,1.28,2.08,2.1l.37,.41,1.23-.92c-6.51,9.09-18.07,15.6-28.74,15.6-8.62,0-17.31-3.84-17.31-12.43,0-.39,.01-.75,.04-1.09Z"/><path d="M245.92,39.26c.79,0,1.46-.58,2.01-1.74l.65-1.46,2.28-5c-4.31-1.52-8.47-2.28-12.49-2.28-7.94,0-14.57,2.82-19.88,8.47-5.31,5.64-7.96,12.67-7.96,21.08,0,5.69,1.43,10.27,4.3,13.74,2.87,3.47,6.65,5.2,11.34,5.2,4.96,0,10.01-1.78,15.13-5.34l-.67,5.9c-.64,5.5-1.67,9.27-3.11,11.33-1.44,2.06-3.79,3.08-7.05,3.08-4.33,0-7.53-2.01-9.61-6.02l-5.06,4.01c2.65,3.27,6.36,4.9,11.12,4.9,5.17,0,9.61-1.95,13.33-5.85,1.86-1.93,3.2-4.03,4.01-6.31,.82-2.28,1.49-5.72,2.01-10.33l1.52-13.68c.11-.93,.32-2.03,.61-3.3l.54-2.14,.34-1.4h-9.06l-3.44,.04c-2.79,0-4.69,.3-5.7,.88-1.01,.59-2.08,2.04-3.22,4.36,2.36-.77,5.5-1.16,9.43-1.16h5.79l-1.4,12.26c-3.66,3.08-7.44,4.62-11.35,4.62-4.25,0-7.56-1.51-9.95-4.52-2.39-3.01-3.58-7.2-3.58-12.57,0-7.32,1.7-13.19,5.11-17.62,3.41-4.43,7.94-6.64,13.59-6.64,2.7,0,5.07,.56,7.1,1.69,2.03,1.13,3.05,2.45,3.05,3.96,0,.45-.16,1.03-.47,1.73,.32,.07,.55,.1,.71,.1Z"/><path d="M285.22,41.83l1.13,.07c4.61,.28,5.43,.89,5.43,7.86v18.34c0,5.75-.33,8.07-2.29,10.44-2,2.32-5.63,3.7-9.69,3.7-3.44,0-6.17-.94-8.08-2.8-2.44-2.38-2.71-5.13-2.71-10.43v-21.75c0-4.48,.15-4.91,5.25-5.36l1.1-.1v-3.63h-22.13v3.64l1.11,.08c5.02,.38,5.16,.75,5.16,4.66v21.61c0,7.76,2.01,13.02,6.12,16.09,3.07,2.32,7.19,3.45,12.58,3.45,6.75,0,11.79-1.85,14.98-5.5,3.44-3.9,4.07-8.07,4.07-14.88v-17.78c0-6.4,.56-7.19,5.47-7.66l1.09-.1v-3.62h-18.58v3.66Z"/><path d="M331.26,36.73h-22.16c-.56,0-1.01,.45-1.01,1.01v16c0,.56,.45,1.01,1.01,1.01h3.69c.8,0,1.45,.65,1.45,1.45v9.85c0,.56,.46,1.01,1.01,1.01h3.69c.56,0,1.01-.46,1.01-1.01v-9.85c0-.56-.46-1.01-1.01-1.01h-3.69c-.8,0-1.45-.65-1.45-1.45v-3.69c0-.8,.65-1.45,1.45-1.45h16c.56,0,1.01-.46,1.01-1.01v-9.85c0-.56-.46-1.01-1.01-1.01Z"/><path d="M331.26,67.5h-3.69c-.8,0-1.45-.65-1.45-1.45v-9.85c0-.56-.46-1.01-1.01-1.01h-3.69c-.56,0-1.01,.46-1.01,1.01v9.85c0,.56,.45,1.01,1.01,1.01h3.69c.8,0,1.45,.65,1.45,1.45v3.69c0,.8-.65,1.45-1.45,1.45h-16c-.56,0-1.01,.46-1.01,1.01v9.85c0,.56,.46,1.01,1.01,1.01h22.16c.56,0,1.01-.46,1.01-1.01v-16c0-.56-.46-1.01-1.01-1.01Z"/><path d="M371.45,25.21c-9.75,0-18.13,3.47-24.9,10.32-6.85,6.78-10.33,15.16-10.33,24.91s3.47,18.05,10.32,24.9c6.85,6.85,15.23,10.32,24.9,10.32s17.98-3.47,24.91-10.33c6.85-6.92,10.32-15.29,10.32-24.9s-3.47-18.05-10.32-24.9c-6.85-6.85-15.23-10.32-24.9-10.32Zm0,66.58c-8.6,0-16.05-3.09-22.16-9.2-6.19-6.19-9.2-13.44-9.2-22.16s3.01-16.03,9.2-22.15h0c1.17-1.19,2.37-2.25,3.62-3.2-.36,.57-.5,1.28-.56,1.6l-1.94,8.94c-.36,1.35-.39,2.13-.39,2.33,0,1.16,.81,1.76,1.62,1.76s1.55-.67,2.4-2.27c1.62-3.24,2.53-4.32,2.84-4.64,.85-.85,2.15-1.25,4.1-1.25h7.79v34.91c0,1.31-.19,1.72-.18,1.72-.21,.27-.76,.52-1.58,.73l-6.4,1.31v3.3l1.27-.08c3.07-.18,6.16-.28,9.2-.28,3.36,0,6.41,.09,9.34,.28l1.28,.08v-3.29l-6.26-1.38c-1.02-.27-1.23-.5-1.22-.49-.05-.1-.25-.56-.25-1.84V41.55h7.79c2.12,0,3.54,.3,4.17,.83,.27,.27,.98,1.2,1.64,3.9,.53,2.11,.96,3.49,2.21,3.49,.61,0,1.62-.33,1.62-2.51l.14-10.2c0-.29-.03-.55-.08-.78,.73,.62,1.44,1.28,2.14,1.98,6.1,6.1,9.2,13.56,9.2,22.16s-3.1,15.99-9.19,22.15c-6.17,6.11-13.63,9.2-22.16,9.2Zm16.32-55.12c-.12,.28-1,.8-3.5,.8h-25.17c-1.41,0-1.74-.19-1.84-.26-.19-.11-.55-.5-.92-1.24l-.02-.04c-.5-.92-1.03-1.74-1.96-1.74-.09,0-.17,0-.26,.02,5.03-3.45,10.75-5.14,17.34-5.14s12.83,1.87,18.08,5.69c-1.17,.13-1.61,1.47-1.76,1.9Z"/><path d="M418.67,78.46c-1.9-1.84-5-1.83-6.9,0-.96,.93-1.45,2.13-1.45,3.58s.48,2.59,1.42,3.55c.95,.98,2.12,1.48,3.48,1.48s2.52-.5,3.47-1.48c.94-.97,1.42-2.17,1.42-3.56s-.49-2.65-1.45-3.58Z"/></svg>