<svg id="圖層_1" data-name="圖層 1" xmlns="http://www.w3.org/2000/svg" viewBox="0 0 343.57132 49.52944"><path d="M44.99228,4.58981l-9.237,23.9816a11.17314,11.17314,0,0,0-2.28-4.64045,11.39471,11.39471,0,0,0,2.62583-6.73913c0-3.19-1.95455-3.66646-3.11919-3.66646-3.01943,0-6.56053,1.94983-9.07381,4.98274a18.86821,18.86821,0,0,0-2.55034-.32486l-.1193-.00674q.90078-1.35672,2.03677-2.81791c6.03618-3.08953,13.24845-7.124,15.68422-10.99735a4.81851,4.81851,0,0,0,.89168-2.30569A1.21261,1.21261,0,0,0,38.49511.8033a5.77883,5.77883,0,0,0-2.52608.8108C33.72871,2.81446,27.241,8.60733,22.53389,14.62531l-.80272.40978c-1.13094.57827-2.14528,1.09656-3.14075,1.57442,1.95185-3.57278,3.05785-6.9501,3.05785-9.38317,0-2.53012-1.45108-3.07605-2.68109-3.08414-.30532-1.85884-1.61688-2.87655-3.72577-2.87655-6.46415,0-13.04962,7.38077-13.04962,14.62539A9.66037,9.66037,0,0,0,3.2587,20.435l.15771.29993.88426-.44416-.15434-.308a9.05207,9.05207,0,0,1-.922-4.09174c0-6.73307,6.06448-13.59285,12.01708-13.59285,1.5387,0,2.44183.6477,2.69121,1.92557-5.13574.8-9.85024,7.22507-9.85024,9.95537,0,.62748.24466,1.68091,1.8858,1.68091,3.09425,0,8.99158-4.15577,9.07651-10.68328,1.0568.04044,1.571.7124,1.571,2.04958,0,2.10889-1.43289,5.532-4.38021,10.46423C10.13465,20.3501,0,24.78085,0,29.07546c0,.93818.67533,1.476,1.8521,1.476,6.1548,0,12.37227-6.66972,15.85675-12.42147,1.20441-.55132,2.37174-1.1424,3.50538-1.72337-2.15876,3.02146-4.3647,6.89348-4.3647,10.101,0,2.81118,1.35,4.45637,3.80934,4.66058.9921,4.64913,4.28585,7.63688,8.45307,7.63688,4.49478,0,6.92044-4.00681,6.92044-7.77639a11.33061,11.33061,0,0,0-.17515-1.98681h3.68929l2.29423-6.30173h10.5141l2.29424,6.30173h4.00749l-9.41821-24.452ZM1.03254,29.07546c0-3.5,9.13447-7.66114,14.128-9.81047C11.8924,23.50164,4.80414,29.48389,1.50837,29.48389,1.06893,29.48389,1.03254,29.29046,1.03254,29.07546Zm28.0794,8.697c-3.91111,0-6.64747-3.26-7.43738-6.60434,3.46022-.23589,8.0999-2.90418,11.13147-6.41427a9.95021,9.95021,0,0,1,2.19381,6.27476C34.99984,34.29814,32.93611,37.77251,29.11194,37.77251ZM32.09566,23.933c-2.882,3.4063-7.38886,6.0665-10.59229,6.22758a9.87547,9.87547,0,0,1-.06-1.08511c0-2.70873,1.48074-6.018,4.0695-9.10751A15.27455,15.27455,0,0,1,32.09566,23.933Zm-5.84949-4.81627c2.458-2.68312,5.23751-4.52376,6.87192-4.52376.83708,0,1.9505.26959,1.9505,2.59887a10.17227,10.17227,0,0,1-2.31917,5.92362A16.29618,16.29618,0,0,0,26.24617,19.11672Zm-4.93017.09772a18.87781,18.87781,0,0,1,1.88176.20287,15.20334,15.20334,0,0,0-2.822,8.90464,13.85661,13.85661,0,0,0,.10783,1.78133c-1.70449-.28442-2.56786-1.52656-2.56786-3.69813,0-2.0516,1.0541-4.72865,3.07739-7.85458v.643ZM38.80109,2.05556a3.59064,3.59064,0,0,1-.67128,1.63777C36.57089,6.31781,32.21832,9.51181,24.845,13.4391,29.49746,7.93133,34.95738,3.28557,36.59515,2.46669a4.79546,4.79546,0,0,1,1.91748-.64837C38.78761,1.81832,38.80109,1.90391,38.80109,2.05556ZM9.11492,14.17913c0-2.46273,4.40447-8.19561,8.89251-8.92418-.211,4.10656-6.18243,9.5712-8.31289,9.5712A.56366.56366,0,0,1,9.11492,14.17913Zm33.85677,5.47955L47.04658,8.596h.13749l4.04119,11.06272Z"/><polygon points="74.912 11.924 74.912 16.204 79.191 16.204 79.191 11.924 79.191 7.644 74.912 7.644 74.912 11.924"/><polygon points="66.353 16.204 66.353 11.924 66.353 7.644 70.633 7.644 74.912 7.644 74.912 3.365 70.633 3.365 66.353 3.365 62.074 3.365 62.074 7.644 62.074 11.924 62.074 16.204 62.074 20.482 62.074 24.762 62.074 29.042 66.353 29.042 66.353 24.762 66.353 20.482 70.633 20.482 74.912 20.482 74.912 16.204 70.633 16.204 66.353 16.204"/><path d="M96.00592,4.58981h-10.138v24.452h3.73386V19.52119h6.33542c5.85555,0,8.80085-2.50047,8.80085-7.50006C104.738,7.05523,101.82777,4.58981,96.00592,4.58981Zm3.73251,10.719a6.427,6.427,0,0,1-4.0412,1.02714H89.60175V7.77505h6.09548a6.38566,6.38566,0,0,1,4.0075,1.02714,3.73746,3.73746,0,0,1,1.30078,3.21894A4.057,4.057,0,0,1,99.73843,15.30881Z"/><polygon points="114.087 15.483 109.082 4.668 105.293 4.668 112.398 19.016 112.398 29.042 115.772 29.042 115.772 19.012 122.882 4.668 119.092 4.668 114.087 15.483"/><path d="M127.6035,24.1447a2.62026,2.62026,0,0,0-1.9532.68477,2.34269,2.34269,0,0,0-.78721,1.8831,2.47852,2.47852,0,0,0,.71982,1.8157,2.45136,2.45136,0,0,0,1.78065.71847,2.75756,2.75756,0,0,0,.856-.10245,4.00749,4.00749,0,0,1-.891,2.398,5.38691,5.38691,0,0,1-2.29423,1.60946v2.123a7.72923,7.72923,0,0,0,4.10993-2.67166,7.28332,7.28332,0,0,0,1.507-4.55476,4.64955,4.64955,0,0,0-.82225-2.84151A2.78417,2.78417,0,0,0,127.6035,24.1447Z"/><path d="M161.56945,17.227a36.58781,36.58781,0,0,0-6.40416-2.398,27.12475,27.12475,0,0,1-4.24609-1.50567,2.87478,2.87478,0,0,1-1.8157-2.60292,2.77477,2.77477,0,0,1,1.57577-2.67166,7.684,7.684,0,0,1,3.69881-.71981,6.84163,6.84163,0,0,1,4.17733,1.0622,5.42207,5.42207,0,0,1,1.91815,3.42517h3.69881a7.73881,7.73881,0,0,0-2.9116-5.8906,10.741,10.741,0,0,0-6.6778-1.8157,11.26152,11.26152,0,0,0-6.47292,1.747,5.78541,5.78541,0,0,0-2.70536,5.06833,5.39058,5.39058,0,0,0,2.80781,4.89715,43.51774,43.51774,0,0,0,5.617,2.0206,45.64567,45.64567,0,0,1,4.86344,1.64451,3.58877,3.58877,0,0,1,2.32793,3.21893,2.83848,2.83848,0,0,1-1.64316,2.56787,8.98517,8.98517,0,0,1-4.41862.95975,7.49393,7.49393,0,0,1-4.55477-1.13094A6.00035,6.00035,0,0,1,148.35,20.95947h-3.69881c.20624,3.08279,1.30213,5.342,3.32273,6.78159a14.75207,14.75207,0,0,0,14.17786-.06874,6.0802,6.0802,0,0,0,2.56787-5.17213A5.89071,5.89071,0,0,0,161.56945,17.227Z"/><path d="M179.81008,14.76558h-2.088V8.4315h-2.123V2.09743h-2.49913V8.4315h-2.088v6.33408h-2.12305v8.49081h-2.15673v6.74386h2.53417V23.59878H179.4677v6.40147h2.46542V23.25639h-2.123ZM177.346,21.13335h-5.9917V15.14166h2.123V8.80759H175.223v6.33407H177.346Z"/><polygon points="183.406 7.775 191.591 7.775 191.591 29.042 195.29 29.042 195.29 7.775 203.441 7.775 203.441 4.59 183.406 4.59 183.406 7.775"/><rect x="206.44716" y="4.58981" width="3.69881" height="24.45204"/><path d="M246.855,1.04054A6.48126,6.48126,0,0,0,243.33011,2.557c-2.15135,1.57712-4.43952,4.58172-7.18464,9.43978a32.10883,32.10883,0,0,0-5.6601-.52571c-10.89894,0-16.70394,6.54032-16.70394,11.26223,0,2.67368,1.77863,5.53069,6.77216,5.53069,2.15,0,5.14517-.9456,8.55754-2.68784-.95706,1.7847-1.90467,3.47437-2.82735,5.04273-12.05416,2.59954-19.4201,11.95171-19.4201,16.22812,0,2.334,1.49624,2.68244,2.38859,2.68244,9.14053,0,14.46431-8.47127,18.83441-17.70144a28.30661,28.30661,0,0,1,3.08548-.3471l.53851-.0337V29.92333l-.612.03977c-.79934.05257-1.54409.122-2.25177.2096.45022-.98064.88763-1.95454,1.31763-2.91025.46235-1.03051.91594-2.04014,1.36616-3.01471,8.76175-5.131,17.57675-13.83077,17.57675-20.63529A2.27409,2.27409,0,0,0,246.855,1.04054ZM232.71827,21.78905c1.72877-3.51683,2.94327-5.92294,4.12814-8.09653l1.39312.2925.27363-1.49691-.8937-.19276c2.46745-4.32291,4.57229-7.03771,6.59356-8.5144a5.50026,5.50026,0,0,1,2.642-1.22125c.50548,0,.7616.35451.7616,1.05275C247.61663,9.373,240.37335,16.85484,232.71827,21.78905Zm-12.16468,4.95579c-3.30655,0-5.28132-1.49961-5.28132-4.01154,0-4.085,5.28671-9.74442,15.2131-9.74442a29.21238,29.21238,0,0,1,4.88637.42056c-.98064,1.81638-1.93568,3.713-2.93991,5.70728l-2.08867,4.10859C226.42127,25.4636,222.86,26.74484,220.55359,26.74484Zm-11.30132,21.2668c-.434,0-.89774-.09032-.89774-1.16464,0-3.10908,5.72143-11.47723,16.83066-14.41174C218.90166,42.63327,213.40534,48.01164,209.25227,48.01164Z"/><polygon points="250.172 29.042 253.906 29.042 253.906 18.083 266.063 18.083 266.063 14.898 253.906 14.898 253.906 7.775 266.782 7.775 266.782 4.59 250.172 4.59 250.172 29.042"/><polygon points="269.208 7.124 272.12 7.809 272.12 26.301 269.208 26.988 269.208 29.042 278.626 29.042 278.626 26.988 275.715 26.301 275.715 7.809 278.626 7.124 278.626 5.07 269.208 5.241 269.208 7.124"/><polygon points="286.294 18.083 299.307 18.083 299.307 14.898 286.294 14.898 286.294 7.775 300.129 7.775 300.129 4.59 282.56 4.59 282.56 29.042 300.712 29.042 300.712 25.857 286.294 25.857 286.294 18.083"/><path d="M319.23117,0a15.97837,15.97837,0,0,0-11.81489,4.89849,15.975,15.975,0,0,0-4.89715,11.81489,16.086,16.086,0,0,0,4.89715,11.81489,16.70091,16.70091,0,0,0,23.62978,0,16.21728,16.21728,0,0,0,4.89714-11.81489,16.10413,16.10413,0,0,0-4.89714-11.81489A16.08516,16.08516,0,0,0,319.23117,0Zm10.754,27.46608a15.17207,15.17207,0,0,1-25.92536-10.7527,14.76654,14.76654,0,0,1,4.41862-10.754,15.2976,15.2976,0,0,1,21.50674,0,14.76529,14.76529,0,0,1,4.41727,10.754A14.817,14.817,0,0,1,329.98521,27.46608Z"/><path d="M319.74474,5.30828h-8.45846V28.28834H319.676q5.60079,0,8.52856-3.08145,2.77209-3.03089,2.77276-8.42476c0-3.63141-.9247-6.40417-2.73906-8.35737C326.3201,6.33677,323.47725,5.30828,319.74474,5.30828ZM325.293,23.08251c-1.30078,1.33583-3.39012,2.02059-6.26667,2.02059h-4.04119V8.49351h4.10858c2.8779,0,4.9659.65107,6.268,1.9869,1.26708,1.30078,1.91814,3.42382,1.91814,6.30172C327.27984,19.62363,326.59374,21.713,325.293,23.08251Z"/><path d="M342.81781,24.86316a2.59738,2.59738,0,0,0-1.8157-.71846,2.29886,2.29886,0,0,0-1.78066.71846,2.404,2.404,0,0,0-.75351,1.84941,2.48426,2.48426,0,0,0,.75351,1.8157,2.39978,2.39978,0,0,0,1.78066.68477,2.72294,2.72294,0,0,0,1.8157-.68477,2.63028,2.63028,0,0,0,.75351-1.8157A2.53371,2.53371,0,0,0,342.81781,24.86316Z"/></svg>