<?xml version="1.0" encoding="UTF-8"?><svg id="_圖層_3" xmlns="http://www.w3.org/2000/svg" viewBox="0 0 773.61 120.68"><path d="M56.53,31.18l-23.4,51.19h8.02l5.83-13.03h25.67l5.83,13.03h8.09L63.17,31.18h-6.63Zm-6.61,31.57l9.89-22.1,9.89,22.1h-19.78Z"/><path d="M115.78,30.76c-4.52,0-8.47,1-11.74,2.96-1.34,.81-2.53,1.8-3.58,2.99v-5.53h-7.35v51.19h7.56v-28.94c0-5.4,1.28-9.41,3.79-11.9,2.55-2.53,5.93-3.76,10.34-3.76s7.51,1.2,9.84,3.58c2.34,2.38,3.52,6.05,3.52,10.9v30.13h7.56v-30.27c0-6.85-1.8-12.17-5.36-15.82-3.57-3.66-8.48-5.52-14.59-5.52Z"/><path d="M269.09,30.79c-7.08,0-15.47,3.2-24.94,9.51-7.01,4.65-12.25,9.38-16.46,14.85-4.41-.58-13.77-2.96-13.77-12.61,0-6.14,5.17-10.76,12.02-10.76,4.91,0,8.56,2.46,9.31,6.28,.02,.11,.04,.21,.05,.3,.03,.22,.11,.81,.68,.81,.74,0,.74-.83,.74-1.23,0-5.47-5.46-8.34-10.85-8.34-7.53,0-15.66,4.97-15.66,13.01,0,10.8,10.54,13.62,16.1,14.35-4.51,6.27-6.83,11.86-7.1,17.06-.13,2.59,.55,4.68,2.01,6.22,1.54,1.61,3.93,2.5,6.75,2.5,4.07,0,8.22-2.12,11.68-4.57-3.53,4.58-9.15,11.35-15.56,17.05-6.79,6.06-21.11,16.23-40.73,16.23-13.04,0-23.63-3.53-29.83-9.95-4.34-4.49-6.41-10.29-6.17-17.25,.56-15.52,16.12-24.8,30.84-24.8,13.28,0,20.45,7.85,20.45,15.23,0,8.11-7.34,15.22-15.71,15.22-1.67,0-3.16-.2-4.43-.6-.28-.09-.49-.18-.63-.25-.68-.33-.99-.07-1.16,.29-.28,.82,.94,1.35,1.14,1.43,1.25,.63,3.1,.97,5.22,.97,9.72,0,20.12-6.83,20.12-16.99,0-11.75-12.51-17.89-24.86-17.89-20.98,0-32.78,14.16-33.23,27.49-.25,7.44,1.98,13.64,6.62,18.44,8.83,9.13,23.52,10.49,31.49,10.49,20.15,0,32.69-7.36,43.24-15.32,8.6-6.48,17.52-18.26,24.04-26.87,1.06-1.39,2.05-2.71,2.95-3.88,.35-.38,.68-.72,.98-1.04,1.28-1.35,2.21-2.32,2.75-3.59,.39-.89,.43-1.61,.12-2.13-.16-.27-.5-.61-1.2-.67-1.72-.11-3.24,1.53-4.21,2.9-3.16,4.43-5.56,6.87-8.59,9.97-3.94,4.07-10.37,8.18-15.05,8.18-1.58,0-2.7-.38-3.43-1.16-.89-.95-1.23-2.57-1.06-4.95,.45-6.37,4.22-11.92,8.42-17.51,9.29-.23,16.79-1.92,25.8-5.83,8.74-3.83,18.14-10.3,18.14-15.47,0-3.53-3.64-5.13-7.01-5.13Zm-11.96,18.95c-7.92,3.55-15.43,5.35-23.54,5.63,3.64-4.61,7.62-8.52,12.79-12.56,5.53-4.37,13.88-10.19,22.5-10.19,2.24,0,3.37,1.11,3.37,3.3,0,4.88-7.84,10.58-15.12,13.81h0Z"/><path d="M314.92,64.81c3.18-1.41,5.66-3.49,7.39-6.16,1.72-2.67,2.6-5.88,2.6-9.54s-.87-7-2.6-9.68c-1.73-2.67-4.21-4.75-7.39-6.16-3.11-1.39-6.87-2.09-11.15-2.09h-19.47v51.19h7.56v-15.47h11.9c1.16,0,2.28-.05,3.36-.15l11.08,15.63h8.6l-12.37-17.35c.16-.07,.33-.14,.49-.21Zm2.42-15.7c0,3.52-1.1,6.16-3.37,8.07-2.3,1.94-5.78,2.92-10.34,2.92h-11.76v-22.06h11.76c4.56,0,8.04,.98,10.34,2.92,2.27,1.92,3.37,4.58,3.37,8.14Z"/><rect x="367.04" y="43.62" width="7.51" height="7.51"/><rect x="359.53" y="51.13" width="7.51" height="7.51"/><rect x="344.51" y="51.13" width="7.51" height="7.51"/><rect x="374.55" y="36.11" width="7.51" height="7.51"/><rect x="329.49" y="36.11" width="7.51" height="7.51"/><rect x="337" y="43.62" width="7.51" height="7.51"/><rect x="352.02" y="58.64" width="7.51" height="30.04"/><path d="M401.73,74.11c-1.9-1.84-5-1.83-6.9,0-.96,.93-1.45,2.13-1.45,3.58s.48,2.59,1.42,3.55c.95,.98,2.12,1.48,3.48,1.48s2.52-.5,3.47-1.48c.94-.97,1.42-2.17,1.42-3.56s-.49-2.65-1.45-3.58Z"/></svg>