<svg id="圖層_1" data-name="圖層 1" xmlns="http://www.w3.org/2000/svg" viewBox="0 0 212.27101 38.98272"><path d="M19.54656,7.50847A16.77941,16.77941,0,0,0,11.65819,5.7161H0V34.04462H11.65819a16.76469,16.76469,0,0,0,7.88837-1.79237,13.309,13.309,0,0,0,5.3336-5.01279,14.18678,14.18678,0,0,0,1.90666-7.35975,14.18779,14.18779,0,0,0-1.90666-7.35911A13.31189,13.31189,0,0,0,19.54656,7.50847ZM4.18479,9.51384h7.31884a12.472,12.472,0,0,1,5.91612,1.33,9.69018,9.69018,0,0,1,3.84839,3.62955A10.4309,10.4309,0,0,1,22.641,19.87971a10.45991,10.45991,0,0,1-1.37415,5.39009,9.64623,9.64623,0,0,1-3.84644,3.64708,12.475,12.475,0,0,1-5.91677,1.32869H4.18479Z"/><polygon points="29.816 9.514 35.291 9.514 35.291 30.246 29.816 30.246 29.816 34.045 44.875 34.045 44.875 30.246 39.437 30.246 39.437 9.514 44.875 9.514 44.875 5.716 29.816 5.716 29.816 9.514"/><path d="M97.34511,1.00529c-6.20446,0-14.41883,14.28115-16.19237,18.325l-.01363.03377c-1.45988.85072-2.82364,1.5865-4.14713,2.23721q.01851-.20457.01883-.40588c0-3.10612-2.8022-6.42525-10.66589-6.42525-7.615,0-12.85245,4.72575-14.08763,9.31772-3.021-1.54625-4.74393-4.04387-4.74393-6.90322,0-5.57712,6.20835-11.50493,17.71328-11.50493,4.92057,0,12.04848.3273,17.11192,3.15808l.30458.17014.44939-.90333-.27535-.15456C77.51605,4.97317,70.23942,4.629,65.22664,4.629c-9.22356,0-18.764,4.69652-18.764,12.55567,0,3.36848,2.03071,6.26745,5.58167,7.98578a8.60445,8.60445,0,0,0-.06818,1.03711c0,6.43954,7.87733,8.77741,13.17261,8.77741,8.895,0,13.69409-7.97669,16.87944-14.96563C91.68291,14.19868,98.68029,6.75645,98.68029,2.30151A1.20938,1.20938,0,0,0,97.34511,1.00529Zm0,1.05074c.26366,0,.28444.1065.28444.24548,0,3.864-6.29927,10.6477-14.80848,16.0378C85.46547,13.10572,92.368,2.056,97.34511,2.056ZM66.34492,15.8209c7.08895,0,9.61515,2.77622,9.61515,5.37451a4.61041,4.61041,0,0,1-.04026.58836,12.09474,12.09474,0,0,0-6.99154-2.23266c-6.95842,0-11.56338,3.049-12.0881,6.00313a16.4454,16.4454,0,0,1-3.60747-1.02736C54.249,20.25766,59.11245,15.8209,66.34492,15.8209Zm10.72953,6.87919c1.11374-.53641,2.24566-1.12737,3.37953-1.76444l-.187.4351a16.72263,16.72263,0,0,1-1.63716,2.908l-.20132-.22209A17.40862,17.40862,0,0,0,77.07445,22.70009ZM61.37045,25.914a27.02822,27.02822,0,0,1-3.49188-.20327c.39355-2.234,4.25493-5.1089,11.0497-5.1089a10.80022,10.80022,0,0,1,6.18237,1.87874A34.64384,34.64384,0,0,1,61.37045,25.914Zm0,1.05074a35.58246,35.58246,0,0,0,13.97528-3.449c-1.8125,3.312-7.46626,5.3284-12.0855,5.3284-1.79172,0-4.74329-.28055-5.32581-2.071A28.20891,28.20891,0,0,0,61.37045,26.96476ZM53.05022,25.603a18.32889,18.32889,0,0,0,3.78085,1.00983c.54681,3.112,5.95054,3.82242,7.85526,3.82242,4.955,0,9.56709-2.48983,11.47895-6.19926.10715-.21365.21561-.437.31172-.66564a14.83979,14.83979,0,0,1,1.1488,1.16309l.20262.22664.678-.50718c-3.60032,5.02772-9.9983,8.63324-15.90208,8.63324-4.76731,0-9.57748-2.12682-9.57748-6.87854C53.02684,25.99324,53.03463,25.79258,53.05022,25.603Z"/><path d="M115.87924,7.77732q.6585,0,1.11179-.96112l.35717-.81047L118.60935,3.238a20.72157,20.72157,0,0,0-6.911-1.26115A14.47219,14.47219,0,0,0,100.7,6.66294a16.37051,16.37051,0,0,0-4.40689,11.66728A11.54905,11.54905,0,0,0,98.6738,25.9335,7.74444,7.74444,0,0,0,104.951,28.813a14.68034,14.68034,0,0,0,8.37478-2.95222l-.37146,3.26263q-.528,4.56276-1.72093,6.2694a4.42207,4.42207,0,0,1-3.90035,1.70665,5.64587,5.64587,0,0,1-5.32-3.33277l-2.80025,2.221a7.48235,7.48235,0,0,0,6.1538,2.71193,10.52587,10.52587,0,0,0,9.59956-6.73177,27.22756,27.22756,0,0,0,1.11049-5.7161l.839-7.57081a17.91151,17.91151,0,0,1,.3377-1.82744l.30132-1.18582.18963-.7728H112.7335l-1.90147.01949a6.937,6.937,0,0,0-3.15483.48965,5.71377,5.71377,0,0,0-1.77938,2.41061,17.25076,17.25076,0,0,1,5.21606-.64032h3.20158l-.7728,6.785a9.6739,9.6739,0,0,1-6.27978,2.55608,6.62963,6.62963,0,0,1-5.50569-2.50023,10.93592,10.93592,0,0,1-1.9807-6.95647q0-6.07456,2.82883-9.74892a9.01933,9.01933,0,0,1,7.52275-3.67566,7.96531,7.96531,0,0,1,3.93152.93645q1.68716.939,1.68717,2.1937a2.444,2.444,0,0,1-.26236.95593A2.07959,2.07959,0,0,0,115.87924,7.77732Z"/><path d="M137.62535,9.19888l.62408.03831c2.54828.15651,3.00222.4929,3.00222,4.351V23.7346c0,3.18275-.18444,4.46534-1.26505,5.77584a7.10628,7.10628,0,0,1-5.36152,2.04694,6.20045,6.20045,0,0,1-4.47378-1.54754c-1.34947-1.31506-1.49689-2.84117-1.49689-5.7739V12.1998c0-2.4801.08053-2.71648,2.90351-2.96391l.6072-.05325V7.176H119.91726V9.18979l.615.04675c2.77753.21106,2.85675.41692,2.85675,2.57751V23.77356c0,4.2913,1.10984,7.2039,3.38862,8.90145a11.20328,11.20328,0,0,0,6.96036,1.90991c3.73476,0,6.52527-1.02346,8.29166-3.04118,1.90147-2.156,2.24955-4.46468,2.24955-8.23385V13.47264c0-3.54253.31107-3.97828,3.0243-4.2374l.602-.05714V7.176H137.62535Z"/><path d="M163.103,6.3746H150.84212a.5604.5604,0,0,0-.56109.56109v8.854a.56123.56123,0,0,0,.56109.56109h2.043a.80263.80263,0,0,1,.80137.80137V22.602a.56207.56207,0,0,0,.56109.56109H156.292a.56207.56207,0,0,0,.56109-.56109V17.15219a.56207.56207,0,0,0-.56109-.56109h-2.04434a.80263.80263,0,0,1-.80137-.80137v-2.043a.80263.80263,0,0,1,.80137-.80137H163.103a.56207.56207,0,0,0,.56109-.56109V6.93569A.56123.56123,0,0,0,163.103,6.3746Z"/><path d="M163.103,23.4034h-2.043a.80263.80263,0,0,1-.80137-.80137V17.15219a.56207.56207,0,0,0-.56109-.56109h-2.04434a.561.561,0,0,0-.55979.56109v5.44854a.561.561,0,0,0,.55979.56109h2.04434a.80263.80263,0,0,1,.80137.80137v2.04434a.80263.80263,0,0,1-.80137.80137h-8.85534a.56207.56207,0,0,0-.56109.56109v5.44854a.56207.56207,0,0,0,.56109.56109H163.103a.56207.56207,0,0,0,.56109-.56109v-8.854A.56123.56123,0,0,0,163.103,23.4034Z"/><path d="M185.34522,0a18.73523,18.73523,0,0,0-13.77786,5.7083,18.73752,18.73752,0,0,0-5.7148,13.78306,18.85251,18.85251,0,0,0,5.7122,13.77916,19.47694,19.47694,0,0,0,27.56221-.0026,18.98072,18.98072,0,0,0,5.70961-13.77656,18.85858,18.85858,0,0,0-5.7122-13.78046A18.8585,18.8585,0,0,0,185.34522,0Zm0,36.84227a16.78407,16.78407,0,0,1-12.26084-5.09007A16.57245,16.57245,0,0,1,167.993,19.49136a16.44854,16.44854,0,0,1,5.08877-12.25824l.00519-.0052a18.88424,18.88424,0,0,1,2.00343-1.76444,2.72031,2.72031,0,0,0-.31042.88579l-1.07282,4.9459a5.29435,5.29435,0,0,0-.215,1.29038.90534.90534,0,0,0,.89619.97411c.463,0,.85722-.37146,1.32739-1.25531a10.69918,10.69918,0,0,1,1.57352-2.56646,3.047,3.047,0,0,1,2.26838-.69292h4.31208V28.36489a2.96375,2.96375,0,0,1-.09993.95243,1.71405,1.71405,0,0,1-.87418.40158l-3.53929.726v1.82744l.70462-.04221c1.6982-.102,3.41069-.15326,5.09071-.15326,1.85926,0,3.549.05,5.166.15326l.70721.04481V30.45273l-3.46525-.76435a1.72273,1.72273,0,0,1-.676-.27015,2.32755,2.32755,0,0,1-.14092-1.01568V9.045h4.31207a3.95855,3.95855,0,0,1,2.3067.46108,4.71364,4.71364,0,0,1,.90528,2.15993c.29158,1.16634.53381,1.93135,1.22348,1.93135.3351,0,.89749-.18184.89749-1.38844l.07663-5.64207a2.047,2.047,0,0,0-.04156-.42926q.603.51239,1.18322,1.093a16.78412,16.78412,0,0,1,5.09007,12.26084,16.905,16.905,0,0,1-5.08747,12.25824A16.9095,16.9095,0,0,1,185.34522,36.84227Zm9.03263-30.49819c-.06624.15391-.55525.44484-1.93459.44484H178.516c-.77994,0-.96437-.1078-1.01957-.14287a1.77086,1.77086,0,0,1-.50849-.68577l-.01039-.01949c-.27665-.50848-.56823-.965-1.08516-.965a.98775.98775,0,0,0-.14157.01039,17.52624,17.52624,0,0,1,19.59851.30457C194.7032,5.36282,194.45578,6.10379,194.37785,6.34408Z"/><path d="M211.46964,29.46888a2.77193,2.77193,0,0,0-3.81722,0,2.65047,2.65047,0,0,0-.80008,1.982,2.72992,2.72992,0,0,0,.78449,1.96641,2.66861,2.66861,0,0,0,3.8471.0013,2.73154,2.73154,0,0,0,.78708-1.96771A2.64864,2.64864,0,0,0,211.46964,29.46888Z"/></svg>