<svg id="圖層_1" data-name="圖層 1" xmlns="http://www.w3.org/2000/svg" viewBox="0 0 398.51436 43.55196"><path d="M17.91784,22.3033a17.356,17.356,0,0,0-3.36978-1.34492q-1.769-.5046-3.55746-.9332A29.22581,29.22581,0,0,1,7.804,19.08353,5.4262,5.4262,0,0,1,5.67,17.749a2.90594,2.90594,0,0,1-.726-2.09045,3.6246,3.6246,0,0,1,.63577-2.11318,4.47056,4.47056,0,0,1,2.0398-1.51572,11.97156,11.97156,0,0,1,7.339-.089,12.17174,12.17174,0,0,1,3.49317,1.60989l.66824.44549,1.48779-3.51395-.44549-.30782a13.70352,13.70352,0,0,0-4.05231-1.84692,17.15828,17.15828,0,0,0-4.69523-.66175A14.11493,14.11493,0,0,0,5.50309,8.74949a8.08154,8.08154,0,0,0-3.54058,2.94637A7.43868,7.43868,0,0,0,.79942,15.73518a6.7605,6.7605,0,0,0,1.02087,3.86528,7.437,7.437,0,0,0,2.623,2.35021,15.699,15.699,0,0,0,3.40355,1.35012q1.78263.48414,3.5672.91177a25.76572,25.76572,0,0,1,3.15743.95788A5.62508,5.62508,0,0,1,16.697,26.52771a2.9059,2.9059,0,0,1,.726,2.09044,3.41007,3.41007,0,0,1-.63382,2.01122,4.40457,4.40457,0,0,1-2.05278,1.47806,10.78448,10.78448,0,0,1-3.8997.589,13.16919,13.16919,0,0,1-4.829-.89813,10.76918,10.76918,0,0,1-3.61656-2.19175l-.64746-.62993L0,32.40551l.3325.34094a11.71246,11.71246,0,0,0,4.514,2.6879,17.75312,17.75312,0,0,0,5.99015,1.02217,14.35128,14.35128,0,0,0,5.96677-1.08321,8.21191,8.21191,0,0,0,3.57889-2.94312,7.298,7.298,0,0,0,1.18517-4.00556,6.59586,6.59586,0,0,0-1.02477-3.81073A7.34044,7.34044,0,0,0,17.91784,22.3033Z"/><path d="M45.71385,29.82606a10.13,10.13,0,0,1-3.76723,2.09434,16.41586,16.41586,0,0,1-5.11539.776c-2.64764,0-4.61925-.45134-5.86027-1.341a3.83523,3.83523,0,0,1-1.76639-3.27756,3.5736,3.5736,0,0,1,.75461-2.37359,4.75527,4.75527,0,0,1,2.22358-1.4313,11.22289,11.22289,0,0,1,3.53019-.50589h7.49158V19.96933h-7.376a6.68032,6.68032,0,0,1-4.12569-1.09686,3.50844,3.50844,0,0,1-1.341-2.98273,3.7789,3.7789,0,0,1,1.66443-3.1347A8.93332,8.93332,0,0,1,37.4105,11.4244a16.25616,16.25616,0,0,1,3.90944.46368,13.29469,13.29469,0,0,1,3.54383,1.45143l.67279.39549,1.37285-3.52045L46.436,9.92362A14.54378,14.54378,0,0,0,42.233,8.243a21.03713,21.03713,0,0,0-4.9381-.57733,15.44356,15.44356,0,0,0-6.06678,1.05659,8.54128,8.54128,0,0,0-3.77631,2.91455A7.02744,7.02744,0,0,0,26.177,15.69751a7.3223,7.3223,0,0,0,.9793,3.77047,6.73488,6.73488,0,0,0,2.13981,2.23332,7.79469,7.79469,0,0,0-3.02885,2.45412,6.78952,6.78952,0,0,0-1.24751,4.11465,7.09679,7.09679,0,0,0,1.38129,4.26922,8.81613,8.81613,0,0,0,3.975,2.90675,17.38358,17.38358,0,0,0,6.33954,1.01048,21.124,21.124,0,0,0,6.29212-.89748,11.81012,11.81012,0,0,0,4.69652-2.60348l.35523-.339-1.695-3.39187Z"/><path d="M70.04071,8.55507H64.59216a.561.561,0,0,0-.56108.55979V17.9702a.80264.80264,0,0,1-.80138.80137H57.77986a.80264.80264,0,0,1-.80137-.80137V9.11486a.561.561,0,0,0-.56109-.55979H50.96756a.55985.55985,0,0,0-.55979.55979V17.9702a.56124.56124,0,0,0,.56109.56109H56.4174a.80264.80264,0,0,1,.80138.80137V21.377a.56207.56207,0,0,0,.56108.56109H63.2297a.56207.56207,0,0,0,.56109-.56109V19.33266a.80264.80264,0,0,1,.80137-.80137h5.44855a.56207.56207,0,0,0,.56109-.56109V9.11486A.561.561,0,0,0,70.04071,8.55507Z"/><path d="M70.04071,25.58387H64.59216a.80264.80264,0,0,1-.80137-.80137V22.73816a.56207.56207,0,0,0-.56109-.56109H57.77986a.56207.56207,0,0,0-.56108.56109V24.7825a.80264.80264,0,0,1-.80138.80137H50.96886a.56041.56041,0,0,0-.56109.56109v8.854a.56124.56124,0,0,0,.55979.56239H56.4174a.56234.56234,0,0,0,.56109-.56239V26.145a.80264.80264,0,0,1,.80137-.80137H63.2297a.80264.80264,0,0,1,.80138.80137v8.854a.56234.56234,0,0,0,.56108.56239h5.44855a.56235.56235,0,0,0,.56109-.56239V26.145A.56124.56124,0,0,0,70.04071,25.58387Z"/><path d="M89.09177,26.95413a8.56125,8.56125,0,0,1-1.08322,4.89654,3.902,3.902,0,0,1-3.399,1.50663q-4.6134,0-4.6147-6.36681V8.98628H76.90626V27.27363q0,8.7943,7.70329,8.7956,3.82242,0,5.69661-2.12876,1.8742-2.12746,1.8742-6.74217V8.98628H89.09177Z"/><path d="M108.739,7.47859a6.64227,6.64227,0,0,0-4.44586-1.356,10.18181,10.18181,0,0,0-3.13729.49485A8.74933,8.74933,0,0,0,98.527,7.95591l-.47082.36107,1.50987,2.51646.59486-.48186a5.59606,5.59606,0,0,1,1.743-.92866,6.82227,6.82227,0,0,1,2.197-.35068,3.43852,3.43852,0,0,1,2.23137.59421,2.22472,2.22472,0,0,1,.652,1.77873h-3.38472a6.81822,6.81822,0,0,0-4.24648,1.08452,3.68813,3.68813,0,0,0-1.47091,3.05092,3.71711,3.71711,0,0,0,1.48909,3.06976,6.24541,6.24541,0,0,0,3.91919,1.10594,7.18735,7.18735,0,0,0,3.05806-.60265,5.7262,5.7262,0,0,0,.79033-.44485v.9319h3.21977V11.56987a5.12828,5.12828,0,0,0-1.619-4.09063ZM101.1396,15.465a1.01616,1.01616,0,0,1,.51433-.91177,3.99009,3.99009,0,0,1,2.17682-.42861h3.15353v1.1488a3.31043,3.31043,0,0,1-3.26912,1.72548,3.60877,3.60877,0,0,1-2.01707-.46238A1.18465,1.18465,0,0,1,101.1396,15.465Z"/><path d="M134.89328,10.18338a3.9991,3.9991,0,0,0-3.92438-.02013,7.18763,7.18763,0,0,0-1.85016,1.36636,9.98833,9.98833,0,0,0-1.53326,1.99628,13.94854,13.94854,0,0,0-1.21829,2.76908c-.33964,1.039-.7098,2.49373-1.10075,4.32441L123.928,26.91216a29.013,29.013,0,0,1-.72539,2.9061,10.11256,10.11256,0,0,1-.61109,1.47416c-3.75229-1.02022-6.97985-1.01762-8.86638-.03117a2.60805,2.60805,0,0,0-.17469,4.74783,6.42272,6.42272,0,0,0,3.30744.76175,9.4142,9.4142,0,0,0,3.40355-.65655,9.01646,9.01646,0,0,0,2.68466-1.60339q1.09392.31269,2.20344.6663,1.618.51334,2.6366.78968c.689.187,1.38194.34418,2.0846.47471a14.52273,14.52273,0,0,0,2.35476.25392,6.34984,6.34984,0,0,0,1.07218-.10325l.35133-.05975,1.467-3.30614-1.24167.23054a10.40185,10.40185,0,0,1-1.87484.19547,12.7241,12.7241,0,0,1-2.83272-.38769c-1.0501-.24678-2.432-.65006-4.11726-1.20076a11.1852,11.1852,0,0,0,1.03516-2.02421,28.0174,28.0174,0,0,0,1.16049-4.1153L128.92,18.075c.28184-1.28843.51173-2.22358.68188-2.78012a10.54871,10.54871,0,0,1,.63577-1.58066c.75137-1.47871,1.617-2.1976,2.64634-2.1976a.9708.9708,0,0,1,.852.34743,2.11951,2.11951,0,0,1,.3299,1.30467,9.53326,9.53326,0,0,1-.49745,2.69309,17.20464,17.20464,0,0,1-1.27024,3.05482l-.62928,1.16959,3.423-.513.14937-.3286a16.05562,16.05562,0,0,0,.96437-2.83013,11.22906,11.22906,0,0,0,.376-2.58724,5.29232,5.29232,0,0,0-.40329-2.12032A3.31762,3.31762,0,0,0,134.89328,10.18338ZM120.53355,33.7868a6.318,6.318,0,0,1-1.17023.65331,5.903,5.903,0,0,1-4.64263.07143c-.415-.2195-.62538-.44939-.62538-.68383,0-.68058,1.18517-.82345,2.17942-.82345A17.02211,17.02211,0,0,1,120.53355,33.7868Z"/><path d="M159.77928,11.01463a18.236,18.236,0,0,0-3.649,3.78085q-.66435.89424-1.25142,1.85537.02729-.31951.05585-.66045c.15132-1.85471.228-3.223.228-4.06595V10.36327l-3.41719,1.55663.01753.44615c.011.29353.01753.62927.01753,1.00918a45.44061,45.44061,0,0,1-.36237,5.46542c-.24093,1.971-.56368,3.89321-.96047,5.71285l-2.52815,11.67183h3.15028l1.541-7.09025.35328.07144a6.59355,6.59355,0,0,0,1.27933.14547,9.73254,9.73254,0,0,0,4.69783-1.29752,15.812,15.812,0,0,0,4.24778-3.46785,17.97854,17.97854,0,0,0,3.04053-4.79134,13.29966,13.29966,0,0,0,1.12673-5.25242A5.75046,5.75046,0,0,0,166.337,10.9854C164.93234,9.13524,162.48667,9.00211,159.77928,11.01463ZM152.941,27.66222l.28639-1.317a37.35582,37.35582,0,0,1,1.43194-4.97707,20.41147,20.41147,0,0,1,1.9807-3.94386A19.08641,19.08641,0,0,1,159.9832,13.357a4.52962,4.52962,0,0,1,2.6892-1.38843,1.01042,1.01042,0,0,1,.928.56628,4.149,4.149,0,0,1,.44095,2.121,14.98453,14.98453,0,0,1-.78059,4.31338,16.702,16.702,0,0,1-1.88,4.19258,9.47926,9.47926,0,0,1-2.62751,2.758,4.94051,4.94051,0,0,1-4.44391.665l-.45393-.14872Z"/><polygon points="172.963 9.558 169.587 9.558 169.587 35.56 184.081 35.56 184.081 32.726 172.963 32.726 172.963 9.558"/><path d="M189.66573,30.94953a28.857,28.857,0,0,1-1.43-9.23849,28.26617,28.26617,0,0,1,1.43-9.27746,19.61586,19.61586,0,0,1,4.103-7.20779l.43381-.46952-1.33844-1.33843-.46952.45264a20.962,20.962,0,0,0-5.05825,7.91629A26.97191,26.97191,0,0,0,185.516,21.711a27.32572,27.32572,0,0,0,1.819,9.91842,21.197,21.197,0,0,0,5.05954,7.84421l.46952.45264,1.33844-1.33843-.43381-.46952A19.74582,19.74582,0,0,1,189.66573,30.94953Z"/><path d="M222.68039,11.78937a21.21239,21.21239,0,0,0-5.0589-7.91889l-.46952-.45264-1.33389,1.33324.42407.46952a20.35943,20.35943,0,0,1,4.10621,7.20779,29.67445,29.67445,0,0,1,1.43195,9.28265,29.888,29.888,0,0,1-1.42935,9.2359,20.503,20.503,0,0,1-4.10881,7.17661l-.42342.46953,1.33324,1.33323.46952-.45264a21.77951,21.77951,0,0,0,5.06085-7.84615A28.16847,28.16847,0,0,0,224.5,21.711a27.78781,27.78781,0,0,0-1.81769-9.91777Z"/><path d="M216.16617,33.77446a28.49439,28.49439,0,0,1,.9806-6.10574l.2234-.83644h-2.0281l-.15846.43965a11.6601,11.6601,0,0,1-1.84952,3.68994,4.59091,4.59091,0,0,1-3.34965,1.07867H201.42a1.71715,1.71715,0,0,1-.96373-.18573c-.00129-.0013-.1065-.10585-.1065-.65331V22.49163h7.51366a2.09129,2.09129,0,0,1,1.20141.29094,1.0652,1.0652,0,0,1,.47212.68642l.94554,3.42044h1.69691l-.02533-.689q-.11592-3.22431-.11495-4.48936c0-.45848,0-1.18257.037-2.17877l.04286-1.19361c.02078-.56564.03572-.97541.03572-1.21894v-.665h-1.99629l-.44224,2.54829a2.08445,2.08445,0,0,1-.41562.9806,3.25853,3.25853,0,0,1-1.43715.252h-7.51366V12.29721c0-.95593.34289-.95593.64551-.95593h8.64234a2.18354,2.18354,0,0,1,1.3683.39094,2.34885,2.34885,0,0,1,.8319,1.12478l1.09425,2.68985h1.65664l-.04416-.70591c-.07533-1.21309-.07533-1.971-.07533-2.35021,0-.64616.039-1.59754.1143-2.81519l.04481-.72279-.72409.01689c-3.25939.07793-6.2129.11689-8.78.11689-2.9665,0-6.60969-.039-10.8289-.11689L193.618,8.9573v1.83458l3.33471.46887c.12924.01364.52278.0552.52278,1.11309V31.54829c0,.32275-.0591.463-.01234.45a2.219,2.219,0,0,1-.85787.23833l-3.14184.33315v1.85211l.67473-.00974c5.12709-.07663,8.78911-.11559,11.02372-.11559,5.15176,0,8.62091.039,10.31.11494l.66694.02987Z"/><path d="M279.72707,2.14954l-1.14166.39939c-4.34714,1.51962-12.71218,11.08476-17.71,16.79956-.54226.62084-1.03906,1.18842-1.47871,1.68717-5.49659,6.24406-15.08057,13.53628-24.00345,13.53628-4.59392,0-9.53852-2.2002-9.53852-7.0318,0-5.30113,6.80191-12.97,19.10042-12.97,4.98291,0,7.95785,1.77873,7.95785,4.75757,0,.09546-.00389.18833-.011.2786a22.7892,22.7892,0,0,0-7.79225-1.42156c-8.13,0-14.67665,4.86472-14.67665,8.893,0,3.24769,4.816,4.45754,7.85136,4.45754,7.23961,0,14.09737-5.57128,15.44359-10.523a27.50559,27.50559,0,0,1,2.59959,1.22933l.30067.1617.45329-.902-.28509-.15326a29.79014,29.79014,0,0,0-2.87169-1.36246,5.21063,5.21063,0,0,0,.039-.65785c0-3.63669-3.425-5.80831-9.16186-5.80831-8.17347,0-19.9979,4.99265-19.9979,14.02074,0,7.09479,8.43971,8.96963,12.90245,8.96963,9.1729,0,16.52486-7.48833,22.50592-14.81237,3.636-4.42507,11.01008-12.83557,15.6027-16.40472-2.03979,2.71648-6.47136,8.64039-12.09719,16.295-4.58807.85722-6.98764,4.36468-6.98764,7.41755a4.64543,4.64543,0,0,0,.31691,1.77159L253.365,35.85387h2.45737l.09741-.15781c.72863-1.18,1.4748-2.3554,2.221-3.49966a4.44145,4.44145,0,0,0,2.62361.72734c3.37628,0,6.36486-2.31515,8.31763-4.05491l2.15863-1.89952-.63187-.841-2.19825,1.93329c-1.882,1.65275-4.7225,3.85035-7.64614,3.85035a3.2814,3.2814,0,0,1-2.07162-.59421c1.96641-3.04443,3.927-5.99924,5.82975-8.78975a11.47226,11.47226,0,0,1,1.48649-.09222h.3325V21.385h-.3325c-.24417,0-.48056.00909-.71889.024,7.92149-11.47246,13.60187-18.26463,13.659-18.33282ZM231.48378,27.07776c0-3.15808,5.72129-7.84227,13.6259-7.84227a22.54428,22.54428,0,0,1,7.5708,1.3761c-1.41246,4.15947-8.74624,9.256-15.39748,9.256C235.11722,29.86762,231.48378,29.50525,231.48378,27.07776Zm26.29716,1.92744a6.65423,6.65423,0,0,1,4.97577-6.09145c-1.56312,2.13525-3.21522,4.39974-4.92446,6.75969A4.29456,4.29456,0,0,1,257.78094,29.0052Z"/><path d="M292.08922,25.58387h-2.043a.80263.80263,0,0,1-.80137-.80137V19.33266a.56207.56207,0,0,0-.56109-.56109h-2.04434a.561.561,0,0,0-.55979.56109V24.7812a.561.561,0,0,0,.55979.56109h2.04434a.80263.80263,0,0,1,.80137.80137V28.188a.80263.80263,0,0,1-.80137.80137h-8.85534a.56207.56207,0,0,0-.56109.56109V34.999a.56207.56207,0,0,0,.56109.56109h12.26084a.56207.56207,0,0,0,.56109-.56109V26.145A.56123.56123,0,0,0,292.08922,25.58387Z"/><path d="M292.08922,8.55507H279.82838a.56123.56123,0,0,0-.56109.56109v8.854a.56207.56207,0,0,0,.56109.56109h2.043a.80263.80263,0,0,1,.80137.80137V24.7825a.56207.56207,0,0,0,.56109.56109h2.04434a.56207.56207,0,0,0,.56109-.56109V19.33266a.56207.56207,0,0,0-.56109-.56109h-2.04434a.80263.80263,0,0,1-.80137-.80137v-2.043a.80263.80263,0,0,1,.80137-.80137h8.85534a.56207.56207,0,0,0,.56109-.56109V9.11616A.56123.56123,0,0,0,292.08922,8.55507Z"/><path d="M314.12367,24.45285a19.07385,19.07385,0,0,1-.26107,3.0165,8.84268,8.84268,0,0,1-.9871,2.87039,5.88728,5.88728,0,0,1-2.01317,2.11447,7.78234,7.78234,0,0,1-6.95906.00065,5.89127,5.89127,0,0,1-2.01317-2.11447A8.8535,8.8535,0,0,1,300.903,27.47a19.088,19.088,0,0,1-.26106-3.01715V7.58769h-3.87568V25.10745a17.96458,17.96458,0,0,0,.52213,4.36533,10.30586,10.30586,0,0,0,1.79366,3.7906,9.11788,9.11788,0,0,0,3.325,2.66387,12.96351,12.96351,0,0,0,9.95154,0,9.1178,9.1178,0,0,0,3.325-2.66387,10.35353,10.35353,0,0,0,1.795-3.7906,18.05222,18.05222,0,0,0,.52083-4.36533V7.58769h-3.87567Z"/><path d="M387.96017,34.17425h-7.16039c-.06624-3.26652-.06624-6.6993-.06624-10.49315h4.68614l.36237,3.20029h1.38584v-7.854h-1.38584l-.36237,3.23406h-4.68614c0-3.53019,0-6.79672.06624-9.9983h6.56683l.69227,4.55365h1.88069l-.3299-5.93949H375.124V12.197l2.27683.16495c.09871,3.30029.09871,6.63306.09871,9.96583v1.7495c0,.55728-.00366,1.11609-.00414,1.67459l-.08548-.11381-3.16132,2.81324c-9.28655,8.25593-21.99289,13.385-33.16142,13.385-11.24517,0-17.95876-5.09915-17.95876-13.64018,0-11.99394,15.69881-26.4803,35.19407-26.4803,8.49687,0,13.37,3.14444,13.37,8.62675a12.35506,12.35506,0,0,1-1.1001,4.85823,25.16894,25.16894,0,0,0-12.54008-3.28666c-10.18533,0-17.28337,6.38564-17.28337,12.11667,0,3.11781,2.34176,6.44993,8.91638,6.44993,10.01129,0,18.086-6.53565,21.60584-12.84141a27.9119,27.9119,0,0,1,3.31718,2.60348l.54031.4929,1.03386-1.3761-.4468-.40718a28.6524,28.6524,0,0,0-3.67046-2.86129,14.31611,14.31611,0,0,0,1.343-5.74857C373.40821,7.23312,371.938,0,358.32244,0c-20.446,0-36.90981,15.42476-36.90981,28.196,0,9.47163,7.53834,15.35592,19.6745,15.35592,11.61143,0,24.78274-5.31736,34.37451-13.87657l2.02851-1.81242c-.00877,2.07641-.028,4.14713-.08937,6.1788l-2.27683.16495v1.35337h15.113l.3299-5.907h-1.91315ZM349.6853,28.76492c-4.5082,0-7.20065-1.76964-7.20065-4.73419,0-4.34325,5.92261-10.40093,15.56764-10.40093a23.54453,23.54453,0,0,1,11.78157,3.11651C366.59331,22.6384,359.06666,28.76492,349.6853,28.76492Z"/><path d="M397.713,31.6496a2.77193,2.77193,0,0,0-3.81723,0,2.64805,2.64805,0,0,0-.80007,1.982,2.72724,2.72724,0,0,0,.78449,1.96641,2.66858,2.66858,0,0,0,3.8471.0013,2.73154,2.73154,0,0,0,.78708-1.96771A2.651,2.651,0,0,0,397.713,31.6496Z"/></svg>