<svg id="圖層_1" data-name="圖層 1" xmlns="http://www.w3.org/2000/svg" viewBox="0 0 282.86826 32.57038"><path d="M45.72489,18.4808H58.26367V15.41169H45.72489V8.54874H59.056V5.47963H45.46683c1.52164-.56823,2.43487-1.41928,2.43487-2.24427,0-.35653-.20846-1.51962-2.88987-1.51962a13.91063,13.91063,0,0,0-7.73835,2.31579c-.52537-.22729-1.08776-.491-1.67353-.76565-2.21189-1.03581-4.71861-2.20994-6.82334-2.20994a9.32982,9.32982,0,0,0-2.9152.49745A2.50492,2.50492,0,0,0,23.2995,0a5.82867,5.82867,0,0,0-3.37368,1.35726c-3.31264,2.60933-5.15112,8.6865-5.22775,8.94367l-.1039.34938.9858.19742.08572-.29224c.01754-.05909,1.77159-5.93365,4.87057-8.41244A4.65026,4.65026,0,0,1,23.2995.99489c1.12607,0,1.456.48771,1.56117.94619-2.62426,1.13712-5.194,3.42629-5.194,6.11289a1.26052,1.26052,0,0,0,1.38844,1.35467c3.63149,0,4.98486-4.21142,4.98486-6.86555v-.0026a8.559,8.559,0,0,1,2.73661-.48966c1.71964,0,4.1244,1.106,6.246,2.082.4351.2.85981.39549,1.26829.57667-3.638,2.70349-6.5889,6.94738-9.20277,10.70681l-.615.86047c-1.13452-.25782-2.19825-.53836-3.22886-.81047a37.1176,37.1176,0,0,0-10.43925-1.60793C5.47647,13.85839,0,19.36473,0,24.2879c0,3.18015,2.75739,6.60319,8.81248,6.60319,9.20277,0,13.17781-6.01093,17.386-12.37384.14936-.22405.29483-.44745.4403-.67149.1039-.161.20781-.32146.31366-.48186a25.34343,25.34343,0,0,0,2.53789.35977l-.939,1.37934.702.35133,1.48909-1.69755a14.06989,14.06989,0,0,0,4.91473-.94359l.31821-.11884-.37666-.94749-.30457.113a13.885,13.885,0,0,1-3.6276.85916l1.48974-1.68132-1.8125-.06364-1.20725,1.78458a18.07364,18.07364,0,0,1-2.5762-.27665l.33509-.48511c2.65479-3.838,5.80117-8.14359,9.60216-10.77045a11.0034,11.0034,0,0,0,3.95036.91567c.23655,0,.45256-.02208.67928-.033v22.931H59.617V25.97108H45.72489ZM45.01183,2.71063c1.23323,0,1.68068.31367,1.68068.52473,0,.55459-1.83783,1.91186-5.24463,1.91186a8.785,8.785,0,0,1-2.87429-.6137A12.52578,12.52578,0,0,1,45.01183,2.71063ZM20.6616,8.054c0-1.82224,1.71119-3.83931,4.21986-5.03357-.32276,3.10937-2.88533,5.3271-3.99127,5.3271C20.79343,8.3475,20.6616,8.3475,20.6616,8.054ZM.99489,24.2879c0-5.84533,6.87854-9.43462,11.81016-9.43462a36.58427,36.58427,0,0,1,9.93141,1.517c.99554.25522,2.01966.51823,3.09833.75721-5.68363,7.3604-13.08624,12.27383-18.54063,12.27383C4.24064,29.40134.99489,27.609.99489,24.2879Z"/><path d="M77.34071,3.5659a17.20256,17.20256,0,0,0-2.7444,1.18583A24.56783,24.56783,0,0,0,71.761,6.522c-3.12626,2.25086-4.64587,4.28156-4.64587,6.209a2.57848,2.57848,0,0,0,1.09036,2.20475,21.36733,21.36733,0,0,0-5.43621,4.09777,8.2208,8.2208,0,0,0-2.47165,5.505,5.06941,5.06941,0,0,0,.94619,3.04637,5.7514,5.7514,0,0,0,2.6418,1.95343,10.62936,10.62936,0,0,0,3.83865.63707,17.40463,17.40463,0,0,0,4.35819-.62408,27.75165,27.75165,0,0,0,4.81472-1.77484l.302-.14287L77.996,23.6833l-1.24427.665c-1.61768.86436-3.0756,1.57157-4.33286,2.10214a24.32069,24.32069,0,0,1-3.39771,1.17348c-2.34631.58836-4.16855.51173-5.35113-.44679a2.43386,2.43386,0,0,1-.95008-1.99694c0-1.82743,1.506-3.86593,4.47508-6.05768a28.46058,28.46058,0,0,1,5.57452-3.25679L73.089,15.728l.47732-2.34372L72.4604,13.385a6.53572,6.53572,0,0,1-1.60339-.19482,1.29865,1.29865,0,0,1-.56758-.46888,1.09314,1.09314,0,0,1-.2247-.64876,3.88588,3.88588,0,0,1,.96568-2.17811,12.064,12.064,0,0,1,2.83337-2.58725,14.33886,14.33886,0,0,1,2.71777-1.49364,6.03963,6.03963,0,0,1,2.15929-.53382c.8793,0,.8793.337.8793.63383,0,.75916-.47992,2.193-2.76584,4.71341l-.40653.44874,1.8677,2.04239.49161-.47277a14.39531,14.39531,0,0,0,1.89627-2.2515,12.08965,12.08965,0,0,0,1.30272-2.4132,6.11463,6.11463,0,0,0,.47017-2.18007A2.58734,2.58734,0,0,0,81.71708,3.862C80.80531,2.98274,79.29348,2.94377,77.34071,3.5659Z"/><polygon points="89.996 5.48 86.432 5.48 86.432 29.04 102.965 29.04 102.965 25.971 89.996 25.971 89.996 5.48"/><polygon points="132.72 23.002 132.587 23.002 120.543 5.48 116.913 5.48 116.913 29.04 120.511 29.04 120.511 11.32 120.642 11.32 132.818 29.04 136.316 29.04 136.316 5.48 132.72 5.48 132.72 23.002"/><path d="M157.26542,4.70886a8.21327,8.21327,0,0,0-4.39325-1.18,10.682,10.682,0,0,0-5.2193,1.41571,15.76477,15.76477,0,0,0-4.51144,3.81788,19.52086,19.52086,0,0,0-3.14249,5.4888,17.7144,17.7144,0,0,0-1.16959,6.29472,11.37279,11.37279,0,0,0,.58187,3.69644,8.20278,8.20278,0,0,0,1.6995,2.92234,7.52272,7.52272,0,0,0,2.67882,1.86315,8.77939,8.77939,0,0,0,3.37562.64616,11.23336,11.23336,0,0,0,3.99777-.73708,12.68269,12.68269,0,0,0,3.66526-2.195,16.88443,16.88443,0,0,0,3.08339-3.46719,20.29181,20.29181,0,0,0,2.46971-5.04526,17.18,17.18,0,0,0,.88384-5.34788,10.938,10.938,0,0,0-1.04165-4.85434A7.918,7.918,0,0,0,157.26542,4.70886ZM142.394,24.95159a9.80121,9.80121,0,0,1-.73448-3.9536,21.36384,21.36384,0,0,1,.76175-5.36672,20.52587,20.52587,0,0,1,1.945-4.97707,14.21884,14.21884,0,0,1,2.36385-3.15742,9.55708,9.55708,0,0,1,2.784-1.94888A7.22417,7.22417,0,0,1,152.476,4.89a6.09773,6.09773,0,0,1,2.51906.489,5.11963,5.11963,0,0,1,1.84042,1.39688,6.48725,6.48725,0,0,1,1.17933,2.258,10.373,10.373,0,0,1,.41887,3.05677,22.11489,22.11489,0,0,1-.59421,4.81406,22.49907,22.49907,0,0,1-1.46572,4.49976,14.9451,14.9451,0,0,1-2.39307,3.68475,10.81,10.81,0,0,1-3.07885,2.432,6.40121,6.40121,0,0,1-6.435-.03961A5.69641,5.69641,0,0,1,142.394,24.95159Z"/><polygon points="169.532 8.549 177.385 8.549 177.385 29.04 180.981 29.04 180.981 8.549 188.835 8.549 188.835 5.48 169.532 5.48 169.532 8.549"/><path d="M166.72666,1.75073a34.24795,34.24795,0,0,0,0,30.81965h1.68327a33.1826,33.1826,0,0,1,0-30.81965Z"/><path d="M189.92485,1.75073a33.19267,33.19267,0,0,1,0,30.81965h1.682a34.248,34.248,0,0,0,0-30.81965Z"/><path d="M205.75354,5.67705,207.668,5.842c.06624,3.16782.06624,6.36941.06624,9.56969h-6.00573c0-3.20028,0-6.40187.06494-9.53592l1.91446-.19872V4.35745h-6.86426v1.3196l1.717.16495c.06494,3.3003.06494,6.60059.06494,9.96583v1.74951c0,3.299,0,6.66553-.06494,9.96453l-1.717.165v1.35337h6.86426V27.68682l-1.91446-.19742c-.06494-3.20159-.06494-6.59929-.06494-10.62563h6.00573c0,4.02634,0,7.424-.06624,10.6581l-1.91446.165v1.35337h6.86426V27.68682l-1.71574-.165c-.06624-3.299-.06624-6.66553-.06624-9.96453V15.80783c0-3.36524,0-6.66553.06624-9.96583l1.71574-.16495V4.35745h-6.86426Z"/><rect x="216.17526" y="5.47963" width="3.56396" height="23.56056"/><polygon points="241.053 23.002 240.92 23.002 228.876 5.48 225.246 5.48 225.246 29.04 228.844 29.04 228.844 11.32 228.975 11.32 241.152 29.04 244.649 29.04 244.649 5.48 241.053 5.48 241.053 23.002"/><path d="M261.57934,18.93092l4.19778.32081c.0526,2.11512.08052,4.31662.08052,6.40512V26.8102a11.14681,11.14681,0,0,1-4.98616.991c-5.51673,0-8.94366-4.088-8.94366-10.66849,0-6.5993,3.47629-10.69837,9.07224-10.69837A9.58708,9.58708,0,0,1,265.883,7.49743l.7728,4.90628h2.623l-.15326-6.15185-.30912-.189a14.65733,14.65733,0,0,0-8.07215-2.07681c-7.615,0-12.731,5.28294-12.731,13.14664s5.07773,13.14663,12.6349,13.14663a15.0197,15.0197,0,0,0,8.55077-2.26773l.31886-.19418V25.72049c0-2.482.02533-4.59716.05455-6.51357l3.00936-.28769V16.5963H261.57934Z"/><path d="M282.14222,25.01385a2.50267,2.50267,0,0,0-1.74951-.69227,2.215,2.215,0,0,0-1.71573.69227,2.31636,2.31636,0,0,0-.726,1.782,2.39372,2.39372,0,0,0,.726,1.74951,2.31227,2.31227,0,0,0,1.71573.6598,2.62369,2.62369,0,0,0,1.74951-.6598,2.53442,2.53442,0,0,0,.726-1.74951A2.44133,2.44133,0,0,0,282.14222,25.01385Z"/></svg>