<svg id="圖層_1" data-name="圖層 1" xmlns="http://www.w3.org/2000/svg" viewBox="0 0 192.47375 176.84388"><path d="M.16406,144.414l.97082-1.94163a1.45975,1.45975,0,0,1,.66531-.66164,311.53069,311.53069,0,0,0,32.67244-18.91621q18.02416-11.77148,36.979-25.75683,18.94629-13.979,36.97852-28.14747,18.02343-14.16065,32.74756-26.67675Q155.88986,29.80957,165.646,20.97266q8.43711-7.6451,11.505-10.60179a1.47745,1.47745,0,0,1,1.81182-.18534l.50038.31273a1.48606,1.48606,0,0,1,.30262,2.2683q-3.0155,3.294-11.17595,10.4141-10.12427,8.83008-25.38868,21.52442-15.27246,12.69433-33.667,27.22851-18.40356,14.54-38.2666,28.88379Q51.39842,115.167,32.63279,127.67773q-16.327,10.8868-30.42662,18.70575A1.4853,1.4853,0,0,1,.16406,144.414ZM188.50528,0h2.48108a1.48455,1.48455,0,0,1,1.139,2.43663L52.21115,169.82691a1.48455,1.48455,0,0,1-1.139.53247H29.011a1.48477,1.48477,0,0,1-.95038-2.62413q11.02121-9.20664,20.21031-17.42861,10.48608-9.38379,21.34082-20.2373,10.84863-10.84865,25.20459-26.3086,14.34962-15.45409,34.40283-38.082Q149.253,43.06813,177.92566,9.62064c.03073-.03586.06352-.07064.09753-.10339L187.47555.41519A1.4845,1.4845,0,0,1,188.50528,0Z"/><circle cx="129.94854" cy="170.35924" r="6.48463"/></svg>