<svg id="圖層_1" data-name="圖層 1" xmlns="http://www.w3.org/2000/svg" viewBox="0 0 1920 1080"><defs><style>.cls-1{fill:#fff;stroke:#000;stroke-miterlimit:10;stroke-width:4px;}</style></defs><path class="cls-1" d="M712.37,188.64S580.66,175.2,507.92,208.9,336.69,282,400.38,438.71c0,0-95.59,53.27-100.9,134.54s44.17,147.55,169.2,180.07c0,0,3.68,56.56,48.92,88.63,44,31.22,63.31,42.16,190.87,31.95,0,0,235,115.16,403.79,0,0,0,82.56,34,176.58,25.2s143.77-21,193.36-140.28c0,0,67.87-1.15,130.77-40.56s81-87.75,70.7-153-135.75-98.9-135.75-98.9,89,10.36,102.32-62.18S1565.52,283.64,1475,274.5c0,0-18.34-81.33-159.12-125.6s-251.46,16.57-251.46,16.57-81.63-56.8-187.63-41.76S712.37,188.64,712.37,188.64Z"/><path class="cls-1" d="M400.38,438.71s66.68-41,139.32-43.22"/><path class="cls-1" d="M1064.46,165.47s-60.91,28.25-98.24,75.89"/><path class="cls-1" d="M1475,274.5s13.21,54.57-4.89,85.9"/><path class="cls-1" d="M1487.74,455.08s37,3.75,60.18,11.22"/><path class="cls-1" d="M1112.26,873.86s35.42-25.88,52.15-86.29"/><path class="cls-1" d="M651.88,820.63s25.24,40.06,56.59,53.27"/><path class="cls-1" d="M712.37,188.64s78.13,16,108.73,30.55"/><path class="cls-1" d="M1482.35,758.81s-58.71,3.42-75.36-.34"/><path class="cls-1" d="M468.68,753.32s26.13,6.8,38.69,8.62"/><ellipse class="cls-1" cx="400.38" cy="886.27" rx="56.45" ry="27.78" transform="translate(-194.31 116.77) rotate(-13.39)"/><ellipse class="cls-1" cx="270.6" cy="936.25" rx="37.22" ry="22.13" transform="matrix(0.99, -0.15, 0.15, 0.99, -134.91, 50.05)"/><text font-size="45" x="10.5em" y="8em">Welcome to the website of ONE SHEEP, TWO SLEEP.</text><text font-size="45" x="14.5em" y="9.5em">Aside from our DREAMCARD area,</text><text font-size="45" x="13.5em" y="11em">here’s more to explore. GO make yourself</text><text font-size="45" x="15em" y="14em">own “DREAMCARD” and “wallpaper”</text></svg>