<?xml version="1.0" encoding="UTF-8"?>
<svg id="_圖層_1" data-name="圖層 1" xmlns="http://www.w3.org/2000/svg" viewBox="0 0 1060.14 612.97">
  <defs>
    <style>
      .cls-1 {
        fill: #fff;
        stroke: #000;
        stroke-miterlimit: 10;
        stroke-width: 4px;
      }
    </style>
  </defs>
  <g>
    <g>
      <path class="cls-1" d="M350.04,51.05s-95.75-9.77-148.64,14.73c-52.89,24.5-124.48,53.12-78.18,167.08,0,0-69.49,38.73-73.35,97.8-3.86,59.08,32.11,107.27,123.01,130.91,0,0,2.68,41.12,35.56,64.43,32.02,22.7,46.02,30.65,138.77,23.23,0,0,170.83,83.72,293.56-.03,0,0,60.02,24.75,128.37,18.32,68.35-6.42,104.52-15.27,140.57-101.99,0,0,49.34-.83,95.07-29.48,45.73-28.65,58.86-63.79,51.4-111.25-7.46-47.45-98.69-71.9-98.69-71.9,0,0,64.74,7.53,74.38-45.21,9.65-52.73-61.59-87.59-127.37-94.23,0,0-13.34-59.12-115.68-91.31-102.35-32.19-182.81,12.05-182.81,12.05,0,0-59.35-41.3-136.41-30.36-77.06,10.94-119.56,47.2-119.56,47.2Z"/>
      <path class="cls-1" d="M123.23,232.85s48.47-29.81,101.28-31.43"/>
      <path class="cls-1" d="M606.01,34.21s-44.28,20.53-71.42,55.17"/>
      <path class="cls-1" d="M904.51,113.47s9.6,39.67-3.56,62.45"/>
      <path class="cls-1" d="M913.74,244.75s26.93,2.73,43.75,8.16"/>
      <path class="cls-1" d="M640.77,549.2s25.75-18.81,37.91-62.73"/>
      <path class="cls-1" d="M306.07,510.5s18.35,29.13,41.14,38.73"/>
      <path class="cls-1" d="M350.04,51.05s56.8,11.66,79.05,22.21"/>
      <path class="cls-1" d="M909.82,465.56s-42.68,2.48-54.79-.25"/>
      <path class="cls-1" d="M172.88,461.57s19,4.94,28.13,6.27"/>
    </g>
    <ellipse class="cls-1" cx="123.23" cy="558.23" rx="41.04" ry="20.19" transform="translate(-125.89 43.69) rotate(-13.39)"/>
    <ellipse class="cls-1" cx="28.87" cy="594.56" rx="27.06" ry="16.09" transform="translate(-87.23 10.73) rotate(-8.47)"/>
  </g>
  <g>
    <path d="M406.95,197.97v5.49h-3.65l2.1,.98c-.14,.34-.29,.66-.4,1.01h2.67c-.29-.52-.57-.98-.86-1.38l2.67-.4c.29,.55,.55,1.15,.81,1.78h4.83v2.07h-4.77v1.5h4v1.9h-4v1.5h4v1.93h-4v1.47h4.11v.06c1.72-1.72,2.87-3.74,3.45-6.07,.55-2.3,.83-5.29,.86-8.91h2.36c0,1.98-.09,3.82-.26,5.49,1.09,4.25,2.93,7.68,5.55,10.23l-1.78,2.04c-1.9-2.13-3.42-4.69-4.51-7.65-.78,3.11-2.41,5.72-4.92,7.79l-.75-.92v.14h-10.09v1.01h-2.53v-8.77c-.52,.55-1.03,1.06-1.55,1.58l-.8-2.53c1.7-1.67,2.96-3.62,3.77-5.84h-2.59v-5.49h6.3Zm-2.9-4.28v-1.41h2.53v5.2h-2.53v-1.55h-4.25v-2.24h4.25Zm.69,6.01h-1.87v2.01h1.87v-2.01Zm-.37,7.82v1.5h3.39v-1.5h-3.39Zm0,4.89h3.39v-1.5h-3.39v1.5Zm0,3.39h3.39v-1.47h-3.39v1.47Zm10.09-17.82v5.49h-6.3v-5.49h6.3Zm-3.22-.49h-2.53v-5.2h2.53v1.41h4.08v2.24h-4.08v1.55Zm.98,2.21h-1.87v2.01h1.87v-2.01Zm7.07-6.9c-.11,1.18-.23,2.3-.37,3.33h6.64v1.67c-.32,2.5-.72,5-1.24,7.47l-2.3-.66c.43-1.72,.8-3.71,1.09-6.01h-4.6c-.52,2.59-1.15,4.66-1.93,6.18l-2.04-1.44c1.18-2.64,1.93-6.3,2.27-10.95l2.47,.4Z"/>
    <path d="M439.55,199.29v2.13c-.92,1.49-2.01,2.99-3.22,4.46h3.45v1.81c-.43,2.18-.98,4-1.61,5.38l.49,.43c.83,.83,1.64,1.44,2.44,1.81,.81,.34,1.93,.52,3.39,.58,1.44,0,3.1,.03,4.94,.03,2.3,0,5.32-.09,9.03-.2l-.6,2.59h-8.05c-1.9,0-3.71-.06-5.4-.11-1.84-.06-3.22-.29-4.14-.69-1.09-.46-2.13-1.21-3.05-2.18-.17-.2-.37-.29-.6-.29-.55,0-1.41,1.24-2.59,3.77l-1.98-1.81c1.26-2.53,2.5-4,3.68-4.46,.63-1.32,1.12-2.76,1.49-4.34h-4.17v-2.07c1.38-1.5,2.53-2.96,3.45-4.34h-4.17v-2.47h7.22Zm-.32-2.79l-1.78,1.78c-1.01-1.26-2.41-2.62-4.25-4.08l1.87-1.78c1.64,1.35,3.02,2.7,4.17,4.08Zm1.15,13.83c.52-.23,.78-.66,.78-1.32v-14.14c2.44-.8,4.4-1.7,5.86-2.73l1.49,2.21c-1.21,.83-2.82,1.61-4.83,2.3v12.88c1.38-.4,2.73-.8,4.02-1.26l.49,2.56c-2.01,.63-4.37,1.26-7.07,1.93l-.75-2.42Zm12.42,1.5l-.72-2.62,1.95,.14c.57,0,.86-.32,.86-.92v-12.16h-3.33v18.74h-2.62v-21.16h8.51v15.12c0,1.9-.86,2.85-2.53,2.85h-2.13Z"/>
    <path d="M476,197.8h-10.32v-2.62h10.32v-2.82h2.76v2.82h10.35v2.62h-10.35v7.67c2.93,4,6.9,7.16,11.87,9.46l-1.49,2.56c-4-2.01-7.45-4.69-10.38-8.08v9.31h-2.76v-9.26c-2.7,3.25-6.12,5.95-10.32,8.14l-1.44-2.47c5.06-2.47,8.97-5.63,11.76-9.51v-7.82Zm-9.14,10.61l-1.7-2.07c2.36-1.93,3.94-4.51,4.74-7.79l2.53,.43c-.37,1.44-.83,2.73-1.38,3.91,1.32,.69,2.5,1.5,3.59,2.36l-1.44,2.27c-1.09-.98-2.21-1.81-3.36-2.5-.86,1.32-1.87,2.44-2.99,3.39Zm15.09-.83l-1.67-2.13c1.93-1.72,3.22-4,3.91-6.84l2.56,.43c-.32,1.32-.72,2.53-1.21,3.62,1.49,.83,2.87,1.78,4.14,2.85l-1.55,2.33c-1.24-1.21-2.5-2.21-3.77-3.02-.69,1.04-1.49,1.96-2.41,2.76Z"/>
    <path d="M511.42,193.31v2.59h-7.22c-1.21,2.47-2.33,4.37-3.33,5.72,2.3-.23,4.54-.55,6.76-.92-.57-.86-1.15-1.75-1.78-2.65l2.1-1.35c1.9,2.53,3.36,4.71,4.37,6.58l-2.27,1.58c-.37-.69-.78-1.41-1.18-2.16-3.62,.66-7.53,1.21-11.76,1.64l-.6-2.44c.46-.06,.83-.14,1.06-.26,.92-.78,2.16-2.7,3.71-5.75h-4.31v-2.59h14.46Zm.11,22.77c-4.48,.92-9.26,1.72-14.37,2.36l-.63-2.62c2.21-.23,4.4-.52,6.55-.83v-4.74h-5.32v-2.62h5.32v-3.05h2.76v3.05h4.86v2.62h-4.86v4.28c1.93-.34,3.82-.75,5.69-1.15v2.7Zm4.54-21.13v17.62h-2.65v-17.62h2.65Zm-1.44,23.6l-.6-2.64c1.38,.09,2.67,.14,3.91,.14,.72,0,1.09-.37,1.09-1.12v-22.57h2.76v23.26c0,1.96-.98,2.93-2.9,2.93h-4.25Z"/>
    <path d="M554.77,203.95v2.7h-26.02v-2.7h26.02Z"/>
    <path d="M561.7,202.66l-.89-2.9c2.3-2.36,3.91-4.92,4.86-7.7l2.62,.52c-.23,.63-.46,1.24-.72,1.84h6.18c-.32-.72-.66-1.38-1.06-1.96l2.85-.46c.34,.72,.66,1.52,.98,2.42h8.65v2.21h-8.77v1.32h7.73v2.18h-7.73v1.29h7.73v2.18h-7.73v1.38h9.46v2.21h-21.91v-6.96c-.69,.83-1.44,1.64-2.24,2.41Zm1.38,8.08v-2.3h20.96v1.98c-1.73,1.64-3.82,3.05-6.27,4.25,2.76,.72,5.95,1.32,9.63,1.84l-1.52,2.33c-4.6-.75-8.42-1.64-11.47-2.73-3.42,1.24-7.39,2.16-11.93,2.76l-1.18-2.44c3.56-.37,6.78-.95,9.66-1.75-2.39-1.18-4.11-2.5-5.2-3.94h-2.67Zm10.67-14.11h-7.16v1.32h7.16v-1.32Zm0,3.51h-7.16v1.29h7.16v-1.29Zm0,3.48h-7.16v1.38h7.16v-1.38Zm6.12,7.13h-11.04c1.26,1.06,3.08,2.01,5.4,2.85,2.13-.81,4-1.75,5.63-2.85Z"/>
    <path d="M601.29,197.14c-.8-1.38-1.67-2.64-2.56-3.79l2.36-1.12c.95,1.26,1.87,2.64,2.73,4.17l-1.49,.75h6.27c.89-1.55,1.67-3.22,2.36-4.94l2.65,.92c-.63,1.5-1.35,2.85-2.1,4.02h5.78v2.62h-9.72v3.57h8.28v2.62h-8.28v3.68h11.41v2.65h-11.41v6.64h-2.76v-6.64h-11.53v-2.65h11.53v-3.68h-8.28v-2.62h8.28v-3.57h-9.66v-2.62h6.15Z"/>
    <path d="M625.89,195.93v-2.64h24.95v2.64h-11.1v3.1h10.09v16.24c0,2.24-1.01,3.36-2.99,3.36h-3.05l-.69-2.65,2.85,.12c.81,0,1.24-.49,1.24-1.41v-2.3l-1.41,1.96c-1.09-1.09-1.87-2.56-2.36-4.46-.58,1.78-1.32,3.31-2.24,4.54l-1.24-2.36c1.32-1.58,2.13-3.68,2.44-6.32h-1.44v-2.47h3.71c0,3.97,.83,6.87,2.53,8.68v-10.41h-7.45v17.08h-2.65v-6.18l-1.49,2.04c-1.04-1.09-1.78-2.59-2.24-4.54-.57,1.81-1.35,3.33-2.36,4.6l-1.27-2.36c1.38-1.61,2.27-3.74,2.62-6.44h-1.52v-2.47h3.79c0,4.08,.8,7.04,2.47,8.88v-10.61h-7.56v17.19h-2.65v-19.72h10.21v-3.1h-11.21Z"/>
    <path d="M658.29,202.66l-.89-2.9c2.3-2.36,3.91-4.92,4.86-7.7l2.62,.52c-.23,.63-.46,1.24-.72,1.84h6.18c-.32-.72-.66-1.38-1.06-1.96l2.85-.46c.34,.72,.66,1.52,.98,2.42h8.65v2.21h-8.77v1.32h7.73v2.18h-7.73v1.29h7.73v2.18h-7.73v1.38h9.46v2.21h-21.91v-6.96c-.69,.83-1.44,1.64-2.24,2.41Zm1.38,8.08v-2.3h20.96v1.98c-1.73,1.64-3.82,3.05-6.27,4.25,2.76,.72,5.95,1.32,9.63,1.84l-1.52,2.33c-4.6-.75-8.42-1.64-11.47-2.73-3.42,1.24-7.39,2.16-11.93,2.76l-1.18-2.44c3.56-.37,6.78-.95,9.66-1.75-2.39-1.18-4.11-2.5-5.2-3.94h-2.67Zm10.67-14.11h-7.16v1.32h7.16v-1.32Zm0,3.51h-7.16v1.29h7.16v-1.29Zm0,3.48h-7.16v1.38h7.16v-1.38Zm6.12,7.13h-11.04c1.26,1.06,3.08,2.01,5.4,2.85,2.13-.81,4-1.75,5.63-2.85Z"/>
    <path d="M697.88,197.14c-.81-1.38-1.67-2.64-2.56-3.79l2.36-1.12c.95,1.26,1.87,2.64,2.73,4.17l-1.5,.75h6.27c.89-1.55,1.67-3.22,2.36-4.94l2.64,.92c-.63,1.5-1.35,2.85-2.1,4.02h5.78v2.62h-9.72v3.57h8.28v2.62h-8.28v3.68h11.41v2.65h-11.41v6.64h-2.76v-6.64h-11.53v-2.65h11.53v-3.68h-8.28v-2.62h8.28v-3.57h-9.66v-2.62h6.15Z"/>
    <path d="M736.49,212.32c.4,.37,.6,.86,.6,1.47s-.2,1.09-.6,1.5c-.43,.37-.95,.57-1.52,.57s-1.06-.2-1.47-.6c-.43-.4-.63-.89-.63-1.47,0-.6,.2-1.09,.63-1.47,.4-.4,.89-.57,1.47-.57,.6,0,1.12,.17,1.52,.57Zm.29-16.99l-.66,14.72h-2.27l-.66-14.72h3.59Z"/>
    <path d="M390.97,240.66v2.13c-.92,1.49-1.98,2.99-3.19,4.46h3.48v1.81c-.4,2.13-.86,3.91-1.38,5.32,.2,.14,.43,.32,.69,.55,.89,.89,1.75,1.52,2.62,1.9,.86,.34,2.07,.52,3.68,.58,1.55,.03,3.33,.06,5.35,.06s4.69-.09,7.96-.2l-.6,2.56h-7.01c-2.04,0-3.97-.03-5.81-.09-1.95-.06-3.45-.32-4.46-.72-1.21-.49-2.3-1.24-3.28-2.24-.2-.23-.43-.32-.66-.32-.57,0-1.49,1.24-2.76,3.71l-1.98-1.81c1.32-2.47,2.59-3.94,3.79-4.4,.55-1.35,.98-2.82,1.29-4.4h-4.17v-2.07c1.35-1.5,2.47-2.96,3.39-4.34h-3.88v-2.47h6.93Zm0-2.76l-1.78,1.78c-1.06-1.29-2.53-2.67-4.43-4.17l1.81-1.72c1.72,1.38,3.19,2.73,4.4,4.11Zm8.31-1.58c-.34-.8-.69-1.58-1.09-2.27l2.9-.46c.34,.8,.66,1.72,.98,2.73h7.22v2.47h-16.93v-2.47h6.93Zm8.54,12.13v7.42h-13.83v-7.42h13.83Zm-.66-7.91v2.16h-12.56v-2.16h12.56Zm0,3.94v2.16h-12.56v-2.16h12.56Zm-2.01,6.18h-8.48v2.96h8.48v-2.96Z"/>
    <path d="M416.41,252.33l-.86-2.76c3.16-3.16,5.29-6.21,6.38-9.17h-5.75v-2.47h3.25c-.4-1.24-.86-2.44-1.41-3.62l2.64-.69c.63,1.58,1.09,3.02,1.44,4.31h2.47v2.21c-.63,1.98-1.58,3.97-2.85,5.92v.37c.23,.17,.46,.32,.66,.49,.75-.63,1.44-1.58,2.1-2.82l1.55,1.55c-.63,1.04-1.35,1.9-2.13,2.56,.72,.66,1.41,1.35,2.04,2.04l-1.49,2.3c-.92-1.32-1.81-2.47-2.73-3.42v11.04h-2.64v-10.64c-.83,.92-1.72,1.87-2.67,2.79Zm24.49-17.74v13.8h-5.78v2.88h6.27v2.56h-6.27v2.93h7.13v2.62h-16.96v-2.62h7.13v-2.93h-6.3v-2.56h6.3v-2.88h-5.81v-13.8h14.29Zm-8.48,5.75v-3.33h-3.19v3.33h3.19Zm0,2.33h-3.19v3.31h3.19v-3.31Zm2.7-2.33h3.16v-3.33h-3.16v3.33Zm3.16,2.33h-3.16v3.31h3.16v-3.31Z"/>
    <path d="M457.66,234.62v2.16c-.75,2.47-1.61,5.06-2.64,7.82,1.55,2.62,2.41,4.92,2.53,6.87,0,1.35-.26,2.33-.78,2.9-.8,.75-2.16,1.12-4.08,1.12l-.92-2.76c.6,.09,1.09,.14,1.49,.14,.6-.06,1.01-.17,1.24-.34,.2-.23,.32-.58,.32-1.06,0-1.93-.86-4.08-2.56-6.47,1.12-2.87,2.01-5.49,2.64-7.82h-3.25v23.03h-2.67v-25.59h8.68Zm5.15,17.36c-1.12,2.5-2.44,4.69-3.94,6.53l-2.27-1.61c1.49-1.7,2.76-3.71,3.85-6.07l2.36,1.15Zm-.89,7.91l-.6-2.64c.86,.09,1.7,.14,2.5,.14,.46,0,.72-.34,.72-.98v-7.24h-6.5v-2.64h6.5v-2.76h-3.56v-1.81c-.8,.63-1.64,1.24-2.5,1.78l-1.55-2.3c3.16-1.93,5.69-4.4,7.65-7.39h2.65c1.7,2.9,4.23,5.32,7.62,7.27l-1.61,2.33c-.98-.58-1.84-1.18-2.64-1.81v1.93h-3.28v2.76h6.21v2.64h-6.21v7.93c0,1.84-.86,2.79-2.53,2.79h-2.85Zm7.91-18.69c-1.55-1.32-2.85-2.85-3.94-4.57-1.21,1.72-2.56,3.25-4.05,4.57h7.99Zm4.25,15.61l-2.3,1.55c-.8-1.9-1.93-4-3.31-6.32l2.13-1.32c1.49,2.33,2.64,4.37,3.48,6.09Z"/>
    <path d="M500.5,237.75h-18.4v-2.64h22.16v2.64c-2.64,2.39-5.63,4.66-8.97,6.81v12.36c0,2.01-1.01,3.02-2.99,3.02-1.75,0-3.28-.06-4.57-.17l-.75-2.64c1.41,.17,2.93,.26,4.57,.26,.66,0,1.01-.34,1.01-.98v-13.22c2.79-1.61,5.43-3.42,7.93-5.43Z"/>
    <path d="M518.46,260.2l-1.98-1.78c1.72-1.78,2.62-4.08,2.67-6.87v-5.78c-1.47,1.72-3.13,3.36-4.97,4.86l-1.75-2.3c3.33-2.64,5.98-5.69,7.91-9.11h-7.13v-2.62h8.42c.43-1.04,.8-2.07,1.15-3.13l2.79,.32c-.29,.98-.6,1.93-.95,2.82h13.89v2.62h-15.04c-.49,.98-1.01,1.9-1.58,2.79h13.14v15.44c0,1.7-.98,2.56-2.87,2.56h-2.93l-.63-2.44c.98,.06,1.93,.11,2.79,.11,.69,0,1.06-.4,1.06-1.15v-2.42h-10.98c-.43,2.42-1.44,4.43-2.99,6.09Zm3.25-8.83c0,.12-.03,.26-.03,.37h10.75v-2.47h-10.72v2.1Zm10.72-7.01h-10.72v2.56h10.72v-2.56Z"/>
    <path d="M546.44,260.41l-1.84-1.7c1.04-2.04,1.55-4.63,1.58-7.79v-8.57l-1.47-1.78c1.61-1.7,2.99-4.05,4.14-7.04l2.47,.58c-.2,.52-.4,1.03-.6,1.52h4.89v1.87c-.55,1.06-1.09,2.01-1.64,2.82h3.05v17.39c0,1.49-.8,2.24-2.39,2.24h-1.9l-.6-2.24c.63,.06,1.21,.11,1.75,.11,.57,0,.86-.32,.86-.92v-3.45h-6.38c-.26,2.76-.89,5.06-1.93,6.96Zm6.27-22.57h-3.05c-.46,.89-.95,1.73-1.47,2.47h3.02c.49-.72,.98-1.55,1.49-2.47Zm-2.18,4.8h-2.01v3.05h2.01v-3.05Zm-2.01,8.54h2.01v-3.25h-2.01v3.25Zm6.24-8.54h-2.07v3.05h2.07v-3.05Zm-2.07,8.54h2.07v-3.25h-2.07v3.25Zm6.38,.66l-1.58-1.93c1.21-1.32,2.04-3.08,2.47-5.26l2.24,.4c-.14,.69-.32,1.35-.49,1.96h2.1v-2.47h2.67v2.47h3.94v2.44h-3.94v2.9h4.57v2.5h-4.57v5.41h-2.67v-5.41h-6.12v-2.5h6.12v-2.9h-3.08c-.46,.92-1.03,1.7-1.67,2.39Zm-1.21-14.26v-2.41h12.39c-.03,4.08-.32,6.53-.86,7.33-.55,.81-1.49,1.21-2.82,1.21-.69,0-1.5-.06-2.44-.12l-.63-2.24c1.01,.06,1.84,.12,2.5,.17,.69-.03,1.15-.26,1.32-.66s.26-1.49,.32-3.28h-3.65c-.29,1.24-.72,2.33-1.24,3.31-.78,1.24-1.9,2.36-3.36,3.36l-1.61-2.04c1.21-.69,2.13-1.5,2.73-2.44,.4-.63,.69-1.35,.92-2.19h-3.56Z"/>
    <path d="M587.95,233.64v4.6h-2.64v-.95h-7.7v-2.42h7.7v-1.24h2.64Zm14.46,17.48h-2.64v-2.7h-11.96l2.33,.49c-.49,.52-1.01,1.04-1.52,1.5h10.03v2.01c-2.19,4.48-8.57,7.07-19.09,7.82l-1.24-2.24c3.39-.2,6.35-.58,8.85-1.12-.86-.6-1.87-1.21-2.96-1.84l1.7-1.64c1.7,.86,3.16,1.75,4.37,2.62,2.47-.86,4.28-1.98,5.43-3.31h-10.46c-1.26,.66-2.62,1.26-4.08,1.78l-1.64-2.01c3.08-.98,5.72-2.33,7.93-4.05h-7.1v2.62h-2.64v-4.8h24.69v4.89Zm-1.55-12.19v6.3h-21.24v-6.3h21.24Zm-14.92,2.1h-3.82v2.1h3.82v-2.1Zm6.09,0h-3.68v2.1h3.68v-2.1Zm2.73-7.39v1.18h8.16v2.42h-8.16v1.01h-2.64v-4.6h2.64Zm3.56,7.39h-3.88v2.1h3.88v-2.1Z"/>
    <path d="M622.24,233.73v3.28h9.14v2.62h-9.14v3.71h12.88v2.64h-12.88v2.53c3.31,1.49,6.67,3.19,10.12,5.12l-1.55,2.33c-3.39-2.07-6.27-3.65-8.57-4.74v8.94h-2.76v-14.17h-10.09v-2.64h10.09v-9.6h2.76Z"/>
    <path d="M653.12,238.56v-1.26h-11.18v-2.13h11.18v-1.61h2.7v1.61h11.18v2.13h-11.18v1.26h8.77v8.57h-.58c1.18,1.26,2.1,2.41,2.76,3.42l-1.81,1.24c-.35-.52-.69-1.04-1.09-1.55l-2.36,.12v1.98h5.81v2.21h-5.81v3.05c0,1.67-.92,2.5-2.76,2.5h-3.1l-.52-2.47c.95,.12,1.87,.17,2.76,.17,.63,0,.95-.29,.95-.86v-2.39h-9.75c1.49,.95,2.76,1.9,3.79,2.85l-1.84,1.87c-1.03-1.12-2.44-2.33-4.28-3.62l1.12-1.09h-6.27v-2.21h17.22v-1.87c-4.97,.2-10.15,.37-15.52,.55l-.52-2.16c3.51-.06,6.93-.14,10.32-.26v-1.47h-8.77v-8.57h8.77Zm0,3.28v-1.41h-6.12v1.41h6.12Zm0,1.87h-6.12v1.41h6.12v-1.41Zm2.7-1.87h6.12v-1.41h-6.12v1.41Zm6.12,1.87h-6.12v1.41h6.12v-1.41Zm-.26,3.91l.78-.49h-6.64v1.38l6.44-.26c-.23-.23-.4-.43-.58-.63Z"/>
    <path d="M698.74,234.56v2.64h-20.93v18.14c0,.8,.4,1.24,1.27,1.24h20.21v2.64h-21.01c-2.16,0-3.22-1.09-3.22-3.22v-18.8h-1.18v-2.64h24.87Zm-11.13,12.76v8.08h-8.25v-8.08h8.25Zm7.22-8.85v7.22h-13.31v-7.22h13.31Zm-9.63,11.15h-3.42v3.48h3.42v-3.48Zm7.1-8.74h-8.22v2.39h8.22v-2.39Zm5.43,6.44v8.08h-8.19v-8.08h8.19Zm-2.41,2.3h-3.39v3.48h3.39v-3.48Z"/>
    <path d="M720.5,238.44h8.91v2.07c-3.28,6.21-8.02,11.01-14.26,14.34,1.21,1.15,2.67,1.78,4.4,1.93,1.35,.06,3.28,.09,5.78,.09,1.52,0,3.62-.06,6.32-.17l-.66,2.7h-5.23c-2.56,0-4.4-.03-5.49-.06-3.13-.06-5.49-.98-7.1-2.82-.6-.63-1.09-.95-1.49-.95-.63,0-1.73,1.5-3.28,4.51l-2.18-1.52c1.95-3.91,3.79-5.84,5.52-5.84,.37,0,.72,.09,1.03,.26,.09,.03,.17,.06,.23,.12,5.66-2.99,10-6.99,13.05-11.99h-18.02v-2.67h9.49c-.75-1.58-1.61-3.05-2.59-4.4l3.16-.52c.83,1.44,1.64,3.08,2.41,4.92Z"/>
    <path d="M747.73,247.7c1.15-2.3,1.93-4.83,2.36-7.59h-5.12c-1.38,3.22-3.22,5.86-5.52,7.99l-1.9-2.36c3.22-2.99,5.4-7.01,6.55-12.07l2.73,.46c-.26,1.15-.55,2.27-.89,3.36h6.81v2.42c-.98,8.68-5.17,15.26-12.62,19.69l-1.87-2.33c3.48-1.96,6.21-4.43,8.19-7.42-1.41-1.15-2.85-2.04-4.28-2.73l1.44-2.13c1.49,.78,2.85,1.67,4.11,2.7Zm9.69-14v8.51c2.33,1.67,4.71,3.56,7.13,5.69l-1.7,2.56c-2.13-2.21-3.94-3.94-5.43-5.2v14.89h-2.76v-26.45h2.76Z"/>
    <path d="M374.73,282.02v2.16c-.86,1.5-1.9,2.96-3.08,4.46h3.36v1.81c-.4,2.13-.86,3.85-1.38,5.2,.23,.14,.46,.34,.69,.57,.92,.86,1.81,1.47,2.67,1.87,.86,.34,2.1,.52,3.71,.55,1.58,.03,3.39,.06,5.43,.06s4.83-.09,8.22-.2l-.6,2.59h-7.27c-2.07,0-4.02-.06-5.89-.11-1.98-.06-3.48-.32-4.51-.72-1.21-.46-2.3-1.21-3.31-2.21-.17-.23-.4-.32-.66-.32-.57,0-1.44,1.26-2.62,3.79l-1.98-1.81c1.27-2.53,2.5-4.02,3.65-4.46,.55-1.32,.98-2.76,1.29-4.31h-4v-2.07c1.32-1.49,2.41-2.96,3.28-4.37h-3.79v-2.47h6.78Zm-.14-2.82l-1.78,1.78c-1.03-1.27-2.5-2.65-4.37-4.11l1.78-1.7c1.72,1.32,3.19,2.67,4.37,4.02Zm16.62,6.04v5.32h-.43l1.87,1.15c-.52,.69-1.21,1.47-2.04,2.33,.92,.6,1.78,1.21,2.56,1.84l-1.78,1.78c-1.72-1.58-4.17-3.28-7.27-5.09l1.58-1.5c1.09,.6,2.13,1.21,3.08,1.78,.83-.92,1.44-1.7,1.81-2.3h-6.5c-.6,.69-1.32,1.32-2.13,1.9v2.96c1.38-.29,2.76-.6,4.11-.95l.43,2.13c-2.27,.49-4.57,.89-6.93,1.24l-.75-1.9c.52-.17,.78-.4,.78-.72v-1.35c-.92,.46-1.93,.89-3.02,1.29l-1.26-2.13c2.47-.69,4.31-1.5,5.58-2.47h-3.05v-5.32h13.37Zm2.07-3.22v2.19h-17.48v-2.19h17.48Zm-1.41-6.32v5.4h-14.66v-5.4h14.66Zm-10.41,1.81h-1.95v1.78h1.95v-1.78Zm7.33,9.66h-8.57v1.47h8.57v-1.47Zm-3.28-9.66h-1.98v1.78h1.98v-1.78Zm4.05,0h-1.98v1.78h1.98v-1.78Z"/>
    <path d="M405.77,301.57l-1.98-1.78c1.72-1.78,2.62-4.08,2.67-6.87v-5.78c-1.47,1.72-3.13,3.36-4.97,4.86l-1.75-2.3c3.33-2.64,5.98-5.69,7.91-9.11h-7.13v-2.62h8.42c.43-1.04,.8-2.07,1.15-3.13l2.79,.32c-.29,.98-.6,1.93-.95,2.82h13.89v2.62h-15.03c-.49,.98-1.01,1.9-1.58,2.79h13.14v15.44c0,1.7-.98,2.56-2.87,2.56h-2.93l-.63-2.44c.98,.06,1.93,.11,2.79,.11,.69,0,1.06-.4,1.06-1.15v-2.42h-10.98c-.43,2.42-1.44,4.43-2.99,6.09Zm3.25-8.83c0,.12-.03,.26-.03,.37h10.75v-2.47h-10.72v2.1Zm10.72-7.01h-10.72v2.56h10.72v-2.56Z"/>
    <path d="M457.66,275.98v2.56h-11.13v1.98h8.8v11.81h-9.2c-.32,1.67-.8,3.02-1.47,4.08,3.97,1.55,8.6,2.39,13.94,2.56l-.69,2.65c-5.75-.26-10.75-1.32-15.01-3.22-2.07,1.61-5.32,2.67-9.77,3.19l-1.18-2.5c3.68-.23,6.44-.89,8.28-2.01-1.55-.86-2.96-1.84-4.23-2.9l2.1-1.44c1.24,.98,2.59,1.81,4.02,2.56,.52-.8,.95-1.81,1.24-2.96h-8.25v-11.81h8.71v-1.98h-11.1v-2.56h24.92Zm-13.83,9.29v-2.42h-6.01v2.42h6.01Zm0,2.93v-.69h-6.01v2.44h5.92c.06-.58,.09-1.18,.09-1.75Zm8.8-.69h-6.09v.69c0,.63-.03,1.21-.09,1.75h6.18v-2.44Zm-6.09-2.24h6.09v-2.42h-6.09v2.42Z"/>
    <path d="M479.42,276.13c-.4,.43-.78,.83-1.15,1.21h7.68v2.13c-3.1,5.52-8.85,8.65-17.28,9.34l-1.15-2.47c2.41-.14,4.57-.46,6.47-.98-.8-.98-1.67-1.87-2.53-2.67l2.36-1.12c.95,.92,1.87,1.9,2.73,2.93,2.64-1.12,4.74-2.7,6.27-4.74h-7.73c-2.24,1.32-4.86,2.3-7.88,2.96l-1.61-2.5c5.09-.92,8.88-2.7,11.38-5.35l2.44,1.27Zm.03,20.01c2.82-1.26,5.09-2.96,6.76-5.12h-7.88c-2.5,1.15-5.43,2.07-8.8,2.73l-1.64-2.44c6.27-.6,10.9-2.44,13.83-5.55l2.33,1.26c-.52,.55-1.09,1.06-1.67,1.52h7.33v2.13c-4.11,6.73-11.76,10.23-22.97,10.52l-1.09-2.62c4.34,0,8.08-.49,11.21-1.47-.89-1.15-1.81-2.21-2.76-3.13l2.41-1.15c1.04,1.04,2.01,2.13,2.93,3.31Z"/>
    <path d="M497.28,289.29l-.89-2.9c2.67-3.28,4.63-7.13,5.86-11.5l2.47,1.15c-.55,1.84-1.24,3.59-2.04,5.26v20.27h-2.64v-15.78c-.86,1.21-1.78,2.39-2.76,3.51Zm18.02-14.06c-.06,.78-.14,1.52-.2,2.27h6.87v2.47h-7.16c-.11,.69-.2,1.32-.29,1.96h5.66v16.33h2.62v2.47h-19v-2.47h2.85v-16.33h5.2c.11-.66,.2-1.32,.26-1.96h-7.07v-2.47h7.36c.06-.89,.14-1.78,.2-2.65l2.7,.37Zm2.27,10.95v-1.81h-8.31v1.81h8.31Zm0,3.97v-1.81h-8.31v1.81h8.31Zm0,4.02v-1.84h-8.31v1.84h8.31Zm0,4.08v-1.93h-8.31v1.93h8.31Z"/>
    <path d="M537.12,276.01c-1.55,3.1-4.2,5.92-7.91,8.45l-.83-2.64c2.93-1.98,5.09-4.28,6.47-6.87l2.27,1.06Zm-7.82,16.36l-.78-2.59c2.9-2.18,5.03-4.69,6.41-7.5l2.36,1.09c-.63,1.35-1.47,2.64-2.44,3.91v14.29h-2.64v-11.5c-.92,.8-1.87,1.55-2.9,2.3Zm25.04-5.26v2.39h-3.28v1.81h3.94v2.39h-3.94v5c0,1.78-.95,2.67-2.82,2.67h-3.13l-.57-2.59c.98,.12,1.9,.2,2.76,.2,.69,0,1.06-.32,1.06-.95v-4.34h-11.82v-2.39h11.82v-1.81h-10.78v-2.39h16.76Zm-1.61-11.21v9.57h-14v-9.57h14Zm-8.11,22.42l-2.07,1.44c-.86-1.29-2.04-2.7-3.51-4.2l1.95-1.41c1.58,1.55,2.79,2.96,3.62,4.17Zm5.49-18.66v-1.58h-8.77v1.58h8.77Zm0,2.04h-8.77v1.61h8.77v-1.61Z"/>
    <path d="M561.38,289.38l-.89-2.9c2.99-3.33,5.2-7.22,6.61-11.64l2.56,1.21c-.75,2.24-1.7,4.4-2.9,6.41v19.09h-2.73v-15.15c-.83,1.04-1.73,2.01-2.65,2.99Zm8.83-2.62l-2.36-1.47c2.16-3.19,3.68-6.61,4.57-10.29l2.56,.55c-.26,.95-.52,1.87-.8,2.73h12.07v1.78c-.46,1.72-1.01,3.45-1.7,5.17l-2.62-.75c.57-1.04,1.09-2.24,1.49-3.56h-10.21c-.86,2.13-1.87,4.05-3.02,5.83Zm4.2,.66c-1.01,3.97-2.3,7.42-3.91,10.41l-2.56-.92c1.52-2.67,2.87-6.07,4.02-10.18l2.44,.69Zm-1.55,13.91l-.6-2.59c1.18,.12,2.3,.2,3.36,.2,.69,0,1.03-.37,1.03-1.12v-14.8h2.64v15.49c0,1.87-.92,2.82-2.76,2.82h-3.68Zm14.11-4.11l-2.39,1.09c-1.09-4.17-2.3-7.85-3.62-11.07l2.41-.8c1.38,3.36,2.59,6.96,3.59,10.78Z"/>
    <path d="M593.98,301.42l-.57-2.62c.75,.12,1.49,.17,2.18,.17s1.01-.34,1.01-1.03v-6.41c-1.01,.37-2.01,.72-3.05,1.04l-.69-2.73c1.26-.29,2.5-.63,3.74-1.06v-5.86h-3.19v-2.62h3.19v-5.2h2.7v5.2h2.39v2.62h-2.39v4.8c.78-.34,1.55-.72,2.33-1.12v2.7c-.78,.4-1.55,.78-2.33,1.12v8.19c0,1.87-.92,2.82-2.76,2.82h-2.56Zm8.22-10.32v-2.5h6.81v-2.9h2.62v2.9h6.87v2.5h-4.77c1.18,2.36,3.08,4.46,5.69,6.35l-1.7,2.16c-2.82-2.53-4.8-5.38-5.98-8.51h-.12v10.32h-2.62v-10.32h-.17c-1.38,3.51-3.65,6.44-6.81,8.77l-1.38-2.3c2.82-1.72,4.89-3.88,6.24-6.47h-4.69Zm7.33-11.59c-.17,2.18-.63,3.79-1.41,4.83-.86,1.06-2.27,1.98-4.28,2.79l-1.61-2.01c1.73-.58,2.93-1.24,3.65-1.98,.69-.75,1.12-1.95,1.24-3.62h2.41Zm8.54,2.13h-2.56v-3.22h-10.46v3.33h-2.56v-5.78h15.58v5.66Zm-4.4-2.16v3.25c0,.46,.26,.69,.81,.69h3.79v2.33h-5c-1.38,0-2.07-.66-2.07-1.93v-4.34h2.47Z"/>
    <path d="M634.98,296.8c-2.24,1.7-4.97,3.1-8.22,4.23l-1.12-2.41c3.16-.92,5.72-2.13,7.73-3.62l1.61,1.81Zm2.01-19.75v-2.04h2.76v2.04h9.46v2.47h-9.46v1.98h10.87v5.61h-2.64v-3.25h-10.18l1.26,.63c-1.58,1.21-3.19,2.3-4.86,3.22,2.24-.06,4.08-.14,5.52-.23,.98-.66,1.95-1.35,2.96-2.1l2.18,1.47c-2.99,2.21-6.27,4-9.83,5.35,3.19-.12,6.32-.29,9.4-.46-.55-.6-1.09-1.21-1.67-1.78l1.98-1.24c2.01,2.01,3.59,3.79,4.71,5.32l-2.07,1.47c-.43-.63-.89-1.29-1.41-1.93-2.13,.12-4.14,.23-6.09,.34v5.03c0,1.7-.92,2.56-2.7,2.56h-2.62l-.55-2.53c.78,.12,1.52,.17,2.27,.17,.58,0,.89-.29,.89-.83v-4.25c-3.05,.14-5.89,.26-8.54,.32l-.55-2.44c.81,.06,1.58,.09,2.33,.09,1.96-.55,4-1.41,6.12-2.59-1.72,.06-3.62,.12-5.75,.17l-.52-2.01c.4-.09,.83-.26,1.26-.49,1.64-.95,3.16-2.04,4.6-3.25h-7.39v3.22h-2.64v-5.58h10.87v-1.98h-9.46v-2.47h9.46Zm13.91,21.88l-1.38,2.18c-2.65-1.72-5.35-3.08-8.11-4.05l1.35-2.01c2.99,1.06,5.69,2.36,8.14,3.88Z"/>
    <path d="M668.07,299.76h-2.62v-1.5h-4.54v2.33h-2.62v-20.84h2.73c.52-1.55,.92-3.13,1.15-4.8l2.73,.37c-.29,1.58-.72,3.05-1.26,4.43h4.43v20.01Zm-2.62-12.13v-5.29h-4.54v5.29h4.54Zm0,8.11v-5.66h-4.54v5.66h4.54Zm17.02,2.39c-.29,2.07-1.67,3.11-4.11,3.11-.58,0-1.61-.06-3.05-.14l-.66-2.5c1.26,.06,2.36,.12,3.28,.12,1.15,0,1.81-.6,1.98-1.81,.17-1.44,.26-6.27,.32-14.46h-7.22c-.81,1.73-1.73,3.31-2.82,4.74l-1.64-2.16c1.9-2.76,3.22-6.12,3.91-10.09l2.7,.34c-.29,1.61-.69,3.11-1.15,4.51h8.88c0,9.92-.14,16.04-.43,18.34Zm-4.86-5.29l-2.16,1.52c-1.09-1.9-2.59-4-4.43-6.32l2.21-1.38c1.9,2.36,3.36,4.4,4.37,6.18Z"/>
    <path d="M692.99,282.45v-7.33h2.7v7.33h2.99v2.67h-2.99v8.68c1.18-.43,2.33-.92,3.48-1.44v2.7c-2.82,1.26-5.84,2.36-9.06,3.22l-.69-2.76c1.21-.23,2.39-.52,3.56-.86v-9.54h-3.16v-2.67h3.16Zm16.19-7.45v6.35l5.98-1.75c-.06,3.77-.52,7.73-1.38,11.87l-2.53-.78c.55-2.21,.98-4.77,1.29-7.67l-3.36,.98v11.36h-2.59v-10.61l-3.02,.86v11.38c0,.98,.43,1.47,1.35,1.47h7.07c.49,0,.83-.2,1.06-.6,.26-.4,.43-1.7,.55-3.88l2.53,.81c-.23,3.02-.6,4.83-1.18,5.4s-1.35,.83-2.44,.83h-8.39c-2.13,0-3.19-1.18-3.19-3.48v-11.15l-1.78,.52v-2.65l1.78-.52v-5.81h2.64v5.03l3.02-.86v-7.1h2.59Z"/>
    <path d="M734.36,279.03c-.55-1.12-1.18-2.18-1.93-3.22l2.59-.95c.78,1.18,1.5,2.56,2.13,4.17h10.67v2.64h-14.95l-.23,4.51h11.84c-.09,6.18-.34,10.06-.8,11.64-.63,2.3-2.07,3.48-4.34,3.54-.92,0-2.04-.06-3.31-.14l-.81-2.47c1.52,.06,2.82,.12,3.85,.12,1.21-.06,1.98-.92,2.33-2.65,.17-.98,.26-3.48,.32-7.45h-9.4c-.4,2.21-1.09,4.25-2.13,6.09-1.41,2.47-3.39,4.74-5.92,6.81l-1.98-1.9c3.05-2.56,5.06-4.92,6.04-7.1,.98-2.19,1.52-4.63,1.67-7.33,.06-1.58,.12-2.82,.17-3.68h-7.91v-2.64h12.1Z"/>
    <path d="M765.87,285.99c.98,.57,1.98,1.15,2.96,1.75,1.27,.69,2.44,1.04,3.48,1.04,1.12,0,2.47-1.09,4.08-3.25l1.98,1.67c-2.01,2.82-4.02,4.23-6.07,4.23-1.35,0-2.7-.34-4.05-1.03-.98-.6-1.93-1.18-2.9-1.75-1.15-.63-2.24-.92-3.25-.92-1.18,0-2.56,1.06-4.14,3.22l-1.98-1.67c1.98-2.82,4.02-4.23,6.12-4.23,1.24,0,2.5,.32,3.77,.95Z"/>
    <path d="M257.78,363.51c-.09,2.88-.4,5.61-.95,8.17l-2.21-.6c.6-2.44,.95-5,1.03-7.71l2.13,.14Zm3.56-5.69v26.33h-2.67v-26.33h2.67Zm4.14,11.18l-2.21,.55c-.46-2.16-1.09-4.23-1.87-6.24l2.01-.66c.78,1.84,1.47,3.97,2.07,6.35Zm4.6-7.1v-4.11h2.64v4.11h6.12v8.62h1.95v2.67h-8.88c-1.24,4.97-3.85,8.62-7.88,10.92l-1.67-2.24c3.45-1.81,5.75-4.71,6.9-8.68h-5.23v-2.67h5.78c.17-1.21,.26-2.47,.26-3.79v-2.27h-4.89v-2.56h4.89Zm2.64,4.23c0,1.55-.11,3.02-.29,4.4h3.77v-6.07h-3.48v1.67Zm.03,9.83l1.78-1.72c1.95,1.78,4.25,4.48,6.96,8.11l-1.95,1.96c-2.07-2.99-4.31-5.78-6.78-8.34Z"/>
    <path d="M306.91,357.82v5.23h5.69c0,9.66-.14,15.61-.4,17.85-.26,2.07-1.52,3.1-3.79,3.1-.52,0-1.44-.06-2.76-.11l-.66-2.42c1.15,.09,2.18,.14,3.05,.14,.95,0,1.49-.63,1.67-1.9,.17-1.44,.29-6.15,.34-14.17h-3.13v1.06c-.09,7.99-1.81,13.86-5.2,17.54l-1.64-1.44c-3.74,.46-7.99,.86-12.74,1.15l-.34-2.42c2.07-.11,4.02-.26,5.89-.37v-2.01h-4.94v-2.24h4.94v-1.52h-5.03v-9.17h5.03v-1.38h-5.63v-2.24h5.63v-1.5c-1.49,.09-3.1,.14-4.8,.14l-.72-2.16c4.83,0,8.88-.4,12.19-1.15l1.21,2.07c-1.55,.4-3.31,.69-5.29,.89v1.7h5.49v2.24h-5.49v1.38h5.06v9.17h-5.06v1.52h4.97v2.24h-4.97v1.78c1.78-.17,3.42-.34,4.94-.52v1.35c2.59-3.33,3.88-8.37,3.94-15.06v-1.06h-2.59v-2.5h2.59v-5.23h2.56Zm-13.86,11.96v-1.67h-2.73v1.67h2.73Zm0,1.84h-2.73v1.67h2.73v-1.67Zm2.24-1.84h2.76v-1.67h-2.76v1.67Zm2.76,1.84h-2.76v1.67h2.76v-1.67Z"/>
    <path d="M339.11,357.82v5.23h5.69c0,9.66-.14,15.61-.4,17.85-.26,2.07-1.52,3.1-3.79,3.1-.52,0-1.44-.06-2.76-.11l-.66-2.42c1.15,.09,2.18,.14,3.05,.14,.95,0,1.49-.63,1.67-1.9,.17-1.44,.29-6.15,.34-14.17h-3.13v1.06c-.09,7.99-1.81,13.86-5.2,17.54l-1.64-1.44c-3.74,.46-7.99,.86-12.74,1.15l-.34-2.42c2.07-.11,4.02-.26,5.89-.37v-2.01h-4.94v-2.24h4.94v-1.52h-5.03v-9.17h5.03v-1.38h-5.63v-2.24h5.63v-1.5c-1.49,.09-3.1,.14-4.8,.14l-.72-2.16c4.83,0,8.88-.4,12.19-1.15l1.21,2.07c-1.55,.4-3.31,.69-5.29,.89v1.7h5.49v2.24h-5.49v1.38h5.06v9.17h-5.06v1.52h4.97v2.24h-4.97v1.78c1.78-.17,3.42-.34,4.94-.52v1.35c2.59-3.33,3.88-8.37,3.94-15.06v-1.06h-2.59v-2.5h2.59v-5.23h2.56Zm-13.86,11.96v-1.67h-2.73v1.67h2.73Zm0,1.84h-2.73v1.67h2.73v-1.67Zm2.24-1.84h2.76v-1.67h-2.76v1.67Zm2.76,1.84h-2.76v1.67h2.76v-1.67Z"/>
    <path d="M375.56,360.23c-2.59,.69-5.58,1.21-8.97,1.55v4.17h8.91v2.64h-8.91v4.08h11.07v2.62h-11.07v5.89c0,1.9-1.01,2.85-2.99,2.85h-4.46l-.63-2.64c1.44,.09,2.82,.14,4.14,.14,.8,0,1.21-.34,1.21-1.01v-5.23h-12.1v-2.62h12.1v-4.08h-9.72v-2.64h9.72v-3.94c-2.93,.2-6.07,.32-9.46,.32l-.86-2.47c8.19,0,15.09-.66,20.67-1.93l1.35,2.3Z"/>
    <path d="M384.7,384.01l-.6-2.62c.92,.11,1.81,.17,2.64,.17,.69,0,1.06-.37,1.06-1.06v-6.15c-1.15,.4-2.33,.75-3.51,1.09l-.66-2.73c1.41-.29,2.79-.66,4.17-1.09v-5.98h-3.65v-2.62h3.65v-5.17h2.62v5.17h2.96v2.62h-2.96v5.06c1.09-.43,2.18-.89,3.22-1.41v2.79c-1.06,.46-2.13,.92-3.22,1.32v7.79c0,1.87-.92,2.82-2.73,2.82h-2.99Zm24.26-21.85l-11.53,.55v1.9c0,.66,.34,1.01,1.09,1.01h10.87v2.5h-12.19c-1.58,0-2.36-.8-2.36-2.39v-7.76h2.59v2.33l11.53-.52v2.39Zm-.26,22.11h-2.73v-1.26h-8.19v1.26h-2.7v-13.83h13.63v13.83Zm-2.73-8.8v-2.64h-8.19v2.64h8.19Zm0,5.12v-2.7h-8.19v2.7h8.19Z"/>
    <path d="M428.4,373.2c-.29-.46-.57-.86-.86-1.24l2.56-.4c.34,.49,.66,1.04,1.01,1.64h10.58v2.24h-12.88c-1.12,1.09-2.53,2.13-4.25,3.05v3.11c2.13-.4,4.14-.89,6.01-1.41l.37,2.18c-2.53,.63-5.63,1.27-9.26,1.84l-.46-1.93c.63-.26,.95-.63,.95-1.12v-1.52c-1.44,.58-3.02,1.15-4.69,1.67l-1.29-2.16c4.31-.98,7.53-2.21,9.72-3.71h-9.46v-2.24h11.96Zm-9.06-10.49l-2.18-.66c.75-1.21,1.24-2.62,1.44-4.17l2.13,.26c-.06,.46-.14,.89-.2,1.29h2.64v-1.64h2.47v1.64h4.94v2.07h-4.94v1.44h5.92v2.07h-5.92v1.29h5.35v3.45c0,1.01-.8,1.52-2.41,1.52h-1.7l-.43-1.75,1.44,.06c.52,0,.78-.2,.78-.55v-.89h-3.02v3.74h-2.47v-3.74h-2.79v3.31h-2.3v-5.15h5.09v-1.29h-6.53v-2.07h6.53v-1.44h-3.25c-.17,.43-.37,.83-.57,1.21Zm20.04,14.81c-.92,.98-2.01,1.84-3.28,2.62,1.72,.89,3.77,1.58,6.12,2.07l-1.47,2.13c-5.23-1.29-8.94-3.68-11.15-7.19l1.81-1.04c.69,1.06,1.61,2.01,2.73,2.85,1.35-.89,2.5-1.87,3.48-2.96l1.75,1.52Zm-4.23-18.17v8.48h-2.47v-8.48h2.47Zm-.57,12.39l-.52-2.39c1.09,.06,2.13,.12,3.1,.12,.66,0,1.01-.26,1.01-.78v-10.92h2.47v11.5c0,1.64-.89,2.47-2.62,2.47h-3.45Z"/>
    <path d="M448.69,371.88l-.92-2.93c2.96-3.25,5.15-7.04,6.55-11.36l2.59,1.21c-.75,2.18-1.7,4.25-2.85,6.21v19.32h-2.76v-15.35c-.8,.98-1.7,1.95-2.62,2.9Zm7.96-.49l-1.95-2.36c2.39-2.79,4.43-6.64,6.09-11.53l2.76,.6c-.4,1.21-.83,2.36-1.26,3.45h11.84v2.67h-9.23v4.11h8.08v2.64h-8.08v4.23h8.14v2.62h-8.14v6.5h-2.76v-20.09h-1.04c-1.32,2.76-2.82,5.15-4.46,7.16Z"/>
    <path d="M484.69,369.89c0,2.13-.14,4.14-.4,6.04,2.16-.86,3.74-1.87,4.74-3.08h-2.53v-4.23h18v4.23h-12.76c-.2,.29-.4,.6-.63,.89h14.72c0,4.46-.14,7.22-.4,8.25-.26,1.58-1.44,2.39-3.51,2.39-.32,0-.83-.06-1.58-.12l-.2-.83-.57,.23c-.11-.29-.2-.52-.32-.75-4.05,.37-8.34,.66-12.82,.89l-.49-1.9c2.47-.09,4.92-.17,7.33-.29v-1.06h-5.86v-3.65c-.72,.43-1.49,.83-2.3,1.18l-.92-1.49c-.4,2.7-1.03,5.12-1.93,7.3l-2.04-1.84c1.24-3.13,1.87-7.19,1.9-12.16v-11.67h23.69v5.17h-9.2v4.51h-2.5v-4.51h-9.4v6.5Zm0-9.77v1.47h18.54v-1.47h-18.54Zm7.96,7.5c-1.26,.2-3.33,.37-6.21,.55l-.43-1.49c2.85-.12,4.89-.26,6.15-.43l.49,1.38Zm-.03-3.22l-.58,1.44c-1.81-.29-3.68-.52-5.61-.69l.66-1.35c1.9,.14,3.74,.34,5.52,.6Zm.63,11.18h-3.97c-.4,.32-.8,.6-1.21,.89h5.17v-.89Zm-1.55-5.52h-2.73v1.38h2.73v-1.38Zm1.55,7.88h-3.51v1.18h3.51v-1.18Zm3.56-7.88h-2.79v1.38h2.79v-1.38Zm4.48,12.25h.26c.8,0,1.29-.46,1.41-1.32,.17-.57,.26-2.36,.32-5.4h-7.73v.89h5.89v4.08h-1.21c.4,.63,.78,1.21,1.06,1.75Zm-2.21-4.37h-3.54v1.18h3.54v-1.18Zm-.69,3.36c-.11-.26-.26-.52-.4-.75h-2.44v.92l2.85-.17Zm6.58-14.43l-.57,1.47c-2.1-.34-4.28-.63-6.58-.8l.69-1.35c2.24,.14,4.4,.37,6.47,.69Zm-6.76-2.53c2.21-.12,4.2-.32,5.95-.63l.55,1.49c-1.78,.23-3.85,.43-6.21,.58l-.29-1.44Zm3.79,5.72h-2.85v1.38h2.85v-1.38Z"/>
    <path d="M517.77,361.58c-.46-1.12-.95-2.21-1.52-3.25l2.64-.69c.69,1.44,1.18,2.76,1.52,3.94h4.28v2.64h-6.84v3.45h5.38c0,7.07-.14,11.41-.4,13.08-.23,2.13-1.44,3.22-3.59,3.22-.32,0-.86-.06-1.61-.14l-.63-2.36c.69,.09,1.32,.14,1.87,.14,.89,0,1.41-.69,1.55-2.01,.14-.95,.23-4.08,.29-9.4h-2.87c-.17,6.33-1.32,10.98-3.42,14l-1.98-1.72c1.9-2.85,2.85-7.39,2.87-13.63v-4.63h-2.41v-2.64h4.89Zm14.46-3.62c1.35,3.88,3.65,7.3,6.9,10.26l-1.49,2.27c-2.96-2.62-5.17-5.89-6.61-9.8-1.61,4.31-3.62,7.65-6.07,10l-1.47-2.18c2.7-2.7,4.8-6.21,6.3-10.55h2.44Zm5.09,24.35l-1.72,2.13c-2.64-2.39-6.04-4.63-10.12-6.7l1.61-1.9c4,1.96,7.42,4.11,10.23,6.47Zm-1.78-8.54l-1.64,1.95c-1.64-1.9-3.71-3.65-6.21-5.29l1.61-1.87c2.41,1.55,4.51,3.31,6.24,5.2Z"/>
    <path d="M567.77,384.24h-2.76v-1.61h-14.26v1.61h-2.76v-23.29h6.21c.57-1.06,1.03-2.16,1.32-3.31l2.79,.4c-.29,1.04-.72,1.98-1.24,2.9h10.69v23.29Zm-2.76-17.05v-3.62h-14.26v3.62h14.26Zm0,6.3v-3.77h-14.26v3.77h14.26Zm0,6.55v-4.02h-14.26v4.02h14.26Z"/>
    <path d="M601.72,381.97c-.57,.89-1.87,1.35-3.82,1.35h-15.03c-2.44,0-3.65-1.12-3.65-3.36v-11.44h18v-6.81h-18.34v-2.62h21.07v12.04h-17.97v7.76c0,1.15,.72,1.75,2.1,1.81h13.4c1.24,0,2.01-.4,2.36-1.21,.29-.78,.52-2.27,.63-4.49l2.67,.89c-.34,3.08-.8,5.09-1.41,6.07Z"/>
    <path d="M619.77,382.48h-2.62v-1.5h-4.54v2.33h-2.62v-20.84h2.73c.52-1.55,.92-3.13,1.15-4.8l2.73,.37c-.29,1.58-.72,3.05-1.26,4.43h4.43v20.01Zm-2.62-12.13v-5.29h-4.54v5.29h4.54Zm0,8.11v-5.66h-4.54v5.66h4.54Zm17.02,2.39c-.29,2.07-1.67,3.11-4.11,3.11-.58,0-1.61-.06-3.05-.14l-.66-2.5c1.26,.06,2.36,.12,3.28,.12,1.15,0,1.81-.6,1.98-1.81,.17-1.44,.26-6.27,.32-14.46h-7.22c-.81,1.73-1.73,3.31-2.82,4.74l-1.64-2.16c1.9-2.76,3.22-6.12,3.91-10.09l2.7,.34c-.29,1.61-.69,3.11-1.15,4.51h8.88c0,9.92-.14,16.04-.43,18.34Zm-4.86-5.29l-2.16,1.52c-1.09-1.9-2.59-4-4.43-6.32l2.21-1.38c1.9,2.36,3.36,4.4,4.37,6.18Z"/>
    <path d="M651.39,379.55c-2.07,1.61-4.66,3.05-7.73,4.25l-1.64-2.16c3.02-1.06,5.55-2.3,7.56-3.71l1.81,1.61Zm1.72-4.83v-1.64h2.7v1.64h10.69v2.42h-10.69v7.19h-2.7v-7.19h-10.69v-2.42h10.69Zm2.07-17.08v1.47h10.38v2.24h-10.38v1.41h8.65v9.83h-18.66v-9.83h7.39v-5.12h2.62Zm6.09,9.03v-1.7h-13.54v1.7h13.54Zm0,2.01h-13.54v1.75h13.54v-1.75Zm5.69,13.11l-1.72,1.93c-2.47-1.61-5.03-2.99-7.68-4.14l1.58-1.78c2.88,1.21,5.49,2.56,7.82,4Z"/>
    <path d="M689.86,365.38v3.31h7.93v9.77c0,1.98-1.01,2.99-3.02,2.99h-2.62l-.66-2.53,2.41,.09c.83,0,1.27-.4,1.27-1.15v-6.64h-5.32v13.05h-2.65v-13.05h-5.38v10.46h-2.62v-10.69c-1.29,1.32-2.7,2.56-4.23,3.71l-1.75-2.3c3.39-2.5,6.12-5.35,8.14-8.51h-7.16v-2.67h8.65c.57-1.21,1.06-2.41,1.47-3.62l2.76,.35c-.37,1.15-.78,2.24-1.24,3.28h13.54v2.67h-14.83c-.98,1.7-2.07,3.31-3.28,4.8h5.92v-3.31h2.65Z"/>
    <path d="M707.97,361.3v-2.59h17.79v1.44c-.46,2.5-1.03,4.66-1.72,6.44h5.43v2.42c-.86,3.65-2.62,6.76-5.23,9.29,2.01,1.35,4.4,2.56,7.19,3.59l-1.87,2.44c-2.96-1.21-5.46-2.62-7.53-4.17-2.42,1.72-5.32,3.16-8.68,4.25l-1.35-2.5c3.05-.98,5.63-2.18,7.76-3.68-2.7-2.62-4.46-5.66-5.26-9.11h-.17c-.78,6.64-2.96,11.67-6.55,15.09l-2.1-1.84c4.08-3.85,6.18-10,6.24-18.46v-2.62h-3.94Zm13.4,5.29c.55-1.55,1.03-3.31,1.47-5.29h-8.16v2.62c-.03,.92-.06,1.81-.12,2.67h6.81Zm5.23,2.53h-9.72c.86,2.79,2.53,5.26,5,7.42,2.24-2.1,3.82-4.57,4.71-7.42Z"/>
    <path d="M739.62,384.5l-1.84-1.7c1.04-2.04,1.55-4.63,1.58-7.79v-8.57l-1.47-1.78c1.61-1.7,2.99-4.05,4.14-7.04l2.47,.58c-.2,.52-.4,1.03-.6,1.52h4.89v1.87c-.55,1.06-1.09,2.01-1.64,2.82h3.05v17.39c0,1.49-.8,2.24-2.39,2.24h-1.9l-.6-2.24c.63,.06,1.21,.11,1.75,.11,.57,0,.86-.32,.86-.92v-3.45h-6.38c-.26,2.76-.89,5.06-1.93,6.96Zm6.27-22.57h-3.05c-.46,.89-.95,1.73-1.47,2.47h3.02c.49-.72,.98-1.55,1.49-2.47Zm-2.19,4.8h-2.01v3.05h2.01v-3.05Zm-2.01,8.54h2.01v-3.25h-2.01v3.25Zm6.24-8.54h-2.07v3.05h2.07v-3.05Zm-2.07,8.54h2.07v-3.25h-2.07v3.25Zm6.38,.66l-1.58-1.93c1.21-1.32,2.04-3.08,2.47-5.26l2.24,.4c-.14,.69-.32,1.35-.49,1.96h2.1v-2.47h2.67v2.47h3.94v2.44h-3.94v2.9h4.57v2.5h-4.57v5.41h-2.67v-5.41h-6.12v-2.5h6.12v-2.9h-3.08c-.46,.92-1.03,1.7-1.67,2.39Zm-1.21-14.26v-2.41h12.39c-.03,4.08-.32,6.53-.86,7.33-.55,.81-1.49,1.21-2.82,1.21-.69,0-1.5-.06-2.44-.12l-.63-2.24c1.01,.06,1.84,.12,2.5,.17,.69-.03,1.15-.26,1.32-.66,.17-.4,.26-1.49,.32-3.28h-3.65c-.29,1.24-.72,2.33-1.24,3.31-.78,1.24-1.9,2.36-3.36,3.36l-1.61-2.04c1.21-.69,2.13-1.5,2.73-2.44,.4-.63,.69-1.35,.92-2.19h-3.56Z"/>
    <path d="M781.13,357.73v4.6h-2.65v-.95h-7.7v-2.42h7.7v-1.24h2.65Zm14.46,17.48h-2.65v-2.7h-11.96l2.33,.49c-.49,.52-1.01,1.04-1.52,1.5h10.03v2.01c-2.18,4.48-8.57,7.07-19.09,7.82l-1.24-2.24c3.39-.2,6.35-.58,8.85-1.12-.86-.6-1.87-1.21-2.96-1.84l1.7-1.64c1.7,.86,3.16,1.75,4.37,2.62,2.47-.86,4.28-1.98,5.43-3.31h-10.46c-1.26,.66-2.62,1.26-4.08,1.78l-1.64-2.01c3.08-.98,5.72-2.33,7.93-4.05h-7.1v2.62h-2.65v-4.8h24.69v4.89Zm-1.55-12.19v6.3h-21.24v-6.3h21.24Zm-14.92,2.1h-3.82v2.1h3.82v-2.1Zm6.09,0h-3.68v2.1h3.68v-2.1Zm2.73-7.39v1.18h8.16v2.42h-8.16v1.01h-2.64v-4.6h2.64Zm3.56,7.39h-3.88v2.1h3.88v-2.1Z"/>
    <path d="M815.43,357.82v3.28h9.14v2.62h-9.14v3.71h12.88v2.64h-12.88v2.53c3.31,1.49,6.67,3.19,10.12,5.12l-1.55,2.33c-3.39-2.07-6.27-3.65-8.57-4.74v8.94h-2.76v-14.17h-10.09v-2.64h10.09v-9.6h2.76Z"/>
    <path d="M843.86,380.9h-2.64v-1.32h-3.1v1.93h-2.7v-21.65h8.45v21.04Zm-2.64-3.97v-14.43h-3.1v14.43h3.1Zm18.05-4.57h-10.92v6.87c0,1.26,.49,1.93,1.5,1.93h6.64c.58-.03,1.01-.32,1.24-.89,.17-.43,.32-1.67,.46-3.74l2.56,.83c-.17,1.96-.4,3.39-.66,4.25-.4,1.38-1.32,2.1-2.73,2.16h-8.62c-2.01,0-3.02-1.18-3.02-3.51v-21.36h13.57v13.45Zm-10.92-10.92v8.39h2.82v-8.39h-2.82Zm8.28,8.39v-8.39h-2.93v8.39h2.93Z"/>
    <path d="M881.38,377.77c.4,.37,.6,.86,.6,1.47s-.2,1.09-.6,1.5c-.43,.37-.95,.57-1.52,.57s-1.06-.2-1.47-.6c-.43-.4-.63-.89-.63-1.47,0-.6,.2-1.09,.63-1.47,.4-.4,.89-.57,1.47-.57,.6,0,1.12,.17,1.52,.57Zm.29-16.99l-.66,14.72h-2.27l-.66-14.72h3.59Z"/>
  </g>
</svg>