<?xml version="1.0" encoding="UTF-8"?>
<svg id="_圖層_1" data-name="圖層 1" xmlns="http://www.w3.org/2000/svg" viewBox="0 0 111.63 49.8">
  <path d="M1.51,23.55c0-5.22,1.2-10.12,3.61-14.7h14.57c6.72-3,14.39-5.62,23.01-7.85l18.79,1.52,2.79,2.31,27.76,.55c6.38,0,10.84,.51,13.37,1.52,2.53,1.01,3.8,2.78,3.8,5.3,0,2.15-1.33,3.77-3.98,4.87-2.66,1.1-6.62,1.64-11.88,1.64l-24.51,.24-2.45,.52c1.13,.61,1.99,1.35,2.55,2.22,.57,.87,.85,1.89,.85,3.07,0,1.58-.5,2.89-1.5,3.95-1,1.05-2.5,1.82-4.49,2.31,.5,1.14,.75,2.13,.75,2.98,0,1.95-.64,3.48-1.92,4.6-1.28,1.12-3.19,1.84-5.75,2.16,.03,.45,.04,.77,.04,.97,0,4.38-3.39,6.57-10.16,6.57l-2.37-.12-2.52-.97c-2.86,.81-5.54,1.22-8.03,1.22-.86,0-2.22-.1-4.09-.3-4.95-2.04-10.03-5.61-15.25-10.71H4.78c-2.18-4.62-3.27-9.23-3.27-13.85Zm14.78,10.68c4.09,4.69,8.76,8.42,14.03,11.2,1.13,.16,1.93,.24,2.38,.24,.68,0,2.18-.14,4.49-.43l-8.51-3.23c1.13-2.42,2.97-4.57,5.52-6.45l-4.22-1.7c2.5-3.79,5.24-6.1,8.24-6.95l-4.77-1.83c3.09-5.4,7.24-8.1,12.46-8.1,1.13,0,2.29,.14,3.47,.43,1.18,.28,2.38,.73,3.61,1.34l6.18-.06c-2.29-.77-4.78-2.09-7.47-3.96-3.68,1.75-7.56,2.62-11.64,2.62l-1.57-.12-.14-2.98,1.16,.06c4.45,0,8.74-1.05,12.87-3.17,3.84,3.61,7.71,5.42,11.6,5.42,2.53,0,4.79-.79,6.78-2.37l-10.56-8.76-17.29-1.34c-3.9,1.01-11.62,3.59-23.15,7.73H7.36c-1.59,3.76-2.38,7.55-2.38,11.35,0,3.6,.7,7.28,2.11,11.05h9.19Zm28.33,11.02l2.66,.06c4.22,0,6.33-1.52,6.33-4.56h-6.6l-9.12-3.65c-1.95,1.12-3.43,2.27-4.43,3.47l11.17,4.69Zm3.54-7.5l6.16,.14c2.24,0,3.91-.32,5.03-.97,1.12-.65,1.68-1.6,1.68-2.86,0-.73-.34-1.58-1.03-2.56l-10,.06-7.08-2.8c-3.72,.44-6.38,1.73-7.97,3.87l13.21,5.12Zm2.93-9.17l7.19,.06c2.67,0,4.68-.33,6.03-1s2.03-1.65,2.03-2.95c0-.93-.46-1.63-1.39-2.1-.93-.47-2.32-.7-4.17-.7h-8.74c-1.04-.63-2.08-1.1-3.1-1.42-1.02-.31-2.03-.47-3.03-.47-3.45,0-6.04,1.3-7.76,3.9l12.94,4.69Zm24.51-14.3c-.64,.65-1.18,1.16-1.63,1.52l15.46-.06c5.49,0,9.61-.29,12.36-.88,2.75-.59,4.12-1.45,4.12-2.59,0-2.6-4.43-3.9-13.28-3.9l-24.92-.55,7.9,6.45Z"/>
</svg>