<?xml version="1.0" encoding="UTF-8"?><svg id="_圖層_1" xmlns="http://www.w3.org/2000/svg" viewBox="0 0 1456.73 841.65"><defs><style>.cls-1{fill:#fff;stroke:#000;stroke-miterlimit:10;stroke-width:4px;}</style></defs><g><g><path class="cls-1" d="M480.74,69.47s-131.71-13.44-204.45,20.26c-72.75,33.69-171.22,73.07-107.54,229.82,0,0-95.59,53.27-100.9,134.53-5.31,81.26,44.16,147.56,169.2,180.07,0,0,3.68,56.56,48.92,88.63,44.05,31.22,63.31,42.16,190.88,31.95,0,0,234.99,115.16,403.79-.04,0,0,82.56,34.04,176.58,25.2,94.02-8.84,143.77-21.01,193.35-140.28,0,0,67.87-1.15,130.78-40.56,62.9-39.41,80.96-87.75,70.7-153.02-10.26-65.27-135.75-98.9-135.75-98.9,0,0,89.05,10.35,102.31-62.18,13.27-72.54-84.71-120.48-175.19-129.62,0,0-18.34-81.33-159.13-125.6-140.78-44.27-251.45,16.57-251.45,16.57,0,0-81.63-56.8-187.63-41.76-106,15.04-164.45,64.93-164.45,64.93Z"/><path class="cls-1" d="M168.75,319.54s66.68-41,139.32-43.23"/><path class="cls-1" d="M832.83,46.3s-60.91,28.24-98.24,75.88"/><path class="cls-1" d="M1243.41,155.33s13.21,54.57-4.89,85.9"/><path class="cls-1" d="M1256.11,335.91s37.04,3.75,60.18,11.22"/><path class="cls-1" d="M880.63,754.68s35.42-25.88,52.14-86.28"/><path class="cls-1" d="M420.25,701.45s25.23,40.06,56.59,53.27"/><path class="cls-1" d="M480.74,69.47s78.13,16.04,108.73,30.55"/><path class="cls-1" d="M1250.72,639.64s-58.71,3.41-75.36-.34"/><path class="cls-1" d="M237.05,634.15s26.13,6.8,38.69,8.62"/></g><ellipse class="cls-1" cx="168.75" cy="767.1" rx="56.45" ry="27.78" transform="translate(-173.01 59.91) rotate(-13.39)"/><ellipse class="cls-1" cx="38.96" cy="817.08" rx="37.22" ry="22.13" transform="translate(-119.88 14.64) rotate(-8.47)"/></g><g><path d="M647,189.66v4.46h-2.96l1.7,.79c-.12,.28-.23,.54-.33,.82h2.17c-.23-.42-.47-.79-.7-1.12l2.17-.33c.23,.44,.44,.93,.65,1.45h3.92v1.68h-3.87v1.21h3.24v1.54h-3.24v1.21h3.24v1.56h-3.24v1.19h3.34v.05c1.4-1.4,2.33-3.03,2.8-4.92,.44-1.87,.68-4.29,.7-7.23h1.91c0,1.61-.07,3.1-.21,4.46,.89,3.45,2.38,6.23,4.5,8.31l-1.45,1.66c-1.54-1.73-2.78-3.8-3.66-6.21-.63,2.52-1.96,4.64-3.99,6.32l-.61-.75v.12h-8.19v.82h-2.05v-7.12c-.42,.44-.84,.86-1.26,1.28l-.65-2.05c1.38-1.35,2.4-2.94,3.06-4.74h-2.1v-4.46h5.11Zm-2.36-3.48v-1.14h2.05v4.22h-2.05v-1.26h-3.45v-1.82h3.45Zm.56,4.88h-1.52v1.63h1.52v-1.63Zm-.3,6.35v1.21h2.75v-1.21h-2.75Zm0,3.97h2.75v-1.21h-2.75v1.21Zm0,2.75h2.75v-1.19h-2.75v1.19Zm8.19-14.46v4.46h-5.11v-4.46h5.11Zm-2.61-.4h-2.05v-4.22h2.05v1.14h3.31v1.82h-3.31v1.26Zm.79,1.8h-1.52v1.63h1.52v-1.63Zm5.74-5.6c-.09,.96-.19,1.87-.3,2.71h5.39v1.35c-.26,2.03-.58,4.06-1,6.07l-1.87-.54c.35-1.4,.65-3.01,.89-4.88h-3.73c-.42,2.1-.93,3.78-1.56,5.02l-1.66-1.17c.96-2.15,1.56-5.11,1.84-8.89l2.01,.33Z"/><path d="M673.46,190.73v1.73c-.75,1.21-1.63,2.43-2.61,3.62h2.8v1.47c-.35,1.77-.79,3.24-1.31,4.36l.4,.35c.68,.68,1.33,1.17,1.98,1.47,.65,.28,1.56,.42,2.75,.47,1.17,0,2.52,.02,4.01,.02,1.87,0,4.32-.07,7.33-.16l-.49,2.1h-6.53c-1.54,0-3.01-.05-4.39-.09-1.49-.05-2.61-.23-3.36-.56-.89-.37-1.73-.98-2.47-1.77-.14-.16-.3-.23-.49-.23-.44,0-1.14,1-2.1,3.06l-1.61-1.47c1.03-2.05,2.03-3.24,2.99-3.62,.51-1.07,.91-2.24,1.21-3.52h-3.38v-1.68c1.12-1.21,2.05-2.4,2.8-3.52h-3.38v-2.01h5.86Zm-.26-2.26l-1.45,1.45c-.82-1.03-1.96-2.12-3.45-3.31l1.52-1.45c1.33,1.1,2.45,2.19,3.38,3.31Zm.93,11.22c.42-.19,.63-.54,.63-1.07v-11.48c1.98-.65,3.57-1.38,4.76-2.22l1.21,1.8c-.98,.68-2.29,1.31-3.92,1.87v10.45c1.12-.33,2.22-.65,3.27-1.03l.4,2.08c-1.63,.51-3.55,1.03-5.74,1.56l-.61-1.96Zm10.08,1.21l-.58-2.12,1.59,.12c.47,0,.7-.26,.7-.75v-9.87h-2.71v15.21h-2.12v-17.17h6.91v12.27c0,1.54-.7,2.31-2.05,2.31h-1.73Z"/><path d="M703.05,189.52h-8.38v-2.12h8.38v-2.29h2.24v2.29h8.4v2.12h-8.4v6.23c2.38,3.24,5.6,5.81,9.64,7.68l-1.21,2.08c-3.24-1.63-6.04-3.8-8.42-6.56v7.56h-2.24v-7.51c-2.19,2.64-4.97,4.83-8.38,6.6l-1.17-2.01c4.11-2.01,7.28-4.57,9.54-7.72v-6.35Zm-7.42,8.61l-1.38-1.68c1.91-1.56,3.2-3.66,3.85-6.32l2.05,.35c-.3,1.17-.68,2.22-1.12,3.17,1.07,.56,2.03,1.21,2.92,1.91l-1.17,1.84c-.89-.79-1.8-1.47-2.73-2.03-.7,1.07-1.52,1.98-2.43,2.75Zm12.25-.68l-1.35-1.73c1.56-1.4,2.61-3.24,3.17-5.55l2.08,.35c-.26,1.07-.58,2.05-.98,2.94,1.21,.68,2.33,1.45,3.36,2.31l-1.26,1.89c-1-.98-2.03-1.8-3.06-2.45-.56,.84-1.21,1.59-1.96,2.24Z"/><path d="M731.79,185.88v2.1h-5.86c-.98,2.01-1.89,3.55-2.71,4.64,1.87-.19,3.69-.44,5.48-.75-.47-.7-.93-1.42-1.45-2.15l1.7-1.1c1.54,2.05,2.73,3.83,3.55,5.34l-1.84,1.28c-.3-.56-.63-1.14-.96-1.75-2.94,.54-6.11,.98-9.54,1.33l-.49-1.98c.37-.05,.68-.12,.86-.21,.75-.63,1.75-2.19,3.01-4.67h-3.5v-2.1h11.74Zm.09,18.48c-3.64,.75-7.51,1.4-11.67,1.91l-.51-2.12c1.8-.19,3.57-.42,5.32-.68v-3.85h-4.32v-2.12h4.32v-2.47h2.24v2.47h3.94v2.12h-3.94v3.48c1.56-.28,3.1-.61,4.62-.93v2.19Zm3.69-17.15v14.3h-2.15v-14.3h2.15Zm-1.17,19.15l-.49-2.15c1.12,.07,2.17,.12,3.17,.12,.58,0,.89-.3,.89-.91v-18.31h2.24v18.87c0,1.59-.79,2.38-2.36,2.38h-3.45Z"/><path d="M766.98,194.51v2.19h-21.11v-2.19h21.11Z"/><path d="M772.61,193.46l-.72-2.36c1.87-1.91,3.17-3.99,3.94-6.25l2.12,.42c-.19,.51-.37,1-.58,1.49h5.02c-.26-.58-.54-1.12-.86-1.59l2.31-.37c.28,.58,.54,1.24,.79,1.96h7.02v1.8h-7.12v1.07h6.28v1.77h-6.28v1.05h6.28v1.77h-6.28v1.12h7.68v1.8h-17.78v-5.65c-.56,.68-1.17,1.33-1.82,1.96Zm1.12,6.56v-1.87h17.01v1.61c-1.4,1.33-3.1,2.47-5.09,3.45,2.24,.58,4.83,1.07,7.82,1.49l-1.24,1.89c-3.73-.61-6.84-1.33-9.31-2.22-2.78,1-6,1.75-9.68,2.24l-.96-1.98c2.89-.3,5.51-.77,7.84-1.42-1.94-.96-3.34-2.03-4.22-3.2h-2.17Zm8.66-11.46h-5.81v1.07h5.81v-1.07Zm0,2.85h-5.81v1.05h5.81v-1.05Zm0,2.82h-5.81v1.12h5.81v-1.12Zm4.97,5.79h-8.96c1.03,.86,2.5,1.63,4.39,2.31,1.73-.65,3.24-1.42,4.57-2.31Z"/><path d="M804.74,188.98c-.65-1.12-1.35-2.15-2.08-3.08l1.91-.91c.77,1.03,1.52,2.15,2.22,3.38l-1.21,.61h5.09c.72-1.26,1.35-2.61,1.91-4.01l2.15,.75c-.51,1.21-1.1,2.31-1.7,3.27h4.69v2.12h-7.89v2.89h6.72v2.12h-6.72v2.99h9.26v2.15h-9.26v5.39h-2.24v-5.39h-9.36v-2.15h9.36v-2.99h-6.72v-2.12h6.72v-2.89h-7.84v-2.12h4.99Z"/><path d="M824.71,188v-2.15h20.25v2.15h-9.01v2.52h8.19v13.18c0,1.82-.82,2.73-2.43,2.73h-2.47l-.56-2.15,2.31,.09c.65,0,1-.4,1-1.14v-1.87l-1.14,1.59c-.89-.89-1.52-2.08-1.91-3.62-.47,1.45-1.07,2.68-1.82,3.69l-1-1.91c1.07-1.28,1.73-2.99,1.98-5.13h-1.17v-2.01h3.01c0,3.22,.68,5.58,2.05,7.05v-8.45h-6.04v13.86h-2.15v-5.02l-1.21,1.66c-.84-.89-1.45-2.1-1.82-3.69-.47,1.47-1.1,2.71-1.91,3.73l-1.03-1.91c1.12-1.31,1.84-3.03,2.12-5.23h-1.24v-2.01h3.08c0,3.31,.65,5.72,2.01,7.21v-8.61h-6.14v13.95h-2.15v-16h8.28v-2.52h-9.1Z"/><path d="M851.01,193.46l-.72-2.36c1.87-1.91,3.17-3.99,3.94-6.25l2.12,.42c-.19,.51-.37,1-.58,1.49h5.02c-.26-.58-.54-1.12-.86-1.59l2.31-.37c.28,.58,.54,1.24,.79,1.96h7.02v1.8h-7.12v1.07h6.28v1.77h-6.28v1.05h6.28v1.77h-6.28v1.12h7.68v1.8h-17.78v-5.65c-.56,.68-1.17,1.33-1.82,1.96Zm1.12,6.56v-1.87h17.01v1.61c-1.4,1.33-3.1,2.47-5.09,3.45,2.24,.58,4.83,1.07,7.82,1.49l-1.24,1.89c-3.73-.61-6.84-1.33-9.31-2.22-2.78,1-6,1.75-9.68,2.24l-.96-1.98c2.89-.3,5.51-.77,7.84-1.42-1.94-.96-3.34-2.03-4.22-3.2h-2.17Zm8.66-11.46h-5.81v1.07h5.81v-1.07Zm0,2.85h-5.81v1.05h5.81v-1.05Zm0,2.82h-5.81v1.12h5.81v-1.12Zm4.97,5.79h-8.96c1.03,.86,2.5,1.63,4.39,2.31,1.73-.65,3.24-1.42,4.57-2.31Z"/><path d="M883.14,188.98c-.65-1.12-1.35-2.15-2.08-3.08l1.91-.91c.77,1.03,1.52,2.15,2.22,3.38l-1.21,.61h5.09c.72-1.26,1.35-2.61,1.91-4.01l2.15,.75c-.51,1.21-1.1,2.31-1.7,3.27h4.69v2.12h-7.89v2.89h6.72v2.12h-6.72v2.99h9.26v2.15h-9.26v5.39h-2.24v-5.39h-9.36v-2.15h9.36v-2.99h-6.72v-2.12h6.72v-2.89h-7.84v-2.12h4.99Z"/><path d="M914.48,201.3c.33,.3,.49,.7,.49,1.19s-.16,.89-.49,1.21c-.35,.3-.77,.47-1.24,.47s-.86-.16-1.19-.49c-.35-.33-.51-.72-.51-1.19,0-.49,.16-.89,.51-1.19,.33-.33,.72-.47,1.19-.47,.49,0,.91,.14,1.24,.47Zm.23-13.79l-.54,11.95h-1.84l-.54-11.95h2.92Z"/><path d="M634.02,224.3v1.73c-.75,1.21-1.61,2.43-2.59,3.62h2.82v1.47c-.33,1.73-.7,3.17-1.12,4.32,.16,.12,.35,.26,.56,.44,.72,.72,1.42,1.24,2.12,1.54,.7,.28,1.68,.42,2.99,.47,1.26,.02,2.71,.05,4.34,.05s3.8-.07,6.46-.16l-.49,2.08h-5.69c-1.66,0-3.22-.02-4.71-.07-1.59-.05-2.8-.26-3.62-.58-.98-.4-1.87-1-2.66-1.82-.16-.19-.35-.26-.54-.26-.47,0-1.21,1-2.24,3.01l-1.61-1.47c1.07-2.01,2.1-3.2,3.08-3.57,.44-1.1,.79-2.29,1.05-3.57h-3.38v-1.68c1.1-1.21,2.01-2.4,2.75-3.52h-3.15v-2.01h5.62Zm0-2.24l-1.45,1.45c-.86-1.05-2.05-2.17-3.59-3.38l1.47-1.4c1.4,1.12,2.59,2.22,3.57,3.34Zm6.74-1.28c-.28-.65-.56-1.28-.89-1.84l2.36-.37c.28,.65,.54,1.4,.79,2.22h5.86v2.01h-13.74v-2.01h5.62Zm6.93,9.85v6.02h-11.22v-6.02h11.22Zm-.54-6.42v1.75h-10.2v-1.75h10.2Zm0,3.2v1.75h-10.2v-1.75h10.2Zm-1.63,5.02h-6.88v2.4h6.88v-2.4Z"/><path d="M654.68,233.78l-.7-2.24c2.57-2.57,4.29-5.04,5.18-7.44h-4.67v-2.01h2.64c-.33-1-.7-1.98-1.14-2.94l2.15-.56c.51,1.28,.89,2.45,1.17,3.5h2.01v1.8c-.51,1.61-1.28,3.22-2.31,4.81v.3c.19,.14,.37,.26,.54,.4,.61-.51,1.17-1.28,1.7-2.29l1.26,1.26c-.51,.84-1.1,1.54-1.73,2.08,.58,.54,1.14,1.1,1.66,1.66l-1.21,1.87c-.75-1.07-1.47-2.01-2.22-2.78v8.96h-2.15v-8.63c-.68,.75-1.4,1.52-2.17,2.26Zm19.88-14.4v11.2h-4.69v2.33h5.09v2.08h-5.09v2.38h5.79v2.12h-13.77v-2.12h5.79v-2.38h-5.11v-2.08h5.11v-2.33h-4.71v-11.2h11.6Zm-6.88,4.67v-2.71h-2.59v2.71h2.59Zm0,1.89h-2.59v2.68h2.59v-2.68Zm2.19-1.89h2.57v-2.71h-2.57v2.71Zm2.57,1.89h-2.57v2.68h2.57v-2.68Z"/><path d="M688.16,219.41v1.75c-.61,2.01-1.31,4.11-2.15,6.35,1.26,2.12,1.96,3.99,2.05,5.58,0,1.1-.21,1.89-.63,2.36-.65,.61-1.75,.91-3.31,.91l-.75-2.24c.49,.07,.89,.12,1.21,.12,.49-.05,.82-.14,1-.28,.16-.19,.26-.47,.26-.86,0-1.56-.7-3.31-2.08-5.25,.91-2.33,1.63-4.46,2.15-6.35h-2.64v18.69h-2.17v-20.76h7.05Zm4.18,14.09c-.91,2.03-1.98,3.8-3.2,5.3l-1.84-1.31c1.21-1.38,2.24-3.01,3.13-4.92l1.91,.93Zm-.72,6.42l-.49-2.15c.7,.07,1.38,.12,2.03,.12,.37,0,.58-.28,.58-.79v-5.88h-5.27v-2.15h5.27v-2.24h-2.89v-1.47c-.65,.51-1.33,1-2.03,1.45l-1.26-1.87c2.57-1.56,4.62-3.57,6.21-6h2.15c1.38,2.36,3.43,4.32,6.18,5.9l-1.31,1.89c-.79-.47-1.49-.96-2.15-1.47v1.56h-2.66v2.24h5.04v2.15h-5.04v6.44c0,1.49-.7,2.26-2.05,2.26h-2.31Zm6.42-15.17c-1.26-1.07-2.31-2.31-3.2-3.71-.98,1.4-2.08,2.64-3.29,3.71h6.49Zm3.45,12.67l-1.87,1.26c-.65-1.54-1.56-3.24-2.68-5.13l1.73-1.07c1.21,1.89,2.15,3.55,2.82,4.95Z"/><path d="M722.93,221.95h-14.93v-2.15h17.99v2.15c-2.15,1.94-4.57,3.78-7.28,5.53v10.03c0,1.63-.82,2.45-2.43,2.45-1.42,0-2.66-.05-3.71-.14l-.61-2.15c1.14,.14,2.38,.21,3.71,.21,.54,0,.82-.28,.82-.79v-10.73c2.26-1.31,4.41-2.78,6.44-4.41Z"/><path d="M737.51,240.17l-1.61-1.45c1.4-1.45,2.12-3.31,2.17-5.58v-4.69c-1.19,1.4-2.54,2.73-4.04,3.94l-1.42-1.87c2.71-2.15,4.85-4.62,6.42-7.4h-5.79v-2.12h6.84c.35-.84,.65-1.68,.93-2.54l2.26,.26c-.23,.79-.49,1.56-.77,2.29h11.27v2.12h-12.2c-.4,.79-.82,1.54-1.28,2.26h10.66v12.53c0,1.38-.79,2.08-2.33,2.08h-2.38l-.51-1.98c.79,.05,1.56,.09,2.26,.09,.56,0,.86-.33,.86-.93v-1.96h-8.91c-.35,1.96-1.17,3.59-2.43,4.95Zm2.64-7.16c0,.09-.02,.21-.02,.3h8.73v-2.01h-8.7v1.7Zm8.7-5.69h-8.7v2.08h8.7v-2.08Z"/><path d="M760.22,240.33l-1.49-1.38c.84-1.66,1.26-3.76,1.28-6.32v-6.95l-1.19-1.45c1.31-1.38,2.43-3.29,3.36-5.72l2.01,.47c-.16,.42-.33,.84-.49,1.24h3.97v1.52c-.44,.86-.89,1.63-1.33,2.29h2.47v14.11c0,1.21-.65,1.82-1.94,1.82h-1.54l-.49-1.82c.51,.05,.98,.09,1.42,.09,.47,0,.7-.26,.7-.75v-2.8h-5.18c-.21,2.24-.72,4.11-1.56,5.65Zm5.09-18.31h-2.47c-.37,.72-.77,1.4-1.19,2.01h2.45c.4-.58,.79-1.26,1.21-2.01Zm-1.77,3.9h-1.63v2.47h1.63v-2.47Zm-1.63,6.93h1.63v-2.64h-1.63v2.64Zm5.06-6.93h-1.68v2.47h1.68v-2.47Zm-1.68,6.93h1.68v-2.64h-1.68v2.64Zm5.18,.54l-1.28-1.56c.98-1.07,1.66-2.5,2.01-4.27l1.82,.33c-.12,.56-.26,1.1-.4,1.59h1.7v-2.01h2.17v2.01h3.2v1.98h-3.2v2.36h3.71v2.03h-3.71v4.39h-2.17v-4.39h-4.97v-2.03h4.97v-2.36h-2.5c-.37,.75-.84,1.38-1.35,1.94Zm-.98-11.57v-1.96h10.06c-.02,3.31-.26,5.3-.7,5.95-.44,.65-1.21,.98-2.29,.98-.56,0-1.21-.05-1.98-.09l-.51-1.82c.82,.05,1.49,.09,2.03,.14,.56-.02,.93-.21,1.07-.54,.14-.33,.21-1.21,.26-2.66h-2.96c-.23,1-.58,1.89-1,2.68-.63,1-1.54,1.91-2.73,2.73l-1.31-1.66c.98-.56,1.73-1.21,2.22-1.98,.33-.51,.56-1.1,.75-1.77h-2.89Z"/><path d="M793.91,218.61v3.73h-2.15v-.77h-6.25v-1.96h6.25v-1h2.15Zm11.74,14.19h-2.15v-2.19h-9.71l1.89,.4c-.4,.42-.82,.84-1.24,1.21h8.14v1.63c-1.77,3.64-6.95,5.74-15.49,6.35l-1-1.82c2.75-.16,5.16-.47,7.19-.91-.7-.49-1.52-.98-2.4-1.49l1.38-1.33c1.38,.7,2.57,1.42,3.55,2.12,2.01-.7,3.48-1.61,4.41-2.68h-8.49c-1.03,.54-2.12,1.03-3.31,1.45l-1.33-1.63c2.5-.79,4.64-1.89,6.44-3.29h-5.76v2.12h-2.15v-3.9h20.04v3.97Zm-1.26-9.89v5.11h-17.24v-5.11h17.24Zm-12.11,1.7h-3.1v1.7h3.1v-1.7Zm4.95,0h-2.99v1.7h2.99v-1.7Zm2.22-6v.96h6.63v1.96h-6.63v.82h-2.15v-3.73h2.15Zm2.89,6h-3.15v1.7h3.15v-1.7Z"/><path d="M821.75,218.68v2.66h7.42v2.12h-7.42v3.01h10.45v2.15h-10.45v2.05c2.68,1.21,5.41,2.59,8.21,4.15l-1.26,1.89c-2.75-1.68-5.09-2.96-6.95-3.85v7.26h-2.24v-11.5h-8.19v-2.15h8.19v-7.79h2.24Z"/><path d="M846.81,222.6v-1.03h-9.08v-1.73h9.08v-1.31h2.19v1.31h9.08v1.73h-9.08v1.03h7.12v6.95h-.47c.96,1.03,1.7,1.96,2.24,2.78l-1.47,1c-.28-.42-.56-.84-.89-1.26l-1.91,.09v1.61h4.71v1.8h-4.71v2.47c0,1.35-.75,2.03-2.24,2.03h-2.52l-.42-2.01c.77,.09,1.52,.14,2.24,.14,.51,0,.77-.23,.77-.7v-1.94h-7.91c1.21,.77,2.24,1.54,3.08,2.31l-1.49,1.52c-.84-.91-1.98-1.89-3.48-2.94l.91-.89h-5.09v-1.8h13.98v-1.52c-4.04,.16-8.24,.3-12.6,.44l-.42-1.75c2.85-.05,5.62-.12,8.38-.21v-1.19h-7.12v-6.95h7.12Zm0,2.66v-1.14h-4.97v1.14h4.97Zm0,1.52h-4.97v1.14h4.97v-1.14Zm2.19-1.52h4.97v-1.14h-4.97v1.14Zm4.97,1.52h-4.97v1.14h4.97v-1.14Zm-.21,3.17l.63-.4h-5.39v1.12l5.23-.21c-.19-.19-.33-.35-.47-.51Z"/><path d="M883.84,219.36v2.15h-16.98v14.72c0,.65,.33,1,1.03,1h16.4v2.15h-17.05c-1.75,0-2.61-.89-2.61-2.61v-15.26h-.96v-2.15h20.18Zm-9.03,10.36v6.56h-6.7v-6.56h6.7Zm5.86-7.19v5.86h-10.8v-5.86h10.8Zm-7.82,9.05h-2.78v2.82h2.78v-2.82Zm5.76-7.09h-6.67v1.94h6.67v-1.94Zm4.41,5.23v6.56h-6.65v-6.56h6.65Zm-1.96,1.87h-2.75v2.82h2.75v-2.82Z"/><path d="M901.51,222.51h7.23v1.68c-2.66,5.04-6.51,8.94-11.57,11.64,.98,.93,2.17,1.45,3.57,1.56,1.1,.05,2.66,.07,4.69,.07,1.24,0,2.94-.05,5.13-.14l-.54,2.19h-4.25c-2.08,0-3.57-.02-4.46-.05-2.54-.05-4.46-.79-5.76-2.29-.49-.51-.89-.77-1.21-.77-.51,0-1.4,1.21-2.66,3.66l-1.77-1.24c1.59-3.17,3.08-4.74,4.48-4.74,.3,0,.58,.07,.84,.21,.07,.02,.14,.05,.19,.09,4.6-2.43,8.12-5.67,10.59-9.73h-14.63v-2.17h7.7c-.61-1.28-1.31-2.47-2.1-3.57l2.57-.42c.68,1.17,1.33,2.5,1.96,3.99Z"/><path d="M923.61,230.02c.93-1.87,1.56-3.92,1.91-6.16h-4.15c-1.12,2.61-2.61,4.76-4.48,6.49l-1.54-1.91c2.61-2.43,4.39-5.69,5.32-9.8l2.22,.37c-.21,.93-.44,1.84-.72,2.73h5.53v1.96c-.79,7.05-4.2,12.39-10.24,15.98l-1.52-1.89c2.82-1.59,5.04-3.59,6.65-6.02-1.14-.93-2.31-1.66-3.48-2.22l1.17-1.73c1.21,.63,2.31,1.35,3.34,2.19Zm7.86-11.36v6.91c1.89,1.35,3.83,2.89,5.79,4.62l-1.38,2.08c-1.73-1.8-3.2-3.2-4.41-4.22v12.09h-2.24v-21.46h2.24Z"/><path d="M620.84,257.88v1.75c-.7,1.21-1.54,2.4-2.5,3.62h2.73v1.47c-.33,1.73-.7,3.13-1.12,4.22,.19,.12,.37,.28,.56,.47,.75,.7,1.47,1.19,2.17,1.52,.7,.28,1.7,.42,3.01,.44,1.28,.02,2.75,.05,4.41,.05s3.92-.07,6.67-.16l-.49,2.1h-5.9c-1.68,0-3.27-.05-4.78-.09-1.61-.05-2.82-.26-3.66-.58-.98-.37-1.87-.98-2.68-1.8-.14-.19-.33-.26-.54-.26-.47,0-1.17,1.03-2.12,3.08l-1.61-1.47c1.03-2.05,2.03-3.27,2.96-3.62,.44-1.07,.79-2.24,1.05-3.5h-3.24v-1.68c1.07-1.21,1.96-2.4,2.66-3.55h-3.08v-2.01h5.51Zm-.12-2.29l-1.45,1.45c-.84-1.03-2.03-2.15-3.55-3.34l1.45-1.38c1.4,1.07,2.59,2.17,3.55,3.27Zm13.48,4.9v4.32h-.35l1.52,.93c-.42,.56-.98,1.19-1.66,1.89,.75,.49,1.45,.98,2.08,1.49l-1.45,1.45c-1.4-1.28-3.38-2.66-5.9-4.13l1.28-1.21c.89,.49,1.73,.98,2.5,1.45,.68-.75,1.17-1.38,1.47-1.87h-5.27c-.49,.56-1.07,1.07-1.73,1.54v2.4c1.12-.23,2.24-.49,3.34-.77l.35,1.73c-1.84,.4-3.71,.72-5.62,1l-.61-1.54c.42-.14,.63-.33,.63-.58v-1.1c-.75,.37-1.56,.72-2.45,1.05l-1.03-1.73c2.01-.56,3.5-1.21,4.53-2.01h-2.47v-4.32h10.85Zm1.68-2.61v1.77h-14.19v-1.77h14.19Zm-1.14-5.13v4.39h-11.9v-4.39h11.9Zm-8.45,1.47h-1.59v1.45h1.59v-1.45Zm5.95,7.84h-6.95v1.19h6.95v-1.19Zm-2.66-7.84h-1.61v1.45h1.61v-1.45Zm3.29,0h-1.61v1.45h1.61v-1.45Z"/><path d="M646.04,273.74l-1.61-1.45c1.4-1.45,2.12-3.31,2.17-5.58v-4.69c-1.19,1.4-2.54,2.73-4.04,3.94l-1.42-1.87c2.71-2.15,4.85-4.62,6.42-7.4h-5.79v-2.12h6.84c.35-.84,.65-1.68,.93-2.54l2.26,.26c-.23,.79-.49,1.56-.77,2.29h11.27v2.12h-12.2c-.4,.79-.82,1.54-1.28,2.26h10.66v12.53c0,1.38-.79,2.08-2.33,2.08h-2.38l-.51-1.98c.79,.05,1.56,.09,2.26,.09,.56,0,.86-.33,.86-.93v-1.96h-8.91c-.35,1.96-1.17,3.59-2.43,4.95Zm2.64-7.16c0,.09-.02,.21-.02,.3h8.73v-2.01h-8.7v1.7Zm8.7-5.69h-8.7v2.08h8.7v-2.08Z"/><path d="M688.16,252.98v2.08h-9.03v1.61h7.14v9.59h-7.47c-.26,1.35-.65,2.45-1.19,3.31,3.22,1.26,6.98,1.94,11.32,2.08l-.56,2.15c-4.67-.21-8.73-1.07-12.18-2.61-1.68,1.31-4.32,2.17-7.93,2.59l-.96-2.03c2.99-.19,5.23-.72,6.72-1.63-1.26-.7-2.4-1.49-3.43-2.36l1.7-1.17c1,.79,2.1,1.47,3.27,2.08,.42-.65,.77-1.47,1-2.4h-6.7v-9.59h7.07v-1.61h-9.01v-2.08h20.23Zm-11.22,7.54v-1.96h-4.88v1.96h4.88Zm0,2.38v-.56h-4.88v1.98h4.81c.05-.47,.07-.96,.07-1.42Zm7.14-.56h-4.95v.56c0,.51-.02,.98-.07,1.42h5.02v-1.98Zm-4.95-1.82h4.95v-1.96h-4.95v1.96Z"/><path d="M705.82,253.1c-.33,.35-.63,.68-.93,.98h6.23v1.73c-2.52,4.48-7.19,7.02-14.02,7.58l-.93-2.01c1.96-.12,3.71-.37,5.25-.79-.65-.79-1.35-1.52-2.05-2.17l1.91-.91c.77,.75,1.52,1.54,2.22,2.38,2.15-.91,3.85-2.19,5.09-3.85h-6.28c-1.82,1.07-3.94,1.87-6.39,2.4l-1.31-2.03c4.13-.75,7.21-2.19,9.24-4.34l1.98,1.03Zm.02,16.24c2.29-1.03,4.13-2.4,5.48-4.15h-6.39c-2.03,.93-4.41,1.68-7.14,2.22l-1.33-1.98c5.09-.49,8.84-1.98,11.22-4.5l1.89,1.03c-.42,.44-.89,.86-1.35,1.24h5.95v1.73c-3.34,5.46-9.54,8.31-18.64,8.54l-.89-2.12c3.52,0,6.56-.4,9.1-1.19-.72-.93-1.47-1.8-2.24-2.54l1.96-.93c.84,.84,1.63,1.73,2.38,2.68Z"/><path d="M720.32,263.78l-.72-2.36c2.17-2.66,3.76-5.79,4.76-9.33l2.01,.93c-.44,1.49-1,2.92-1.66,4.27v16.45h-2.15v-12.81c-.7,.98-1.45,1.94-2.24,2.85Zm14.63-11.41c-.05,.63-.12,1.24-.16,1.84h5.58v2.01h-5.81c-.09,.56-.16,1.07-.23,1.59h4.6v13.25h2.12v2.01h-15.42v-2.01h2.31v-13.25h4.22c.09-.54,.16-1.07,.21-1.59h-5.74v-2.01h5.97c.05-.72,.12-1.45,.16-2.15l2.19,.3Zm1.84,8.89v-1.47h-6.74v1.47h6.74Zm0,3.22v-1.47h-6.74v1.47h6.74Zm0,3.27v-1.49h-6.74v1.49h6.74Zm0,3.31v-1.56h-6.74v1.56h6.74Z"/><path d="M752.66,253c-1.26,2.52-3.41,4.81-6.42,6.86l-.68-2.15c2.38-1.61,4.13-3.48,5.25-5.58l1.84,.86Zm-6.35,13.27l-.63-2.1c2.36-1.77,4.08-3.8,5.2-6.09l1.91,.89c-.51,1.1-1.19,2.15-1.98,3.17v11.6h-2.15v-9.33c-.75,.65-1.52,1.26-2.36,1.87Zm20.32-4.27v1.94h-2.66v1.47h3.2v1.94h-3.2v4.06c0,1.45-.77,2.17-2.29,2.17h-2.54l-.47-2.1c.79,.09,1.54,.16,2.24,.16,.56,0,.86-.26,.86-.77v-3.52h-9.59v-1.94h9.59v-1.47h-8.75v-1.94h13.6Zm-1.31-9.1v7.77h-11.36v-7.77h11.36Zm-6.58,18.2l-1.68,1.17c-.7-1.05-1.66-2.19-2.85-3.41l1.59-1.14c1.28,1.26,2.26,2.4,2.94,3.38Zm4.46-15.14v-1.28h-7.12v1.28h7.12Zm0,1.66h-7.12v1.31h7.12v-1.31Z"/><path d="M772.35,263.85l-.72-2.36c2.43-2.71,4.22-5.86,5.37-9.45l2.08,.98c-.61,1.82-1.38,3.57-2.36,5.2v15.49h-2.22v-12.29c-.68,.84-1.4,1.63-2.15,2.43Zm7.16-2.12l-1.91-1.19c1.75-2.59,2.99-5.37,3.71-8.35l2.08,.44c-.21,.77-.42,1.52-.65,2.22h9.8v1.45c-.37,1.4-.82,2.8-1.38,4.2l-2.12-.61c.47-.84,.89-1.82,1.21-2.89h-8.28c-.7,1.73-1.52,3.29-2.45,4.74Zm3.41,.54c-.82,3.22-1.87,6.02-3.17,8.45l-2.08-.75c1.24-2.17,2.33-4.92,3.27-8.26l1.98,.56Zm-1.26,11.29l-.49-2.1c.96,.09,1.87,.16,2.73,.16,.56,0,.84-.3,.84-.91v-12.02h2.15v12.58c0,1.52-.75,2.29-2.24,2.29h-2.99Zm11.46-3.34l-1.94,.89c-.89-3.38-1.87-6.37-2.94-8.98l1.96-.65c1.12,2.73,2.1,5.65,2.92,8.75Z"/><path d="M798.81,273.63l-.47-2.12c.61,.09,1.21,.14,1.77,.14s.82-.28,.82-.84v-5.2c-.82,.3-1.63,.58-2.47,.84l-.56-2.22c1.03-.23,2.03-.51,3.03-.86v-4.76h-2.59v-2.12h2.59v-4.22h2.19v4.22h1.94v2.12h-1.94v3.9c.63-.28,1.26-.58,1.89-.91v2.19c-.63,.33-1.26,.63-1.89,.91v6.65c0,1.52-.75,2.29-2.24,2.29h-2.08Zm6.67-8.38v-2.03h5.53v-2.36h2.12v2.36h5.58v2.03h-3.87c.96,1.91,2.5,3.62,4.62,5.16l-1.38,1.75c-2.29-2.05-3.9-4.36-4.85-6.91h-.09v8.38h-2.12v-8.38h-.14c-1.12,2.85-2.96,5.23-5.53,7.12l-1.12-1.87c2.29-1.4,3.97-3.15,5.06-5.25h-3.8Zm5.95-9.4c-.14,1.77-.51,3.08-1.14,3.92-.7,.86-1.84,1.61-3.48,2.26l-1.31-1.63c1.4-.47,2.38-1,2.96-1.61,.56-.61,.91-1.59,1-2.94h1.96Zm6.93,1.73h-2.08v-2.61h-8.49v2.71h-2.08v-4.69h12.65v4.6Zm-3.57-1.75v2.64c0,.37,.21,.56,.65,.56h3.08v1.89h-4.06c-1.12,0-1.68-.54-1.68-1.56v-3.52h2.01Z"/><path d="M832.09,269.87c-1.82,1.38-4.04,2.52-6.67,3.43l-.91-1.96c2.57-.75,4.64-1.73,6.28-2.94l1.31,1.47Zm1.63-16.03v-1.66h2.24v1.66h7.68v2.01h-7.68v1.61h8.82v4.55h-2.15v-2.64h-8.26l1.03,.51c-1.28,.98-2.59,1.87-3.94,2.61,1.82-.05,3.31-.12,4.48-.19,.79-.54,1.59-1.1,2.4-1.7l1.77,1.19c-2.43,1.8-5.09,3.24-7.98,4.34,2.59-.09,5.13-.23,7.63-.37-.44-.49-.89-.98-1.35-1.45l1.61-1c1.63,1.63,2.92,3.08,3.83,4.32l-1.68,1.19c-.35-.51-.72-1.05-1.14-1.56-1.73,.09-3.36,.19-4.95,.28v4.08c0,1.38-.75,2.08-2.19,2.08h-2.12l-.44-2.05c.63,.09,1.24,.14,1.84,.14,.47,0,.72-.23,.72-.68v-3.45c-2.47,.12-4.78,.21-6.93,.26l-.44-1.98c.65,.05,1.28,.07,1.89,.07,1.59-.44,3.24-1.14,4.97-2.1-1.4,.05-2.94,.09-4.67,.14l-.42-1.63c.33-.07,.68-.21,1.03-.4,1.33-.77,2.57-1.66,3.73-2.64h-6v2.61h-2.15v-4.53h8.82v-1.61h-7.68v-2.01h7.68Zm11.29,17.75l-1.12,1.77c-2.15-1.4-4.34-2.5-6.58-3.29l1.1-1.63c2.43,.86,4.62,1.91,6.6,3.15Z"/><path d="M858.95,272.27h-2.12v-1.21h-3.69v1.89h-2.12v-16.92h2.22c.42-1.26,.75-2.54,.93-3.9l2.22,.3c-.23,1.28-.58,2.47-1.03,3.59h3.59v16.24Zm-2.12-9.85v-4.29h-3.69v4.29h3.69Zm0,6.58v-4.6h-3.69v4.6h3.69Zm13.81,1.94c-.23,1.68-1.35,2.52-3.34,2.52-.47,0-1.31-.05-2.47-.12l-.54-2.03c1.03,.05,1.91,.09,2.66,.09,.93,0,1.47-.49,1.61-1.47,.14-1.17,.21-5.09,.26-11.74h-5.86c-.65,1.4-1.4,2.68-2.29,3.85l-1.33-1.75c1.54-2.24,2.61-4.97,3.17-8.19l2.19,.28c-.23,1.31-.56,2.52-.93,3.66h7.21c0,8.05-.12,13.02-.35,14.88Zm-3.94-4.29l-1.75,1.24c-.89-1.54-2.1-3.24-3.59-5.13l1.8-1.12c1.54,1.91,2.73,3.57,3.55,5.02Z"/><path d="M879.18,258.23v-5.95h2.19v5.95h2.43v2.17h-2.43v7.05c.96-.35,1.89-.75,2.82-1.17v2.19c-2.29,1.03-4.74,1.91-7.35,2.61l-.56-2.24c.98-.19,1.94-.42,2.89-.7v-7.75h-2.57v-2.17h2.57Zm13.14-6.04v5.16l4.85-1.42c-.05,3.06-.42,6.28-1.12,9.64l-2.05-.63c.44-1.8,.79-3.87,1.05-6.23l-2.73,.79v9.22h-2.1v-8.61l-2.45,.7v9.24c0,.79,.35,1.19,1.1,1.19h5.74c.4,0,.68-.16,.86-.49,.21-.33,.35-1.38,.44-3.15l2.05,.65c-.19,2.45-.49,3.92-.96,4.39s-1.1,.68-1.98,.68h-6.81c-1.73,0-2.59-.96-2.59-2.82v-9.05l-1.45,.42v-2.15l1.45-.42v-4.71h2.15v4.08l2.45-.7v-5.76h2.1Z"/><path d="M912.75,255.45c-.44-.91-.96-1.77-1.56-2.61l2.1-.77c.63,.96,1.21,2.08,1.73,3.38h8.66v2.15h-12.13l-.19,3.66h9.61c-.07,5.02-.28,8.17-.65,9.45-.51,1.87-1.68,2.82-3.52,2.87-.75,0-1.66-.05-2.68-.12l-.65-2.01c1.24,.05,2.29,.09,3.13,.09,.98-.05,1.61-.75,1.89-2.15,.14-.79,.21-2.82,.26-6.04h-7.63c-.33,1.8-.89,3.45-1.73,4.95-1.14,2.01-2.75,3.85-4.81,5.53l-1.61-1.54c2.47-2.08,4.11-3.99,4.9-5.76,.79-1.77,1.24-3.76,1.35-5.95,.05-1.28,.09-2.29,.14-2.99h-6.42v-2.15h9.82Z"/><path d="M938.33,261.1c.79,.47,1.61,.93,2.4,1.42,1.03,.56,1.98,.84,2.82,.84,.91,0,2.01-.89,3.31-2.64l1.61,1.35c-1.63,2.29-3.27,3.43-4.92,3.43-1.1,0-2.19-.28-3.29-.84-.79-.49-1.56-.96-2.36-1.42-.93-.51-1.82-.75-2.64-.75-.96,0-2.08,.86-3.36,2.61l-1.61-1.35c1.61-2.29,3.27-3.43,4.97-3.43,1,0,2.03,.26,3.06,.77Z"/><path d="M525.91,324.02c-.07,2.33-.33,4.55-.77,6.63l-1.8-.49c.49-1.98,.77-4.06,.84-6.25l1.73,.12Zm2.89-4.62v21.37h-2.17v-21.37h2.17Zm3.36,9.08l-1.8,.44c-.37-1.75-.89-3.43-1.52-5.06l1.63-.54c.63,1.49,1.19,3.22,1.68,5.16Zm3.73-5.76v-3.34h2.15v3.34h4.97v7h1.59v2.17h-7.21c-1,4.04-3.13,7-6.39,8.87l-1.35-1.82c2.8-1.47,4.67-3.83,5.6-7.05h-4.25v-2.17h4.69c.14-.98,.21-2.01,.21-3.08v-1.84h-3.97v-2.08h3.97Zm2.15,3.43c0,1.26-.09,2.45-.23,3.57h3.06v-4.92h-2.82v1.35Zm.02,7.98l1.45-1.4c1.59,1.45,3.45,3.64,5.65,6.58l-1.59,1.59c-1.68-2.43-3.5-4.69-5.51-6.77Z"/><path d="M565.79,319.41v4.25h4.62c0,7.84-.12,12.67-.33,14.49-.21,1.68-1.24,2.52-3.08,2.52-.42,0-1.17-.05-2.24-.09l-.54-1.96c.93,.07,1.77,.12,2.47,.12,.77,0,1.21-.51,1.35-1.54,.14-1.17,.23-4.99,.28-11.5h-2.54v.86c-.07,6.49-1.47,11.25-4.22,14.23l-1.33-1.17c-3.03,.37-6.49,.7-10.34,.93l-.28-1.96c1.68-.09,3.27-.21,4.78-.3v-1.63h-4.01v-1.82h4.01v-1.24h-4.08v-7.44h4.08v-1.12h-4.57v-1.82h4.57v-1.21c-1.21,.07-2.52,.12-3.9,.12l-.58-1.75c3.92,0,7.21-.33,9.89-.93l.98,1.68c-1.26,.33-2.68,.56-4.29,.72v1.38h4.46v1.82h-4.46v1.12h4.11v7.44h-4.11v1.24h4.04v1.82h-4.04v1.45c1.45-.14,2.78-.28,4.01-.42v1.1c2.1-2.71,3.15-6.79,3.2-12.23v-.86h-2.1v-2.03h2.1v-4.25h2.08Zm-11.25,9.71v-1.35h-2.22v1.35h2.22Zm0,1.49h-2.22v1.35h2.22v-1.35Zm1.82-1.49h2.24v-1.35h-2.24v1.35Zm2.24,1.49h-2.24v1.35h2.24v-1.35Z"/><path d="M591.93,319.41v4.25h4.62c0,7.84-.12,12.67-.33,14.49-.21,1.68-1.24,2.52-3.08,2.52-.42,0-1.17-.05-2.24-.09l-.54-1.96c.93,.07,1.77,.12,2.47,.12,.77,0,1.21-.51,1.35-1.54,.14-1.17,.23-4.99,.28-11.5h-2.54v.86c-.07,6.49-1.47,11.25-4.22,14.23l-1.33-1.17c-3.03,.37-6.49,.7-10.34,.93l-.28-1.96c1.68-.09,3.27-.21,4.78-.3v-1.63h-4.01v-1.82h4.01v-1.24h-4.08v-7.44h4.08v-1.12h-4.57v-1.82h4.57v-1.21c-1.21,.07-2.52,.12-3.9,.12l-.58-1.75c3.92,0,7.21-.33,9.89-.93l.98,1.68c-1.26,.33-2.68,.56-4.29,.72v1.38h4.46v1.82h-4.46v1.12h4.11v7.44h-4.11v1.24h4.04v1.82h-4.04v1.45c1.45-.14,2.78-.28,4.01-.42v1.1c2.1-2.71,3.15-6.79,3.2-12.23v-.86h-2.1v-2.03h2.1v-4.25h2.08Zm-11.25,9.71v-1.35h-2.22v1.35h2.22Zm0,1.49h-2.22v1.35h2.22v-1.35Zm1.82-1.49h2.24v-1.35h-2.24v1.35Zm2.24,1.49h-2.24v1.35h2.24v-1.35Z"/><path d="M621.51,321.37c-2.1,.56-4.53,.98-7.28,1.26v3.38h7.23v2.15h-7.23v3.31h8.98v2.12h-8.98v4.78c0,1.54-.82,2.31-2.43,2.31h-3.62l-.51-2.15c1.17,.07,2.29,.12,3.36,.12,.65,0,.98-.28,.98-.82v-4.25h-9.82v-2.12h9.82v-3.31h-7.89v-2.15h7.89v-3.2c-2.38,.16-4.92,.26-7.68,.26l-.7-2.01c6.65,0,12.25-.54,16.77-1.56l1.1,1.87Z"/><path d="M628.94,340.66l-.49-2.12c.75,.09,1.47,.14,2.15,.14,.56,0,.86-.3,.86-.86v-4.99c-.93,.33-1.89,.61-2.85,.89l-.54-2.22c1.14-.23,2.26-.54,3.38-.89v-4.85h-2.96v-2.12h2.96v-4.2h2.12v4.2h2.4v2.12h-2.4v4.11c.89-.35,1.77-.72,2.61-1.14v2.26c-.86,.37-1.73,.75-2.61,1.07v6.32c0,1.52-.75,2.29-2.22,2.29h-2.43Zm19.69-17.73l-9.36,.44v1.54c0,.54,.28,.82,.89,.82h8.82v2.03h-9.89c-1.28,0-1.91-.65-1.91-1.94v-6.3h2.1v1.89l9.36-.42v1.94Zm-.21,17.94h-2.22v-1.03h-6.65v1.03h-2.19v-11.22h11.06v11.22Zm-2.22-7.14v-2.15h-6.65v2.15h6.65Zm0,4.15v-2.19h-6.65v2.19h6.65Z"/><path d="M664.4,331.89c-.23-.37-.47-.7-.7-1l2.08-.33c.28,.4,.54,.84,.82,1.33h8.59v1.82h-10.45c-.91,.89-2.05,1.73-3.45,2.47v2.52c1.73-.33,3.36-.72,4.88-1.14l.3,1.77c-2.05,.51-4.57,1.03-7.51,1.49l-.37-1.56c.51-.21,.77-.51,.77-.91v-1.24c-1.17,.47-2.45,.93-3.8,1.35l-1.05-1.75c3.5-.79,6.11-1.8,7.89-3.01h-7.68v-1.82h9.71Zm-7.35-8.52l-1.77-.54c.61-.98,1-2.12,1.17-3.38l1.73,.21c-.05,.37-.12,.72-.16,1.05h2.15v-1.33h2.01v1.33h4.01v1.68h-4.01v1.17h4.81v1.68h-4.81v1.05h4.34v2.8c0,.82-.65,1.24-1.96,1.24h-1.38l-.35-1.42,1.17,.05c.42,0,.63-.16,.63-.44v-.72h-2.45v3.03h-2.01v-3.03h-2.26v2.68h-1.87v-4.18h4.13v-1.05h-5.3v-1.68h5.3v-1.17h-2.64c-.14,.35-.3,.68-.47,.98Zm16.26,12.01c-.75,.79-1.63,1.49-2.66,2.12,1.4,.72,3.06,1.28,4.97,1.68l-1.19,1.73c-4.25-1.05-7.26-2.99-9.05-5.83l1.47-.84c.56,.86,1.31,1.63,2.22,2.31,1.1-.72,2.03-1.52,2.82-2.4l1.42,1.24Zm-3.43-14.74v6.88h-2.01v-6.88h2.01Zm-.47,10.06l-.42-1.94c.89,.05,1.73,.09,2.52,.09,.54,0,.82-.21,.82-.63v-8.87h2.01v9.33c0,1.33-.72,2.01-2.12,2.01h-2.8Z"/><path d="M680.88,330.81l-.75-2.38c2.4-2.64,4.18-5.72,5.32-9.22l2.1,.98c-.61,1.77-1.38,3.45-2.31,5.04v15.68h-2.24v-12.46c-.65,.79-1.38,1.59-2.12,2.36Zm6.46-.4l-1.59-1.91c1.94-2.26,3.59-5.39,4.95-9.36l2.24,.49c-.33,.98-.68,1.91-1.03,2.8h9.61v2.17h-7.49v3.34h6.56v2.15h-6.56v3.43h6.6v2.12h-6.6v5.27h-2.24v-16.31h-.84c-1.07,2.24-2.29,4.18-3.62,5.81Z"/><path d="M710.09,329.2c0,1.73-.12,3.36-.33,4.9,1.75-.7,3.03-1.52,3.85-2.5h-2.05v-3.43h14.6v3.43h-10.36c-.16,.23-.33,.49-.51,.72h11.95c0,3.62-.12,5.86-.33,6.7-.21,1.28-1.17,1.94-2.85,1.94-.26,0-.68-.05-1.28-.09l-.16-.68-.47,.19c-.09-.23-.16-.42-.26-.61-3.29,.3-6.77,.54-10.41,.72l-.4-1.54c2.01-.07,3.99-.14,5.95-.23v-.86h-4.76v-2.96c-.58,.35-1.21,.68-1.87,.96l-.75-1.21c-.33,2.19-.84,4.15-1.56,5.93l-1.66-1.49c1-2.54,1.52-5.83,1.54-9.87v-9.47h19.22v4.2h-7.47v3.66h-2.03v-3.66h-7.63v5.27Zm0-7.93v1.19h15.05v-1.19h-15.05Zm6.46,6.09c-1.03,.16-2.71,.3-5.04,.44l-.35-1.21c2.31-.09,3.97-.21,4.99-.35l.4,1.12Zm-.02-2.61l-.47,1.17c-1.47-.23-2.99-.42-4.55-.56l.54-1.1c1.54,.12,3.03,.28,4.48,.49Zm.51,9.08h-3.22c-.33,.26-.65,.49-.98,.72h4.2v-.72Zm-1.26-4.48h-2.22v1.12h2.22v-1.12Zm1.26,6.39h-2.85v.96h2.85v-.96Zm2.89-6.39h-2.26v1.12h2.26v-1.12Zm3.64,9.94h.21c.65,0,1.05-.37,1.14-1.07,.14-.47,.21-1.91,.26-4.39h-6.28v.72h4.78v3.31h-.98c.33,.51,.63,.98,.86,1.42Zm-1.8-3.55h-2.87v.96h2.87v-.96Zm-.56,2.73c-.09-.21-.21-.42-.33-.61h-1.98v.75l2.31-.14Zm5.34-11.71l-.47,1.19c-1.7-.28-3.48-.51-5.34-.65l.56-1.1c1.82,.12,3.57,.3,5.25,.56Zm-5.48-2.05c1.8-.09,3.41-.26,4.83-.51l.44,1.21c-1.45,.19-3.13,.35-5.04,.47l-.23-1.17Zm3.08,4.64h-2.31v1.12h2.31v-1.12Z"/><path d="M736.95,322.46c-.37-.91-.77-1.8-1.24-2.64l2.15-.56c.56,1.17,.96,2.24,1.24,3.2h3.48v2.15h-5.55v2.8h4.36c0,5.74-.12,9.26-.33,10.62-.19,1.73-1.17,2.61-2.92,2.61-.26,0-.7-.05-1.31-.12l-.51-1.91c.56,.07,1.07,.12,1.52,.12,.72,0,1.14-.56,1.26-1.63,.12-.77,.19-3.31,.23-7.63h-2.33c-.14,5.13-1.07,8.91-2.78,11.36l-1.61-1.4c1.54-2.31,2.31-6,2.33-11.06v-3.76h-1.96v-2.15h3.97Zm11.74-2.94c1.1,3.15,2.96,5.93,5.6,8.33l-1.21,1.84c-2.4-2.12-4.2-4.78-5.37-7.96-1.31,3.5-2.94,6.21-4.92,8.12l-1.19-1.77c2.19-2.19,3.9-5.04,5.11-8.56h1.98Zm4.13,19.76l-1.4,1.73c-2.15-1.94-4.9-3.76-8.21-5.44l1.31-1.54c3.24,1.59,6.02,3.34,8.31,5.25Zm-1.45-6.93l-1.33,1.59c-1.33-1.54-3.01-2.96-5.04-4.29l1.31-1.52c1.96,1.26,3.66,2.68,5.06,4.22Z"/><path d="M777.53,340.85h-2.24v-1.31h-11.57v1.31h-2.24v-18.9h5.04c.47-.86,.84-1.75,1.07-2.68l2.26,.33c-.23,.84-.58,1.61-1,2.36h8.68v18.9Zm-2.24-13.83v-2.94h-11.57v2.94h11.57Zm0,5.11v-3.06h-11.57v3.06h11.57Zm0,5.32v-3.27h-11.57v3.27h11.57Z"/><path d="M805.09,339c-.47,.72-1.52,1.1-3.1,1.1h-12.2c-1.98,0-2.96-.91-2.96-2.73v-9.29h14.6v-5.53h-14.88v-2.12h17.1v9.78h-14.58v6.3c0,.93,.58,1.42,1.7,1.47h10.87c1,0,1.63-.33,1.91-.98,.23-.63,.42-1.84,.51-3.64l2.17,.72c-.28,2.5-.65,4.13-1.14,4.92Z"/><path d="M819.74,339.42h-2.12v-1.21h-3.69v1.89h-2.12v-16.91h2.22c.42-1.26,.75-2.54,.93-3.9l2.22,.3c-.23,1.28-.58,2.47-1.03,3.59h3.59v16.24Zm-2.12-9.85v-4.29h-3.69v4.29h3.69Zm0,6.58v-4.6h-3.69v4.6h3.69Zm13.81,1.94c-.23,1.68-1.35,2.52-3.34,2.52-.47,0-1.31-.05-2.47-.12l-.54-2.03c1.03,.05,1.91,.09,2.66,.09,.93,0,1.47-.49,1.61-1.47,.14-1.17,.21-5.09,.26-11.74h-5.86c-.65,1.4-1.4,2.68-2.29,3.85l-1.33-1.75c1.54-2.24,2.61-4.97,3.17-8.19l2.19,.28c-.23,1.31-.56,2.52-.93,3.66h7.21c0,8.05-.12,13.02-.35,14.89Zm-3.94-4.29l-1.75,1.24c-.89-1.54-2.1-3.24-3.59-5.13l1.8-1.12c1.54,1.91,2.73,3.57,3.55,5.02Z"/><path d="M845.41,337.04c-1.68,1.31-3.78,2.47-6.28,3.45l-1.33-1.75c2.45-.86,4.5-1.87,6.14-3.01l1.47,1.31Zm1.4-3.92v-1.33h2.19v1.33h8.68v1.96h-8.68v5.83h-2.19v-5.83h-8.68v-1.96h8.68Zm1.68-13.86v1.19h8.42v1.82h-8.42v1.14h7.02v7.98h-15.14v-7.98h6v-4.15h2.12Zm4.95,7.33v-1.38h-10.99v1.38h10.99Zm0,1.63h-10.99v1.42h10.99v-1.42Zm4.62,10.64l-1.4,1.56c-2.01-1.31-4.08-2.43-6.23-3.36l1.28-1.45c2.33,.98,4.46,2.08,6.35,3.24Z"/><path d="M876.63,325.54v2.68h6.44v7.93c0,1.61-.82,2.43-2.45,2.43h-2.12l-.54-2.05,1.96,.07c.68,0,1.03-.33,1.03-.93v-5.39h-4.32v10.59h-2.15v-10.59h-4.36v8.49h-2.12v-8.68c-1.05,1.07-2.19,2.08-3.43,3.01l-1.42-1.87c2.75-2.03,4.97-4.34,6.6-6.91h-5.81v-2.17h7.02c.47-.98,.86-1.96,1.19-2.94l2.24,.28c-.3,.93-.63,1.82-1,2.66h10.99v2.17h-12.04c-.79,1.38-1.68,2.68-2.66,3.9h4.81v-2.68h2.15Z"/><path d="M891.34,322.23v-2.1h14.44v1.17c-.37,2.03-.84,3.78-1.4,5.23h4.41v1.96c-.7,2.96-2.12,5.48-4.25,7.54,1.63,1.1,3.57,2.08,5.83,2.92l-1.52,1.98c-2.4-.98-4.43-2.12-6.11-3.38-1.96,1.4-4.32,2.57-7.05,3.45l-1.1-2.03c2.47-.79,4.57-1.77,6.3-2.99-2.19-2.12-3.62-4.6-4.27-7.4h-.14c-.63,5.39-2.4,9.47-5.32,12.25l-1.7-1.49c3.31-3.13,5.02-8.12,5.06-14.98v-2.12h-3.2Zm10.87,4.29c.44-1.26,.84-2.68,1.19-4.29h-6.63v2.12c-.02,.75-.05,1.47-.09,2.17h5.53Zm4.25,2.05h-7.89c.7,2.26,2.05,4.27,4.06,6.02,1.82-1.7,3.1-3.71,3.83-6.02Z"/><path d="M917.03,341.06l-1.49-1.38c.84-1.66,1.26-3.76,1.28-6.32v-6.95l-1.19-1.45c1.31-1.38,2.43-3.29,3.36-5.72l2.01,.47c-.16,.42-.33,.84-.49,1.24h3.97v1.52c-.44,.86-.89,1.63-1.33,2.29h2.47v14.12c0,1.21-.65,1.82-1.94,1.82h-1.54l-.49-1.82c.51,.05,.98,.09,1.42,.09,.47,0,.7-.26,.7-.75v-2.8h-5.18c-.21,2.24-.72,4.11-1.56,5.65Zm5.09-18.31h-2.47c-.37,.72-.77,1.4-1.19,2.01h2.45c.4-.58,.79-1.26,1.21-2.01Zm-1.77,3.9h-1.63v2.47h1.63v-2.47Zm-1.63,6.93h1.63v-2.64h-1.63v2.64Zm5.06-6.93h-1.68v2.47h1.68v-2.47Zm-1.68,6.93h1.68v-2.64h-1.68v2.64Zm5.18,.54l-1.28-1.56c.98-1.07,1.66-2.5,2.01-4.27l1.82,.33c-.12,.56-.26,1.1-.4,1.59h1.7v-2.01h2.17v2.01h3.2v1.98h-3.2v2.36h3.71v2.03h-3.71v4.39h-2.17v-4.39h-4.97v-2.03h4.97v-2.36h-2.5c-.37,.75-.84,1.38-1.35,1.94Zm-.98-11.57v-1.96h10.06c-.02,3.31-.26,5.3-.7,5.95-.44,.65-1.21,.98-2.29,.98-.56,0-1.21-.05-1.98-.09l-.51-1.82c.82,.05,1.49,.09,2.03,.14,.56-.02,.93-.21,1.07-.54,.14-.33,.21-1.21,.26-2.66h-2.96c-.23,1-.58,1.89-1,2.68-.63,1-1.54,1.91-2.73,2.73l-1.31-1.66c.98-.56,1.73-1.21,2.22-1.98,.33-.51,.56-1.1,.75-1.77h-2.89Z"/><path d="M950.72,319.34v3.73h-2.15v-.77h-6.25v-1.96h6.25v-1h2.15Zm11.74,14.19h-2.15v-2.19h-9.71l1.89,.4c-.4,.42-.82,.84-1.24,1.21h8.14v1.63c-1.77,3.64-6.95,5.74-15.49,6.35l-1-1.82c2.75-.16,5.16-.47,7.19-.91-.7-.49-1.52-.98-2.4-1.49l1.38-1.33c1.38,.7,2.57,1.42,3.55,2.12,2.01-.7,3.48-1.61,4.41-2.68h-8.49c-1.03,.54-2.12,1.03-3.31,1.45l-1.33-1.63c2.5-.79,4.64-1.89,6.44-3.29h-5.76v2.12h-2.15v-3.9h20.04v3.97Zm-1.26-9.89v5.11h-17.24v-5.11h17.24Zm-12.11,1.7h-3.1v1.7h3.1v-1.7Zm4.95,0h-2.99v1.7h2.99v-1.7Zm2.22-6v.96h6.63v1.96h-6.63v.82h-2.15v-3.73h2.15Zm2.89,6h-3.15v1.7h3.15v-1.7Z"/><path d="M978.56,319.41v2.66h7.42v2.12h-7.42v3.01h10.45v2.15h-10.45v2.05c2.68,1.21,5.41,2.59,8.21,4.15l-1.26,1.89c-2.75-1.68-5.09-2.96-6.95-3.85v7.26h-2.24v-11.5h-8.19v-2.15h8.19v-7.79h2.24Z"/><path d="M1001.64,338.14h-2.15v-1.07h-2.52v1.56h-2.19v-17.57h6.86v17.08Zm-2.15-3.22v-11.71h-2.52v11.71h2.52Zm14.65-3.71h-8.87v5.58c0,1.03,.4,1.56,1.21,1.56h5.39c.47-.02,.82-.26,1-.72,.14-.35,.26-1.35,.37-3.03l2.08,.68c-.14,1.59-.33,2.75-.54,3.45-.33,1.12-1.07,1.7-2.22,1.75h-7c-1.63,0-2.45-.96-2.45-2.85v-17.33h11.01v10.92Zm-8.87-8.87v6.81h2.29v-6.81h-2.29Zm6.72,6.81v-6.81h-2.38v6.81h2.38Z"/><path d="M1032.09,335.6c.33,.3,.49,.7,.49,1.19s-.16,.89-.49,1.21c-.35,.3-.77,.47-1.24,.47s-.86-.16-1.19-.49c-.35-.33-.51-.72-.51-1.19,0-.49,.16-.89,.51-1.19,.33-.33,.72-.47,1.19-.47,.49,0,.91,.14,1.24,.47Zm.23-13.79l-.54,11.95h-1.84l-.54-11.95h2.92Z"/><path d="M476.06,422.53l3.24,12.97h.09l3.41-12.97h2.66l3.41,12.97h.09l3.24-12.97h2.87l-4.81,16.66h-2.71l-3.38-12.86h-.09l-3.38,12.86h-2.73l-4.78-16.66h2.87Z"/><path d="M506.68,428.81c.93,1.21,1.42,2.89,1.45,5.04h-9.15c.09,1.17,.4,2.08,.96,2.71,.56,.61,1.33,.93,2.31,.93,.86,0,1.56-.21,2.1-.61,.42-.33,.77-.86,1.1-1.56h2.47c-.28,1.12-.82,2.08-1.66,2.82-1.05,.91-2.38,1.38-3.99,1.38-1.77,0-3.2-.56-4.22-1.66-1.12-1.17-1.68-2.73-1.68-4.71,0-1.8,.51-3.29,1.59-4.5,1.03-1.24,2.45-1.84,4.22-1.84,1.96,0,3.48,.65,4.5,2.01Zm-6.65,.84c-.51,.54-.86,1.31-1,2.33h6.51c-.23-2.1-1.33-3.15-3.29-3.15-.93,0-1.66,.26-2.22,.82Z"/><path d="M513.45,422.21v16.98h-2.47v-16.98h2.47Z"/><path d="M526.07,427.85c.93,.75,1.54,1.87,1.77,3.36h-2.45c-.16-.82-.49-1.42-1-1.8-.51-.4-1.19-.58-2.03-.58-1.03,0-1.82,.37-2.4,1.14-.61,.75-.89,1.82-.89,3.17s.28,2.43,.86,3.2c.54,.75,1.33,1.14,2.4,1.14,1.84,0,2.87-.93,3.1-2.75h2.45c-.28,1.61-.91,2.82-1.84,3.62-.93,.77-2.19,1.17-3.73,1.17-1.84,0-3.27-.61-4.29-1.82-1-1.17-1.49-2.66-1.49-4.53s.49-3.31,1.47-4.48c1.05-1.26,2.5-1.89,4.36-1.89,1.54,0,2.78,.35,3.71,1.05Z"/><path d="M540.42,428.62c1.07,1.19,1.63,2.71,1.63,4.55s-.54,3.34-1.61,4.5c-1.12,1.21-2.59,1.84-4.41,1.84s-3.29-.63-4.41-1.84c-1.07-1.17-1.61-2.68-1.61-4.5s.54-3.36,1.63-4.55c1.1-1.21,2.57-1.82,4.39-1.82s3.29,.61,4.39,1.82Zm-7.05,1.56c-.56,.77-.82,1.77-.82,2.99s.26,2.19,.82,2.96c.63,.89,1.52,1.35,2.66,1.35s2.03-.47,2.68-1.35c.56-.79,.84-1.77,.84-2.96s-.28-2.22-.84-2.99c-.65-.91-1.54-1.35-2.68-1.35s-2.03,.44-2.66,1.35Z"/><path d="M554.47,428.83c.54-.75,1.12-1.28,1.73-1.59,.56-.3,1.24-.44,2.05-.44,1.24,0,2.26,.4,3.08,1.24,.79,.82,1.21,1.89,1.21,3.24v7.91h-2.47v-7.49c0-.98-.21-1.7-.63-2.15-.42-.47-1.12-.68-2.05-.68-.7,0-1.26,.26-1.73,.77-.47,.51-.7,1.24-.7,2.12v7.42h-2.47v-7.47c0-1.91-.84-2.85-2.47-2.85-.79,0-1.45,.3-1.91,.91-.51,.58-.75,1.31-.75,2.15v7.26h-2.47v-12.06h2.47v1.33c.98-1.12,2.1-1.66,3.31-1.66,1.77,0,3.06,.68,3.8,2.03Z"/><path d="M575.42,428.81c.93,1.21,1.42,2.89,1.45,5.04h-9.15c.09,1.17,.4,2.08,.96,2.71,.56,.61,1.33,.93,2.31,.93,.86,0,1.56-.21,2.1-.61,.42-.33,.77-.86,1.1-1.56h2.47c-.28,1.12-.82,2.08-1.66,2.82-1.05,.91-2.38,1.38-3.99,1.38-1.77,0-3.2-.56-4.22-1.66-1.12-1.17-1.68-2.73-1.68-4.71,0-1.8,.51-3.29,1.59-4.5,1.03-1.24,2.45-1.84,4.22-1.84,1.96,0,3.48,.65,4.5,2.01Zm-6.65,.84c-.51,.54-.86,1.31-1,2.33h6.51c-.23-2.1-1.33-3.15-3.29-3.15-.93,0-1.66,.26-2.22,.82Z"/><path d="M591.34,427.13h2.75v2.05h-2.75v7c0,.33,.07,.56,.21,.72,.14,.14,.35,.23,.65,.23h1.59v2.05h-1.98c-1.03,0-1.8-.28-2.26-.82-.47-.51-.68-1.24-.68-2.19v-7h-2.24v-2.05h2.24v-2.87l2.47-1.03v3.9Z"/><path d="M606.48,428.62c1.07,1.19,1.63,2.71,1.63,4.55s-.54,3.34-1.61,4.5c-1.12,1.21-2.59,1.84-4.41,1.84s-3.29-.63-4.41-1.84c-1.07-1.17-1.61-2.68-1.61-4.5s.54-3.36,1.63-4.55c1.1-1.21,2.57-1.82,4.39-1.82s3.29,.61,4.39,1.82Zm-7.05,1.56c-.56,.77-.82,1.77-.82,2.99s.26,2.19,.82,2.96c.63,.89,1.52,1.35,2.66,1.35s2.03-.47,2.68-1.35c.56-.79,.84-1.77,.84-2.96s-.28-2.22-.84-2.99c-.65-.91-1.54-1.35-2.68-1.35s-2.03,.44-2.66,1.35Z"/><path d="M622.84,427.13h2.75v2.05h-2.75v7c0,.33,.07,.56,.21,.72,.14,.14,.35,.23,.65,.23h1.59v2.05h-1.98c-1.03,0-1.8-.28-2.26-.82-.47-.51-.68-1.24-.68-2.19v-7h-2.24v-2.05h2.24v-2.87l2.47-1.03v3.9Z"/><path d="M630.51,422.21v6.63c.44-.7,1-1.24,1.68-1.56,.61-.33,1.28-.47,2.05-.47,1.45,0,2.54,.42,3.29,1.28,.7,.82,1.05,2.03,1.05,3.62v7.49h-2.47v-7.07c0-1.07-.23-1.87-.65-2.43-.47-.58-1.19-.86-2.12-.86-.84,0-1.52,.33-2.03,1-.54,.68-.79,1.54-.79,2.59v6.77h-2.47v-16.98h2.47Z"/><path d="M651.47,428.81c.93,1.21,1.42,2.89,1.45,5.04h-9.15c.09,1.17,.4,2.08,.96,2.71,.56,.61,1.33,.93,2.31,.93,.86,0,1.56-.21,2.1-.61,.42-.33,.77-.86,1.1-1.56h2.47c-.28,1.12-.82,2.08-1.66,2.82-1.05,.91-2.38,1.38-3.99,1.38-1.77,0-3.2-.56-4.22-1.66-1.12-1.17-1.68-2.73-1.68-4.71,0-1.8,.51-3.29,1.59-4.5,1.03-1.24,2.45-1.84,4.22-1.84,1.96,0,3.48,.65,4.5,2.01Zm-6.65,.84c-.51,.54-.86,1.31-1,2.33h6.51c-.23-2.1-1.33-3.15-3.29-3.15-.93,0-1.66,.26-2.22,.82Z"/><path d="M665.17,427.13l2.54,9.12,2.47-9.12h2.29l2.47,9.12,2.54-9.12h2.73l-4.08,12.06h-2.29l-2.52-9.03-2.52,9.03h-2.29l-4.08-12.06h2.73Z"/><path d="M691.81,428.81c.93,1.21,1.42,2.89,1.45,5.04h-9.15c.09,1.17,.4,2.08,.96,2.71,.56,.61,1.33,.93,2.31,.93,.86,0,1.56-.21,2.1-.61,.42-.33,.77-.86,1.1-1.56h2.47c-.28,1.12-.82,2.08-1.66,2.82-1.05,.91-2.38,1.38-3.99,1.38-1.77,0-3.2-.56-4.22-1.66-1.12-1.17-1.68-2.73-1.68-4.71,0-1.8,.51-3.29,1.59-4.5,1.03-1.24,2.45-1.84,4.22-1.84,1.96,0,3.48,.65,4.5,2.01Zm-6.65,.84c-.51,.54-.86,1.31-1,2.33h6.51c-.23-2.1-1.33-3.15-3.29-3.15-.93,0-1.66,.26-2.22,.82Z"/><path d="M698.3,422.21v6.72c.98-1.42,2.19-2.12,3.69-2.12,1.73,0,3.08,.63,4.08,1.89,.91,1.17,1.38,2.64,1.38,4.41s-.47,3.36-1.4,4.53c-1.03,1.26-2.4,1.89-4.18,1.89-1.66,0-2.89-.61-3.73-1.77v1.45h-2.31v-16.98h2.47Zm.89,7.7c-.65,.79-.96,1.84-.96,3.15v.21c0,1.21,.26,2.19,.77,2.96,.58,.84,1.42,1.28,2.5,1.28,1.21,0,2.1-.44,2.68-1.31,.47-.75,.72-1.77,.72-3.1s-.26-2.36-.77-3.06c-.58-.84-1.49-1.24-2.71-1.24-.93,0-1.68,.35-2.24,1.1Z"/><path d="M719.88,430.61h-2.4c-.19-.65-.47-1.1-.86-1.35-.42-.28-1.07-.42-1.91-.42-.75,0-1.31,.09-1.68,.33-.44,.23-.65,.61-.65,1.07,0,.42,.33,.77,.98,1.07,.42,.19,1.21,.42,2.43,.72,1.38,.33,2.4,.72,3.06,1.14,.96,.61,1.45,1.45,1.45,2.52,0,2.54-1.8,3.83-5.37,3.83-3.31,0-5.09-1.42-5.37-4.22h2.43c.14,.82,.44,1.4,.86,1.73,.42,.3,1.07,.47,2.01,.47,1.91,0,2.89-.56,2.89-1.63,0-.58-.37-1.05-1.07-1.38-.37-.19-1.19-.42-2.43-.7-1.42-.33-2.43-.68-2.99-1.05-.93-.58-1.4-1.4-1.4-2.43,0-1.1,.44-1.96,1.35-2.57,.91-.63,2.1-.93,3.55-.93,3.13,0,4.85,1.26,5.13,3.8Z"/><path d="M725.83,422.77c.33,.3,.49,.7,.49,1.19s-.19,.89-.51,1.21c-.33,.3-.75,.47-1.21,.47-.49,0-.89-.16-1.21-.47-.33-.33-.49-.75-.49-1.21s.16-.89,.49-1.19c.33-.33,.72-.47,1.21-.47s.91,.14,1.24,.47Zm0,4.36v12.06h-2.47v-12.06h2.47Z"/><path d="M733.3,427.13h2.75v2.05h-2.75v7c0,.33,.07,.56,.21,.72,.14,.14,.35,.23,.65,.23h1.59v2.05h-1.98c-1.03,0-1.8-.28-2.26-.82-.47-.51-.68-1.24-.68-2.19v-7h-2.24v-2.05h2.24v-2.87l2.47-1.03v3.9Z"/><path d="M748.12,428.81c.93,1.21,1.42,2.89,1.45,5.04h-9.15c.09,1.17,.4,2.08,.96,2.71,.56,.61,1.33,.93,2.31,.93,.86,0,1.56-.21,2.1-.61,.42-.33,.77-.86,1.1-1.56h2.47c-.28,1.12-.82,2.08-1.66,2.82-1.05,.91-2.38,1.38-3.99,1.38-1.77,0-3.2-.56-4.22-1.66-1.12-1.17-1.68-2.73-1.68-4.71,0-1.8,.51-3.29,1.59-4.5,1.03-1.24,2.45-1.84,4.22-1.84,1.96,0,3.48,.65,4.5,2.01Zm-6.65,.84c-.51,.54-.86,1.31-1,2.33h6.51c-.23-2.1-1.33-3.15-3.29-3.15-.93,0-1.66,.26-2.22,.82Z"/><path d="M770.31,428.62c1.07,1.19,1.63,2.71,1.63,4.55s-.54,3.34-1.61,4.5c-1.12,1.21-2.59,1.84-4.41,1.84s-3.29-.63-4.41-1.84c-1.07-1.17-1.61-2.68-1.61-4.5s.54-3.36,1.63-4.55c1.1-1.21,2.57-1.82,4.39-1.82s3.29,.61,4.39,1.82Zm-7.05,1.56c-.56,.77-.82,1.77-.82,2.99s.26,2.19,.82,2.96c.63,.89,1.52,1.35,2.66,1.35s2.03-.47,2.68-1.35c.56-.79,.84-1.77,.84-2.96s-.28-2.22-.84-2.99c-.65-.91-1.54-1.35-2.68-1.35s-2.03,.44-2.66,1.35Z"/><path d="M782.05,422.53v2.1h-2.17c-.4,0-.7,.09-.89,.3-.19,.19-.28,.51-.28,.96v1.24h3.17v2.03h-3.17v10.03h-2.45v-10.03h-2.78v-2.03h2.78v-1.31c0-1.03,.28-1.84,.84-2.4,.56-.61,1.35-.89,2.43-.89h2.52Z"/><path d="M805.87,424.68c1.4,1.56,2.1,3.64,2.1,6.21s-.7,4.6-2.1,6.18c-1.47,1.63-3.48,2.45-6,2.45s-4.55-.84-6-2.47c-1.4-1.59-2.08-3.64-2.08-6.16s.68-4.6,2.08-6.18c1.45-1.68,3.45-2.5,6-2.5s4.53,.82,6,2.47Zm-10.13,1.56c-.93,1.14-1.4,2.68-1.4,4.64s.47,3.48,1.4,4.62c.98,1.17,2.36,1.77,4.13,1.77s3.15-.58,4.11-1.73c.93-1.12,1.42-2.68,1.42-4.67s-.49-3.57-1.42-4.71c-.96-1.17-2.33-1.73-4.11-1.73s-3.15,.58-4.13,1.8Z"/><path d="M813.57,422.53l8.52,12.39h.09v-12.39h2.54v16.66h-2.47l-8.61-12.53h-.09v12.53h-2.54v-16.66h2.57Z"/><path d="M840.45,422.53v2.17h-9.43v4.85h8.87v2.17h-8.87v5.3h9.82v2.17h-12.37v-16.66h11.97Z"/><path d="M862.53,423.44c1.17,.86,1.82,2.19,1.98,4.01h-2.52c-.23-1.07-.65-1.87-1.31-2.33-.65-.49-1.59-.72-2.85-.72-1.1,0-1.94,.16-2.52,.49-.72,.37-1.07,.98-1.07,1.82,0,.75,.4,1.33,1.24,1.77,.37,.21,1.33,.56,2.89,1.03,2.24,.7,3.71,1.24,4.36,1.63,1.42,.86,2.15,2.05,2.15,3.59s-.58,2.66-1.75,3.52c-1.17,.84-2.8,1.26-4.9,1.26s-3.62-.42-4.76-1.21c-1.38-.98-2.12-2.52-2.26-4.62h2.52c.19,1.31,.65,2.26,1.4,2.82,.68,.51,1.7,.77,3.1,.77,1.26,0,2.26-.23,3.01-.65s1.12-1,1.12-1.75c0-.93-.54-1.66-1.59-2.19-.37-.19-1.47-.56-3.31-1.12-2.05-.65-3.31-1.1-3.83-1.38-1.28-.77-1.91-1.89-1.91-3.34s.61-2.61,1.84-3.45c1.17-.79,2.64-1.19,4.41-1.19,1.94,0,3.45,.4,4.55,1.24Z"/><path d="M870.25,422.53v7.02h8.73v-7.02h2.54v16.66h-2.54v-7.47h-8.73v7.47h-2.54v-16.66h2.54Z"/><path d="M897.22,422.53v2.17h-9.43v4.85h8.87v2.17h-8.87v5.3h9.82v2.17h-12.37v-16.66h11.97Z"/><path d="M912.65,422.53v2.17h-9.43v4.85h8.87v2.17h-8.87v5.3h9.82v2.17h-12.37v-16.66h11.97Z"/><path d="M923.01,422.53c3.97,0,5.95,1.68,5.95,5.06s-2.01,5.11-6,5.11h-4.32v6.49h-2.54v-16.66h6.91Zm-4.36,8h4.15c1.26,0,2.17-.23,2.75-.7,.56-.47,.86-1.21,.86-2.24s-.3-1.77-.89-2.19c-.58-.47-1.49-.7-2.73-.7h-4.15v5.83Z"/><path d="M934.86,436.58c.37,.51,.56,1.14,.56,1.94,0,1.19-.35,2.22-1.03,3.1-.7,.89-1.63,1.49-2.8,1.82v-1.45c.61-.23,1.14-.58,1.56-1.1,.4-.54,.61-1.07,.61-1.63-.14,.05-.33,.07-.58,.07-.47,0-.89-.16-1.21-.49-.33-.33-.49-.75-.49-1.24,0-.54,.16-.96,.54-1.28,.33-.33,.77-.47,1.33-.47,.61,0,1.1,.23,1.52,.72Z"/><path d="M959.2,422.53v2.17h-5.55v14.49h-2.52v-14.49h-5.58v-2.17h13.65Z"/><path d="M963.03,422.53l3.24,12.97h.09l3.41-12.97h2.66l3.41,12.97h.09l3.24-12.97h2.87l-4.81,16.66h-2.71l-3.38-12.86h-.09l-3.38,12.86h-2.73l-4.78-16.66h2.87Z"/><path d="M997.63,424.68c1.4,1.56,2.1,3.64,2.1,6.21s-.7,4.6-2.1,6.18c-1.47,1.63-3.48,2.45-6,2.45s-4.55-.84-6-2.47c-1.4-1.59-2.08-3.64-2.08-6.16s.68-4.6,2.08-6.18c1.45-1.68,3.45-2.5,6-2.5s4.53,.82,6,2.47Zm-10.13,1.56c-.93,1.14-1.4,2.68-1.4,4.64s.47,3.48,1.4,4.62c.98,1.17,2.36,1.77,4.13,1.77s3.15-.58,4.11-1.73c.93-1.12,1.42-2.68,1.42-4.67s-.49-3.57-1.42-4.71c-.96-1.17-2.33-1.73-4.11-1.73s-3.15,.58-4.13,1.8Z"/><path d="M1021.39,423.44c1.17,.86,1.82,2.19,1.98,4.01h-2.52c-.23-1.07-.65-1.87-1.31-2.33-.65-.49-1.59-.72-2.85-.72-1.1,0-1.94,.16-2.52,.49-.72,.37-1.07,.98-1.07,1.82,0,.75,.4,1.33,1.24,1.77,.37,.21,1.33,.56,2.89,1.03,2.24,.7,3.71,1.24,4.36,1.63,1.42,.86,2.15,2.05,2.15,3.59s-.58,2.66-1.75,3.52c-1.17,.84-2.8,1.26-4.9,1.26s-3.62-.42-4.76-1.21c-1.38-.98-2.12-2.52-2.26-4.62h2.52c.19,1.31,.65,2.26,1.4,2.82,.68,.51,1.7,.77,3.1,.77,1.26,0,2.26-.23,3.01-.65s1.12-1,1.12-1.75c0-.93-.54-1.66-1.59-2.19-.37-.19-1.47-.56-3.31-1.12-2.05-.65-3.31-1.1-3.83-1.38-1.28-.77-1.91-1.89-1.91-3.34s.61-2.61,1.84-3.45c1.17-.79,2.64-1.19,4.41-1.19,1.94,0,3.45,.4,4.55,1.24Z"/><path d="M1029.09,422.53v14.49h9.17v2.17h-11.69v-16.66h2.52Z"/><path d="M1052.79,422.53v2.17h-9.43v4.85h8.87v2.17h-8.87v5.3h9.82v2.17h-12.37v-16.66h11.97Z"/><path d="M1068.22,422.53v2.17h-9.43v4.85h8.87v2.17h-8.87v5.3h9.82v2.17h-12.37v-16.66h11.97Z"/><path d="M1078.58,422.53c3.97,0,5.95,1.68,5.95,5.06s-2.01,5.11-6,5.11h-4.32v6.49h-2.54v-16.66h6.91Zm-4.36,8h4.15c1.26,0,2.17-.23,2.75-.7,.56-.47,.86-1.21,.86-2.24s-.3-1.77-.89-2.19c-.58-.47-1.49-.7-2.73-.7h-4.15v5.83Z"/><path d="M1090.13,436.34c.33,.33,.51,.75,.51,1.26,0,.47-.19,.89-.51,1.24-.35,.3-.77,.47-1.24,.47-.51,0-.91-.16-1.21-.47-.35-.35-.51-.77-.51-1.24,0-.51,.16-.93,.51-1.26,.3-.33,.7-.49,1.21-.49,.47,0,.89,.16,1.24,.49Z"/><path d="M592.49,456.11l6.42,16.66h-2.73l-1.56-4.29h-7.16l-1.56,4.29h-2.71l6.42-16.66h2.89Zm1.35,10.27l-2.75-7.54h-.09l-2.78,7.54h5.62Z"/><path d="M610.41,464.18h-2.4c-.19-.65-.47-1.1-.86-1.35-.42-.28-1.07-.42-1.91-.42-.75,0-1.31,.09-1.68,.33-.44,.23-.65,.61-.65,1.07,0,.42,.33,.77,.98,1.07,.42,.19,1.21,.42,2.43,.72,1.38,.33,2.4,.72,3.06,1.14,.96,.61,1.45,1.45,1.45,2.52,0,2.54-1.8,3.83-5.37,3.83-3.31,0-5.09-1.42-5.37-4.22h2.43c.14,.82,.44,1.4,.86,1.73,.42,.3,1.07,.47,2.01,.47,1.91,0,2.89-.56,2.89-1.63,0-.58-.37-1.05-1.07-1.38-.37-.19-1.19-.42-2.43-.7-1.42-.33-2.43-.68-2.99-1.05-.93-.58-1.4-1.4-1.4-2.43,0-1.1,.44-1.96,1.35-2.57,.91-.63,2.1-.93,3.55-.93,3.13,0,4.85,1.26,5.13,3.8Z"/><path d="M616.36,456.34c.33,.3,.49,.7,.49,1.19s-.19,.89-.51,1.21c-.33,.3-.75,.47-1.21,.47-.49,0-.89-.16-1.21-.47-.33-.33-.49-.75-.49-1.21s.16-.89,.49-1.19c.33-.33,.72-.47,1.21-.47s.91,.14,1.24,.47Zm0,4.36v12.06h-2.47v-12.06h2.47Z"/><path d="M631.32,455.78v16.98h-2.31v-1.45c-.84,1.17-2.1,1.77-3.73,1.77-1.77,0-3.17-.63-4.18-1.89-.93-1.17-1.4-2.68-1.4-4.53s.44-3.24,1.38-4.41c.98-1.26,2.36-1.89,4.08-1.89,1.47,0,2.71,.7,3.69,2.12v-6.72h2.47Zm-8.31,7.84c-.51,.7-.77,1.73-.77,3.06s.23,2.36,.72,3.1c.56,.86,1.47,1.31,2.68,1.31,1.07,0,1.89-.44,2.5-1.28,.51-.77,.77-1.75,.77-2.96v-.21c0-1.31-.33-2.36-.93-3.15-.61-.75-1.35-1.1-2.26-1.1-1.21,0-2.12,.4-2.71,1.24Z"/><path d="M644.2,462.38c.93,1.21,1.42,2.89,1.45,5.04h-9.15c.09,1.17,.4,2.08,.96,2.71,.56,.61,1.33,.93,2.31,.93,.86,0,1.56-.21,2.1-.61,.42-.33,.77-.86,1.1-1.56h2.47c-.28,1.12-.82,2.08-1.66,2.82-1.05,.91-2.38,1.38-3.99,1.38-1.77,0-3.2-.56-4.22-1.66-1.12-1.17-1.68-2.73-1.68-4.71,0-1.8,.51-3.29,1.59-4.5,1.03-1.24,2.45-1.84,4.22-1.84,1.96,0,3.48,.65,4.5,2.01Zm-6.65,.84c-.51,.54-.86,1.31-1,2.33h6.51c-.23-2.1-1.33-3.15-3.29-3.15-.93,0-1.66,.26-2.22,.82Z"/><path d="M663.73,456.11v2.1h-2.17c-.4,0-.7,.09-.89,.3-.19,.19-.28,.51-.28,.96v1.24h3.17v2.03h-3.17v10.03h-2.45v-10.03h-2.78v-2.03h2.78v-1.31c0-1.03,.28-1.84,.84-2.4,.56-.61,1.35-.89,2.43-.89h2.52Z"/><path d="M672.88,460.68v2.47c-.61-.19-1.19-.26-1.75-.26-.75,0-1.42,.3-2.01,.91-.63,.65-.93,1.52-.93,2.57v6.39h-2.47v-12.06h2.47v1.82c.3-.65,.7-1.14,1.17-1.47,.56-.47,1.21-.68,1.96-.68,.61,0,1.14,.09,1.56,.3Z"/><path d="M684.8,462.2c1.07,1.19,1.63,2.71,1.63,4.55s-.54,3.34-1.61,4.5c-1.12,1.21-2.59,1.84-4.41,1.84s-3.29-.63-4.41-1.84c-1.07-1.17-1.61-2.68-1.61-4.5s.54-3.36,1.63-4.55c1.1-1.21,2.57-1.82,4.39-1.82s3.29,.61,4.39,1.82Zm-7.05,1.56c-.56,.77-.82,1.77-.82,2.99s.26,2.19,.82,2.96c.63,.89,1.52,1.35,2.66,1.35s2.03-.47,2.68-1.35c.56-.79,.84-1.77,.84-2.96s-.28-2.22-.84-2.99c-.65-.91-1.54-1.35-2.68-1.35s-2.03,.44-2.66,1.35Z"/><path d="M698.85,462.41c.54-.75,1.12-1.28,1.73-1.59,.56-.3,1.24-.44,2.05-.44,1.24,0,2.26,.4,3.08,1.24,.79,.82,1.21,1.89,1.21,3.24v7.91h-2.47v-7.49c0-.98-.21-1.7-.63-2.15-.42-.47-1.12-.68-2.05-.68-.7,0-1.26,.26-1.73,.77-.47,.51-.7,1.24-.7,2.12v7.42h-2.47v-7.47c0-1.91-.84-2.85-2.47-2.85-.79,0-1.45,.3-1.91,.91-.51,.58-.75,1.31-.75,2.15v7.26h-2.47v-12.06h2.47v1.33c.98-1.12,2.1-1.66,3.31-1.66,1.77,0,3.06,.68,3.8,2.03Z"/><path d="M728.37,462.2c1.07,1.19,1.63,2.71,1.63,4.55s-.54,3.34-1.61,4.5c-1.12,1.21-2.59,1.84-4.41,1.84s-3.29-.63-4.41-1.84c-1.07-1.17-1.61-2.68-1.61-4.5s.54-3.36,1.63-4.55c1.1-1.21,2.57-1.82,4.39-1.82s3.29,.61,4.39,1.82Zm-7.05,1.56c-.56,.77-.82,1.77-.82,2.99s.26,2.19,.82,2.96c.63,.89,1.52,1.35,2.66,1.35s2.03-.47,2.68-1.35c.56-.79,.84-1.77,.84-2.96s-.28-2.22-.84-2.99c-.65-.91-1.54-1.35-2.68-1.35s-2.03,.44-2.66,1.35Z"/><path d="M735.3,460.7v7.35c0,1.03,.21,1.77,.65,2.24,.42,.47,1.12,.72,2.08,.72,.65,0,1.24-.28,1.8-.79,.56-.54,.96-1.26,1.17-2.15v-7.37h2.47v12.06h-2.47v-1.63c-1.03,1.31-2.29,1.96-3.8,1.96-2.92,0-4.36-1.63-4.36-4.88v-7.51h2.47Z"/><path d="M753.92,460.68v2.47c-.61-.19-1.19-.26-1.75-.26-.75,0-1.42,.3-2.01,.91-.63,.65-.93,1.52-.93,2.57v6.39h-2.47v-12.06h2.47v1.82c.3-.65,.7-1.14,1.17-1.47,.56-.47,1.21-.68,1.96-.68,.61,0,1.14,.09,1.56,.3Z"/><path d="M770.44,456.11c2.68,0,4.71,.75,6.11,2.26,1.31,1.4,1.96,3.43,1.96,6.07s-.68,4.64-2.01,6.09c-1.4,1.49-3.43,2.24-6.11,2.24h-6.02v-16.66h6.07Zm-3.52,14.49h3.01c2.1,0,3.66-.51,4.64-1.52,.96-1,1.45-2.54,1.45-4.64s-.49-3.69-1.42-4.67c-.98-1-2.52-1.49-4.62-1.49h-3.06v12.32Z"/><path d="M788.94,456.11c1.68,0,3.03,.37,4.01,1.14,1.03,.84,1.54,2.03,1.54,3.62,0,.89-.23,1.66-.7,2.33-.54,.75-1.26,1.24-2.17,1.47v.05c1.49,.33,2.31,1.31,2.5,2.94l.28,2.66c.09,1.03,.42,1.84,.98,2.45h-2.75c-.4-.51-.63-1.26-.72-2.19l-.21-2.08c-.09-.93-.4-1.59-.89-2.01-.51-.42-1.24-.61-2.19-.61h-4.5v6.88h-2.54v-16.66h7.37Zm-4.83,7.61h4.5c1.12,0,1.96-.26,2.52-.72,.54-.47,.82-1.14,.82-2.03,0-.93-.28-1.61-.79-2.03-.56-.44-1.4-.65-2.57-.65h-4.48v5.44Z"/><path d="M810.15,456.11v2.17h-9.43v4.85h8.87v2.17h-8.87v5.3h9.82v2.17h-12.37v-16.66h11.97Z"/><path d="M821.28,456.11l6.42,16.66h-2.73l-1.56-4.29h-7.16l-1.56,4.29h-2.71l6.42-16.66h2.89Zm1.35,10.27l-2.75-7.54h-.09l-2.78,7.54h5.62Z"/><path d="M832.81,456.11l5.81,13.35h.07l5.79-13.35h3.01v16.66h-2.54v-11.9h-.09l-5.11,11.9h-2.19l-5.11-11.9h-.09v11.9h-2.54v-16.66h3.01Z"/><path d="M863.26,457.3c1.21,.98,1.96,2.33,2.22,4.01h-2.47c-.28-1.12-.82-1.96-1.61-2.5-.79-.54-1.77-.79-2.99-.79-1.8,0-3.15,.61-4.06,1.84-.86,1.12-1.28,2.66-1.28,4.6s.42,3.55,1.26,4.64c.89,1.17,2.26,1.75,4.13,1.75,1.21,0,2.24-.3,3.03-.91,.84-.65,1.42-1.63,1.75-2.94h2.47c-.37,1.94-1.24,3.45-2.61,4.55-1.28,1.03-2.82,1.54-4.62,1.54-2.73,0-4.78-.89-6.16-2.61-1.21-1.49-1.8-3.5-1.8-6.02s.61-4.48,1.87-6.04c1.4-1.77,3.41-2.64,6.07-2.64,1.94,0,3.55,.49,4.81,1.52Z"/><path d="M876.42,456.11l6.42,16.66h-2.73l-1.56-4.29h-7.16l-1.56,4.29h-2.71l6.42-16.66h2.89Zm1.35,10.27l-2.75-7.54h-.09l-2.78,7.54h5.62Z"/><path d="M892.31,456.11c1.68,0,3.03,.37,4.01,1.14,1.03,.84,1.54,2.03,1.54,3.62,0,.89-.23,1.66-.7,2.33-.54,.75-1.26,1.24-2.17,1.47v.05c1.49,.33,2.31,1.31,2.5,2.94l.28,2.66c.09,1.03,.42,1.84,.98,2.45h-2.75c-.4-.51-.63-1.26-.72-2.19l-.21-2.08c-.09-.93-.4-1.59-.89-2.01-.51-.42-1.24-.61-2.19-.61h-4.5v6.88h-2.54v-16.66h7.37Zm-4.83,7.61h4.5c1.12,0,1.96-.26,2.52-.72,.54-.47,.82-1.14,.82-2.03,0-.93-.28-1.61-.79-2.03-.56-.44-1.4-.65-2.57-.65h-4.48v5.44Z"/><path d="M907.62,456.11c2.68,0,4.71,.75,6.11,2.26,1.31,1.4,1.96,3.43,1.96,6.07s-.68,4.64-2.01,6.09c-1.4,1.49-3.43,2.24-6.11,2.24h-6.02v-16.66h6.07Zm-3.52,14.49h3.01c2.1,0,3.66-.51,4.64-1.52,.96-1,1.45-2.54,1.45-4.64s-.49-3.69-1.42-4.67c-.98-1-2.52-1.49-4.62-1.49h-3.06v12.32Z"/><path d="M936.11,461.71c.72,.77,1.1,1.89,1.1,3.36v7.7h-2.29v-1.7c-.47,.61-1.05,1.1-1.75,1.45-.79,.37-1.73,.58-2.8,.58-1.26,0-2.24-.33-2.94-.96-.77-.63-1.14-1.45-1.14-2.45,0-1.35,.54-2.4,1.61-3.13,.98-.7,2.38-1.05,4.15-1.1l2.71-.07v-.49c0-1.68-.91-2.52-2.73-2.52-.77,0-1.4,.14-1.87,.42-.56,.33-.91,.82-1.05,1.49l-2.45-.21c.26-1.31,.91-2.29,1.94-2.89,.89-.56,2.1-.82,3.59-.82,1.77,0,3.08,.44,3.92,1.33Zm-3.9,5.55c-2.26,.05-3.38,.84-3.38,2.33,0,.47,.19,.84,.58,1.14,.37,.3,.89,.47,1.52,.47,1.05,0,1.94-.33,2.68-.96,.75-.63,1.14-1.42,1.14-2.36v-.7l-2.54,.07Z"/><path d="M947.66,460.68v2.47c-.61-.19-1.19-.26-1.75-.26-.75,0-1.42,.3-2.01,.91-.63,.65-.93,1.52-.93,2.57v6.39h-2.47v-12.06h2.47v1.82c.3-.65,.7-1.14,1.17-1.47,.56-.47,1.21-.68,1.96-.68,.61,0,1.14,.09,1.56,.3Z"/><path d="M959.26,462.38c.93,1.21,1.42,2.89,1.45,5.04h-9.15c.09,1.17,.4,2.08,.96,2.71,.56,.61,1.33,.93,2.31,.93,.86,0,1.56-.21,2.1-.61,.42-.33,.77-.86,1.1-1.56h2.47c-.28,1.12-.82,2.08-1.66,2.82-1.05,.91-2.38,1.38-3.99,1.38-1.77,0-3.2-.56-4.22-1.66-1.12-1.17-1.68-2.73-1.68-4.71,0-1.8,.51-3.29,1.59-4.5,1.03-1.24,2.45-1.84,4.22-1.84,1.96,0,3.48,.65,4.5,2.01Zm-6.65,.84c-.51,.54-.86,1.31-1,2.33h6.51c-.23-2.1-1.33-3.15-3.29-3.15-.93,0-1.66,.26-2.22,.82Z"/><path d="M972.63,461.71c.72,.77,1.1,1.89,1.1,3.36v7.7h-2.29v-1.7c-.47,.61-1.05,1.1-1.75,1.45-.79,.37-1.73,.58-2.8,.58-1.26,0-2.24-.33-2.94-.96-.77-.63-1.14-1.45-1.14-2.45,0-1.35,.54-2.4,1.61-3.13,.98-.7,2.38-1.05,4.15-1.1l2.71-.07v-.49c0-1.68-.91-2.52-2.73-2.52-.77,0-1.4,.14-1.87,.42-.56,.33-.91,.82-1.05,1.49l-2.45-.21c.26-1.31,.91-2.29,1.94-2.89,.89-.56,2.1-.82,3.59-.82,1.77,0,3.08,.44,3.92,1.33Zm-3.9,5.55c-2.26,.05-3.38,.84-3.38,2.33,0,.47,.19,.84,.58,1.14,.37,.3,.89,.47,1.52,.47,1.05,0,1.94-.33,2.68-.96,.75-.63,1.14-1.42,1.14-2.36v-.7l-2.54,.07Z"/><path d="M980.33,470.15c.37,.51,.56,1.14,.56,1.94,0,1.19-.35,2.22-1.03,3.1-.7,.89-1.63,1.49-2.8,1.82v-1.45c.61-.23,1.14-.58,1.56-1.1,.4-.54,.61-1.07,.61-1.63-.14,.05-.33,.07-.58,.07-.47,0-.89-.16-1.21-.49s-.49-.75-.49-1.24c0-.54,.16-.96,.54-1.28,.33-.33,.77-.47,1.33-.47,.61,0,1.1,.23,1.52,.72Z"/><path d="M652.17,489.36v6.63c.44-.7,1-1.24,1.68-1.56,.61-.33,1.28-.47,2.05-.47,1.45,0,2.54,.42,3.29,1.28,.7,.82,1.05,2.03,1.05,3.62v7.49h-2.47v-7.07c0-1.07-.23-1.87-.65-2.43-.47-.58-1.19-.86-2.12-.86-.84,0-1.52,.33-2.03,1-.54,.68-.79,1.54-.79,2.59v6.77h-2.47v-16.98h2.47Z"/><path d="M673.12,495.96c.93,1.21,1.42,2.89,1.45,5.04h-9.15c.09,1.17,.4,2.08,.96,2.71,.56,.61,1.33,.93,2.31,.93,.86,0,1.56-.21,2.1-.61,.42-.33,.77-.86,1.1-1.56h2.47c-.28,1.12-.82,2.08-1.66,2.82-1.05,.91-2.38,1.38-3.99,1.38-1.77,0-3.2-.56-4.22-1.66-1.12-1.17-1.68-2.73-1.68-4.71,0-1.8,.51-3.29,1.59-4.5,1.03-1.24,2.45-1.84,4.22-1.84,1.96,0,3.48,.65,4.5,2.01Zm-6.65,.84c-.51,.54-.86,1.31-1,2.33h6.51c-.23-2.1-1.33-3.15-3.29-3.15-.93,0-1.66,.26-2.22,.82Z"/><path d="M684.3,494.26v2.47c-.61-.19-1.19-.26-1.75-.26-.75,0-1.42,.3-2.01,.91-.63,.65-.93,1.52-.93,2.57v6.39h-2.47v-12.06h2.47v1.82c.3-.65,.7-1.14,1.17-1.47,.56-.47,1.21-.68,1.96-.68,.61,0,1.14,.09,1.56,.3Z"/><path d="M695.9,495.96c.93,1.21,1.42,2.89,1.45,5.04h-9.15c.09,1.17,.4,2.08,.96,2.71,.56,.61,1.33,.93,2.31,.93,.86,0,1.56-.21,2.1-.61,.42-.33,.77-.86,1.1-1.56h2.47c-.28,1.12-.82,2.08-1.66,2.82-1.05,.91-2.38,1.38-3.99,1.38-1.77,0-3.2-.56-4.22-1.66-1.12-1.17-1.68-2.73-1.68-4.71,0-1.8,.51-3.29,1.59-4.5,1.03-1.24,2.45-1.84,4.22-1.84,1.96,0,3.48,.65,4.5,2.01Zm-6.65,.84c-.51,.54-.86,1.31-1,2.33h6.51c-.23-2.1-1.33-3.15-3.29-3.15-.93,0-1.66,.26-2.22,.82Z"/><path d="M703.64,487.56c.4,.49,.61,1.14,.61,1.94,0,1.17-.35,2.22-1.05,3.1-.7,.89-1.63,1.47-2.8,1.8v-1.45c.63-.21,1.14-.58,1.56-1.1,.42-.54,.61-1.07,.61-1.63-.12,.05-.3,.09-.56,.09-.47,0-.86-.19-1.19-.51-.35-.33-.51-.72-.51-1.24s.16-.93,.49-1.26c.35-.33,.79-.49,1.35-.49,.61,0,1.12,.23,1.49,.75Z"/><path d="M718.51,497.75h-2.4c-.19-.65-.47-1.1-.86-1.35-.42-.28-1.07-.42-1.91-.42-.75,0-1.31,.09-1.68,.33-.44,.23-.65,.61-.65,1.07,0,.42,.33,.77,.98,1.07,.42,.19,1.21,.42,2.43,.72,1.38,.33,2.4,.72,3.06,1.14,.96,.61,1.45,1.45,1.45,2.52,0,2.54-1.8,3.83-5.37,3.83-3.31,0-5.09-1.42-5.37-4.22h2.43c.14,.82,.44,1.4,.86,1.73,.42,.3,1.07,.47,2.01,.47,1.91,0,2.89-.56,2.89-1.63,0-.58-.37-1.05-1.07-1.38-.37-.19-1.19-.42-2.43-.7-1.42-.33-2.43-.68-2.99-1.05-.93-.58-1.4-1.4-1.4-2.43,0-1.1,.44-1.96,1.35-2.57,.91-.63,2.1-.93,3.55-.93,3.13,0,4.85,1.26,5.13,3.8Z"/><path d="M739.3,495.98c.54-.75,1.12-1.28,1.73-1.59,.56-.3,1.24-.44,2.05-.44,1.24,0,2.26,.4,3.08,1.24,.79,.82,1.21,1.89,1.21,3.24v7.91h-2.47v-7.49c0-.98-.21-1.7-.63-2.15-.42-.47-1.12-.68-2.05-.68-.7,0-1.26,.26-1.73,.77-.47,.51-.7,1.24-.7,2.12v7.42h-2.47v-7.47c0-1.91-.84-2.85-2.47-2.85-.79,0-1.45,.3-1.91,.91-.51,.58-.75,1.31-.75,2.15v7.26h-2.47v-12.06h2.47v1.33c.98-1.12,2.1-1.66,3.31-1.66,1.77,0,3.06,.68,3.8,2.03Z"/><path d="M760.58,495.77c1.07,1.19,1.63,2.71,1.63,4.55s-.54,3.34-1.61,4.5c-1.12,1.21-2.59,1.84-4.41,1.84s-3.29-.63-4.41-1.84c-1.07-1.17-1.61-2.68-1.61-4.5s.54-3.36,1.63-4.55c1.1-1.21,2.57-1.82,4.39-1.82s3.29,.61,4.39,1.82Zm-7.05,1.56c-.56,.77-.82,1.77-.82,2.99s.26,2.19,.82,2.96c.63,.89,1.52,1.35,2.66,1.35s2.03-.47,2.68-1.35c.56-.79,.84-1.77,.84-2.96s-.28-2.22-.84-2.99c-.65-.91-1.54-1.35-2.68-1.35s-2.03,.44-2.66,1.35Z"/><path d="M772.2,494.26v2.47c-.61-.19-1.19-.26-1.75-.26-.75,0-1.42,.3-2.01,.91-.63,.65-.93,1.52-.93,2.57v6.39h-2.47v-12.06h2.47v1.82c.3-.65,.7-1.14,1.17-1.47,.56-.47,1.21-.68,1.96-.68,.61,0,1.14,.09,1.56,.3Z"/><path d="M783.8,495.96c.93,1.21,1.42,2.89,1.45,5.04h-9.15c.09,1.17,.4,2.08,.96,2.71,.56,.61,1.33,.93,2.31,.93,.86,0,1.56-.21,2.1-.61,.42-.33,.77-.86,1.1-1.56h2.47c-.28,1.12-.82,2.08-1.66,2.82-1.05,.91-2.38,1.38-3.99,1.38-1.77,0-3.2-.56-4.22-1.66-1.12-1.17-1.68-2.73-1.68-4.71,0-1.8,.51-3.29,1.59-4.5,1.03-1.24,2.45-1.84,4.22-1.84,1.96,0,3.48,.65,4.5,2.01Zm-6.65,.84c-.51,.54-.86,1.31-1,2.33h6.51c-.23-2.1-1.33-3.15-3.29-3.15-.93,0-1.66,.26-2.22,.82Z"/><path d="M799.71,494.28h2.75v2.05h-2.75v7c0,.33,.07,.56,.21,.72,.14,.14,.35,.23,.65,.23h1.59v2.05h-1.98c-1.03,0-1.8-.28-2.26-.82-.47-.51-.68-1.24-.68-2.19v-7h-2.24v-2.05h2.24v-2.87l2.47-1.03v3.9Z"/><path d="M814.85,495.77c1.07,1.19,1.63,2.71,1.63,4.55s-.54,3.34-1.61,4.5c-1.12,1.21-2.59,1.84-4.41,1.84s-3.29-.63-4.41-1.84c-1.07-1.17-1.61-2.68-1.61-4.5s.54-3.36,1.63-4.55c1.1-1.21,2.57-1.82,4.39-1.82s3.29,.61,4.39,1.82Zm-7.05,1.56c-.56,.77-.82,1.77-.82,2.99s.26,2.19,.82,2.96c.63,.89,1.52,1.35,2.66,1.35s2.03-.47,2.68-1.35c.56-.79,.84-1.77,.84-2.96s-.28-2.22-.84-2.99c-.65-.91-1.54-1.35-2.68-1.35s-2.03,.44-2.66,1.35Z"/><path d="M837.16,495.96c.93,1.21,1.42,2.89,1.45,5.04h-9.15c.09,1.17,.4,2.08,.96,2.71,.56,.61,1.33,.93,2.31,.93,.86,0,1.56-.21,2.1-.61,.42-.33,.77-.86,1.1-1.56h2.47c-.28,1.12-.82,2.08-1.66,2.82-1.05,.91-2.38,1.38-3.99,1.38-1.77,0-3.2-.56-4.22-1.66-1.12-1.17-1.68-2.73-1.68-4.71,0-1.8,.51-3.29,1.59-4.5,1.03-1.24,2.45-1.84,4.22-1.84,1.96,0,3.48,.65,4.5,2.01Zm-6.65,.84c-.51,.54-.86,1.31-1,2.33h6.51c-.23-2.1-1.33-3.15-3.29-3.15-.93,0-1.66,.26-2.22,.82Z"/><path d="M843.32,494.28l2.66,3.83,2.64-3.83h2.89l-4.18,5.65,4.69,6.42h-2.89l-3.15-4.6-3.17,4.6h-2.92l4.71-6.42-4.18-5.65h2.89Z"/><path d="M864.23,495.84c.93,1.17,1.4,2.66,1.4,4.53s-.47,3.24-1.38,4.41c-.98,1.26-2.36,1.89-4.08,1.89-1.49,0-2.71-.7-3.69-2.1v6.39h-2.47v-16.68h2.31v1.45c.84-1.19,2.1-1.77,3.73-1.77,1.77,0,3.15,.63,4.18,1.89Zm-7.05,1.4c-.51,.75-.77,1.75-.77,2.99v.21c0,1.28,.3,2.33,.96,3.13,.56,.72,1.31,1.1,2.24,1.1,1.21,0,2.1-.4,2.68-1.19,.51-.75,.79-1.77,.79-3.1s-.26-2.36-.72-3.1c-.58-.89-1.47-1.31-2.68-1.31-1.07,0-1.91,.42-2.5,1.28Z"/><path d="M871.18,489.36v16.98h-2.47v-16.98h2.47Z"/><path d="M884.67,495.77c1.07,1.19,1.63,2.71,1.63,4.55s-.54,3.34-1.61,4.5c-1.12,1.21-2.59,1.84-4.41,1.84s-3.29-.63-4.41-1.84c-1.07-1.17-1.61-2.68-1.61-4.5s.54-3.36,1.63-4.55c1.1-1.21,2.57-1.82,4.39-1.82s3.29,.61,4.39,1.82Zm-7.05,1.56c-.56,.77-.82,1.77-.82,2.99s.26,2.19,.82,2.96c.63,.89,1.52,1.35,2.66,1.35s2.03-.47,2.68-1.35c.56-.79,.84-1.77,.84-2.96s-.28-2.22-.84-2.99c-.65-.91-1.54-1.35-2.68-1.35s-2.03,.44-2.66,1.35Z"/><path d="M896.29,494.26v2.47c-.61-.19-1.19-.26-1.75-.26-.75,0-1.42,.3-2.01,.91-.63,.65-.93,1.52-.93,2.57v6.39h-2.47v-12.06h2.47v1.82c.3-.65,.7-1.14,1.17-1.47,.56-.47,1.21-.68,1.96-.68,.61,0,1.14,.09,1.56,.3Z"/><path d="M907.89,495.96c.93,1.21,1.42,2.89,1.45,5.04h-9.15c.09,1.17,.4,2.08,.96,2.71,.56,.61,1.33,.93,2.31,.93,.86,0,1.56-.21,2.1-.61,.42-.33,.77-.86,1.1-1.56h2.47c-.28,1.12-.82,2.08-1.66,2.82-1.05,.91-2.38,1.38-3.99,1.38-1.77,0-3.2-.56-4.22-1.66-1.12-1.17-1.68-2.73-1.68-4.71,0-1.8,.51-3.29,1.59-4.5,1.03-1.24,2.45-1.84,4.22-1.84,1.96,0,3.48,.65,4.5,2.01Zm-6.65,.84c-.51,.54-.86,1.31-1,2.33h6.51c-.23-2.1-1.33-3.15-3.29-3.15-.93,0-1.66,.26-2.22,.82Z"/><path d="M914.91,503.49c.33,.33,.51,.75,.51,1.26,0,.47-.19,.89-.51,1.24-.35,.3-.77,.47-1.24,.47-.51,0-.91-.16-1.21-.47-.35-.35-.51-.77-.51-1.24,0-.51,.16-.93,.51-1.26,.3-.33,.7-.49,1.21-.49,.47,0,.89,.16,1.24,.49Z"/><path d="M689.36,557.95c1.19,.93,1.94,2.31,2.24,4.18h-2.57c-.23-1.12-.75-1.96-1.54-2.52-.79-.58-1.87-.86-3.17-.86-1.61,0-2.89,.54-3.85,1.66-1.03,1.17-1.52,2.78-1.52,4.83s.44,3.55,1.38,4.62c.98,1.17,2.52,1.75,4.6,1.75,.82,0,1.59-.12,2.31-.3,.7-.19,1.31-.47,1.87-.82v-3.62h-4.6v-2.17h7.14v7c-.86,.68-1.87,1.19-3.01,1.56-1.21,.37-2.54,.56-3.99,.56-2.66,0-4.71-.84-6.18-2.52-1.38-1.56-2.05-3.59-2.05-6.07s.68-4.55,2.05-6.16c1.45-1.73,3.41-2.57,5.86-2.57,2.12,0,3.8,.47,5.04,1.45Z"/><path d="M708.54,558.98c1.4,1.56,2.1,3.64,2.1,6.21s-.7,4.6-2.1,6.18c-1.47,1.63-3.48,2.45-6,2.45s-4.55-.84-6-2.47c-1.4-1.59-2.08-3.64-2.08-6.16s.68-4.6,2.08-6.18c1.45-1.68,3.45-2.5,6-2.5s4.53,.82,6,2.47Zm-10.12,1.56c-.93,1.14-1.4,2.68-1.4,4.64s.47,3.48,1.4,4.62c.98,1.17,2.36,1.77,4.13,1.77s3.15-.58,4.11-1.73c.93-1.12,1.42-2.68,1.42-4.67s-.49-3.57-1.42-4.71c-.96-1.17-2.33-1.73-4.11-1.73s-3.15,.58-4.13,1.8Z"/><path d="M731.27,563.13c.54-.75,1.12-1.28,1.73-1.59,.56-.3,1.24-.44,2.05-.44,1.24,0,2.26,.4,3.08,1.24,.79,.82,1.21,1.89,1.21,3.24v7.91h-2.47v-7.49c0-.98-.21-1.7-.63-2.15-.42-.47-1.12-.68-2.05-.68-.7,0-1.26,.26-1.73,.77-.47,.51-.7,1.24-.7,2.12v7.42h-2.47v-7.47c0-1.91-.84-2.85-2.47-2.85-.79,0-1.45,.3-1.91,.91-.51,.58-.75,1.31-.75,2.15v7.26h-2.47v-12.06h2.47v1.33c.98-1.12,2.1-1.66,3.31-1.66,1.77,0,3.06,.68,3.8,2.03Z"/><path d="M751.97,562.43c.72,.77,1.1,1.89,1.1,3.36v7.7h-2.29v-1.7c-.47,.61-1.05,1.1-1.75,1.45-.79,.37-1.73,.58-2.8,.58-1.26,0-2.24-.33-2.94-.96-.77-.63-1.14-1.45-1.14-2.45,0-1.35,.54-2.4,1.61-3.13,.98-.7,2.38-1.05,4.15-1.1l2.71-.07v-.49c0-1.68-.91-2.52-2.73-2.52-.77,0-1.4,.14-1.87,.42-.56,.33-.91,.82-1.05,1.49l-2.45-.21c.26-1.31,.91-2.29,1.94-2.89,.89-.56,2.1-.82,3.59-.82,1.77,0,3.08,.44,3.92,1.33Zm-3.9,5.55c-2.26,.05-3.38,.84-3.38,2.33,0,.47,.19,.84,.58,1.14,.37,.3,.89,.47,1.52,.47,1.05,0,1.94-.33,2.68-.96s1.14-1.42,1.14-2.36v-.7l-2.54,.07Z"/><path d="M758.83,556.51v9.89l5.23-4.97h3.2l-5.34,4.97,5.81,7.09h-3.17l-4.34-5.51-1.38,1.28v4.22h-2.47v-16.98h2.47Z"/><path d="M779.2,563.11c.93,1.21,1.42,2.89,1.45,5.04h-9.15c.09,1.17,.4,2.08,.96,2.71,.56,.61,1.33,.93,2.31,.93,.86,0,1.56-.21,2.1-.61,.42-.33,.77-.86,1.1-1.56h2.47c-.28,1.12-.82,2.08-1.66,2.82-1.05,.91-2.38,1.38-3.99,1.38-1.77,0-3.2-.56-4.22-1.66-1.12-1.17-1.68-2.73-1.68-4.71,0-1.8,.51-3.29,1.59-4.5,1.03-1.24,2.45-1.84,4.22-1.84,1.96,0,3.48,.65,4.5,2.01Zm-6.65,.84c-.51,.54-.86,1.31-1,2.33h6.51c-.23-2.1-1.33-3.15-3.29-3.15-.93,0-1.66,.26-2.22,.82Z"/><path d="M792.85,561.43l3.31,8.79,3.17-8.79h2.71l-6.56,16.68h-2.64l2.1-4.9-4.78-11.78h2.68Z"/><path d="M813.97,562.92c1.07,1.19,1.63,2.71,1.63,4.55s-.54,3.34-1.61,4.5c-1.12,1.21-2.59,1.84-4.41,1.84s-3.29-.63-4.41-1.84c-1.07-1.17-1.61-2.68-1.61-4.5s.54-3.36,1.63-4.55c1.1-1.21,2.57-1.82,4.39-1.82s3.29,.61,4.39,1.82Zm-7.05,1.56c-.56,.77-.82,1.77-.82,2.99s.26,2.19,.82,2.96c.63,.89,1.52,1.35,2.66,1.35s2.03-.47,2.68-1.35c.56-.79,.84-1.77,.84-2.96s-.28-2.22-.84-2.99c-.65-.91-1.54-1.35-2.68-1.35s-2.03,.44-2.66,1.35Z"/><path d="M820.9,561.43v7.35c0,1.03,.21,1.77,.65,2.24,.42,.47,1.12,.72,2.08,.72,.65,0,1.24-.28,1.8-.79,.56-.54,.96-1.26,1.17-2.15v-7.37h2.47v12.06h-2.47v-1.63c-1.03,1.31-2.29,1.96-3.8,1.96-2.92,0-4.36-1.63-4.36-4.88v-7.51h2.47Z"/><path d="M839.52,561.41v2.47c-.61-.19-1.19-.26-1.75-.26-.75,0-1.42,.3-2.01,.91-.63,.65-.93,1.52-.93,2.57v6.39h-2.47v-12.06h2.47v1.82c.3-.65,.7-1.14,1.17-1.47,.56-.47,1.21-.68,1.96-.68,.61,0,1.14,.09,1.56,.3Z"/><path d="M851.14,564.9h-2.4c-.19-.65-.47-1.1-.86-1.35-.42-.28-1.07-.42-1.91-.42-.75,0-1.31,.09-1.68,.33-.44,.23-.65,.61-.65,1.07,0,.42,.33,.77,.98,1.07,.42,.19,1.21,.42,2.43,.72,1.38,.33,2.4,.72,3.06,1.14,.96,.61,1.45,1.45,1.45,2.52,0,2.54-1.8,3.83-5.37,3.83-3.31,0-5.09-1.42-5.37-4.22h2.43c.14,.82,.44,1.4,.86,1.73,.42,.3,1.07,.47,2.01,.47,1.91,0,2.89-.56,2.89-1.63,0-.58-.37-1.05-1.07-1.38-.37-.19-1.19-.42-2.43-.7-1.42-.33-2.43-.68-2.99-1.05-.93-.58-1.4-1.4-1.4-2.43,0-1.1,.44-1.96,1.35-2.57,.91-.63,2.1-.93,3.55-.93,3.13,0,4.85,1.26,5.13,3.8Z"/><path d="M863.72,563.11c.93,1.21,1.42,2.89,1.45,5.04h-9.15c.09,1.17,.4,2.08,.96,2.71,.56,.61,1.33,.93,2.31,.93,.86,0,1.56-.21,2.1-.61,.42-.33,.77-.86,1.1-1.56h2.47c-.28,1.12-.82,2.08-1.66,2.82-1.05,.91-2.38,1.38-3.99,1.38-1.77,0-3.2-.56-4.22-1.66-1.12-1.17-1.68-2.73-1.68-4.71,0-1.8,.51-3.29,1.59-4.5,1.03-1.24,2.45-1.84,4.22-1.84,1.96,0,3.48,.65,4.5,2.01Zm-6.65,.84c-.51,.54-.86,1.31-1,2.33h6.51c-.23-2.1-1.33-3.15-3.29-3.15-.93,0-1.66,.26-2.22,.82Z"/><path d="M870.48,556.51v16.98h-2.47v-16.98h2.47Z"/><path d="M881.31,556.83v2.1h-2.17c-.4,0-.7,.09-.89,.3-.19,.19-.28,.51-.28,.96v1.24h3.17v2.03h-3.17v10.03h-2.45v-10.03h-2.78v-2.03h2.78v-1.31c0-1.03,.28-1.84,.84-2.4,.56-.61,1.35-.89,2.43-.89h2.52Z"/><path d="M576.33,596.5c1.07,1.19,1.63,2.71,1.63,4.55s-.54,3.34-1.61,4.5c-1.12,1.21-2.59,1.84-4.41,1.84s-3.29-.63-4.41-1.84c-1.07-1.17-1.61-2.68-1.61-4.5s.54-3.36,1.63-4.55c1.1-1.21,2.57-1.82,4.39-1.82s3.29,.61,4.39,1.82Zm-7.05,1.56c-.56,.77-.82,1.77-.82,2.99s.26,2.19,.82,2.96c.63,.89,1.52,1.35,2.66,1.35s2.03-.47,2.68-1.35c.56-.79,.84-1.77,.84-2.96s-.28-2.22-.84-2.99c-.65-.91-1.54-1.35-2.68-1.35s-2.03,.44-2.66,1.35Z"/><path d="M582.24,595l2.54,9.12,2.47-9.12h2.29l2.47,9.12,2.54-9.12h2.73l-4.08,12.06h-2.29l-2.52-9.03-2.52,9.03h-2.29l-4.08-12.06h2.73Z"/><path d="M609.89,599.62v7.44h-2.47v-7.23c0-2.05-.96-3.08-2.82-3.08-.7,0-1.33,.23-1.84,.75-.56,.56-.91,1.33-1,2.31v7.26h-2.47v-12.06h2.47v1.49c.47-.61,1-1.05,1.61-1.35,.61-.33,1.28-.47,2.03-.47,2.99,0,4.5,1.63,4.5,4.95Z"/><path d="M626.52,589.01c-.63,.21-1.14,.58-1.54,1.12-.42,.51-.63,1.05-.61,1.61,.09-.07,.28-.09,.56-.09,.47,0,.86,.16,1.19,.49s.51,.75,.51,1.26-.19,.93-.51,1.26c-.35,.33-.79,.49-1.33,.49-.63,0-1.12-.26-1.49-.77-.42-.49-.61-1.12-.61-1.89,0-1.21,.33-2.24,1.03-3.13,.7-.89,1.63-1.49,2.8-1.8v1.45Zm5.44,0c-.65,.21-1.17,.58-1.59,1.12-.42,.51-.61,1.05-.58,1.61,.12-.07,.3-.09,.56-.09,.47,0,.89,.16,1.21,.49,.33,.33,.49,.75,.49,1.26s-.19,.93-.51,1.26c-.35,.33-.79,.49-1.33,.49-.63,0-1.14-.26-1.52-.77-.4-.49-.58-1.12-.58-1.89,0-1.21,.35-2.24,1.05-3.13,.68-.89,1.61-1.49,2.8-1.8v1.45Z"/><path d="M642.09,590.41c2.68,0,4.71,.75,6.11,2.26,1.31,1.4,1.96,3.43,1.96,6.07s-.68,4.64-2.01,6.09c-1.4,1.49-3.43,2.24-6.11,2.24h-6.02v-16.66h6.07Zm-3.52,14.49h3.01c2.1,0,3.66-.51,4.64-1.52,.96-1,1.45-2.54,1.45-4.64s-.49-3.69-1.42-4.67c-.98-1-2.52-1.49-4.62-1.49h-3.06v12.32Z"/><path d="M660.59,590.41c1.68,0,3.03,.37,4.01,1.14,1.03,.84,1.54,2.03,1.54,3.62,0,.89-.23,1.66-.7,2.33-.54,.75-1.26,1.24-2.17,1.47v.05c1.49,.33,2.31,1.31,2.5,2.94l.28,2.66c.09,1.03,.42,1.84,.98,2.45h-2.75c-.4-.51-.63-1.26-.72-2.19l-.21-2.08c-.09-.93-.4-1.59-.89-2.01-.51-.42-1.24-.61-2.19-.61h-4.5v6.88h-2.54v-16.66h7.37Zm-4.83,7.61h4.5c1.12,0,1.96-.26,2.52-.72,.54-.47,.82-1.14,.82-2.03,0-.93-.28-1.61-.79-2.03-.56-.44-1.4-.65-2.57-.65h-4.48v5.44Z"/><path d="M681.8,590.41v2.17h-9.43v4.85h8.87v2.17h-8.87v5.3h9.82v2.17h-12.37v-16.66h11.97Z"/><path d="M692.93,590.41l6.42,16.66h-2.73l-1.56-4.29h-7.16l-1.56,4.29h-2.71l6.42-16.66h2.89Zm1.35,10.27l-2.75-7.54h-.09l-2.78,7.54h5.62Z"/><path d="M704.46,590.41l5.81,13.35h.07l5.79-13.35h3.01v16.66h-2.54v-11.9h-.09l-5.11,11.9h-2.19l-5.11-11.9h-.09v11.9h-2.54v-16.66h3.01Z"/><path d="M734.91,591.6c1.21,.98,1.96,2.33,2.22,4.01h-2.47c-.28-1.12-.82-1.96-1.61-2.5-.79-.54-1.77-.79-2.99-.79-1.8,0-3.15,.61-4.06,1.84-.86,1.12-1.28,2.66-1.28,4.6s.42,3.55,1.26,4.64c.89,1.17,2.26,1.75,4.13,1.75,1.21,0,2.24-.3,3.03-.91,.84-.65,1.42-1.63,1.75-2.94h2.47c-.37,1.94-1.24,3.45-2.61,4.55-1.28,1.03-2.82,1.54-4.62,1.54-2.73,0-4.78-.89-6.16-2.61-1.21-1.49-1.8-3.5-1.8-6.02s.61-4.48,1.87-6.04c1.4-1.77,3.41-2.64,6.07-2.64,1.94,0,3.55,.49,4.81,1.52Z"/><path d="M748.07,590.41l6.42,16.66h-2.73l-1.56-4.29h-7.16l-1.56,4.29h-2.71l6.42-16.66h2.89Zm1.35,10.27l-2.75-7.54h-.09l-2.78,7.54h5.62Z"/><path d="M763.96,590.41c1.68,0,3.03,.37,4.01,1.14,1.03,.84,1.54,2.03,1.54,3.62,0,.89-.23,1.66-.7,2.33-.54,.75-1.26,1.24-2.17,1.47v.05c1.49,.33,2.31,1.31,2.5,2.94l.28,2.66c.09,1.03,.42,1.84,.98,2.45h-2.75c-.4-.51-.63-1.26-.72-2.19l-.21-2.08c-.09-.93-.4-1.59-.89-2.01-.51-.42-1.24-.61-2.19-.61h-4.5v6.88h-2.54v-16.66h7.37Zm-4.83,7.61h4.5c1.12,0,1.96-.26,2.52-.72,.54-.47,.82-1.14,.82-2.03,0-.93-.28-1.61-.79-2.03-.56-.44-1.4-.65-2.57-.65h-4.48v5.44Z"/><path d="M779.27,590.41c2.68,0,4.71,.75,6.11,2.26,1.31,1.4,1.96,3.43,1.96,6.07s-.68,4.64-2.01,6.09c-1.4,1.49-3.43,2.24-6.11,2.24h-6.02v-16.66h6.07Zm-3.52,14.49h3.01c2.1,0,3.66-.51,4.64-1.52,.96-1,1.45-2.54,1.45-4.64s-.49-3.69-1.42-4.67c-.98-1-2.52-1.49-4.62-1.49h-3.06v12.32Z"/><path d="M793.9,588.28c.4,.49,.61,1.14,.61,1.94,0,1.17-.35,2.22-1.05,3.1-.7,.89-1.63,1.47-2.8,1.8v-1.45c.63-.21,1.14-.58,1.56-1.1,.42-.54,.61-1.07,.61-1.63-.12,.05-.3,.09-.56,.09-.47,0-.86-.19-1.19-.51-.35-.33-.51-.72-.51-1.24s.16-.93,.49-1.26c.35-.33,.79-.49,1.35-.49,.61,0,1.12,.23,1.49,.75Zm5.44,0c.37,.49,.58,1.14,.58,1.94,0,1.17-.35,2.22-1.03,3.1-.7,.89-1.63,1.47-2.8,1.8v-1.45c.61-.21,1.14-.58,1.56-1.1,.4-.54,.58-1.07,.58-1.63-.12,.05-.3,.09-.56,.09-.47,0-.89-.19-1.21-.51-.33-.33-.49-.72-.49-1.24s.16-.93,.54-1.26c.33-.33,.77-.49,1.33-.49,.61,0,1.1,.23,1.49,.75Z"/><path d="M822.13,596.01c.72,.77,1.1,1.89,1.1,3.36v7.7h-2.29v-1.7c-.47,.61-1.05,1.1-1.75,1.45-.79,.37-1.73,.58-2.8,.58-1.26,0-2.24-.33-2.94-.96-.77-.63-1.14-1.45-1.14-2.45,0-1.35,.54-2.4,1.61-3.13,.98-.7,2.38-1.05,4.15-1.1l2.71-.07v-.49c0-1.68-.91-2.52-2.73-2.52-.77,0-1.4,.14-1.87,.42-.56,.33-.91,.82-1.05,1.49l-2.45-.21c.26-1.31,.91-2.29,1.94-2.89,.89-.56,2.1-.82,3.59-.82,1.77,0,3.08,.44,3.92,1.33Zm-3.9,5.55c-2.26,.05-3.38,.84-3.38,2.33,0,.47,.19,.84,.58,1.14,.37,.3,.89,.47,1.52,.47,1.05,0,1.94-.33,2.68-.96,.75-.63,1.14-1.42,1.14-2.36v-.7l-2.54,.07Z"/><path d="M837.14,599.62v7.44h-2.47v-7.23c0-2.05-.96-3.08-2.82-3.08-.7,0-1.33,.23-1.84,.75-.56,.56-.91,1.33-1,2.31v7.26h-2.47v-12.06h2.47v1.49c.47-.61,1-1.05,1.61-1.35,.61-.33,1.28-.47,2.03-.47,2.99,0,4.5,1.63,4.5,4.95Z"/><path d="M851.58,590.08v16.98h-2.31v-1.45c-.84,1.17-2.1,1.77-3.73,1.77-1.77,0-3.17-.63-4.18-1.89-.93-1.17-1.4-2.68-1.4-4.53s.44-3.24,1.38-4.41c.98-1.26,2.36-1.89,4.08-1.89,1.47,0,2.71,.7,3.69,2.12v-6.72h2.47Zm-8.31,7.84c-.51,.7-.77,1.73-.77,3.06s.23,2.36,.72,3.1c.56,.86,1.47,1.31,2.68,1.31,1.07,0,1.89-.44,2.5-1.28,.51-.77,.77-1.75,.77-2.96v-.21c0-1.31-.33-2.36-.93-3.15-.61-.75-1.35-1.1-2.26-1.1-1.21,0-2.12,.4-2.71,1.24Z"/><path d="M868.2,589.01c-.63,.21-1.14,.58-1.54,1.12-.42,.51-.63,1.05-.61,1.61,.09-.07,.28-.09,.56-.09,.47,0,.86,.16,1.19,.49s.51,.75,.51,1.26-.19,.93-.51,1.26c-.35,.33-.79,.49-1.33,.49-.63,0-1.12-.26-1.49-.77-.42-.49-.61-1.12-.61-1.89,0-1.21,.33-2.24,1.03-3.13,.7-.89,1.63-1.49,2.8-1.8v1.45Zm5.44,0c-.65,.21-1.17,.58-1.59,1.12-.42,.51-.61,1.05-.58,1.61,.12-.07,.3-.09,.56-.09,.47,0,.89,.16,1.21,.49s.49,.75,.49,1.26-.19,.93-.51,1.26c-.35,.33-.79,.49-1.33,.49-.63,0-1.14-.26-1.52-.77-.4-.49-.58-1.12-.58-1.89,0-1.21,.35-2.24,1.05-3.13,.68-.89,1.61-1.49,2.8-1.8v1.45Z"/><path d="M878.91,595l2.54,9.12,2.47-9.12h2.29l2.47,9.12,2.54-9.12h2.73l-4.08,12.06h-2.29l-2.52-9.03-2.52,9.03h-2.29l-4.08-12.06h2.73Z"/><path d="M905.3,596.01c.72,.77,1.1,1.89,1.1,3.36v7.7h-2.29v-1.7c-.47,.61-1.05,1.1-1.75,1.45-.79,.37-1.73,.58-2.8,.58-1.26,0-2.24-.33-2.94-.96-.77-.63-1.14-1.45-1.14-2.45,0-1.35,.54-2.4,1.61-3.13,.98-.7,2.38-1.05,4.15-1.1l2.71-.07v-.49c0-1.68-.91-2.52-2.73-2.52-.77,0-1.4,.14-1.87,.42-.56,.33-.91,.82-1.05,1.49l-2.45-.21c.26-1.31,.91-2.29,1.94-2.89,.89-.56,2.1-.82,3.59-.82,1.77,0,3.08,.44,3.92,1.33Zm-3.9,5.55c-2.26,.05-3.38,.84-3.38,2.33,0,.47,.19,.84,.58,1.14,.37,.3,.89,.47,1.52,.47,1.05,0,1.94-.33,2.68-.96,.75-.63,1.14-1.42,1.14-2.36v-.7l-2.54,.07Z"/><path d="M912.44,590.08v16.98h-2.47v-16.98h2.47Z"/><path d="M918.74,590.08v16.98h-2.47v-16.98h2.47Z"/><path d="M932.51,596.57c.93,1.17,1.4,2.66,1.4,4.53s-.47,3.24-1.38,4.41c-.98,1.26-2.36,1.89-4.08,1.89-1.49,0-2.71-.7-3.69-2.1v6.39h-2.47v-16.68h2.31v1.45c.84-1.19,2.1-1.77,3.73-1.77,1.77,0,3.15,.63,4.18,1.89Zm-7.05,1.4c-.51,.75-.77,1.75-.77,2.99v.21c0,1.28,.3,2.33,.96,3.13,.56,.72,1.31,1.1,2.24,1.1,1.21,0,2.1-.4,2.68-1.19,.51-.75,.79-1.77,.79-3.1s-.26-2.36-.72-3.1c-.58-.89-1.47-1.31-2.68-1.31-1.07,0-1.91,.42-2.5,1.28Z"/><path d="M946.06,596.01c.72,.77,1.1,1.89,1.1,3.36v7.7h-2.29v-1.7c-.47,.61-1.05,1.1-1.75,1.45-.79,.37-1.73,.58-2.8,.58-1.26,0-2.24-.33-2.94-.96-.77-.63-1.14-1.45-1.14-2.45,0-1.35,.54-2.4,1.61-3.13,.98-.7,2.38-1.05,4.15-1.1l2.71-.07v-.49c0-1.68-.91-2.52-2.73-2.52-.77,0-1.4,.14-1.87,.42-.56,.33-.91,.82-1.05,1.49l-2.45-.21c.26-1.31,.91-2.29,1.94-2.89,.89-.56,2.1-.82,3.59-.82,1.77,0,3.08,.44,3.92,1.33Zm-3.9,5.55c-2.26,.05-3.38,.84-3.38,2.33,0,.47,.19,.84,.58,1.14,.37,.3,.89,.47,1.52,.47,1.05,0,1.94-.33,2.68-.96,.75-.63,1.14-1.42,1.14-2.36v-.7l-2.54,.07Z"/><path d="M960.67,596.57c.93,1.17,1.4,2.66,1.4,4.53s-.47,3.24-1.38,4.41c-.98,1.26-2.36,1.89-4.08,1.89-1.49,0-2.71-.7-3.69-2.1v6.39h-2.47v-16.68h2.31v1.45c.84-1.19,2.1-1.77,3.73-1.77,1.77,0,3.15,.63,4.18,1.89Zm-7.05,1.4c-.51,.75-.77,1.75-.77,2.99v.21c0,1.28,.3,2.33,.96,3.13,.56,.72,1.31,1.1,2.24,1.1,1.21,0,2.1-.4,2.68-1.19,.51-.75,.79-1.77,.79-3.1s-.26-2.36-.72-3.1c-.58-.89-1.47-1.31-2.68-1.31-1.07,0-1.91,.42-2.5,1.28Z"/><path d="M974.48,596.68c.93,1.21,1.42,2.89,1.45,5.04h-9.15c.09,1.17,.4,2.08,.96,2.71,.56,.61,1.33,.93,2.31,.93,.86,0,1.56-.21,2.1-.61,.42-.33,.77-.86,1.1-1.56h2.47c-.28,1.12-.82,2.08-1.66,2.82-1.05,.91-2.38,1.38-3.99,1.38-1.77,0-3.2-.56-4.22-1.66-1.12-1.17-1.68-2.73-1.68-4.71,0-1.8,.51-3.29,1.59-4.5,1.03-1.24,2.45-1.84,4.22-1.84,1.96,0,3.48,.65,4.5,2.01Zm-6.65,.84c-.51,.54-.86,1.31-1,2.33h6.51c-.23-2.1-1.33-3.15-3.29-3.15-.93,0-1.66,.26-2.22,.82Z"/><path d="M985.66,594.98v2.47c-.61-.19-1.19-.26-1.75-.26-.75,0-1.42,.3-2.01,.91-.63,.65-.93,1.52-.93,2.57v6.39h-2.47v-12.06h2.47v1.82c.3-.65,.7-1.14,1.17-1.47,.56-.47,1.21-.68,1.96-.68,.61,0,1.14,.09,1.56,.3Z"/><path d="M991.38,588.28c.4,.49,.61,1.14,.61,1.94,0,1.17-.35,2.22-1.05,3.1-.7,.89-1.63,1.47-2.8,1.8v-1.45c.63-.21,1.14-.58,1.56-1.1,.42-.54,.61-1.07,.61-1.63-.12,.05-.3,.09-.56,.09-.47,0-.86-.19-1.19-.51-.35-.33-.51-.72-.51-1.24s.16-.93,.49-1.26c.35-.33,.79-.49,1.35-.49,.61,0,1.12,.23,1.49,.75Zm5.44,0c.37,.49,.58,1.14,.58,1.94,0,1.17-.35,2.22-1.03,3.1-.7,.89-1.63,1.47-2.8,1.8v-1.45c.61-.21,1.14-.58,1.56-1.1,.4-.54,.58-1.07,.58-1.63-.12,.05-.3,.09-.56,.09-.47,0-.89-.19-1.21-.51s-.49-.72-.49-1.24,.16-.93,.54-1.26c.33-.33,.77-.49,1.33-.49,.61,0,1.1,.23,1.49,.75Z"/></g></svg>