<svg xmlns="http://www.w3.org/2000/svg" viewBox="0 0 66.38 57.41"><defs><style>.cls-1,.cls-2{stroke:#000;}.cls-1,.cls-2,.cls-3{stroke-miterlimit:10;stroke-width:2px;}.cls-2{fill:#fff;}.cls-3{fill:none;stroke:#fff;}</style></defs><g id="font"><path class="cls-1" d="M54.15,20.21C51.1,11.43,43.26,7.66,34,7.66S16.79,11.47,13.77,20.34a10.58,10.58,0,0,0-1.38-.14,11.32,11.32,0,0,0,0,22.63,10.91,10.91,0,0,0,2.82-.4C18.93,50.73,25.93,56.34,34,56.34s14.9-5.5,18.64-13.65a11.29,11.29,0,1,0,1.53-22.48Z"/><path class="cls-2" d="M48.54,7.66a9.4,9.4,0,0,0-3.6.72A11.82,11.82,0,0,0,23,8.38a9.39,9.39,0,1,0,4.09,14,11.81,11.81,0,0,0,13.73,0,9.39,9.39,0,1,0,7.7-14.76Z"/><line class="cls-3" x1="25.97" y1="37.67" x2="41.99" y2="37.67"/><line class="cls-3" x1="33.98" y1="29.66" x2="33.98" y2="45.68"/></g></svg>