<?xml version="1.0" encoding="UTF-8"?><svg id="_圖層_1" xmlns="http://www.w3.org/2000/svg" viewBox="0 0 1080.29 624.59"><defs><style>.cls-1{font-family:PingFangTC-Medium-B5pc-H, 'PingFang TC';font-size:26.47px;font-weight:500;}.cls-2{fill:#fff;stroke:#000;stroke-miterlimit:10;stroke-width:4px;}</style></defs><g><g><path class="cls-2" d="M723.6,51.98s97.58-9.95,151.47,15.01c53.9,24.96,126.86,54.14,79.67,170.26,0,0,70.82,39.47,74.75,99.67,3.93,60.2-32.72,109.32-125.35,133.41,0,0-2.73,41.91-36.24,65.66-32.63,23.13-46.9,31.23-141.41,23.67,0,0-174.09,85.32-299.16-.03,0,0-61.16,25.22-130.82,18.67-69.66-6.55-106.51-15.56-143.25-103.93,0,0-50.29-.85-96.89-30.05C9.77,415.14-3.6,379.32,4,330.97c7.6-48.36,100.57-73.27,100.57-73.27,0,0-65.97,7.67-75.8-46.07-9.83-53.74,62.76-89.26,129.8-96.03,0,0,13.59-60.25,117.89-93.05,104.3-32.8,186.29,12.28,186.29,12.28,0,0,60.48-42.09,139.01-30.94,78.53,11.14,121.84,48.11,121.84,48.11Z"/><path class="cls-2" d="M954.75,237.26s-49.4-30.37-103.22-32.03"/><path class="cls-2" d="M462.75,34.82s45.13,20.92,72.78,56.22"/><path class="cls-2" d="M158.56,115.6s-9.78,40.43,3.63,63.64"/><path class="cls-2" d="M149.15,249.38s-27.44,2.78-44.58,8.32"/><path class="cls-2" d="M427.33,559.64s-26.24-19.17-38.63-63.92"/><path class="cls-2" d="M768.42,520.2s-18.7,29.68-41.93,39.47"/><path class="cls-2" d="M723.6,51.98s-57.89,11.88-80.55,22.64"/><path class="cls-2" d="M153.15,474.41s43.5,2.53,55.83-.25"/><path class="cls-2" d="M904.15,470.34s-19.36,5.03-28.67,6.39"/></g><ellipse class="cls-2" cx="954.75" cy="568.84" rx="20.58" ry="41.82" transform="translate(180.33 1365.95) rotate(-76.61)"/><ellipse class="cls-2" cx="1050.9" cy="605.87" rx="16.4" ry="27.58" transform="translate(296.9 1556.11) rotate(-81.53)"/></g><text class="cls-1" transform="translate(352.59 218.32)"><tspan x="0" y="0">Welcome to the website of </tspan><tspan x="7.82" y="33.61">ONE SHEEP, TWO SLEEP.</tspan><tspan x="-45.14" y="67.21">Aside from our DREAMCARD area,</tspan><tspan x="26.86" y="100.82">here’s more to explore.</tspan><tspan x="56.11" y="168.04">GO make yourself </tspan><tspan x="-65.5" y="201.64">own “DREAMCARD” and “wallpaper”</tspan></text></svg>