<?xml version="1.0" encoding="UTF-8"?>
<svg id="font" xmlns="http://www.w3.org/2000/svg" viewBox="0 0 1456.73 841.65">
  <defs>
    <style>
      .cls-1 {
        letter-spacing: .02em;
      }

      .cls-2 {
        fill: #fff;
        stroke: #000;
        stroke-miterlimit: 10;
        stroke-width: 4px;
      }

      .cls-3 {
        font-family: PingFangTC-Medium-B5pc-H, 'PingFang TC';
        font-size: 23.33px;
        font-weight: 500;
      }

      .cls-4 {
        letter-spacing: .12em;
      }

      .cls-5 {
        letter-spacing: .02em;
      }
    </style>
  </defs>
  <g>
    <g>
      <path class="cls-2" d="M480.74,69.47s-131.71-13.44-204.45,20.26c-72.75,33.69-171.22,73.07-107.54,229.82,0,0-95.59,53.27-100.9,134.53-5.31,81.26,44.16,147.56,169.2,180.07,0,0,3.68,56.56,48.92,88.63,44.05,31.22,63.31,42.16,190.88,31.95,0,0,234.99,115.16,403.79-.04,0,0,82.56,34.04,176.58,25.2,94.02-8.84,143.77-21.01,193.35-140.28,0,0,67.87-1.15,130.78-40.56,62.9-39.41,80.96-87.75,70.7-153.02-10.26-65.27-135.75-98.9-135.75-98.9,0,0,89.05,10.35,102.31-62.18,13.27-72.54-84.71-120.48-175.19-129.62,0,0-18.34-81.33-159.13-125.6-140.78-44.27-251.45,16.57-251.45,16.57,0,0-81.63-56.8-187.63-41.76-106,15.04-164.45,64.93-164.45,64.93Z"/>
      <path class="cls-2" d="M168.75,319.54s66.68-41,139.32-43.23"/>
      <path class="cls-2" d="M832.83,46.3s-60.91,28.24-98.24,75.88"/>
      <path class="cls-2" d="M1243.41,155.33s13.21,54.57-4.89,85.9"/>
      <path class="cls-2" d="M1256.11,335.91s37.04,3.75,60.18,11.22"/>
      <path class="cls-2" d="M880.63,754.68s35.42-25.88,52.14-86.28"/>
      <path class="cls-2" d="M420.25,701.45s25.23,40.06,56.59,53.27"/>
      <path class="cls-2" d="M480.74,69.47s78.13,16.04,108.73,30.55"/>
      <path class="cls-2" d="M1250.72,639.64s-58.71,3.41-75.36-.34"/>
      <path class="cls-2" d="M237.05,634.15s26.13,6.8,38.69,8.62"/>
    </g>
    <ellipse class="cls-2" cx="168.75" cy="767.1" rx="56.45" ry="27.78" transform="translate(-173.01 59.91) rotate(-13.39)"/>
    <ellipse class="cls-2" cx="38.96" cy="817.08" rx="37.22" ry="22.13" transform="translate(-119.88 14.64) rotate(-8.47)"/>
  </g>
  <text class="cls-3" transform="translate(640.23 204.17)"><tspan class="cls-4"><tspan x="0" y="0">歡迎來到一隻羊兩隻羊！</tspan></tspan><tspan class="cls-4"><tspan x="-13.07" y="33.57">這裡除了有解夢卡專區之外</tspan></tspan><tspan class="cls-4"><tspan x="-26.13" y="67.15">還有更多值得你探索的地方～</tspan></tspan><tspan class="cls-4"><tspan x="-117.61" y="134.3">快動動手指製作屬於自己的桌布及解夢卡吧！</tspan></tspan><tspan class="cls-1"><tspan x="-167.15" y="235.02">Welcome to the website of ONE SHEEP, TWO SLEEP.</tspan></tspan><tspan class="cls-5"><tspan x="-57.05" y="268.6">Aside from our DREAMCARD area,</tspan></tspan><tspan class="cls-1"><tspan x="8.06" y="302.17">here’s more to explore.</tspan></tspan><tspan class="cls-1"><tspan x="35.25" y="369.32">GO make yourself </tspan></tspan><tspan class="cls-1"><tspan x="-75.24" y="402.9">own “DREAMCARD” and “wallpaper”</tspan></tspan></text>
</svg>