<?xml version="1.0" encoding="UTF-8"?>
<svg id="_圖層_1" data-name="圖層 1" xmlns="http://www.w3.org/2000/svg" viewBox="0 0 41.7 34.09">
  <defs>
    <style>
      .cls-1 {
        fill: #fff;
      }

      .cls-1, .cls-2, .cls-3 {
        stroke-miterlimit: 10;
        stroke-width: 2px;
      }

      .cls-1, .cls-3 {
        stroke: #000;
      }

      .cls-2 {
        fill: none;
        stroke: #fff;
      }
    </style>
  </defs>
  <path class="cls-3" d="M29.91,13.39c-1.32-3.8-4.71-5.43-8.73-5.43s-7.44,1.65-8.74,5.49c-.2-.02-.39-.06-.59-.06-2.7,0-4.89,2.19-4.89,4.89s2.19,4.89,4.89,4.89c.42,0,.83-.07,1.22-.17,1.61,3.59,4.64,6.02,8.12,6.02s6.45-2.38,8.07-5.91c.2,.03,.41,.06,.62,.06,2.7,0,4.89-2.19,4.89-4.89s-2.17-4.86-4.85-4.89Z"/>
  <path class="cls-1" d="M27.48,7.96c-.55,0-1.08,.11-1.56,.31-.76-1.88-2.6-3.2-4.74-3.2s-3.98,1.32-4.74,3.2c-.48-.2-1.01-.31-1.56-.31-2.24,0-4.06,1.82-4.06,4.06s1.82,4.06,4.06,4.06c1.38,0,2.6-.69,3.33-1.74,.84,.6,1.86,.95,2.97,.95s2.13-.35,2.97-.95c.73,1.05,1.95,1.74,3.33,1.74,2.24,0,4.06-1.82,4.06-4.06s-1.82-4.06-4.06-4.06Z"/>
  <line class="cls-2" x1="17.71" y1="20.95" x2="24.65" y2="20.95"/>
  <line class="cls-2" x1="21.18" y1="17.48" x2="21.18" y2="24.41"/>
</svg>