<?xml version="1.0" encoding="UTF-8"?><svg id="_圖層_1" xmlns="http://www.w3.org/2000/svg" viewBox="0 0 1080.29 624.59"><defs><style>.cls-1{fill:#fff;stroke:#000;stroke-miterlimit:10;stroke-width:4px;}</style></defs><g><g><path class="cls-1" d="M723.6,51.98s97.58-9.95,151.47,15.01c53.9,24.96,126.86,54.14,79.67,170.26,0,0,70.82,39.47,74.75,99.67,3.93,60.2-32.72,109.32-125.35,133.41,0,0-2.73,41.91-36.24,65.66-32.63,23.13-46.9,31.23-141.41,23.67,0,0-174.09,85.32-299.16-.03,0,0-61.16,25.22-130.82,18.67-69.66-6.55-106.51-15.56-143.25-103.93,0,0-50.29-.85-96.89-30.05C9.77,415.14-3.6,379.32,4,330.97c7.6-48.36,100.57-73.27,100.57-73.27,0,0-65.97,7.67-75.8-46.07-9.83-53.74,62.76-89.26,129.8-96.03,0,0,13.59-60.25,117.89-93.05,104.3-32.8,186.29,12.28,186.29,12.28,0,0,60.48-42.09,139.01-30.94,78.53,11.14,121.84,48.11,121.84,48.11Z"/><path class="cls-1" d="M954.75,237.26s-49.4-30.37-103.22-32.03"/><path class="cls-1" d="M462.75,34.82s45.13,20.92,72.78,56.22"/><path class="cls-1" d="M158.56,115.6s-9.78,40.43,3.63,63.64"/><path class="cls-1" d="M149.15,249.38s-27.44,2.78-44.58,8.32"/><path class="cls-1" d="M427.33,559.64s-26.24-19.17-38.63-63.92"/><path class="cls-1" d="M768.42,520.2s-18.7,29.68-41.93,39.47"/><path class="cls-1" d="M723.6,51.98s-57.89,11.88-80.55,22.64"/><path class="cls-1" d="M153.15,474.41s43.5,2.53,55.83-.25"/><path class="cls-1" d="M904.15,470.34s-19.36,5.03-28.67,6.39"/></g><ellipse class="cls-1" cx="954.75" cy="568.84" rx="20.58" ry="41.82" transform="translate(180.33 1365.95) rotate(-76.61)"/><ellipse class="cls-1" cx="1050.9" cy="605.87" rx="16.4" ry="27.58" transform="translate(296.9 1556.11) rotate(-81.53)"/></g><g><path d="M355.98,199.42l3.68,14.72h.11l3.86-14.72h3.02l3.87,14.72h.11l3.68-14.72h3.26l-5.45,18.9h-3.07l-3.84-14.59h-.11l-3.84,14.59h-3.1l-5.43-18.9h3.26Z"/><path d="M390.17,206.54c1.06,1.38,1.61,3.28,1.64,5.72h-10.38c.11,1.32,.45,2.36,1.09,3.07,.64,.69,1.51,1.06,2.62,1.06,.98,0,1.77-.24,2.38-.69,.48-.37,.87-.98,1.24-1.77h2.81c-.32,1.27-.93,2.36-1.88,3.2-1.19,1.03-2.7,1.56-4.53,1.56-2.01,0-3.63-.64-4.79-1.88-1.27-1.32-1.91-3.1-1.91-5.35,0-2.04,.58-3.73,1.8-5.11,1.16-1.4,2.78-2.09,4.79-2.09,2.22,0,3.94,.74,5.11,2.28Zm-7.54,.95c-.58,.61-.98,1.48-1.14,2.65h7.39c-.26-2.38-1.51-3.57-3.73-3.57-1.06,0-1.88,.29-2.51,.93Z"/><path d="M397.32,199.04v19.27h-2.81v-19.27h2.81Z"/><path d="M411.11,205.45c1.06,.85,1.75,2.12,2.01,3.81h-2.78c-.19-.93-.56-1.62-1.14-2.04-.58-.45-1.35-.66-2.3-.66-1.16,0-2.06,.42-2.73,1.3-.69,.85-1.01,2.06-1.01,3.6s.32,2.75,.98,3.63c.61,.85,1.51,1.3,2.73,1.3,2.09,0,3.26-1.06,3.52-3.12h2.78c-.32,1.83-1.03,3.2-2.09,4.1-1.06,.87-2.49,1.32-4.24,1.32-2.09,0-3.71-.69-4.87-2.07-1.14-1.32-1.69-3.02-1.69-5.14s.56-3.76,1.67-5.08c1.19-1.43,2.83-2.14,4.95-2.14,1.75,0,3.15,.4,4.21,1.19Z"/><path d="M426.86,206.33c1.22,1.35,1.85,3.07,1.85,5.16s-.61,3.79-1.83,5.11c-1.27,1.38-2.94,2.09-5,2.09s-3.73-.71-5-2.09c-1.22-1.32-1.83-3.04-1.83-5.11s.61-3.81,1.85-5.16c1.24-1.38,2.91-2.06,4.98-2.06s3.73,.69,4.98,2.06Zm-8,1.77c-.64,.87-.93,2.01-.93,3.39s.29,2.49,.93,3.36c.71,1.01,1.72,1.54,3.02,1.54s2.3-.53,3.04-1.54c.64-.9,.95-2.01,.95-3.36s-.32-2.52-.95-3.39c-.74-1.03-1.75-1.54-3.04-1.54s-2.3,.5-3.02,1.54Z"/><path d="M442.26,206.56c.61-.85,1.27-1.46,1.96-1.8,.64-.34,1.4-.5,2.33-.5,1.4,0,2.57,.45,3.49,1.4,.9,.93,1.38,2.14,1.38,3.68v8.97h-2.81v-8.5c0-1.11-.24-1.93-.71-2.44-.48-.53-1.27-.77-2.33-.77-.79,0-1.43,.29-1.96,.87-.53,.58-.79,1.4-.79,2.41v8.42h-2.81v-8.47c0-2.17-.95-3.23-2.81-3.23-.9,0-1.64,.34-2.17,1.03-.58,.66-.85,1.48-.85,2.44v8.23h-2.81v-13.69h2.81v1.51c1.11-1.27,2.38-1.88,3.76-1.88,2.01,0,3.47,.77,4.32,2.3Z"/><path d="M465.5,206.54c1.06,1.38,1.61,3.28,1.64,5.72h-10.38c.11,1.32,.45,2.36,1.09,3.07,.64,.69,1.51,1.06,2.62,1.06,.98,0,1.77-.24,2.38-.69,.48-.37,.87-.98,1.24-1.77h2.81c-.32,1.27-.93,2.36-1.88,3.2-1.19,1.03-2.7,1.56-4.53,1.56-2.01,0-3.63-.64-4.79-1.88-1.27-1.32-1.91-3.1-1.91-5.35,0-2.04,.58-3.73,1.8-5.11,1.16-1.4,2.78-2.09,4.79-2.09,2.22,0,3.94,.74,5.11,2.28Zm-7.55,.95c-.58,.61-.98,1.48-1.14,2.65h7.39c-.26-2.38-1.51-3.57-3.73-3.57-1.06,0-1.88,.29-2.51,.93Z"/><path d="M482.49,204.63h3.12v2.33h-3.12v7.94c0,.37,.08,.64,.24,.82,.16,.16,.4,.26,.74,.26h1.8v2.33h-2.25c-1.16,0-2.04-.32-2.57-.93-.53-.58-.77-1.4-.77-2.49v-7.94h-2.54v-2.33h2.54v-3.26l2.81-1.17v4.42Z"/><path d="M499.14,206.33c1.22,1.35,1.85,3.07,1.85,5.16s-.61,3.79-1.83,5.11c-1.27,1.38-2.94,2.09-5,2.09s-3.73-.71-5-2.09c-1.22-1.32-1.83-3.04-1.83-5.11s.61-3.81,1.85-5.16c1.24-1.38,2.91-2.06,4.98-2.06s3.73,.69,4.98,2.06Zm-8,1.77c-.64,.87-.93,2.01-.93,3.39s.29,2.49,.93,3.36c.71,1.01,1.72,1.54,3.02,1.54s2.3-.53,3.04-1.54c.64-.9,.95-2.01,.95-3.36s-.32-2.52-.95-3.39c-.74-1.03-1.75-1.54-3.04-1.54s-2.3,.5-3.02,1.54Z"/><path d="M516.63,204.63h3.12v2.33h-3.12v7.94c0,.37,.08,.64,.24,.82,.16,.16,.4,.26,.74,.26h1.8v2.33h-2.25c-1.17,0-2.04-.32-2.57-.93-.53-.58-.77-1.4-.77-2.49v-7.94h-2.54v-2.33h2.54v-3.26l2.81-1.17v4.42Z"/><path d="M524.81,199.04v7.52c.5-.79,1.14-1.4,1.91-1.77,.69-.37,1.46-.53,2.33-.53,1.64,0,2.89,.48,3.73,1.46,.79,.93,1.19,2.3,1.19,4.1v8.5h-2.81v-8.02c0-1.22-.26-2.12-.74-2.75-.53-.66-1.35-.98-2.41-.98-.95,0-1.72,.37-2.3,1.14-.61,.77-.9,1.75-.9,2.94v7.68h-2.81v-19.27h2.81Z"/><path d="M548.05,206.54c1.06,1.38,1.62,3.28,1.64,5.72h-10.38c.11,1.32,.45,2.36,1.09,3.07,.64,.69,1.51,1.06,2.62,1.06,.98,0,1.77-.24,2.38-.69,.48-.37,.87-.98,1.24-1.77h2.81c-.32,1.27-.93,2.36-1.88,3.2-1.19,1.03-2.7,1.56-4.53,1.56-2.01,0-3.63-.64-4.79-1.88-1.27-1.32-1.91-3.1-1.91-5.35,0-2.04,.58-3.73,1.8-5.11,1.17-1.4,2.78-2.09,4.79-2.09,2.22,0,3.94,.74,5.11,2.28Zm-7.54,.95c-.58,.61-.98,1.48-1.14,2.65h7.39c-.27-2.38-1.51-3.57-3.73-3.57-1.06,0-1.88,.29-2.52,.93Z"/><path d="M562.52,204.63l2.89,10.35,2.81-10.35h2.59l2.81,10.35,2.89-10.35h3.1l-4.63,13.69h-2.59l-2.86-10.25-2.86,10.25h-2.59l-4.63-13.69h3.1Z"/><path d="M592.22,206.54c1.06,1.38,1.62,3.28,1.64,5.72h-10.38c.11,1.32,.45,2.36,1.09,3.07,.64,.69,1.51,1.06,2.62,1.06,.98,0,1.77-.24,2.38-.69,.48-.37,.87-.98,1.24-1.77h2.81c-.32,1.27-.93,2.36-1.88,3.2-1.19,1.03-2.7,1.56-4.53,1.56-2.01,0-3.63-.64-4.79-1.88-1.27-1.32-1.91-3.1-1.91-5.35,0-2.04,.58-3.73,1.8-5.11,1.17-1.4,2.78-2.09,4.79-2.09,2.22,0,3.94,.74,5.11,2.28Zm-7.54,.95c-.58,.61-.98,1.48-1.14,2.65h7.39c-.27-2.38-1.51-3.57-3.73-3.57-1.06,0-1.88,.29-2.52,.93Z"/><path d="M599.05,199.04v7.62c1.11-1.62,2.49-2.41,4.18-2.41,1.96,0,3.49,.71,4.63,2.14,1.03,1.32,1.56,2.99,1.56,5s-.53,3.81-1.59,5.14c-1.17,1.43-2.73,2.14-4.74,2.14-1.88,0-3.28-.69-4.24-2.01v1.64h-2.62v-19.27h2.81Zm1.01,8.74c-.74,.9-1.09,2.09-1.09,3.57v.24c0,1.38,.29,2.49,.87,3.36,.66,.95,1.61,1.46,2.83,1.46,1.38,0,2.38-.5,3.04-1.48,.53-.85,.82-2.01,.82-3.52s-.29-2.67-.87-3.47c-.66-.95-1.69-1.4-3.07-1.4-1.06,0-1.91,.4-2.54,1.24Z"/><path d="M623,208.58h-2.73c-.21-.74-.53-1.24-.98-1.54-.48-.32-1.22-.48-2.17-.48-.85,0-1.48,.11-1.91,.37-.5,.26-.74,.69-.74,1.22,0,.48,.37,.87,1.11,1.22,.48,.21,1.38,.48,2.75,.82,1.56,.37,2.73,.82,3.47,1.3,1.09,.69,1.64,1.64,1.64,2.86,0,2.89-2.04,4.34-6.09,4.34-3.76,0-5.77-1.62-6.09-4.79h2.75c.16,.93,.5,1.59,.98,1.96,.48,.34,1.22,.53,2.28,.53,2.17,0,3.28-.64,3.28-1.85,0-.66-.42-1.19-1.22-1.56-.42-.21-1.35-.48-2.75-.79-1.62-.37-2.75-.77-3.39-1.19-1.06-.66-1.59-1.59-1.59-2.75,0-1.24,.5-2.22,1.54-2.91,1.03-.71,2.38-1.06,4.02-1.06,3.55,0,5.51,1.43,5.82,4.32Z"/><path d="M629.22,199.68c.37,.34,.56,.79,.56,1.35s-.21,1.01-.58,1.38c-.37,.34-.85,.53-1.38,.53-.56,0-1.01-.18-1.38-.53-.37-.37-.56-.85-.56-1.38,0-.56,.19-1.01,.56-1.35,.37-.37,.82-.53,1.38-.53s1.03,.16,1.4,.53Zm0,4.95v13.69h-2.81v-13.69h2.81Z"/><path d="M637.16,204.63h3.12v2.33h-3.12v7.94c0,.37,.08,.64,.24,.82,.16,.16,.4,.26,.74,.26h1.8v2.33h-2.25c-1.17,0-2.04-.32-2.57-.93-.53-.58-.77-1.4-.77-2.49v-7.94h-2.54v-2.33h2.54v-3.26l2.81-1.17v4.42Z"/><path d="M653.44,206.54c1.06,1.38,1.62,3.28,1.64,5.72h-10.38c.11,1.32,.45,2.36,1.09,3.07,.64,.69,1.51,1.06,2.62,1.06,.98,0,1.77-.24,2.38-.69,.48-.37,.87-.98,1.24-1.77h2.81c-.32,1.27-.93,2.36-1.88,3.2-1.19,1.03-2.7,1.56-4.53,1.56-2.01,0-3.63-.64-4.79-1.88-1.27-1.32-1.91-3.1-1.91-5.35,0-2.04,.58-3.73,1.8-5.11,1.17-1.4,2.78-2.09,4.79-2.09,2.22,0,3.94,.74,5.11,2.28Zm-7.54,.95c-.58,.61-.98,1.48-1.14,2.65h7.39c-.27-2.38-1.51-3.57-3.73-3.57-1.06,0-1.88,.29-2.52,.93Z"/><path d="M677.55,206.33c1.22,1.35,1.85,3.07,1.85,5.16s-.61,3.79-1.83,5.11c-1.27,1.38-2.94,2.09-5,2.09s-3.73-.71-5-2.09c-1.22-1.32-1.83-3.04-1.83-5.11s.61-3.81,1.85-5.16c1.24-1.38,2.91-2.06,4.98-2.06s3.73,.69,4.98,2.06Zm-8,1.77c-.64,.87-.93,2.01-.93,3.39s.29,2.49,.93,3.36c.71,1.01,1.72,1.54,3.02,1.54s2.3-.53,3.04-1.54c.64-.9,.95-2.01,.95-3.36s-.32-2.52-.95-3.39c-.74-1.03-1.75-1.54-3.04-1.54s-2.3,.5-3.02,1.54Z"/><path d="M690.33,199.42v2.38h-2.46c-.45,0-.79,.11-1.01,.34-.21,.21-.32,.58-.32,1.09v1.4h3.6v2.3h-3.6v11.38h-2.78v-11.38h-3.15v-2.3h3.15v-1.48c0-1.16,.32-2.09,.95-2.73,.64-.69,1.54-1.01,2.75-1.01h2.86Z"/><path d="M377.43,235.46c1.59,1.77,2.38,4.13,2.38,7.04s-.79,5.22-2.38,7.02c-1.67,1.85-3.94,2.78-6.8,2.78s-5.16-.95-6.8-2.81c-1.59-1.8-2.36-4.13-2.36-6.99s.77-5.21,2.36-7.02c1.64-1.91,3.92-2.83,6.8-2.83s5.14,.93,6.8,2.81Zm-11.49,1.77c-1.06,1.3-1.59,3.04-1.59,5.27s.53,3.94,1.59,5.24c1.11,1.32,2.67,2.01,4.69,2.01s3.57-.66,4.66-1.96c1.06-1.27,1.61-3.04,1.61-5.29s-.56-4.05-1.61-5.35c-1.09-1.32-2.65-1.96-4.66-1.96s-3.57,.66-4.69,2.04Z"/><path d="M385.63,233.02l9.66,14.06h.11v-14.06h2.89v18.9h-2.81l-9.77-14.22h-.11v14.22h-2.89v-18.9h2.91Z"/><path d="M415.6,233.02v2.46h-10.7v5.51h10.06v2.46h-10.06v6.01h11.15v2.46h-14.03v-18.9h13.58Z"/><path d="M439.57,234.06c1.32,.98,2.06,2.49,2.25,4.55h-2.86c-.26-1.22-.74-2.12-1.48-2.65-.74-.56-1.8-.82-3.23-.82-1.24,0-2.2,.18-2.86,.56-.82,.42-1.22,1.11-1.22,2.06,0,.85,.45,1.51,1.4,2.01,.42,.24,1.51,.63,3.28,1.17,2.54,.79,4.21,1.4,4.95,1.85,1.61,.98,2.44,2.33,2.44,4.08s-.66,3.02-1.99,4c-1.32,.95-3.18,1.43-5.56,1.43s-4.1-.48-5.4-1.38c-1.56-1.11-2.41-2.86-2.57-5.24h2.86c.21,1.48,.74,2.57,1.59,3.2,.77,.58,1.93,.87,3.52,.87,1.43,0,2.57-.26,3.42-.74s1.27-1.14,1.27-1.99c0-1.06-.61-1.88-1.8-2.49-.42-.21-1.67-.63-3.76-1.27-2.33-.74-3.76-1.24-4.34-1.56-1.46-.87-2.17-2.14-2.17-3.79s.69-2.96,2.09-3.92c1.32-.9,2.99-1.35,5-1.35,2.2,0,3.92,.45,5.16,1.4Z"/><path d="M447.8,233.02v7.97h9.9v-7.97h2.89v18.9h-2.89v-8.47h-9.9v8.47h-2.89v-18.9h2.89Z"/><path d="M477.87,233.02v2.46h-10.7v5.51h10.06v2.46h-10.06v6.01h11.15v2.46h-14.03v-18.9h13.58Z"/><path d="M494.84,233.02v2.46h-10.7v5.51h10.06v2.46h-10.06v6.01h11.15v2.46h-14.03v-18.9h13.58Z"/><path d="M506.06,233.02c4.5,0,6.75,1.91,6.75,5.75s-2.28,5.8-6.8,5.8h-4.9v7.36h-2.89v-18.9h7.84Zm-4.95,9.08h4.71c1.43,0,2.46-.26,3.12-.79,.64-.53,.98-1.38,.98-2.54s-.34-2.01-1.01-2.49c-.66-.53-1.69-.79-3.1-.79h-4.71v6.62Z"/><path d="M518.97,248.96c.42,.58,.64,1.3,.64,2.2,0,1.35-.4,2.51-1.16,3.52-.79,1.01-1.85,1.69-3.18,2.07v-1.64c.69-.26,1.3-.66,1.77-1.24,.45-.61,.69-1.22,.69-1.85-.16,.05-.37,.08-.66,.08-.53,0-1.01-.19-1.38-.56-.37-.37-.56-.85-.56-1.4,0-.61,.19-1.09,.61-1.46,.37-.37,.87-.53,1.51-.53,.69,0,1.24,.26,1.72,.82Z"/><path d="M545.52,233.02v2.46h-6.3v16.44h-2.86v-16.44h-6.33v-2.46h15.49Z"/><path d="M549.33,233.02l3.68,14.72h.11l3.87-14.72h3.02l3.87,14.72h.11l3.68-14.72h3.26l-5.45,18.9h-3.07l-3.84-14.59h-.11l-3.84,14.59h-3.1l-5.43-18.9h3.26Z"/><path d="M588.05,235.46c1.59,1.77,2.38,4.13,2.38,7.04s-.79,5.22-2.38,7.02c-1.67,1.85-3.94,2.78-6.8,2.78s-5.16-.95-6.8-2.81c-1.59-1.8-2.36-4.13-2.36-6.99s.77-5.21,2.36-7.02c1.64-1.91,3.92-2.83,6.8-2.83s5.14,.93,6.8,2.81Zm-11.49,1.77c-1.06,1.3-1.59,3.04-1.59,5.27s.53,3.94,1.59,5.24c1.11,1.32,2.67,2.01,4.69,2.01s3.57-.66,4.66-1.96c1.06-1.27,1.61-3.04,1.61-5.29s-.56-4.05-1.61-5.35c-1.09-1.32-2.65-1.96-4.66-1.96s-3.57,.66-4.69,2.04Z"/><path d="M613.94,234.06c1.32,.98,2.06,2.49,2.25,4.55h-2.86c-.27-1.22-.74-2.12-1.48-2.65-.74-.56-1.8-.82-3.23-.82-1.24,0-2.2,.18-2.86,.56-.82,.42-1.22,1.11-1.22,2.06,0,.85,.45,1.51,1.4,2.01,.42,.24,1.51,.63,3.28,1.17,2.54,.79,4.21,1.4,4.95,1.85,1.61,.98,2.44,2.33,2.44,4.08s-.66,3.02-1.99,4c-1.32,.95-3.18,1.43-5.56,1.43s-4.1-.48-5.4-1.38c-1.56-1.11-2.41-2.86-2.57-5.24h2.86c.21,1.48,.74,2.57,1.59,3.2,.77,.58,1.93,.87,3.52,.87,1.43,0,2.57-.26,3.42-.74s1.27-1.14,1.27-1.99c0-1.06-.61-1.88-1.8-2.49-.42-.21-1.67-.63-3.76-1.27-2.33-.74-3.76-1.24-4.34-1.56-1.46-.87-2.17-2.14-2.17-3.79s.69-2.96,2.09-3.92c1.32-.9,2.99-1.35,5-1.35,2.2,0,3.92,.45,5.16,1.4Z"/><path d="M622.14,233.02v16.44h10.4v2.46h-13.26v-18.9h2.86Z"/><path d="M648.5,233.02v2.46h-10.7v5.51h10.06v2.46h-10.06v6.01h11.15v2.46h-14.03v-18.9h13.58Z"/><path d="M665.47,233.02v2.46h-10.7v5.51h10.06v2.46h-10.06v6.01h11.15v2.46h-14.03v-18.9h13.58Z"/><path d="M676.69,233.02c4.5,0,6.75,1.91,6.75,5.75s-2.28,5.8-6.8,5.8h-4.9v7.36h-2.89v-18.9h7.84Zm-4.95,9.08h4.71c1.43,0,2.46-.26,3.12-.79,.64-.53,.98-1.38,.98-2.54s-.34-2.01-1.01-2.49c-.66-.53-1.69-.79-3.1-.79h-4.71v6.62Z"/><path d="M689.26,248.7c.37,.37,.58,.85,.58,1.43,0,.53-.21,1.01-.58,1.4-.4,.34-.87,.53-1.4,.53-.58,0-1.03-.19-1.38-.53-.4-.4-.58-.87-.58-1.4,0-.58,.19-1.06,.58-1.43,.34-.37,.79-.56,1.38-.56,.53,0,1.01,.19,1.4,.56Z"/><path d="M318.01,266.63l7.28,18.9h-3.1l-1.77-4.87h-8.13l-1.77,4.87h-3.07l7.28-18.9h3.28Zm1.54,11.65l-3.12-8.55h-.11l-3.15,8.55h6.38Z"/><path d="M337.81,275.79h-2.73c-.21-.74-.53-1.24-.98-1.54-.48-.32-1.22-.48-2.17-.48-.85,0-1.48,.11-1.91,.37-.5,.26-.74,.69-.74,1.22,0,.48,.37,.87,1.11,1.22,.48,.21,1.38,.48,2.75,.82,1.56,.37,2.73,.82,3.47,1.3,1.09,.69,1.64,1.64,1.64,2.86,0,2.89-2.04,4.34-6.09,4.34-3.76,0-5.77-1.62-6.09-4.79h2.75c.16,.93,.5,1.59,.98,1.96,.48,.34,1.22,.53,2.28,.53,2.17,0,3.28-.64,3.28-1.85,0-.66-.42-1.19-1.22-1.56-.42-.21-1.35-.48-2.75-.79-1.61-.37-2.75-.77-3.39-1.19-1.06-.66-1.59-1.59-1.59-2.75,0-1.24,.5-2.22,1.54-2.91,1.03-.71,2.38-1.06,4.02-1.06,3.55,0,5.51,1.43,5.82,4.32Z"/><path d="M344.03,266.9c.37,.34,.56,.79,.56,1.35s-.21,1.01-.58,1.38c-.37,.34-.85,.53-1.38,.53-.56,0-1.01-.18-1.38-.53-.37-.37-.56-.85-.56-1.38,0-.56,.19-1.01,.56-1.35,.37-.37,.82-.53,1.38-.53s1.03,.16,1.4,.53Zm0,4.95v13.69h-2.81v-13.69h2.81Z"/><path d="M360.47,266.26v19.27h-2.62v-1.64c-.95,1.32-2.38,2.01-4.24,2.01-2.01,0-3.6-.71-4.74-2.14-1.06-1.32-1.59-3.04-1.59-5.14s.5-3.68,1.56-5c1.11-1.43,2.67-2.14,4.63-2.14,1.67,0,3.07,.79,4.18,2.41v-7.62h2.81Zm-9.42,8.9c-.58,.79-.87,1.96-.87,3.47s.26,2.67,.82,3.52c.64,.98,1.67,1.48,3.04,1.48,1.22,0,2.14-.5,2.83-1.46,.58-.87,.87-1.99,.87-3.36v-.24c0-1.48-.37-2.67-1.06-3.57-.69-.85-1.54-1.24-2.57-1.24-1.38,0-2.41,.45-3.07,1.4Z"/><path d="M374.55,273.75c1.06,1.38,1.61,3.28,1.64,5.72h-10.38c.11,1.32,.45,2.36,1.09,3.07,.64,.69,1.51,1.06,2.62,1.06,.98,0,1.77-.24,2.38-.69,.48-.37,.87-.98,1.24-1.77h2.81c-.32,1.27-.93,2.36-1.88,3.2-1.19,1.03-2.7,1.56-4.53,1.56-2.01,0-3.63-.64-4.79-1.88-1.27-1.32-1.91-3.1-1.91-5.35,0-2.04,.58-3.73,1.8-5.11,1.16-1.4,2.78-2.09,4.79-2.09,2.22,0,3.94,.74,5.11,2.28Zm-7.54,.95c-.58,.61-.98,1.48-1.14,2.65h7.39c-.26-2.38-1.51-3.57-3.73-3.57-1.06,0-1.88,.29-2.51,.93Z"/><path d="M395.64,266.63v2.38h-2.46c-.45,0-.79,.11-1.01,.34-.21,.21-.32,.58-.32,1.09v1.4h3.6v2.3h-3.6v11.38h-2.78v-11.38h-3.15v-2.3h3.15v-1.48c0-1.16,.32-2.09,.95-2.73,.64-.69,1.54-1.01,2.75-1.01h2.86Z"/><path d="M405.48,271.82v2.81c-.69-.21-1.35-.29-1.99-.29-.85,0-1.61,.34-2.28,1.03-.71,.74-1.06,1.72-1.06,2.91v7.25h-2.81v-13.69h2.81v2.07c.34-.74,.79-1.3,1.32-1.67,.64-.53,1.38-.77,2.22-.77,.69,0,1.3,.11,1.77,.34Z"/><path d="M418.48,273.54c1.22,1.35,1.85,3.07,1.85,5.16s-.61,3.79-1.83,5.11c-1.27,1.38-2.94,2.09-5,2.09s-3.73-.71-5-2.09c-1.22-1.32-1.83-3.04-1.83-5.11s.61-3.81,1.85-5.16c1.24-1.38,2.91-2.06,4.98-2.06s3.73,.69,4.98,2.06Zm-8,1.77c-.64,.87-.93,2.01-.93,3.39s.29,2.49,.93,3.36c.71,1.01,1.72,1.54,3.02,1.54s2.3-.53,3.04-1.54c.64-.9,.95-2.01,.95-3.36s-.32-2.52-.95-3.39c-.74-1.03-1.75-1.54-3.04-1.54s-2.3,.5-3.02,1.54Z"/><path d="M433.88,273.78c.61-.85,1.27-1.46,1.96-1.8,.64-.34,1.4-.5,2.33-.5,1.4,0,2.57,.45,3.49,1.4,.9,.93,1.38,2.14,1.38,3.68v8.97h-2.81v-8.5c0-1.11-.24-1.93-.71-2.44-.48-.53-1.27-.77-2.33-.77-.79,0-1.43,.29-1.96,.87-.53,.58-.79,1.4-.79,2.41v8.42h-2.81v-8.47c0-2.17-.95-3.23-2.81-3.23-.9,0-1.64,.34-2.17,1.03-.58,.66-.85,1.48-.85,2.44v8.23h-2.81v-13.69h2.81v1.51c1.11-1.27,2.38-1.88,3.76-1.88,2.01,0,3.47,.77,4.32,2.3Z"/><path d="M466.31,273.54c1.22,1.35,1.85,3.07,1.85,5.16s-.61,3.79-1.83,5.11c-1.27,1.38-2.94,2.09-5,2.09s-3.73-.71-5-2.09c-1.22-1.32-1.83-3.04-1.83-5.11s.61-3.81,1.85-5.16c1.24-1.38,2.91-2.06,4.98-2.06s3.73,.69,4.98,2.06Zm-8,1.77c-.64,.87-.93,2.01-.93,3.39s.29,2.49,.93,3.36c.71,1.01,1.72,1.54,3.02,1.54s2.3-.53,3.04-1.54c.64-.9,.95-2.01,.95-3.36s-.32-2.52-.95-3.39c-.74-1.03-1.75-1.54-3.04-1.54s-2.3,.5-3.02,1.54Z"/><path d="M473.63,271.85v8.34c0,1.17,.24,2.01,.74,2.54,.48,.53,1.27,.82,2.36,.82,.74,0,1.4-.32,2.04-.9,.64-.61,1.09-1.43,1.32-2.44v-8.37h2.81v13.69h-2.81v-1.85c-1.17,1.48-2.59,2.22-4.32,2.22-3.31,0-4.95-1.85-4.95-5.53v-8.53h2.81Z"/><path d="M494.23,271.82v2.81c-.69-.21-1.35-.29-1.99-.29-.85,0-1.61,.34-2.28,1.03-.71,.74-1.06,1.72-1.06,2.91v7.25h-2.81v-13.69h2.81v2.07c.34-.74,.79-1.3,1.32-1.67,.64-.53,1.38-.77,2.22-.77,.69,0,1.3,.11,1.77,.34Z"/><path d="M511.91,266.63c3.04,0,5.35,.85,6.94,2.57,1.48,1.59,2.22,3.89,2.22,6.88s-.77,5.27-2.28,6.91c-1.59,1.69-3.89,2.54-6.94,2.54h-6.83v-18.9h6.88Zm-4,16.44h3.42c2.38,0,4.16-.58,5.27-1.72,1.09-1.14,1.64-2.89,1.64-5.27s-.56-4.18-1.61-5.29c-1.11-1.14-2.86-1.69-5.24-1.69h-3.47v13.98Z"/><path d="M532.36,266.63c1.91,0,3.44,.42,4.55,1.3,1.17,.95,1.75,2.3,1.75,4.1,0,1.01-.27,1.88-.79,2.65-.61,.85-1.43,1.4-2.46,1.67v.05c1.69,.37,2.62,1.48,2.83,3.34l.32,3.02c.11,1.16,.48,2.09,1.11,2.78h-3.12c-.45-.58-.71-1.43-.82-2.49l-.24-2.36c-.11-1.06-.45-1.8-1.01-2.28-.58-.48-1.4-.69-2.49-.69h-5.11v7.81h-2.89v-18.9h8.37Zm-5.48,8.63h5.11c1.27,0,2.22-.29,2.86-.82,.61-.53,.93-1.3,.93-2.3,0-1.06-.32-1.83-.9-2.3-.64-.5-1.59-.74-2.91-.74h-5.08v6.17Z"/><path d="M555.9,266.63v2.46h-10.7v5.51h10.06v2.46h-10.06v6.01h11.15v2.46h-14.03v-18.9h13.58Z"/><path d="M567.99,266.63l7.28,18.9h-3.1l-1.77-4.87h-8.13l-1.77,4.87h-3.07l7.28-18.9h3.28Zm1.54,11.65l-3.12-8.55h-.11l-3.15,8.55h6.38Z"/><path d="M580.53,266.63l6.59,15.14h.08l6.57-15.14h3.42v18.9h-2.89v-13.5h-.11l-5.8,13.5h-2.49l-5.8-13.5h-.11v13.5h-2.89v-18.9h3.42Z"/><path d="M614.54,267.98c1.38,1.11,2.22,2.65,2.52,4.55h-2.81c-.32-1.27-.93-2.22-1.83-2.83-.9-.61-2.01-.9-3.39-.9-2.04,0-3.57,.69-4.61,2.09-.98,1.27-1.46,3.02-1.46,5.21s.48,4.02,1.43,5.27c1.01,1.32,2.57,1.99,4.69,1.99,1.38,0,2.54-.34,3.44-1.03,.95-.74,1.61-1.85,1.99-3.34h2.81c-.42,2.2-1.4,3.92-2.96,5.16-1.46,1.17-3.2,1.75-5.24,1.75-3.1,0-5.43-1.01-6.99-2.97-1.38-1.69-2.04-3.97-2.04-6.83s.69-5.08,2.12-6.86c1.59-2.01,3.87-2.99,6.88-2.99,2.2,0,4.02,.56,5.45,1.72Z"/><path d="M628.94,266.63l7.28,18.9h-3.1l-1.77-4.87h-8.13l-1.77,4.87h-3.07l7.28-18.9h3.28Zm1.54,11.65l-3.12-8.55h-.11l-3.15,8.55h6.38Z"/><path d="M646.44,266.63c1.91,0,3.44,.42,4.55,1.3,1.17,.95,1.75,2.3,1.75,4.1,0,1.01-.26,1.88-.79,2.65-.61,.85-1.43,1.4-2.46,1.67v.05c1.69,.37,2.62,1.48,2.83,3.34l.32,3.02c.11,1.16,.48,2.09,1.11,2.78h-3.12c-.45-.58-.71-1.43-.82-2.49l-.24-2.36c-.11-1.06-.45-1.8-1.01-2.28-.58-.48-1.4-.69-2.49-.69h-5.11v7.81h-2.89v-18.9h8.37Zm-5.48,8.63h5.11c1.27,0,2.22-.29,2.86-.82,.61-.53,.93-1.3,.93-2.3,0-1.06-.32-1.83-.9-2.3-.64-.5-1.59-.74-2.91-.74h-5.08v6.17Z"/><path d="M663.27,266.63c3.04,0,5.35,.85,6.94,2.57,1.48,1.59,2.22,3.89,2.22,6.88s-.77,5.27-2.28,6.91c-1.59,1.69-3.89,2.54-6.94,2.54h-6.83v-18.9h6.88Zm-4,16.44h3.42c2.38,0,4.16-.58,5.27-1.72,1.09-1.14,1.64-2.89,1.64-5.27s-.56-4.18-1.61-5.29c-1.11-1.14-2.86-1.69-5.24-1.69h-3.47v13.98Z"/><path d="M694.53,272.98c.82,.87,1.24,2.14,1.24,3.81v8.74h-2.59v-1.93c-.53,.69-1.19,1.24-1.99,1.64-.9,.42-1.96,.66-3.18,.66-1.43,0-2.54-.37-3.34-1.09-.87-.71-1.3-1.64-1.3-2.78,0-1.54,.61-2.73,1.83-3.55,1.11-.79,2.7-1.19,4.71-1.24l3.07-.08v-.56c0-1.91-1.03-2.86-3.1-2.86-.87,0-1.59,.16-2.12,.48-.64,.37-1.03,.93-1.19,1.69l-2.78-.24c.29-1.48,1.03-2.59,2.2-3.28,1.01-.64,2.38-.93,4.08-.93,2.01,0,3.49,.5,4.45,1.51Zm-4.42,6.3c-2.57,.05-3.84,.95-3.84,2.65,0,.53,.21,.95,.66,1.3,.42,.34,1.01,.53,1.72,.53,1.19,0,2.2-.37,3.04-1.09s1.3-1.61,1.3-2.67v-.79l-2.89,.08Z"/><path d="M707.1,271.82v2.81c-.69-.21-1.35-.29-1.99-.29-.85,0-1.61,.34-2.28,1.03-.71,.74-1.06,1.72-1.06,2.91v7.25h-2.81v-13.69h2.81v2.07c.34-.74,.79-1.3,1.32-1.67,.64-.53,1.38-.77,2.22-.77,.69,0,1.3,.11,1.77,.34Z"/><path d="M719.72,273.75c1.06,1.38,1.62,3.28,1.64,5.72h-10.38c.11,1.32,.45,2.36,1.09,3.07,.64,.69,1.51,1.06,2.62,1.06,.98,0,1.77-.24,2.38-.69,.48-.37,.87-.98,1.24-1.77h2.81c-.32,1.27-.93,2.36-1.88,3.2-1.19,1.03-2.7,1.56-4.53,1.56-2.01,0-3.63-.64-4.79-1.88-1.27-1.32-1.91-3.1-1.91-5.35,0-2.04,.58-3.73,1.8-5.11,1.17-1.4,2.78-2.09,4.79-2.09,2.22,0,3.94,.74,5.11,2.28Zm-7.54,.95c-.58,.61-.98,1.48-1.14,2.65h7.39c-.27-2.38-1.51-3.57-3.73-3.57-1.06,0-1.88,.29-2.52,.93Z"/><path d="M734.36,272.98c.82,.87,1.24,2.14,1.24,3.81v8.74h-2.59v-1.93c-.53,.69-1.19,1.24-1.99,1.64-.9,.42-1.96,.66-3.18,.66-1.43,0-2.54-.37-3.34-1.09-.87-.71-1.3-1.64-1.3-2.78,0-1.54,.61-2.73,1.83-3.55,1.11-.79,2.7-1.19,4.71-1.24l3.07-.08v-.56c0-1.91-1.03-2.86-3.1-2.86-.87,0-1.59,.16-2.12,.48-.64,.37-1.03,.93-1.19,1.69l-2.78-.24c.29-1.48,1.03-2.59,2.2-3.28,1.01-.64,2.38-.93,4.08-.93,2.01,0,3.49,.5,4.45,1.51Zm-4.42,6.3c-2.57,.05-3.84,.95-3.84,2.65,0,.53,.21,.95,.66,1.3,.42,.34,1.01,.53,1.72,.53,1.19,0,2.2-.37,3.04-1.09s1.3-1.61,1.3-2.67v-.79l-2.89,.08Z"/><path d="M742.56,282.57c.42,.58,.64,1.3,.64,2.2,0,1.35-.4,2.51-1.16,3.52-.79,1.01-1.85,1.69-3.18,2.07v-1.64c.69-.26,1.3-.66,1.77-1.24,.45-.61,.69-1.22,.69-1.85-.16,.05-.37,.08-.66,.08-.53,0-1.01-.19-1.38-.56-.37-.37-.56-.85-.56-1.4,0-.61,.19-1.09,.61-1.46,.37-.37,.87-.53,1.51-.53,.69,0,1.24,.26,1.72,.82Z"/><path d="M383.85,299.87v7.52c.5-.79,1.14-1.4,1.91-1.77,.69-.37,1.46-.53,2.33-.53,1.64,0,2.89,.48,3.73,1.46,.79,.93,1.19,2.3,1.19,4.1v8.5h-2.81v-8.02c0-1.22-.26-2.12-.74-2.75-.53-.66-1.35-.98-2.41-.98-.95,0-1.72,.37-2.3,1.14-.61,.77-.9,1.75-.9,2.94v7.68h-2.81v-19.27h2.81Z"/><path d="M407.09,307.36c1.06,1.38,1.61,3.28,1.64,5.72h-10.38c.11,1.32,.45,2.36,1.09,3.07,.64,.69,1.51,1.06,2.62,1.06,.98,0,1.77-.24,2.38-.69,.48-.37,.87-.98,1.24-1.77h2.81c-.32,1.27-.93,2.36-1.88,3.2-1.19,1.03-2.7,1.56-4.53,1.56-2.01,0-3.63-.64-4.79-1.88-1.27-1.32-1.91-3.1-1.91-5.35,0-2.04,.58-3.73,1.8-5.11,1.16-1.4,2.78-2.09,4.79-2.09,2.22,0,3.94,.74,5.11,2.28Zm-7.54,.95c-.58,.61-.98,1.48-1.14,2.65h7.39c-.26-2.38-1.51-3.57-3.73-3.57-1.06,0-1.88,.29-2.51,.93Z"/><path d="M419.23,305.43v2.81c-.69-.21-1.35-.29-1.99-.29-.85,0-1.61,.34-2.28,1.03-.71,.74-1.06,1.72-1.06,2.91v7.25h-2.81v-13.69h2.81v2.07c.34-.74,.79-1.3,1.32-1.67,.64-.53,1.38-.77,2.22-.77,.69,0,1.3,.11,1.77,.34Z"/><path d="M431.86,307.36c1.06,1.38,1.61,3.28,1.64,5.72h-10.38c.11,1.32,.45,2.36,1.09,3.07,.64,.69,1.51,1.06,2.62,1.06,.98,0,1.77-.24,2.38-.69,.48-.37,.87-.98,1.24-1.77h2.81c-.32,1.27-.93,2.36-1.88,3.2-1.19,1.03-2.7,1.56-4.53,1.56-2.01,0-3.63-.64-4.79-1.88-1.27-1.32-1.91-3.1-1.91-5.35,0-2.04,.58-3.73,1.8-5.11,1.16-1.4,2.78-2.09,4.79-2.09,2.22,0,3.94,.74,5.11,2.28Zm-7.55,.95c-.58,.61-.98,1.48-1.14,2.65h7.39c-.26-2.38-1.51-3.57-3.73-3.57-1.06,0-1.88,.29-2.51,.93Z"/><path d="M440.11,297.83c.45,.56,.69,1.3,.69,2.2,0,1.32-.4,2.51-1.19,3.52-.79,1.01-1.85,1.67-3.18,2.04v-1.64c.71-.24,1.3-.66,1.77-1.24,.48-.61,.69-1.22,.69-1.85-.13,.05-.34,.11-.64,.11-.53,0-.98-.21-1.35-.58-.4-.37-.58-.82-.58-1.4s.19-1.06,.56-1.43c.4-.37,.9-.56,1.54-.56,.69,0,1.27,.27,1.69,.85Z"/><path d="M456.45,309.4h-2.73c-.21-.74-.53-1.24-.98-1.54-.48-.32-1.22-.48-2.17-.48-.85,0-1.48,.11-1.91,.37-.5,.26-.74,.69-.74,1.22,0,.48,.37,.87,1.11,1.22,.48,.21,1.38,.48,2.75,.82,1.56,.37,2.73,.82,3.47,1.3,1.09,.69,1.64,1.64,1.64,2.86,0,2.89-2.04,4.34-6.09,4.34-3.76,0-5.77-1.62-6.09-4.79h2.75c.16,.93,.5,1.59,.98,1.96,.48,.34,1.22,.53,2.28,.53,2.17,0,3.28-.64,3.28-1.85,0-.66-.42-1.19-1.22-1.56-.42-.21-1.35-.48-2.75-.79-1.61-.37-2.75-.77-3.39-1.19-1.06-.66-1.59-1.59-1.59-2.75,0-1.24,.5-2.22,1.54-2.91,1.03-.71,2.38-1.06,4.02-1.06,3.55,0,5.51,1.43,5.82,4.32Z"/><path d="M478.97,307.39c.61-.85,1.27-1.46,1.96-1.8,.64-.34,1.4-.5,2.33-.5,1.4,0,2.57,.45,3.49,1.4,.9,.93,1.38,2.14,1.38,3.68v8.97h-2.81v-8.5c0-1.11-.24-1.93-.71-2.44-.48-.53-1.27-.77-2.33-.77-.79,0-1.43,.29-1.96,.87-.53,.58-.79,1.4-.79,2.41v8.42h-2.81v-8.47c0-2.17-.95-3.23-2.81-3.23-.9,0-1.64,.34-2.17,1.03-.58,.66-.85,1.48-.85,2.44v8.23h-2.81v-13.69h2.81v1.51c1.11-1.27,2.38-1.88,3.76-1.88,2.01,0,3.47,.77,4.32,2.3Z"/><path d="M502.58,307.15c1.22,1.35,1.85,3.07,1.85,5.16s-.61,3.79-1.83,5.11c-1.27,1.38-2.94,2.09-5,2.09s-3.73-.71-5-2.09c-1.22-1.32-1.83-3.04-1.83-5.11s.61-3.81,1.85-5.16c1.24-1.38,2.91-2.06,4.98-2.06s3.73,.69,4.98,2.06Zm-8,1.77c-.64,.87-.93,2.01-.93,3.39s.29,2.49,.93,3.36c.71,1.01,1.72,1.54,3.02,1.54s2.3-.53,3.04-1.54c.64-.9,.95-2.01,.95-3.36s-.32-2.52-.95-3.39c-.74-1.03-1.75-1.54-3.04-1.54s-2.3,.5-3.02,1.54Z"/><path d="M515.23,305.43v2.81c-.69-.21-1.35-.29-1.99-.29-.85,0-1.61,.34-2.28,1.03-.71,.74-1.06,1.72-1.06,2.91v7.25h-2.81v-13.69h2.81v2.07c.34-.74,.79-1.3,1.32-1.67,.64-.53,1.38-.77,2.22-.77,.69,0,1.3,.11,1.77,.34Z"/><path d="M527.85,307.36c1.06,1.38,1.62,3.28,1.64,5.72h-10.38c.11,1.32,.45,2.36,1.09,3.07,.64,.69,1.51,1.06,2.62,1.06,.98,0,1.77-.24,2.38-.69,.48-.37,.87-.98,1.24-1.77h2.81c-.32,1.27-.93,2.36-1.88,3.2-1.19,1.03-2.7,1.56-4.53,1.56-2.01,0-3.63-.64-4.79-1.88-1.27-1.32-1.91-3.1-1.91-5.35,0-2.04,.58-3.73,1.8-5.11,1.17-1.4,2.78-2.09,4.79-2.09,2.22,0,3.94,.74,5.11,2.28Zm-7.54,.95c-.58,.61-.98,1.48-1.14,2.65h7.39c-.27-2.38-1.51-3.57-3.73-3.57-1.06,0-1.88,.29-2.52,.93Z"/><path d="M544.84,305.45h3.12v2.33h-3.12v7.94c0,.37,.08,.64,.24,.82,.16,.16,.4,.26,.74,.26h1.8v2.33h-2.25c-1.17,0-2.04-.32-2.57-.93-.53-.58-.77-1.4-.77-2.49v-7.94h-2.54v-2.33h2.54v-3.26l2.81-1.17v4.42Z"/><path d="M561.49,307.15c1.22,1.35,1.85,3.07,1.85,5.16s-.61,3.79-1.83,5.11c-1.27,1.38-2.94,2.09-5,2.09s-3.73-.71-5-2.09c-1.22-1.32-1.83-3.04-1.83-5.11s.61-3.81,1.85-5.16c1.24-1.38,2.91-2.06,4.98-2.06s3.73,.69,4.98,2.06Zm-8,1.77c-.64,.87-.93,2.01-.93,3.39s.29,2.49,.93,3.36c.71,1.01,1.72,1.54,3.02,1.54s2.3-.53,3.04-1.54c.64-.9,.95-2.01,.95-3.36s-.32-2.52-.95-3.39c-.74-1.03-1.75-1.54-3.04-1.54s-2.3,.5-3.02,1.54Z"/><path d="M585.73,307.36c1.06,1.38,1.62,3.28,1.64,5.72h-10.38c.11,1.32,.45,2.36,1.09,3.07,.64,.69,1.51,1.06,2.62,1.06,.98,0,1.77-.24,2.38-.69,.48-.37,.87-.98,1.24-1.77h2.81c-.32,1.27-.93,2.36-1.88,3.2-1.19,1.03-2.7,1.56-4.53,1.56-2.01,0-3.63-.64-4.79-1.88-1.27-1.32-1.91-3.1-1.91-5.35,0-2.04,.58-3.73,1.8-5.11,1.17-1.4,2.78-2.09,4.79-2.09,2.22,0,3.94,.74,5.11,2.28Zm-7.54,.95c-.58,.61-.98,1.48-1.14,2.65h7.39c-.27-2.38-1.51-3.57-3.73-3.57-1.06,0-1.88,.29-2.52,.93Z"/><path d="M592.19,305.45l3.02,4.34,2.99-4.34h3.28l-4.74,6.41,5.32,7.28h-3.28l-3.57-5.22-3.6,5.22h-3.31l5.35-7.28-4.74-6.41h3.28Z"/><path d="M615.38,307.23c1.06,1.32,1.59,3.02,1.59,5.14s-.53,3.68-1.56,5c-1.11,1.43-2.67,2.14-4.63,2.14-1.69,0-3.07-.79-4.18-2.38v7.25h-2.81v-18.93h2.62v1.64c.95-1.35,2.38-2.01,4.24-2.01,2.01,0,3.57,.71,4.74,2.14Zm-8,1.59c-.58,.85-.87,1.99-.87,3.39v.24c0,1.46,.34,2.65,1.09,3.55,.64,.82,1.48,1.24,2.54,1.24,1.38,0,2.38-.45,3.04-1.35,.58-.85,.9-2.01,.9-3.52s-.29-2.67-.82-3.52c-.66-1.01-1.67-1.48-3.04-1.48-1.22,0-2.17,.48-2.83,1.46Z"/><path d="M622.73,299.87v19.27h-2.81v-19.27h2.81Z"/><path d="M637.5,307.15c1.22,1.35,1.85,3.07,1.85,5.16s-.61,3.79-1.83,5.11c-1.27,1.38-2.94,2.09-5,2.09s-3.73-.71-5-2.09c-1.22-1.32-1.83-3.04-1.83-5.11s.61-3.81,1.85-5.16c1.24-1.38,2.91-2.06,4.98-2.06s3.73,.69,4.98,2.06Zm-8,1.77c-.64,.87-.93,2.01-.93,3.39s.29,2.49,.93,3.36c.71,1.01,1.72,1.54,3.02,1.54s2.3-.53,3.04-1.54c.64-.9,.95-2.01,.95-3.36s-.32-2.52-.95-3.39c-.74-1.03-1.75-1.54-3.04-1.54s-2.3,.5-3.02,1.54Z"/><path d="M650.15,305.43v2.81c-.69-.21-1.35-.29-1.99-.29-.85,0-1.61,.34-2.28,1.03-.71,.74-1.06,1.72-1.06,2.91v7.25h-2.81v-13.69h2.81v2.07c.34-.74,.79-1.3,1.32-1.67,.64-.53,1.38-.77,2.22-.77,.69,0,1.3,.11,1.77,.34Z"/><path d="M662.78,307.36c1.06,1.38,1.62,3.28,1.64,5.72h-10.38c.11,1.32,.45,2.36,1.09,3.07,.64,.69,1.51,1.06,2.62,1.06,.98,0,1.77-.24,2.38-.69,.48-.37,.87-.98,1.24-1.77h2.81c-.32,1.27-.93,2.36-1.88,3.2-1.19,1.03-2.7,1.56-4.53,1.56-2.01,0-3.63-.64-4.79-1.88-1.27-1.32-1.91-3.1-1.91-5.35,0-2.04,.58-3.73,1.8-5.11,1.17-1.4,2.78-2.09,4.79-2.09,2.22,0,3.94,.74,5.11,2.28Zm-7.54,.95c-.58,.61-.98,1.48-1.14,2.65h7.39c-.27-2.38-1.51-3.57-3.73-3.57-1.06,0-1.88,.29-2.52,.93Z"/><path d="M670.21,315.91c.37,.37,.58,.85,.58,1.43,0,.53-.21,1.01-.58,1.4-.4,.34-.87,.53-1.4,.53-.58,0-1.03-.19-1.38-.53-.4-.4-.58-.87-.58-1.4,0-.58,.19-1.06,.58-1.43,.34-.37,.79-.56,1.38-.56,.53,0,1.01,.19,1.4,.56Z"/><path d="M424.45,368.72c1.35,1.06,2.2,2.62,2.54,4.74h-2.91c-.26-1.27-.85-2.22-1.75-2.86-.9-.66-2.12-.98-3.6-.98-1.83,0-3.28,.61-4.37,1.88-1.17,1.32-1.72,3.15-1.72,5.48s.5,4.02,1.56,5.24c1.11,1.32,2.86,1.99,5.22,1.99,.93,0,1.8-.13,2.62-.34,.79-.21,1.48-.53,2.12-.93v-4.1h-5.22v-2.46h8.1v7.94c-.98,.77-2.12,1.35-3.42,1.77-1.38,.42-2.89,.64-4.53,.64-3.02,0-5.35-.95-7.02-2.86-1.56-1.77-2.33-4.08-2.33-6.88s.77-5.16,2.33-6.99c1.64-1.96,3.87-2.91,6.65-2.91,2.41,0,4.32,.53,5.72,1.64Z"/><path d="M445.68,369.89c1.59,1.77,2.38,4.13,2.38,7.04s-.79,5.22-2.38,7.02c-1.67,1.85-3.94,2.78-6.8,2.78s-5.16-.95-6.8-2.81c-1.59-1.8-2.36-4.13-2.36-6.99s.77-5.21,2.36-7.02c1.64-1.91,3.92-2.83,6.8-2.83s5.14,.93,6.8,2.81Zm-11.49,1.77c-1.06,1.3-1.59,3.04-1.59,5.27s.53,3.94,1.59,5.24c1.11,1.32,2.67,2.01,4.69,2.01s3.57-.66,4.66-1.96c1.06-1.27,1.61-3.04,1.61-5.29s-.56-4.05-1.61-5.35c-1.09-1.32-2.65-1.96-4.66-1.96s-3.57,.66-4.69,2.04Z"/><path d="M470.39,374.6c.61-.85,1.27-1.46,1.96-1.8,.64-.34,1.4-.5,2.33-.5,1.4,0,2.57,.45,3.49,1.4,.9,.93,1.38,2.14,1.38,3.68v8.97h-2.81v-8.5c0-1.11-.24-1.93-.71-2.44-.48-.53-1.27-.77-2.33-.77-.79,0-1.43,.29-1.96,.87-.53,.58-.79,1.4-.79,2.41v8.42h-2.81v-8.47c0-2.17-.95-3.23-2.81-3.23-.9,0-1.64,.34-2.17,1.03-.58,.66-.85,1.48-.85,2.44v8.23h-2.81v-13.69h2.81v1.51c1.11-1.27,2.38-1.88,3.76-1.88,2.01,0,3.47,.77,4.32,2.3Z"/><path d="M493.34,373.81c.82,.87,1.24,2.14,1.24,3.81v8.74h-2.59v-1.93c-.53,.69-1.19,1.24-1.99,1.64-.9,.42-1.96,.66-3.18,.66-1.43,0-2.54-.37-3.34-1.09-.87-.71-1.3-1.64-1.3-2.78,0-1.54,.61-2.73,1.83-3.55,1.11-.79,2.7-1.19,4.71-1.24l3.07-.08v-.56c0-1.91-1.03-2.86-3.1-2.86-.87,0-1.59,.16-2.12,.48-.64,.37-1.03,.93-1.19,1.69l-2.78-.24c.29-1.48,1.03-2.59,2.2-3.28,1.01-.64,2.38-.93,4.08-.93,2.01,0,3.49,.5,4.45,1.51Zm-4.42,6.3c-2.57,.05-3.84,.95-3.84,2.65,0,.53,.21,.95,.66,1.3,.42,.34,1.01,.53,1.72,.53,1.19,0,2.2-.37,3.04-1.09s1.3-1.61,1.3-2.67v-.79l-2.89,.08Z"/><path d="M500.59,367.08v11.23l5.93-5.64h3.63l-6.06,5.64,6.59,8.05h-3.6l-4.92-6.25-1.56,1.46v4.79h-2.81v-19.27h2.81Z"/><path d="M523.17,374.57c1.06,1.38,1.62,3.28,1.64,5.72h-10.38c.11,1.32,.45,2.36,1.09,3.07,.64,.69,1.51,1.06,2.62,1.06,.98,0,1.77-.24,2.38-.69,.48-.37,.87-.98,1.24-1.77h2.81c-.32,1.27-.93,2.36-1.88,3.2-1.19,1.03-2.7,1.56-4.53,1.56-2.01,0-3.63-.64-4.79-1.88-1.27-1.32-1.91-3.1-1.91-5.35,0-2.04,.58-3.73,1.8-5.11,1.17-1.4,2.78-2.09,4.79-2.09,2.22,0,3.94,.74,5.11,2.28Zm-7.54,.95c-.58,.61-.98,1.48-1.14,2.65h7.39c-.27-2.38-1.51-3.57-3.73-3.57-1.06,0-1.88,.29-2.52,.93Z"/><path d="M537.59,372.67l3.76,9.98,3.6-9.98h3.07l-7.44,18.93h-2.99l2.38-5.56-5.43-13.37h3.04Z"/><path d="M561.02,374.36c1.22,1.35,1.85,3.07,1.85,5.16s-.61,3.79-1.83,5.11c-1.27,1.38-2.94,2.09-5,2.09s-3.73-.71-5-2.09c-1.22-1.32-1.83-3.04-1.83-5.11s.61-3.81,1.85-5.16c1.24-1.38,2.91-2.06,4.98-2.06s3.73,.69,4.98,2.06Zm-8,1.77c-.64,.87-.93,2.01-.93,3.39s.29,2.49,.93,3.36c.71,1.01,1.72,1.54,3.02,1.54s2.3-.53,3.04-1.54c.64-.9,.95-2.01,.95-3.36s-.32-2.52-.95-3.39c-.74-1.03-1.75-1.54-3.04-1.54s-2.3,.5-3.02,1.54Z"/><path d="M568.34,372.67v8.34c0,1.17,.24,2.01,.74,2.54,.48,.53,1.27,.82,2.36,.82,.74,0,1.4-.32,2.04-.9,.64-.61,1.09-1.43,1.32-2.44v-8.37h2.81v13.69h-2.81v-1.85c-1.17,1.48-2.59,2.22-4.32,2.22-3.31,0-4.95-1.85-4.95-5.53v-8.53h2.81Z"/><path d="M588.94,372.64v2.81c-.69-.21-1.35-.29-1.99-.29-.85,0-1.61,.34-2.28,1.03-.71,.74-1.06,1.72-1.06,2.91v7.25h-2.81v-13.69h2.81v2.07c.34-.74,.79-1.3,1.32-1.67,.64-.53,1.38-.77,2.22-.77,.69,0,1.3,.11,1.77,.34Z"/><path d="M601.59,376.61h-2.73c-.21-.74-.53-1.24-.98-1.54-.48-.32-1.22-.48-2.17-.48-.85,0-1.48,.11-1.91,.37-.5,.26-.74,.69-.74,1.22,0,.48,.37,.87,1.11,1.22,.48,.21,1.38,.48,2.75,.82,1.56,.37,2.73,.82,3.47,1.3,1.09,.69,1.64,1.64,1.64,2.86,0,2.89-2.04,4.34-6.09,4.34-3.76,0-5.77-1.62-6.09-4.79h2.75c.16,.93,.5,1.59,.98,1.96,.48,.34,1.22,.53,2.28,.53,2.17,0,3.28-.64,3.28-1.85,0-.66-.42-1.19-1.22-1.56-.42-.21-1.35-.48-2.75-.79-1.62-.37-2.75-.77-3.39-1.19-1.06-.66-1.59-1.59-1.59-2.75,0-1.24,.5-2.22,1.54-2.91,1.03-.71,2.38-1.06,4.02-1.06,3.55,0,5.51,1.43,5.82,4.32Z"/><path d="M615.32,374.57c1.06,1.38,1.62,3.28,1.64,5.72h-10.38c.11,1.32,.45,2.36,1.09,3.07,.64,.69,1.51,1.06,2.62,1.06,.98,0,1.77-.24,2.38-.69,.48-.37,.87-.98,1.24-1.77h2.81c-.32,1.27-.93,2.36-1.88,3.2-1.19,1.03-2.7,1.56-4.53,1.56-2.01,0-3.63-.64-4.79-1.88-1.27-1.32-1.91-3.1-1.91-5.35,0-2.04,.58-3.73,1.8-5.11,1.17-1.4,2.78-2.09,4.79-2.09,2.22,0,3.94,.74,5.11,2.28Zm-7.54,.95c-.58,.61-.98,1.48-1.14,2.65h7.39c-.27-2.38-1.51-3.57-3.73-3.57-1.06,0-1.88,.29-2.52,.93Z"/><path d="M622.47,367.08v19.27h-2.81v-19.27h2.81Z"/><path d="M634.22,367.45v2.38h-2.46c-.45,0-.79,.11-1.01,.34-.21,.21-.32,.58-.32,1.09v1.4h3.6v2.3h-3.6v11.38h-2.78v-11.38h-3.15v-2.3h3.15v-1.48c0-1.16,.32-2.09,.95-2.73,.64-.69,1.54-1.01,2.75-1.01h2.86Z"/><path d="M299.95,407.97c1.22,1.35,1.85,3.07,1.85,5.16s-.61,3.79-1.83,5.11c-1.27,1.38-2.94,2.09-5,2.09s-3.73-.71-5-2.09c-1.22-1.32-1.83-3.04-1.83-5.11s.61-3.81,1.85-5.16c1.24-1.38,2.91-2.06,4.98-2.06s3.73,.69,4.98,2.06Zm-8,1.77c-.64,.87-.93,2.01-.93,3.39s.29,2.49,.93,3.36c.71,1.01,1.72,1.54,3.02,1.54s2.3-.53,3.04-1.54c.64-.9,.95-2.01,.95-3.36s-.32-2.52-.95-3.39c-.74-1.03-1.75-1.54-3.04-1.54s-2.3,.5-3.02,1.54Z"/><path d="M306.11,406.27l2.89,10.35,2.81-10.35h2.59l2.81,10.35,2.89-10.35h3.1l-4.63,13.69h-2.59l-2.86-10.25-2.86,10.25h-2.59l-4.63-13.69h3.1Z"/><path d="M336.95,411.52v8.45h-2.81v-8.21c0-2.33-1.09-3.49-3.2-3.49-.79,0-1.51,.26-2.09,.85-.64,.64-1.03,1.51-1.14,2.62v8.23h-2.81v-13.69h2.81v1.69c.53-.69,1.14-1.19,1.83-1.54,.69-.37,1.46-.53,2.3-.53,3.39,0,5.11,1.85,5.11,5.61Z"/><path d="M354.76,399.47c-.71,.24-1.3,.66-1.75,1.27-.48,.58-.71,1.19-.69,1.83,.11-.08,.32-.11,.64-.11,.53,0,.98,.18,1.35,.56,.37,.37,.58,.85,.58,1.43s-.21,1.06-.58,1.43c-.4,.37-.9,.56-1.51,.56-.71,0-1.27-.29-1.69-.87-.48-.56-.69-1.27-.69-2.14,0-1.38,.37-2.54,1.17-3.55,.79-1.01,1.85-1.69,3.18-2.04v1.64Zm6.17,0c-.74,.24-1.32,.66-1.8,1.27-.48,.58-.69,1.19-.66,1.83,.13-.08,.34-.11,.64-.11,.53,0,1.01,.18,1.38,.56,.37,.37,.56,.85,.56,1.43s-.21,1.06-.58,1.43c-.4,.37-.9,.56-1.51,.56-.71,0-1.3-.29-1.72-.87-.45-.56-.66-1.27-.66-2.14,0-1.38,.4-2.54,1.19-3.55,.77-1.01,1.83-1.69,3.18-2.04v1.64Z"/><path d="M371.88,401.06c3.04,0,5.35,.85,6.94,2.57,1.48,1.59,2.22,3.89,2.22,6.88s-.77,5.27-2.28,6.91c-1.59,1.7-3.89,2.54-6.94,2.54h-6.83v-18.9h6.88Zm-4,16.44h3.42c2.38,0,4.16-.58,5.27-1.72,1.09-1.14,1.64-2.89,1.64-5.27s-.56-4.18-1.61-5.29c-1.11-1.14-2.86-1.69-5.24-1.69h-3.47v13.98Z"/><path d="M392.34,401.06c1.91,0,3.44,.42,4.55,1.3,1.16,.95,1.75,2.3,1.75,4.1,0,1.01-.26,1.88-.79,2.65-.61,.85-1.43,1.4-2.46,1.67v.05c1.69,.37,2.62,1.48,2.83,3.34l.32,3.02c.11,1.16,.48,2.09,1.11,2.78h-3.12c-.45-.58-.71-1.43-.82-2.49l-.24-2.36c-.11-1.06-.45-1.8-1.01-2.28-.58-.48-1.4-.69-2.49-.69h-5.11v7.81h-2.89v-18.9h8.37Zm-5.48,8.63h5.11c1.27,0,2.22-.29,2.86-.82,.61-.53,.93-1.3,.93-2.3,0-1.06-.32-1.83-.9-2.3-.64-.5-1.59-.74-2.91-.74h-5.08v6.17Z"/><path d="M415.87,401.06v2.46h-10.7v5.51h10.06v2.46h-10.06v6.01h11.15v2.46h-14.03v-18.9h13.58Z"/><path d="M427.97,401.06l7.28,18.9h-3.1l-1.77-4.87h-8.13l-1.77,4.87h-3.07l7.28-18.9h3.28Zm1.54,11.65l-3.12-8.55h-.11l-3.15,8.55h6.38Z"/><path d="M440.51,401.06l6.59,15.14h.08l6.57-15.14h3.42v18.9h-2.89v-13.5h-.11l-5.8,13.5h-2.49l-5.8-13.5h-.11v13.5h-2.89v-18.9h3.42Z"/><path d="M474.52,402.41c1.38,1.11,2.22,2.65,2.52,4.55h-2.81c-.32-1.27-.93-2.22-1.83-2.83-.9-.61-2.01-.9-3.39-.9-2.04,0-3.57,.69-4.61,2.09-.98,1.27-1.46,3.02-1.46,5.21s.48,4.02,1.43,5.27c1.01,1.32,2.57,1.99,4.69,1.99,1.38,0,2.54-.34,3.44-1.03,.95-.74,1.61-1.85,1.99-3.34h2.81c-.42,2.2-1.4,3.92-2.97,5.16-1.46,1.17-3.2,1.75-5.24,1.75-3.1,0-5.43-1.01-6.99-2.97-1.38-1.69-2.04-3.97-2.04-6.83s.69-5.08,2.12-6.86c1.59-2.01,3.87-2.99,6.88-2.99,2.2,0,4.02,.56,5.45,1.72Z"/><path d="M488.92,401.06l7.28,18.9h-3.1l-1.77-4.87h-8.13l-1.77,4.87h-3.07l7.28-18.9h3.28Zm1.54,11.65l-3.12-8.55h-.11l-3.15,8.55h6.38Z"/><path d="M506.41,401.06c1.91,0,3.44,.42,4.55,1.3,1.17,.95,1.75,2.3,1.75,4.1,0,1.01-.27,1.88-.79,2.65-.61,.85-1.43,1.4-2.46,1.67v.05c1.69,.37,2.62,1.48,2.83,3.34l.32,3.02c.11,1.16,.48,2.09,1.11,2.78h-3.12c-.45-.58-.71-1.43-.82-2.49l-.24-2.36c-.11-1.06-.45-1.8-1.01-2.28-.58-.48-1.4-.69-2.49-.69h-5.11v7.81h-2.89v-18.9h8.37Zm-5.48,8.63h5.11c1.27,0,2.22-.29,2.86-.82,.61-.53,.93-1.3,.93-2.3,0-1.06-.32-1.83-.9-2.3-.64-.5-1.59-.74-2.91-.74h-5.08v6.17Z"/><path d="M523.25,401.06c3.04,0,5.35,.85,6.94,2.57,1.48,1.59,2.22,3.89,2.22,6.88s-.77,5.27-2.28,6.91c-1.59,1.7-3.89,2.54-6.94,2.54h-6.83v-18.9h6.88Zm-4,16.44h3.42c2.38,0,4.16-.58,5.27-1.72,1.09-1.14,1.64-2.89,1.64-5.27s-.56-4.18-1.61-5.29c-1.11-1.14-2.86-1.69-5.24-1.69h-3.47v13.98Z"/><path d="M539.31,398.65c.45,.56,.69,1.3,.69,2.2,0,1.32-.4,2.51-1.19,3.52-.79,1.01-1.85,1.67-3.18,2.04v-1.64c.71-.24,1.3-.66,1.77-1.24,.48-.61,.69-1.22,.69-1.85-.13,.05-.34,.11-.64,.11-.53,0-.98-.21-1.35-.58-.4-.37-.58-.82-.58-1.4s.19-1.06,.56-1.43c.4-.37,.9-.56,1.54-.56,.69,0,1.27,.27,1.69,.85Zm6.17,0c.42,.56,.66,1.3,.66,2.2,0,1.32-.4,2.51-1.17,3.52-.79,1.01-1.85,1.67-3.18,2.04v-1.64c.69-.24,1.3-.66,1.77-1.24,.45-.61,.66-1.22,.66-1.85-.13,.05-.34,.11-.64,.11-.53,0-1.01-.21-1.38-.58-.37-.37-.56-.82-.56-1.4s.19-1.06,.61-1.43c.37-.37,.87-.56,1.51-.56,.69,0,1.24,.27,1.69,.85Z"/><path d="M570.28,407.41c.82,.87,1.24,2.14,1.24,3.81v8.74h-2.59v-1.93c-.53,.69-1.19,1.24-1.99,1.64-.9,.42-1.96,.66-3.18,.66-1.43,0-2.54-.37-3.34-1.09-.87-.71-1.3-1.64-1.3-2.78,0-1.54,.61-2.73,1.83-3.55,1.11-.79,2.7-1.19,4.71-1.24l3.07-.08v-.56c0-1.91-1.03-2.86-3.1-2.86-.87,0-1.59,.16-2.12,.48-.64,.37-1.03,.93-1.19,1.69l-2.78-.24c.29-1.48,1.03-2.59,2.2-3.28,1.01-.64,2.38-.93,4.08-.93,2.01,0,3.49,.5,4.45,1.51Zm-4.42,6.3c-2.57,.05-3.84,.95-3.84,2.65,0,.53,.21,.95,.66,1.3,.42,.34,1.01,.53,1.72,.53,1.19,0,2.2-.37,3.04-1.09s1.3-1.61,1.3-2.67v-.79l-2.89,.08Z"/><path d="M586.77,411.52v8.45h-2.81v-8.21c0-2.33-1.09-3.49-3.2-3.49-.79,0-1.51,.26-2.09,.85-.64,.64-1.03,1.51-1.14,2.62v8.23h-2.81v-13.69h2.81v1.69c.53-.69,1.14-1.19,1.83-1.54,.69-.37,1.46-.53,2.3-.53,3.39,0,5.11,1.85,5.11,5.61Z"/><path d="M602.62,400.69v19.27h-2.62v-1.64c-.95,1.32-2.38,2.01-4.24,2.01-2.01,0-3.6-.71-4.74-2.14-1.06-1.32-1.59-3.04-1.59-5.14s.5-3.68,1.56-5c1.11-1.43,2.67-2.14,4.63-2.14,1.67,0,3.07,.79,4.18,2.41v-7.62h2.81Zm-9.42,8.9c-.58,.79-.87,1.96-.87,3.47s.26,2.67,.82,3.52c.64,.98,1.67,1.48,3.04,1.48,1.22,0,2.14-.5,2.83-1.46,.58-.87,.87-1.99,.87-3.36v-.24c0-1.48-.37-2.67-1.06-3.57-.69-.85-1.54-1.24-2.57-1.24-1.38,0-2.41,.45-3.07,1.4Z"/><path d="M620.4,399.47c-.71,.24-1.3,.66-1.75,1.27-.48,.58-.71,1.19-.69,1.83,.11-.08,.32-.11,.64-.11,.53,0,.98,.18,1.35,.56s.58,.85,.58,1.43-.21,1.06-.58,1.43c-.4,.37-.9,.56-1.51,.56-.71,0-1.27-.29-1.69-.87-.48-.56-.69-1.27-.69-2.14,0-1.38,.37-2.54,1.17-3.55,.79-1.01,1.85-1.69,3.18-2.04v1.64Zm6.17,0c-.74,.24-1.32,.66-1.8,1.27-.48,.58-.69,1.19-.66,1.83,.13-.08,.34-.11,.64-.11,.53,0,1.01,.18,1.38,.56s.56,.85,.56,1.43-.21,1.06-.58,1.43c-.4,.37-.9,.56-1.51,.56-.71,0-1.3-.29-1.72-.87-.45-.56-.66-1.27-.66-2.14,0-1.38,.4-2.54,1.19-3.55,.77-1.01,1.83-1.69,3.18-2.04v1.64Z"/><path d="M632.02,406.27l2.89,10.35,2.81-10.35h2.59l2.81,10.35,2.89-10.35h3.1l-4.63,13.69h-2.59l-2.86-10.25-2.86,10.25h-2.59l-4.63-13.69h3.1Z"/><path d="M661.43,407.41c.82,.87,1.24,2.14,1.24,3.81v8.74h-2.59v-1.93c-.53,.69-1.19,1.24-1.99,1.64-.9,.42-1.96,.66-3.18,.66-1.43,0-2.54-.37-3.34-1.09-.87-.71-1.3-1.64-1.3-2.78,0-1.54,.61-2.73,1.83-3.55,1.11-.79,2.7-1.19,4.71-1.24l3.07-.08v-.56c0-1.91-1.03-2.86-3.1-2.86-.87,0-1.59,.16-2.12,.48-.64,.37-1.03,.93-1.19,1.69l-2.78-.24c.29-1.48,1.03-2.59,2.2-3.28,1.01-.64,2.38-.93,4.08-.93,2.01,0,3.49,.5,4.45,1.51Zm-4.42,6.3c-2.57,.05-3.84,.95-3.84,2.65,0,.53,.21,.95,.66,1.3,.42,.34,1.01,.53,1.72,.53,1.19,0,2.2-.37,3.04-1.09s1.3-1.61,1.3-2.67v-.79l-2.89,.08Z"/><path d="M669,400.69v19.27h-2.81v-19.27h2.81Z"/><path d="M675.61,400.69v19.27h-2.81v-19.27h2.81Z"/><path d="M690.7,408.05c1.06,1.32,1.59,3.02,1.59,5.14s-.53,3.68-1.56,5c-1.11,1.43-2.67,2.14-4.63,2.14-1.69,0-3.07-.79-4.18-2.38v7.25h-2.81v-18.93h2.62v1.64c.95-1.35,2.38-2.01,4.24-2.01,2.01,0,3.57,.71,4.74,2.14Zm-8,1.59c-.58,.85-.87,1.99-.87,3.39v.24c0,1.46,.34,2.65,1.09,3.55,.64,.82,1.48,1.24,2.54,1.24,1.38,0,2.38-.45,3.04-1.35,.58-.85,.9-2.01,.9-3.52s-.29-2.67-.82-3.52c-.66-1.01-1.67-1.48-3.04-1.48-1.22,0-2.17,.48-2.83,1.46Z"/><path d="M705.55,407.41c.82,.87,1.24,2.14,1.24,3.81v8.74h-2.59v-1.93c-.53,.69-1.19,1.24-1.99,1.64-.9,.42-1.96,.66-3.18,.66-1.43,0-2.54-.37-3.34-1.09-.87-.71-1.3-1.64-1.3-2.78,0-1.54,.61-2.73,1.83-3.55,1.11-.79,2.7-1.19,4.71-1.24l3.07-.08v-.56c0-1.91-1.03-2.86-3.1-2.86-.87,0-1.59,.16-2.12,.48-.64,.37-1.03,.93-1.19,1.69l-2.78-.24c.29-1.48,1.03-2.59,2.2-3.28,1.01-.64,2.38-.93,4.08-.93,2.01,0,3.49,.5,4.45,1.51Zm-4.42,6.3c-2.57,.05-3.84,.95-3.84,2.65,0,.53,.21,.95,.66,1.3,.42,.34,1.01,.53,1.72,.53,1.19,0,2.2-.37,3.04-1.09s1.3-1.61,1.3-2.67v-.79l-2.89,.08Z"/><path d="M721.59,408.05c1.06,1.32,1.59,3.02,1.59,5.14s-.53,3.68-1.56,5c-1.11,1.43-2.67,2.14-4.63,2.14-1.69,0-3.07-.79-4.18-2.38v7.25h-2.81v-18.93h2.62v1.64c.95-1.35,2.38-2.01,4.24-2.01,2.01,0,3.57,.71,4.74,2.14Zm-8,1.59c-.58,.85-.87,1.99-.87,3.39v.24c0,1.46,.34,2.65,1.09,3.55,.64,.82,1.48,1.24,2.54,1.24,1.38,0,2.38-.45,3.04-1.35,.58-.85,.9-2.01,.9-3.52s-.29-2.67-.82-3.52c-.66-1.01-1.67-1.48-3.04-1.48-1.22,0-2.17,.48-2.83,1.46Z"/><path d="M736.73,408.18c1.06,1.38,1.62,3.28,1.64,5.72h-10.38c.11,1.32,.45,2.36,1.09,3.07,.64,.69,1.51,1.06,2.62,1.06,.98,0,1.77-.24,2.38-.69,.48-.37,.87-.98,1.24-1.77h2.81c-.32,1.27-.93,2.36-1.88,3.2-1.19,1.03-2.7,1.56-4.53,1.56-2.01,0-3.63-.64-4.79-1.88-1.27-1.32-1.91-3.1-1.91-5.35,0-2.04,.58-3.73,1.8-5.11,1.17-1.4,2.78-2.09,4.79-2.09,2.22,0,3.94,.74,5.11,2.28Zm-7.54,.95c-.58,.61-.98,1.48-1.14,2.65h7.39c-.27-2.38-1.51-3.57-3.73-3.57-1.06,0-1.88,.29-2.52,.93Z"/><path d="M748.87,406.25v2.81c-.69-.21-1.35-.29-1.99-.29-.85,0-1.61,.34-2.28,1.03-.71,.74-1.06,1.72-1.06,2.91v7.25h-2.81v-13.69h2.81v2.07c.34-.74,.79-1.3,1.32-1.67,.64-.53,1.38-.77,2.22-.77,.69,0,1.3,.11,1.77,.34Z"/><path d="M754.83,398.65c.45,.56,.69,1.3,.69,2.2,0,1.32-.4,2.51-1.19,3.52-.79,1.01-1.85,1.67-3.18,2.04v-1.64c.71-.24,1.3-.66,1.77-1.24,.48-.61,.69-1.22,.69-1.85-.13,.05-.34,.11-.64,.11-.53,0-.98-.21-1.35-.58-.4-.37-.58-.82-.58-1.4s.19-1.06,.56-1.43c.4-.37,.9-.56,1.54-.56,.69,0,1.27,.27,1.69,.85Zm6.17,0c.42,.56,.66,1.3,.66,2.2,0,1.32-.4,2.51-1.17,3.52-.79,1.01-1.85,1.67-3.18,2.04v-1.64c.69-.24,1.3-.66,1.77-1.24,.45-.61,.66-1.22,.66-1.85-.13,.05-.34,.11-.64,.11-.53,0-1.01-.21-1.38-.58-.37-.37-.56-.82-.56-1.4s.19-1.06,.61-1.43c.37-.37,.87-.56,1.51-.56,.69,0,1.24,.27,1.69,.85Z"/></g></svg>