<svg id="圖層_1" data-name="圖層 1" xmlns="http://www.w3.org/2000/svg" viewBox="0 0 183.03551 35.2068"><path d="M11.00474,4.32945,0,32.90121H4.64183l2.681-7.36254H19.60806l2.681,7.36254h4.68225L15.96653,4.32945Zm-2.361,17.60677L13.40548,9.011h.16031l4.722,12.9252Z"/><rect x="44.2089" y="15.82929" width="4.31109" height="4.31109"/><polygon points="52.831 20.14 48.52 20.14 48.52 24.451 52.831 24.451 52.831 33.074 57.142 33.074 57.142 2.896 52.831 2.896 52.831 20.14"/><rect x="39.89781" y="11.51819" width="4.31109" height="4.31109"/><polygon points="35.587 7.207 35.587 2.896 31.276 2.896 31.276 33.074 35.587 33.074 35.587 11.518 39.898 11.518 39.898 7.207 35.587 7.207"/><rect x="64.3343" y="4.32945" width="4.32187" height="28.57176"/><polygon points="89.582 27.219 89.463 27.219 79.499 4.329 74.336 4.329 74.336 32.901 78.698 32.901 78.698 12.492 78.858 12.492 87.622 32.901 91.383 32.901 100.147 12.492 100.307 12.492 100.307 32.901 104.669 32.901 104.669 4.329 99.507 4.329 89.582 27.219"/><path d="M143.13635,0c-7.48918,0-16.07162,4.0915-23.5453,11.225-6.825,6.51379-11.23511,14.3465-11.23511,19.95631,0,2.31183,1.3297,3.58494,3.74458,3.58494,6.38648,0,18.207-10.95286,26.59069-19.249.01616,0,.03166.00134.04782.00134C132.911,22.38,127.1139,29.74519,127.1139,33.34226c0,1.18555.82517,1.86454,2.26467,1.86454,2.77123,0,8.40259-2.35762,12.66721-6.16755l5.67649-5.04937-.65542-.873-5.71961,5.08843c-3.96822,3.53644-9.39212,5.91159-11.96867,5.91159-1.03331,0-1.17544-.37184-1.17544-.77465,0-3.50411,6.15206-11.01889,11.95587-17.81829,5.80717-.159,11.96193-3.88537,11.96193-9.25941C152.12093,3.236,149.76061,0,143.13635,0Zm-1.98782,14.38827.53686-.6278A52.60524,52.60524,0,0,0,146.528,7.65084l.14483-.30582-.83393-.41359-.17446.15762c-1.56884,1.42132-3.32763,3.17539-5.02849,4.87288-.82112.81911-1.6436,1.63957-2.45126,2.429-3.26363-.18861-7.41777-1.05082-9.0223-4.04973l-.1583-.29638-.937.47017.16773.31256c1.70153,3.166,5.6482,4.25047,8.92733,4.57784-5.174,5.10325-18.727,18.271-25.0616,18.271-1.84972,0-2.17508-.79217-2.17508-2.45463,0-7.65219,19.59459-30.13184,33.21091-30.13184,5.82065,0,7.89468,2.67288,7.89468,5.17466C151.031,9.84546,147.27567,13.84265,141.14853,14.38827Z"/><polygon points="158.071 4.329 153.749 4.329 153.749 32.901 173.798 32.901 173.798 29.18 158.071 29.18 158.071 4.329"/><path d="M182.1551,28.0189a3.02936,3.02936,0,0,0-2.12119-.84066,2.68321,2.68321,0,0,0-2.08078.84066,2.80923,2.80923,0,0,0-.88041,2.16094,2.90144,2.90144,0,0,0,.88041,2.12051,2.79958,2.79958,0,0,0,2.08078.8016,3.174,3.174,0,0,0,2.12119-.8016,3.06965,3.06965,0,0,0,.88041-2.12051A2.9587,2.9587,0,0,0,182.1551,28.0189Z"/></svg>