<?xml version="1.0" encoding="UTF-8"?><svg id="_圖層_3" xmlns="http://www.w3.org/2000/svg" viewBox="0 0 773.61 120.68"><path d="M52.23,37.61l-19.53,50.7h8.24l4.76-13.07h21.8l4.76,13.07h8.31l-19.53-50.7h-8.81Zm-4.19,31.25l8.45-22.94h.28l8.38,22.94h-17.11Z"/><rect x="103.52" y="50.36" width="7.65" height="7.65"/><rect x="111.17" y="58.01" width="7.65" height="7.65"/><polygon points="95.87 42.71 95.87 35.06 88.22 35.06 88.22 88.62 95.87 88.62 95.87 50.36 103.52 50.36 103.52 42.71 95.87 42.71"/><polygon points="126.48 65.66 118.82 65.66 118.82 73.32 126.48 73.32 126.48 88.62 134.13 88.62 134.13 35.06 126.48 35.06 126.48 65.66"/><rect x="146.89" y="37.61" width="7.67" height="50.7"/><polygon points="191.7 78.23 191.49 78.23 173.81 37.61 164.65 37.61 164.65 88.32 172.39 88.32 172.39 52.1 172.67 52.1 188.22 88.32 194.9 88.32 210.45 52.1 210.73 52.1 210.73 88.32 218.47 88.32 218.47 37.61 209.31 37.61 191.7 78.23"/><path d="M286.76,29.92c-13.29,0-28.52,7.26-41.79,19.92-12.11,11.56-19.94,25.46-19.94,35.42,0,4.1,2.36,6.36,6.65,6.36,11.34,0,32.31-19.44,47.19-34.16,.03,0,.06,0,.08,0-10.34,12.18-20.63,25.25-20.63,31.63,0,2.1,1.47,3.31,4.02,3.31,4.92,0,14.91-4.19,22.48-10.94l10.07-8.96-1.16-1.55-10.15,9.03c-7.04,6.28-16.67,10.49-21.24,10.49-1.83,0-2.09-.66-2.09-1.38,0-6.73,13.2-22.23,21.22-31.62,10.31-.28,21.23-6.9,21.23-16.44,0-5.37-4.19-11.12-15.94-11.12Zm-3.53,25.53l.92-1.08c3.65-4.26,7.78-9.09,8.63-10.88l.26-.54-1.48-.74-.31,.28c-2.78,2.52-5.9,5.63-8.91,8.63-1.46,1.46-2.93,2.92-4.36,4.33-5.79-.33-13.16-1.86-16.01-7.19l-.28-.52-1.67,.83,.3,.56c3.02,5.62,10.02,7.54,15.84,8.12-9.18,9.06-33.23,32.43-44.48,32.43-3.28,0-3.86-1.4-3.86-4.36,0-13.58,34.78-53.48,58.94-53.48,10.33,0,14.01,4.74,14.01,9.18,0,6.36-6.67,13.45-17.54,14.42Z"/><polygon points="313.27 37.61 305.6 37.61 305.6 88.32 341.18 88.32 341.18 81.71 313.27 81.71 313.27 37.61"/><path d="M356.02,79.65c-1.06-.99-2.34-1.49-3.76-1.49-1.56,0-2.77,.5-3.69,1.49-1.07,.99-1.56,2.27-1.56,3.84,0,1.42,.5,2.7,1.56,3.76,.92,.92,2.13,1.42,3.69,1.42,1.42,0,2.7-.5,3.76-1.42,.99-1.06,1.56-2.34,1.56-3.76,0-1.56-.57-2.84-1.56-3.84Z"/></svg>