<svg id="圖層_1" data-name="圖層 1" xmlns="http://www.w3.org/2000/svg" viewBox="0 0 345.26431 43.36035"><path d="M28.29709,12.0501a11.00427,11.00427,0,0,1,4.22155,2.72438l.20054.25439.79888-.59575-.21351-.26738a11.73229,11.73229,0,0,0-4.35784-2.91128c2.38561-2.971,3.96781-5.59933,3.96781-6.61042A1.04493,1.04493,0,0,0,31.85669,3.52c-2.66792,0-6.11136,2.18963-9.46524,6.01466a35.96671,35.96671,0,0,0-4.74722-.30891c-6.68635,0-10.8495,1.97288-13.165,3.62645C1.67435,14.85754,0,17.55726,0,20.07657c0,3.28769,2.73152,5.41112,6.95957,5.41112A19.22052,19.22052,0,0,0,16.711,22.3311a2.7403,2.7403,0,0,0,2.87883,1.67175c2.29476,0,5.94068-2.25583,8.57615-4.13135q-.82353.99681-1.65228,2.004-1.11266,1.3531-2.22856,2.70231C13.33181,27.23472,2.2091,35.87253,2.2091,41.74182a1.66849,1.66849,0,0,0,1.81582,1.61853,16.03108,16.03108,0,0,0,11.784-5.21642A143.00449,143.00449,0,0,0,25.56881,25.3553l.03634-.05062a22.50455,22.50455,0,0,1,4.43832-.47634,18.11363,18.11363,0,0,1,2.33045.16224l.30826.04024.19729-.98255-.35239-.04672a19.212,19.212,0,0,0-2.48361-.16874,21.92312,21.92312,0,0,0-3.60439.3193c2.15-2.99825,4.20014-5.79921,5.86475-7.67993l.24012-.27127-.27516-.20507.26283-.3128-.33227.26088-.45882-.34136-.57694.67623c-2.19417,1.87163-8.55019,6.72983-11.57375,6.72983a1.62059,1.62059,0,0,1-1.81193-1.35505A50.68129,50.68129,0,0,0,28.29709,12.0501Zm-14.289,24.448c-3.461,3.59141-7.27951,5.73561-10.21415,5.73561-.49,0-.59057-.19729-.59057-.49192,0-5.21643,9.94159-13.00538,20.02141-15.85177C19.81633,30.01621,16.75514,33.66083,14.008,36.49813ZM31.85669,4.51424c.024,0,.0636,0,.0636.1298,0,.70089-1.36413,3.11246-3.89707,6.234a24.815,24.815,0,0,0-3.37011-.96826C27.73443,6.61691,30.53214,4.51424,31.85669,4.51424ZM16.48776,20.98383c0,.11682,0,.23623.00844.35564a18.6895,18.6895,0,0,1-9.53663,3.154c-3.67967,0-5.96535-1.69252-5.96535-4.4169,0-3.9756,5.29171-9.85657,16.65-9.85657a38.0449,38.0449,0,0,1,3.96781.209C18.48529,14.2553,16.48776,18.3516,16.48776,20.98383Zm1.25186-.45687c.27647-2.05465,2.67117-5.87709,6.14446-9.76832a24.43916,24.43916,0,0,1,3.48757.92933A50.32154,50.32154,0,0,1,17.73962,20.527Z"/><polygon points="58.441 15.268 44.022 15.268 44.022 3.663 39.82 3.663 39.82 31.19 44.022 31.19 44.022 18.853 58.441 18.853 58.441 31.19 62.644 31.19 62.644 3.663 58.441 3.663 58.441 15.268"/><path d="M94.559,8.36654a13.56532,13.56532,0,0,0-9.63852-3.58622A14.48738,14.48738,0,0,0,74.78094,8.28866a11.63522,11.63522,0,0,0-3.97041,9.253,11.44669,11.44669,0,0,0,3.85489,9.13751,14.39719,14.39719,0,0,0,9.7151,3.19943A15.1568,15.1568,0,0,0,94.559,26.48581a11.51529,11.51529,0,0,0,3.85489-9.05964A11.96977,11.96977,0,0,0,94.559,8.36654ZM91.70611,25.17489q-2.54461,3.12285-7.51769,3.12285a7.87546,7.87546,0,0,1-6.51567-3.19943A11.36728,11.36728,0,0,1,75.243,17.73508a12.915,12.915,0,0,1,2.15977-7.78765,7.88215,7.88215,0,0,1,6.9388-3.58622,8.61368,8.61368,0,0,1,7.36453,3.50834,12.70312,12.70312,0,0,1,2.274,7.78766A11.73076,11.73076,0,0,1,91.70611,25.17489Z"/><path d="M67.53323,17.27172a29.53453,29.53453,0,0,1,1.3875-9.36855A20.671,20.671,0,0,1,73.08453.53994L72.50694,0a21.682,21.682,0,0,0-4.89713,7.6332,25.70768,25.70768,0,0,0-1.81193,9.67746,26.38,26.38,0,0,0,1.77429,9.63851,22.45925,22.45925,0,0,0,4.93477,7.67214l.57759-.53994a21.18418,21.18418,0,0,1-4.1638-7.40217A29.95622,29.95622,0,0,1,67.53323,17.27172Z"/><path d="M96.71746,0l-.57758.53994a21.89389,21.89389,0,0,1,4.1625,7.36323,29.5336,29.5336,0,0,1,1.3888,9.36855,29.95541,29.95541,0,0,1-1.3888,9.40748,22.46335,22.46335,0,0,1-4.1625,7.40217l.57758.53994a23.0503,23.0503,0,0,0,4.93478-7.67214,27.21616,27.21616,0,0,0,1.773-9.63851A26.46589,26.46589,0,0,0,101.6133,7.6332,22.21646,22.21646,0,0,0,96.71746,0Z"/><polygon points="117.395 7.257 115.384 7.257 115.384 5.245 108.923 5.245 108.923 7.257 106.879 7.257 106.879 9.3 104.802 9.3 104.802 15.761 106.879 15.761 106.879 17.805 108.923 17.805 108.923 19.849 115.021 19.849 115.021 21.894 117.065 21.894 117.065 27.662 115.021 27.662 115.021 29.674 109.253 29.674 109.253 27.662 107.241 27.662 107.241 23.575 104.802 23.575 104.802 27.991 106.879 27.991 106.879 30.036 108.923 30.036 108.923 32.112 115.384 32.112 115.384 30.036 117.395 30.036 117.395 27.991 119.439 27.991 119.439 21.53 117.395 21.53 117.395 19.486 115.384 19.486 115.384 17.443 109.253 17.443 109.253 15.431 107.241 15.431 107.241 9.663 109.253 9.663 109.253 7.619 115.021 7.619 115.021 9.663 117.065 9.663 117.065 13.75 119.439 13.75 119.439 9.3 117.395 9.3 117.395 7.257"/><polygon points="120.941 7.248 130.155 7.248 130.155 31.19 134.319 31.19 134.319 7.248 143.494 7.248 143.494 3.663 120.941 3.663 120.941 7.248"/><path d="M149.38666,25.67589a2.94812,2.94812,0,0,0-2.19742.77228,2.63291,2.63291,0,0,0-.88649,2.11954,2.76813,2.76813,0,0,0,2.81394,2.85287,3.09176,3.09176,0,0,0,.96437-.11551,4.507,4.507,0,0,1-1.00331,2.69842,6.05656,6.05656,0,0,1-2.58291,1.81193v2.39081a8.70859,8.70859,0,0,0,4.62717-3.00734,8.20762,8.20762,0,0,0,1.69641-5.12687,5.25177,5.25177,0,0,0-.92544-3.20072A3.13759,3.13759,0,0,0,149.38666,25.67589Z"/><path d="M178.02575,3.66279,167.42286,31.18955h4.47271l2.58291-7.09325h11.83593l2.58291,7.09325h4.51034L182.80607,3.66279ZM175.75046,20.6256l4.58822-12.45246h.15446l4.54929,12.45246Z"/><polygon points="212.485 6.516 215.762 7.287 215.762 25.754 203.04 4.203 194.943 4.395 194.943 6.516 198.22 7.287 198.22 28.106 194.943 28.877 194.943 31.19 205.353 31.19 205.353 28.877 201.69 28.106 201.69 9.947 214.412 31.19 219.232 31.19 219.232 7.287 222.509 6.516 222.509 4.203 212.485 4.395 212.485 6.516"/><path d="M236.57333,3.66279h-10.024V31.18955h9.94613c4.43377,0,7.78765-1.233,10.10189-3.70173,2.19741-2.38951,3.31494-5.74339,3.31494-10.06165,0-4.35589-1.07989-7.71107-3.23837-10.024C244.361,4.89584,241.0071,3.66279,236.57333,3.66279Zm6.82328,21.43552c-1.61853,1.65747-4.20144,2.50632-7.67214,2.50632h-4.97241V7.24771h5.05029c3.4694,0,6.01337.80992,7.6332,2.46739,1.54195,1.61983,2.35187,4.1638,2.35187,7.71107C245.78742,20.89557,244.9775,23.44084,243.39661,25.09831Z"/><path d="M279.24058,20.24011h7.59556v5.97573a11.16969,11.16969,0,0,1-3.08391,1.34986,15.192,15.192,0,0,1-3.81725.501c-3.43176,0-5.97572-.96437-7.59556-2.89181-1.542-1.773-2.274-4.317-2.274-7.6332,0-3.39282.80991-6.05231,2.50632-7.97975A7.90926,7.90926,0,0,1,278.933,6.82458,8.7,8.7,0,0,1,284.17536,8.251a6.46539,6.46539,0,0,1,2.54526,4.1638H290.961a10.46108,10.46108,0,0,0-3.70043-6.90116c-2.04426-1.61983-4.81926-2.39081-8.3276-2.39081a11.95853,11.95853,0,0,0-9.67746,4.24038,15.10505,15.10505,0,0,0-3.39282,10.17846,14.62275,14.62275,0,0,0,3.39282,10.024c2.42975,2.77629,5.82127,4.16379,10.2174,4.16379a22.34817,22.34817,0,0,0,6.59225-.92543,16.05034,16.05034,0,0,0,4.97372-2.5829v-11.566h-11.7983Z"/><path d="M304.98527,3.18775a7.66708,7.66708,0,0,0-3.546-.79045,7.5809,7.5809,0,0,0-3.50834.79045,6.1307,6.1307,0,0,0-2.42715,2.17794,5.872,5.872,0,0,0-.8865,3.23707,5.927,5.927,0,0,0,.8865,3.19943,6.16075,6.16075,0,0,0,2.42715,2.23505,7.51478,7.51478,0,0,0,3.546.80992,7.43076,7.43076,0,0,0,3.50834-.80992,5.99022,5.99022,0,0,0,3.276-5.43448,5.98234,5.98234,0,0,0-.867-3.23707A6.01021,6.01021,0,0,0,304.98527,3.18775Zm-.48154,8.30553a4.69839,4.69839,0,0,1-6.10942-.01947,3.83692,3.83692,0,0,1-1.1954-2.91,3.71748,3.71748,0,0,1,1.1954-2.871,4.798,4.798,0,0,1,6.10942,0,3.7982,3.7982,0,0,1,1.17464,2.91A3.81152,3.81152,0,0,1,304.50373,11.49328Z"/><path d="M322.21675,3.66279h-10.024V31.18955h9.94613c4.43377,0,7.78765-1.233,10.10188-3.70173,2.19742-2.38951,3.315-5.74339,3.315-10.06165,0-4.35589-1.07989-7.71107-3.23837-10.024C330.0044,4.89584,326.65052,3.66279,322.21675,3.66279ZM329.04,25.09831c-1.61854,1.65747-4.20144,2.50632-7.67214,2.50632h-4.97241V7.24771h5.05029c3.4694,0,6.01336.80992,7.6332,2.46739,1.54195,1.61983,2.35187,4.1638,2.35187,7.71107C331.43084,20.89557,330.62092,23.44084,329.04,25.09831Z"/><path d="M344.41675,26.48581a2.92118,2.92118,0,0,0-2.04426-.80992,2.58454,2.58454,0,0,0-2.004.80992,2.70472,2.70472,0,0,0-.84886,2.0819,2.79344,2.79344,0,0,0,.84886,2.043,2.69669,2.69669,0,0,0,2.004.77227,3.0608,3.0608,0,0,0,2.04426-.77227,2.95959,2.95959,0,0,0,.84756-2.043A2.85251,2.85251,0,0,0,344.41675,26.48581Z"/></svg>