<?xml version="1.0" encoding="UTF-8"?><svg id="_圖層_3" xmlns="http://www.w3.org/2000/svg" viewBox="0 0 773.61 120.68"><path d="M68.72,50.74c5.01,2.06,6.98,4.49,7,4.51l.33,.42,1.32-.99-.35-.44c-.09-.11-2.11-2.6-7.22-4.82,3.95-4.92,6.58-9.28,6.58-10.95,0-1.1-.72-1.86-1.75-1.86-4.42,0-10.13,3.63-15.69,9.97-2.61-.34-5.19-.51-7.87-.51-11.08,0-17.98,3.27-21.82,6.01-4.65,3.32-7.42,7.8-7.42,11.97,0,5.45,4.53,8.97,11.53,8.97,4.96,0,10.39-1.76,16.16-5.23,.54,1.39,1.82,2.77,4.77,2.77,3.8,0,9.84-3.74,14.21-6.85-.91,1.1-1.82,2.21-2.74,3.32-1.23,1.49-2.46,2.99-3.69,4.48-18.15,4.4-36.58,18.72-36.58,28.44,0,1.56,1.27,2.68,3.01,2.68,7.38,0,14.31-3.07,19.53-8.64,4.65-4.97,10.77-13.59,16.17-21.19l.06-.08c2.58-.52,5.05-.79,7.36-.79,1.19,0,2.53,.09,3.86,.27l.51,.07,.33-1.63-.58-.08c-1.41-.18-2.8-.28-4.12-.28-1.88,0-3.88,.18-5.97,.53,3.56-4.97,6.96-9.61,9.72-12.73l.4-.45-.46-.34,.44-.52-.55,.43-.76-.57-.96,1.12c-3.64,3.1-14.17,11.15-19.18,11.15-1.69,0-2.68-.74-3-2.25,7.91-5.19,14.21-12.06,17.43-15.91Zm-23.68,40.51c-5.74,5.95-12.06,9.5-16.93,9.5-.81,0-.98-.33-.98-.82,0-8.64,16.47-21.55,33.18-26.27-5.65,6.84-10.72,12.88-15.27,17.58Zm29.58-53s.11,0,.11,.22c0,1.16-2.26,5.16-6.46,10.33-1.8-.66-3.64-1.19-5.58-1.6,5.11-5.46,9.74-8.94,11.94-8.94Zm-25.47,27.29c0,.19,0,.39,.01,.59-5.69,3.47-11,5.23-15.8,5.23-6.1,0-9.89-2.8-9.89-7.32,0-6.59,8.77-16.33,27.59-16.33,2.18,0,4.39,.12,6.58,.35-5.18,6.34-8.49,13.13-8.49,17.49Zm2.07-.76c.46-3.4,4.43-9.74,10.18-16.19,1.98,.38,3.92,.89,5.78,1.54-3.12,3.67-8.87,9.85-15.96,14.65Z"/><polygon points="118.67 56.07 94.78 56.07 94.78 36.84 87.81 36.84 87.81 82.46 94.78 82.46 94.78 62.02 118.67 62.02 118.67 82.46 125.64 82.46 125.64 36.84 118.67 36.84 118.67 56.07"/><path d="M178.53,44.64c-4.22-3.96-9.58-5.94-15.97-5.94-6.9,0-12.52,1.92-16.8,5.81-4.41,3.84-6.58,8.95-6.58,15.33s2.11,11.44,6.39,15.14c4.09,3.51,9.46,5.3,16.1,5.3s12.52-1.92,16.87-5.62c4.22-3.71,6.39-8.75,6.39-15.01s-2.17-11.05-6.39-15.01Zm-4.73,27.85c-2.81,3.45-6.96,5.18-12.46,5.18-4.47,0-8.05-1.79-10.8-5.3-2.68-3.32-4.03-7.41-4.03-12.2,0-5.24,1.15-9.58,3.58-12.91,2.68-3.96,6.52-5.94,11.5-5.94,5.24,0,9.33,1.92,12.2,5.81,2.49,3.32,3.77,7.67,3.77,12.91s-1.28,9.33-3.77,12.46Z"/><path d="M133.74,59.4c0-5.75,.77-10.92,2.3-15.53,1.53-4.66,3.83-8.75,6.9-12.2l-.96-.89c-3.45,3.45-6.2,7.67-8.12,12.65-2.04,5.11-3,10.41-3,16.04s.96,10.86,2.94,15.97c1.98,4.98,4.73,9.26,8.18,12.71l.96-.89c-3.07-3.51-5.37-7.6-6.9-12.27-1.53-4.67-2.3-9.84-2.3-15.59Z"/><path d="M182.1,30.77l-.96,.89c3,3.45,5.3,7.54,6.9,12.2,1.53,4.6,2.3,9.78,2.3,15.53s-.77,10.92-2.3,15.59c-1.6,4.66-3.9,8.75-6.9,12.27l.96,.89c3.45-3.45,6.13-7.73,8.18-12.71,1.92-5.11,2.94-10.41,2.94-15.97s-1.02-10.92-3-16.04c-1.98-4.98-4.66-9.2-8.11-12.65Z"/><polygon points="216.37 42.8 213.04 42.8 213.04 39.47 202.33 39.47 202.33 42.8 198.94 42.8 198.94 46.18 195.5 46.18 195.5 56.89 198.94 56.89 198.94 60.28 202.33 60.28 202.33 63.67 212.43 63.67 212.43 67.05 215.82 67.05 215.82 76.61 212.43 76.61 212.43 79.95 202.88 79.95 202.88 76.61 199.54 76.61 199.54 69.84 195.5 69.84 195.5 77.16 198.94 77.16 198.94 80.55 202.33 80.55 202.33 83.99 213.04 83.99 213.04 80.55 216.37 80.55 216.37 77.16 219.76 77.16 219.76 66.45 216.37 66.45 216.37 63.06 213.04 63.06 213.04 59.68 202.88 59.68 202.88 56.35 199.54 56.35 199.54 46.79 202.88 46.79 202.88 43.4 212.43 43.4 212.43 46.79 215.82 46.79 215.82 53.56 219.76 53.56 219.76 46.18 216.37 46.18 216.37 42.8"/><polygon points="222.25 42.78 237.51 42.78 237.51 82.46 244.41 82.46 244.41 42.78 259.62 42.78 259.62 36.84 222.25 36.84 222.25 42.78"/><path d="M269.38,73.32c-1.53,0-2.75,.39-3.64,1.28-1.02,.89-1.47,2.04-1.47,3.51,0,1.34,.45,2.49,1.34,3.39,.89,.89,2.04,1.34,3.32,1.34,.7,0,1.22-.06,1.6-.19,0,1.53-.58,3-1.66,4.47-1.15,1.41-2.62,2.36-4.28,3v3.96c3.19-.89,5.75-2.56,7.67-4.98,1.85-2.43,2.81-5.24,2.81-8.5,0-2.17-.51-3.9-1.53-5.3-1.15-1.34-2.49-1.98-4.15-1.98Z"/><path d="M316.84,36.84l-17.57,45.62h7.41l4.28-11.75h19.61l4.28,11.75h7.47l-17.57-45.62h-7.92Zm-3.77,28.11l7.6-20.64h.26l7.54,20.64h-15.4Z"/><polygon points="373.95 41.57 379.38 42.85 379.38 73.45 358.3 37.74 344.88 38.06 344.88 41.57 350.31 42.85 350.31 77.35 344.88 78.63 344.88 82.46 362.13 82.46 362.13 78.63 356.06 77.35 356.06 47.26 377.14 82.46 385.13 82.46 385.13 42.85 390.56 41.57 390.56 37.74 373.95 38.06 373.95 41.57"/><path d="M413.87,36.84h-16.61v45.62h16.48c7.35,0,12.91-2.04,16.74-6.13,3.64-3.96,5.49-9.52,5.49-16.67s-1.79-12.78-5.37-16.61c-3.83-4.15-9.39-6.2-16.74-6.2Zm11.31,35.52c-2.68,2.75-6.96,4.15-12.71,4.15h-8.24V42.78h8.37c5.75,0,9.97,1.34,12.65,4.09,2.56,2.68,3.9,6.9,3.9,12.78s-1.34,9.97-3.96,12.71Z"/><path d="M484.58,64.31h12.59v9.9c-1.53,.96-3.19,1.73-5.11,2.24-1.98,.51-4.09,.83-6.33,.83-5.69,0-9.9-1.6-12.59-4.79-2.56-2.94-3.77-7.15-3.77-12.65s1.34-10.03,4.15-13.22c2.62-3.07,6.13-4.54,10.54-4.54,3.58,0,6.52,.77,8.69,2.36,2.17,1.53,3.58,3.83,4.22,6.9h7.03c-.83-5.11-2.88-8.88-6.13-11.44-3.39-2.68-7.99-3.96-13.8-3.96-6.71,0-12.08,2.3-16.04,7.03-3.77,4.41-5.62,10.03-5.62,16.87s1.85,12.33,5.62,16.61c4.03,4.6,9.65,6.9,16.93,6.9,3.96,0,7.6-.51,10.92-1.53,3.13-1.02,5.88-2.43,8.24-4.28v-19.17h-19.55v5.94Z"/><path d="M527.24,36.06c-1.7-.87-3.66-1.31-5.88-1.31s-4.11,.44-5.81,1.31c-1.7,.87-3.04,2.08-4.02,3.61-.98,1.53-1.47,3.32-1.47,5.36s.49,3.73,1.47,5.3c.98,1.58,2.32,2.81,4.02,3.7,1.7,.89,3.66,1.34,5.88,1.34s4.11-.45,5.81-1.34c1.7-.89,3.03-2.13,3.99-3.7,.96-1.57,1.44-3.34,1.44-5.3s-.48-3.83-1.44-5.36c-.96-1.53-2.29-2.74-3.99-3.61Zm-.8,13.76c-1.3,1.24-2.99,1.85-5.08,1.85s-3.73-.63-5.05-1.89c-1.32-1.25-1.98-2.86-1.98-4.82s.66-3.54,1.98-4.76c1.32-1.21,3-1.82,5.05-1.82s3.78,.61,5.08,1.82c1.3,1.21,1.95,2.82,1.95,4.82s-.65,3.56-1.95,4.79Z"/><path d="M555.79,36.84h-16.61v45.62h16.48c7.35,0,12.91-2.04,16.74-6.13,3.64-3.96,5.49-9.52,5.49-16.67s-1.79-12.78-5.37-16.61c-3.83-4.15-9.39-6.2-16.74-6.2Zm11.31,35.52c-2.68,2.75-6.96,4.15-12.71,4.15h-8.24V42.78h8.37c5.75,0,9.97,1.34,12.65,4.09,2.56,2.68,3.9,6.9,3.9,12.78s-1.34,9.97-3.96,12.71Z"/><path d="M592.58,74.66c-.96-.89-2.11-1.34-3.39-1.34-1.4,0-2.49,.45-3.32,1.34-.96,.89-1.41,2.05-1.41,3.45,0,1.28,.45,2.43,1.41,3.39,.83,.83,1.92,1.28,3.32,1.28,1.28,0,2.43-.45,3.39-1.28,.89-.96,1.4-2.11,1.4-3.39,0-1.4-.51-2.56-1.4-3.45Z"/></svg>