<?xml version="1.0" encoding="UTF-8"?>
<svg id="_圖層_1" data-name="圖層 1" xmlns="http://www.w3.org/2000/svg" viewBox="0 0 661.85 39.71">
  <g>
    <path d="M14.78,31.42c3.03,0,5.35-.81,7-2.35,1.64-1.58,2.48-3.87,2.48-6.87V7.94h-3.52v14.32c0,2.06-.48,3.58-1.42,4.58-.97,1-2.48,1.52-4.55,1.52s-3.61-.52-4.58-1.52-1.42-2.52-1.42-4.58V7.94h-3.52v14.25c0,3,.84,5.29,2.52,6.9,1.61,1.55,3.93,2.32,7,2.32Z"/>
    <path d="M36.44,32.34c4.46,0,8.36-2.64,13.04-8.82,.06-.08,5.01-6.15,8.77-10.32-3.6,5.24-7.68,12.3-10.63,17.83-.06,.11-.09,.22-.09,.35,0,.34,.27,.62,.61,.62,.12,0,.34-.04,.53-.31,3.01-4.45,15.63-18.88,23.18-24.29l.3-.22-.71-.55-.17,.12c-6.44,4.56-16.42,15.52-21.77,22.45,3.89-6.97,8.89-15.4,12.73-19.98l.16-.2-.53-.53-.19,.13c-2.54,1.68-12.39,13.83-12.81,14.35-.57,.75-1.2,1.47-1.87,2.14l-.08-.11c-.59-.75-1.2-1.39-1.86-1.95,.04-.24,.07-.54,.07-.86,0-2.25-1.89-4.66-7.2-4.66-6.32,0-10.73,4.48-10.73,8.5,0,4.97,5.81,6.29,9.24,6.29Zm1.49-13.96c4.7,0,6.37,1.98,6.37,3.83,0,.09,0,.17,0,.25-1.67-1.22-3.56-1.86-5.5-1.86-4.16,0-7.5,2.85-7.5,5.21,0,2.61,3.42,3.31,5.44,3.31,3.63,0,7.09-2.23,8.11-5.16,.51,.47,1,.99,1.44,1.55l.14,.17c-3.44,3.14-7.96,5.17-11.89,5.17-3.23,0-6.48-1.49-6.48-4.82,0-3.63,4.07-7.67,9.9-7.67Zm6.18,4.98c-.88,2.75-4.77,4.59-7.94,4.59-.41,0-4.05-.06-4.05-2.12s3.08-4.38,6.67-4.38c1.87,0,3.71,.66,5.32,1.92Z"/>
    <rect x="71.74" y="7.94" width="3.48" height="23.03"/>
    <path d="M91.66,29.48c1.26-.99,2.23-2.41,2.92-4.25,.69-1.84,1.03-3.98,1.03-6.42,0-2.57-.33-4.8-.98-6.67-.65-1.88-1.62-3.28-2.92-4.21-1.3-.93-3.28-1.39-5.94-1.39h-5.79V30.96h5.79c2.67,0,4.63-.5,5.89-1.49Zm-8.5-1.21V8.97h2.37c1.96,0,3.37,.34,4.23,1.02,.86,.68,1.52,1.65,1.98,2.91,.46,1.26,.69,3.06,.69,5.4s-.2,4.27-.59,5.63c-.39,1.36-1.05,2.42-1.97,3.19-.92,.77-2.45,1.15-4.6,1.15h-2.12Z"/>
    <path d="M108.56,31.04c.96-.33,1.83-.78,2.61-1.31,.78-.54,1.43-1.14,1.93-1.81,.51-.67,.77-1.37,.77-2.06,0-.77-.26-1.43-.78-1.96-.52-.53-1.31-.8-2.33-.8s-1.92,.25-2.71,.74c-.78,.49-1.46,1.14-2.04,1.94l-.08,.11,.42,.3,.08-.12c.2-.29,.44-.58,.72-.87,.28-.28,.58-.54,.9-.77,.32-.22,.66-.4,1.02-.54,.35-.13,.71-.2,1.08-.2,.69,0,1.19,.2,1.49,.58,.31,.4,.47,.99,.47,1.76s-.2,1.5-.58,2.09c-.39,.6-.89,1.1-1.49,1.49-.6,.39-1.27,.69-1.99,.89-1.49,.41-2.87,.4-3.98-.08-.58-.25-1.08-.58-1.49-.98-.41-.4-.73-.87-.96-1.4-.23-.53-.35-1.08-.35-1.63,0-1,.17-1.84,.5-2.49,.33-.65,.77-1.21,1.3-1.67,.54-.46,1.17-.86,1.86-1.18,.71-.33,1.42-.66,2.14-.99,.67-.3,1.16-.71,1.47-1.21,.31-.5,.46-1.12,.46-1.84,0-.52,.07-1.1,.22-1.72,.14-.62,.38-1.2,.7-1.72,.32-.52,.75-.96,1.28-1.31,.53-.34,1.19-.51,1.96-.51,.85,0,1.51,.18,1.98,.55,.47,.36,.69,.93,.69,1.74,0,.3-.07,.64-.2,1.03-.13,.39-.33,.76-.6,1.12-.26,.35-.6,.66-1,.9-.39,.24-.85,.36-1.38,.36-.55,0-.94-.04-1.16-.13l-.17-.07-.05,.59,.1,.04c.11,.04,.28,.08,.53,.12,.24,.04,.49,.06,.77,.06,.53,0,1.07-.09,1.61-.25,.55-.17,1.05-.43,1.5-.77,.45-.34,.83-.76,1.11-1.26,.29-.5,.43-1.07,.43-1.7,0-.52-.12-.98-.37-1.36-.24-.37-.55-.69-.92-.92-.37-.24-.79-.41-1.24-.51-.45-.1-.91-.16-1.36-.16-1.08,0-2.04,.17-2.85,.51-.81,.34-1.5,.8-2.03,1.37-.54,.57-.94,1.24-1.2,1.98-.26,.74-.39,1.53-.39,2.35,0,.53-.02,.95-.05,1.27-.04,.3-.1,.55-.19,.74-.09,.18-.22,.32-.38,.43-.18,.12-.41,.24-.72,.39-.78,.35-1.57,.72-2.34,1.11-.77,.39-1.46,.84-2.04,1.34-.59,.5-1.07,1.1-1.44,1.78-.37,.68-.55,1.5-.55,2.44,0,.68,.15,1.31,.44,1.88s.72,1.07,1.28,1.48c.55,.41,1.23,.73,2.03,.96,.79,.22,1.71,.34,2.73,.34,.93,0,1.89-.17,2.85-.5Z"/>
    <polygon points="120.83 13.43 128.79 30.96 131.66 30.96 131.66 8.75 129.12 8.75 129.12 26.13 121.12 8.75 118.24 8.75 118.24 30.96 120.83 30.96 120.83 13.43"/>
    <polygon points="142.82 30.96 146.31 30.96 146.31 10.94 153.98 10.94 153.98 7.94 135.11 7.94 135.11 10.94 142.82 10.94 142.82 30.96"/>
    <rect x="156.81" y="7.94" width="3.48" height="23.03"/>
    <polygon points="168.39 20.64 179.84 20.64 179.84 17.65 168.39 17.65 168.39 10.94 180.51 10.94 180.51 7.94 164.87 7.94 164.87 30.96 168.39 30.96 168.39 20.64"/>
    <path d="M187.35,33.83l.48-.45c-1.55-1.77-2.71-3.84-3.48-6.19-.77-2.35-1.16-4.97-1.16-7.87s.39-5.51,1.16-7.84c.77-2.35,1.93-4.42,3.48-6.16l-.48-.45c-1.74,1.74-3.13,3.87-4.1,6.38-1.03,2.58-1.52,5.26-1.52,8.09s.48,5.48,1.48,8.06c1,2.51,2.39,4.68,4.13,6.42Z"/>
    <path d="M202.53,29.42v-1l-2.16-.29c-.81-.13-1.19-.55-1.19-1.29V11.87c0-.32,.06-.61,.22-.81,.19-.26,.52-.42,1-.48l2.13-.29v-1c-2.13,.07-3.81,.1-5.03,.1-1.35,0-3.03-.07-5.06-.13v1.03l2.13,.29c.45,.06,.77,.16,.93,.32,.16,.19,.26,.52,.26,.97v14.96c0,.45-.1,.77-.26,.97-.16,.13-.48,.26-.93,.32l-2.13,.29v1.03c2.06-.1,3.74-.13,5.06-.13,1.23,0,2.9,.03,5.03,.1Z"/>
    <path d="M207.6,4.87l-.48,.45c1.52,1.74,2.68,3.81,3.48,6.16,.77,2.32,1.16,4.93,1.16,7.84s-.39,5.51-1.16,7.87c-.81,2.35-1.97,4.42-3.48,6.19l.48,.45c1.74-1.74,3.1-3.9,4.13-6.42,.97-2.58,1.48-5.26,1.48-8.06s-.52-5.51-1.52-8.09c-1-2.51-2.35-4.64-4.1-6.38Z"/>
    <path d="M219.54,30.4c1.43,.55,3.2,.82,5.3,.82,1.85,0,3.56-.23,5.13-.69,1.57-.46,2.84-1.1,3.8-1.92l-1.1-2.51c-.88,.75-2,1.33-3.37,1.74-1.37,.41-2.8,.61-4.3,.61-2.24,0-3.88-.36-4.95-1.08s-1.6-1.66-1.6-2.82c0-.82,.23-1.49,.68-2.03,.45-.54,1.09-.94,1.9-1.19,.82-.26,1.77-.39,2.87-.39h5.93v-2.77h-5.8c-1.48,0-2.62-.3-3.42-.9-.79-.6-1.19-1.46-1.19-2.58s.5-1.97,1.5-2.69c1-.72,2.51-1.08,4.53-1.08,1.16,0,2.27,.12,3.34,.37,1.06,.25,2.1,.64,3.11,1.18l.93-2.58c-.97-.56-2.11-.99-3.42-1.29-1.31-.3-2.68-.45-4.09-.45-2.04,0-3.75,.29-5.11,.87s-2.37,1.35-3.03,2.3c-.66,.96-.98,2.01-.98,3.14,0,1.05,.23,2,.69,2.84,.46,.84,1.13,1.49,2,1.97,.12,.06,.25,.11,.37,.17-.25,.09-.5,.18-.74,.3-.99,.46-1.78,1.12-2.39,1.98-.6,.86-.9,1.88-.9,3.06,0,1.25,.36,2.36,1.08,3.34,.72,.98,1.79,1.74,3.22,2.29Z"/>
    <path d="M253.38,27.87c1.84-2,2.77-4.81,2.77-8.42s-.9-6.45-2.71-8.38c-1.93-2.1-4.74-3.13-8.45-3.13h-8.38V30.96h8.32c3.71,0,6.51-1.03,8.45-3.1Zm-13.25,.1V10.94h4.22c2.9,0,5.03,.68,6.38,2.06,1.29,1.35,1.97,3.48,1.97,6.45s-.68,5.03-2,6.42c-1.35,1.39-3.51,2.1-6.42,2.1h-4.16Z"/>
  </g>
  <g>
    <rect x="415.25" y="29.24" width="3.47" height="3.47"/>
    <g>
      <path d="M302.36,8.64c-1.68,0-3.17,.33-4.47,.98-1.3,.66-2.3,1.59-3.01,2.79-.58-1.18-1.48-2.11-2.69-2.77-1.21-.67-2.66-1-4.34-1s-3.03,.31-4.24,.93c-1.21,.62-2.16,1.49-2.82,2.61v-3.29h-3.1V31.47h3.22v-13.48c0-2.17,.55-3.79,1.66-4.87,1.11-1.07,2.61-1.61,4.5-1.61,1.7,0,3.04,.51,4.01,1.52,.98,1.01,1.47,2.51,1.47,4.51v13.93h3.19v-13.48c0-2.19,.54-3.82,1.63-4.88,1.08-1.06,2.56-1.6,4.43-1.6,1.7,0,3.06,.51,4.09,1.53,1.03,1.02,1.55,2.52,1.55,4.5v13.93h3.19v-14.02c0-2.86-.73-5.04-2.19-6.54s-3.49-2.26-6.09-2.26Z"/>
      <path d="M325.46,17.57c0,.63-.23,1.17-.68,1.63-.45,.45-1.01,.68-1.65,.68s-1.17-.23-1.63-.68-.68-1-.68-1.63v-6.95h-4.64v6.95c0,2.72,1.55,4.27,4.64,4.64v9.26h4.64v-9.26c3.08-.37,4.61-1.92,4.61-4.64v-6.95h-4.61v6.95Z"/>
      <path d="M349.91,20.34c-.9-.55-2.93-1.29-6.03-2.26-2.16-.64-3.48-1.13-4-1.42-1.16-.61-1.71-1.42-1.71-2.45,0-1.16,.48-2,1.48-2.52,.81-.45,1.97-.68,3.48-.68,1.74,0,3.03,.32,3.93,1,.9,.64,1.48,1.74,1.81,3.22h3.48c-.23-2.52-1.13-4.35-2.74-5.55-1.52-1.16-3.61-1.71-6.29-1.71-2.45,0-4.48,.55-6.1,1.64-1.71,1.16-2.55,2.74-2.55,4.77s.87,3.55,2.64,4.61c.71,.39,2.45,1,5.29,1.9,2.55,.77,4.06,1.29,4.58,1.55,1.45,.74,2.19,1.74,2.19,3.03,0,1.03-.52,1.84-1.55,2.42-1.03,.58-2.42,.9-4.16,.9-1.93,0-3.35-.35-4.29-1.06-1.03-.77-1.68-2.1-1.93-3.9h-3.48c.19,2.9,1.23,5.03,3.13,6.38,1.58,1.1,3.77,1.68,6.58,1.68s5.16-.58,6.77-1.74c1.61-1.19,2.42-2.81,2.42-4.87s-1-3.77-2.97-4.97Z"/>
      <polygon points="354.36 11.44 362.07 11.44 362.07 31.47 365.55 31.47 365.55 11.44 373.22 11.44 373.22 8.44 354.36 8.44 354.36 11.44"/>
      <polygon points="379.51 21.15 391.76 21.15 391.76 18.15 379.51 18.15 379.51 11.44 392.54 11.44 392.54 8.44 375.99 8.44 375.99 31.47 393.08 31.47 393.08 28.47 379.51 28.47 379.51 21.15"/>
      <rect x="411.77" y="25.77" width="3.47" height="3.47"/>
      <rect x="415.25" y="11.87" width="3.47" height="6.95"/>
      <polygon points="401.35 11.87 415.25 11.87 415.25 8.4 397.88 8.4 397.88 32.72 401.35 32.72 401.35 22.29 408.3 22.29 408.3 25.77 411.77 25.77 411.77 22.29 415.25 22.29 415.25 18.82 401.35 18.82 401.35 11.87"/>
      <rect x="425.13" y="8.44" width="3.48" height="23.03"/>
      <path d="M447.05,4.12c-4.35,0-8.06,1.52-11.13,4.61-3.1,3.06-4.61,6.77-4.61,11.13s1.52,8.03,4.61,11.12c3.06,3.06,6.77,4.61,11.13,4.61s8.03-1.55,11.12-4.61c3.06-3.1,4.61-6.8,4.61-11.12s-1.55-8.06-4.61-11.13-6.8-4.61-11.12-4.61Zm10.13,25.86c-2.84,2.77-6.19,4.16-10.13,4.16s-7.32-1.39-10.13-4.16c-2.77-2.84-4.16-6.19-4.16-10.13s1.39-7.32,4.16-10.13c2.81-2.77,6.19-4.16,10.13-4.16s7.29,1.39,10.13,4.16c2.77,2.81,4.16,6.19,4.16,10.13s-1.39,7.29-4.16,10.13Z"/>
      <path d="M447.05,8.7c-3.32,0-5.93,1.06-7.87,3.26-1.81,2.06-2.68,4.74-2.68,8.03s.87,5.93,2.68,7.96c1.93,2.13,4.55,3.23,7.87,3.23s5.93-1.07,7.87-3.16c1.81-2.06,2.71-4.74,2.71-8.03s-.9-6.03-2.71-8.06c-1.93-2.16-4.55-3.22-7.87-3.22Zm5.26,17.25c-1.22,1.42-2.97,2.16-5.26,2.16s-4.03-.77-5.26-2.26c-1.23-1.45-1.81-3.42-1.81-5.87s.61-4.48,1.84-5.97c1.23-1.52,2.97-2.26,5.22-2.26s4.03,.74,5.26,2.23c1.23,1.42,1.84,3.42,1.84,6s-.61,4.55-1.84,5.97Z"/>
      <path d="M480.91,22.76c0,2.06-.48,3.58-1.42,4.58-.97,1-2.48,1.52-4.55,1.52s-3.61-.52-4.58-1.52-1.42-2.52-1.42-4.58V8.44h-3.52v14.25c0,3,.84,5.29,2.52,6.9,1.61,1.55,3.93,2.32,7,2.32s5.35-.81,7-2.35c1.64-1.58,2.48-3.87,2.48-6.87V8.44h-3.52v14.32Z"/>
      <path d="M528.93,4.4c-5.18,0-12.05,11.94-13.54,15.32v.03c-1.23,.71-2.37,1.33-3.48,1.87,0-.11,.02-.23,.02-.34,0-2.6-2.34-5.37-8.92-5.37s-10.74,3.95-11.78,7.79c-2.53-1.29-3.97-3.38-3.97-5.77,0-4.66,5.19-9.62,14.81-9.62,4.11,0,10.07,.27,14.3,2.64l.25,.14,.38-.75-.23-.13c-4.43-2.49-10.51-2.78-14.7-2.78-7.71,0-15.68,3.93-15.68,10.5,0,2.82,1.7,5.24,4.67,6.68-.04,.31-.06,.6-.06,.87,0,5.38,6.58,7.34,11.01,7.34,7.43,0,11.45-6.67,14.11-12.51,8.07-4.86,13.92-11.09,13.92-14.81,0-.68-.42-1.08-1.11-1.08Zm0,.88c.22,0,.24,.09,.24,.21,0,3.23-5.27,8.9-12.38,13.41,2.21-4.38,7.98-13.61,12.14-13.61Zm-25.91,11.51c5.93,0,8.04,2.32,8.04,4.49,0,.16-.01,.32-.03,.49-1.74-1.22-3.75-1.87-5.84-1.87-5.82,0-9.67,2.55-10.1,5.02-1.09-.19-2.1-.48-3.02-.86,.85-3.57,4.92-7.28,10.96-7.28Zm8.97,5.75c.93-.45,1.88-.94,2.82-1.48l-.16,.36c-.36,.84-.83,1.66-1.37,2.43l-.17-.19c-.41-.45-.78-.82-1.13-1.13Zm-13.13,2.69c-1.08,0-2.04-.06-2.92-.17,.33-1.87,3.56-4.27,9.24-4.27,1.9,0,3.63,.53,5.17,1.57-4.18,1.88-8.14,2.87-11.49,2.87Zm0,.88c3.4,0,7.43-1,11.68-2.88-1.52,2.77-6.24,4.45-10.1,4.45-1.5,0-3.96-.23-4.45-1.73,.88,.11,1.82,.16,2.87,.16Zm-6.95-1.14c.95,.37,2.01,.66,3.16,.84,.46,2.6,4.97,3.2,6.57,3.2,4.14,0,8-2.08,9.6-5.18,.08-.17,.18-.36,.26-.55,.31,.28,.62,.59,.96,.97l.17,.19,.57-.42c-3.01,4.2-8.36,7.22-13.29,7.22-3.98,0-8.01-1.78-8.01-5.75,0-.18,0-.35,.02-.51Z"/>
      <path d="M535.97,8.44l-8.87,23.03h3.74l2.16-5.93h9.9l2.16,5.93h3.77l-8.87-23.03h-4Zm-1.9,14.19l3.84-10.42h.13l3.81,10.42h-7.77Z"/>
      <polygon points="566.54 25.56 566.41 25.56 554.64 8.44 551.09 8.44 551.09 31.47 554.6 31.47 554.6 14.15 554.73 14.15 566.63 31.47 570.05 31.47 570.05 8.44 566.54 8.44 566.54 25.56"/>
      <rect x="574.66" y="8.44" width="3.48" height="23.03"/>
      <polygon points="594.84 21.79 589.01 8.89 581.75 9.05 581.75 10.83 584.49 11.47 584.49 28.89 581.75 29.53 581.75 31.47 590.46 31.47 590.46 29.53 587.39 28.89 587.39 12.76 588.2 15.02 593.2 25.5 595.78 25.34 600.78 15.18 601.74 12.76 601.74 28.89 598.68 29.53 598.68 31.47 607.71 31.47 607.71 29.53 604.97 28.89 604.97 11.47 607.71 10.83 607.71 8.89 600.94 9.05 594.84 21.79"/>
      <path d="M617.86,8.44l-8.87,23.03h3.74l2.16-5.93h9.9l2.16,5.93h3.77l-8.87-23.03h-4Zm-1.9,14.19l3.84-10.42h.13l3.81,10.42h-7.77Z"/>
      <polygon points="636.46 8.44 632.98 8.44 632.98 31.47 649.14 31.47 649.14 28.47 636.46 28.47 636.46 8.44"/>
      <path d="M655.87,27.53c-.48-.45-1.07-.68-1.71-.68-.71,0-1.26,.23-1.68,.68-.48,.45-.71,1.03-.71,1.74,0,.64,.23,1.23,.71,1.71,.42,.42,.97,.65,1.68,.65,.64,0,1.23-.23,1.71-.65,.45-.48,.71-1.06,.71-1.71,0-.71-.26-1.29-.71-1.74Z"/>
    </g>
  </g>
</svg>