<?xml version="1.0" encoding="UTF-8"?><svg id="_圖層_3" xmlns="http://www.w3.org/2000/svg" viewBox="0 0 773.61 120.68"><g><path d="M52.91,43.67c0,2.68-.63,4.64-1.84,5.94-1.25,1.3-3.22,1.97-5.9,1.97s-4.68-.67-5.94-1.97-1.84-3.26-1.84-5.94V25.1h-4.56v18.48c0,3.89,1.09,6.86,3.26,8.95,2.09,2.01,5.1,3.01,9.07,3.01s6.94-1.05,9.07-3.05c2.13-2.05,3.22-5.02,3.22-8.91V25.1h-4.56v18.57Z"/><path d="M119.59,24.13l-.91-.71-.22,.16c-8.35,5.92-21.3,20.13-28.23,29.11,5.04-9.04,11.53-19.97,16.51-25.9l.21-.25-.69-.69-.25,.16c-3.3,2.19-16.07,17.93-16.62,18.61-.73,.98-1.55,1.91-2.43,2.78l-.11-.14c-.76-.96-1.57-1.81-2.42-2.53,.05-.32,.1-.7,.1-1.11,0-2.92-2.45-6.05-9.34-6.05-8.2,0-13.92,5.81-13.92,11.02,0,6.44,7.53,8.16,11.99,8.16,5.78,0,10.84-3.42,16.91-11.44,.08-.1,6.5-7.97,11.37-13.38-4.67,6.8-9.95,15.95-13.78,23.12-.08,.14-.12,.29-.12,.45,0,.45,.35,.81,.79,.81,.15,0,.44-.05,.69-.41,3.91-5.77,20.27-24.48,30.07-31.5l.39-.28Zm-44.39,14.51c6.09,0,8.26,2.57,8.26,4.97,0,.11,0,.22-.01,.33-2.17-1.58-4.62-2.41-7.14-2.41-5.39,0-9.73,3.7-9.73,6.76,0,3.39,4.43,4.3,7.05,4.3,4.71,0,9.2-2.9,10.52-6.69,.66,.61,1.29,1.29,1.86,2.01l.18,.22c-4.47,4.08-10.32,6.71-15.42,6.71-4.18,0-8.4-1.93-8.4-6.26,0-4.7,5.27-9.94,12.84-9.94Zm8.01,6.46c-1.15,3.57-6.19,5.95-10.3,5.95-.54,0-5.26-.08-5.26-2.75s3.99-5.69,8.65-5.69c2.43,0,4.81,.86,6.9,2.49Z"/><rect x="119.06" y="25.1" width="4.52" height="29.86"/><path d="M144.97,25.07c-1.68-1.2-4.25-1.81-7.71-1.81h-7.51v31.69h7.51c3.46,0,6-.64,7.64-1.93,1.63-1.29,2.9-3.12,3.79-5.51,.89-2.39,1.34-5.16,1.34-8.32,0-3.33-.42-6.22-1.27-8.66-.84-2.44-2.11-4.26-3.79-5.46Zm.16,20.76c-.51,1.76-1.36,3.14-2.55,4.14-1.19,.99-3.18,1.49-5.96,1.49h-2.75V26.43h3.08c2.54,0,4.37,.44,5.48,1.32,1.11,.88,1.97,2.14,2.57,3.77,.6,1.63,.9,3.97,.9,7.01s-.25,5.54-.76,7.31Z"/><path d="M176.51,30.18c-.48-.31-1.02-.53-1.61-.67-.59-.13-1.18-.2-1.76-.2-1.4,0-2.64,.22-3.7,.66-1.06,.44-1.94,1.04-2.64,1.78-.69,.74-1.22,1.61-1.56,2.57-.34,.96-.51,1.98-.51,3.05,0,.68-.02,1.23-.07,1.64-.04,.39-.13,.72-.25,.96s-.28,.42-.49,.56c-.23,.15-.55,.32-.94,.51-1.03,.46-2.05,.94-3.03,1.43-1,.5-1.89,1.09-2.65,1.74-.76,.66-1.39,1.43-1.87,2.3-.48,.88-.72,1.94-.72,3.16,0,.88,.19,1.71,.57,2.44,.38,.74,.94,1.38,1.66,1.92,.72,.54,1.6,.95,2.63,1.24,1.02,.29,2.21,.44,3.54,.44,1.21,0,2.45-.22,3.69-.65,1.24-.43,2.38-1,3.39-1.7,1.01-.7,1.86-1.49,2.51-2.35,.67-.87,1-1.77,1-2.67,0-1-.34-1.85-1.02-2.54-.68-.69-1.69-1.04-3.03-1.04s-2.5,.32-3.51,.96c-1.01,.63-1.89,1.48-2.64,2.52l-.11,.15,.55,.39,.1-.15c.26-.37,.57-.75,.93-1.12,.36-.37,.75-.71,1.17-1,.41-.29,.86-.52,1.32-.69,.45-.17,.93-.26,1.4-.26,.89,0,1.54,.25,1.93,.75,.4,.51,.61,1.28,.61,2.29s-.25,1.94-.76,2.71c-.51,.77-1.16,1.42-1.93,1.93-.78,.51-1.65,.9-2.58,1.16-1.94,.53-3.71,.52-5.16-.1-.75-.32-1.4-.75-1.93-1.27-.53-.52-.95-1.13-1.25-1.82-.3-.69-.45-1.4-.45-2.11,0-1.3,.22-2.39,.64-3.23,.43-.84,1-1.57,1.69-2.16,.7-.6,1.51-1.11,2.41-1.53,.92-.43,1.84-.86,2.77-1.29,.86-.39,1.5-.92,1.9-1.57,.4-.65,.6-1.45,.6-2.38,0-.68,.09-1.43,.28-2.23,.19-.8,.49-1.55,.91-2.24,.41-.68,.97-1.25,1.66-1.7,.68-.44,1.54-.67,2.55-.67,1.1,0,1.96,.24,2.57,.71,.59,.46,.9,1.22,.9,2.25,0,.38-.09,.83-.26,1.34-.17,.5-.43,.99-.78,1.45-.34,.46-.78,.85-1.29,1.17-.5,.31-1.1,.47-1.78,.47-.72,0-1.22-.06-1.51-.17l-.22-.09-.07,.77,.12,.05c.13,.05,.35,.1,.68,.15,.94,.15,2.02,.07,3.09-.26,.71-.22,1.36-.55,1.95-.99,.59-.44,1.08-.99,1.44-1.63,.37-.64,.56-1.38,.56-2.2,0-.68-.16-1.27-.48-1.76-.31-.48-.71-.89-1.2-1.2Z"/><polygon points="193.48 48.69 183.11 26.15 179.37 26.15 179.37 54.96 182.72 54.96 182.72 32.21 193.05 54.96 196.77 54.96 196.77 26.15 193.48 26.15 193.48 48.69"/><polygon points="201.26 28.99 211.25 28.99 211.25 54.96 215.77 54.96 215.77 28.99 225.72 28.99 225.72 25.1 201.26 25.1 201.26 28.99"/><rect x="229.4" y="25.1" width="4.52" height="29.86"/><polygon points="239.85 54.96 244.41 54.96 244.41 41.58 259.26 41.58 259.26 37.69 244.41 37.69 244.41 28.99 260.14 28.99 260.14 25.1 239.85 25.1 239.85 54.96"/><path d="M269.63,21.71l-.63-.59c-2.26,2.26-4.06,5.02-5.31,8.28-1.34,3.35-1.97,6.82-1.97,10.5s.63,7.11,1.92,10.45c1.3,3.26,3.09,6.06,5.35,8.32l.63-.59c-2.01-2.3-3.51-4.98-4.52-8.03-1-3.05-1.51-6.44-1.51-10.2s.5-7.15,1.51-10.16c1-3.05,2.51-5.73,4.52-7.99Z"/><path d="M295.26,21.13l-.63,.59c1.97,2.26,3.47,4.93,4.52,7.99,1,3.01,1.51,6.4,1.51,10.16s-.5,7.15-1.51,10.2c-1.05,3.05-2.55,5.73-4.52,8.03l.63,.59c2.26-2.26,4.01-5.06,5.35-8.32,1.25-3.35,1.92-6.82,1.92-10.45s-.67-7.15-1.97-10.5c-1.3-3.26-3.05-6.02-5.31-8.28Z"/><path d="M275.61,26.81v1.34l2.76,.38c.59,.08,1,.21,1.21,.42,.21,.25,.33,.67,.33,1.25v19.4c0,.59-.13,1-.33,1.25-.21,.17-.63,.33-1.21,.42l-2.76,.38v1.34c2.68-.13,4.85-.17,6.57-.17,1.59,0,3.76,.04,6.52,.13v-1.3l-2.8-.38c-1.05-.17-1.55-.71-1.55-1.67V30.2c0-.42,.08-.79,.29-1.05,.25-.33,.67-.54,1.3-.63l2.76-.38v-1.3c-2.76,.08-4.93,.13-6.52,.13-1.76,0-3.93-.08-6.57-.17Z"/><path d="M323.43,50.9c-1.77,.53-3.63,.79-5.58,.79-2.9,0-5.04-.47-6.42-1.4-1.38-.93-2.07-2.15-2.07-3.66,0-1.06,.29-1.94,.88-2.63,.59-.7,1.41-1.21,2.47-1.55,1.06-.33,2.3-.5,3.72-.5h7.69v-3.6h-7.53c-1.92,0-3.4-.39-4.43-1.17-1.03-.78-1.55-1.9-1.55-3.35s.65-2.56,1.94-3.49,3.25-1.4,5.88-1.4c1.51,0,2.95,.16,4.33,.48,1.38,.32,2.72,.83,4.04,1.53l1.21-3.35c-1.25-.72-2.73-1.28-4.43-1.67-1.7-.39-3.47-.59-5.31-.59-2.65,0-4.86,.38-6.63,1.13-1.77,.75-3.08,1.75-3.93,2.99-.85,1.24-1.28,2.6-1.28,4.08,0,1.37,.3,2.59,.9,3.68s1.46,1.94,2.59,2.55c.15,.08,.32,.15,.48,.22-.33,.11-.65,.24-.96,.39-1.28,.6-2.31,1.46-3.09,2.57-.78,1.12-1.17,2.44-1.17,3.97,0,1.62,.47,3.06,1.4,4.33,.93,1.27,2.33,2.26,4.18,2.97,1.85,.71,4.15,1.07,6.88,1.07,2.4,0,4.61-.3,6.65-.9,2.03-.6,3.68-1.43,4.93-2.49l-1.42-3.26c-1.14,.98-2.6,1.73-4.37,2.26Z"/><path d="M354.73,29.16c-2.51-2.72-6.15-4.06-10.96-4.06h-10.87v29.86h10.79c4.81,0,8.45-1.34,10.96-4.01,2.38-2.59,3.6-6.23,3.6-10.91s-1.17-8.36-3.51-10.87Zm-3.55,19.2c-1.76,1.8-4.56,2.72-8.32,2.72h-5.39V28.99h5.48c3.76,0,6.52,.88,8.28,2.68,1.67,1.76,2.55,4.52,2.55,8.36s-.88,6.52-2.59,8.32Z"/></g><g><path d="M66.29,68.61c-2.17,0-4.11,.43-5.79,1.28-1.69,.85-2.99,2.06-3.91,3.62-.75-1.53-1.92-2.73-3.49-3.6-1.58-.86-3.45-1.3-5.62-1.3s-3.92,.4-5.5,1.21c-1.58,.81-2.8,1.94-3.66,3.39v-4.27h-4.01v29.27h4.18v-17.48c0-2.82,.72-4.92,2.15-6.31,1.44-1.39,3.38-2.09,5.83-2.09,2.2,0,3.94,.66,5.21,1.97,1.27,1.31,1.9,3.26,1.9,5.86v18.07h4.14v-17.48c0-2.84,.7-4.96,2.11-6.34,1.41-1.38,3.32-2.07,5.75-2.07,2.2,0,3.97,.66,5.31,1.99,1.34,1.32,2.01,3.27,2.01,5.83v18.07h4.14v-18.19c0-3.71-.95-6.54-2.84-8.49-1.9-1.95-4.53-2.93-7.9-2.93Z"/><path d="M96.25,80.19c0,.82-.29,1.52-.88,2.11-.59,.59-1.3,.88-2.14,.88s-1.52-.29-2.11-.88c-.59-.59-.88-1.29-.88-2.11v-9.01h-6.02v9.01c0,3.53,2.01,5.54,6.02,6.02v12h6.02v-12c3.99-.48,5.98-2.49,5.98-6.02v-9.01h-5.98v9.01Z"/><path d="M127.97,83.79c-1.17-.71-3.81-1.67-7.82-2.93-2.8-.84-4.52-1.46-5.19-1.84-1.51-.79-2.22-1.84-2.22-3.18,0-1.51,.63-2.59,1.92-3.26,1.05-.59,2.55-.88,4.52-.88,2.26,0,3.93,.42,5.1,1.3,1.17,.84,1.92,2.26,2.34,4.18h4.52c-.29-3.26-1.46-5.65-3.55-7.19-1.97-1.51-4.68-2.22-8.15-2.22-3.18,0-5.81,.71-7.9,2.13-2.22,1.51-3.3,3.55-3.3,6.19s1.13,4.6,3.43,5.98c.92,.5,3.18,1.3,6.86,2.47,3.3,1,5.27,1.67,5.94,2.01,1.88,.96,2.84,2.26,2.84,3.93,0,1.34-.67,2.38-2.01,3.14s-3.14,1.17-5.39,1.17c-2.51,0-4.35-.46-5.56-1.38-1.34-1-2.17-2.72-2.51-5.06h-4.52c.25,3.76,1.59,6.52,4.06,8.28,2.05,1.42,4.89,2.17,8.53,2.17s6.69-.75,8.78-2.26c2.09-1.55,3.14-3.64,3.14-6.31s-1.3-4.89-3.85-6.44Z"/><polygon points="133.74 72.25 143.73 72.25 143.73 98.22 148.25 98.22 148.25 72.25 158.2 72.25 158.2 68.36 133.74 68.36 133.74 72.25"/><polygon points="166.36 84.84 182.25 84.84 182.25 80.95 166.36 80.95 166.36 72.25 183.25 72.25 183.25 68.36 161.8 68.36 161.8 98.22 183.96 98.22 183.96 94.33 166.36 94.33 166.36 84.84"/><rect x="212.71" y="95.33" width="4.51" height="4.51"/><polygon points="194.69 72.8 212.71 72.8 212.71 68.3 190.18 68.3 190.18 99.84 194.69 99.84 194.69 86.32 203.7 86.32 203.7 90.83 208.21 90.83 208.21 86.32 212.71 86.32 212.71 81.81 194.69 81.81 194.69 72.8"/><rect x="208.21" y="90.83" width="4.51" height="4.51"/><rect x="212.71" y="72.8" width="4.51" height="9.01"/><rect x="225.53" y="68.36" width="4.52" height="29.86"/><path d="M253.97,68.69c-4.31,0-7.69,1.38-10.2,4.22-2.34,2.68-3.47,6.15-3.47,10.41s1.13,7.69,3.47,10.33c2.51,2.76,5.9,4.18,10.2,4.18s7.69-1.38,10.2-4.1c2.34-2.68,3.51-6.15,3.51-10.41s-1.17-7.82-3.51-10.45c-2.51-2.8-5.9-4.18-10.2-4.18Zm6.82,22.37c-1.59,1.84-3.85,2.8-6.82,2.8s-5.23-1-6.82-2.93c-1.59-1.88-2.34-4.43-2.34-7.61s.79-5.81,2.38-7.74c1.59-1.97,3.85-2.93,6.77-2.93s5.23,.96,6.82,2.89c1.59,1.84,2.38,4.43,2.38,7.78s-.8,5.9-2.38,7.74Z"/><path d="M253.97,62.76c-5.65,0-10.45,1.97-14.43,5.98-4.01,3.97-5.98,8.78-5.98,14.43s1.97,10.41,5.98,14.43,8.78,5.98,14.43,5.98,10.41-2.01,14.43-5.98c3.97-4.01,5.98-8.82,5.98-14.43s-2.01-10.45-5.98-14.43c-4.01-4.01-8.82-5.98-14.43-5.98Zm13.13,33.54c-3.68,3.6-8.03,5.39-13.13,5.39s-9.49-1.8-13.13-5.39c-3.6-3.68-5.39-8.03-5.39-13.13s1.8-9.49,5.39-13.13c3.64-3.6,8.03-5.39,13.13-5.39s9.45,1.8,13.13,5.39c3.6,3.64,5.39,8.03,5.39,13.13s-1.8,9.45-5.39,13.13Z"/><path d="M297.88,86.93c0,2.68-.63,4.64-1.84,5.94-1.25,1.3-3.22,1.97-5.9,1.97s-4.68-.67-5.94-1.97-1.84-3.26-1.84-5.94v-18.57h-4.56v18.48c0,3.89,1.09,6.86,3.26,8.95,2.09,2.01,5.1,3.01,9.07,3.01s6.94-1.05,9.07-3.05c2.13-2.05,3.22-5.02,3.22-8.91v-18.48h-4.56v18.57Z"/><path d="M360.16,63.12c-6.72,0-15.63,15.48-17.55,19.86l-.02,.04c-1.58,.92-3.06,1.72-4.5,2.43,.01-.15,.02-.29,.02-.44,0-3.37-3.04-6.96-11.56-6.96s-13.93,5.12-15.27,10.1c-3.28-1.68-5.14-4.38-5.14-7.48,0-6.05,6.73-12.47,19.2-12.47,5.33,0,13.06,.35,18.55,3.42l.33,.18,.49-.98-.3-.17c-5.74-3.23-13.64-3.6-19.07-3.6-10,0-20.34,5.09-20.34,13.61,0,3.65,2.2,6.79,6.05,8.66-.05,.4-.07,.78-.07,1.12,0,6.98,8.54,9.51,14.28,9.51,9.64,0,14.84-8.65,18.3-16.22,10.47-6.31,18.05-14.38,18.05-19.21,0-.88-.54-1.41-1.45-1.41Zm.31,1.41c0,4.19-6.83,11.54-16.05,17.39,2.87-5.67,10.35-17.65,15.74-17.65,.29,0,.31,.12,.31,.27Zm-33.92,14.66c7.69,0,10.42,3.01,10.42,5.83,0,.2-.01,.41-.04,.64-2.26-1.59-4.87-2.42-7.58-2.42-7.54,0-12.54,3.3-13.1,6.51-1.42-.24-2.73-.62-3.91-1.11,1.1-4.63,6.38-9.44,14.21-9.44Zm11.63,7.46c1.21-.58,2.44-1.22,3.66-1.91l-.2,.47c-.47,1.09-1.07,2.15-1.78,3.15l-.22-.24c-.53-.58-1.01-1.06-1.47-1.47Zm-17.02,3.48c-1.41,0-2.65-.07-3.78-.22,.43-2.42,4.61-5.54,11.98-5.54,2.46,0,4.71,.68,6.7,2.04-5.42,2.44-10.56,3.72-14.9,3.72Zm0,1.14c4.41,0,9.63-1.29,15.15-3.74-1.97,3.59-8.09,5.78-13.1,5.78-1.94,0-5.14-.3-5.77-2.24,1.14,.14,2.36,.21,3.72,.21Zm-9.02-1.48c1.23,.49,2.6,.85,4.1,1.1,.59,3.37,6.45,4.14,8.52,4.14,5.37,0,10.37-2.7,12.44-6.72,.11-.22,.23-.47,.34-.72,.4,.36,.81,.78,1.25,1.26l.22,.25,.74-.55c-3.9,5.45-10.84,9.36-17.24,9.36-5.17,0-10.38-2.31-10.38-7.46,0-.23,0-.45,.03-.66Z"/><path d="M369.3,68.36l-11.5,29.86h4.85l2.8-7.69h12.84l2.8,7.69h4.89l-11.5-29.86h-5.19Zm-2.47,18.4l4.98-13.51h.17l4.93,13.51h-10.08Z"/><polygon points="408.94 90.57 408.78 90.57 393.51 68.36 388.91 68.36 388.91 98.22 393.47 98.22 393.47 75.76 393.64 75.76 409.07 98.22 413.5 98.22 413.5 68.36 408.94 68.36 408.94 90.57"/><rect x="419.48" y="68.36" width="4.52" height="29.86"/><polygon points="445.66 85.67 438.09 68.94 428.68 69.15 428.68 71.45 432.24 72.29 432.24 94.87 428.68 95.71 428.68 98.22 439.97 98.22 439.97 95.71 436 94.87 436 73.96 437.04 76.89 443.53 90.48 446.87 90.27 453.35 77.1 454.61 73.96 454.61 94.87 450.64 95.71 450.64 98.22 462.34 98.22 462.34 95.71 458.79 94.87 458.79 72.29 462.34 71.45 462.34 68.94 453.56 69.15 445.66 85.67"/><path d="M475.52,68.36l-11.5,29.86h4.85l2.8-7.69h12.84l2.8,7.69h4.89l-11.5-29.86h-5.19Zm-2.47,18.4l4.98-13.51h.17l4.93,13.51h-10.08Z"/><polygon points="499.65 68.36 495.13 68.36 495.13 98.22 516.08 98.22 516.08 94.33 499.65 94.33 499.65 68.36"/><path d="M524.82,93.12c-.63-.59-1.38-.88-2.22-.88-.92,0-1.63,.29-2.17,.88-.63,.59-.92,1.34-.92,2.26,0,.84,.29,1.59,.92,2.22,.54,.54,1.25,.84,2.17,.84,.84,0,1.59-.29,2.22-.84,.59-.63,.92-1.38,.92-2.22,0-.92-.33-1.67-.92-2.26Z"/></g></svg>