<svg id="圖層_1" data-name="圖層 1" xmlns="http://www.w3.org/2000/svg" viewBox="0 0 173.61052 45.24863"><path d="M10.60734,14.05053H0v1.37131l3.68032.39567c.07182,3.46351.07182,6.96361.07182,10.49894V28.265c0,3.53533,0,6.99884-.07182,10.46236L0,39.1244v1.37131H11.18459V39.1244l-3.75213-.43227c-.07318-2.99466-.07318-5.84433-.07318-8.76718H9.45284C17.426,29.925,20.529,26.28122,20.529,21.88,20.529,17.18883,17.24574,14.05053,10.60734,14.05053ZM9.8851,28.33683H7.35928V26.31645c0-3.60715,0-7.21565.07318-10.71439H9.95692c4.72642,0,6.8552,2.27242,6.8552,6.27795C16.81212,25.704,14.82833,28.33683,9.8851,28.33683Z"/><polygon points="29.608 27.616 44.902 27.616 44.902 23.873 29.608 23.873 29.608 15.5 45.868 15.5 45.868 11.758 25.22 11.758 25.22 40.496 46.553 40.496 46.553 36.753 29.608 36.753 29.608 27.616"/><path d="M64.99707,23.3239c-4.017-.20325-8.99077,1.95128-12.417,5.33484-2.69994,2.69791-4.24808,5.824-4.24808,8.57612,0,2.55156,1.68839,4.16543,4.40459,4.2115.05353.00136.10773.00136.16261.00136,3.538,0,8.02732-2.4811,10.982-6.08825A14.33039,14.33039,0,0,0,66.97544,28.698c.00542-.05285.01084-.1057.01491-.15719a1.44853,1.44853,0,0,0,.62129-.45123,3.09155,3.09155,0,0,0,.69243-2.23312C68.18076,24.37407,66.945,23.42824,64.99707,23.3239ZM54.01641,38.40156c0-1.58812,1.14027-4.06244,2.90252-6.30234,2.6891-3.37273,6.14041-5.77388,8.02122-5.58823a.61326.61326,0,0,1,.439.22358,1.24781,1.24781,0,0,1,.14093.9255c-.20529,2.01767-1.92553,4.80637-3.4669,6.74138-2.63558,3.29413-5.17088,5.27928-7.425,5.83349a.52218.52218,0,0,0-.15921-.416c-.021-.02439-.04675-.05284-.07521-.09078A2.13027,2.13027,0,0,1,54.01641,38.40156ZM65.05669,25.41881c-2.51362-.248-6.49137,2.19519-9.44945,5.84976a11.30439,11.30439,0,0,0-2.72636,6.77119,3.16672,3.16672,0,0,0,.82522,2.29817c.01152.01219.02643.02574.04269.04065a4.4786,4.4786,0,0,1-.58674.01084,2.058,2.058,0,0,1-2.204-2.26836c0-2.248,1.45126-5.34974,3.69455-7.89994,2.17417-2.42284,6.83691-5.6858,10.10461-5.6858.07114,0,.14228.00271.21207.00542,1.204.03794,2.10914.62332,2.20331,1.43771a2.14811,2.14811,0,0,1-.22155,1.30627A2.06692,2.06692,0,0,0,65.05669,25.41881Z"/><path d="M109.41226,13.03153a10.66823,10.66823,0,0,0,1.39841-4.91477,7.00943,7.00943,0,0,0-1.03661-3.92288,7.81607,7.81607,0,0,0-2.706-2.52581A11.54132,11.54132,0,0,0,103.37009.36044,22.982,22.982,0,0,0,99.35642,0q-1.08336,0-3.02176.18022-1.94111.1809-4.41882.44988-2.48178.27237-5.27657.45123-2.79682.18294-5.50151.18022c-.72224,0-1.4743-.01355-2.25481-.04471A11.25793,11.25793,0,0,1,76.89916.9919Q75.90523.811,75.81647.36044C75.7555.1206,75.66606,0,75.54546,0c-.18022,0-.3767.2561-.58673.7656a3.86723,3.86723,0,0,0-.31438.94718q0,.99393,1.71279.9919a43.202,43.202,0,0,0,5.637-.36044q2.75008-.35978,5.637-.45123c.30082,0,.45123.12195.45123.3618a3.52088,3.52088,0,0,1-.271.99189q-.27033.72157-.63146,1.53257-.35976.813-.72088,1.57863a9.53839,9.53839,0,0,1-.54067,1.03661q-1.98582,3.6993-4.6004,8.34306Q78.7,20.384,76.44793,24.1714,74.55356,27.328,72.479,30.845a66.70208,66.70208,0,0,0-3.33749,6.31319,4.75448,4.75448,0,0,0-.44988,1.62335,1.32738,1.32738,0,0,0,.54067,1.1274,4.08875,4.08875,0,0,0,1.26291.63145,8.0868,8.0868,0,0,0,1.48784.31573,10.895,10.895,0,0,0,1.12741.09079q1.9838,0,4.01366-.18022,2.02851-.18294,3.65322-.45123c.29946-.05963.44987-.18023.44987-.36045s-.33063-.271-.99189-.271a10.64136,10.64136,0,0,1-4.32939-.67617,2.42106,2.42106,0,0,1-1.44313-2.39031,7.72934,7.72934,0,0,1,.99325-3.2467q1.53257-2.97772,3.78737-7.03543,2.25413-4.05906,4.68983-8.343,2.435-4.28264,4.82534-8.297,2.38827-4.0123,4.10445-6.89992a3.01558,3.01558,0,0,1,1.80357-1.53392A16.81579,16.81579,0,0,1,98.725.81168,10.74834,10.74834,0,0,1,104.27119,2.164q2.30088,1.35369,2.30088,5.14106a13.10027,13.10027,0,0,1-1.21819,5.41208,16.728,16.728,0,0,1-3.33749,4.87,16.9122,16.9122,0,0,1-5.05028,3.51771,15.00136,15.00136,0,0,1-6.3579,1.35234,15.68307,15.68307,0,0,1-2.30087-.18022,8.58634,8.58634,0,0,1-1.66807-.36044.31841.31841,0,0,0-.36045.36044c0,.1206.08944.2412.26966.36045a11.437,11.437,0,0,0,3.96894.63145,22.93018,22.93018,0,0,0,8.52328-1.48785,21.61345,21.61345,0,0,0,6.3579-3.78872A17.44463,17.44463,0,0,0,109.41226,13.03153Z"/><path d="M140.47545,12.9537c0-.82116-.42616-1.31034-1.13959-1.31034-2.92759,0-7.31864,5.45815-9.23061,8.03817a37.58985,37.58985,0,0,0-12.8364-2.496c-9.74214,0-15.56412,5.217-15.56412,10.26181,0,3.24128,2.68774,7.02594,10.2618,7.02594a25.77009,25.77009,0,0,0,11.30181-2.71282,20.6095,20.6095,0,0,1-1.72295,2.664,19.05163,19.05163,0,0,0-2.664,1.29679l-.19445.11518.12669,1.02713.456-.271q.38213-.22561.80287-.44175a14.28914,14.28914,0,0,1-3.11527,2.43232,19.87876,19.87876,0,0,0-4.00011-1.70872,15.35139,15.35139,0,0,0-3.93371-.496c-1.1274,0-4.805.14363-4.805,1.98244,0,2.90523,8.55715,3.30768,8.64387,3.30768a10.32227,10.32227,0,0,0,5.19527-1.2873c.45055.26694.90111.54067,1.35166.81439,3.28058,1.99192,6.673,4.05295,10.49419,4.05295,5.30029,0,7.71431-3.14236,7.71431-6.06114,0-3.9039-3.16066-6.23459-8.45416-6.23459a21.28937,21.28937,0,0,0-5.42427.75341c.44784-.87537.87942-1.82661,1.30965-2.88355C134.65009,25.39442,140.47545,15.76,140.47545,12.9537Zm-9.8187,8.072c.17616.0664.353.13144.52915.20326l.32318.12873.395-.99326-.84691-.32521c3.44386-4.60988,6.52186-7.35115,8.32882-7.35115h.0061s.0454.05149.0454.26559c0,2.41334-5.31723,11.08974-13.77207,16.32972l.03523-.09485.15516-.416a39.52708,39.52708,0,0,1,4.55026-7.84169C130.4894,20.96341,130.57342,20.99457,130.65675,21.02574ZM111.96653,33.4353c-6.80845,0-9.22383-3.225-9.22383-5.988,0-4.534,5.43375-9.22384,14.52615-9.22384a36.44784,36.44784,0,0,1,12.19,2.35237,44.74052,44.74052,0,0,0-4.59363,7.80781c-.24391.59486-.50611,1.22361-.80151,1.82389A25.31781,25.31781,0,0,1,111.96653,33.4353Zm17.93681,10.77536c-3.64847,0-6.887-1.98108-10.01924-3.89712-.29608-.18158-.59216-.36316-.88824-.542a15.01934,15.01934,0,0,0,4.10174-4.85786,20.08212,20.08212,0,0,1,6.09976-1.00816c2.21958,0,7.38232.51492,7.38232,5.282C136.57968,41.60626,134.49019,44.21066,129.90334,44.21066Zm-21.00058-6.87959a14.29459,14.29459,0,0,1,3.68913.46749,18.587,18.587,0,0,1,3.27109,1.355,12.12977,12.12977,0,0,1-4.96287,1.02849c-1.96957,0-5.64379-.626-5.64379-1.82119C105.25632,37.85412,106.62018,37.33107,108.90276,37.33107Z"/><polygon points="146.53 27.616 161.824 27.616 161.824 23.873 146.53 23.873 146.53 15.5 162.79 15.5 162.79 11.758 142.142 11.758 142.142 40.496 163.475 40.496 163.475 36.753 146.53 36.753 146.53 27.616"/><path d="M172.72567,35.585a3.04973,3.04973,0,0,0-2.1342-.84555,2.6983,2.6983,0,0,0-2.0922.84555,2.82372,2.82372,0,0,0-.8862,2.1735,2.91633,2.91633,0,0,0,.8862,2.13285,2.81533,2.81533,0,0,0,2.0922.80626,3.19543,3.19543,0,0,0,2.1342-.80626,3.08979,3.08979,0,0,0,.88485-2.13285A2.978,2.978,0,0,0,172.72567,35.585Z"/></svg>