<svg id="圖層_1" data-name="圖層 1" xmlns="http://www.w3.org/2000/svg" viewBox="0 0 229.39116 189.58203"><path d="M229.39116,141.03125c0,27.74316-42.38574,48.55078-108.27734,48.55078-62.0825,0-102.12027-19.83894-120.47427-32.61181A1.485,1.485,0,0,1,.32,154.8289l3.9073-4.949a1.47906,1.47906,0,0,1,2.04273-.27687c17.52135,13.067,56.05182,31.50242,115.22852,31.50242,57.415,0,98.25977-16.95508,98.25977-40.07422,0-26.58789-30.82617-39.68945-105.96582-39.68945H52.85325a1.48456,1.48456,0,0,1-1.48455-1.48455V94.34881a1.48455,1.48455,0,0,1,1.48455-1.48455h60.93928c65.50586,0,95.17676-20.03711,95.17676-43.15723,0-24.66015-32.36817-41.22949-83.61719-41.22949-45.93686,0-84.39251,10.84643-114.999,25.9082a1.474,1.474,0,0,1-1.99994-.71956L6.10078,28.66167a1.48674,1.48674,0,0,1,.6869-1.94258C38.58789,10.88125,79.34358,0,125.3521,0c53.17578,0,93.25,16.9541,93.25,49.707,0,20.13027-20.39143,37.02439-56.42871,44.74737a1.48346,1.48346,0,0,0,.14233,2.92108C202.49306,102.13475,229.39116,114.36611,229.39116,141.03125Z"/></svg>