<svg id="圖層_1" data-name="圖層 1" xmlns="http://www.w3.org/2000/svg" viewBox="0 0 67.50829 2105.05114"><defs><style>.cls-1{fill:#a9a9ff;}</style></defs><path class="cls-1" d="M53.3923,1031.99382l-27.27767-12.47011v4.27218l6.9448,3.10783v13.67761l-6.9448,3.10721v4.3097l27.27767-12.47012Zm-16.82358-3.51992,11.77351,5.26894-11.77351,5.26831Z"/><path class="cls-1" d="M53.61492,1063.56493a11.9745,11.9745,0,0,0-1.57643-6.25444,8.1138,8.1138,0,0,0-1.59332-1.90722H53.3923V1051.485H26.11463v4.02955H41.53625c2.87835,0,5.01194.67972,6.34136,2.02041a7.41419,7.41419,0,0,1,2.0054,5.50969,7.04358,7.04358,0,0,1-1.906,5.2433c-1.26815,1.24626-3.22289,1.87783-5.80921,1.87783H26.11463v4.02956h16.127c3.64749,0,6.48394-.96049,8.43181-2.85521A10.395,10.395,0,0,0,53.61492,1063.56493Z"/><path class="cls-1" d="M53.59866,1145.25036c0-3.7738-1.70525-8.24545-5.06821-13.29115a35.17621,35.17621,0,0,0-7.91279-8.76885c.30953-2.34808,1.57518-7.33875,6.7178-7.33875,3.26917,0,5.73418,2.75266,5.73418,6.40327,0,2.61446-1.31255,4.5617-3.34608,4.96128-.05941.01188-.11444.01939-.16009.02626-.11818.01626-.43084.06-.43084.36269,0,.394.44147.394.65408.394,2.91712,0,4.44352-2.90773,4.44352-5.78045,0-4.01267-2.6501-8.34426-6.93229-8.34426-5.75481,0-7.2562,5.61662-7.647,8.57813-3.34233-2.40185-6.3201-3.64123-9.09089-3.78506a4.2941,4.2941,0,0,0-3.31169,1.06867,4.87794,4.87794,0,0,0-1.33381,3.59684,11.3664,11.3664,0,0,0,2.43687,6.2213,68.35586,68.35586,0,0,1-9.084-8.29173c-3.22977-3.61747-8.64816-11.24824-8.64816-21.7042,0-6.94792,1.88221-12.592,5.29958-15.89374a12.09861,12.09861,0,0,1,9.19031-3.28855c8.27047.29578,13.213,8.58751,13.213,16.43339,0,7.07861-4.18026,10.89806-8.11289,10.89806a8.4608,8.4608,0,0,1-8.11164-8.37178,7.91666,7.91666,0,0,1,.32017-2.36058,2.31115,2.31115,0,0,1,.13444-.33579c.17446-.36206.035-.52715-.15195-.61594-.43647-.147-.71912.499-.76039.60531a6.47442,6.47442,0,0,0-.51776,2.78079c0,5.17764,3.63685,10.72172,9.05086,10.72172,6.2582,0,9.53237-6.66465,9.53237-13.248,0-11.1782-7.547-17.46516-14.6481-17.70528a12.94477,12.94477,0,0,0-9.82376,3.52492c-4.86374,4.703-5.58973,12.532-5.58973,16.78044,0,10.738,3.92325,17.41889,8.16229,23.03926,3.45426,4.583,9.73184,9.33726,14.31605,12.80841.74226.56216,1.44449,1.09431,2.06793,1.57267.20011.1851.384.36019.55591.524a6.773,6.773,0,0,0,1.911,1.46638,1.23123,1.23123,0,0,0,1.1337.065.76151.76151,0,0,0,.35456-.6397c.05753-.9186-.81417-1.724-1.54517-2.24552a40.00707,40.00707,0,0,1-5.31271-4.57546c-2.16735-2.0967-4.361-5.52345-4.361-8.01659a2.3657,2.3657,0,0,1,.62031-1.82594,3.45726,3.45726,0,0,1,2.6401-.56716c3.393.242,6.35137,2.25052,9.32726,4.48666a34.38868,34.38868,0,0,0,3.10721,13.74764c2.03854,4.65488,5.48718,9.66431,8.24233,9.66431C52.7426,1148.98727,53.59866,1147.05,53.59866,1145.25036ZM43.50288,1138.879a32.622,32.622,0,0,1-3.00028-12.54015,38.65168,38.65168,0,0,1,6.69279,6.8141c2.33057,2.94775,5.429,7.39753,5.429,11.98612a1.577,1.577,0,0,1-1.7609,1.79716c-2.6007,0-5.63787-4.1765-7.36-8.05661Z"/><path class="cls-1" d="M35.47378,1169.67033a8.84159,8.84159,0,0,0,3.28293,3.93638,9.21532,9.21532,0,0,0,5.082,1.38383,9.36257,9.36257,0,0,0,5.157-1.38383,8.84672,8.84672,0,0,0,3.28356-3.93638,14.598,14.598,0,0,0,1.11306-5.94179V1153.357H26.11463v4.02956h8.24546v6.342q0,.92673.08192,1.78967l-8.32738,5.90113v4.58109l9.24722-6.58961C35.39812,1169.49836,35.43564,1169.58528,35.47378,1169.67033Zm8.3649,1.29065a5.27468,5.27468,0,0,1-4.30157-1.79591,8.41139,8.41139,0,0,1-1.55767-5.51157v-6.26694h11.756v6.26694a8.41188,8.41188,0,0,1-1.557,5.51094A5.31881,5.31881,0,0,1,43.83868,1170.961Z"/><rect class="cls-1" x="42.76297" y="1197.442" width="4.00204" height="4.00204"/><rect class="cls-1" x="38.76093" y="1193.43995" width="4.00204" height="4.00204"/><rect class="cls-1" x="38.76093" y="1185.43587" width="4.00204" height="4.00204"/><rect class="cls-1" x="46.76502" y="1201.44404" width="4.00204" height="4.00204"/><rect class="cls-1" x="46.76502" y="1177.43179" width="4.00204" height="4.00204"/><rect class="cls-1" x="42.76297" y="1181.43383" width="4.00204" height="4.00204"/><rect class="cls-1" x="22.75276" y="1189.43791" width="16.00817" height="4.00204"/><path class="cls-1" d="M30.52063,1215.92643a2.66911,2.66911,0,0,0,0-3.67563,2.55217,2.55217,0,0,0-1.90847-.77039,2.62866,2.62866,0,0,0-1.89347.75539,2.56961,2.56961,0,0,0-.00125,3.70439,2.63023,2.63023,0,0,0,1.89472.75788A2.55037,2.55037,0,0,0,30.52063,1215.92643Z"/><path class="cls-1" d="M59.06359,59.13261,27.545,46.99255A14.68445,14.68445,0,0,0,33.64387,43.996,14.97593,14.97593,0,0,0,42.501,47.4471c4.1925,0,4.81877-2.56882,4.81877-4.09949,0-3.96839-2.56262-8.6224-6.54872-11.92555a24.79822,24.79822,0,0,0,.427-3.35188l.00886-.15678q1.78311,1.18387,3.70353,2.67689C48.9709,38.52354,54.2733,48.00251,59.364,51.2038a6.333,6.333,0,0,0,3.03032,1.17192,1.59371,1.59371,0,0,0,1.64582-1.78224,7.595,7.595,0,0,0-1.06561-3.32c-1.57761-2.94441-9.19107-11.47114-17.10039-17.65759l-.53856-1.055c-.76-1.48637-1.4412-2.81951-2.06923-4.12784C47.962,26.99837,52.40073,28.452,55.59848,28.452c3.32529,0,4.0428-1.90713,4.05343-3.52372,2.443-.40126,3.7806-2.125,3.7806-4.8967,0-8.49573-9.70039-17.15091-19.22187-17.15092a12.6965,12.6965,0,0,0-5.97208,1.40222l-.39418.20728.58374,1.16217.40481-.20285a11.897,11.897,0,0,1,5.3777-1.21177c8.84916,0,17.86484,7.97046,17.86484,15.79386,0,2.02229-.85126,3.20926-2.53074,3.537-1.05144-6.74981-9.49578-12.946-13.08417-12.946-.82468,0-2.20919.32155-2.20919,2.47847,0,4.06672,5.46184,11.81749,14.04083,11.92911-.05315,1.38894-.93629,2.0648-2.69372,2.0648-2.77168,0-7.27066-1.88322-13.753-5.75684C38.35016,13.31981,32.52691,0,26.88259,0c-1.233,0-1.93991.88757-1.93991,2.43418,0,8.08914,8.76587,16.26067,16.3253,20.84027.72459,1.58293,1.50143,3.11714,2.265,4.60706-3.971-2.83723-9.06-5.73646-13.2755-5.73647-3.69468,0-5.85692,1.77426-6.12533,5.00655-6.11026,1.30389-10.037,5.6328-10.037,11.10971,0,5.90741,5.26609,9.09542,10.22038,9.09543a14.89161,14.89161,0,0,0,2.61123-.2302l0,4.84877L35.209,54.99058l0,13.8185-8.28225,3.01526v5.267L59.06358,64.71316ZM26.88258,1.35705c4.6,0,10.0689,12.00528,12.89371,18.56819C34.20815,15.63,26.34578,6.314,26.34579,1.98242,26.34579,1.40488,26.6,1.35705,26.88258,1.35705ZM15.45216,38.26131c0-5.14031,4.28463-8.73666,8.68-9.77482.31,4.54771,3.81691,10.64557,8.43016,14.62991a13.07742,13.07742,0,0,1-8.24681,2.88328C20.01846,45.99967,15.45216,43.28734,15.45216,38.26131Zm18.18905,3.92146c-4.47684-3.7877-7.97309-9.711-8.18479-13.92127a12.97887,12.97887,0,0,1,1.42614-.07883c3.56,0,7.90932,1.94611,11.96983,5.34848A20.07491,20.07491,0,0,1,33.64121,42.18277Zm6.32995-7.68787c3.52637,3.23052,5.94549,6.88357,5.94549,9.03164,0,1.10017-.35433,2.56351-3.41566,2.56351a13.36919,13.36919,0,0,1-7.7853-3.048A21.418,21.418,0,0,0,39.97116,34.4949Zm-.12844-6.47964a24.80874,24.80874,0,0,1-.26663,2.47316,19.98146,19.98146,0,0,0-11.7032-3.70886,18.21036,18.21036,0,0,0-2.34118.14172c.37381-2.24019,2.00635-3.3749,4.8604-3.3749,2.69638,0,6.21478,1.3854,10.32313,4.04458h-.84506Zm22.5516,22.98038a4.7192,4.7192,0,0,1-2.15249-.88226c-3.44931-2.04887-7.64712-7.76938-12.80868-17.46005C54.67192,38.768,60.77774,45.94391,61.854,48.09641a6.30271,6.30271,0,0,1,.85214,2.5201C62.70613,50.97792,62.59363,50.99564,62.39432,50.99564ZM46.46056,11.9796c3.23672,0,10.77134,5.78873,11.72889,11.68728-5.39719-.27726-12.57926-8.12547-12.57926-10.92549A.74082.74082,0,0,1,46.46056,11.9796ZM39.25884,56.477l14.53954,5.35558v.1807L39.25883,67.32448Z"/><polygon class="cls-1" points="49.424 98.455 43.799 98.455 43.799 104.08 49.424 104.08 55.049 104.08 55.049 98.455 49.424 98.455"/><polygon class="cls-1" points="43.799 87.207 49.424 87.207 55.049 87.207 55.049 92.832 55.049 98.455 60.674 98.455 60.674 92.832 60.674 87.207 60.674 81.582 55.049 81.582 49.424 81.582 43.799 81.582 38.176 81.582 32.552 81.582 26.927 81.582 26.927 87.207 32.552 87.207 38.176 87.207 38.176 92.832 38.176 98.455 43.799 98.455 43.799 92.832 43.799 87.207"/><path class="cls-1" d="M59.06352,126.17893l0-13.32422-32.13689,0V117.762l12.51283,0,0,8.32653c0,7.69585,3.28631,11.5668,9.85719,11.56681C55.82325,137.65538,59.06351,133.83049,59.06352,126.17893Zm-14.08779,4.90556c-.9-1.125-1.35-2.88063-1.35-5.31127l0-8.01119,11.25145,0,0,8.01119q0,3.57953-1.35,5.267c-.80963,1.125-2.24994,1.70959-4.23059,1.70959A5.332,5.332,0,0,1,44.97573,131.08449Z"/><polygon class="cls-1" points="44.747 149.943 58.961 143.365 58.961 138.385 40.104 147.723 26.927 147.723 26.927 152.158 40.109 152.158 58.961 161.501 58.961 156.521 44.747 149.943"/><path class="cls-1" d="M33.36283,167.70706a3.44376,3.44376,0,0,0-.9-2.56705,3.079,3.079,0,0,0-2.47493-1.03462,3.2575,3.2575,0,0,0-2.38635.946,3.22185,3.22185,0,0,0-.94427,2.34029,3.6245,3.6245,0,0,0,.13464,1.125,5.267,5.267,0,0,1-3.15168-1.171,7.08,7.08,0,0,1-2.11529-3.01527H18.73471A10.15841,10.15841,0,0,0,22.246,169.732a9.57232,9.57232,0,0,0,5.98624,1.98066A6.11078,6.11078,0,0,0,31.9668,170.632,3.65917,3.65917,0,0,0,33.36283,167.70706Z"/><path class="cls-1" d="M42.45465,212.34793a48.08545,48.08545,0,0,0,3.15169-8.41688,35.6498,35.6498,0,0,1,1.97889-5.58055,3.77827,3.77827,0,0,1,3.421-2.38635,3.64684,3.64684,0,0,1,3.51132,2.071,10.09886,10.09886,0,0,1,.946,4.86128,8.992,8.992,0,0,1-1.396,5.4902,7.12614,7.12614,0,0,1-4.50165,2.521v4.86128c3.51131-.31534,6.0766-1.57494,7.74191-3.82665,1.621-2.11529,2.38635-5.04021,2.38636-8.77652a14.80086,14.80086,0,0,0-2.296-8.50724,7.60371,7.60371,0,0,0-6.66123-3.55562,7.08477,7.08477,0,0,0-6.43624,3.69025,57.19664,57.19664,0,0,0-2.65564,7.38226,59.99239,59.99239,0,0,1-2.16136,6.392c-1.03462,2.02494-2.43064,3.05955-4.23059,3.05955a3.73054,3.73054,0,0,1-3.3749-2.15959A11.809,11.809,0,0,1,30.61681,203.66c0-2.69993.49605-4.68058,1.48638-5.98625,1.07891-1.44031,2.92492-2.34028,5.44591-2.69992l0-4.86128c-4.05166.27105-7.02087,1.71136-8.91294,4.367-1.5289,2.20564-2.3403,5.26519-2.3403,9.18044q0,6.07749,2.43063,9.45328a7.99109,7.99109,0,0,0,6.79764,3.37491A7.7421,7.7421,0,0,0,42.45465,212.34793Z"/><path class="cls-1" d="M45.68958,236.32127v-2.74421l8.32476,0,0-2.79028,8.32476,0v-3.28455l-8.32476,0V224.758H45.68959v-2.79029l-11.15933,0,0-2.83456-8.86334,0v3.33062l8.41335,0,0,13.40749-8.41334,0,0,3.24027h8.86334v-2.79027Zm-8.36905-3.2385V225.208l7.87478,0v2.79028l8.32476,0v2.29422l-8.32476,0,0,2.79028Z"/><polygon class="cls-1" points="54.877 241.048 54.877 251.805 26.927 251.805 26.927 256.666 54.877 256.666 54.877 267.379 59.063 267.379 59.063 241.048 54.877 241.048"/><rect class="cls-1" x="26.92649" y="271.32992" width="32.13688" height="4.86128"/><path class="cls-1" d="M63.72806,324.43729a8.51818,8.51818,0,0,0-1.993-4.63274c-2.07278-2.82748-6.02168-5.83478-12.40653-9.44266a42.2002,42.2002,0,0,0,.69093-7.439c0-14.32429-8.5958-21.95371-14.80172-21.95371-3.514,0-7.26889,2.33762-7.2689,8.90052,0,2.82571,1.24277,6.76222,3.53256,11.247-2.3456-1.25784-4.5663-2.50328-6.62756-3.71594-3.41652-15.84257-15.70789-25.52351-21.32831-25.52351C.458,271.8773,0,273.84378,0,275.01658c0,12.01325,11.13362,19.0102,23.26467,24.75375a37.20249,37.20249,0,0,1,.45618,4.0552l.04429.70776h2.0028l-.05226-.80431c-.06909-1.05056-.16033-2.02937-.27548-2.95946,1.28884.59172,2.56882,1.1666,3.82489,1.73175,1.35439.60766,2.68132,1.2038,3.96219,1.79552,6.74359,11.51543,18.17751,23.10084,27.12056,23.10085C62.40113,327.39764,63.72806,326.23547,63.72806,324.43729ZM36.45868,305.85758c4.62211,2.27208,7.78442,3.86829,10.64113,5.42554l-.38444,1.831,1.96736.35964.25334-1.17457c5.68153,3.24292,9.24954,6.00929,11.19033,8.66581a7.229,7.229,0,0,1,1.60507,3.47234c0,.66435-.46594,1.001-1.38363,1.001C52.7769,325.43824,42.94362,315.91852,36.45868,305.85758ZM29.9454,289.86974c0-4.34575,1.97091-6.94114,5.27229-6.94114,5.36885,0,12.80692,6.94824,12.8069,19.99432a38.39234,38.39234,0,0,1-.55274,6.42207c-2.38724-1.28885-4.87988-2.544-7.501-3.86388L34.571,302.736C31.6293,297.58153,29.94539,292.901,29.9454,289.86974ZM1.99483,275.01659c0-.57046.11869-1.17989,1.53066-1.17989,4.0862,0,15.08431,7.51958,18.94108,22.12026C9.06351,287.69862,1.99482,280.4749,1.99483,275.01659Z"/><polygon class="cls-1" points="26.926 328.797 26.926 333.705 41.33 333.705 41.33 349.683 45.516 349.683 45.516 333.705 54.877 333.705 54.877 350.627 59.063 350.627 59.063 328.797 26.926 328.797"/><polygon class="cls-1" points="55.733 353.816 54.833 357.642 30.528 357.642 29.626 353.816 26.926 353.816 26.926 366.194 29.626 366.194 30.528 362.367 54.833 362.367 55.733 366.194 58.433 366.194 58.208 353.816 55.733 353.816"/><polygon class="cls-1" points="41.33 376.271 41.33 393.374 45.516 393.374 45.516 376.271 54.877 376.271 54.877 394.455 59.063 394.455 59.063 371.364 26.926 371.363 26.926 395.22 31.113 395.22 31.113 376.271 41.33 376.271"/><path class="cls-1" d="M65.09554,419.56a21.00012,21.00012,0,0,0-6.438-15.52811,20.9957,20.9957,0,0,0-15.52809-6.43625,21.1416,21.1416,0,0,0-15.52811,6.43622,21.94972,21.94972,0,0,0,0,31.05621,21.31412,21.31412,0,0,0,15.52809,6.43625,21.16541,21.16541,0,0,0,15.52811-6.43622A21.14046,21.14046,0,0,0,65.09554,419.56ZM28.99733,433.69381a19.9404,19.9404,0,0,1,14.13212-34.07324,19.93951,19.93951,0,1,1,0,39.87879A19.4738,19.4738,0,0,1,28.99733,433.69381Z"/><path class="cls-1" d="M58.119,420.235l0-11.11682-30.20229,0,0,11.02646q0,7.361,4.04987,11.20894,3.98344,3.64331,11.07252,3.6442c4.7727,0,8.41689-1.21531,10.98394-3.59989C56.76722,428.87684,58.119,425.14053,58.119,420.235Zm-23.36037,7.29189c-1.75565-1.7096-2.65563-4.45558-2.65562-8.23619v-5.31126l21.8297,0,0,5.39985c0,3.78237-.85569,6.52658-2.61135,8.238-1.7096,1.6653-4.49987,2.521-8.28225,2.521C39.30452,430.13819,36.55854,429.23646,34.75859,427.52686Z"/><path class="cls-1" d="M32.41828,450.55947a3.41366,3.41366,0,0,0,.94427-2.38635,3.02135,3.02135,0,0,0-.94426-2.34028,3.15951,3.15951,0,0,0-2.43064-.99033,3.26505,3.26505,0,0,0-2.38635.99032,3.154,3.154,0,0,0-.9,2.34029,3.57874,3.57874,0,0,0,.9,2.38635,3.457,3.457,0,0,0,2.38635.99033A3.33,3.33,0,0,0,32.41828,450.55947Z"/><path class="cls-1" d="M35.99218,722.71329l0,14.337,3.50925,0,0-14.337h7.84719l0,15.24292h3.50926l0-15.538c.64973,1.73987,1.62283,2.78407,2.56613,2.78407.40766,0,1.73755-.23835,1.73756-3.30431a15.9056,15.9056,0,0,0-2.6479-8.84814c.25989-.60071.56136-1.24376.87546-1.91353,1.18436-2.5291,2.52688-5.39531,2.52688-7.80189a10.66786,10.66786,0,0,0-.56879-3.33327,2.86417,2.86417,0,0,0,1.77617-2.92933,6.66455,6.66455,0,0,0-1.55191-3.85751c-2.98353-3.78771-9.93224-5.88986-10.22629-5.97748l-.39949-.1188L44.72,688.24522l.33414.098c.06757.02,6.78461,2.02566,9.61889,5.56908a5.31719,5.31719,0,0,1,1.31281,3.15952c0,1.28757-.55765,1.66478-1.08188,1.78507-1.30019-3.00062-3.91765-5.93886-6.98955-5.93886a1.44129,1.44129,0,0,0-1.54894,1.58755c0,4.1523,4.81538,5.69976,7.85015,5.69977h.003a9.78667,9.78667,0,0,1,.55987,3.12907c0,1.96625-1.26455,4.71589-2.3806,7.14177-.2287.4975-.4522.98313-.65937,1.45019-3.0912-4.15973-7.94372-7.53385-12.24229-10.52259l-.98387-.70318c.29479-1.29723.61557-2.51351.9267-3.69192a42.44023,42.44023,0,0,0,1.83854-11.93637c0-8.37959-6.296-14.64146-11.92521-14.64147-3.63623,0-7.55018,3.15283-7.55018,10.0763,0,10.52257,6.873,15.06768,14.14838,19.87936.25618.17078.51161.33711.76779.50344.18415.11881.36756.23762.551.35865a28.97866,28.97866,0,0,0-.41137,2.90186l-1.57716-1.07372-.40171.80269,1.941,1.70265a16.08755,16.08755,0,0,0,1.07891,5.61956l.13589.36385,1.08336-.43068-.1292-.34825a15.8766,15.8766,0,0,1-.98238-4.14784l1.92244,1.70339.07278-2.07243-2.04051-1.38039a20.66588,20.66588,0,0,1,.31633-2.94567l.55468.38315c4.38842,3.03552,9.31147,6.63314,12.31505,10.97925a12.58165,12.58165,0,0,0-1.047,4.51688c0,.27047.02525.51746.03768.7767l-26.21963,0,0,19.99815h3.50925l0-15.88447ZM54.024,721.898c0,1.41009-.35865,1.9217-.6,1.9217-.63413,0-2.186-2.1014-2.186-5.99678a10.04492,10.04492,0,0,1,.7017-3.28649A14.32206,14.32206,0,0,1,54.024,721.898Zm-6.10961-27.84238c2.08357,0,4.38991,1.95661,5.75544,4.82505-3.55529-.36905-6.09107-3.29912-6.09107-4.56367C47.57875,694.20636,47.57875,694.05562,47.91438,694.05562ZM29.35233,671.56845c6.68362,0,10.78765,7.865,10.78764,13.50389a41.83055,41.83055,0,0,1-1.73459,11.3557c-.29182,1.13831-.59255,2.3093-.86581,3.54267-8.416-6.49874-14.034-14.963-14.034-21.19961C23.50554,675.27967,25.555,671.56845,29.35233,671.56845Z"/><path class="cls-1" d="M53.046,758.86325a19.66982,19.66982,0,0,0-1.35588-3.138,28.09093,28.09093,0,0,0-2.02417-3.24194c-2.57365-3.57461-4.89558-5.31216-7.09944-5.31216a2.94828,2.94828,0,0,0-2.52094,1.24673,24.43154,24.43154,0,0,0-4.68543-6.21583,9.39974,9.39974,0,0,0-6.29453-2.82612,5.79645,5.79645,0,0,0-3.48327,1.08188,6.57624,6.57624,0,0,0-2.23357,3.02066,12.15354,12.15354,0,0,0-.72844,4.38917,19.90052,19.90052,0,0,0,.71358,4.9832,31.73159,31.73159,0,0,0,2.02936,5.50521l.16336.34528,4.51688.91111-.76036-1.42271c-.98832-1.84968-1.797-3.51669-2.4036-4.95425a27.80773,27.80773,0,0,1-1.34177-3.885c-.67274-2.68281-.58512-4.76638.51087-6.11855a2.78289,2.78289,0,0,1,2.28332-1.08634c2.08952,0,4.42036,1.722,6.92643,5.11687a32.54288,32.54288,0,0,1,3.72385,6.374l.15742.36533,2.67983.54577-.00074-1.26455a7.47252,7.47252,0,0,1,.22276-1.83334,1.48489,1.48489,0,0,1,.53612-.649,1.24993,1.24993,0,0,1,.7418-.25692A4.44321,4.44321,0,0,1,45.81,751.648a13.79446,13.79446,0,0,1,2.95828,3.23972,16.39552,16.39552,0,0,1,1.70785,3.10754,6.90589,6.90589,0,0,1,.61036,2.469c0,1.0054-.38538,1.0054-.72472,1.0054-.868,0-2.50756-.54874-5.38937-3.1625l-.51309-.46483-2.3353,2.13555.54057.56211a16.45962,16.45962,0,0,0,2.57439,2.16822,13.82435,13.82435,0,0,0,2.75929,1.48955,6.99132,6.99132,0,0,0,2.49271.5376,2.95841,2.95841,0,0,0,2.21649-.868C53.71282,762.82471,53.75738,761.09607,53.046,758.86325Z"/><polygon class="cls-1" points="50.858 773.334 50.858 769.259 23.918 769.259 23.918 788.162 27.428 788.162 27.428 773.334 50.858 773.334"/><polygon class="cls-1" points="30.823 822.184 30.823 822.033 50.858 808.262 50.858 804.111 23.918 804.111 23.918 808.224 44.179 808.224 44.179 808.374 23.918 822.297 23.918 826.296 50.858 826.296 50.858 822.184 30.823 822.184"/><path class="cls-1" d="M51.73906,850.25017a9.391,9.391,0,0,0,1.3492-5.0233,12.21392,12.21392,0,0,0-1.61873-5.96781,18.02584,18.02584,0,0,0-4.36541-5.15845,22.32064,22.32064,0,0,0-6.276-3.59317,20.25519,20.25519,0,0,0-7.19746-1.33733,13.00378,13.00378,0,0,0-4.22655.66532,9.37891,9.37891,0,0,0-3.34145,1.94323,8.60182,8.60182,0,0,0-2.13036,3.063,10.03871,10.03871,0,0,0-.73883,3.85974,12.84452,12.84452,0,0,0,.84278,4.57109,14.5017,14.5017,0,0,0,2.50979,4.19091,19.30639,19.30639,0,0,0,3.96443,3.5256,23.202,23.202,0,0,0,5.76881,2.82389,19.64356,19.64356,0,0,0,6.11484,1.01061,12.50659,12.50659,0,0,0,5.5505-1.191A9.05352,9.05352,0,0,0,51.73906,850.25017ZM28.59329,833.24593a11.20685,11.20685,0,0,1,4.52059-.83982,24.428,24.428,0,0,1,6.13637.871A23.46967,23.46967,0,0,1,44.9411,835.501a16.25813,16.25813,0,0,1,3.61024,2.70286,10.92783,10.92783,0,0,1,2.22836,3.18328,8.26,8.26,0,0,1,.75219,3.38674,6.97208,6.97208,0,0,1-.55913,2.88032,5.85386,5.85386,0,0,1-1.59721,2.10436,7.41754,7.41754,0,0,1-2.58183,1.34846,11.86061,11.86061,0,0,1-3.49514.47894,25.28675,25.28675,0,0,1-5.50447-.67944,25.72628,25.72628,0,0,1-5.14507-1.67592,17.08867,17.08867,0,0,1-4.21319-2.73627A12.3603,12.3603,0,0,1,25.655,842.974a7.31923,7.31923,0,0,1,.0453-7.35785A6.51333,6.51333,0,0,1,28.59329,833.24593Z"/><polygon class="cls-1" points="47.348 864.276 47.348 873.255 23.918 873.255 23.918 877.367 47.348 877.367 47.348 886.347 50.858 886.347 50.858 864.276 47.348 864.276"/><path class="cls-1" d="M55.12142,861.06827a39.15953,39.15953,0,0,0-35.23958,0v1.92467a37.94146,37.94146,0,0,1,35.23958,0Z"/><path class="cls-1" d="M55.12139,887.59338a37.95295,37.95295,0,0,1-35.23957,0l0,1.92318a39.15957,39.15957,0,0,0,35.23958,0Z"/><path class="cls-1" d="M50.632,905.6921l-.1886,2.189c-3.62213.07574-7.28286.07574-10.94211.07573l0-6.867c3.65925,0,7.32,0,10.90349.07427l.22722,2.189h1.50884l0-7.84867H50.632l-.1886,1.96328c-3.7736.07425-7.5472.07425-11.39506.07424H37.0479c-3.77211,0-7.62145,0-11.39357-.07427l-.1886-1.96328H23.91827l0,7.84867,1.54746,0,.22573-2.189c3.66074-.07425,7.54572-.07425,12.14948-.07424v6.867c-4.60377,0-8.48875,0-12.18661-.07575l-.1886-2.189H23.91826l0,7.84868h1.54746l.18861-1.9618c3.77211-.07573,7.62145-.07573,11.39357-.07573l2.00041,0c3.84785,0,7.62145,0,11.39505.07575l.18861,1.96179H52.1408l0-7.84867Z"/><rect class="cls-1" x="23.91824" y="917.60841" width="26.93944" height="4.07507"/><polygon class="cls-1" points="30.822 946.054 30.822 945.902 50.858 932.131 50.858 927.98 23.918 927.98 23.918 932.094 44.179 932.094 44.179 932.244 23.918 946.167 23.918 950.166 50.858 950.166 50.858 946.054 30.822 946.054"/><path class="cls-1" d="M35.47726,969.524l-.36682,4.7998c-2.41846.06014-4.93568.09207-7.3237.09206H26.468a12.74541,12.74541,0,0,1-1.13312-5.70124c0-6.3079,4.67432-10.22629,12.1985-10.22628,7.54572,0,12.23264,3.97484,12.23263,10.37333a10.96207,10.96207,0,0,1-1.21554,5.58317l-5.60991.88362,0,2.99913,7.03411-.17523.21608-.35345a16.75939,16.75939,0,0,0,2.37466-9.2298c0-8.707-6.04057-14.55681-15.032-14.55682s-15.032,5.80593-15.032,14.44689a17.17366,17.17366,0,0,0,2.593,9.77706l.222.36459H27.714c2.838,0,5.25646.029,7.4477.06238l.32894,3.44095h2.65608l0-12.58015Z"/><path class="cls-1" d="M28.52193,993.03586a2.86157,2.86157,0,0,0,.79155-2.00041,2.53267,2.53267,0,0,0-.79154-1.9618,2.64855,2.64855,0,0,0-2.03754-.83016,2.737,2.737,0,0,0-2.00041.83016,2.64386,2.64386,0,0,0-.75442,1.96179,2.99992,2.99992,0,0,0,.75442,2.00041,2.89785,2.89785,0,0,0,2.00041.83017A2.79145,2.79145,0,0,0,28.52193,993.03586Z"/><path class="cls-1" d="M57.34734,537.1615a1.47053,1.47053,0,0,0,1.56191-1.60678c0-7.13181-16.36859-16.5562-21.00315-18.58848l-.01526-.00718c-.93893-1.61127-1.75579-3.122-2.482-4.59056.11131.00718.22172.01077.33213.01077,3.59059,0,7.42713-3.22525,7.42713-12.278,0-8.6955-5.36972-14.69358-10.62006-16.16033,1.7567-3.37336,4.56633-5.29522,7.77811-5.29522,6.34008,0,13.07872,7.07166,13.07872,20.1773,0,8.80592-1.17861,15.19447-3.60226,19.531l-.23518.421,1.17681.58527.21364-.3806c3.41285-6.078,3.80782-14.41442,3.80782-20.15667,0-10.58684-5.40114-21.53814-14.43955-21.53814-3.86886,0-7.19823,2.31952-9.17844,6.37689a9.91543,9.91543,0,0,0-1.13911-.07181c-7.42354,0-10.11828,9.05725-10.11828,15.1451,0,10.20624,9.13,15.71061,17.13877,19.364C43.69862,529.1527,52.23075,537.1615,57.34734,537.1615Zm0-1.36083c-4.35718,0-11.99436-7.06807-18.1181-16.65314,6.069,3.10855,18.321,10.83549,18.321,16.40719C57.55021,535.80067,57.4784,535.80067,57.34734,535.80067ZM41.80728,500.10125c0,8.0492-3.13369,10.91719-6.0663,10.91719a4.89493,4.89493,0,0,1-.5332-.03052,13.89391,13.89391,0,0,0,2.49187-7.93161c0-7.93969-3.46582-13.21426-6.85264-13.8866a18.70408,18.70408,0,0,1,1.13014-3.97119C36.80918,486.3897,41.80728,491.91023,41.80728,500.10125Zm-7.80773,12.41356c.56821,1.175,1.18938,2.3671,1.85453,3.55917l-.28365-.12208a18.92779,18.92779,0,0,1-3.22974-1.80786l.18133-.16427A20.26037,20.26037,0,0,0,33.99955,512.51481Zm-3.57623-18.101a30.78529,30.78529,0,0,1,.22172-3.90117c2.51072.52063,5.69377,4.89936,5.69377,12.54372a12.27453,12.27453,0,0,1-2.05471,6.90829C31.75633,504.304,30.42332,498.94149,30.42332,494.41376Zm-1.36083,0a40.53408,40.53408,0,0,0,3.85449,15.7941c-3.63906-2.17679-5.84547-8.47289-5.84547-13.63436,0-1.9847.30161-5.22789,2.19564-5.972A32.67069,32.67069,0,0,0,29.06249,494.41376Zm1.5242-9.445a21.1813,21.1813,0,0,0-1.11128,4.18573c-3.56366.68849-4.38052,6.8661-4.38052,9.051,0,5.69557,2.86439,10.99887,7.1327,13.199.20466.10234.42908.21185.66336.31417a17.0363,17.0363,0,0,1-1.24952,1.2244l-.31508.28186.3079.40843c-5.50707-4.15341-9.41363-11.24931-9.41363-17.80842,0-4.03851,1.64-10.87409,7.788-10.87409C30.21237,484.95077,30.40447,484.95705,30.58669,484.96872Z"/><rect class="cls-1" x="23.6591" y="527.46871" width="4.54568" height="2.33747"/><rect class="cls-1" x="28.20479" y="529.80619" width="4.58877" height="2.29439"/><rect class="cls-1" x="32.79356" y="532.10057" width="4.54389" height="2.20642"/><rect class="cls-1" x="30.49917" y="534.30699" width="2.29439" height="16.01761"/><rect class="cls-1" x="51.10555" y="541.14706" width="4.54389" height="2.33927"/><rect class="cls-1" x="32.79356" y="550.32459" width="4.54389" height="2.29439"/><rect class="cls-1" x="23.6591" y="554.95825" width="4.54568" height="2.20642"/><rect class="cls-1" x="28.20479" y="552.61898" width="4.58877" height="2.33927"/><rect class="cls-1" x="41.9711" y="536.64625" width="4.5008" height="2.29439"/><rect class="cls-1" x="37.33745" y="534.30699" width="4.63365" height="2.33927"/><rect class="cls-1" x="46.4719" y="538.94064" width="4.63365" height="2.20642"/><rect class="cls-1" x="41.9711" y="545.78071" width="4.5008" height="2.33747"/><rect class="cls-1" x="37.33745" y="548.11818" width="4.63365" height="2.20641"/><rect class="cls-1" x="46.4719" y="543.48632" width="4.63365" height="2.29439"/><path class="cls-1" d="M59.06185,600.30289v-3.403l-1.114.57269a43.60572,43.60572,0,0,1-40.51619-.00089l-1.11219-.56821v3.39939l.42279.21094a46.56352,46.56352,0,0,0,41.89678,0Z"/><path class="cls-1" d="M49.3897,594.10643c3.11035-2.59869,4.68662-6.5223,4.68662-11.66223V570.47139H21.04111V581.8715c0,5.08427,1.55383,9.07521,4.6193,11.8633,2.92812,2.649,6.93073,3.99094,11.89741,3.99094C42.6367,597.72574,46.62136,596.50494,49.3897,594.10643Zm.77467-19.41251v7.35352c0,4.09237-1.0673,6.99087-3.26474,8.86247-2.00893,1.72169-5.1516,2.5951-9.34181,2.5951-4.017,0-7.13809-1.00088-9.27539-2.97211-2.23963-2.07536-3.32937-5.0376-3.32937-9.05816v-6.78082Z"/><path class="cls-1" d="M59.06185,569.49654v-3.41016l-.42279-.21095a46.56352,46.56352,0,0,0-41.89678,0l-.42279.21095v3.40657l1.11578-.57719a43.61894,43.61894,0,0,1,40.509-.00089Z"/><path class="cls-1" d="M43.296,611.07734a2.4365,2.4365,0,0,0-.79532-1.89762,2.572,2.572,0,0,0-1.89763-.79352,2.66847,2.66847,0,0,0-1.94071.79352,2.55783,2.55783,0,0,0-.75043,1.89762,2.77774,2.77774,0,0,0,.75043,1.89763,2.663,2.663,0,0,0,1.94071.79531,2.56691,2.56691,0,0,0,1.89763-.79531A2.63681,2.63681,0,0,0,43.296,611.07734Z"/><path class="cls-1" d="M27.14556,611.07734a2.44113,2.44113,0,0,0-.79352-1.89762,2.572,2.572,0,0,0-1.89762-.79352,2.67253,2.67253,0,0,0-1.94251.79352,2.56471,2.56471,0,0,0-.75043,1.89762,2.78607,2.78607,0,0,0,.75043,1.89763,2.66708,2.66708,0,0,0,1.94251.79531A2.56691,2.56691,0,0,0,26.352,612.975,2.64219,2.64219,0,0,0,27.14556,611.07734Z"/><path class="cls-1" d="M37.69112,622.90294a35.20231,35.20231,0,0,1,11.47193,1.94071,38.73807,38.73807,0,0,1,9.13445,4.192v-3.08791a37.2358,37.2358,0,0,0-9.08957-4.54568,35.142,35.142,0,0,0-23.03362,0,38.90037,38.90037,0,0,0-9.08957,4.54568v3.08791a40.45421,40.45421,0,0,1,9.13445-4.192A35.4087,35.4087,0,0,1,37.69112,622.90294Z"/><polygon class="cls-1" points="50.741 1638.604 50.741 1649.862 21.491 1649.862 21.491 1654.949 50.741 1654.949 50.741 1666.159 55.121 1666.159 55.121 1638.604 50.741 1638.604"/><polygon class="cls-1" points="36.564 1675.337 36.564 1693.235 40.943 1693.235 40.943 1675.337 50.741 1675.337 50.741 1694.365 55.121 1694.365 55.121 1670.202 21.491 1670.202 21.491 1695.166 25.871 1695.166 25.871 1675.337 36.564 1675.337"/><polygon class="cls-1" points="45.036 1714.748 39.149 1714.748 39.149 1720.635 45.036 1720.635 50.922 1720.635 50.922 1714.748 45.036 1714.748"/><polygon class="cls-1" points="21.491 1714.748 21.491 1720.635 27.378 1720.635 33.264 1720.635 33.264 1714.748 27.378 1714.748 21.491 1714.748"/><polygon class="cls-1" points="39.149 1702.976 45.036 1702.976 50.922 1702.976 50.922 1708.862 50.922 1714.748 56.808 1714.748 56.808 1708.862 56.808 1702.976 56.808 1697.09 50.922 1697.09 45.036 1697.09 39.149 1697.09 33.264 1697.09 27.378 1697.09 21.491 1697.09 21.491 1702.976 27.378 1702.976 33.264 1702.976 33.264 1708.862 33.264 1714.748 39.149 1714.748 39.149 1708.862 39.149 1702.976"/><path class="cls-1" d="M44.0984,1741.5467a3.13839,3.13839,0,0,0,3.10963,2.025,3.56305,3.56305,0,0,0,3.01449-1.27176,5.73344,5.73344,0,0,0,.9895-3.62659v-5.84107H37.646v2.82658h5.27576v2.44918a2.27234,2.27234,0,0,1-.84837,2.07256,5.78651,5.78651,0,0,1-2.07256.471,5.41822,5.41822,0,0,0-2.35483.65967v3.2024a4.84444,4.84444,0,0,1,3.15563-1.08306C42.6855,1743.33621,43.77015,1742.67654,44.0984,1741.5467Zm1.27176-3.10884v-2.779h3.43947v2.779c0,1.50725-.56611,2.308-1.69516,2.308C45.98384,1740.7459,45.37016,1739.94511,45.37016,1738.43786Z"/><path class="cls-1" d="M55.78054,1738.29673a11.33695,11.33695,0,0,0-11.35231-11.35152,11.33694,11.33694,0,0,0-11.34993,11.35152,11.33558,11.33558,0,0,0,11.34993,11.35072,11.33559,11.33559,0,0,0,11.35231-11.35072Zm-18.08694,6.73543a9.55272,9.55272,0,0,1,0-13.47165,9.10138,9.10138,0,0,1,6.73463-2.779,9.20788,9.20788,0,0,1,6.78379,2.779,9.55465,9.55465,0,0,1,0,13.47165,9.3954,9.3954,0,0,1-6.78379,2.779A9.28643,9.28643,0,0,1,37.6936,1745.03216Z"/><rect class="cls-1" x="21.4913" y="1753.45719" width="33.62957" height="5.08705"/><polygon class="cls-1" points="21.491 1765.23 21.491 1770.364 36.564 1770.364 36.564 1787.085 40.943 1787.085 40.943 1770.364 50.741 1770.364 50.741 1788.074 55.121 1788.074 55.121 1765.23 21.491 1765.23"/><polygon class="cls-1" points="51.635 1791.411 50.693 1795.415 25.259 1795.415 24.317 1791.411 21.491 1791.411 21.491 1804.364 24.317 1804.364 25.259 1800.36 50.693 1800.36 51.635 1804.364 54.461 1804.364 54.227 1791.411 51.635 1791.411"/><path class="cls-1" d="M26.05982,1829.43631a21.77562,21.77562,0,0,1-.89594-6.28666q0-4.89875,1.57781-7.2286a4.783,4.783,0,0,1,4.12133-2.331,4.45379,4.45379,0,0,1,2.96534.9887,5.79087,5.79087,0,0,1,1.74272,2.779,13.93148,13.93148,0,0,1,.56453,4.19032v8.66527h4.04918v-8.47657a8.14177,8.14177,0,0,1,1.31934-4.99191,4.44025,4.44025,0,0,1,3.76613-1.74193,4.70056,4.70056,0,0,1,3.93263,2.18991q1.577,2.18951,1.57781,6.6157a21.44444,21.44444,0,0,1-.54232,4.87377A18.65387,18.65387,0,0,1,48.521,1833.227l3.76614,1.36532a17.95424,17.95424,0,0,0,1.88385-4.99191,26.66484,26.66484,0,0,0,.65967-5.97982,19.12273,19.12273,0,0,0-1.27176-7.46408,9.85863,9.85863,0,0,0-3.36653-4.42659,7.95251,7.95251,0,0,0-4.5923-1.43588,8.43115,8.43115,0,0,0-4.14353,1.01249,7.13973,7.13973,0,0,0-2.87178,2.91935c-.09465.17413-.1668.36006-.24856.541a10.65332,10.65332,0,0,0-.43489-1.08256,8.62142,8.62142,0,0,0-2.89477-3.48467,7.60282,7.60282,0,0,0-4.47337-1.31854,8.008,8.008,0,0,0-4.87456,1.57781,10.1639,10.1639,0,0,0-3.34274,4.70886,21.75419,21.75419,0,0,0-1.202,7.74633,26.38884,26.38884,0,0,0,1.01329,7.48707,15.1002,15.1002,0,0,0,2.802,5.55643l3.67257-1.6008A13.35348,13.35348,0,0,1,26.05982,1829.43631Z"/><path class="cls-1" d="M46.6444,1878.67748a15.392,15.392,0,0,0,2.83134-1.25828,10.83638,10.83638,0,0,0,2.14075-1.6016,16.03617,16.03617,0,0,1,3.85017,7.86765l.07691.42735,1.1568-.28939-.0555-.36552a16.186,16.186,0,0,0-1.52231-4.82937,26.84135,26.84135,0,0,0-2.469-4.01033,15.99013,15.99013,0,0,0,2.20735-4.2474,16.189,16.189,0,0,0,.84678-5.26387,21.95714,21.95714,0,0,0-1.75224-8.75486,25.16362,25.16362,0,0,0-4.45275-7.01135,21.97879,21.97879,0,0,0-5.92433-4.67635,13.43382,13.43382,0,0,0-6.26525-1.71973,11.46663,11.46663,0,0,0-3.27059.46462,8.43392,8.43392,0,0,0-2.7687,1.38593,6.85419,6.85419,0,0,0-1.92667,2.35087,7.25418,7.25418,0,0,0-.72786,3.31578,9.80836,9.80836,0,0,0,1.05769,4.517,10.99,10.99,0,0,0,2.93282,3.5687,13.74814,13.74814,0,0,0,4.41391,2.33025,17.88331,17.88331,0,0,0,5.516.82062H44.311V1860.321H42.305a15.77086,15.77086,0,0,1-4.66129-.68821,13.27689,13.27689,0,0,1-3.88268-1.895,9.21919,9.21919,0,0,1-2.61726-2.88763,7.29534,7.29534,0,0,1-.95937-3.68208,5.7056,5.7056,0,0,1,.5439-2.63868,4.57632,4.57632,0,0,1,1.493-1.688,6.19209,6.19209,0,0,1,2.23351-.92687,13.40794,13.40794,0,0,1,2.764-.27433,14.31994,14.31994,0,0,1,6.77824,1.64837,18.20821,18.20821,0,0,1,5.4375,4.39884,20.90491,20.90491,0,0,1,3.602,6.2835,21.12179,21.12179,0,0,1,1.29317,7.277,16.19521,16.19521,0,0,1-.66681,4.33937A11.40487,11.40487,0,0,1,51.714,1873.462a28.77987,28.77987,0,0,0-4.6478-4.27833c-1.87672-1.39386-3.87555-2.73223-5.941-3.977-2.03768-1.22974-4.12451-2.44442-6.20262-3.60994-2.04878-1.14807-3.95484-2.33738-5.66427-3.53382a28.4087,28.4087,0,0,1-4.41073-3.75979,9.63769,9.63769,0,0,1-2.37782-4.14512c.11973-.77463.23152-1.43113.33856-1.97425.10862-.56293.2117-1.07275.30525-1.52548q.14272-.69932.21725-1.25433a5.54713,5.54713,0,0,0-.17047-2.61249,1.23123,1.23123,0,0,0-2.31121.14351,5.89962,5.89962,0,0,0-.23469,1.87593c0,.63667.01586,1.20357.04836,1.69753.03251.5003.08008.95224.14589,1.35739.06422.39723.13479.79287.21328,1.19327.07374.36155.13876.7453.19743,1.14966q-.17839.76473-.33776,1.51042c-.11021.52091-.20694,1.10209-.28782,1.72846q-.11773.93-.19108,2.07494c-.04678.7667-.07056,1.646-.07056,2.61488a20.61953,20.61953,0,0,0,1.56036,7.78122,23.753,23.753,0,0,0,4.26327,6.87418,21.48556,21.48556,0,0,0,6.431,4.91976,17.77949,17.77949,0,0,0,8.069,1.87989,21.54046,21.54046,0,0,0,2.97643-.21566A17.58251,17.58251,0,0,0,46.6444,1878.67748ZM24.49559,1856.8141a28.5741,28.5741,0,0,0,4.5138,4.46624,48.1355,48.1355,0,0,0,5.41372,3.70508c1.937,1.14252,3.88982,2.25333,5.803,3.3023,1.93936,1.06324,3.8359,2.1463,5.6373,3.21826a31.81055,31.81055,0,0,1,4.48685,3.204,7.33183,7.33183,0,0,1-2.66642,1.30665,14.105,14.105,0,0,1-3.68367.50347,25.52589,25.52589,0,0,1-5.07595-.5336,26.25765,26.25765,0,0,1-5.10053-1.59922,25.88564,25.88564,0,0,1-4.70489-2.64263,17.67,17.67,0,0,1-3.843-3.70587,18.02364,18.02364,0,0,1-2.6022-4.81272,17.2853,17.2853,0,0,1-.96492-5.88944c0-1.24084.03171-2.36513.09435-3.34115.0333-.51537.08325-1.02915.14985-1.53658A17.09405,17.09405,0,0,0,24.49559,1856.8141Z"/><path class="cls-1" d="M27.238,1887.57031a3.56569,3.56569,0,0,0,.9895-2.49675,3.15822,3.15822,0,0,0-.9895-2.44917,3.30656,3.30656,0,0,0-2.54352-1.03628,3.41513,3.41513,0,0,0-2.496,1.03628,3.29524,3.29524,0,0,0-.94351,2.44917,3.736,3.736,0,0,0,.94351,2.49675,3.61319,3.61319,0,0,0,2.496,1.03628A3.48255,3.48255,0,0,0,27.238,1887.57031Z"/><path class="cls-1" d="M45.17166,1273.60225a12.15147,12.15147,0,0,1-3.00835,4.66157l-.28091.22143.65785.88215.29525-.23576a12.9551,12.9551,0,0,0,3.21473-4.81206c3.28065,2.63427,6.18293,4.38137,7.29942,4.38137a1.15384,1.15384,0,0,0,1.24117-1.16808c0-2.946-2.41785-6.74835-6.64157-10.4518a39.71482,39.71482,0,0,0,.34111-5.242c0-7.38327-2.17851-11.98034-4.00444-14.53722-2.21433-3.0972-5.19544-4.94606-7.97734-4.94606-3.63036,0-5.97512,3.01622-5.97512,7.685,0,3.30574,1.17238,6.92607,3.48561,10.76783-.9273.36117-1.846,1.21538-1.846,3.1789,0,2.53394,2.49095,6.55987,4.562,9.47q-1.10072-.90937-2.2129-1.8245-1.49413-1.22862-2.984-2.46085c-2.93381-12.095-12.47193-24.377-18.953-24.377a1.8424,1.8424,0,0,0-1.78724,2.00508,17.702,17.702,0,0,0,5.76014,13.01227c3.31219,3.09577,9.05513,7.17688,14.12158,10.77715l.0559.04013a24.85032,24.85032,0,0,1,.526,4.90091,20.00228,20.00228,0,0,1-.17915,2.57336l-.04443.34039,1.085.21785.0516-.38912a21.21706,21.21706,0,0,0,.18632-2.74248,24.20835,24.20835,0,0,0-.35258-3.98007c3.31076,2.37414,6.40366,4.63792,8.4804,6.476l.29955.26514.22645-.30384.34541.29023-.28808-.36691.37694-.50664-.74671-.63707c-2.06672-2.42287-7.43128-9.44138-7.43128-12.78008a1.7895,1.7895,0,0,1,1.49628-2.00079A55.96358,55.96358,0,0,0,45.17166,1273.60225ZM18.1754,1257.82386c-3.96574-3.8217-6.33343-8.03825-6.33343-11.27878,0-.541.21785-.65212.5432-.65212,5.76013,0,14.36093,10.9778,17.504,22.10824C25.33294,1264.23755,21.30844,1260.85728,18.1754,1257.82386Zm35.31757,19.709c0,.02652,0,.07023-.14332.07023-.77394,0-3.43688-1.50632-6.88379-4.30326a27.40239,27.40239,0,0,0,1.06919-3.72138C51.17114,1272.98094,53.493,1276.07026,53.493,1277.53287ZM35.30676,1260.562c-.129,0-.26085,0-.3927.00931-2.3118-3.79017-3.48275-7.33167-3.48275-10.53063,0-4.0632,1.86893-6.58711,4.87727-6.58711,4.39,0,10.88393,5.84327,10.88393,18.38543a42.0114,42.0114,0,0,1-.23075,4.38137C42.73661,1262.76777,38.21334,1260.562,35.30676,1260.562Zm.50449,1.38234c2.2688.30528,6.48965,2.94958,10.78647,6.7849a26.98755,26.98755,0,0,1-1.02619,3.85108A55.56716,55.56716,0,0,1,35.81125,1261.94438Z"/><polygon class="cls-1" points="41.619 1306.888 41.619 1290.967 54.433 1290.967 54.433 1286.326 24.037 1286.326 24.037 1290.967 37.66 1290.967 37.66 1306.888 24.037 1306.888 24.037 1311.529 54.433 1311.529 54.433 1306.888 41.619 1306.888"/><path class="cls-1" d="M49.23915,1346.77061a14.97921,14.97921,0,0,0,3.96-10.64314c0-4.59779-1.277-8.34424-3.874-11.19636a12.84794,12.84794,0,0,0-10.21747-4.38424c-4.25669,0-7.62047,1.40456-10.08992,4.25668-2.34046,2.72456-3.5329,6.30046-3.5329,10.7277a16.73658,16.73658,0,0,0,3.74645,11.23936,12.71551,12.71551,0,0,0,10.00392,4.25668A13.21738,13.21738,0,0,0,49.23915,1346.77061Zm-18.56028-3.15023q-3.44833-2.80985-3.44834-8.30125a8.69632,8.69632,0,0,1,3.5329-7.1948,12.55213,12.55213,0,0,1,8.1307-2.683,14.26112,14.26112,0,0,1,8.59935,2.38489,8.70369,8.70369,0,0,1,3.96,7.662,9.51148,9.51148,0,0,1-3.874,8.13213,14.02708,14.02708,0,0,1-8.59936,2.511A12.95338,12.95338,0,0,1,30.67887,1343.62038Z"/><path class="cls-1" d="M39.40579,1316.928a32.61317,32.61317,0,0,1,10.345,1.53211,22.82592,22.82592,0,0,1,8.13069,4.5978l.59622-.63779a23.94169,23.94169,0,0,0-8.4288-5.40756,28.38725,28.38725,0,0,0-10.68614-2.00079,29.12956,29.12956,0,0,0-10.64314,1.95923,24.79988,24.79988,0,0,0-8.4718,5.44912l.59622.63779a23.3925,23.3925,0,0,1,8.17369-4.5978A33.07886,33.07886,0,0,1,39.40579,1316.928Z"/><path class="cls-1" d="M58.47773,1349.15407l-.59622-.63779a24.17569,24.17569,0,0,1-8.13069,4.59636,32.61185,32.61185,0,0,1-10.345,1.53355,33.07767,33.07767,0,0,1-10.388-1.53355,24.80441,24.80441,0,0,1-8.17369-4.59636l-.59622.63779a25.4527,25.4527,0,0,0,8.4718,5.44912,30.05269,30.05269,0,0,0,10.64314,1.95779,29.2244,29.2244,0,0,0,10.68614-2.00078A24.53213,24.53213,0,0,0,58.47773,1349.15407Z"/><polygon class="cls-1" points="50.465 1371.987 50.465 1369.767 52.686 1369.767 52.686 1362.632 50.465 1362.632 50.465 1360.375 48.209 1360.375 48.209 1358.082 41.074 1358.082 41.074 1360.375 38.817 1360.375 38.817 1362.632 36.559 1362.632 36.559 1369.365 34.302 1369.365 34.302 1371.623 27.933 1371.623 27.933 1369.365 25.711 1369.365 25.711 1362.996 27.933 1362.996 27.933 1360.775 32.446 1360.775 32.446 1358.082 27.569 1358.082 27.569 1360.375 25.311 1360.375 25.311 1362.632 23.018 1362.632 23.018 1369.767 25.311 1369.767 25.311 1371.987 27.569 1371.987 27.569 1374.244 34.703 1374.244 34.703 1371.987 36.961 1371.987 36.961 1369.767 39.217 1369.767 39.217 1362.996 41.438 1362.996 41.438 1360.775 47.807 1360.775 47.807 1362.996 50.065 1362.996 50.065 1369.365 47.807 1369.365 47.807 1371.623 43.294 1371.623 43.294 1374.244 48.209 1374.244 48.209 1371.987 50.465 1371.987"/><polygon class="cls-1" points="50.475 1375.902 50.475 1386.077 24.037 1386.077 24.037 1390.675 50.475 1390.675 50.475 1400.806 54.433 1400.806 54.433 1375.902 50.475 1375.902"/><path class="cls-1" d="M30.12565,1407.313a3.25548,3.25548,0,0,0-.85277-2.42646,2.90737,2.90737,0,0,0-2.34046-.97889,3.05667,3.05667,0,0,0-3.15024,3.10724,3.41375,3.41375,0,0,0,.12756,1.06488,4.97672,4.97672,0,0,1-2.97968-1.10788,6.68778,6.68778,0,0,1-2.00078-2.85212h-2.64a9.61622,9.61622,0,0,0,3.32078,5.10945,9.06307,9.06307,0,0,0,5.66125,1.87323,5.79923,5.79923,0,0,0,3.53433-1.02189A3.46463,3.46463,0,0,0,30.12565,1407.313Z"/><path class="cls-1" d="M54.43317,1438.93711l-30.39587-11.708v4.9389l7.83258,2.85212v13.06959l-7.83258,2.85213v4.98046l30.39587-11.7066Zm-18.73084-2.51245,13.75038,5.06646v.17055l-13.75038,5.02346Z"/><polygon class="cls-1" points="51.283 1476.988 50.432 1480.607 30.04 1480.607 53.837 1466.558 53.625 1457.618 51.283 1457.618 50.432 1461.237 27.443 1461.237 26.591 1457.618 24.037 1457.618 24.037 1469.112 26.591 1469.112 27.443 1465.068 47.493 1465.068 24.037 1479.116 24.037 1484.438 50.432 1484.438 51.283 1488.057 53.837 1488.057 53.625 1476.988 51.283 1476.988"/><path class="cls-1" d="M54.43317,1503.58709v-11.06881H24.0373v10.98282c0,4.8959,1.36156,8.59936,4.08756,11.1548,2.63857,2.42645,6.342,3.66046,11.11037,3.66046,4.80991,0,8.5148-1.19244,11.06881-3.5759C53.0716,1512.18644,54.43317,1508.483,54.43317,1503.58709Zm-23.66974,7.53447c-1.83023-1.78723-2.76756-4.63935-2.76756-8.4718v-5.49069H50.4746v5.57669c0,3.831-.89434,6.64013-2.72457,8.4288-1.78866,1.70267-4.59779,2.597-8.5148,2.597C35.40422,1513.76157,32.59366,1512.86723,30.76343,1511.12156Z"/><path class="cls-1" d="M36.128,1550.70155v8.38724H29.52942a12.3339,12.3339,0,0,1-1.49055-3.40535,16.77529,16.77529,0,0,1-.55323-4.21512c0-3.78945,1.06489-6.59857,3.19323-8.38724,1.95779-1.70267,4.76691-2.511,8.42881-2.511,3.74645,0,6.68313.89433,8.81147,2.76756a8.73364,8.73364,0,0,1,3.02268,7.02424,9.60674,9.60674,0,0,1-1.57512,5.78881,7.13932,7.13932,0,0,1-4.59779,2.81055v4.68235a11.55143,11.55143,0,0,0,7.62047-4.08612c1.78866-2.25734,2.64-5.32157,2.64-9.19559a13.205,13.205,0,0,0-4.68235-10.68613,16.67941,16.67941,0,0,0-11.23936-3.74646c-4.51323,0-8.21669,1.23544-11.06881,3.74646-3.06567,2.683-4.59779,6.428-4.59779,11.28236a24.67714,24.67714,0,0,0,1.02189,7.27935,17.72323,17.72323,0,0,0,2.85212,5.49213H40.08657v-13.028Z"/><path class="cls-1" d="M54.95773,1579.1296a8.46631,8.46631,0,0,0,.87283-3.91558,8.37111,8.37111,0,0,0-.87283-3.874,6.76982,6.76982,0,0,0-2.405-2.68013,6.9397,6.9397,0,0,0-7.10737,0,6.803,6.803,0,0,0-2.468,2.68013,8.29817,8.29817,0,0,0-.89434,3.91558,8.2054,8.2054,0,0,0,.89434,3.874,6.69874,6.69874,0,0,0,11.98034,0Zm-9.17122-.53173a5.18807,5.18807,0,0,1,.0215-6.7462,4.23681,4.23681,0,0,1,3.21329-1.32,4.10492,4.10492,0,0,1,3.1703,1.32,5.29806,5.29806,0,0,1,0,6.7462,4.60214,4.60214,0,0,1-6.40509,0Z"/><path class="cls-1" d="M54.43317,1598.15711V1587.0883H24.0373v10.98282c0,4.8959,1.36156,8.59936,4.08756,11.1548,2.63857,2.42645,6.342,3.66046,11.11037,3.66046,4.80991,0,8.5148-1.19244,11.06881-3.5759C53.0716,1606.75647,54.43317,1603.053,54.43317,1598.15711Zm-23.66974,7.53447c-1.83023-1.78723-2.76756-4.63935-2.76756-8.4718v-5.49069H50.4746v5.57669c0,3.831-.89434,6.64013-2.72457,8.4288-1.78866,1.70267-4.59779,2.597-8.5148,2.597C35.40422,1608.33159,32.59366,1607.43725,30.76343,1605.69158Z"/><path class="cls-1" d="M29.23131,1622.671a3.22571,3.22571,0,0,0,.89434-2.25733,2.854,2.854,0,0,0-.89434-2.2129,2.98662,2.98662,0,0,0-2.29889-.93733,3.08457,3.08457,0,0,0-2.2559.93733,2.97775,2.97775,0,0,0-.85277,2.2129,3.37982,3.37982,0,0,0,.85277,2.25733,3.26806,3.26806,0,0,0,2.2559.9359A3.14985,3.14985,0,0,0,29.23131,1622.671Z"/><path class="cls-1" d="M52.02537,1925.43043v-11.68872H50.51426l-.436,4.05551c-3.8166.07914-7.67352.07914-11.56926.07914H36.36177c-3.89574,0-7.71234,0-11.52894-.07914l-.43751-4.05551H22.88421v12.32482h1.51111l.47633-4.13466c3.3-.08063,6.44014-.08063,9.661-.08063v2.307c0,8.78595,4.0152,12.20536,8.86509,12.20536C48.56714,1936.36359,52.02537,1932.74558,52.02537,1925.43043Zm-15.74274-.79588v-2.78331H38.509c3.97488,0,7.95125,0,11.80668.08063v2.78182c0,5.20826-2.50409,7.55407-6.918,7.55407C39.18391,1932.26776,36.28263,1930.08172,36.28263,1924.63455Z"/><polygon class="cls-1" points="37.077 1946.368 37.077 1963.222 41.201 1963.222 41.201 1946.368 50.428 1946.368 50.428 1964.286 54.552 1964.286 54.552 1941.533 22.884 1941.533 22.884 1965.04 27.008 1965.04 27.008 1946.368 37.077 1946.368"/><path class="cls-1" d="M41.80661,1985.365c.224-4.42657-2.1502-9.90734-5.8787-13.68288-2.97295-2.97519-6.41775-4.68116-9.45042-4.68116-2.81169,0-4.59008,1.86052-4.64085,4.85363-.00149.059-.00149.1187-.00149.17918,0,3.89873,2.734,8.84568,6.70892,12.10159a15.79135,15.79135,0,0,0,7.34053,3.4097c.05824.006.11647.012.17321.01643a1.59624,1.59624,0,0,0,.49724.68463,3.40673,3.40673,0,0,0,2.46078.763C40.64938,1988.87323,41.69163,1987.51144,41.80661,1985.365Zm-16.61476-12.10009c1.75,0,4.47659,1.25652,6.94484,3.19842,3.71656,2.96324,6.3625,6.7664,6.15793,8.839a.67584.67584,0,0,1-.24638.48379,1.375,1.375,0,0,1-1.01985.15529c-2.22336-.22622-5.29636-2.12183-7.42864-3.82033-3.63-2.90426-5.81748-5.698-6.42819-8.182a.57539.57539,0,0,0,.45841-.17545c.02687-.02314.05823-.05151.1-.08287A2.34744,2.34744,0,0,1,25.19185,1973.26488Zm14.30628,12.16579c.27326-2.76987-2.419-7.15314-6.44611-10.41278-2.66087-2.02179-5.10225-3.00431-7.46149-3.00431a3.48957,3.48957,0,0,0-2.53246.90936c-.01344.01269-.02837.02911-.04479.047a4.936,4.936,0,0,1-.012-.64655,2.26775,2.26775,0,0,1,2.49961-2.42868c2.47721,0,5.89513,1.59921,8.70532,4.07119,2.66982,2.39583,6.26543,7.53391,6.26543,11.13474,0,.0784-.003.15679-.006.23369-.04181,1.3267-.68687,2.32415-1.58428,2.42793a2.36706,2.36706,0,0,1-1.43943-.24414A2.27761,2.27761,0,0,0,39.49813,1985.43067Z"/><path class="cls-1" d="M53.14825,2034.30812a11.75581,11.75581,0,0,0,5.41582,1.541,7.724,7.724,0,0,0,4.32279-1.14229,8.61281,8.61281,0,0,0,2.78331-2.98191,12.71808,12.71808,0,0,0,1.44094-4.07492,25.32489,25.32489,0,0,0,.39718-4.42284q0-1.1938-.19859-3.32982-.19934-2.139-.49574-4.86931-.30013-2.73479-.49723-5.81449-.20159-3.082-.1986-6.06237c0-.79587.01493-1.62459.04928-2.48467a12.40443,12.40443,0,0,1,.24787-2.186q.19934-1.09526.69583-1.19306c.26429-.06719.39718-.16574.39718-.29864,0-.19859-.28221-.4151-.84365-.64655a4.26124,4.26124,0,0,0-1.04374-.34642q-1.09526,0-1.093,1.8874a47.60614,47.60614,0,0,0,.39719,6.21168q.39645,3.03043.49723,6.21169c0,.33149-.13438.49723-.39868.49723a3.87973,3.87973,0,0,1-1.093-.29864q-.79512-.29788-1.6888-.69583-.89592-.39643-1.73957-.79438a10.50835,10.50835,0,0,1-1.14229-.59578q-4.07642-2.18827-9.19359-5.06939-5.12016-2.88486-9.29364-5.36654-3.47839-2.08749-7.354-4.37356a73.50155,73.50155,0,0,0-6.95679-3.67774,5.23912,5.23912,0,0,0-1.78884-.49574,1.4627,1.4627,0,0,0-1.24234.59579,4.506,4.506,0,0,0-.69583,1.39165,8.9117,8.9117,0,0,0-.34791,1.63953,12.00463,12.00463,0,0,0-.1,1.24234q0,2.186.19859,4.42283.20158,2.23531.49723,4.02565c.0657.33.1986.49574.39719.49574s.29864-.36434.29864-1.093a11.72611,11.72611,0,0,1,.74511-4.77076,2.66789,2.66789,0,0,1,2.634-1.59025,8.51739,8.51739,0,0,1,3.57769,1.09451q3.28129,1.6888,7.75266,4.17348,4.47287,2.48393,9.19359,5.16794,4.71924,2.68327,9.14283,5.31726,4.42134,2.63176,7.60334,4.52289a3.323,3.323,0,0,1,1.69029,1.98744,18.5295,18.5295,0,0,1,.49574,4.47211,11.84415,11.84415,0,0,1-1.49021,6.11164q-1.49169,2.53545-5.66517,2.53544a14.43576,14.43576,0,0,1-5.96382-1.34238,18.43318,18.43318,0,0,1-5.36653-3.67773,18.63641,18.63641,0,0,1-3.87633-5.56513,16.53067,16.53067,0,0,1-1.49021-7.00607,17.28262,17.28262,0,0,1,.19859-2.53544,9.4625,9.4625,0,0,1,.39719-1.83812.35087.35087,0,0,0-.39719-.39719c-.13289,0-.26578.09855-.39718.29714a12.60281,12.60281,0,0,0-.69583,4.37357,25.26792,25.26792,0,0,0,1.63952,9.39218,23.8173,23.8173,0,0,0,4.175,7.00607A19.22312,19.22312,0,0,0,53.14825,2034.30812Z"/><path class="cls-1" d="M53.234,2068.53808c.90487,0,1.44392-.46961,1.44392-1.25577,0-3.22605-6.01459-8.06474-8.85763-10.17164a41.422,41.422,0,0,0,2.75047-14.145c0-10.73531-5.7488-17.15082-11.308-17.15082-3.57172,0-7.74221,2.96175-7.74221,11.308a28.39725,28.39725,0,0,0,2.98938,12.454,22.71063,22.71063,0,0,1-2.93562-1.8986,20.99359,20.99359,0,0,0-1.429-2.93562l-.12692-.21427-1.13184.13961.29864.50246q.24861.42108.48678.88472a15.74544,15.74544,0,0,1-2.68028-3.43285,21.90648,21.90648,0,0,0,1.88292-4.40791,16.91663,16.91663,0,0,0,.5465-4.33474c0-1.24234-.15827-5.29486-2.18454-5.29486-3.2014,0-3.64488,9.42951-3.64488,9.52508a11.37458,11.37458,0,0,0,1.41853,5.7249c-.29416.49649-.59578.993-.89741,1.48946-2.195,3.615-4.46614,7.35323-4.46614,11.564,0,5.84062,3.46272,8.50075,6.67905,8.50075,4.30189,0,6.87019-3.48288,6.87019-9.316a23.45988,23.45988,0,0,0-.83022-5.97725c.9646.4935,2.01283.96908,3.17752,1.44317C39.525,2062.11884,50.14162,2068.53808,53.234,2068.53808Zm-8.895-10.81968c-.07317.19412-.14484.389-.224.5831l-.14186.35612,1.09451.43527.35837-.93325c5.07984,3.79495,8.10057,7.18674,8.10057,9.17792v.00671s-.05674.05-.29266.05c-2.65938,0-12.2203-5.85929-17.99448-15.17607l.10453.03882.45841.171a43.55744,43.55744,0,0,1,8.64111,5.01414C44.40775,2057.534,44.37341,2057.62657,44.33907,2057.7184ZM30.6644,2037.12279c0-7.50255,3.5538-10.16417,6.59842-10.16417,4.99623,0,10.16417,5.9877,10.16417,16.007a40.16378,40.16378,0,0,1-2.59218,13.43277,49.30187,49.30187,0,0,0-8.60378-5.06193c-.65552-.26877-1.34836-.5577-2.00984-.88322A27.89886,27.89886,0,0,1,30.6644,2037.12279Zm-11.87387,19.7654c0-4.02043,2.183-7.58916,4.29442-11.04067.20009-.32627.40018-.65253.59728-.97879a16.55038,16.55038,0,0,0,5.3531,4.51989,22.12958,22.12958,0,0,1,1.11093,6.72161c0,2.44586-.56741,8.13492-5.82047,8.13492C21.66044,2064.24515,18.79053,2061.94265,18.79053,2056.88819Zm7.58094-23.14151a15.75154,15.75154,0,0,1-.51515,4.06522,20.48085,20.48085,0,0,1-1.4932,3.60456,13.36639,13.36639,0,0,1-1.13333-5.46882c0-2.17035.68986-6.21915,2.00685-6.21915C25.7951,2029.72849,26.37147,2031.23139,26.37147,2033.74668Z"/><polygon class="cls-1" points="37.077 2075.21 37.077 2092.063 41.201 2092.063 41.201 2075.21 50.428 2075.21 50.428 2093.128 54.552 2093.128 54.552 2070.375 22.884 2070.375 22.884 2093.882 27.008 2093.882 27.008 2075.21 37.077 2075.21"/><path class="cls-1" d="M28.29554,2104.07608a3.36062,3.36062,0,0,0,.93175-2.35177,2.97336,2.97336,0,0,0-.93175-2.30549,3.11156,3.11156,0,0,0-2.39508-.97655,3.21363,3.21363,0,0,0-2.35029.97655,3.10238,3.10238,0,0,0-.88845,2.30549,3.52124,3.52124,0,0,0,.88845,2.35177,3.4048,3.4048,0,0,0,2.35029.97506A3.28162,3.28162,0,0,0,28.29554,2104.07608Z"/></svg>