<?xml version="1.0" encoding="UTF-8"?>
<svg id="font" xmlns="http://www.w3.org/2000/svg" viewBox="0 0 67.51 2105.05">
  <defs>
    <style>
      .cls-1 {
        fill: #a9a9ff;
      }
    </style>
  </defs>
  <g>
    <path class="cls-1" d="M53.39,1031.99l-27.28-12.47v4.27l6.94,3.11v13.68l-6.94,3.11v4.31l27.28-12.47v-3.53Zm-16.82-3.52l11.77,5.27-11.77,5.27v-10.54Z"/>
    <path class="cls-1" d="M53.61,1063.56c0-2.41-.53-4.51-1.58-6.25-.43-.71-.96-1.35-1.59-1.91h2.95v-3.92H26.11v4.03h15.42c2.88,0,5.01,.68,6.34,2.02,1.35,1.36,2.01,3.16,2.01,5.51s-.64,4-1.91,5.24c-1.27,1.25-3.22,1.88-5.81,1.88H26.11v4.03h16.13c3.65,0,6.48-.96,8.43-2.86,1.95-1.9,2.94-4.52,2.94-7.78Z"/>
    <path class="cls-1" d="M53.6,1145.25c0-3.77-1.71-8.25-5.07-13.29-2.48-3.74-5-6.53-7.91-8.77,.31-2.35,1.58-7.34,6.72-7.34,3.27,0,5.73,2.75,5.73,6.4,0,2.61-1.31,4.56-3.35,4.96-.06,.01-.11,.02-.16,.03-.12,.02-.43,.06-.43,.36,0,.39,.44,.39,.65,.39,2.92,0,4.44-2.91,4.44-5.78,0-4.01-2.65-8.34-6.93-8.34-5.75,0-7.26,5.62-7.65,8.58-3.34-2.4-6.32-3.64-9.09-3.79-1.38-.07-2.49,.29-3.31,1.07-.86,.82-1.33,2.1-1.33,3.6,0,2.17,1.13,4.38,2.44,6.22-2.44-1.88-6.05-4.88-9.08-8.29-3.23-3.62-8.65-11.25-8.65-21.7,0-6.95,1.88-12.59,5.3-15.89,2.39-2.31,5.48-3.42,9.19-3.29,8.27,.3,13.21,8.59,13.21,16.43,0,7.08-4.18,10.9-8.11,10.9-4.32,0-8.11-3.91-8.11-8.37,0-.89,.11-1.68,.32-2.36,.05-.15,.1-.26,.13-.34,.17-.36,.04-.53-.15-.62-.44-.15-.72,.5-.76,.61-.33,.67-.52,1.65-.52,2.78,0,5.18,3.64,10.72,9.05,10.72,6.26,0,9.53-6.66,9.53-13.25,0-11.18-7.55-17.47-14.65-17.71-3.96-.13-7.27,1.05-9.82,3.52-4.86,4.7-5.59,12.53-5.59,16.78,0,10.74,3.92,17.42,8.16,23.04,3.45,4.58,9.73,9.34,14.32,12.81,.74,.56,1.44,1.09,2.07,1.57,.2,.19,.38,.36,.56,.52,.72,.68,1.24,1.18,1.91,1.47,.48,.21,.86,.23,1.13,.07,.15-.09,.33-.27,.35-.64,.06-.92-.81-1.72-1.55-2.25-2.36-1.69-3.66-2.96-5.31-4.58-2.17-2.1-4.36-5.52-4.36-8.02,0-.84,.2-1.44,.62-1.83,.51-.47,1.37-.66,2.64-.57,3.39,.24,6.35,2.25,9.33,4.49,.12,4.95,1.02,8.94,3.11,13.75,2.04,4.65,5.49,9.66,8.24,9.66,1.88,0,2.74-1.94,2.74-3.74Zm-10.1-6.37c-1.89-4.22-2.85-8.22-3-12.54,2.46,1.94,4.54,4.06,6.69,6.81,2.33,2.95,5.43,7.4,5.43,11.99,0,1.19-.59,1.8-1.76,1.8-2.6,0-5.64-4.18-7.36-8.06h0Z"/>
    <path class="cls-1" d="M35.47,1169.67c.75,1.69,1.86,3.02,3.28,3.94,1.42,.92,3.13,1.38,5.08,1.38s3.73-.47,5.16-1.38c1.43-.92,2.53-2.24,3.28-3.94,.74-1.66,1.11-3.66,1.11-5.94v-10.37H26.11v4.03h8.25v6.34c0,.62,.03,1.21,.08,1.79l-8.33,5.9v4.58l9.25-6.59c.04,.09,.07,.17,.11,.26Zm8.36,1.29c-1.87,0-3.28-.59-4.3-1.8-1.03-1.23-1.56-3.08-1.56-5.51v-6.27h11.76v6.27c0,2.43-.52,4.29-1.56,5.51-1.02,1.21-2.44,1.8-4.34,1.8Z"/>
    <rect class="cls-1" x="42.76" y="1197.44" width="4" height="4"/>
    <rect class="cls-1" x="38.76" y="1193.44" width="4" height="4"/>
    <rect class="cls-1" x="38.76" y="1185.44" width="4" height="4"/>
    <rect class="cls-1" x="46.77" y="1201.44" width="4" height="4"/>
    <rect class="cls-1" x="46.77" y="1177.43" width="4" height="4"/>
    <rect class="cls-1" x="42.76" y="1181.43" width="4" height="4"/>
    <rect class="cls-1" x="22.75" y="1189.44" width="16.01" height="4"/>
    <path class="cls-1" d="M30.52,1215.93c.98-1.01,.98-2.67,0-3.68-.49-.51-1.14-.77-1.91-.77s-1.38,.25-1.89,.76c-.52,.51-.79,1.13-.79,1.85s.27,1.35,.79,1.85c.52,.5,1.15,.76,1.89,.76s1.41-.26,1.91-.77Z"/>
  </g>
  <g>
    <path class="cls-1" d="M59.06,59.13l-31.52-12.14c2.19-.49,4.24-1.49,6.1-3,2.97,2.26,6.03,3.45,8.86,3.45,4.19,0,4.82-2.57,4.82-4.1,0-3.97-2.56-8.62-6.55-11.93,.22-1.12,.36-2.24,.43-3.35v-.16c1.2,.79,2.43,1.68,3.71,2.68,4.06,7.93,9.36,17.41,14.45,20.61,1.25,.78,2.27,1.17,3.03,1.17,1.02,0,1.65-.68,1.65-1.78,0-.87-.37-2.02-1.07-3.32-1.58-2.94-9.19-11.47-17.1-17.66l-.54-1.05c-.76-1.49-1.44-2.82-2.07-4.13,4.7,2.57,9.13,4.02,12.33,4.02,3.33,0,4.04-1.91,4.05-3.52,2.44-.4,3.78-2.13,3.78-4.9,0-8.5-9.7-17.15-19.22-17.15-2.19,0-4.2,.47-5.97,1.4l-.39,.21,.58,1.16,.4-.2c1.61-.8,3.42-1.21,5.38-1.21,8.85,0,17.86,7.97,17.86,15.79,0,2.02-.85,3.21-2.53,3.54-1.05-6.75-9.5-12.95-13.08-12.95-.82,0-2.21,.32-2.21,2.48,0,4.07,5.46,11.82,14.04,11.93-.05,1.39-.94,2.06-2.69,2.06-2.77,0-7.27-1.88-13.75-5.76C38.35,13.32,32.53,0,26.88,0c-1.23,0-1.94,.89-1.94,2.43,0,8.09,8.77,16.26,16.33,20.84,.72,1.58,1.5,3.12,2.26,4.61-3.97-2.84-9.06-5.74-13.28-5.74-3.69,0-5.86,1.77-6.13,5.01-6.11,1.3-10.04,5.63-10.04,11.11,0,5.91,5.27,9.1,10.22,9.1,.89,0,1.76-.08,2.61-.23v4.85s8.28,3.02,8.28,3.02v13.82s-8.28,3.02-8.28,3.02v5.27s32.14-12.38,32.14-12.38v-5.58ZM26.88,1.36c4.6,0,10.07,12.01,12.89,18.57-5.57-4.3-13.43-13.61-13.43-17.94,0-.58,.25-.63,.54-.63ZM15.45,38.26c0-5.14,4.28-8.74,8.68-9.77,.31,4.55,3.82,10.65,8.43,14.63-2.44,1.91-5.21,2.88-8.25,2.88-4.3,0-8.86-2.71-8.86-7.74Zm18.19,3.92c-4.48-3.79-7.97-9.71-8.18-13.92,.47-.05,.95-.08,1.43-.08,3.56,0,7.91,1.95,11.97,5.35-1.06,3.43-2.9,6.48-5.21,8.65Zm6.33-7.69c3.53,3.23,5.95,6.88,5.95,9.03,0,1.1-.35,2.56-3.42,2.56-2.44,0-5.12-1.05-7.79-3.05,2.29-2.21,4.1-5.15,5.26-8.55Zm-.13-6.48c-.06,.94-.15,1.74-.27,2.47-3.4-2.43-7.43-3.71-11.7-3.71-.84,0-1.61,.05-2.34,.14,.37-2.24,2.01-3.37,4.86-3.37,2.7,0,6.21,1.39,10.32,4.04h-.85s-.03,.42-.03,.42Zm22.55,22.98c-.26,0-.88-.11-2.15-.88-3.45-2.05-7.65-7.77-12.81-17.46,7.24,6.11,13.34,13.29,14.42,15.44,.7,1.41,.85,2.15,.85,2.52s-.11,.38-.31,.38ZM46.46,11.98c3.24,0,10.77,5.79,11.73,11.69-5.4-.28-12.58-8.13-12.58-10.93,0-.66,.53-.76,.85-.76Zm-7.2,44.5l14.54,5.36v.18s-14.54,5.31-14.54,5.31v-10.85Z"/>
    <polygon class="cls-1" points="49.42 98.46 43.8 98.46 43.8 104.08 49.42 104.08 55.05 104.08 55.05 98.46 49.42 98.46"/>
    <polygon class="cls-1" points="43.8 87.21 49.42 87.21 55.05 87.21 55.05 92.83 55.05 98.46 60.67 98.46 60.67 92.83 60.67 87.21 60.67 81.58 55.05 81.58 49.42 81.58 43.8 81.58 38.18 81.58 32.55 81.58 26.93 81.58 26.93 87.21 32.55 87.21 38.18 87.21 38.18 92.83 38.18 98.46 43.8 98.46 43.8 92.83 43.8 87.21"/>
    <path class="cls-1" d="M59.06,126.18v-13.32s-32.14,0-32.14,0v4.91s12.51,0,12.51,0v8.33c0,7.7,3.29,11.57,9.86,11.57,6.53,0,9.77-3.82,9.77-11.48Zm-14.09,4.91c-.9-1.12-1.35-2.88-1.35-5.31v-8.01s11.25,0,11.25,0v8.01c0,2.39-.45,4.14-1.35,5.27-.81,1.12-2.25,1.71-4.23,1.71-1.98,0-3.42-.58-4.32-1.67Z"/>
    <polygon class="cls-1" points="44.75 149.94 58.96 143.37 58.96 138.39 40.1 147.72 26.93 147.72 26.93 152.16 40.11 152.16 58.96 161.5 58.96 156.52 44.75 149.94"/>
    <path class="cls-1" d="M33.36,167.71c0-1.08-.27-1.94-.9-2.57-.63-.72-1.44-1.03-2.47-1.03-.95,0-1.76,.32-2.39,.95-.63,.63-.94,1.44-.94,2.34,0,.49,.04,.86,.13,1.12-1.08,0-2.12-.41-3.15-1.17-.99-.81-1.67-1.84-2.12-3.02h-2.79c.63,2.25,1.8,4.05,3.51,5.4,1.71,1.31,3.69,1.98,5.99,1.98,1.53,0,2.75-.36,3.73-1.08,.95-.81,1.4-1.76,1.4-2.92Z"/>
    <path class="cls-1" d="M42.45,212.35c.77-1.26,1.8-4.1,3.15-8.42,.9-3.02,1.57-4.86,1.98-5.58,.86-1.62,1.98-2.39,3.42-2.39,1.62,0,2.79,.67,3.51,2.07,.63,1.12,.95,2.74,.95,4.86,0,2.43-.45,4.23-1.4,5.49-.9,1.26-2.43,2.07-4.5,2.52v4.86c3.51-.32,6.08-1.57,7.74-3.83,1.62-2.12,2.39-5.04,2.39-8.78,0-3.42-.77-6.26-2.3-8.51-1.62-2.38-3.82-3.56-6.66-3.56-2.79,0-4.95,1.22-6.44,3.69-.54,.99-1.4,3.42-2.66,7.38-1.08,3.56-1.8,5.67-2.16,6.39-1.03,2.02-2.43,3.06-4.23,3.06-1.44,0-2.57-.72-3.37-2.16-.81-1.44-1.26-3.38-1.26-5.81,0-2.7,.5-4.68,1.49-5.99,1.08-1.44,2.92-2.34,5.45-2.7v-4.86c-4.05,.27-7.02,1.71-8.91,4.37-1.53,2.21-2.34,5.27-2.34,9.18,0,4.05,.81,7.2,2.43,9.45,1.67,2.25,3.92,3.37,6.8,3.37,2.97,0,5.27-1.39,6.93-4.14Z"/>
    <path class="cls-1" d="M45.69,236.32v-2.74s8.32,0,8.32,0v-2.79s8.32,0,8.32,0v-3.28s-8.32,0-8.32,0v-2.74s-8.32,0-8.32,0v-2.79s-11.16,0-11.16,0v-2.83s-8.86,0-8.86,0v3.33s8.41,0,8.41,0v13.41s-8.41,0-8.41,0v3.24s8.86,0,8.86,0v-2.79s11.16,0,11.16,0Zm-8.37-3.24v-7.87s7.87,0,7.87,0v2.79s8.32,0,8.32,0v2.29s-8.32,0-8.32,0v2.79s-7.87,0-7.87,0Z"/>
    <polygon class="cls-1" points="54.88 241.05 54.88 251.81 26.93 251.81 26.93 256.67 54.88 256.67 54.88 267.38 59.06 267.38 59.06 241.05 54.88 241.05"/>
    <rect class="cls-1" x="26.93" y="271.33" width="32.14" height="4.86"/>
    <path class="cls-1" d="M63.73,324.44c0-1.26-.67-2.82-1.99-4.63-2.07-2.83-6.02-5.83-12.41-9.44,.46-2.55,.69-5.05,.69-7.44,0-14.32-8.6-21.95-14.8-21.95-3.51,0-7.27,2.34-7.27,8.9,0,2.83,1.24,6.76,3.53,11.25-2.35-1.26-4.57-2.5-6.63-3.72-3.42-15.84-15.71-25.52-21.33-25.52-3.07,0-3.53,1.97-3.53,3.14,0,12.01,11.13,19.01,23.26,24.75,.22,1.25,.36,2.58,.46,4.06l.04,.71h2s-.05-.8-.05-.8c-.07-1.05-.16-2.03-.28-2.96,1.29,.59,2.57,1.17,3.82,1.73,1.35,.61,2.68,1.2,3.96,1.8,6.74,11.52,18.18,23.1,27.12,23.1,2.05,0,3.38-1.16,3.38-2.96Zm-27.27-18.58c4.62,2.27,7.78,3.87,10.64,5.43l-.38,1.83,1.97,.36,.25-1.17c5.68,3.24,9.25,6.01,11.19,8.67,1.18,1.64,1.61,2.89,1.61,3.47,0,.66-.47,1-1.38,1-7.57,0-17.4-9.52-23.89-19.58Zm-6.51-15.99c0-4.35,1.97-6.94,5.27-6.94,5.37,0,12.81,6.95,12.81,19.99,0,2.11-.19,4.27-.55,6.42-2.39-1.29-4.88-2.54-7.5-3.86l-5.4-2.75c-2.94-5.15-4.63-9.84-4.63-12.87Zm-27.95-14.85c0-.57,.12-1.18,1.53-1.18,4.09,0,15.08,7.52,18.94,22.12-13.4-8.26-20.47-15.48-20.47-20.94Z"/>
    <polygon class="cls-1" points="26.93 328.8 26.93 333.7 41.33 333.7 41.33 349.68 45.52 349.68 45.52 333.7 54.88 333.7 54.88 350.63 59.06 350.63 59.06 328.8 26.93 328.8"/>
    <polygon class="cls-1" points="55.73 353.82 54.83 357.64 30.53 357.64 29.63 353.82 26.93 353.82 26.93 366.19 29.63 366.19 30.53 362.37 54.83 362.37 55.73 366.19 58.43 366.19 58.21 353.82 55.73 353.82"/>
    <polygon class="cls-1" points="41.33 376.27 41.33 393.37 45.52 393.37 45.52 376.27 54.88 376.27 54.88 394.45 59.06 394.45 59.06 371.36 26.93 371.36 26.93 395.22 31.11 395.22 31.11 376.27 41.33 376.27"/>
    <path class="cls-1" d="M65.1,419.56c0-6.08-2.12-11.25-6.44-15.53-4.27-4.32-9.45-6.44-15.53-6.44-6.03,0-11.21,2.12-15.53,6.44-4.28,4.28-6.44,9.45-6.44,15.53,0,6.03,2.16,11.21,6.44,15.53,4.32,4.28,9.5,6.44,15.53,6.44s11.25-2.16,15.53-6.44c4.32-4.32,6.44-9.5,6.44-15.53Zm-36.1,14.13c-3.87-3.96-5.81-8.64-5.81-14.13,0-5.49,1.94-10.22,5.81-14.13,3.96-3.87,8.64-5.81,14.13-5.81,5.49,0,10.22,1.94,14.13,5.81,3.87,3.92,5.81,8.64,5.81,14.13s-1.93,10.17-5.81,14.13c-3.92,3.87-8.64,5.81-14.13,5.81-5.49,0-10.17-1.93-14.13-5.81Z"/>
    <path class="cls-1" d="M58.12,420.23v-11.12s-30.2,0-30.2,0v11.03c0,4.91,1.35,8.64,4.05,11.21,2.66,2.43,6.35,3.64,11.07,3.64,4.77,0,8.42-1.22,10.98-3.6,2.74-2.52,4.1-6.26,4.1-11.16Zm-23.36,7.29c-1.76-1.71-2.66-4.46-2.66-8.24v-5.31s21.83,0,21.83,0v5.4c0,3.78-.86,6.53-2.61,8.24-1.71,1.67-4.5,2.52-8.28,2.52-3.73,0-6.48-.9-8.28-2.61Z"/>
    <path class="cls-1" d="M32.42,450.56c.63-.67,.94-1.49,.94-2.39,0-.99-.32-1.76-.94-2.34-.63-.67-1.44-.99-2.43-.99-.9,0-1.71,.32-2.39,.99-.58,.58-.9,1.35-.9,2.34,0,.9,.32,1.71,.9,2.39,.67,.63,1.48,.99,2.39,.99,.99,0,1.8-.36,2.43-.99Z"/>
  </g>
  <g>
    <path class="cls-1" d="M35.99,722.71v14.34s3.51,0,3.51,0v-14.34s7.85,0,7.85,0v15.24s3.51,0,3.51,0v-15.54c.65,1.74,1.62,2.78,2.57,2.78,.41,0,1.74-.24,1.74-3.3,0-3.19-.87-6.08-2.65-8.85,.26-.6,.56-1.24,.88-1.91,1.18-2.53,2.53-5.4,2.53-7.8,0-1.07-.19-2.19-.57-3.33,1.13-.42,1.78-1.47,1.78-2.93,0-1.18-.58-2.62-1.55-3.86-2.98-3.79-9.93-5.89-10.23-5.98l-.4-.12-.23,1.13,.33,.1c.07,.02,6.78,2.03,9.62,5.57,.85,1.06,1.31,2.18,1.31,3.16,0,1.29-.56,1.66-1.08,1.79-1.3-3-3.92-5.94-6.99-5.94-.97,0-1.55,.59-1.55,1.59,0,4.15,4.82,5.7,7.85,5.7h0c.37,1.07,.56,2.15,.56,3.13,0,1.97-1.26,4.72-2.38,7.14-.23,.5-.45,.98-.66,1.45-3.09-4.16-7.94-7.53-12.24-10.52l-.98-.7c.29-1.3,.62-2.51,.93-3.69,.95-3.58,1.84-6.97,1.84-11.94,0-8.38-6.3-14.64-11.93-14.64-3.64,0-7.55,3.15-7.55,10.08,0,10.52,6.87,15.07,14.15,19.88,.26,.17,.51,.34,.77,.5,.18,.12,.37,.24,.55,.36-.17,.91-.33,1.92-.41,2.9l-1.58-1.07-.4,.8,1.94,1.7c.02,1.92,.36,3.71,1.08,5.62l.14,.36,1.08-.43-.13-.35c-.55-1.47-.86-2.81-.98-4.15l1.92,1.7,.07-2.07-2.04-1.38c.03-.9,.13-1.87,.32-2.95l.55,.38c4.39,3.04,9.31,6.63,12.32,10.98-.71,1.82-1.05,3.26-1.05,4.52,0,.27,.03,.52,.04,.78H23.92s0,20,0,20h3.51s0-15.88,0-15.88h8.56Zm18.03-.82c0,1.41-.36,1.92-.6,1.92-.63,0-2.19-2.1-2.19-6,0-.89,.22-1.94,.7-3.29,1.4,2.4,2.08,4.82,2.08,7.36Zm-6.11-27.84c2.08,0,4.39,1.96,5.76,4.83-3.56-.37-6.09-3.3-6.09-4.56,0-.11,0-.26,.34-.26Zm-18.56-22.49c6.68,0,10.79,7.87,10.79,13.5,0,4.6-.84,7.88-1.73,11.36-.29,1.14-.59,2.31-.87,3.54-8.42-6.5-14.03-14.96-14.03-21.2,0-3.49,2.05-7.2,5.85-7.2Z"/>
    <path class="cls-1" d="M53.05,758.86c-.32-.98-.77-2.04-1.36-3.14-.58-1.09-1.26-2.19-2.02-3.24-2.57-3.57-4.9-5.31-7.1-5.31-.71,0-1.8,.2-2.52,1.25-1.44-2.6-3.02-4.69-4.69-6.22-2.05-1.88-4.17-2.83-6.29-2.83-1.32,0-2.49,.36-3.48,1.08-.98,.71-1.73,1.72-2.23,3.02-.48,1.25-.73,2.72-.73,4.39,0,1.5,.24,3.17,.71,4.98,.47,1.79,1.15,3.65,2.03,5.51l.16,.35,4.52,.91-.76-1.42c-.99-1.85-1.8-3.52-2.4-4.95-.6-1.42-1.05-2.73-1.34-3.88-.67-2.68-.59-4.77,.51-6.12,.59-.73,1.34-1.09,2.28-1.09,2.09,0,4.42,1.72,6.93,5.12,1.57,2.13,2.82,4.27,3.72,6.37l.16,.37,2.68,.55v-1.26c.05-1.19,.17-1.68,.22-1.83,.1-.25,.28-.47,.54-.65,.24-.17,.48-.26,.74-.26,.69,0,1.53,.37,2.49,1.1,1.03,.79,2.03,1.88,2.96,3.24,.71,1.03,1.29,2.08,1.71,3.11,.4,.99,.61,1.82,.61,2.47,0,1.01-.39,1.01-.72,1.01-.87,0-2.51-.55-5.39-3.16l-.51-.46-2.34,2.14,.54,.56c.76,.79,1.63,1.52,2.57,2.17,.95,.65,1.88,1.15,2.76,1.49,.92,.36,1.75,.54,2.49,.54,.91,0,1.66-.29,2.22-.87,1.01-1.04,1.05-2.77,.34-5Z"/>
    <polygon class="cls-1" points="50.86 773.33 50.86 769.26 23.92 769.26 23.92 788.16 27.43 788.16 27.43 773.33 50.86 773.33"/>
    <polygon class="cls-1" points="30.82 822.18 30.82 822.03 50.86 808.26 50.86 804.11 23.92 804.11 23.92 808.22 44.18 808.22 44.18 808.37 23.92 822.3 23.92 826.3 50.86 826.3 50.86 822.18 30.82 822.18"/>
    <path class="cls-1" d="M51.74,850.25c.9-1.45,1.35-3.14,1.35-5.02,0-2.03-.55-4.03-1.62-5.97-1.07-1.92-2.54-3.66-4.37-5.16-1.82-1.5-3.93-2.71-6.28-3.59-2.34-.89-4.76-1.34-7.2-1.34-1.52,0-2.94,.22-4.23,.67-1.3,.44-2.42,1.1-3.34,1.94-.92,.84-1.64,1.87-2.13,3.06-.49,1.18-.74,2.48-.74,3.86,0,1.56,.28,3.1,.84,4.57,.56,1.47,1.4,2.88,2.51,4.19,1.1,1.31,2.44,2.49,3.96,3.53,1.79,1.21,3.73,2.16,5.77,2.82,2.05,.67,4.1,1.01,6.11,1.01,2.07,0,3.94-.4,5.55-1.19,1.62-.8,2.9-1.93,3.79-3.38Zm-23.15-17c1.27-.56,2.79-.84,4.52-.84,1.87,0,3.93,.29,6.14,.87,2.21,.58,4.12,1.33,5.69,2.22,1.41,.8,2.63,1.71,3.61,2.7,.97,.99,1.72,2.06,2.23,3.18,.5,1.11,.75,2.25,.75,3.39,0,1.09-.19,2.06-.56,2.88-.37,.82-.91,1.53-1.6,2.1-.7,.58-1.57,1.04-2.58,1.35-1.03,.32-2.2,.48-3.5,.48-1.66,0-3.51-.23-5.5-.68-2-.45-3.73-1.02-5.15-1.68-1.6-.74-3.01-1.66-4.21-2.74-1.19-1.07-2.13-2.26-2.78-3.52-1.32-2.58-1.27-5.37,.05-7.36,.67-1.02,1.65-1.82,2.89-2.37Z"/>
    <polygon class="cls-1" points="47.35 864.28 47.35 873.25 23.92 873.25 23.92 877.37 47.35 877.37 47.35 886.35 50.86 886.35 50.86 864.28 47.35 864.28"/>
    <path class="cls-1" d="M55.12,861.07c-5.58-2.79-11.43-4.19-17.62-4.19-6.15,0-12.04,1.4-17.62,4.19v1.92c5.62-2.91,11.51-4.34,17.62-4.34,6.15,0,12.04,1.43,17.62,4.34v-1.92Z"/>
    <path class="cls-1" d="M55.12,887.59c-5.58,2.87-11.47,4.34-17.62,4.34s-12-1.47-17.62-4.34v1.92c5.58,2.79,11.47,4.19,17.62,4.19,6.19,0,12.04-1.4,17.62-4.19v-1.92Z"/>
    <path class="cls-1" d="M50.63,905.69l-.19,2.19c-3.62,.08-7.28,.08-10.94,.08v-6.87c3.66,0,7.32,0,10.9,.07l.23,2.19h1.51s0-7.85,0-7.85h-1.51s-.19,1.96-.19,1.96c-3.77,.07-7.55,.07-11.4,.07h-2c-3.77,0-7.62,0-11.39-.07l-.19-1.96h-1.55s0,7.85,0,7.85h1.55s.23-2.19,.23-2.19c3.66-.07,7.55-.07,12.15-.07v6.87c-4.6,0-8.49,0-12.19-.08l-.19-2.19h-1.55s0,7.85,0,7.85h1.55s.19-1.96,.19-1.96c3.77-.08,7.62-.08,11.39-.08h2c3.85,0,7.62,0,11.4,.08l.19,1.96h1.51s0-7.85,0-7.85h-1.51Z"/>
    <rect class="cls-1" x="23.92" y="917.61" width="26.94" height="4.08"/>
    <polygon class="cls-1" points="30.82 946.05 30.82 945.9 50.86 932.13 50.86 927.98 23.92 927.98 23.92 932.09 44.18 932.09 44.18 932.24 23.92 946.17 23.92 950.17 50.86 950.17 50.86 946.05 30.82 946.05"/>
    <path class="cls-1" d="M35.48,969.52l-.37,4.8c-2.42,.06-4.94,.09-7.32,.09h-1.32c-.78-1.64-1.13-3.42-1.13-5.7,0-6.31,4.67-10.23,12.2-10.23,7.55,0,12.23,3.97,12.23,10.37,0,2.35-.35,4-1.22,5.58l-5.61,.88v3s7.03-.18,7.03-.18l.22-.35c1.64-2.69,2.37-5.54,2.37-9.23,0-8.71-6.04-14.56-15.03-14.56-8.99,0-15.03,5.81-15.03,14.45,0,3.31,.44,6.25,2.59,9.78l.22,.36h2.4c2.84,0,5.26,.03,7.45,.06l.33,3.44h2.66s0-12.58,0-12.58h-2.67Z"/>
    <path class="cls-1" d="M28.52,993.04c.53-.57,.79-1.25,.79-2,0-.83-.26-1.47-.79-1.96-.53-.57-1.21-.83-2.04-.83-.76,0-1.43,.26-2,.83-.49,.49-.75,1.13-.75,1.96,0,.75,.26,1.43,.75,2,.57,.53,1.24,.83,2,.83,.83,0,1.51-.3,2.04-.83Z"/>
  </g>
  <g>
    <path class="cls-1" d="M57.35,537.16c.96,0,1.56-.62,1.56-1.61,0-7.13-16.37-16.56-21-18.59h-.02c-.94-1.62-1.76-3.13-2.48-4.6,.11,0,.22,.01,.33,.01,3.59,0,7.43-3.23,7.43-12.28s-5.37-14.69-10.62-16.16c1.76-3.37,4.57-5.3,7.78-5.3,6.34,0,13.08,7.07,13.08,20.18,0,8.81-1.18,15.19-3.6,19.53l-.24,.42,1.18,.59,.21-.38c3.41-6.08,3.81-14.41,3.81-20.16,0-10.59-5.4-21.54-14.44-21.54-3.87,0-7.2,2.32-9.18,6.38-.41-.05-.79-.07-1.14-.07-7.42,0-10.12,9.06-10.12,15.15,0,10.21,9.13,15.71,17.14,19.36,6.67,11.05,15.2,19.06,20.32,19.06Zm0-1.36c-4.36,0-11.99-7.07-18.12-16.65,6.07,3.11,18.32,10.84,18.32,16.41,0,.25-.07,.25-.2,.25Zm-15.54-35.7c0,8.05-3.13,10.92-6.07,10.92-.18,0-.36-.01-.53-.03,1.63-2.37,2.49-5.1,2.49-7.93,0-7.94-3.47-13.21-6.85-13.89,.25-1.43,.63-2.76,1.13-3.97,4.83,1.19,9.83,6.71,9.83,14.9Zm-7.81,12.41c.57,1.18,1.19,2.37,1.85,3.56l-.28-.12c-1.12-.48-2.2-1.09-3.23-1.81l.18-.16c.58-.53,1.06-1,1.48-1.46Zm-3.58-18.1c0-1.45,.07-2.73,.22-3.9,2.51,.52,5.69,4.9,5.69,12.54,0,2.53-.69,4.85-2.05,6.91-2.53-5.66-3.86-11.02-3.86-15.55Zm-1.36,0c0,4.61,1.33,10.05,3.85,15.79-3.64-2.18-5.85-8.47-5.85-13.63,0-1.98,.3-5.23,2.2-5.97-.14,1.17-.2,2.43-.2,3.81Zm1.52-9.45c-.49,1.26-.86,2.67-1.11,4.19-3.56,.69-4.38,6.87-4.38,9.05,0,5.7,2.86,11,7.13,13.2,.2,.1,.43,.21,.66,.31-.36,.39-.77,.79-1.25,1.22l-.32,.28,.31,.41c-5.51-4.15-9.41-11.25-9.41-17.81,0-4.04,1.64-10.87,7.79-10.87,.2,0,.4,0,.58,.02Z"/>
    <rect class="cls-1" x="23.66" y="527.47" width="4.55" height="2.34"/>
    <rect class="cls-1" x="28.2" y="529.81" width="4.59" height="2.29"/>
    <rect class="cls-1" x="32.79" y="532.1" width="4.54" height="2.21"/>
    <rect class="cls-1" x="30.5" y="534.31" width="2.29" height="16.02"/>
    <rect class="cls-1" x="51.11" y="541.15" width="4.54" height="2.34"/>
    <rect class="cls-1" x="32.79" y="550.32" width="4.54" height="2.29"/>
    <rect class="cls-1" x="23.66" y="554.96" width="4.55" height="2.21"/>
    <rect class="cls-1" x="28.2" y="552.62" width="4.59" height="2.34"/>
    <rect class="cls-1" x="41.97" y="536.65" width="4.5" height="2.29"/>
    <rect class="cls-1" x="37.34" y="534.31" width="4.63" height="2.34"/>
    <rect class="cls-1" x="46.47" y="538.94" width="4.63" height="2.21"/>
    <rect class="cls-1" x="41.97" y="545.78" width="4.5" height="2.34"/>
    <rect class="cls-1" x="37.34" y="548.12" width="4.63" height="2.21"/>
    <rect class="cls-1" x="46.47" y="543.49" width="4.63" height="2.29"/>
    <path class="cls-1" d="M59.06,600.3v-3.4l-1.11,.57c-6.45,3.31-13.26,4.99-20.26,4.99s-13.77-1.68-20.26-4.99l-1.11-.57v3.4l.42,.21c6.61,3.3,13.66,4.98,20.95,4.98s14.34-1.68,20.95-4.98l.42-.21Z"/>
    <path class="cls-1" d="M49.39,594.11c3.11-2.6,4.69-6.52,4.69-11.66v-11.97H21.04v11.4c0,5.08,1.55,9.08,4.62,11.86,2.93,2.65,6.93,3.99,11.9,3.99s9.06-1.22,11.83-3.62Zm.77-19.41v7.35c0,4.09-1.07,6.99-3.26,8.86-2.01,1.72-5.15,2.6-9.34,2.6s-7.14-1-9.28-2.97c-2.24-2.08-3.33-5.04-3.33-9.06v-6.78h25.21Z"/>
    <path class="cls-1" d="M59.06,569.5v-3.41l-.42-.21c-6.6-3.3-13.65-4.98-20.95-4.98s-14.34,1.67-20.95,4.98l-.42,.21v3.41l1.12-.58c6.41-3.31,13.22-4.99,20.26-4.99s13.89,1.68,20.25,4.99l1.12,.58Z"/>
    <path class="cls-1" d="M43.3,611.08c0-.79-.27-1.41-.8-1.9-.53-.53-1.15-.79-1.9-.79s-1.41,.27-1.94,.79c-.49,.49-.75,1.1-.75,1.9,0,.71,.26,1.37,.75,1.9,.53,.53,1.19,.8,1.94,.8s1.37-.27,1.9-.8,.8-1.19,.8-1.9Z"/>
    <path class="cls-1" d="M27.15,611.08c0-.79-.27-1.41-.79-1.9-.53-.53-1.15-.79-1.9-.79s-1.41,.27-1.94,.79c-.48,.49-.75,1.1-.75,1.9,0,.71,.27,1.37,.75,1.9,.53,.53,1.19,.8,1.94,.8s1.37-.27,1.9-.8c.53-.53,.79-1.19,.79-1.9Z"/>
    <path class="cls-1" d="M37.69,622.9c3.8,0,7.59,.62,11.47,1.94,3.18,.97,6.22,2.38,9.13,4.19v-3.09c-2.82-1.94-5.87-3.44-9.09-4.55-3.8-1.32-7.63-1.94-11.56-1.94s-7.68,.62-11.47,1.94c-3.18,1.1-6.22,2.6-9.09,4.55v3.09c2.96-1.81,6-3.22,9.13-4.19,3.88-1.32,7.72-1.94,11.47-1.94Z"/>
  </g>
  <g>
    <polygon class="cls-1" points="50.74 1638.6 50.74 1649.86 21.49 1649.86 21.49 1654.95 50.74 1654.95 50.74 1666.16 55.12 1666.16 55.12 1638.6 50.74 1638.6"/>
    <polygon class="cls-1" points="36.56 1675.34 36.56 1693.23 40.94 1693.23 40.94 1675.34 50.74 1675.34 50.74 1694.37 55.12 1694.37 55.12 1670.2 21.49 1670.2 21.49 1695.17 25.87 1695.17 25.87 1675.34 36.56 1675.34"/>
    <polygon class="cls-1" points="45.04 1714.75 39.15 1714.75 39.15 1720.63 45.04 1720.63 50.92 1720.63 50.92 1714.75 45.04 1714.75"/>
    <polygon class="cls-1" points="21.49 1714.75 21.49 1720.63 27.38 1720.63 33.26 1720.63 33.26 1714.75 27.38 1714.75 21.49 1714.75"/>
    <polygon class="cls-1" points="39.15 1702.98 45.04 1702.98 50.92 1702.98 50.92 1708.86 50.92 1714.75 56.81 1714.75 56.81 1708.86 56.81 1702.98 56.81 1697.09 50.92 1697.09 45.04 1697.09 39.15 1697.09 33.26 1697.09 27.38 1697.09 21.49 1697.09 21.49 1702.98 27.38 1702.98 33.26 1702.98 33.26 1708.86 33.26 1714.75 39.15 1714.75 39.15 1708.86 39.15 1702.98"/>
    <path class="cls-1" d="M44.1,1741.55c.57,1.32,1.6,2.02,3.11,2.02,1.37,0,2.35-.42,3.01-1.27,.66-.85,.99-2.02,.99-3.63v-5.84h-13.57v2.83h5.28v2.45c0,1.04-.28,1.7-.85,2.07-.33,.19-1.04,.38-2.07,.47-1.04,.09-1.84,.33-2.35,.66v3.2c.66-.66,1.74-.99,3.16-1.08,1.88-.09,2.97-.75,3.3-1.88Zm1.27-3.11v-2.78h3.44v2.78c0,1.51-.57,2.31-1.7,2.31s-1.74-.8-1.74-2.31Z"/>
    <path class="cls-1" d="M55.78,1738.3c0-3.16-1.08-5.84-3.3-8.01-2.21-2.26-4.9-3.34-8.06-3.34s-5.79,1.08-8.05,3.34c-2.17,2.17-3.3,4.85-3.3,8.01s1.13,5.79,3.3,8.01c2.26,2.21,4.95,3.34,8.05,3.34s5.84-1.13,8.06-3.34c2.21-2.21,3.3-4.9,3.3-8.01Zm-18.09,6.74c-1.84-1.88-2.78-4.1-2.78-6.74s.94-4.9,2.78-6.74c1.88-1.88,4.1-2.78,6.73-2.78s4.9,.9,6.78,2.78c1.88,1.84,2.78,4.1,2.78,6.74s-.89,4.85-2.78,6.74c-1.88,1.84-4.15,2.78-6.78,2.78s-4.85-.94-6.73-2.78Z"/>
    <rect class="cls-1" x="21.49" y="1753.46" width="33.63" height="5.09"/>
    <polygon class="cls-1" points="21.49 1765.23 21.49 1770.36 36.56 1770.36 36.56 1787.09 40.94 1787.09 40.94 1770.36 50.74 1770.36 50.74 1788.07 55.12 1788.07 55.12 1765.23 21.49 1765.23"/>
    <polygon class="cls-1" points="51.64 1791.41 50.69 1795.42 25.26 1795.42 24.32 1791.41 21.49 1791.41 21.49 1804.36 24.32 1804.36 25.26 1800.36 50.69 1800.36 51.64 1804.36 54.46 1804.36 54.23 1791.41 51.64 1791.41"/>
    <path class="cls-1" d="M26.06,1829.44c-.6-1.99-.9-4.09-.9-6.29,0-3.27,.53-5.67,1.58-7.23,1.05-1.55,2.42-2.33,4.12-2.33,1.19,0,2.18,.33,2.97,.99,.78,.66,1.37,1.58,1.74,2.78,.38,1.19,.56,2.59,.56,4.19v8.67h4.05v-8.48c0-2.17,.44-3.83,1.32-4.99,.88-1.16,2.13-1.74,3.77-1.74s2.88,.73,3.93,2.19,1.58,3.66,1.58,6.62c0,1.7-.18,3.32-.54,4.87-.36,1.55-.93,3.07-1.72,4.54l3.77,1.37c.82-1.41,1.44-3.08,1.88-4.99s.66-3.91,.66-5.98c0-2.98-.42-5.47-1.27-7.46-.85-1.99-1.97-3.47-3.37-4.43-1.4-.96-2.93-1.44-4.59-1.44-1.54,0-2.92,.34-4.14,1.01-1.22,.67-2.18,1.65-2.87,2.92-.09,.17-.17,.36-.25,.54-.13-.37-.27-.73-.43-1.08-.67-1.44-1.64-2.61-2.89-3.48-1.26-.88-2.75-1.32-4.47-1.32-1.82,0-3.45,.53-4.87,1.58-1.43,1.05-2.54,2.62-3.34,4.71-.8,2.09-1.2,4.67-1.2,7.75,0,2.7,.34,5.19,1.01,7.49,.67,2.29,1.61,4.14,2.8,5.56l3.67-1.6c-1.1-1.29-1.95-2.93-2.54-4.92Z"/>
    <path class="cls-1" d="M46.64,1878.68c.98-.32,1.93-.74,2.83-1.26,.78-.45,1.5-.99,2.14-1.6,.94,1.05,1.74,2.22,2.38,3.48,.7,1.39,1.2,2.86,1.47,4.39l.08,.43,1.16-.29-.06-.37c-.26-1.7-.77-3.32-1.52-4.83-.7-1.4-1.53-2.74-2.47-4.01,.94-1.28,1.68-2.71,2.21-4.25,.56-1.64,.85-3.41,.85-5.26,0-3.12-.59-6.06-1.75-8.75-1.16-2.68-2.66-5.04-4.45-7.01-1.8-1.97-3.79-3.55-5.92-4.68-2.15-1.14-4.26-1.72-6.27-1.72-1.13,0-2.23,.16-3.27,.46-1.05,.31-1.98,.78-2.77,1.39-.8,.61-1.45,1.41-1.93,2.35-.48,.95-.73,2.07-.73,3.32,0,1.63,.36,3.15,1.06,4.52,.7,1.36,1.68,2.56,2.93,3.57,1.24,1,2.72,1.78,4.41,2.33,1.68,.54,3.54,.82,5.52,.82h1.77v-1.38h-2.01c-1.62,0-3.18-.23-4.66-.69-1.47-.46-2.78-1.09-3.88-1.89-1.09-.79-1.98-1.77-2.62-2.89-.64-1.11-.96-2.35-.96-3.68,0-1.06,.18-1.95,.54-2.64,.36-.69,.86-1.26,1.49-1.69,.64-.44,1.39-.75,2.23-.93,.86-.18,1.79-.27,2.76-.27,2.43,0,4.71,.55,6.78,1.65,2.08,1.1,3.91,2.58,5.44,4.4,1.53,1.82,2.74,3.94,3.6,6.28,.86,2.35,1.29,4.79,1.29,7.28,0,1.31-.22,2.77-.67,4.34-.39,1.4-1.05,2.7-1.95,3.87-1.33-1.54-2.89-2.98-4.65-4.28-1.88-1.39-3.88-2.73-5.94-3.98-2.04-1.23-4.12-2.44-6.2-3.61-2.05-1.15-3.95-2.34-5.66-3.53-1.69-1.18-3.18-2.45-4.41-3.76-1.18-1.26-1.98-2.65-2.38-4.15,.12-.77,.23-1.43,.34-1.97,.11-.56,.21-1.07,.31-1.53,.1-.47,.17-.88,.22-1.25,.12-.97,.1-1.98-.17-2.61-.2-.48-.61-.74-1.15-.74s-.96,.31-1.16,.88c-.16,.46-.23,1.07-.23,1.88,0,.64,.02,1.2,.05,1.7,.03,.5,.08,.95,.15,1.36,.06,.4,.13,.79,.21,1.19,.07,.36,.14,.75,.2,1.15-.12,.51-.23,1.01-.34,1.51-.11,.52-.21,1.1-.29,1.73-.08,.62-.14,1.31-.19,2.07-.05,.77-.07,1.65-.07,2.61,0,2.61,.52,5.23,1.56,7.78,1.03,2.54,2.47,4.85,4.26,6.87,1.8,2.02,3.96,3.68,6.43,4.92,2.48,1.25,5.19,1.88,8.07,1.88,.96,0,1.96-.07,2.98-.22,1.02-.14,2.04-.38,3.01-.7Zm-22.15-21.86c1.32,1.63,2.83,3.14,4.51,4.47,1.67,1.32,3.49,2.57,5.41,3.71,1.94,1.14,3.89,2.25,5.8,3.3,1.94,1.06,3.84,2.15,5.64,3.22,1.65,.98,3.15,2.06,4.49,3.2-.74,.59-1.63,1.03-2.67,1.31-1.23,.33-2.47,.5-3.68,.5-1.63,0-3.34-.18-5.08-.53-1.74-.35-3.45-.89-5.1-1.6-1.64-.71-3.22-1.6-4.7-2.64-1.47-1.04-2.76-2.29-3.84-3.71-1.08-1.42-1.96-3.04-2.6-4.81-.64-1.77-.96-3.75-.96-5.89,0-1.24,.03-2.37,.09-3.34,.03-.52,.08-1.03,.15-1.54,.64,1.59,1.49,3.05,2.54,4.36Z"/>
    <path class="cls-1" d="M27.24,1887.57c.66-.71,.99-1.55,.99-2.5,0-1.04-.33-1.84-.99-2.45-.66-.71-1.51-1.04-2.54-1.04-.94,0-1.79,.33-2.5,1.04-.61,.61-.94,1.41-.94,2.45,0,.94,.33,1.79,.94,2.5,.71,.66,1.55,1.04,2.5,1.04,1.04,0,1.88-.38,2.54-1.04Z"/>
  </g>
  <g>
    <path class="cls-1" d="M45.17,1273.6c-1.37,3.34-2.99,4.65-3.01,4.66l-.28,.22,.66,.88,.3-.24c.07-.06,1.73-1.4,3.21-4.81,3.28,2.63,6.18,4.38,7.3,4.38,.73,0,1.24-.48,1.24-1.17,0-2.95-2.42-6.75-6.64-10.45,.23-1.74,.34-3.46,.34-5.24,0-7.38-2.18-11.98-4-14.54-2.21-3.1-5.2-4.95-7.98-4.95-3.63,0-5.98,3.02-5.98,7.68,0,3.31,1.17,6.93,3.49,10.77-.93,.36-1.85,1.22-1.85,3.18,0,2.53,2.49,6.56,4.56,9.47-.73-.61-1.47-1.21-2.21-1.82-1-.82-1.99-1.64-2.98-2.46-2.93-12.09-12.47-24.38-18.95-24.38-1.04,0-1.79,.84-1.79,2.01,0,4.92,2.05,9.54,5.76,13.01,3.31,3.1,9.06,7.18,14.12,10.78l.06,.04c.35,1.72,.53,3.37,.53,4.9,0,.8-.06,1.69-.18,2.57l-.04,.34,1.08,.22,.05-.39c.12-.94,.19-1.86,.19-2.74,0-1.25-.12-2.59-.35-3.98,3.31,2.37,6.4,4.64,8.48,6.48l.3,.27,.23-.3,.35,.29-.29-.37,.38-.51-.75-.64c-2.07-2.42-7.43-9.44-7.43-12.78,0-1.13,.49-1.79,1.5-2,3.46,5.27,8.03,9.47,10.6,11.62Zm-27-15.78c-3.97-3.82-6.33-8.04-6.33-11.28,0-.54,.22-.65,.54-.65,5.76,0,14.36,10.98,17.5,22.11-4.56-3.76-8.58-7.14-11.71-10.18Zm35.32,19.71s0,.07-.14,.07c-.77,0-3.44-1.51-6.88-4.3,.44-1.2,.79-2.42,1.07-3.72,3.64,3.4,5.96,6.49,5.96,7.95Zm-18.19-16.97c-.13,0-.26,0-.39,0-2.31-3.79-3.48-7.33-3.48-10.53,0-4.06,1.87-6.59,4.88-6.59,4.39,0,10.88,5.84,10.88,18.39,0,1.45-.08,2.92-.23,4.38-4.23-3.45-8.75-5.66-11.65-5.66Zm.5,1.38c2.27,.31,6.49,2.95,10.79,6.78-.25,1.32-.59,2.61-1.03,3.85-2.45-2.08-6.56-5.91-9.76-10.64Z"/>
    <polygon class="cls-1" points="41.62 1306.89 41.62 1290.97 54.43 1290.97 54.43 1286.33 24.04 1286.33 24.04 1290.97 37.66 1290.97 37.66 1306.89 24.04 1306.89 24.04 1311.53 54.43 1311.53 54.43 1306.89 41.62 1306.89"/>
    <path class="cls-1" d="M49.24,1346.77c2.64-2.81,3.96-6.39,3.96-10.64,0-4.6-1.28-8.34-3.87-11.2-2.56-2.94-5.96-4.38-10.22-4.38s-7.62,1.4-10.09,4.26c-2.34,2.72-3.53,6.3-3.53,10.73s1.28,8.34,3.75,11.24c2.47,2.81,5.83,4.26,10,4.26s7.37-1.45,10-4.26Zm-18.56-3.15c-2.3-1.87-3.45-4.64-3.45-8.3,0-2.98,1.19-5.36,3.53-7.19,2.21-1.79,4.94-2.68,8.13-2.68,3.49,0,6.39,.77,8.6,2.38,2.64,1.79,3.96,4.34,3.96,7.66,0,3.49-1.28,6.22-3.87,8.13-2.21,1.66-5.11,2.51-8.6,2.51s-6.22-.85-8.3-2.51Z"/>
    <path class="cls-1" d="M39.41,1316.93c3.83,0,7.28,.51,10.35,1.53,3.11,1.02,5.83,2.55,8.13,4.6l.6-.64c-2.3-2.3-5.11-4.13-8.43-5.41-3.41-1.36-6.94-2-10.69-2s-7.24,.64-10.64,1.96c-3.32,1.32-6.17,3.15-8.47,5.45l.6,.64c2.34-2.04,5.07-3.58,8.17-4.6,3.11-1.02,6.56-1.53,10.39-1.53Z"/>
    <path class="cls-1" d="M58.48,1349.15l-.6-.64c-2.3,2-5.02,3.53-8.13,4.6-3.07,1.02-6.51,1.53-10.35,1.53s-7.28-.51-10.39-1.53c-3.11-1.06-5.83-2.6-8.17-4.6l-.6,.64c2.3,2.3,5.15,4.09,8.47,5.45,3.41,1.28,6.94,1.96,10.64,1.96s7.28-.68,10.69-2c3.32-1.32,6.13-3.11,8.43-5.41Z"/>
    <polygon class="cls-1" points="50.46 1371.99 50.46 1369.77 52.69 1369.77 52.69 1362.63 50.46 1362.63 50.46 1360.37 48.21 1360.37 48.21 1358.08 41.07 1358.08 41.07 1360.37 38.82 1360.37 38.82 1362.63 36.56 1362.63 36.56 1369.37 34.3 1369.37 34.3 1371.62 27.93 1371.62 27.93 1369.37 25.71 1369.37 25.71 1363 27.93 1363 27.93 1360.77 32.45 1360.77 32.45 1358.08 27.57 1358.08 27.57 1360.37 25.31 1360.37 25.31 1362.63 23.02 1362.63 23.02 1369.77 25.31 1369.77 25.31 1371.99 27.57 1371.99 27.57 1374.24 34.7 1374.24 34.7 1371.99 36.96 1371.99 36.96 1369.77 39.22 1369.77 39.22 1363 41.44 1363 41.44 1360.77 47.81 1360.77 47.81 1363 50.06 1363 50.06 1369.37 47.81 1369.37 47.81 1371.62 43.29 1371.62 43.29 1374.24 48.21 1374.24 48.21 1371.99 50.46 1371.99"/>
    <polygon class="cls-1" points="50.47 1375.9 50.47 1386.08 24.04 1386.08 24.04 1390.67 50.47 1390.67 50.47 1400.81 54.43 1400.81 54.43 1375.9 50.47 1375.9"/>
    <path class="cls-1" d="M30.13,1407.31c0-1.02-.26-1.83-.85-2.43-.59-.68-1.36-.98-2.34-.98-.89,0-1.66,.3-2.26,.89-.6,.59-.89,1.36-.89,2.21,0,.47,.04,.81,.13,1.06-1.02,0-2-.38-2.98-1.11-.94-.77-1.58-1.74-2-2.85h-2.64c.6,2.13,1.7,3.83,3.32,5.11,1.62,1.23,3.49,1.87,5.66,1.87,1.45,0,2.6-.34,3.53-1.02,.89-.77,1.32-1.66,1.32-2.77Z"/>
    <path class="cls-1" d="M54.43,1438.94l-30.4-11.71v4.94l7.83,2.85v13.07l-7.83,2.85v4.98l30.4-11.71v-5.28Zm-18.73-2.51l13.75,5.07v.17l-13.75,5.02v-10.26Z"/>
    <polygon class="cls-1" points="51.28 1476.99 50.43 1480.61 30.04 1480.61 53.84 1466.56 53.62 1457.62 51.28 1457.62 50.43 1461.24 27.44 1461.24 26.59 1457.62 24.04 1457.62 24.04 1469.11 26.59 1469.11 27.44 1465.07 47.49 1465.07 24.04 1479.12 24.04 1484.44 50.43 1484.44 51.28 1488.06 53.84 1488.06 53.62 1476.99 51.28 1476.99"/>
    <path class="cls-1" d="M54.43,1503.59v-11.07H24.04v10.98c0,4.9,1.36,8.6,4.09,11.15,2.64,2.43,6.34,3.66,11.11,3.66s8.51-1.19,11.07-3.58c2.77-2.55,4.13-6.26,4.13-11.15Zm-23.67,7.53c-1.83-1.79-2.77-4.64-2.77-8.47v-5.49h22.48v5.58c0,3.83-.89,6.64-2.72,8.43-1.79,1.7-4.6,2.6-8.51,2.6s-6.64-.89-8.47-2.64Z"/>
    <path class="cls-1" d="M36.13,1550.7v8.39h-6.6c-.64-1.02-1.15-2.13-1.49-3.41-.34-1.32-.55-2.72-.55-4.22,0-3.79,1.06-6.6,3.19-8.39,1.96-1.7,4.77-2.51,8.43-2.51s6.68,.89,8.81,2.77c2.04,1.75,3.02,4.09,3.02,7.02,0,2.38-.51,4.34-1.58,5.79-1.02,1.45-2.55,2.38-4.6,2.81v4.68c3.41-.55,5.92-1.92,7.62-4.09,1.79-2.26,2.64-5.32,2.64-9.2,0-4.47-1.53-8.05-4.68-10.69-2.94-2.51-6.68-3.75-11.24-3.75s-8.22,1.24-11.07,3.75c-3.07,2.68-4.6,6.43-4.6,11.28,0,2.64,.34,5.07,1.02,7.28,.68,2.09,1.62,3.92,2.85,5.49h12.77v-13.03h-3.96Z"/>
    <path class="cls-1" d="M54.96,1579.13c.58-1.14,.87-2.44,.87-3.92s-.29-2.74-.87-3.87-1.38-2.03-2.4-2.68c-1.02-.65-2.21-.98-3.57-.98s-2.48,.33-3.53,.98c-1.05,.65-1.87,1.55-2.47,2.68-.6,1.14-.89,2.44-.89,3.92s.3,2.74,.89,3.87c.59,1.13,1.42,2.02,2.47,2.66,1.05,.64,2.23,.96,3.53,.96s2.55-.32,3.57-.96c1.02-.64,1.82-1.53,2.4-2.66Zm-9.17-.53c-.82-.87-1.24-2-1.24-3.38s.42-2.48,1.26-3.36c.84-.88,1.91-1.32,3.21-1.32s2.36,.44,3.17,1.32c.81,.88,1.21,2,1.21,3.36s-.4,2.52-1.21,3.38c-.81,.86-1.88,1.3-3.21,1.3s-2.37-.43-3.19-1.3Z"/>
    <path class="cls-1" d="M54.43,1598.16v-11.07H24.04v10.98c0,4.9,1.36,8.6,4.09,11.15,2.64,2.43,6.34,3.66,11.11,3.66s8.51-1.19,11.07-3.58c2.77-2.55,4.13-6.26,4.13-11.15Zm-23.67,7.53c-1.83-1.79-2.77-4.64-2.77-8.47v-5.49h22.48v5.58c0,3.83-.89,6.64-2.72,8.43-1.79,1.7-4.6,2.6-8.51,2.6s-6.64-.89-8.47-2.64Z"/>
    <path class="cls-1" d="M29.23,1622.67c.6-.64,.89-1.41,.89-2.26,0-.94-.3-1.66-.89-2.21-.6-.64-1.36-.94-2.3-.94-.85,0-1.62,.3-2.26,.94-.55,.55-.85,1.28-.85,2.21,0,.85,.3,1.62,.85,2.26,.64,.59,1.4,.94,2.26,.94,.94,0,1.7-.34,2.3-.94Z"/>
  </g>
  <g>
    <path class="cls-1" d="M52.03,1925.43v-11.69h-1.51l-.44,4.06c-3.82,.08-7.67,.08-11.57,.08h-2.15c-3.9,0-7.71,0-11.53-.08l-.44-4.06h-1.51v12.32h1.51l.48-4.13c3.3-.08,6.44-.08,9.66-.08v2.31c0,8.79,4.02,12.21,8.87,12.21,5.17,0,8.63-3.62,8.63-10.93Zm-15.74-.8v-2.78h2.23c3.97,0,7.95,0,11.81,.08v2.78c0,5.21-2.5,7.55-6.92,7.55s-7.12-2.19-7.12-7.63Z"/>
    <polygon class="cls-1" points="37.08 1946.37 37.08 1963.22 41.2 1963.22 41.2 1946.37 50.43 1946.37 50.43 1964.29 54.55 1964.29 54.55 1941.53 22.88 1941.53 22.88 1965.04 27.01 1965.04 27.01 1946.37 37.08 1946.37"/>
    <path class="cls-1" d="M41.81,1985.36c.22-4.43-2.15-9.91-5.88-13.68-2.97-2.98-6.42-4.68-9.45-4.68-2.81,0-4.59,1.86-4.64,4.85,0,.06,0,.12,0,.18,0,3.9,2.73,8.85,6.71,12.1,2.51,2.04,5.66,3.28,7.34,3.41,.06,0,.12,.01,.17,.02,.09,.36,.49,.68,.5,.68,.49,.44,1.47,.87,2.46,.76,1.63-.14,2.68-1.5,2.79-3.64Zm-16.61-12.1c1.75,0,4.48,1.26,6.94,3.2,3.72,2.96,6.36,6.77,6.16,8.84-.03,.22-.11,.37-.25,.48-.21,.16-.56,.22-1.02,.16-2.22-.23-5.3-2.12-7.43-3.82-3.63-2.9-5.82-5.7-6.43-8.18,.22,.03,.38-.11,.46-.18,.03-.02,.06-.05,.1-.08,.42-.3,.85-.42,1.46-.42Zm14.31,12.17c.27-2.77-2.42-7.15-6.45-10.41-2.66-2.02-5.1-3-7.46-3-1.06,0-1.94,.31-2.53,.91-.01,.01-.03,.03-.04,.05-.02-.22-.02-.43-.01-.65,.09-2.01,1.41-2.43,2.5-2.43,2.48,0,5.9,1.6,8.71,4.07,2.67,2.4,6.27,7.53,6.27,11.13,0,.08,0,.16,0,.23-.04,1.33-.69,2.32-1.58,2.43-.61,.1-1.12-.08-1.44-.24,1.58-.28,1.97-1.36,2.06-2.09Z"/>
    <path class="cls-1" d="M53.15,2034.31c1.95,1.03,3.76,1.54,5.42,1.54s3.16-.38,4.32-1.14c1.16-.76,2.09-1.76,2.78-2.98,.7-1.23,1.18-2.58,1.44-4.07,.26-1.49,.4-2.97,.4-4.42,0-.8-.07-1.91-.2-3.33-.13-1.43-.3-3.05-.5-4.87-.2-1.82-.37-3.76-.5-5.81-.13-2.05-.2-4.07-.2-6.06,0-.8,.01-1.62,.05-2.48,.03-.86,.11-1.59,.25-2.19,.13-.73,.36-1.13,.7-1.19,.26-.07,.4-.17,.4-.3,0-.2-.28-.42-.84-.65-.56-.23-.91-.35-1.04-.35-.73,0-1.09,.63-1.09,1.89,0,2.12,.13,4.19,.4,6.21,.26,2.02,.43,4.09,.5,6.21,0,.33-.13,.5-.4,.5-.2,0-.56-.1-1.09-.3s-1.09-.43-1.69-.7c-.6-.26-1.18-.53-1.74-.79-.56-.27-.94-.46-1.14-.6-2.72-1.46-5.78-3.15-9.19-5.07-3.41-1.92-6.51-3.71-9.29-5.37-2.32-1.39-4.77-2.85-7.35-4.37-2.58-1.52-4.9-2.75-6.96-3.68-.8-.33-1.39-.5-1.79-.5-.53,0-.95,.2-1.24,.6-.3,.4-.53,.86-.7,1.39-.17,.53-.28,1.08-.35,1.64-.07,.56-.1,.98-.1,1.24,0,1.46,.07,2.93,.2,4.42,.13,1.49,.3,2.83,.5,4.03,.07,.33,.2,.5,.4,.5s.3-.36,.3-1.09c0-2.12,.25-3.71,.75-4.77s1.38-1.59,2.63-1.59c.93,0,2.12,.36,3.58,1.09,2.19,1.13,4.77,2.52,7.75,4.17,2.98,1.66,6.05,3.38,9.19,5.17,3.15,1.79,6.19,3.56,9.14,5.32,2.95,1.75,5.48,3.26,7.6,4.52,.86,.46,1.42,1.13,1.69,1.99,.33,1.32,.5,2.81,.5,4.47,0,2.38-.5,4.42-1.49,6.11-.99,1.69-2.88,2.54-5.67,2.54-1.99,0-3.97-.45-5.96-1.34-1.99-.89-3.78-2.12-5.37-3.68s-2.88-3.41-3.88-5.57c-.99-2.15-1.49-4.49-1.49-7.01,0-.8,.07-1.64,.2-2.54s.26-1.51,.4-1.84c0-.27-.13-.4-.4-.4-.13,0-.27,.1-.4,.3-.46,1.26-.7,2.72-.7,4.37,0,3.51,.55,6.64,1.64,9.39,1.09,2.75,2.48,5.08,4.17,7.01,1.69,1.92,3.51,3.4,5.47,4.42Z"/>
    <path class="cls-1" d="M53.23,2068.54c.9,0,1.44-.47,1.44-1.26,0-3.23-6.01-8.06-8.86-10.17,1.82-4.99,2.75-9.74,2.75-14.15,0-10.74-5.75-17.15-11.31-17.15-3.57,0-7.74,2.96-7.74,11.31,0,4.18,1,8.36,2.99,12.45-1.12-.62-2.09-1.24-2.94-1.9-.42-1.05-.91-2.06-1.43-2.94l-.13-.21-1.13,.14,.3,.5c.17,.28,.33,.58,.49,.88-1.08-1.06-1.98-2.21-2.68-3.43,.85-1.55,1.47-3,1.88-4.41,.34-1.21,.55-2.83,.55-4.33,0-1.24-.16-5.29-2.18-5.29-3.2,0-3.64,9.43-3.64,9.53,0,2.15,.46,4.03,1.42,5.72-.29,.5-.6,.99-.9,1.49-2.19,3.62-4.47,7.35-4.47,11.56,0,5.84,3.46,8.5,6.68,8.5,4.3,0,6.87-3.48,6.87-9.32,0-1.89-.29-3.94-.83-5.98,.96,.49,2.01,.97,3.18,1.44,5.98,10.58,16.6,17,19.69,17Zm-8.89-10.82c-.07,.19-.14,.39-.22,.58l-.14,.36,1.09,.44,.36-.93c5.08,3.79,8.1,7.19,8.1,9.18h0s-.06,.06-.29,.06c-2.66,0-12.22-5.86-17.99-15.18,.03,.01,.07,.03,.1,.04l.46,.17c2.07,.77,5.44,2.72,8.64,5.01-.04,.09-.07,.18-.1,.28Zm-13.67-20.6c0-7.5,3.55-10.16,6.6-10.16,5,0,10.16,5.99,10.16,16.01,0,4.12-.87,8.63-2.59,13.43-3.21-2.27-6.55-4.24-8.6-5.06-.66-.27-1.35-.56-2.01-.88-2.36-4.37-3.56-8.85-3.56-13.33Zm-11.87,19.77c0-4.02,2.18-7.59,4.29-11.04,.2-.33,.4-.65,.6-.98,1.2,1.66,2.96,3.15,5.35,4.52,.73,2.25,1.11,4.57,1.11,6.72,0,2.45-.57,8.13-5.82,8.13-2.67,0-5.54-2.3-5.54-7.36Zm7.58-23.14c0,1.42-.19,2.9-.52,4.07-.33,1.11-.82,2.3-1.49,3.6-.75-1.69-1.13-3.53-1.13-5.47,0-2.17,.69-6.22,2.01-6.22,.56,0,1.13,1.5,1.13,4.02Z"/>
    <polygon class="cls-1" points="37.08 2075.21 37.08 2092.06 41.2 2092.06 41.2 2075.21 50.43 2075.21 50.43 2093.13 54.55 2093.13 54.55 2070.37 22.88 2070.37 22.88 2093.88 27.01 2093.88 27.01 2075.21 37.08 2075.21"/>
    <path class="cls-1" d="M28.3,2104.08c.62-.67,.93-1.46,.93-2.35,0-.98-.31-1.73-.93-2.31-.62-.67-1.42-.98-2.4-.98-.89,0-1.69,.31-2.35,.98-.58,.58-.89,1.33-.89,2.31,0,.89,.31,1.69,.89,2.35,.66,.62,1.46,.98,2.35,.98,.98,0,1.77-.36,2.4-.98Z"/>
  </g>
</svg>