<?xml version="1.0" encoding="UTF-8"?>
<svg id="_圖層_3" data-name="圖層 3" xmlns="http://www.w3.org/2000/svg" viewBox="0 0 64.54 4144.41">
  <defs>
    <style>
      .cls-1 {
        fill: #a7a7ff;
      }
    </style>
  </defs>
  <g>
    <path class="cls-1" d="M58.56,58.63l-31.26-12.04c2.18-.49,4.21-1.47,6.06-2.97,2.95,2.24,5.97,3.42,8.78,3.42,4.16,0,4.78-2.55,4.78-4.06,0-3.93-2.54-8.55-6.49-11.82,.22-1.11,.36-2.22,.42-3.32v-.16c1.19,.78,2.41,1.67,3.68,2.65,4.03,7.86,9.28,17.26,14.33,20.44,1.24,.77,2.25,1.16,3,1.16,1.01,0,1.63-.68,1.63-1.77,0-.86-.37-2-1.06-3.29-1.57-2.92-9.11-11.37-16.95-17.5l-.56-1.1c-.74-1.45-1.41-2.75-2.02-4.03,4.66,2.54,9.06,3.98,12.23,3.98s4.01-1.89,4.02-3.49c2.42-.4,3.75-2.11,3.75-4.85,0-8.42-9.62-17-19.06-17-2.17,0-4.16,.47-5.92,1.39l-.39,.2,.58,1.15,.4-.2c1.6-.8,3.39-1.2,5.33-1.2,8.77,0,17.71,7.9,17.71,15.66,0,2-.84,3.18-2.51,3.51-1.04-6.69-9.41-12.83-12.97-12.83-.82,0-2.19,.32-2.19,2.46,0,4.03,5.41,11.72,13.92,11.83-.05,1.38-.93,2.05-2.67,2.05-2.75,0-7.21-1.87-13.63-5.71C38.03,13.2,32.25,0,26.66,0c-1.22,0-1.92,.88-1.92,2.41,0,8.02,8.69,16.12,16.18,20.66,.72,1.57,1.49,3.09,2.25,4.57-3.94-2.81-8.98-5.69-13.16-5.69-3.66,0-5.81,1.76-6.07,4.96-6.06,1.29-9.95,5.58-9.95,11.01,0,5.86,5.22,9.02,10.13,9.02,.88,0,1.75-.08,2.59-.23v4.81l8.21,2.99v13.7l-8.21,2.99v5.22l31.86-12.27v-5.53ZM26.66,1.35c4.56,0,9.98,11.9,12.78,18.41-5.52-4.26-13.31-13.49-13.31-17.79,0-.57,.25-.62,.53-.62ZM15.33,37.93c0-5.09,4.25-8.66,8.6-9.69,.31,4.51,3.78,10.55,8.36,14.5-2.42,1.9-5.17,2.86-8.17,2.86-4.26,0-8.79-2.69-8.79-7.67Zm18.03,3.89c-4.44-3.76-7.9-9.63-8.12-13.8,.47-.05,.95-.08,1.41-.08,3.53,0,7.84,1.93,11.87,5.3-1.05,3.4-2.87,6.43-5.16,8.58Zm6.27-7.62c3.5,3.2,5.9,6.82,5.9,8.95,0,1.09-.35,2.54-3.39,2.54-2.41,0-5.07-1.04-7.72-3.02,2.27-2.2,4.06-5.1,5.21-8.47Zm-.13-6.42c-.06,.93-.14,1.73-.26,2.45-3.37-2.41-7.37-3.68-11.6-3.68-.83,0-1.59,.05-2.32,.14,.37-2.22,1.99-3.35,4.82-3.35,2.67,0,6.16,1.37,10.23,4.01h-.84l-.03,.42Zm22.36,22.78c-.26,0-.88-.11-2.13-.87-3.42-2.03-7.58-7.7-12.7-17.31,7.18,6.06,13.23,13.17,14.3,15.31,.7,1.4,.85,2.13,.85,2.5s-.11,.38-.31,.38ZM46.07,11.88c3.21,0,10.68,5.74,11.63,11.59-5.35-.27-12.47-8.06-12.47-10.83,0-.66,.53-.75,.84-.75Zm-7.14,44.12l14.41,5.31v.18l-14.41,5.27v-10.75Z"/>
    <polygon class="cls-1" points="49.01 97.62 43.43 97.62 43.43 103.19 49.01 103.19 54.59 103.19 54.59 97.62 49.01 97.62"/>
    <polygon class="cls-1" points="43.43 86.46 49.01 86.46 54.59 86.46 54.59 92.04 54.59 97.62 60.16 97.62 60.16 92.04 60.16 86.46 60.16 80.89 54.59 80.89 49.01 80.89 43.43 80.89 37.86 80.89 32.28 80.89 26.7 80.89 26.7 86.46 32.28 86.46 37.86 86.46 37.86 92.04 37.86 97.62 43.43 97.62 43.43 92.04 43.43 86.46"/>
    <path class="cls-1" d="M58.56,125.1v-13.21H26.7v4.86h12.4v8.25c0,7.63,3.26,11.47,9.77,11.47s9.68-3.79,9.68-11.38Zm-13.97,4.86c-.89-1.11-1.34-2.86-1.34-5.26v-7.94h11.15v7.94c0,2.36-.45,4.1-1.34,5.22-.8,1.12-2.23,1.7-4.19,1.7s-3.39-.58-4.28-1.65Z"/>
    <polygon class="cls-1" points="44.37 148.66 58.46 142.14 58.46 137.2 39.77 146.46 26.7 146.46 26.7 150.86 39.77 150.86 58.46 160.12 58.46 155.19 44.37 148.66"/>
    <path class="cls-1" d="M33.08,166.28c0-1.07-.27-1.92-.89-2.54-.62-.71-1.43-1.03-2.45-1.03-.94,0-1.74,.31-2.36,.94s-.94,1.43-.94,2.32c0,.49,.04,.85,.13,1.11-1.07,0-2.1-.4-3.12-1.16-.98-.8-1.65-1.83-2.1-2.99h-2.77c.63,2.23,1.79,4.02,3.48,5.35,1.69,1.29,3.66,1.96,5.93,1.96,1.52,0,2.72-.36,3.7-1.07,.94-.8,1.38-1.74,1.38-2.9Z"/>
    <path class="cls-1" d="M42.1,210.53c.76-1.25,1.78-4.06,3.12-8.34,.89-2.99,1.56-4.82,1.96-5.53,.85-1.61,1.96-2.37,3.39-2.37,1.61,0,2.77,.67,3.48,2.05,.62,1.12,.94,2.72,.94,4.82,0,2.41-.45,4.19-1.38,5.44-.89,1.25-2.41,2.05-4.46,2.5v4.82c3.48-.31,6.02-1.56,7.67-3.79,1.61-2.1,2.37-5,2.37-8.7,0-3.39-.76-6.2-2.28-8.43-1.61-2.37-3.79-3.53-6.6-3.53s-4.91,1.21-6.38,3.66c-.54,.98-1.38,3.39-2.63,7.32-1.07,3.53-1.78,5.62-2.14,6.34-1.03,2.01-2.41,3.03-4.19,3.03-1.43,0-2.54-.71-3.35-2.14-.8-1.43-1.25-3.35-1.25-5.76,0-2.68,.49-4.64,1.47-5.93,1.07-1.43,2.9-2.32,5.4-2.68v-4.82c-4.02,.27-6.96,1.7-8.83,4.33-1.52,2.19-2.32,5.22-2.32,9.1s.8,7.14,2.41,9.37c1.65,2.23,3.88,3.35,6.74,3.35s5.22-1.38,6.87-4.11Z"/>
    <path class="cls-1" d="M45.31,234.31v-2.72h8.25v-2.77h8.25v-3.26h-8.25v-2.72h-8.25v-2.77h-11.06v-2.81h-8.79v3.3h8.34v13.29h-8.34v3.21h8.79v-2.77h11.06Zm-8.3-3.21v-7.81h7.81v2.77h8.25v2.27h-8.25v2.77h-7.81Z"/>
    <polygon class="cls-1" points="54.41 238.99 54.41 249.66 26.7 249.66 26.7 254.48 54.41 254.48 54.41 265.09 58.56 265.09 58.56 238.99 54.41 238.99"/>
    <rect class="cls-1" x="26.7" y="269.02" width="31.86" height="4.82"/>
    <path class="cls-1" d="M63.19,321.67c0-1.25-.67-2.79-1.98-4.59-2.08-2.84-5.88-5.74-12.3-9.36,.45-2.53,.69-5.01,.69-7.37,0-14.2-8.52-21.76-14.68-21.76-3.48,0-7.21,2.32-7.21,8.83,0,2.8,1.23,6.7,3.5,11.15-2.32-1.24-4.52-2.48-6.57-3.68-3.39-15.71-15.58-25.3-21.15-25.3-3.04,0-3.5,1.95-3.5,3.11,0,11.91,11.04,18.85,23.07,24.54,.21,1.23,.36,2.55,.45,4.02l.04,.7h1.98l-.05-.8c-.07-1.05-.16-2.02-.27-2.93,1.28,.59,2.56,1.16,3.81,1.72,1.34,.6,2.65,1.19,3.91,1.77,6.69,11.42,18.03,22.9,26.89,22.9,2.04,0,3.35-1.15,3.35-2.94Zm-27.04-18.42c4.59,2.26,7.73,3.84,10.55,5.38l-.38,1.81,1.95,.36,.25-1.17c5.63,3.21,9.17,5.96,11.1,8.59,1.18,1.62,1.59,2.87,1.59,3.44,0,.66-.46,.99-1.37,.99-7.51,0-17.26-9.44-23.69-19.41Zm-6.46-15.85c0-4.31,1.95-6.88,5.23-6.88,5.32,0,12.7,6.89,12.7,19.82,0,2.09-.18,4.23-.55,6.37-2.38-1.29-4.87-2.54-7.49-3.86l-5.31-2.7c-2.92-5.11-4.59-9.75-4.59-12.75Zm-27.72-14.73c0-.57,.12-1.17,1.52-1.17,4.05,0,14.96,7.45,18.78,21.93-13.29-8.19-20.3-15.35-20.3-20.76Z"/>
    <polygon class="cls-1" points="26.7 326 26.7 330.86 40.98 330.86 40.98 346.7 45.13 346.7 45.13 330.86 54.41 330.86 54.41 347.64 58.56 347.64 58.56 326 26.7 326"/>
    <polygon class="cls-1" points="55.26 350.8 54.37 354.59 30.27 354.59 29.38 350.8 26.7 350.8 26.7 363.07 29.38 363.07 30.27 359.28 54.37 359.28 55.26 363.07 57.94 363.07 57.71 350.8 55.26 350.8"/>
    <polygon class="cls-1" points="40.98 373.06 40.98 390.02 45.13 390.02 45.13 373.06 54.41 373.06 54.41 391.09 58.56 391.09 58.56 368.2 26.7 368.2 26.7 391.85 30.85 391.85 30.85 373.06 40.98 373.06"/>
    <path class="cls-1" d="M64.54,415.98c0-6.02-2.1-11.15-6.38-15.39-4.24-4.28-9.37-6.38-15.39-6.38s-11.11,2.1-15.39,6.38-6.38,9.37-6.38,15.39,2.14,11.11,6.38,15.39c4.28,4.24,9.41,6.38,15.39,6.38s11.16-2.14,15.39-6.38c4.28-4.28,6.38-9.41,6.38-15.39Zm-35.79,14.01c-3.84-3.93-5.76-8.57-5.76-14.01s1.92-10.13,5.76-14.01c3.93-3.84,8.57-5.76,14.01-5.76s10.13,1.92,14.01,5.76c3.84,3.88,5.76,8.57,5.76,14.01s-1.92,10.08-5.76,14.01c-3.88,3.84-8.57,5.76-14.01,5.76s-10.08-1.92-14.01-5.76Z"/>
    <path class="cls-1" d="M57.62,416.65v-11.02H27.68v10.93c0,4.86,1.34,8.57,4.02,11.11,2.63,2.41,6.29,3.61,10.98,3.61s8.34-1.21,10.89-3.57c2.72-2.5,4.06-6.2,4.06-11.07Zm-23.16,7.23c-1.74-1.7-2.63-4.42-2.63-8.17v-5.26h21.64v5.35c0,3.75-.85,6.47-2.59,8.17-1.69,1.65-4.46,2.5-8.21,2.5s-6.43-.89-8.21-2.59Z"/>
    <path class="cls-1" d="M32.15,446.72c.62-.67,.94-1.47,.94-2.37,0-.98-.31-1.74-.94-2.32-.62-.67-1.43-.98-2.41-.98-.89,0-1.7,.31-2.36,.98-.58,.58-.89,1.34-.89,2.32,0,.89,.31,1.7,.89,2.37,.67,.62,1.47,.98,2.36,.98,.98,0,1.79-.36,2.41-.98Z"/>
  </g>
  <g>
    <path class="cls-1" d="M29.3,721.56v16.96h4.15v-16.96h9.28v18.03h4.15v-18.38c.77,2.06,1.92,3.29,3.03,3.29,.48,0,2.06-.28,2.06-3.91s-1.02-7.19-3.13-10.46c.31-.71,.66-1.47,1.04-2.26,1.4-2.99,2.99-6.38,2.99-9.23,0-1.27-.23-2.59-.67-3.94,1.34-.5,2.1-1.74,2.1-3.47,0-1.4-.69-3.1-1.84-4.56-3.53-4.48-11.75-6.97-12.09-7.07l-.47-.14-.27,1.33,.4,.12c.08,.02,8.03,2.4,11.38,6.59,1,1.26,1.55,2.58,1.55,3.74,0,1.52-.66,1.97-1.28,2.11-1.54-3.55-4.63-7.02-8.27-7.02-1.15,0-1.83,.7-1.83,1.88,0,4.91,5.69,6.74,9.28,6.74h0c.43,1.26,.66,2.54,.66,3.7,0,2.32-1.49,5.57-2.81,8.44-.27,.59-.54,1.17-.78,1.72-3.65-4.92-9.39-8.91-14.48-12.45l-1.16-.83c.35-1.53,.73-2.97,1.09-4.36,1.12-4.24,2.18-8.24,2.18-14.12,0-9.91-7.45-17.32-14.1-17.32-4.3,0-8.93,3.73-8.93,11.92,0,12.44,8.13,17.82,16.73,23.51,.3,.2,.6,.39,.9,.59,.22,.14,.44,.29,.66,.43-.2,1.08-.4,2.27-.49,3.43l-1.87-1.27-.47,.95,2.29,2.01c.02,2.26,.43,4.38,1.28,6.65l.16,.43,1.28-.51-.15-.41c-.64-1.74-1.02-3.33-1.16-4.91l2.27,2.02,.09-2.45-2.41-1.63c.03-1.06,.15-2.21,.38-3.48l.65,.45c5.19,3.6,11.02,7.85,14.56,12.98-.84,2.16-1.24,3.86-1.24,5.34,0,.32,.03,.62,.05,.93H15.02v23.65h4.15v-18.79h10.13Zm21.32-.97c0,1.67-.42,2.27-.71,2.27-.75,0-2.58-2.48-2.58-7.09,0-1.05,.27-2.3,.83-3.89,1.66,2.84,2.46,5.7,2.46,8.71Zm-7.22-32.93c2.46,0,5.19,2.31,6.81,5.71-4.2-.44-7.2-3.9-7.2-5.4,0-.13,0-.31,.4-.31Zm-21.95-26.59c7.9,0,12.76,9.3,12.76,15.97,0,5.44-1,9.32-2.05,13.43-.35,1.35-.7,2.73-1.02,4.19-9.95-7.68-16.6-17.69-16.6-25.07,0-4.13,2.42-8.52,6.91-8.52Z"/>
    <path class="cls-1" d="M49.47,764.32c-.37-1.16-.91-2.41-1.6-3.71-.68-1.29-1.49-2.58-2.4-3.84-3.04-4.23-5.79-6.28-8.4-6.28-.84,0-2.13,.23-2.98,1.47-1.71-3.08-3.57-5.55-5.54-7.35-2.43-2.22-4.93-3.34-7.44-3.34-1.56,0-2.95,.43-4.12,1.28-1.16,.84-2.05,2.04-2.64,3.57-.57,1.47-.86,3.22-.86,5.19,0,1.77,.28,3.75,.84,5.89,.55,2.12,1.36,4.31,2.4,6.51l.19,.41,5.34,1.08-.9-1.68c-1.17-2.19-2.13-4.17-2.84-5.86-.71-1.68-1.24-3.23-1.59-4.59-.8-3.16-.7-5.64,.6-7.24,.7-.86,1.58-1.28,2.7-1.28,2.47,0,5.23,2.04,8.19,6.05,1.85,2.51,3.33,5.05,4.41,7.54l.19,.43,3.17,.64v-1.5c.06-1.41,.2-1.99,.27-2.17,.12-.3,.33-.55,.63-.77,.29-.2,.57-.3,.88-.3,.81,0,1.8,.44,2.95,1.31,1.22,.93,2.4,2.22,3.5,3.83,.84,1.21,1.52,2.45,2.02,3.67,.48,1.18,.72,2.16,.72,2.92,0,1.19-.46,1.19-.86,1.19-1.03,0-2.97-.65-6.37-3.74l-.61-.55-2.76,2.52,.64,.67c.9,.94,1.93,1.8,3.04,2.56,1.12,.77,2.22,1.36,3.26,1.76,1.08,.42,2.08,.63,2.95,.63,1.08,0,1.96-.35,2.62-1.03,1.19-1.23,1.24-3.29,.4-5.92Z"/>
    <polygon class="cls-1" points="46.88 781.43 46.88 776.61 15.02 776.61 15.02 798.96 19.17 798.96 19.17 781.43 46.88 781.43"/>
    <polygon class="cls-1" points="23.19 839.21 23.19 839.03 46.88 822.74 46.88 817.83 15.02 817.83 15.02 822.7 38.98 822.7 38.98 822.87 15.02 839.34 15.02 844.07 46.88 844.07 46.88 839.21 23.19 839.21"/>
    <path class="cls-1" d="M47.93,872.4c1.06-1.71,1.6-3.71,1.6-5.94,0-2.39-.64-4.77-1.92-7.06-1.26-2.27-3-4.33-5.16-6.1-2.16-1.77-4.66-3.2-7.42-4.25-2.77-1.05-5.64-1.58-8.51-1.58-1.79,0-3.47,.26-5,.79-1.54,.53-2.87,1.3-3.95,2.3-1.09,1-1.93,2.22-2.52,3.62-.58,1.4-.88,2.93-.88,4.57,0,1.84,.34,3.66,1,5.41,.66,1.74,1.66,3.4,2.97,4.96,1.3,1.54,2.88,2.95,4.69,4.17,2.11,1.42,4.41,2.55,6.82,3.34,2.42,.79,4.85,1.19,7.23,1.19s4.66-.47,6.57-1.41c1.92-.94,3.43-2.29,4.49-4Zm-27.38-20.11c1.5-.66,3.3-.99,5.35-.99,2.21,0,4.65,.35,7.26,1.03,2.61,.68,4.87,1.57,6.73,2.63,1.67,.94,3.11,2.02,4.27,3.2,1.15,1.17,2.04,2.44,2.63,3.77,.59,1.32,.89,2.67,.89,4.01s-.22,2.43-.66,3.41c-.44,.97-1.07,1.81-1.89,2.49-.83,.69-1.85,1.23-3.05,1.6-1.22,.38-2.61,.57-4.13,.57-1.96,0-4.15-.27-6.51-.8-2.36-.54-4.41-1.2-6.09-1.98-1.88-.88-3.56-1.97-4.98-3.24-1.41-1.26-2.52-2.67-3.29-4.16-1.57-3.05-1.5-6.35,.05-8.7,.8-1.21,1.95-2.15,3.42-2.8Z"/>
    <path class="cls-1" d="M51.92,916.57c-6.6,3.39-13.56,5.13-20.84,5.13s-14.19-1.74-20.84-5.13v2.28c6.6,3.3,13.56,4.95,20.84,4.95s14.23-1.65,20.84-4.95v-2.28Z"/>
    <polygon class="cls-1" points="42.73 888.99 42.73 899.61 15.02 899.61 15.02 904.47 42.73 904.47 42.73 915.09 46.88 915.09 46.88 888.99 42.73 888.99"/>
    <path class="cls-1" d="M51.92,885.2c-6.6-3.3-13.52-4.95-20.84-4.95s-14.23,1.65-20.84,4.95v2.28c6.65-3.44,13.61-5.13,20.84-5.13s14.23,1.7,20.84,5.13v-2.28Z"/>
    <path class="cls-1" d="M46.61,937.98l-.22,2.59c-4.28,.09-8.61,.09-12.94,.09v-8.12c4.33,0,8.66,0,12.89,.09l.27,2.59h1.79v-9.28h-1.79l-.22,2.32c-4.46,.09-8.92,.09-13.48,.09h-2.36c-4.46,0-9.01,0-13.48-.09l-.22-2.32h-1.83v9.28h1.83l.27-2.59c4.33-.09,8.92-.09,14.37-.09v8.12c-5.44,0-10.04,0-14.41-.09l-.22-2.59h-1.83v9.28h1.83l.22-2.32c4.46-.09,9.01-.09,13.48-.09h2.36c4.55,0,9.01,0,13.48,.09l.22,2.32h1.79v-9.28h-1.79Z"/>
    <rect class="cls-1" x="15.02" y="952.07" width="31.86" height="4.82"/>
    <polygon class="cls-1" points="23.19 985.71 23.19 985.53 46.88 969.25 46.88 964.34 15.02 964.34 15.02 969.2 38.98 969.2 38.98 969.38 15.02 985.85 15.02 990.58 46.88 990.58 46.88 985.71 23.19 985.71"/>
    <path class="cls-1" d="M28.69,1013.47l-.43,5.68c-2.84,.07-5.81,.11-8.66,.11h-1.56c-.92-1.94-1.34-4.04-1.34-6.74,0-7.46,5.53-12.09,14.42-12.09s14.47,4.7,14.47,12.27c0,2.78-.42,4.73-1.44,6.6l-6.63,1.04v3.55l8.32-.21,.26-.42c1.94-3.18,2.81-6.54,2.81-10.92,0-10.3-7.14-17.22-17.78-17.22s-17.78,6.87-17.78,17.09c0,3.92,.52,7.38,3.07,11.56l.26,.43h2.84c3.36,0,6.22,.04,8.81,.07l.39,4.07h3.14v-14.88h-3.16Z"/>
    <path class="cls-1" d="M20.47,1041.28c.62-.67,.94-1.47,.94-2.36,0-.98-.31-1.74-.94-2.32-.62-.67-1.43-.98-2.41-.98-.89,0-1.7,.31-2.36,.98-.58,.58-.89,1.34-.89,2.32,0,.89,.31,1.7,.89,2.36,.67,.62,1.47,.98,2.36,.98,.98,0,1.79-.36,2.41-.98Z"/>
  </g>
  <g>
    <polygon class="cls-1" points="15.26 1074.58 15.26 1080.24 30.75 1080.24 30.75 1099.12 35.88 1099.12 35.88 1080.24 48.43 1080.24 48.43 1101.42 53.57 1101.42 53.57 1074.58 15.26 1074.58"/>
    <path class="cls-1" d="M50.6,1125.85c-.37-1.16-.91-2.41-1.6-3.71-.68-1.29-1.49-2.58-2.4-3.84-3.04-4.23-5.79-6.28-8.4-6.28-.84,0-2.13,.23-2.98,1.47-1.71-3.08-3.57-5.55-5.54-7.35-2.43-2.22-4.93-3.34-7.44-3.34-1.56,0-2.95,.43-4.12,1.28-1.16,.84-2.05,2.04-2.64,3.57-.57,1.47-.86,3.22-.86,5.19,0,1.77,.28,3.75,.84,5.89,.55,2.12,1.36,4.31,2.4,6.51l.19,.41,5.34,1.08-.9-1.68c-1.17-2.19-2.13-4.17-2.84-5.86-.71-1.68-1.24-3.23-1.59-4.59-.79-3.16-.7-5.64,.6-7.24,.7-.86,1.58-1.28,2.7-1.28,2.47,0,5.23,2.04,8.19,6.05,1.85,2.51,3.33,5.05,4.41,7.54l.19,.43,3.17,.64v-1.5c.06-1.41,.2-1.99,.27-2.17,.12-.3,.33-.55,.63-.77,.29-.2,.57-.3,.88-.3,.81,0,1.8,.44,2.95,1.31,1.22,.93,2.4,2.22,3.5,3.83,.84,1.21,1.52,2.45,2.02,3.67,.48,1.18,.72,2.16,.72,2.92,0,1.19-.46,1.19-.86,1.19-1.03,0-2.97-.65-6.37-3.74l-.61-.55-2.76,2.52,.64,.67c.9,.94,1.93,1.8,3.04,2.56,1.12,.77,2.22,1.36,3.26,1.76,1.08,.42,2.08,.63,2.95,.63,1.08,0,1.96-.35,2.62-1.03,1.19-1.24,1.24-3.29,.4-5.92Z"/>
    <path class="cls-1" d="M55.91,1144.88c0-1.38-.23-2.76-.67-4.11-.45-1.36-1.06-2.54-1.82-3.49l-.51-.64-2.9,1.89,.67,.78c.55,.64,.98,1.43,1.29,2.36s.48,1.99,.48,3.11c0,1.44-.29,2.5-.87,3.16-.56,.64-1.43,.95-2.66,.95h-.3v-4.94c0-2.65-.5-4.51-1.52-5.7-1.04-1.21-2.34-1.83-3.86-1.83-1.67,0-3.05,.67-4.1,1.98-.99,1.25-1.5,3.01-1.5,5.23,0,1.9,.39,3.5,1.14,4.77,.14,.23,.28,.44,.43,.65h-1.42v3.73h11.07c2.32,0,4.1-.71,5.3-2.11,1.16-1.36,1.75-3.3,1.75-5.77Zm-14.97-.83c0-1.33,.23-2.35,.7-3,.4-.58,.92-.84,1.64-.84,.62,0,1.1,.24,1.5,.77,.31,.4,.67,1.28,.67,3.18v4.73h-1.87c-.83-.41-1.46-.97-1.91-1.71-.48-.79-.73-1.84-.73-3.13Z"/>
    <path class="cls-1" d="M44.14,1215.98c.19-1.85,.18-3.44-.06-5.21,.49,.06,.95,.09,1.39,.09,3.8,0,6.5-1.83,7.64-5.17,4.27-.47,6.81-3.56,6.81-8.32,0-7.54-6.83-19.01-19.64-20.96l-.42-.06-.26,1.31,.47,.07c12.09,1.83,18.53,12.58,18.53,19.64,0,3.85-1.85,6.34-5.1,6.92,.17-.86,.26-1.76,.26-2.68,0-9-8.19-17.47-14.53-17.47-3.28,0-4.77,3.12-4.77,6.02,0,7.63,10.89,15.38,17.19,15.6-1.06,2.44-3.23,3.77-6.16,3.77-.53,0-1.07-.04-1.61-.13-1.39-6.57-5.91-11.1-10.92-15.48,.67-.49,1.09-1.17,1.09-1.81,0-.71-.5-1.53-1.92-1.53-.68,0-1.38,.34-1.95,.93-3.37-2.93-12.07-10.81-12.07-20.22,0-7.01,2.61-11.04,7.15-11.04,5.31,0,11.04,5.9,11.04,15.44,0,4.99-2.14,7.1-4.34,7.48,.81-2.3,1.23-4.59,1.23-6.83,0-7.04-4.21-12.5-7.84-12.5-3.28,0-4.64,4.6-4.64,7.06,0,6.05,5.08,12.45,9.29,13.51-.49,1.09-1.06,2.17-1.71,3.23l-.21,.35,1.06,.8,.26-.41c.78-1.23,1.45-2.51,2.01-3.81,2.91-.09,6.23-2.46,6.23-8.87,0-10.36-6.42-16.77-12.37-16.77-4.62,0-9.39,5.21-9.39,13.92,0,9.29,5.14,13.26,10.59,17.46,.97,.75,1.97,1.52,2.95,2.33-.08,.17-.14,.33-.2,.5-1.04-.23-1.96-.47-2.88-.72-4.09-1.15-8.4-2.22-12.21-2.22-5.93,0-9.48,4.8-9.48,9.43,0,3.75,2.4,8.14,9.17,8.14s12.67-4.57,14.09-11.11l.1-.45-1.32-.26-.09,.44c-1.23,5.92-6.49,10.05-12.78,10.05-5.79,0-7.84-3.67-7.84-6.81,0-3.98,3.05-8.1,8.14-8.1,3.58,0,7.67,1.04,11.22,2.01,1.19,.33,2.42,.66,3.63,.92,0,.13-.01,.27-.01,.42,0,7.92,7.09,14.23,13.77,15.67,.27,1.83,.29,3.46,.1,5.36l-.05,.49h1.34l.04-.4Zm-12.02-24.08c.34,0,.59,.09,.59,.2,0,.26-.28,.64-.79,.92l-.76-.66c.35-.33,.72-.46,.96-.46Zm-.47,2.6c4.88,4.17,9.34,8.45,10.79,14.62-5.97-1.55-12.16-7.25-12.16-14.26,0-.07,0-.14,0-.21,.07,0,.14,0,.2,0,.4,0,.79-.05,1.17-.16Zm4.76-5.56c0-1.59,.48-3.48,2.79-3.48,6.67,0,13.2,9.24,13.2,16.13,0,1.03-.11,1.98-.33,2.83-.06,0-.11,0-.17,0-5.47,0-15.49-9.1-15.49-15.49Zm-4.57-12.61c0,2.18-.44,4.46-1.32,6.77-3.16-.96-7.67-7.99-7.67-13.47,0-1.66,.52-4.47,2.49-4.47,2.59,0,6.5,4.45,6.5,11.17Z"/>
    <path class="cls-1" d="M20.57,1210.55c-.31-.45-.72-.81-1.21-1.08-.51-.28-1.08-.42-1.7-.42-1.68,0-2.68,1-2.68,2.68,0,.85,.35,1.61,1.03,2.21,.65,.58,1.44,.88,2.34,.88,.78,0,1.43-.25,1.94-.73,.89-.85,1.08-2.4,.28-3.55Z"/>
  </g>
  <g>
    <path class="cls-1" d="M31.56,1272.57c.74-1.39,1.35-2.92,1.82-4.56,.45-1.59,.88-3.2,1.26-4.81,.37-1.56,.8-3.01,1.27-4.31,.44-1.2,1.04-2.17,1.81-2.89,.7-.66,1.63-.98,2.83-.98,1.08,0,2.01,.28,2.86,.86,.84,.57,1.53,1.5,2.05,2.76,.54,1.31,.82,3.02,.82,5.08,0,1.54-.23,3.17-.7,4.84-.46,1.66-1.19,3.25-2.18,4.72l-.6,.9,4.75,2.01,.42-.6c1.06-1.53,1.9-3.38,2.5-5.48,.59-2.09,.9-4.22,.9-6.35,0-3.21-.49-5.9-1.47-8-.99-2.13-2.33-3.74-3.99-4.79-1.65-1.04-3.49-1.57-5.46-1.57-2.12,0-3.88,.46-5.23,1.38-1.31,.89-2.38,2.09-3.18,3.55-.76,1.39-1.37,2.94-1.83,4.6-.44,1.61-.85,3.22-1.23,4.83-.37,1.56-.81,2.99-1.3,4.27-.45,1.19-1.07,2.15-1.84,2.87-.7,.66-1.63,.98-2.83,.98-1,0-1.89-.28-2.72-.86-.82-.57-1.49-1.51-2-2.78-.53-1.33-.8-3.11-.8-5.28,0-2.28,.41-4.48,1.22-6.53,.8-2.05,1.8-3.7,2.96-4.89l.85-.88-4.64-2.36-.46,.45c-1.48,1.45-2.71,3.5-3.64,6.11-.92,2.57-1.38,5.3-1.38,8.1,0,3.25,.49,5.96,1.46,8.07,.99,2.15,2.33,3.78,3.98,4.84,1.65,1.06,3.48,1.6,5.42,1.6,2.09,0,3.82-.47,5.15-1.39,1.3-.9,2.35-2.09,3.13-3.55Z"/>
    <path class="cls-1" d="M21.38,1310.17c-1.19-1.29-2.14-3-2.83-5.09-.7-2.12-1.05-4.45-1.05-6.92,0-3.58,.61-6.25,1.81-7.93,1.15-1.61,2.6-2.39,4.43-2.39,1.33,0,2.38,.33,3.21,1.02,.85,.7,1.5,1.71,1.94,3.01,.45,1.36,.68,2.97,.68,4.78v10.13h5.14v-9.98c0-2.43,.5-4.3,1.48-5.58,.94-1.22,2.26-1.81,4.03-1.81s3.09,.74,4.24,2.25c1.19,1.57,1.8,4.02,1.8,7.28,0,1.83-.21,3.61-.63,5.29-.41,1.67-1.07,3.28-1.96,4.79l-.53,.91,4.76,1.86,.39-.64c.98-1.61,1.75-3.52,2.27-5.68,.52-2.15,.78-4.4,.78-6.68,0-3.24-.48-6-1.43-8.21-.97-2.25-2.3-3.97-3.94-5.11-1.66-1.14-3.51-1.72-5.49-1.72s-3.61,.45-5.1,1.32c-1.22,.72-2.23,1.69-3.02,2.89-.79-1.68-1.9-3.06-3.32-4.1-1.52-1.12-3.4-1.69-5.57-1.69s-4.08,.63-5.77,1.87c-1.68,1.23-3,3.03-3.93,5.38-.91,2.29-1.37,5.17-1.37,8.57,0,3.07,.41,5.93,1.21,8.51,.82,2.63,2,4.76,3.52,6.35l.46,.48,4.59-2.29-.81-.88Z"/>
    <path class="cls-1" d="M50.14,1343.06v-7.37c0-.42-.34-.76-.76-.76h-11.97c-.6,0-1.08-.49-1.08-1.08v-7.37c0-.6,.49-1.08,1.08-1.08h11.97c.42,0,.76-.34,.76-.76v-7.37c0-.42-.34-.76-.76-.76h-11.97c-.42,0-.76,.34-.76,.76v7.37c0,.6-.49,1.08-1.08,1.08h-2.76c-.42,0-.76,.34-.76,.76v7.37c0,.42,.34,.76,.76,.76h2.76c.6,0,1.08,.49,1.08,1.08v7.37c0,.42,.34,.76,.76,.76h11.97c.42,0,.76-.34,.76-.76Z"/>
    <path class="cls-1" d="M27.12,1343.06v-7.37c0-.6,.49-1.08,1.08-1.08h2.76c.42,0,.76-.34,.76-.76v-7.37c0-.42-.34-.76-.76-.76h-2.76c-.6,0-1.08-.49-1.08-1.08v-7.37c0-.42-.34-.76-.76-.76H14.39c-.42,0-.76,.34-.76,.76v7.37c0,.42,.34,.76,.76,.76h11.97c.6,0,1.08,.49,1.08,1.08v7.37c0,.6-.49,1.08-1.08,1.08H14.39c-.42,0-.76,.34-.76,.76v7.37c0,.42,.34,.76,.76,.76h11.97c.42,0,.76-.34,.76-.76Z"/>
    <path class="cls-1" d="M25.27,1368.83c-3.06,0-5.26-.49-6.62-1.46-1.36-.98-2.04-2.51-2.04-4.6,0-4.16,2.87-6.24,8.61-6.24h24.35v-4.18H24.84c-7.93,0-11.89,3.47-11.89,10.42,0,3.45,.96,6.01,2.88,7.7,1.92,1.69,4.96,2.53,9.12,2.53h24.63v-4.18H25.27Z"/>
    <path class="cls-1" d="M51.61,1395.4c1.22-1.41,1.83-3.44,1.83-6.01,0-1.45-.23-2.87-.67-4.24-.45-1.38-1.06-2.58-1.81-3.56l-.49-.64-3.4,2.04,.65,.8c.52,.64,.94,1.44,1.25,2.36,.32,.93,.47,1.93,.47,2.97,0,1.37-.27,2.39-.8,3.02-.49,.58-1.28,.87-2.4,.88v-4.58c0-2.59-.48-4.47-1.47-5.74-1.03-1.32-2.42-1.99-4.13-1.99s-3.11,.68-4.15,2.02c-.99,1.27-1.5,3.05-1.5,5.3,0,1.59,.27,2.98,.81,4.14,.18,.39,.38,.74,.6,1.07h-1.26v4.35h10.91c2.42,0,4.28-.74,5.53-2.19h0Zm-10.8-10.28c.53,0,.91,.21,1.23,.69,.26,.4,.58,1.23,.58,2.94v4.26h-1.55c-1.57-.8-2.33-2.25-2.33-4.42,0-1.2,.21-2.12,.63-2.73,.36-.52,.8-.75,1.45-.75Z"/>
    <path class="cls-1" d="M47.95,1430.77c.89-1.43,.98-3.4,.03-5.31-.43-.87-1.05-1.71-1.85-2.5-.78-.78-1.69-1.48-2.7-2.07-1.06-.63-2.32-1.18-3.75-1.65-1.4-.46-3.37-.96-5.85-1.49l-8.51-1.81c-1.67-.35-2.99-.68-3.93-.98-.68-.22-1.35-.5-1.99-.83,1.37-5.05,1.37-9.46,.04-11.99-.95-1.81-2.3-2.19-3.27-2.19-.91,0-2.19,.34-3.15,1.95-.68,1.15-1.03,2.65-1.03,4.47,0,1.53,.3,3.08,.89,4.6,.53,1.36,1.25,2.58,2.17,3.63-.28,.99-.58,1.98-.9,2.98-.46,1.46-.82,2.65-1.07,3.56-.25,.93-.47,1.88-.64,2.82-.23,1.34-.34,2.38-.34,3.18,0,.42,.05,.91,.14,1.45l.08,.47,4.47,1.98-.31-1.68c-.18-.94-.27-1.8-.27-2.53,0-1.06,.18-2.35,.52-3.83,.33-1.42,.88-3.29,1.62-5.57,.83,.54,1.75,1.01,2.74,1.4,1.38,.54,3.25,1.07,5.57,1.57l10.62,2.27c1.75,.38,3.01,.69,3.76,.92,.72,.22,1.44,.51,2.14,.86,2,1.01,2.97,2.18,2.97,3.58,0,.7-.27,.99-.47,1.15-.38,.3-.97,.45-1.76,.45-.97,0-2.2-.23-3.64-.67-1.47-.46-2.86-1.03-4.13-1.72l-1.58-.85,.7,4.63,.44,.2c1.16,.53,2.45,.97,3.83,1.3,1.41,.34,2.55,.51,3.5,.51,1.07,0,2.03-.18,2.87-.55,.89-.39,1.58-.97,2.06-1.74Zm-31.92-19.42c-.35-.48-.64-1.01-.89-1.58-.93-2.17-.88-4.8-.1-6.28,.3-.56,.61-.84,.92-.84,.92,0,1.11,1.6,1.11,2.95s-.35,3.28-1.06,5.76Z"/>
    <path class="cls-1" d="M46.83,1464.43c-1.25-1.68-2.97-3.35-5.11-4.94-.81-.6-1.64-1.16-2.51-1.69,.29,.03,.59,.05,.89,.08,2.51,.2,4.36,.31,5.5,.31h2.11l-2.1-4.63-.61,.03c-.4,.02-.85,.03-1.36,.03-2.25,0-4.73-.16-7.39-.49-2.66-.33-5.26-.76-7.72-1.3l-15.79-3.42v4.26l9.59,2.08-.1,.48c-.13,.65-.2,1.23-.2,1.73,0,2.1,.59,4.23,1.75,6.35,1.14,2.08,2.72,4.01,4.69,5.74,1.96,1.73,4.14,3.11,6.48,4.11,2.36,1.01,4.75,1.52,7.1,1.52,1.98,0,3.59-.47,4.81-1.39,2.5-1.91,2.68-5.21-.04-8.87Zm-22.52-9.25l1.78,.39c2.54,.56,4.81,1.22,6.73,1.94,1.9,.71,3.69,1.61,5.33,2.68,2.31,1.48,4.16,3,5.5,4.52,1.25,1.42,1.88,2.64,1.88,3.63,0,.55-.24,.94-.76,1.26-.65,.4-1.62,.6-2.87,.6-1.62,0-3.58-.36-5.83-1.06-2.26-.7-4.17-1.56-5.67-2.54-1.6-1.05-2.86-2.24-3.73-3.55-1.36-2.05-1.52-4.1-.9-6.01l.2-.61-1.66-1.24Z"/>
    <polygon class="cls-1" points="48.79 1482.25 48.79 1477.69 13.63 1477.69 13.63 1497.28 17.46 1497.28 17.46 1482.25 48.79 1482.25"/>
    <path class="cls-1" d="M16.04,1540.67c2.58,.11,5.36,.55,8.25,1.33l1.13,.3v-2.74l-.6-.21c-2.51-.9-4.19-1.75-4.99-2.5-.97-.97-1.46-2.49-1.46-4.53v-11.58c0-.7,.13-1.13,.25-1.3,0,0,.15-.15,.89-.15h11.78v10.16c0,.69-.12,1.24-.39,1.62-.13,.22-.34,.46-.93,.64l-4.62,1.28v2.3l.93-.03c2.9-.1,4.94-.16,6.07-.16,.62,0,1.6,0,2.94,.05l1.62,.06c.76,.03,1.32,.05,1.65,.05h.9v-2.7l-3.45-.6c-.57-.11-1.02-.3-1.32-.56-.15-.29-.34-.88-.34-1.94v-10.16h10.73c1.29,0,1.29,.46,1.29,.87v11.68c0,.77-.16,1.36-.53,1.85-.31,.47-.8,.83-1.52,1.13l-3.64,1.48v2.24l.96-.06c1.64-.1,2.68-.1,3.18-.1,.88,0,2.16,.05,3.8,.15l.98,.06-.02-.98c-.1-4.41-.16-8.4-.16-11.87,0-4.01,.05-8.94,.16-14.64l.02-.92h-2.48l-.63,4.51c-.02,.18-.07,.71-1.51,.71H19.06c-.43,0-.64-.09-.61-.02-.06-.09-.21-.39-.32-1.16l-.45-4.25h-2.5v.91c.12,7.01,.17,11.89,.17,14.9,0,6.97-.05,11.66-.16,13.94l-.04,.9,.9,.04Z"/>
    <path class="cls-1" d="M19.86,1504.84c3.8-1.28,8.01-1.94,12.49-1.94s8.74,.63,12.54,1.94c3.96,1.34,7.15,3.15,9.75,5.55l.63,.59,1.81-1.81-.61-.64c-2.86-2.97-6.46-5.27-10.7-6.84-4.27-1.66-8.66-2.46-13.42-2.46s-9.2,.83-13.41,2.46c-4.2,1.59-7.77,3.9-10.6,6.84l-.61,.64,1.81,1.81,.64-.59c2.58-2.39,5.76-4.2,9.69-5.55Z"/>
    <path class="cls-1" d="M45.77,1549.48c4.39-1.68,7.89-3.92,10.71-6.84l.61-.64-1.8-1.8-.63,.57c-2.65,2.39-5.93,4.26-9.75,5.55-3.91,1.29-8.13,1.94-12.55,1.94s-8.54-.65-12.49-1.93c-3.8-1.3-7.06-3.17-9.7-5.55l-.63-.57-1.8,1.8,.61,.64c2.75,2.86,6.32,5.16,10.61,6.84,4.35,1.63,8.86,2.46,13.41,2.46s9-.8,13.41-2.46h0Z"/>
    <path class="cls-1" d="M58.81,1626.63l-.54-1.55c-2.06-5.88-14.99-17.19-22.72-23.95-.84-.73-1.6-1.4-2.28-2-8.44-7.43-18.3-20.39-18.3-32.46,0-6.21,2.98-12.9,9.51-12.9,7.17,0,17.54,9.2,17.54,25.83,0,6.74-2.4,10.76-6.43,10.76-.13,0-.26,0-.38-.01,1.28-3.51,1.92-7.06,1.92-10.54,0-10.99-6.58-19.85-12.02-19.85-4.39,0-6.03,6.51-6.03,10.62,0,9.79,7.53,19.06,14.23,20.88-.48,1.18-1.04,2.36-1.66,3.51l-.22,.41,1.22,.61,.21-.38c.72-1.34,1.32-2.61,1.84-3.88,.27,.04,.57,.05,.89,.05,4.92,0,7.85-4.63,7.85-12.39,0-11.05-6.75-27.04-18.96-27.04-9.59,0-12.13,11.41-12.13,17.45,0,12.41,10.13,22.34,20.03,30.43,5.98,4.92,17.36,14.89,22.18,21.1-3.67-2.76-11.68-8.75-22.03-16.36-1.16-6.2-5.9-9.45-10.03-9.45-.9,0-1.7,.14-2.4,.43l-6.86-4.98v3.32l.21,.13c1.62,1,3.21,2.01,4.73,3-.65,.9-.98,2.11-.98,3.55,0,4.57,3.13,8.61,5.48,11.25l2.57,2.92,1.14-.85-2.61-2.97c-2.23-2.54-5.21-6.38-5.21-10.34,0-1.18,.27-2.12,.8-2.8,4.12,2.66,8.12,5.31,11.89,7.88,.08,.63,.12,1.3,.12,2.01v.45h1.42v-.45c0-.33-.01-.65-.03-.97,15.51,10.71,24.7,18.39,24.79,18.47l1.25,1.05Zm-33.71-65.23c4.27,0,10.6,7.74,10.6,18.42,0,3.33-.63,6.77-1.86,10.24-5.63-1.91-12.52-11.83-12.52-20.82,0-2.93,.49-7.84,3.77-7.84Zm-2.61,35.56c3.06,0,6.77,2.12,8.24,6.73-2.89-2.11-5.95-4.35-9.14-6.66,.3-.05,.6-.07,.9-.07Z"/>
    <path class="cls-1" d="M27.12,1643.35v-2.76c0-.6,.49-1.08,1.08-1.08h7.37c.42,0,.76-.34,.76-.76v-2.76c0-.42-.34-.76-.76-.76h-7.37c-.42,0-.76,.34-.76,.76v2.76c0,.6-.49,1.08-1.08,1.08h-2.76c-.6,0-1.08-.49-1.08-1.08v-11.97c0-.42-.34-.76-.76-.76h-7.37c-.42,0-.76,.34-.76,.76v16.58c0,.42,.34,.76,.76,.76h11.97c.42,0,.76-.34,.76-.76Z"/>
    <path class="cls-1" d="M49.38,1626.02h-11.97c-.42,0-.76,.34-.76,.76v2.76c0,.6-.49,1.08-1.08,1.08h-7.37c-.42,0-.76,.34-.76,.76v2.76c0,.42,.34,.76,.76,.76h7.37c.42,0,.76-.34,.76-.76v-2.76c0-.6,.49-1.08,1.08-1.08h2.76c.6,0,1.08,.49,1.08,1.08v11.97c0,.42,.34,.76,.76,.76h7.37c.42,0,.76-.34,.76-.76v-16.58c0-.42-.34-.76-.76-.76Z"/>
    <path class="cls-1" d="M28.65,1673.16c-1.27,0-2.64-.12-4.08-.35-1.39-.22-2.69-.67-3.88-1.33-1.15-.64-2.11-1.55-2.86-2.73-.74-1.15-1.11-2.73-1.11-4.7s.37-3.55,1.11-4.7c.75-1.17,1.71-2.09,2.86-2.72,1.19-.66,2.49-1.11,3.88-1.33,1.44-.23,2.81-.35,4.08-.35h22.81v-5.24H27.77c-2.05,0-4.03,.24-5.9,.71-1.92,.48-3.64,1.29-5.13,2.43-1.5,1.14-2.71,2.65-3.6,4.5-.89,1.84-1.34,4.1-1.34,6.73s.45,4.89,1.34,6.73c.89,1.84,2.11,3.35,3.6,4.5,1.48,1.13,3.21,1.95,5.13,2.43,1.87,.47,3.86,.7,5.9,.7h23.69v-5.24H28.65Z"/>
    <path class="cls-1" d="M15.5,1773.01v-9.68c4.42-.09,9.06-.09,14.19-.09v6.34l-4.33,.49v1.87h10.62v-1.87l-4.37-.49v-6.34c4.77,0,9.19,0,13.52,.09v8.88l-6.16,.94v2.54l8.03-.45v-19.59h-1.79l-.22,3.08c-4.46,.13-8.97,.13-13.48,.13h-2.36c-.76,0-1.51,0-2.27,0l.16-.12-3.8-4.28c-11.16-12.56-18.1-29.74-18.1-44.84s6.9-24.28,18.44-24.28c16.22,0,35.81,21.23,35.81,47.59,0,11.49-4.25,18.08-11.67,18.08-2.07,0-4.27-.5-6.57-1.49,2.95-5.22,4.44-10.92,4.44-16.96,0-13.77-8.64-23.37-16.38-23.37-4.22,0-8.72,3.17-8.72,12.06,0,13.54,8.84,24.45,17.36,29.22-1.06,1.58-2.22,3.05-3.52,4.49l-.67,.73,1.86,1.4,.55-.6c1.47-1.61,2.74-3.24,3.87-4.96,2.73,1.21,5.34,1.82,7.77,1.82,4.21,0,13.99-1.99,13.99-20.4,0-27.65-20.86-49.91-38.13-49.91-12.81,0-20.76,10.19-20.76,26.6s7.19,33.51,18.76,46.48l2.46,2.75c-2.81-.01-5.61-.04-8.36-.12l-.22-3.08h-1.83v20.44l7.99,.45v-2.59l-6.11-.94Zm7.32-51.76c0-6.1,2.39-9.74,6.4-9.74,5.87,0,14.06,8.01,14.06,21.05,0,5.66-1.42,11.01-4.21,15.93-7.97-4.38-16.25-14.56-16.25-27.24Z"/>
    <path class="cls-1" d="M18.92,1786.2c1.37-1.42,1.37-3.75,0-5.16-.69-.72-1.6-1.08-2.68-1.08s-1.93,.36-2.66,1.06c-.74,.71-1.11,1.59-1.11,2.6s.37,1.89,1.11,2.6c.73,.7,1.62,1.06,2.66,1.06s1.99-.36,2.68-1.08Z"/>
  </g>
  <g>
    <path class="cls-1" d="M48.48,1846.01c1.61-3.06,2.42-6.65,2.42-10.67v-15.77H12.59v15.77c0,4.02,.82,7.61,2.43,10.67,1.62,3.07,3.9,5.5,6.78,7.21,2.88,1.71,6.22,2.58,9.95,2.58s7.08-.87,9.95-2.58c2.88-1.71,5.16-4.14,6.78-7.21Zm-2.71-20.77v9.9c0,3.07-.61,5.76-1.8,8-1.19,2.22-2.84,3.97-4.91,5.21-2.07,1.23-4.54,1.86-7.31,1.86s-5.2-.63-7.29-1.86c-2.09-1.23-3.75-2.98-4.93-5.2-1.19-2.24-1.8-4.93-1.8-8v-9.9h28.04Z"/>
    <polygon class="cls-1" points="45.77 1859.89 45.77 1867.3 17.73 1867.3 17.73 1859.89 12.59 1859.89 12.59 1880.26 17.73 1880.26 17.73 1872.91 45.77 1872.91 45.77 1880.26 50.9 1880.26 50.9 1859.89 45.77 1859.89"/>
    <path class="cls-1" d="M57.27,1951.21c0-8.39-19.31-19.5-24.78-21.89l-.05-.02c-1.15-1.97-2.14-3.81-3.03-5.61,.18,.02,.37,.03,.55,.03,4.2,0,8.69-3.79,8.69-14.42s-6.39-17.38-12.6-19.05c2.09-4.09,5.47-6.42,9.33-6.42,7.54,0,15.56,8.39,15.56,23.95,0,6.65-.44,16.29-4.27,23.14l-.23,.41,1.22,.61,.21-.37c4.02-7.17,4.49-17.01,4.49-23.79,0-12.47-6.35-25.37-16.98-25.37-4.55,0-8.47,2.75-10.8,7.55-.5-.06-.97-.09-1.4-.09-8.71,0-11.87,10.65-11.87,17.81,0,12.03,10.79,18.52,20.24,22.82,7.87,13.05,17.93,22.52,23.96,22.52,1.1,0,1.75-.67,1.75-1.81Zm-1.75,.38c-5.23,0-14.4-8.52-21.69-20.02,7.08,3.58,22.02,12.91,22.02,19.64,0,.36-.14,.38-.33,.38Zm-18.28-42.3c0,9.59-3.75,13-7.27,13-.28,0-.54-.02-.8-.05,1.98-2.82,3.02-6.07,3.02-9.45,0-9.41-4.12-15.64-8.12-16.34,.3-1.77,.77-3.4,1.39-4.88,5.77,1.38,11.77,7.95,11.77,17.73Zm-9.3,14.51c.73,1.51,1.53,3.04,2.39,4.57l-.59-.25c-1.36-.59-2.68-1.34-3.93-2.21l.3-.27c.73-.66,1.32-1.25,1.83-1.83Zm-4.35-21.24c0-1.76,.09-3.31,.27-4.72,3.02,.53,6.91,5.75,6.91,14.94,0,3.07-.85,5.88-2.54,8.36-3.04-6.76-4.64-13.17-4.64-18.58Zm-1.42,0c0,5.5,1.61,12.02,4.66,18.9-4.48-2.45-7.2-10.1-7.2-16.34,0-2.42,.38-6.41,2.8-7.2-.17,1.42-.26,2.94-.26,4.65Zm1.84-11.25c-.61,1.53-1.06,3.25-1.37,5.11-4.21,.74-5.17,8.05-5.17,10.62,0,6.7,3.37,12.94,8.38,15.52,.29,.14,.59,.29,.9,.42-.45,.5-.96,1-1.57,1.55l-.31,.28,.69,.92c-6.8-4.87-11.68-13.52-11.68-21.51,0-6.45,2.88-12.95,9.3-12.95,.29,0,.56,.01,.82,.03Z"/>
    <path class="cls-1" d="M48.12,1976.28c0,.59,.43,1.1,1.3,1.5l1.09,.48,3.74,1.71c1.14-3.23,1.71-6.34,1.71-9.35,0-5.94-2.11-10.9-6.34-14.87-4.23-3.97-9.49-5.96-15.78-5.96-4.26,0-7.69,1.07-10.28,3.22-2.6,2.15-3.89,4.98-3.89,8.49,0,3.72,1.33,7.49,3.99,11.33l-4.41-.5c-4.11-.47-6.94-1.25-8.48-2.33-1.54-1.08-2.31-2.83-2.31-5.28,0-3.24,1.5-5.64,4.51-7.19l-3.01-3.79c-2.45,1.98-3.67,4.76-3.67,8.32,0,3.87,1.46,7.19,4.38,9.98,1.44,1.39,3.02,2.39,4.72,3s4.28,1.11,7.73,1.5l10.24,1.13c.7,.08,1.52,.24,2.47,.46l1.6,.41,1.04,.25v-6.77l-.03-2.57c0-2.09-.22-3.51-.66-4.27-.44-.76-1.53-1.56-3.26-2.41,.58,1.77,.87,4.12,.87,7.05v4.33l-9.18-1.05c-2.31-2.74-3.46-5.57-3.46-8.49,0-3.18,1.13-5.66,3.38-7.45,2.25-1.79,5.39-2.68,9.41-2.68,5.48,0,9.87,1.27,13.18,3.82,3.31,2.55,4.97,5.94,4.97,10.17,0,2.02-.42,3.8-1.27,5.32-.84,1.52-1.83,2.28-2.97,2.28-.34,0-.77-.12-1.29-.36-.05,.24-.08,.42-.08,.53Z"/>
    <path class="cls-1" d="M46.19,2005.69l-.05,.84c-.22,3.5-.63,4.06-5.88,4.06h-13.72c-4.3,0-6.04-.25-7.81-1.71-1.73-1.5-2.77-4.21-2.77-7.25,0-2.58,.7-4.61,2.09-6.05,1.78-1.82,3.84-2.02,7.81-2.02h16.27c3.35,0,3.67,.11,4.01,3.93l.07,.82h2.71v-16.56h-2.72l-.06,.83c-.29,3.76-.56,3.86-3.49,3.86H26.48c-5.8,0-9.74,1.5-12.04,4.58-1.74,2.3-2.58,5.38-2.58,9.41,0,5.05,1.38,8.82,4.11,11.21,2.91,2.57,6.04,3.04,11.13,3.04h13.3c4.79,0,5.38,.42,5.73,4.09l.08,.81h2.71v-13.9h-2.74Z"/>
    <path class="cls-1" d="M26.98,2040.14v-2.76c0-.6,.49-1.08,1.08-1.08h7.37c.42,0,.76-.34,.76-.76v-2.76c0-.42-.34-.76-.76-.76h-7.37c-.42,0-.76,.34-.76,.76v2.76c0,.6-.49,1.08-1.08,1.08h-2.76c-.6,0-1.08-.49-1.08-1.08v-11.97c0-.42-.34-.76-.76-.76h-7.37c-.42,0-.76,.34-.76,.76v16.58c0,.42,.34,.76,.76,.76h11.97c.42,0,.76-.34,.76-.76Z"/>
    <path class="cls-1" d="M36.52,2023.57v2.76c0,.6-.49,1.08-1.08,1.08h-7.37c-.42,0-.76,.34-.76,.76v2.76c0,.42,.34,.76,.76,.76h7.37c.42,0,.76-.34,.76-.76v-2.76c0-.6,.49-1.08,1.08-1.08h2.76c.6,0,1.08,.49,1.08,1.08v11.97c0,.42,.34,.76,.76,.76h7.37c.42,0,.76-.34,.76-.76v-16.58c0-.42-.34-.76-.76-.76h-11.97c-.42,0-.76,.34-.76,.76Z"/>
    <path class="cls-1" d="M58.62,2070.22c0-7.29-2.6-13.56-7.72-18.63-5.07-5.13-11.34-7.73-18.64-7.73s-13.51,2.6-18.63,7.72c-5.12,5.12-7.72,11.39-7.72,18.63s2.6,13.45,7.73,18.64c5.18,5.12,11.44,7.72,18.63,7.72s13.51-2.6,18.63-7.72,7.72-11.39,7.72-18.63Zm-49.81,0c0-6.43,2.32-12.01,6.88-16.58,4.63-4.63,10.05-6.88,16.58-6.88s11.99,2.25,16.57,6.88h0c.88,.88,1.68,1.78,2.39,2.72-.43-.27-.96-.37-1.2-.42l-6.69-1.45c-1.01-.27-1.59-.29-1.74-.29-.86,0-1.32,.61-1.32,1.21s.5,1.16,1.7,1.8c2.42,1.21,3.23,1.89,3.47,2.13,.64,.64,.94,1.61,.94,3.07v5.83H20.27c-.99,0-1.29-.14-1.29-.14-.2-.15-.39-.56-.54-1.18l-.98-4.79h-2.47l.06,.95c.14,2.29,.21,4.61,.21,6.88,0,2.52-.07,4.8-.21,6.98l-.06,.96h2.46l1.03-4.68c.2-.75,.38-.92,.36-.91,.07-.04,.42-.19,1.37-.19h26.17v5.83c0,1.59-.23,2.65-.62,3.12-.2,.2-.9,.73-2.92,1.22-1.58,.39-2.61,.72-2.61,1.65,0,.45,.25,1.21,1.88,1.21l7.63,.1c.22,0,.41-.02,.58-.06-.46,.54-.95,1.07-1.48,1.6-4.57,4.57-10.14,6.88-16.58,6.88s-11.96-2.32-16.57-6.88c-4.57-4.62-6.89-10.2-6.89-16.58Zm41.24,12.21c-.21-.09-.6-.75-.6-2.62v-18.83c0-1.05,.15-1.3,.19-1.38,.08-.14,.37-.41,.93-.68h.03c.69-.39,1.3-.78,1.3-1.48,0-.07,0-.13-.01-.19,2.58,3.76,3.85,8.05,3.85,12.97s-1.4,9.6-4.26,13.53c-.1-.88-1.14-1.22-1.42-1.31Z"/>
    <path class="cls-1" d="M18.78,2105.56c1.38-1.42,1.37-3.75,0-5.16-.69-.72-1.6-1.08-2.68-1.08s-1.93,.36-2.66,1.06c-.74,.71-1.11,1.59-1.11,2.6s.37,1.89,1.11,2.6c.73,.7,1.62,1.06,2.66,1.06s1.98-.36,2.68-1.08Z"/>
  </g>
  <g>
    <path class="cls-1" d="M62.41,2157.78l-38.31-17.51v6l9.75,4.37v19.21l-9.75,4.37v6.05l38.31-17.51v-4.96Zm-23.63-4.94l16.54,7.4-16.54,7.4v-14.8Z"/>
    <path class="cls-1" d="M62.72,2202.12c0-3.38-.75-6.34-2.22-8.78-.6-1-1.35-1.9-2.24-2.68h4.14v-5.5H24.09v5.66h21.66c4.04,0,7.04,.95,8.91,2.84,1.87,1.88,2.82,4.49,2.82,7.74s-.88,5.59-2.68,7.37c-1.78,1.75-4.53,2.64-8.16,2.64H24.09v5.66h22.65c5.12,0,9.11-1.35,11.84-4.01,2.74-2.67,4.13-6.34,4.13-10.92Z"/>
    <path class="cls-1" d="M62.69,2316.82c0-5.3-2.39-11.58-7.12-18.66-3.48-5.25-7.01-9.17-11.11-12.31,.44-3.3,2.21-10.3,9.43-10.3,4.59,0,8.05,3.87,8.05,8.99,0,3.67-1.84,6.4-4.7,6.97-.08,.02-.16,.03-.23,.04-.17,.02-.61,.08-.61,.51,0,.55,.62,.55,.92,.55,4.1,0,6.24-4.08,6.24-8.12,0-5.63-3.72-11.72-9.73-11.72-8.08,0-10.19,7.89-10.74,12.05-4.69-3.37-8.87-5.11-12.76-5.32-1.94-.1-3.5,.41-4.65,1.5-1.21,1.15-1.87,2.94-1.87,5.05,0,3.1,1.7,6.3,3.45,8.75-3.43-2.64-8.51-6.86-12.78-11.66-4.53-5.08-12.14-15.79-12.14-30.48,0-9.76,2.64-17.68,7.44-22.32,3.36-3.25,7.7-4.8,12.9-4.62,11.61,.42,18.55,12.06,18.55,23.07,0,9.94-5.87,15.3-11.39,15.3-6.07,0-11.39-5.49-11.39-11.76,0-1.25,.15-2.37,.45-3.31,.06-.21,.14-.36,.19-.47,.24-.51,.05-.74-.22-.87-.61-.2-1.01,.7-1.07,.85-.47,.94-.73,2.32-.73,3.9,0,7.27,5.11,15.05,12.71,15.05,8.79,0,13.39-9.36,13.39-18.6,0-15.7-10.6-24.52-20.57-24.86-5.56-.19-10.21,1.48-13.79,4.95-6.83,6.6-7.85,17.6-7.85,23.56,0,15.08,5.51,24.46,11.46,32.35,4.85,6.43,13.66,13.11,20.09,17.98,1.04,.79,2.03,1.54,2.91,2.21,.28,.26,.54,.51,.78,.74,1.01,.96,1.73,1.65,2.68,2.06,.67,.29,1.21,.32,1.59,.09,.2-.12,.46-.38,.5-.9,.08-1.01-.7-2.1-2.17-3.15-3.31-2.36-5.05-4.07-7.46-6.42-3.04-2.94-6.12-7.75-6.12-11.26,0-1.18,.28-2.02,.87-2.56,.71-.66,1.93-.92,3.71-.8,4.76,.34,8.92,3.16,13.1,6.3,.17,6.95,1.44,12.56,4.36,19.3,2.86,6.54,7.71,13.57,11.57,13.57,2.64,0,3.84-2.72,3.84-5.25Zm-14.17-8.95c-2.66-5.92-4-11.54-4.21-17.61,3.45,2.72,6.38,5.7,9.4,9.57,3.27,4.14,7.62,10.39,7.62,16.83,0,1.67-.83,2.52-2.47,2.52-3.65,0-7.92-5.86-10.33-11.31h0Z"/>
    <path class="cls-1" d="M37.24,2351.14c1.06,2.38,2.61,4.24,4.61,5.53,2,1.29,4.4,1.94,7.14,1.94s5.24-.65,7.24-1.94c2-1.29,3.55-3.15,4.61-5.53,1.04-2.33,1.56-5.14,1.56-8.35v-14.57H24.09v5.66h11.58v8.91c0,.87,.04,1.71,.12,2.51l-11.69,8.29v6.44l12.99-9.26c.05,.12,.1,.24,.16,.36Zm11.75,1.81c-2.63,0-4.61-.83-6.04-2.52-1.45-1.72-2.19-4.32-2.19-7.74v-8.8h16.51v8.8c0,3.42-.74,6.02-2.19,7.74-1.44,1.7-3.43,2.52-6.09,2.52Z"/>
    <rect class="cls-1" x="41.86" y="2384.52" width="5.62" height="5.62"/>
    <rect class="cls-1" x="47.48" y="2390.14" width="5.62" height="5.62"/>
    <rect class="cls-1" x="53.1" y="2395.76" width="5.62" height="5.62"/>
    <rect class="cls-1" x="19.37" y="2378.9" width="22.48" height="5.62"/>
    <rect class="cls-1" x="41.86" y="2373.28" width="5.62" height="5.62"/>
    <rect class="cls-1" x="53.1" y="2362.04" width="5.62" height="5.62"/>
    <rect class="cls-1" x="47.48" y="2367.66" width="5.62" height="5.62"/>
    <path class="cls-1" d="M30.28,2416.11c1.38-1.42,1.37-3.75,0-5.16-.69-.72-1.6-1.08-2.68-1.08s-1.93,.36-2.66,1.06c-.74,.71-1.11,1.59-1.11,2.6s.37,1.89,1.11,2.6c.73,.7,1.62,1.06,2.66,1.06s1.98-.36,2.68-1.08Z"/>
  </g>
  <g>
    <path class="cls-1" d="M51.54,538.19c.94,0,1.53-.6,1.53-1.57,0-6.98-16.03-16.22-20.57-18.21h-.02c-.92-1.58-1.72-3.06-2.43-4.5,.11,0,.22,.01,.33,.01,3.52,0,7.27-3.16,7.27-12.02s-5.26-14.39-10.4-15.83c1.72-3.3,4.47-5.19,7.62-5.19,6.21,0,12.81,6.93,12.81,19.76,0,8.63-1.15,14.88-3.53,19.13l-.23,.41,1.15,.58,.21-.37c3.34-5.95,3.73-14.12,3.73-19.74,0-10.37-5.29-21.09-14.14-21.09-3.79,0-7.05,2.27-8.99,6.25-.4-.05-.77-.07-1.12-.07-7.27,0-9.91,8.87-9.91,14.83,0,10,8.94,15.39,16.79,18.97,6.53,10.83,14.89,18.67,19.9,18.67Zm0-1.33c-4.27,0-11.75-6.92-17.75-16.31,5.94,3.05,17.94,10.62,17.94,16.07,0,.24-.07,.24-.2,.24Zm-15.22-34.97c0,7.88-3.07,10.69-5.94,10.69-.18,0-.36-.01-.52-.03,1.6-2.32,2.44-4.99,2.44-7.77,0-7.77-3.39-12.94-6.71-13.6,.24-1.4,.62-2.71,1.11-3.89,4.73,1.17,9.63,6.57,9.63,14.59Zm-7.65,12.16c.56,1.15,1.17,2.32,1.82,3.49l-.28-.12c-1.09-.48-2.15-1.07-3.16-1.77l.18-.16c.57-.51,1.04-.98,1.45-1.44Zm-3.5-17.73c0-1.42,.07-2.68,.22-3.82,2.46,.51,5.58,4.8,5.58,12.28,0,2.48-.68,4.75-2.01,6.77-2.48-5.55-3.78-10.8-3.78-15.23Zm-1.33,0c0,4.51,1.3,9.84,3.77,15.47-3.56-2.13-5.72-8.3-5.72-13.35,0-1.94,.3-5.12,2.15-5.85-.13,1.14-.2,2.37-.2,3.73Zm1.49-9.25c-.48,1.23-.84,2.61-1.09,4.1-3.49,.67-4.29,6.72-4.29,8.86,0,5.58,2.81,10.77,6.99,12.93,.21,.1,.43,.21,.65,.31-.35,.39-.75,.78-1.22,1.2l-.31,.27,.3,.4c-5.39-4.07-9.22-11.02-9.22-17.44,0-3.96,1.61-10.65,7.63-10.65,.2,0,.39,0,.57,.02Z"/>
    <rect class="cls-1" x="27.48" y="533.18" width="4.45" height="2.16"/>
    <rect class="cls-1" x="45.39" y="542.03" width="4.45" height="2.29"/>
    <rect class="cls-1" x="22.99" y="530.94" width="4.49" height="2.24"/>
    <rect class="cls-1" x="18.54" y="528.65" width="4.45" height="2.29"/>
    <rect class="cls-1" x="25.23" y="535.34" width="2.24" height="15.67"/>
    <rect class="cls-1" x="31.92" y="548.85" width="4.53" height="2.16"/>
    <rect class="cls-1" x="18.54" y="555.54" width="4.45" height="2.16"/>
    <rect class="cls-1" x="22.99" y="553.25" width="4.49" height="2.29"/>
    <rect class="cls-1" x="27.48" y="551.01" width="4.45" height="2.24"/>
    <rect class="cls-1" x="36.46" y="546.56" width="4.4" height="2.29"/>
    <rect class="cls-1" x="31.92" y="535.34" width="4.53" height="2.29"/>
    <rect class="cls-1" x="40.86" y="539.87" width="4.53" height="2.16"/>
    <rect class="cls-1" x="40.86" y="544.32" width="4.53" height="2.24"/>
    <rect class="cls-1" x="36.46" y="537.63" width="4.4" height="2.24"/>
    <path class="cls-1" d="M43.71,593.84c3.04-2.54,4.59-6.38,4.59-11.41v-11.71H15.98v11.15c0,4.97,1.52,8.88,4.52,11.61,2.86,2.59,6.78,3.91,11.64,3.91s8.87-1.19,11.57-3.54Zm.76-18.99v7.19c0,4-1.04,6.84-3.19,8.67-1.97,1.68-5.04,2.54-9.14,2.54s-6.98-.98-9.07-2.91c-2.19-2.03-3.26-4.93-3.26-8.86v-6.63h24.66Z"/>
    <path class="cls-1" d="M53.18,599.9v-3.33l-1.09,.56c-6.31,3.24-12.98,4.88-19.82,4.88s-13.47-1.64-19.82-4.88l-1.09-.56v3.33l.41,.21c6.46,3.23,13.36,4.87,20.49,4.87s14.03-1.64,20.49-4.87l.41-.21Z"/>
    <path class="cls-1" d="M53.18,569.77v-3.34l-.41-.21c-6.46-3.23-13.36-4.87-20.49-4.87s-14.03,1.64-20.49,4.87l-.41,.21v3.33l1.09-.56c6.27-3.24,12.93-4.88,19.81-4.88s13.59,1.64,19.81,4.88l1.09,.57Z"/>
    <path class="cls-1" d="M37.75,610.45c0-.78-.26-1.38-.78-1.86-.52-.52-1.12-.78-1.86-.78s-1.38,.26-1.9,.78c-.47,.47-.73,1.08-.73,1.86,0,.69,.26,1.34,.73,1.86,.52,.52,1.17,.78,1.9,.78s1.34-.26,1.86-.78c.52-.52,.78-1.17,.78-1.86Z"/>
    <path class="cls-1" d="M21.95,610.45c0-.78-.26-1.38-.78-1.86-.52-.52-1.12-.78-1.86-.78s-1.38,.26-1.9,.78c-.47,.47-.73,1.08-.73,1.86,0,.69,.26,1.34,.73,1.86,.52,.52,1.17,.78,1.9,.78s1.34-.26,1.86-.78c.52-.52,.78-1.17,.78-1.86Z"/>
    <path class="cls-1" d="M32.27,622.02c3.71,0,7.42,.6,11.22,1.9,3.11,.95,6.09,2.33,8.94,4.1v-3.02c-2.76-1.9-5.74-3.37-8.89-4.45-3.71-1.3-7.47-1.9-11.31-1.9s-7.51,.6-11.22,1.9c-3.11,1.08-6.09,2.55-8.89,4.45v3.02c2.89-1.77,5.87-3.15,8.94-4.1,3.8-1.3,7.55-1.9,11.22-1.9Z"/>
  </g>
  <g>
    <polygon class="cls-1" points="45.74 2450.31 45.74 2462.77 13.35 2462.77 13.35 2468.41 45.74 2468.41 45.74 2480.82 50.59 2480.82 50.59 2450.31 45.74 2450.31"/>
    <polygon class="cls-1" points="30.04 2490.99 30.04 2510.81 34.89 2510.81 34.89 2490.99 45.74 2490.99 45.74 2512.06 50.59 2512.06 50.59 2485.31 13.35 2485.31 13.35 2512.95 18.2 2512.95 18.2 2490.99 30.04 2490.99"/>
    <polygon class="cls-1" points="32.91 2521.61 39.43 2521.61 45.95 2521.61 45.95 2528.13 45.95 2534.65 52.47 2534.65 52.47 2528.13 52.47 2521.61 52.47 2515.09 45.95 2515.09 39.43 2515.09 32.91 2515.09 26.39 2515.09 19.87 2515.09 13.35 2515.09 13.35 2521.61 19.87 2521.61 26.39 2521.61 26.39 2528.13 26.39 2534.65 32.91 2534.65 32.91 2528.13 32.91 2521.61"/>
    <polygon class="cls-1" points="39.43 2534.65 32.91 2534.65 32.91 2541.17 39.43 2541.17 45.95 2541.17 45.95 2534.65 39.43 2534.65"/>
    <polygon class="cls-1" points="13.35 2534.65 13.35 2541.17 19.87 2541.17 26.39 2541.17 26.39 2534.65 19.87 2534.65 13.35 2534.65"/>
    <path class="cls-1" d="M38.39,2564.33c.63,1.46,1.77,2.24,3.44,2.24,1.51,0,2.61-.47,3.34-1.41,.73-.94,1.09-2.24,1.09-4.02v-6.47h-15.02v3.13h5.84v2.71c0,1.15-.31,1.88-.94,2.3-.37,.21-1.15,.42-2.3,.52-1.15,.1-2.03,.37-2.61,.73v3.55c.73-.73,1.93-1.09,3.5-1.2,2.09-.1,3.29-.83,3.65-2.09Zm1.41-3.44v-3.08h3.81v3.08c0,1.67-.63,2.56-1.88,2.56s-1.93-.89-1.93-2.56Z"/>
    <path class="cls-1" d="M51.32,2560.73c0-3.5-1.2-6.47-3.65-8.87-2.45-2.5-5.42-3.7-8.92-3.7s-6.42,1.2-8.92,3.7-3.65,5.37-3.65,8.87,1.25,6.42,3.65,8.87c2.5,2.45,5.48,3.7,8.92,3.7s6.47-1.25,8.92-3.7c2.45-2.45,3.65-5.42,3.65-8.87Zm-20.03,7.46c-2.03-2.09-3.08-4.54-3.08-7.46s1.04-5.42,3.08-7.46c2.09-2.09,4.54-3.08,7.46-3.08s5.42,.99,7.51,3.08c2.09,2.03,3.08,4.54,3.08,7.46s-.99,5.37-3.08,7.46c-2.09,2.03-4.59,3.08-7.51,3.08s-5.37-1.04-7.46-3.08Z"/>
    <rect class="cls-1" x="13.35" y="2577.53" width="37.24" height="5.63"/>
    <polygon class="cls-1" points="13.35 2590.57 13.35 2596.25 30.04 2596.25 30.04 2614.77 34.89 2614.77 34.89 2596.25 45.74 2596.25 45.74 2615.86 50.59 2615.86 50.59 2590.57 13.35 2590.57"/>
    <polygon class="cls-1" points="46.73 2619.57 45.69 2624 17.52 2624 16.48 2619.57 13.35 2619.57 13.35 2633.91 16.48 2633.91 17.52 2629.48 45.69 2629.48 46.73 2633.91 49.86 2633.91 49.6 2619.57 46.73 2619.57"/>
    <path class="cls-1" d="M18.41,2661.69c-.66-2.21-.99-4.53-.99-6.96,0-3.62,.58-6.29,1.75-8.01,1.17-1.72,2.69-2.58,4.56-2.58,1.32,0,2.42,.37,3.29,1.1,.87,.73,1.51,1.76,1.93,3.08,.42,1.32,.63,2.87,.63,4.64v9.6h4.49v-9.39c0-2.4,.49-4.24,1.46-5.53,.97-1.29,2.36-1.93,4.17-1.93s3.19,.81,4.36,2.43,1.75,4.06,1.75,7.33c0,1.88-.2,3.68-.6,5.4-.4,1.72-1.04,3.4-1.9,5.03l4.17,1.51c.9-1.57,1.6-3.41,2.09-5.53,.49-2.12,.73-4.33,.73-6.62,0-3.3-.47-6.06-1.41-8.27-.94-2.21-2.18-3.84-3.73-4.9-1.55-1.06-3.24-1.59-5.09-1.59-1.7,0-3.23,.37-4.59,1.12s-2.42,1.83-3.18,3.23c-.1,.19-.18,.4-.27,.6-.14-.41-.3-.81-.48-1.2-.75-1.6-1.82-2.89-3.21-3.86-1.39-.97-3.04-1.46-4.96-1.46-2.02,0-3.82,.58-5.4,1.75-1.58,1.17-2.82,2.9-3.7,5.22-.89,2.31-1.33,5.17-1.33,8.58,0,2.99,.37,5.76,1.12,8.29,.75,2.54,1.78,4.59,3.1,6.15l4.07-1.77c-1.22-1.43-2.16-3.24-2.82-5.45Z"/>
    <path class="cls-1" d="M41.22,2716.23c1.08-.36,2.14-.82,3.13-1.39,.87-.49,1.66-1.09,2.37-1.78,1.04,1.16,1.93,2.46,2.64,3.86,.78,1.54,1.32,3.17,1.63,4.86l.09,.47,1.28-.32-.06-.4c-.28-1.88-.85-3.68-1.69-5.35-.78-1.55-1.7-3.04-2.74-4.44,1.04-1.42,1.86-3,2.45-4.7,.62-1.81,.94-3.78,.94-5.83,0-3.45-.65-6.72-1.94-9.7-1.28-2.97-2.94-5.58-4.93-7.77-1.99-2.18-4.2-3.93-6.56-5.18-2.38-1.26-4.72-1.9-6.94-1.9-1.26,0-2.47,.17-3.62,.51-1.16,.34-2.19,.86-3.07,1.54-.88,.68-1.6,1.56-2.14,2.6-.53,1.05-.8,2.29-.8,3.67,0,1.8,.39,3.49,1.17,5,.77,1.51,1.87,2.84,3.25,3.95,1.38,1.11,3.02,1.98,4.89,2.58,1.86,.6,3.92,.91,6.11,.91h1.96v-1.53h-2.22c-1.79,0-3.53-.26-5.16-.76-1.63-.5-3.08-1.21-4.3-2.1-1.21-.88-2.19-1.96-2.9-3.2-.71-1.23-1.06-2.6-1.06-4.08,0-1.17,.2-2.16,.6-2.92,.4-.76,.95-1.39,1.65-1.87,.71-.49,1.54-.83,2.47-1.03,.96-.2,1.99-.3,3.06-.3,2.69,0,5.22,.61,7.51,1.83,2.3,1.22,4.33,2.86,6.02,4.87,1.7,2.02,3.04,4.36,3.99,6.96,.95,2.6,1.43,5.31,1.43,8.06,0,1.45-.25,3.06-.74,4.81-.44,1.55-1.16,2.99-2.16,4.29-1.47-1.71-3.2-3.3-5.15-4.74-2.08-1.55-4.3-3.03-6.58-4.41-2.28-1.37-4.59-2.72-6.87-4-2.27-1.28-4.39-2.59-6.27-3.91-1.88-1.32-3.52-2.72-4.89-4.17-1.31-1.39-2.19-2.94-2.63-4.59,.13-.86,.26-1.59,.37-2.19,.12-.62,.23-1.19,.34-1.69,.11-.52,.19-.98,.24-1.39,.05-.42,.08-.85,.08-1.28,0-.66-.09-1.19-.27-1.61-.23-.53-.68-.82-1.27-.82s-1.07,.35-1.29,.98c-.17,.5-.26,1.18-.26,2.08,0,.71,.02,1.33,.05,1.88,.04,.55,.09,1.05,.16,1.5,.07,.44,.15,.88,.24,1.32,.08,.4,.15,.83,.22,1.27-.13,.57-.26,1.12-.37,1.67-.12,.59-.23,1.23-.32,1.91-.09,.69-.16,1.45-.21,2.3-.05,.84-.08,1.81-.08,2.9,0,2.9,.58,5.8,1.73,8.62,1.14,2.81,2.73,5.38,4.72,7.61,1.99,2.24,4.39,4.07,7.12,5.45,2.74,1.38,5.75,2.08,8.94,2.08,1.06,0,2.17-.08,3.3-.24,1.13-.16,2.25-.42,3.34-.77Zm-24.54-24.22c1.46,1.81,3.14,3.47,5,4.95,1.85,1.47,3.87,2.85,6,4.1,2.11,1.25,4.27,2.48,6.43,3.66,2.12,1.16,4.22,2.36,6.25,3.56,1.83,1.09,3.49,2.28,4.97,3.55-.82,.65-1.81,1.14-2.95,1.45-1.36,.37-2.74,.56-4.08,.56-1.8,0-3.69-.2-5.62-.59-1.93-.39-3.83-.99-5.65-1.77-1.82-.78-3.58-1.77-5.21-2.93-1.63-1.15-3.06-2.53-4.26-4.11-1.2-1.57-2.17-3.37-2.88-5.33-.71-1.96-1.07-4.15-1.07-6.52,0-1.37,.03-2.61,.1-3.7,.04-.57,.09-1.14,.17-1.7,.71,1.77,1.66,3.38,2.82,4.82Z"/>
    <path class="cls-1" d="M19.72,2726.08c.73-.78,1.1-1.72,1.1-2.76,0-1.15-.37-2.03-1.1-2.71-.73-.78-1.67-1.15-2.82-1.15-1.04,0-1.98,.37-2.76,1.15-.68,.68-1.04,1.56-1.04,2.71,0,1.04,.37,1.98,1.04,2.76,.78,.73,1.72,1.15,2.76,1.15,1.15,0,2.09-.42,2.82-1.15Z"/>
  </g>
  <g>
    <path class="cls-1" d="M45.3,3065.17c-1.68,4.09-3.67,5.7-3.69,5.71l-.34,.27,.81,1.08,.36-.29c.09-.07,2.12-1.72,3.94-5.89,4.02,3.23,7.57,5.37,8.94,5.37,.9,0,1.52-.59,1.52-1.43,0-3.61-2.96-8.27-8.14-12.81,.28-2.14,.42-4.24,.42-6.42,0-9.05-2.67-14.68-4.91-17.81-2.71-3.8-6.37-6.06-9.78-6.06-4.45,0-7.32,3.7-7.32,9.42,0,4.05,1.44,8.49,4.27,13.19-1.14,.44-2.26,1.49-2.26,3.9,0,3.11,3.05,8.04,5.59,11.6-.91-.75-1.82-1.5-2.74-2.25-1.21-1-2.43-2-3.63-3-3.6-14.82-15.28-29.87-23.23-29.87-1.27,0-2.19,1.03-2.19,2.46,0,6.03,2.51,11.69,7.06,15.95,4.06,3.8,11.11,8.8,17.32,13.22l.05,.04c.43,2.11,.65,4.13,.65,6,0,.97-.08,2.06-.22,3.15l-.05,.42,1.33,.27,.06-.48c.15-1.16,.23-2.29,.23-3.36,0-1.54-.14-3.17-.43-4.88,4.05,2.91,7.84,5.68,10.39,7.93l.37,.32,.28-.37,.43,.36-.36-.45,.46-.62-.92-.78c-2.53-2.97-9.11-11.57-9.11-15.66,0-1.38,.6-2.19,1.83-2.45,4.23,6.45,9.84,11.6,12.99,14.23Zm-12.57-15.97c-2.83-4.65-4.27-8.99-4.27-12.9,0-4.98,2.29-8.07,5.98-8.07,5.38,0,13.34,7.16,13.34,22.53,0,1.77-.1,3.57-.28,5.37-5.18-4.23-10.72-6.93-14.28-6.93-.16,0-.32,0-.48,.01Zm22.77,20.78s0,.09-.17,.09c-.95,0-4.21-1.85-8.44-5.27,.54-1.47,.97-2.97,1.31-4.56,4.46,4.17,7.3,7.95,7.3,9.75Zm-9.71-6.07c-3-2.54-8.04-7.24-11.96-13.03,2.78,.37,7.95,3.61,13.22,8.31-.31,1.62-.73,3.2-1.26,4.72Zm-40.67-32.7c7.06,0,17.6,13.45,21.45,27.09-5.59-4.62-10.52-8.76-14.35-12.47-4.86-4.68-7.76-9.85-7.76-13.82,0-.66,.27-.8,.67-.8Z"/>
    <polygon class="cls-1" points="40.95 3105.96 40.95 3086.45 56.65 3086.45 56.65 3080.77 19.4 3080.77 19.4 3086.45 36.1 3086.45 36.1 3105.96 19.4 3105.96 19.4 3111.65 56.65 3111.65 56.65 3105.96 40.95 3105.96"/>
    <path class="cls-1" d="M50.28,3154.84c3.23-3.44,4.85-7.82,4.85-13.04,0-5.63-1.56-10.22-4.75-13.72-3.13-3.6-7.3-5.37-12.52-5.37s-9.34,1.72-12.36,5.22c-2.87,3.34-4.33,7.72-4.33,13.14s1.56,10.22,4.59,13.77c3.03,3.44,7.15,5.22,12.26,5.22s9.02-1.77,12.26-5.22Zm-22.74-3.86c-2.82-2.3-4.23-5.69-4.23-10.17,0-3.65,1.46-6.57,4.33-8.82,2.71-2.19,6.05-3.29,9.96-3.29,4.28,0,7.82,.94,10.54,2.92,3.23,2.19,4.85,5.32,4.85,9.39,0,4.28-1.56,7.62-4.75,9.96-2.71,2.03-6.26,3.08-10.54,3.08s-7.62-1.04-10.17-3.08Z"/>
    <path class="cls-1" d="M38.24,3118.27c4.69,0,8.92,.63,12.68,1.88,3.81,1.25,7.15,3.13,9.96,5.63l.73-.78c-2.82-2.82-6.26-5.06-10.33-6.62-4.17-1.67-8.5-2.45-13.09-2.45s-8.87,.78-13.04,2.4c-4.07,1.62-7.56,3.86-10.38,6.68l.73,.78c2.87-2.5,6.21-4.38,10.01-5.63,3.81-1.25,8.03-1.88,12.73-1.88Z"/>
    <path class="cls-1" d="M61.6,3157.76l-.73-.78c-2.82,2.45-6.16,4.33-9.96,5.63-3.76,1.25-7.98,1.88-12.68,1.88s-8.92-.63-12.73-1.88c-3.81-1.3-7.15-3.18-10.01-5.63l-.73,.78c2.82,2.82,6.31,5.01,10.38,6.68,4.17,1.56,8.5,2.4,13.04,2.4s8.92-.83,13.09-2.45c4.07-1.62,7.51-3.81,10.33-6.62Z"/>
    <polygon class="cls-1" points="51.79 3185.75 51.79 3183.03 54.52 3183.03 54.52 3174.29 51.79 3174.29 51.79 3171.52 49.03 3171.52 49.03 3168.71 40.28 3168.71 40.28 3171.52 37.52 3171.52 37.52 3174.29 34.75 3174.29 34.75 3182.54 31.99 3182.54 31.99 3185.31 24.18 3185.31 24.18 3182.54 21.46 3182.54 21.46 3174.73 24.18 3174.73 24.18 3172.01 29.71 3172.01 29.71 3168.71 23.73 3168.71 23.73 3171.52 20.97 3171.52 20.97 3174.29 18.16 3174.29 18.16 3183.03 20.97 3183.03 20.97 3185.75 23.73 3185.75 23.73 3188.52 32.48 3188.52 32.48 3185.75 35.24 3185.75 35.24 3183.03 38.01 3183.03 38.01 3174.73 40.73 3174.73 40.73 3172.01 48.54 3172.01 48.54 3174.73 51.3 3174.73 51.3 3182.54 48.54 3182.54 48.54 3185.31 43.01 3185.31 43.01 3188.52 49.03 3188.52 49.03 3185.75 51.79 3185.75"/>
    <polygon class="cls-1" points="51.8 3190.55 51.8 3203.02 19.4 3203.02 19.4 3208.65 51.8 3208.65 51.8 3221.06 56.65 3221.06 56.65 3190.55 51.8 3190.55"/>
    <path class="cls-1" d="M26.86,3229.04c0-1.25-.31-2.24-1.04-2.97-.73-.83-1.67-1.2-2.87-1.2-1.09,0-2.03,.37-2.76,1.1-.73,.73-1.1,1.67-1.1,2.71,0,.57,.05,.99,.16,1.3-1.25,0-2.45-.47-3.65-1.36-1.15-.94-1.93-2.14-2.45-3.5h-3.23c.73,2.61,2.09,4.69,4.07,6.26,1.98,1.51,4.28,2.3,6.94,2.3,1.77,0,3.18-.42,4.33-1.25,1.09-.94,1.62-2.03,1.62-3.39Z"/>
    <path class="cls-1" d="M56.65,3267.8l-37.24-14.34v6.05l9.6,3.49v16.01l-9.6,3.5v6.1l37.24-14.34v-6.47Zm-22.95-3.08l16.85,6.21v.21l-16.85,6.16v-12.57Z"/>
    <polygon class="cls-1" points="52.79 3314.43 51.74 3318.86 26.76 3318.86 55.92 3301.65 55.66 3290.7 52.79 3290.7 51.74 3295.13 23.58 3295.13 22.53 3290.7 19.4 3290.7 19.4 3304.78 22.53 3304.78 23.58 3299.82 48.15 3299.82 19.4 3317.04 19.4 3323.56 51.74 3323.56 52.79 3327.99 55.92 3327.99 55.66 3314.43 52.79 3314.43"/>
    <path class="cls-1" d="M56.65,3347.03v-13.56H19.4v13.46c0,6,1.67,10.54,5.01,13.67,3.23,2.97,7.77,4.49,13.61,4.49s10.43-1.46,13.56-4.38c3.39-3.13,5.06-7.67,5.06-13.67Zm-29,9.23c-2.24-2.19-3.39-5.69-3.39-10.38v-6.73h27.54v6.83c0,4.69-1.1,8.14-3.34,10.33-2.19,2.09-5.63,3.18-10.43,3.18s-8.14-1.1-10.38-3.23Z"/>
    <path class="cls-1" d="M34.22,3404.77v10.28h-8.09c-.78-1.25-1.41-2.61-1.83-4.17-.42-1.62-.68-3.34-.68-5.16,0-4.64,1.3-8.09,3.91-10.28,2.4-2.09,5.84-3.08,10.33-3.08s8.19,1.09,10.8,3.39c2.5,2.14,3.7,5.01,3.7,8.61,0,2.92-.63,5.32-1.93,7.09-1.25,1.77-3.13,2.92-5.63,3.44v5.74c4.17-.68,7.25-2.35,9.34-5.01,2.19-2.76,3.23-6.52,3.23-11.27,0-5.48-1.88-9.86-5.74-13.09-3.6-3.08-8.19-4.59-13.77-4.59s-10.07,1.51-13.56,4.59c-3.76,3.29-5.63,7.88-5.63,13.82,0,3.23,.42,6.21,1.25,8.92,.83,2.56,1.98,4.8,3.5,6.73h15.65v-15.96h-4.85Z"/>
    <path class="cls-1" d="M57.3,3439.62c.71-1.39,1.07-2.99,1.07-4.8s-.36-3.36-1.07-4.75c-.71-1.39-1.7-2.49-2.95-3.29-1.25-.8-2.71-1.2-4.38-1.2s-3.04,.4-4.33,1.2c-1.29,.8-2.3,1.89-3.03,3.29-.73,1.39-1.09,2.99-1.09,4.8s.37,3.36,1.09,4.75c.73,1.39,1.74,2.48,3.03,3.26,1.29,.78,2.73,1.17,4.33,1.17s3.13-.39,4.38-1.17c1.25-.78,2.23-1.87,2.95-3.26Zm-11.24-.65c-1.01-1.06-1.51-2.44-1.51-4.15s.51-3.04,1.54-4.12c1.03-1.08,2.34-1.62,3.94-1.62s2.9,.54,3.89,1.62c.99,1.08,1.49,2.45,1.49,4.12s-.5,3.09-1.49,4.15c-.99,1.06-2.3,1.59-3.94,1.59s-2.9-.53-3.91-1.59Z"/>
    <path class="cls-1" d="M56.65,3462.93v-13.56H19.4v13.46c0,6,1.67,10.54,5.01,13.67,3.23,2.97,7.77,4.49,13.61,4.49s10.43-1.46,13.56-4.38c3.39-3.13,5.06-7.67,5.06-13.67Zm-29,9.23c-2.24-2.19-3.39-5.69-3.39-10.38v-6.73h27.54v6.83c0,4.69-1.1,8.14-3.34,10.33-2.19,2.09-5.63,3.18-10.43,3.18s-8.14-1.1-10.38-3.23Z"/>
    <path class="cls-1" d="M25.77,3492.98c.73-.78,1.1-1.72,1.1-2.77,0-1.15-.37-2.03-1.1-2.71-.73-.78-1.67-1.15-2.82-1.15-1.04,0-1.98,.37-2.76,1.15-.68,.68-1.04,1.57-1.04,2.71,0,1.04,.37,1.98,1.04,2.77,.78,.73,1.72,1.15,2.76,1.15,1.15,0,2.09-.42,2.82-1.15Z"/>
  </g>
  <g>
    <path class="cls-1" d="M50.42,3571.32c0-2.71-.53-5.12-1.59-7.22-1.06-2.1-2.56-3.73-4.51-4.88,1.91-.94,3.41-2.39,4.49-4.36,1.08-1.96,1.62-4.3,1.62-7.02s-.5-4.9-1.51-6.86c-1.01-1.96-2.42-3.49-4.23-4.56h5.32v-5.01H13.49v5.22h21.8c3.51,0,6.14,.9,7.88,2.69,1.74,1.79,2.61,4.22,2.61,7.28,0,2.75-.82,4.91-2.45,6.49-1.64,1.58-4.07,2.37-7.3,2.37H13.49v5.16h21.8c3.55,0,6.18,.88,7.9,2.63,1.72,1.76,2.58,4.15,2.58,7.17,0,2.75-.83,4.96-2.48,6.62-1.65,1.67-4.08,2.5-7.28,2.5H13.49v5.16h22.69c4.62,0,8.15-1.18,10.59-3.55,2.43-2.37,3.65-5.65,3.65-9.86Z"/>
    <path class="cls-1" d="M35.98,3608.7c-1.02,0-1.9-.37-2.63-1.1-.74-.73-1.1-1.63-1.1-2.68s.37-1.9,1.1-2.63c.73-.74,1.61-1.1,2.63-1.1h11.24v-7.51h-11.24c-4.41,0-6.91,2.5-7.51,7.51H13.49v7.51h14.97c.6,4.98,3.1,7.46,7.51,7.46h11.24v-7.46h-11.24Z"/>
    <path class="cls-1" d="M31.49,3648.26c.89-1.46,2.09-4.75,3.65-9.75,1.04-3.49,1.83-5.63,2.3-6.47,.99-1.88,2.3-2.76,3.96-2.76,1.88,0,3.23,.78,4.07,2.4,.73,1.3,1.1,3.18,1.1,5.63,0,2.82-.52,4.9-1.62,6.36-1.04,1.46-2.82,2.4-5.22,2.92v5.63c4.07-.37,7.04-1.83,8.97-4.43,1.88-2.45,2.76-5.84,2.76-10.17,0-3.96-.89-7.25-2.66-9.86-1.88-2.76-4.43-4.12-7.72-4.12s-5.74,1.41-7.46,4.28c-.63,1.15-1.62,3.96-3.08,8.55-1.25,4.12-2.09,6.57-2.5,7.41-1.2,2.35-2.82,3.55-4.9,3.55-1.67,0-2.97-.83-3.91-2.5s-1.46-3.91-1.46-6.73c0-3.13,.57-5.42,1.72-6.94,1.25-1.67,3.39-2.71,6.31-3.13v-5.63c-4.69,.31-8.14,1.98-10.33,5.06-1.77,2.56-2.71,6.1-2.71,10.64s.94,8.35,2.82,10.95c1.93,2.61,4.54,3.91,7.88,3.91s6.1-1.62,8.03-4.8Z"/>
    <polygon class="cls-1" points="45.88 3655.46 45.88 3667.92 13.49 3667.92 13.49 3673.56 45.88 3673.56 45.88 3685.97 50.74 3685.97 50.74 3655.46 45.88 3655.46"/>
    <polygon class="cls-1" points="30.18 3696.14 30.18 3715.96 35.03 3715.96 35.03 3696.14 45.88 3696.14 45.88 3717.22 50.74 3717.22 50.74 3690.46 13.49 3690.46 13.49 3718.1 18.34 3718.1 18.34 3696.14 30.18 3696.14"/>
    <rect class="cls-1" x="11.47" y="3753.97" width="5.62" height="5.62"/>
    <polygon class="cls-1" points="45.19 3731.48 45.19 3753.97 50.81 3753.97 50.81 3725.86 11.47 3725.86 11.47 3731.48 28.33 3731.48 28.33 3742.72 22.71 3742.72 22.71 3748.34 28.33 3748.34 28.33 3753.97 33.95 3753.97 33.95 3731.48 45.19 3731.48"/>
    <rect class="cls-1" x="17.09" y="3748.34" width="5.62" height="5.62"/>
    <rect class="cls-1" x="33.95" y="3753.97" width="11.24" height="5.62"/>
    <rect class="cls-1" x="13.49" y="3769.95" width="37.24" height="5.63"/>
    <path class="cls-1" d="M50.32,3805.42c0-5.37-1.72-9.6-5.27-12.73-3.34-2.92-7.67-4.33-12.99-4.33s-9.6,1.41-12.88,4.33c-3.44,3.13-5.22,7.35-5.22,12.73s1.72,9.6,5.11,12.73c3.34,2.92,7.67,4.38,12.99,4.38s9.75-1.46,13.04-4.38c3.5-3.13,5.22-7.35,5.22-12.73Zm-27.91,8.5c-2.3-1.98-3.49-4.8-3.49-8.5s1.25-6.52,3.65-8.5c2.35-1.98,5.53-2.92,9.49-2.92s7.25,.99,9.65,2.97c2.45,1.98,3.65,4.8,3.65,8.45s-1.2,6.52-3.6,8.5c-2.3,1.98-5.53,2.97-9.7,2.97s-7.35-.99-9.65-2.97Z"/>
    <path class="cls-1" d="M57.72,3805.42c0-7.04-2.45-13.04-7.46-18-4.96-5.01-10.95-7.46-18-7.46s-12.99,2.45-18,7.46-7.46,10.95-7.46,18,2.5,12.99,7.46,18c5.01,4.96,11.01,7.46,18,7.46s13.04-2.5,18-7.46,7.46-11.01,7.46-18Zm-41.83,16.38c-4.49-4.59-6.73-10.01-6.73-16.38s2.24-11.84,6.73-16.38c4.59-4.49,10.01-6.73,16.38-6.73s11.84,2.24,16.38,6.73c4.49,4.54,6.73,10.01,6.73,16.38s-2.24,11.79-6.73,16.38c-4.54,4.49-10.01,6.73-16.38,6.73s-11.79-2.24-16.38-6.73Z"/>
    <path class="cls-1" d="M27.58,3860.19c-3.34,0-5.79-.78-7.41-2.3-1.62-1.56-2.45-4.02-2.45-7.35s.83-5.84,2.45-7.41,4.07-2.3,7.41-2.3h23.16v-5.69H27.68c-4.85,0-8.55,1.36-11.16,4.07-2.5,2.61-3.76,6.36-3.76,11.32s1.3,8.66,3.81,11.32c2.56,2.66,6.26,4.02,11.11,4.02h23.06v-5.69H27.58Z"/>
    <path class="cls-1" d="M57.27,3937.88c0-8.39-19.31-19.5-24.78-21.89l-.05-.02c-1.15-1.97-2.15-3.82-3.03-5.61,.18,.02,.37,.02,.55,.02,4.2,0,8.69-3.79,8.69-14.42s-6.39-17.38-12.6-19.05c2.09-4.09,5.47-6.42,9.33-6.42,7.54,0,15.56,8.39,15.56,23.95,0,6.65-.44,16.29-4.27,23.14l-.23,.41,1.22,.61,.21-.37c4.02-7.17,4.49-17.01,4.49-23.79,0-12.47-6.35-25.37-16.98-25.37-4.55,0-8.47,2.75-10.8,7.55-.5-.06-.97-.09-1.4-.09-8.71,0-11.87,10.65-11.87,17.81,0,12.03,10.79,18.52,20.24,22.82,7.87,13.06,17.93,22.52,23.96,22.52,1.1,0,1.75-.67,1.75-1.81Zm-1.75,.39c-5.23,0-14.4-8.52-21.69-20.02,7.08,3.57,22.02,12.91,22.02,19.64,0,.36-.14,.39-.33,.39Zm-18.28-42.3c0,9.59-3.75,13-7.27,13-.25,0-.51-.02-.8-.05,1.98-2.82,3.02-6.07,3.02-9.45,0-9.41-4.12-15.64-8.12-16.34,.3-1.77,.77-3.4,1.39-4.88,5.77,1.38,11.77,7.95,11.77,17.73Zm-9.3,14.51c.73,1.51,1.52,3.04,2.39,4.57l-.59-.25c-1.36-.59-2.68-1.34-3.93-2.21l.3-.27c.73-.66,1.32-1.25,1.83-1.83Zm-4.35-21.23c0-1.76,.09-3.31,.27-4.72,3.02,.53,6.91,5.75,6.91,14.94,0,3.07-.85,5.88-2.54,8.36-3.04-6.77-4.64-13.17-4.64-18.58Zm-1.42,0c0,5.5,1.61,12.02,4.66,18.9-4.48-2.45-7.2-10.1-7.2-16.34,0-2.42,.38-6.41,2.8-7.2-.17,1.42-.26,2.94-.26,4.65Zm1.84-11.25c-.61,1.53-1.06,3.25-1.37,5.11-4.21,.74-5.17,8.05-5.17,10.62,0,6.7,3.37,12.94,8.38,15.52,.27,.14,.58,.29,.9,.42-.45,.5-.97,1.01-1.57,1.55l-.31,.27,.69,.92c-6.8-4.87-11.68-13.52-11.68-21.51,0-6.45,2.88-12.95,9.3-12.95,.29,0,.56,.01,.82,.03Z"/>
    <path class="cls-1" d="M50.74,3949.28l-37.24-14.34v6.05l9.6,3.49v16.01l-9.6,3.49v6.1l37.24-14.34v-6.47Zm-22.95-3.08l16.85,6.21v.21l-16.85,6.16v-12.57Z"/>
    <polygon class="cls-1" points="23.04 3998.73 23.04 3998.52 50.74 3979.48 50.74 3973.74 13.49 3973.74 13.49 3979.43 41.5 3979.43 41.5 3979.64 13.49 3998.89 13.49 4004.41 50.74 4004.41 50.74 3998.73 23.04 3998.73"/>
    <rect class="cls-1" x="13.49" y="4011.87" width="37.24" height="5.63"/>
    <polygon class="cls-1" points="29.14 4044.52 50.01 4035.08 49.74 4023.35 46.88 4023.35 45.83 4027.78 17.66 4027.78 16.62 4023.35 13.49 4023.35 13.49 4037.43 16.62 4037.43 17.66 4032.48 43.75 4032.48 40.09 4033.78 23.14 4041.87 23.4 4046.04 39.83 4054.12 43.75 4055.69 17.66 4055.69 16.62 4050.73 13.49 4050.73 13.49 4065.34 16.62 4065.34 17.66 4060.9 45.83 4060.9 46.88 4065.34 50.01 4065.34 49.74 4054.38 29.14 4044.52"/>
    <path class="cls-1" d="M50.74,4081.77l-37.24-14.34v6.05l9.6,3.49v16.01l-9.6,3.49v6.1l37.24-14.34v-6.47Zm-22.95-3.08l16.85,6.21v.21l-16.85,6.16v-12.57Z"/>
    <polygon class="cls-1" points="50.74 4111.87 50.74 4106.23 13.49 4106.23 13.49 4132.36 18.34 4132.36 18.34 4111.87 50.74 4111.87"/>
    <path class="cls-1" d="M19.86,4143.26c.73-.78,1.1-1.72,1.1-2.77,0-1.15-.37-2.03-1.1-2.71-.73-.78-1.67-1.15-2.82-1.15-1.04,0-1.98,.37-2.76,1.15-.68,.68-1.04,1.57-1.04,2.71,0,1.04,.37,1.98,1.04,2.77,.78,.73,1.72,1.15,2.76,1.15,1.15,0,2.09-.42,2.82-1.15Z"/>
  </g>
  <g>
    <path class="cls-1" d="M43.38,2773.53v-13.75h-1.78l-.51,4.77c-4.49,.09-9.03,.09-13.61,.09h-2.53c-4.58,0-9.07,0-13.56-.09l-.51-4.77h-1.78v14.5h1.78l.56-4.86c3.88-.09,7.58-.09,11.36-.09v2.71c0,10.34,4.72,14.36,10.43,14.36,6.08,0,10.15-4.26,10.15-12.86Zm-18.52-.94v-3.27h2.62c4.68,0,9.35,0,13.89,.09v3.27c0,6.13-2.95,8.89-8.14,8.89s-8.37-2.57-8.37-8.98Z"/>
    <polygon class="cls-1" points="25.8 2798.16 25.8 2817.98 30.65 2817.98 30.65 2798.16 41.5 2798.16 41.5 2819.23 46.35 2819.23 46.35 2792.48 9.1 2792.48 9.1 2820.12 13.95 2820.12 13.95 2798.16 25.8 2798.16"/>
    <path class="cls-1" d="M31.36,2844.03c.25-5.2-2.53-11.65-6.91-16.09-3.5-3.5-7.55-5.5-11.12-5.5-3.31,0-5.4,2.19-5.46,5.71,0,.07,0,.14,0,.21,0,4.59,3.22,10.4,7.89,14.23,2.95,2.4,6.66,3.85,8.63,4.01,.07,0,.14,.01,.2,.02,.11,.42,.58,.8,.59,.81,.58,.52,1.73,1.02,2.89,.9,1.92-.16,3.15-1.76,3.28-4.29Zm-19.54-14.23c2.06,0,5.27,1.48,8.17,3.76,4.37,3.48,7.49,7.95,7.24,10.39-.03,.25-.12,.44-.29,.57-.25,.19-.66,.26-1.2,.18-2.62-.27-6.23-2.5-8.74-4.49-4.27-3.42-6.84-6.7-7.56-9.62,.26,.04,.45-.13,.54-.21,.03-.03,.07-.06,.12-.1,.5-.35,1-.49,1.72-.49Zm16.83,14.31c.34-3.28-2.85-8.41-7.58-12.25-3.13-2.38-6-3.53-8.77-3.53-1.25,0-2.28,.37-2.98,1.07-.02,.02-.03,.03-.05,.06-.02-.26-.02-.51-.01-.76,.11-2.36,1.66-2.86,2.94-2.86,2.92,0,6.93,1.88,10.24,4.79,3.14,2.82,7.37,8.86,7.37,13.1,0,.09,0,.18,0,.27-.05,1.56-.81,2.73-1.86,2.86-.72,.11-1.32-.1-1.69-.29,1.86-.33,2.32-1.6,2.42-2.46Z"/>
    <path class="cls-1" d="M44.7,2901.61c2.3,1.21,4.42,1.81,6.37,1.81s3.72-.45,5.09-1.34c1.36-.9,2.46-2.07,3.27-3.51,.82-1.44,1.38-3.04,1.69-4.79,.31-1.75,.47-3.49,.47-5.2,0-.94-.08-2.24-.23-3.92-.16-1.68-.35-3.59-.59-5.73-.23-2.14-.43-4.42-.58-6.84-.16-2.42-.23-4.79-.23-7.13,0-.94,.02-1.91,.06-2.92,.04-1.01,.14-1.87,.29-2.57,.16-.86,.43-1.33,.82-1.4,.31-.08,.47-.2,.47-.35,0-.23-.33-.49-.99-.76-.66-.27-1.07-.41-1.23-.41-.86,0-1.29,.74-1.29,2.22,0,2.49,.16,4.93,.47,7.31,.31,2.38,.51,4.81,.59,7.31,0,.39-.16,.59-.47,.59-.23,0-.66-.12-1.29-.35-.63-.23-1.29-.51-1.99-.82-.7-.31-1.38-.63-2.05-.94-.66-.31-1.11-.55-1.34-.7-3.2-1.71-6.8-3.7-10.81-5.96-4.02-2.26-7.66-4.37-10.93-6.31-2.73-1.64-5.61-3.35-8.65-5.14-3.04-1.79-5.77-3.24-8.18-4.33-.94-.39-1.64-.58-2.1-.58-.62,0-1.11,.23-1.46,.7s-.62,1.01-.82,1.64c-.19,.62-.33,1.27-.41,1.93-.08,.66-.12,1.15-.12,1.46,0,1.71,.08,3.45,.23,5.2,.16,1.75,.35,3.33,.59,4.74,.08,.39,.23,.58,.47,.58s.35-.43,.35-1.29c0-2.5,.29-4.37,.88-5.61,.58-1.25,1.62-1.87,3.1-1.87,1.09,0,2.49,.43,4.21,1.29,2.57,1.32,5.61,2.96,9.12,4.91,3.51,1.95,7.11,3.97,10.81,6.08,3.7,2.1,7.29,4.19,10.76,6.25,3.47,2.06,6.45,3.84,8.94,5.32,1.01,.54,1.67,1.32,1.99,2.34,.39,1.56,.59,3.31,.59,5.26,0,2.81-.59,5.2-1.75,7.19-1.17,1.99-3.39,2.98-6.66,2.98-2.34,0-4.68-.53-7.01-1.58-2.34-1.05-4.44-2.5-6.31-4.33-1.87-1.83-3.39-4.02-4.56-6.55-1.17-2.53-1.75-5.28-1.75-8.24,0-.94,.08-1.93,.23-2.98,.15-1.05,.31-1.77,.47-2.16,0-.31-.16-.47-.47-.47-.16,0-.31,.12-.47,.35-.55,1.48-.82,3.2-.82,5.14,0,4.13,.64,7.81,1.93,11.05,1.29,3.23,2.92,5.98,4.91,8.24,1.99,2.26,4.13,3.99,6.43,5.2Z"/>
    <path class="cls-1" d="M44.8,2941.87c1.06,0,1.7-.55,1.7-1.48,0-3.79-7.07-9.49-10.42-11.96,2.15-5.86,3.23-11.46,3.23-16.64,0-12.63-6.76-20.17-13.3-20.17-4.2,0-9.11,3.48-9.11,13.3,0,4.91,1.18,9.83,3.52,14.65-1.31-.73-2.45-1.46-3.45-2.23-.5-1.24-1.08-2.43-1.68-3.45l-.15-.25-1.33,.17,.35,.59c.2,.33,.39,.67,.57,1.04-1.27-1.25-2.33-2.6-3.15-4.04,1.01-1.83,1.73-3.53,2.22-5.19,.4-1.42,.64-3.32,.64-5.1,0-1.46-.19-6.23-2.57-6.23-3.76,0-4.29,11.09-4.29,11.2,0,2.54,.55,4.74,1.67,6.73-.35,.58-.7,1.16-1.05,1.74-2.58,4.25-5.26,8.65-5.26,13.61,0,6.87,4.07,10,7.86,10,5.06,0,8.08-4.1,8.08-10.96,0-2.22-.34-4.63-.98-7.03,1.13,.58,2.37,1.14,3.74,1.7,7.04,12.44,19.52,19.99,23.16,19.99Zm-10.47-12.7c-.08,.22-.16,.44-.25,.66l-.17,.42,1.29,.51,.42-1.1c5.98,4.46,9.53,8.45,9.53,10.79h0s-.07,.07-.35,.07c-3.13,0-14.37-6.89-21.17-17.85,.02,0,.03,.01,.05,.02l.62,.23c2.43,.9,6.4,3.2,10.16,5.9-.04,.12-.09,.23-.13,.35Zm-16.07-24.25c0-8.82,4.18-11.95,7.76-11.95,5.88,0,11.95,7.04,11.95,18.83,0,4.84-1.03,10.16-3.05,15.8-3.77-2.67-7.7-4.99-10.12-5.95-.77-.32-1.59-.66-2.37-1.04-2.78-5.14-4.18-10.42-4.18-15.68Zm-13.97,23.25c0-4.73,2.57-8.93,5.05-12.99,.23-.38,.47-.76,.7-1.15,1.41,1.95,3.48,3.7,6.3,5.32,.85,2.64,1.31,5.37,1.31,7.91,0,2.88-.67,9.57-6.85,9.57-3.14,0-6.51-2.71-6.51-8.65Zm8.92-27.22c0,1.67-.22,3.41-.61,4.78-.39,1.31-.96,2.7-1.76,4.24-.89-1.99-1.33-4.15-1.33-6.43,0-2.55,.81-7.31,2.36-7.31,.66,0,1.34,1.77,1.34,4.73Z"/>
    <polygon class="cls-1" points="25.8 2949.72 25.8 2969.54 30.65 2969.54 30.65 2949.72 41.5 2949.72 41.5 2970.8 46.35 2970.8 46.35 2944.04 9.1 2944.04 9.1 2971.68 13.95 2971.68 13.95 2949.72 25.8 2949.72"/>
    <path class="cls-1" d="M15.47,2983.68c.73-.78,1.1-1.72,1.1-2.76,0-1.15-.37-2.03-1.1-2.71-.73-.78-1.67-1.15-2.82-1.15-1.04,0-1.98,.37-2.76,1.15-.68,.68-1.04,1.56-1.04,2.71,0,1.04,.37,1.98,1.04,2.76,.78,.73,1.72,1.15,2.76,1.15,1.15,0,2.09-.42,2.82-1.15Z"/>
  </g>
</svg>