<?xml version="1.0" encoding="UTF-8"?>
<svg id="_圖層_1" data-name="圖層 1" xmlns="http://www.w3.org/2000/svg" viewBox="0 0 57.57 2826.03">
  <defs>
    <style>
      .cls-1 {
        fill: #a7a7ff;
      }
    </style>
  </defs>
  <g>
    <path class="cls-1" d="M53.5,39.98l-21.31-8.21c1.49-.33,2.87-1,4.13-2.03,2.01,1.53,4.07,2.33,5.99,2.33,2.83,0,3.26-1.74,3.26-2.77,0-2.68-1.73-5.83-4.43-8.06,.15-.76,.25-1.52,.29-2.27v-.11c.81,.53,1.65,1.14,2.51,1.81,2.74,5.36,6.33,11.77,9.77,13.93,.84,.53,1.53,.79,2.05,.79,.69,0,1.11-.46,1.11-1.2,0-.59-.25-1.36-.72-2.24-1.07-1.99-6.22-7.76-11.56-11.94l-.38-.75c-.51-.99-.96-1.88-1.38-2.75,3.17,1.73,6.18,2.72,8.34,2.72s2.73-1.29,2.74-2.38c1.65-.27,2.56-1.44,2.56-3.31,0-5.74-6.56-11.59-12.99-11.59-1.48,0-2.84,.32-4.04,.95l-.27,.14,.39,.79,.27-.14c1.09-.54,2.31-.82,3.64-.82,5.98,0,12.08,5.39,12.08,10.68,0,1.37-.58,2.17-1.71,2.39-.71-4.56-6.42-8.75-8.84-8.75-.56,0-1.49,.22-1.49,1.68,0,2.75,3.69,7.99,9.49,8.06-.04,.94-.63,1.4-1.82,1.4-1.87,0-4.91-1.27-9.3-3.89-2.36-5.42-6.3-14.42-10.11-14.42-.83,0-1.31,.6-1.31,1.65,0,5.47,5.93,10.99,11.04,14.09,.49,1.07,1.02,2.11,1.53,3.11-2.68-1.92-6.12-3.88-8.97-3.88-2.5,0-3.96,1.2-4.14,3.38-4.13,.88-6.78,3.81-6.78,7.51,0,3.99,3.56,6.15,6.91,6.15,.6,0,1.19-.05,1.76-.16v3.28l5.6,2.04v9.34l-5.6,2.04v3.56l21.72-8.37v-3.77ZM31.74,.92c3.11,0,6.81,8.12,8.72,12.55-3.76-2.9-9.08-9.2-9.08-12.13,0-.39,.17-.42,.36-.42Zm-7.73,24.95c0-3.47,2.9-5.91,5.87-6.61,.21,3.07,2.58,7.19,5.7,9.89-1.65,1.29-3.52,1.95-5.57,1.95-2.9,0-5.99-1.83-5.99-5.23Zm12.3,2.65c-3.03-2.56-5.39-6.56-5.53-9.41,.32-.04,.65-.05,.96-.05,2.41,0,5.35,1.32,8.09,3.62-.72,2.32-1.96,4.38-3.52,5.85Zm4.28-5.2c2.38,2.18,4.02,4.65,4.02,6.11,0,.74-.24,1.73-2.31,1.73-1.65,0-3.46-.71-5.26-2.06,1.55-1.5,2.77-3.48,3.55-5.78Zm-.09-4.38c-.04,.64-.1,1.18-.18,1.67-2.3-1.64-5.02-2.51-7.91-2.51-.56,0-1.09,.03-1.58,.1,.25-1.51,1.36-2.28,3.29-2.28,1.82,0,4.2,.94,6.98,2.73h-.57l-.02,.29Zm15.25,15.53c-.18,0-.6-.08-1.46-.6-2.33-1.38-5.17-5.25-8.66-11.8,4.89,4.13,9.02,8.98,9.75,10.44,.48,.95,.58,1.45,.58,1.7s-.08,.26-.21,.26Zm-10.77-26.37c2.19,0,7.28,3.91,7.93,7.9-3.65-.19-8.5-5.49-8.5-7.39,0-.45,.36-.51,.58-.51Zm-4.87,30.08l9.83,3.62v.12l-9.83,3.59v-7.33Z"/>
    <polygon class="cls-1" points="46.98 66.56 43.18 66.56 43.18 70.37 46.98 70.37 50.79 70.37 50.79 66.56 46.98 66.56"/>
    <polygon class="cls-1" points="43.18 58.96 46.98 58.96 50.79 58.96 50.79 62.76 50.79 66.56 54.59 66.56 54.59 62.76 54.59 58.96 54.59 55.16 50.79 55.16 46.98 55.16 43.18 55.16 39.38 55.16 35.57 55.16 31.77 55.16 31.77 58.96 35.57 58.96 39.38 58.96 39.38 62.76 39.38 66.56 43.18 66.56 43.18 62.76 43.18 58.96"/>
    <path class="cls-1" d="M53.5,85.3v-9.01H31.77v3.32h8.46v5.63c0,5.2,2.22,7.82,6.66,7.82s6.6-2.59,6.6-7.76Zm-9.52,3.32c-.61-.76-.91-1.95-.91-3.59v-5.42h7.61v5.42c0,1.61-.3,2.8-.91,3.56-.55,.76-1.52,1.16-2.86,1.16s-2.31-.4-2.92-1.13Z"/>
    <polygon class="cls-1" points="43.82 101.37 53.43 96.93 53.43 93.56 40.68 99.87 31.77 99.87 31.77 102.87 40.68 102.87 53.43 109.19 53.43 105.82 43.82 101.37"/>
    <path class="cls-1" d="M36.12,113.38c0-.73-.18-1.31-.61-1.73-.43-.49-.97-.7-1.67-.7-.64,0-1.19,.21-1.61,.64s-.64,.97-.64,1.58c0,.33,.03,.58,.09,.76-.73,0-1.43-.27-2.13-.79-.67-.55-1.13-1.25-1.43-2.04h-1.89c.43,1.52,1.22,2.74,2.37,3.65,1.16,.88,2.49,1.34,4.05,1.34,1.03,0,1.86-.24,2.53-.73,.64-.55,.94-1.19,.94-1.98Z"/>
    <path class="cls-1" d="M42.27,143.56c.52-.85,1.22-2.77,2.13-5.69,.61-2.04,1.06-3.29,1.34-3.77,.58-1.1,1.34-1.61,2.31-1.61,1.1,0,1.89,.46,2.37,1.4,.43,.76,.64,1.86,.64,3.29,0,1.64-.3,2.86-.94,3.71-.61,.85-1.64,1.4-3.04,1.7v3.29c2.37-.21,4.11-1.06,5.23-2.59,1.1-1.43,1.61-3.41,1.61-5.93,0-2.31-.52-4.23-1.55-5.75-1.1-1.61-2.59-2.4-4.5-2.4s-3.35,.82-4.35,2.5c-.37,.67-.94,2.31-1.8,4.99-.73,2.4-1.22,3.83-1.46,4.32-.7,1.37-1.64,2.07-2.86,2.07-.97,0-1.73-.49-2.28-1.46-.55-.97-.85-2.28-.85-3.93,0-1.83,.33-3.16,1-4.05,.73-.97,1.98-1.58,3.68-1.83v-3.29c-2.74,.18-4.75,1.16-6.02,2.95-1.03,1.49-1.58,3.56-1.58,6.21s.55,4.87,1.64,6.39c1.13,1.52,2.65,2.28,4.59,2.28s3.56-.94,4.69-2.8Z"/>
    <path class="cls-1" d="M44.46,159.77v-1.86h5.63v-1.89h5.63v-2.22h-5.63v-1.86h-5.63v-1.89h-7.54v-1.92h-5.99v2.25h5.69v9.07h-5.69v2.19h5.99v-1.89h7.54Zm-5.66-2.19v-5.32h5.32v1.89h5.63v1.55h-5.63v1.89h-5.32Z"/>
    <polygon class="cls-1" points="50.67 162.97 50.67 170.24 31.77 170.24 31.77 173.52 50.67 173.52 50.67 180.77 53.5 180.77 53.5 162.97 50.67 162.97"/>
    <rect class="cls-1" x="31.77" y="183.44" width="21.72" height="3.29"/>
    <path class="cls-1" d="M56.66,219.34c0-.85-.45-1.91-1.35-3.13-1.42-1.94-4.01-3.91-8.39-6.38,.31-1.73,.47-3.41,.47-5.03,0-9.68-5.81-14.84-10.01-14.84-2.38,0-4.92,1.58-4.92,6.02,0,1.91,.84,4.57,2.39,7.6-1.58-.85-3.08-1.69-4.48-2.51-2.31-10.71-10.62-17.25-14.42-17.25-2.07,0-2.38,1.33-2.38,2.12,0,8.12,7.53,12.85,15.73,16.73,.15,.84,.25,1.74,.31,2.74l.03,.48h1.35l-.04-.54c-.05-.71-.11-1.37-.19-2,.87,.4,1.74,.79,2.6,1.17,.91,.41,1.81,.81,2.67,1.21,4.56,7.78,12.29,15.62,18.34,15.62,1.39,0,2.29-.79,2.29-2Zm-18.44-12.56c3.13,1.54,5.27,2.62,7.19,3.67l-.26,1.24,1.33,.25,.17-.8c3.84,2.19,6.25,4.06,7.57,5.86,.8,1.1,1.09,1.96,1.09,2.35,0,.45-.31,.68-.94,.68-5.12,0-11.77-6.44-16.15-13.24Zm-4.4-10.81c0-2.94,1.33-4.69,3.56-4.69,3.63,0,8.66,4.7,8.66,13.52,0,1.42-.13,2.88-.37,4.34-1.62-.88-3.32-1.73-5.1-2.63l-3.62-1.84c-1.99-3.48-3.13-6.65-3.13-8.7Zm-18.9-10.04c0-.39,.08-.8,1.03-.8,2.76,0,10.2,5.08,12.81,14.95-9.06-5.58-13.84-10.47-13.84-14.16Z"/>
    <polygon class="cls-1" points="31.77 222.29 31.77 225.61 41.51 225.61 41.51 236.41 44.34 236.41 44.34 225.61 50.67 225.61 50.67 237.05 53.5 237.05 53.5 222.29 31.77 222.29"/>
    <polygon class="cls-1" points="51.24 239.21 50.64 241.79 34.21 241.79 33.6 239.21 31.77 239.21 31.77 247.57 33.6 247.57 34.21 244.99 50.64 244.99 51.24 247.57 53.07 247.57 52.92 239.21 51.24 239.21"/>
    <polygon class="cls-1" points="41.51 254.39 41.51 265.95 44.34 265.95 44.34 254.39 50.67 254.39 50.67 266.68 53.5 266.68 53.5 251.07 31.77 251.07 31.77 267.2 34.6 267.2 34.6 254.39 41.51 254.39"/>
    <path class="cls-1" d="M57.57,283.65c0-4.11-1.43-7.61-4.35-10.5-2.89-2.92-6.39-4.35-10.5-4.35s-7.58,1.43-10.5,4.35-4.35,6.39-4.35,10.5,1.46,7.58,4.35,10.5c2.92,2.89,6.42,4.35,10.5,4.35s7.61-1.46,10.5-4.35c2.92-2.92,4.35-6.42,4.35-10.5Zm-24.4,9.55c-2.62-2.68-3.92-5.84-3.92-9.55s1.31-6.91,3.92-9.55c2.68-2.62,5.84-3.92,9.55-3.92s6.91,1.31,9.55,3.92c2.62,2.65,3.92,5.84,3.92,9.55s-1.31,6.88-3.92,9.55c-2.65,2.62-5.84,3.92-9.55,3.92s-6.88-1.31-9.55-3.92Z"/>
    <path class="cls-1" d="M52.86,284.11v-7.51h-20.42v7.45c0,3.32,.91,5.84,2.74,7.58,1.79,1.64,4.29,2.46,7.48,2.46s5.69-.82,7.42-2.43c1.86-1.7,2.77-4.23,2.77-7.55Zm-15.79,4.93c-1.19-1.16-1.79-3.01-1.79-5.57v-3.59h14.76v3.65c0,2.56-.58,4.41-1.77,5.57-1.16,1.13-3.04,1.7-5.6,1.7s-4.38-.61-5.6-1.76Z"/>
    <path class="cls-1" d="M35.48,304.61c.43-.46,.64-1,.64-1.61,0-.67-.21-1.19-.64-1.58-.43-.46-.97-.67-1.64-.67-.61,0-1.16,.21-1.61,.67-.4,.4-.61,.91-.61,1.58,0,.61,.21,1.16,.61,1.61,.46,.43,1,.67,1.61,.67,.67,0,1.22-.24,1.64-.67Z"/>
  </g>
  <g>
    <path class="cls-1" d="M37.14,492.02v11.56h2.83v-11.56h6.33v12.29h2.83v-12.54c.52,1.4,1.31,2.25,2.07,2.25,.33,0,1.4-.19,1.4-2.66s-.7-4.9-2.14-7.13c.21-.48,.45-1,.71-1.54,.96-2.04,2.04-4.35,2.04-6.29,0-.86-.15-1.77-.46-2.69,.92-.34,1.43-1.18,1.43-2.36,0-.95-.47-2.12-1.25-3.11-2.41-3.05-8.01-4.75-8.25-4.82l-.32-.1-.18,.91,.27,.08c.05,.02,5.47,1.64,7.76,4.49,.68,.86,1.06,1.76,1.06,2.55,0,1.04-.45,1.34-.87,1.44-1.05-2.42-3.16-4.79-5.64-4.79-.78,0-1.25,.48-1.25,1.28,0,3.35,3.88,4.6,6.33,4.6h0c.3,.86,.45,1.73,.45,2.52,0,1.58-1.02,3.8-1.92,5.76-.19,.4-.37,.79-.53,1.17-2.49-3.35-6.41-6.08-9.87-8.49l-.79-.57c.24-1.04,.5-2.03,.75-2.98,.76-2.89,1.48-5.62,1.48-9.63,0-6.76-5.08-11.81-9.62-11.81-2.93,0-6.09,2.54-6.09,8.13,0,8.49,5.54,12.15,11.41,16.03,.2,.14,.41,.27,.61,.4,.15,.1,.3,.19,.45,.29-.14,.73-.27,1.55-.33,2.34l-1.27-.87-.32,.65,1.56,1.37c.02,1.54,.29,2.99,.87,4.53l.11,.29,.87-.35-.1-.28c-.44-1.19-.7-2.27-.79-3.34l1.55,1.37,.06-1.67-1.65-1.11c.02-.72,.1-1.51,.26-2.38l.45,.31c3.54,2.45,7.51,5.36,9.93,8.85-.58,1.47-.84,2.63-.84,3.64,0,.22,.02,.42,.03,.63H27.4v16.13h2.83v-12.81h6.91Zm14.54-.66c0,1.14-.29,1.55-.48,1.55-.51,0-1.76-1.69-1.76-4.84,0-.72,.18-1.57,.57-2.65,1.13,1.94,1.68,3.88,1.68,5.94Zm-4.93-22.45c1.68,0,3.54,1.58,4.64,3.89-2.87-.3-4.91-2.66-4.91-3.68,0-.09,0-.21,.27-.21Zm-14.97-18.13c5.39,0,8.7,6.34,8.7,10.89,0,3.71-.68,6.36-1.4,9.16-.24,.92-.48,1.86-.7,2.86-6.79-5.24-11.32-12.07-11.32-17.1,0-2.82,1.65-5.81,4.71-5.81Z"/>
    <path class="cls-1" d="M50.89,521.18c-.25-.79-.62-1.64-1.09-2.53-.47-.88-1.02-1.76-1.63-2.62-2.07-2.88-3.95-4.28-5.73-4.28-.57,0-1.45,.16-2.03,1.01-1.17-2.1-2.43-3.78-3.78-5.01-1.65-1.51-3.36-2.28-5.08-2.28-1.07,0-2.01,.29-2.81,.87-.79,.57-1.39,1.39-1.8,2.44-.39,1-.59,2.2-.59,3.54,0,1.21,.19,2.56,.58,4.02,.38,1.45,.93,2.94,1.64,4.44l.13,.28,3.64,.74-.61-1.15c-.8-1.5-1.45-2.84-1.94-4-.48-1.15-.85-2.2-1.08-3.13-.54-2.15-.47-3.84,.41-4.93,.48-.59,1.08-.88,1.84-.88,1.68,0,3.56,1.39,5.58,4.13,1.26,1.71,2.27,3.44,3,5.14l.13,.29,2.16,.44v-1.02c.04-.96,.14-1.36,.18-1.48,.08-.2,.22-.37,.43-.52,.19-.14,.39-.21,.6-.21,.55,0,1.23,.3,2.01,.89,.83,.63,1.64,1.51,2.39,2.61,.57,.83,1.04,1.67,1.38,2.5,.33,.8,.49,1.47,.49,1.99,0,.81-.31,.81-.58,.81-.7,0-2.02-.44-4.35-2.55l-.41-.38-1.88,1.72,.44,.45c.62,.64,1.31,1.23,2.08,1.75,.77,.52,1.51,.93,2.23,1.2,.74,.29,1.42,.43,2.01,.43,.74,0,1.34-.24,1.79-.7,.81-.84,.84-2.25,.27-4.03Z"/>
    <polygon class="cls-1" points="49.12 532.85 49.12 529.56 27.4 529.56 27.4 544.81 30.23 544.81 30.23 532.85 49.12 532.85"/>
    <polygon class="cls-1" points="32.97 572.25 32.97 572.12 49.12 561.02 49.12 557.67 27.4 557.67 27.4 560.99 43.74 560.99 43.74 561.11 27.4 572.34 27.4 575.56 49.12 575.56 49.12 572.25 32.97 572.25"/>
    <path class="cls-1" d="M49.84,594.88c.72-1.17,1.09-2.53,1.09-4.05,0-1.63-.44-3.25-1.31-4.81-.86-1.55-2.04-2.95-3.52-4.16-1.47-1.21-3.18-2.18-5.06-2.9-1.89-.72-3.84-1.08-5.81-1.08-1.22,0-2.37,.18-3.41,.54-1.05,.36-1.96,.89-2.7,1.57-.74,.68-1.32,1.51-1.72,2.47-.4,.95-.6,2-.6,3.11,0,1.26,.23,2.5,.68,3.69,.45,1.18,1.13,2.32,2.02,3.38,.89,1.05,1.96,2.01,3.2,2.84,1.44,.97,3.01,1.74,4.65,2.28,1.65,.54,3.31,.81,4.93,.81s3.18-.32,4.48-.96c1.31-.64,2.34-1.56,3.06-2.73Zm-18.67-13.71c1.02-.45,2.25-.68,3.65-.68,1.51,0,3.17,.24,4.95,.7,1.78,.47,3.32,1.07,4.59,1.79,1.14,.64,2.12,1.38,2.91,2.18,.79,.8,1.39,1.66,1.8,2.57,.4,.9,.61,1.82,.61,2.73s-.15,1.66-.45,2.32c-.3,.66-.73,1.23-1.29,1.7-.56,.47-1.26,.84-2.08,1.09-.83,.26-1.78,.39-2.82,.39-1.34,0-2.83-.18-4.44-.55-1.61-.37-3.01-.82-4.15-1.35-1.29-.6-2.43-1.34-3.4-2.21-.96-.86-1.72-1.82-2.24-2.84-1.07-2.08-1.02-4.33,.04-5.94,.54-.83,1.33-1.47,2.33-1.91Z"/>
    <path class="cls-1" d="M52.56,625c-4.5,2.31-9.25,3.5-14.21,3.5s-9.68-1.19-14.21-3.5v1.55c4.5,2.25,9.25,3.38,14.21,3.38s9.71-1.13,14.21-3.38v-1.55Z"/>
    <polygon class="cls-1" points="46.29 606.19 46.29 613.43 27.4 613.43 27.4 616.75 46.29 616.75 46.29 623.99 49.12 623.99 49.12 606.19 46.29 606.19"/>
    <path class="cls-1" d="M52.56,603.61c-4.5-2.25-9.22-3.38-14.21-3.38s-9.71,1.13-14.21,3.38v1.55c4.53-2.34,9.28-3.5,14.21-3.5s9.71,1.16,14.21,3.5v-1.55Z"/>
    <path class="cls-1" d="M48.94,639.6l-.15,1.76c-2.92,.06-5.87,.06-8.82,.06v-5.54c2.95,0,5.9,0,8.79,.06l.18,1.76h1.22v-6.33h-1.22l-.15,1.58c-3.04,.06-6.09,.06-9.19,.06h-1.61c-3.04,0-6.15,0-9.19-.06l-.15-1.58h-1.25v6.33h1.25l.18-1.76c2.95-.06,6.08-.06,9.8-.06v5.54c-3.71,0-6.85,0-9.83-.06l-.15-1.76h-1.25v6.33h1.25l.15-1.58c3.04-.06,6.15-.06,9.19-.06h1.61c3.1,0,6.15,0,9.19,.06l.15,1.58h1.22v-6.33h-1.22Z"/>
    <rect class="cls-1" x="27.4" y="649.21" width="21.72" height="3.29"/>
    <polygon class="cls-1" points="32.97 672.15 32.97 672.03 49.12 660.92 49.12 657.57 27.4 657.57 27.4 660.89 43.74 660.89 43.74 661.01 27.4 672.24 27.4 675.46 49.12 675.46 49.12 672.15 32.97 672.15"/>
    <path class="cls-1" d="M36.72,691.08l-.29,3.87c-1.93,.05-3.96,.07-5.91,.07h-1.06c-.63-1.32-.91-2.76-.91-4.6,0-5.09,3.77-8.25,9.84-8.25s9.87,3.21,9.87,8.36c0,1.9-.29,3.23-.98,4.5l-4.52,.71v2.42l5.67-.14,.17-.28c1.32-2.17,1.92-4.46,1.92-7.44,0-7.02-4.87-11.74-12.12-11.74s-12.12,4.68-12.12,11.65c0,2.67,.36,5.04,2.09,7.88l.18,.29h1.93c2.29,0,4.24,.02,6.01,.05l.27,2.78h2.14v-10.15h-2.15Z"/>
    <path class="cls-1" d="M31.11,710.04c.43-.46,.64-1,.64-1.61,0-.67-.21-1.19-.64-1.58-.43-.46-.97-.67-1.64-.67-.61,0-1.16,.21-1.61,.67-.4,.4-.61,.91-.61,1.58,0,.61,.21,1.16,.61,1.61,.46,.43,1,.67,1.61,.67,.67,0,1.22-.24,1.64-.67Z"/>
  </g>
  <g>
    <polygon class="cls-1" points="22.85 732.75 22.85 736.61 33.42 736.61 33.42 749.48 36.92 749.48 36.92 736.61 45.48 736.61 45.48 751.05 48.98 751.05 48.98 732.75 22.85 732.75"/>
    <path class="cls-1" d="M46.96,767.71c-.25-.79-.62-1.64-1.09-2.53-.47-.88-1.02-1.76-1.63-2.62-2.07-2.88-3.95-4.28-5.73-4.28-.57,0-1.45,.16-2.03,1.01-1.17-2.1-2.43-3.78-3.78-5.01-1.65-1.51-3.36-2.28-5.08-2.28-1.07,0-2.01,.29-2.81,.87-.79,.57-1.39,1.39-1.8,2.44-.39,1-.59,2.2-.59,3.54,0,1.21,.19,2.56,.58,4.02,.38,1.45,.93,2.94,1.64,4.44l.13,.28,3.64,.74-.61-1.15c-.8-1.5-1.45-2.84-1.94-4-.48-1.15-.85-2.2-1.08-3.13-.54-2.15-.48-3.84,.41-4.93,.48-.59,1.08-.88,1.84-.88,1.68,0,3.56,1.39,5.58,4.13,1.26,1.71,2.27,3.44,3,5.14l.13,.29,2.16,.44v-1.02c.04-.96,.14-1.36,.18-1.48,.08-.2,.22-.37,.43-.52,.19-.14,.39-.21,.6-.21,.55,0,1.23,.3,2.01,.89,.83,.63,1.64,1.51,2.39,2.61,.57,.83,1.04,1.67,1.38,2.5,.33,.8,.49,1.47,.49,1.99,0,.81-.31,.81-.58,.81-.7,0-2.02-.44-4.35-2.55l-.41-.38-1.88,1.72,.44,.45c.62,.64,1.31,1.23,2.08,1.75,.77,.52,1.51,.93,2.23,1.2,.74,.29,1.42,.43,2.01,.43,.74,0,1.34-.24,1.79-.7,.81-.84,.84-2.25,.27-4.03Z"/>
    <path class="cls-1" d="M50.58,780.68c0-.94-.15-1.88-.46-2.81-.31-.93-.72-1.73-1.24-2.38l-.35-.43-1.98,1.29,.46,.53c.37,.43,.67,.98,.88,1.61s.32,1.36,.32,2.12c0,.98-.2,1.71-.59,2.16-.38,.43-.97,.64-1.81,.64h-.21v-3.37c0-1.8-.34-3.08-1.04-3.89-.71-.83-1.6-1.24-2.63-1.24-1.14,0-2.08,.46-2.79,1.35-.68,.85-1.02,2.05-1.02,3.56,0,1.29,.26,2.39,.78,3.25,.09,.15,.19,.3,.29,.44h-.97v2.54h7.55c1.58,0,2.8-.49,3.61-1.44,.79-.93,1.2-2.25,1.2-3.94Zm-10.21-.57c0-.91,.16-1.6,.48-2.05,.28-.39,.63-.58,1.12-.58,.42,0,.75,.17,1.02,.52,.21,.27,.46,.87,.46,2.17v3.23h-1.28c-.57-.28-1-.66-1.3-1.17-.33-.54-.5-1.26-.5-2.13Z"/>
    <path class="cls-1" d="M42.55,829.16c.13-1.26,.13-2.35-.04-3.56,.33,.04,.65,.06,.94,.06,2.59,0,4.43-1.25,5.21-3.52,2.91-.32,4.64-2.43,4.64-5.68,0-5.14-4.65-12.96-13.4-14.29l-.29-.04-.18,.9,.32,.05c8.25,1.25,12.64,8.58,12.64,13.39,0,2.63-1.26,4.32-3.48,4.72,.12-.58,.17-1.2,.17-1.83,0-6.13-5.58-11.91-9.91-11.91-2.23,0-3.25,2.13-3.25,4.11,0,5.2,7.42,10.49,11.72,10.64-.72,1.66-2.2,2.57-4.2,2.57-.36,0-.73-.03-1.1-.09-.95-4.48-4.03-7.57-7.44-10.56,.46-.34,.75-.8,.75-1.24,0-.48-.34-1.04-1.31-1.04-.46,0-.94,.23-1.33,.64-2.3-2-8.23-7.37-8.23-13.79,0-4.78,1.78-7.53,4.88-7.53,3.62,0,7.53,4.03,7.53,10.53,0,3.41-1.46,4.84-2.96,5.1,.56-1.57,.84-3.13,.84-4.66,0-4.8-2.87-8.52-5.34-8.52-2.24,0-3.16,3.13-3.16,4.81,0,4.13,3.47,8.49,6.34,9.21-.33,.74-.72,1.48-1.17,2.2l-.15,.24,.72,.54,.18-.28c.53-.84,.99-1.71,1.37-2.6,1.99-.06,4.25-1.67,4.25-6.05,0-7.07-4.38-11.44-8.43-11.44-3.15,0-6.4,3.55-6.4,9.5,0,6.33,3.51,9.04,7.22,11.91,.66,.51,1.34,1.04,2.01,1.59-.05,.12-.1,.23-.13,.34-.71-.16-1.34-.32-1.96-.49-2.79-.79-5.73-1.51-8.33-1.51-4.04,0-6.46,3.27-6.46,6.43,0,2.56,1.64,5.55,6.26,5.55s8.64-3.11,9.61-7.57l.07-.3-.9-.18-.06,.3c-.84,4.04-4.42,6.85-8.71,6.85-3.95,0-5.35-2.5-5.35-4.64,0-2.72,2.08-5.52,5.55-5.52,2.44,0,5.23,.71,7.65,1.37,.81,.22,1.65,.45,2.48,.63,0,.09,0,.19,0,.28,0,5.4,4.83,9.7,9.39,10.68,.19,1.25,.2,2.36,.07,3.66l-.03,.34h.91l.03-.28Zm-8.2-16.42c.23,0,.4,.06,.4,.14,0,.17-.19,.44-.54,.62l-.52-.45c.24-.23,.49-.31,.66-.31Zm-.32,1.77c3.32,2.84,6.37,5.76,7.35,9.97-4.07-1.05-8.29-4.95-8.29-9.72,0-.05,0-.09,0-.14,.05,0,.09,0,.14,0,.27,0,.54-.04,.8-.11Zm3.25-3.79c0-1.08,.33-2.37,1.9-2.37,4.55,0,9,6.3,9,11,0,.7-.08,1.35-.23,1.93-.04,0-.08,0-.12,0-3.73,0-10.56-6.21-10.56-10.56Zm-3.12-8.6c0,1.49-.3,3.04-.9,4.62-2.16-.66-5.23-5.45-5.23-9.18,0-1.13,.36-3.05,1.7-3.05,1.77,0,4.44,3.04,4.44,7.62Z"/>
    <path class="cls-1" d="M26.48,825.46c-.21-.3-.49-.55-.83-.73-.34-.19-.74-.28-1.16-.28-1.15,0-1.83,.68-1.83,1.83,0,.58,.24,1.1,.7,1.51,.44,.4,.98,.6,1.6,.6,.53,0,.98-.17,1.33-.5,.61-.58,.73-1.64,.19-2.42Z"/>
  </g>
  <g>
    <path class="cls-1" d="M30.27,867.76c.5-.95,.92-1.99,1.24-3.11,.31-1.08,.6-2.19,.86-3.28,.25-1.06,.55-2.05,.87-2.94,.3-.82,.71-1.48,1.23-1.97,.48-.45,1.11-.67,1.93-.67,.73,0,1.37,.19,1.95,.59,.57,.39,1.04,1.02,1.4,1.88,.37,.89,.56,2.06,.56,3.46,0,1.05-.16,2.16-.48,3.3-.31,1.13-.81,2.21-1.48,3.22l-.41,.62,3.24,1.37,.28-.41c.72-1.05,1.3-2.3,1.7-3.74,.4-1.42,.61-2.88,.61-4.33,0-2.19-.34-4.02-1-5.45-.68-1.45-1.59-2.55-2.72-3.26-1.13-.71-2.38-1.07-3.72-1.07-1.45,0-2.65,.32-3.56,.94-.9,.61-1.62,1.42-2.17,2.42-.52,.95-.94,2.01-1.24,3.14-.3,1.1-.58,2.19-.84,3.29-.25,1.06-.55,2.04-.88,2.91-.31,.81-.73,1.47-1.25,1.96-.48,.45-1.11,.67-1.93,.67-.68,0-1.29-.19-1.85-.58-.56-.39-1.02-1.03-1.36-1.89-.36-.91-.54-2.12-.54-3.6,0-1.55,.28-3.05,.83-4.45,.55-1.4,1.23-2.52,2.02-3.33l.58-.6-3.16-1.61-.31,.31c-1.01,.99-1.85,2.39-2.48,4.16-.63,1.75-.94,3.61-.94,5.52,0,2.21,.34,4.06,1,5.5,.67,1.46,1.59,2.57,2.72,3.3,1.13,.73,2.37,1.09,3.69,1.09,1.42,0,2.61-.32,3.51-.94,.88-.61,1.6-1.43,2.13-2.42Z"/>
    <path class="cls-1" d="M23.33,893.39c-.81-.88-1.46-2.05-1.93-3.47-.48-1.45-.72-3.04-.72-4.72,0-2.44,.42-4.26,1.24-5.4,.79-1.1,1.77-1.63,3.02-1.63,.91,0,1.62,.23,2.19,.7,.58,.48,1.03,1.17,1.32,2.05,.31,.93,.47,2.02,.47,3.26v6.91h3.5v-6.8c0-1.66,.34-2.94,1.01-3.8,.64-.83,1.54-1.24,2.75-1.24s2.1,.5,2.89,1.54c.81,1.07,1.23,2.74,1.23,4.96,0,1.25-.14,2.46-.43,3.6-.28,1.14-.73,2.24-1.34,3.27l-.36,.62,3.25,1.27,.27-.44c.67-1.09,1.19-2.4,1.55-3.88,.35-1.46,.53-3,.53-4.55,0-2.21-.33-4.09-.97-5.6-.66-1.54-1.56-2.71-2.69-3.48-1.13-.78-2.39-1.18-3.75-1.18s-2.46,.3-3.48,.9c-.83,.49-1.52,1.15-2.06,1.97-.54-1.15-1.3-2.08-2.26-2.79-1.04-.76-2.32-1.15-3.8-1.15s-2.78,.43-3.94,1.27c-1.15,.84-2.05,2.07-2.68,3.67-.62,1.56-.93,3.53-.93,5.85,0,2.09,.28,4.04,.83,5.8,.56,1.79,1.37,3.25,2.4,4.33l.31,.33,3.13-1.56-.55-.6Z"/>
    <path class="cls-1" d="M42.94,915.82v-5.02c0-.29-.23-.52-.52-.52h-8.16c-.41,0-.74-.33-.74-.74v-5.02c0-.41,.33-.74,.74-.74h8.16c.29,0,.52-.23,.52-.52v-5.02c0-.28-.23-.52-.52-.52h-8.16c-.29,0-.52,.23-.52,.52v5.02c0,.41-.33,.74-.74,.74h-1.88c-.29,0-.52,.23-.52,.52v5.02c0,.29,.23,.52,.52,.52h1.88c.41,0,.74,.33,.74,.74v5.02c0,.29,.23,.52,.52,.52h8.16c.29,0,.52-.23,.52-.52Z"/>
    <path class="cls-1" d="M27.24,915.82v-5.02c0-.41,.33-.74,.74-.74h1.88c.29,0,.52-.23,.52-.52v-5.02c0-.29-.23-.52-.52-.52h-1.88c-.41,0-.74-.33-.74-.74v-5.02c0-.29-.23-.52-.52-.52h-8.16c-.29,0-.52,.23-.52,.52v5.02c0,.29,.23,.52,.52,.52h8.16c.41,0,.74,.33,.74,.74v5.02c0,.41-.33,.74-.74,.74h-8.16c-.29,0-.52,.23-.52,.52v5.02c0,.29,.23,.52,.52,.52h8.16c.29,0,.52-.23,.52-.52Z"/>
    <path class="cls-1" d="M25.98,933.39c-2.08,0-3.59-.33-4.52-1-.93-.67-1.39-1.71-1.39-3.13,0-2.84,1.96-4.25,5.87-4.25h16.6v-2.85H25.68c-5.41,0-8.11,2.37-8.11,7.1,0,2.35,.65,4.1,1.96,5.25,1.31,1.15,3.38,1.73,6.22,1.73h16.79v-2.85H25.98Z"/>
    <path class="cls-1" d="M43.94,951.51c.83-.96,1.25-2.34,1.25-4.1,0-.99-.15-1.96-.46-2.89-.31-.94-.72-1.76-1.24-2.43l-.33-.43-2.32,1.39,.44,.55c.35,.44,.64,.98,.86,1.61,.21,.63,.32,1.32,.32,2.03,0,.94-.18,1.63-.55,2.06-.34,.4-.87,.59-1.64,.6v-3.12c0-1.77-.33-3.05-1-3.92-.7-.9-1.65-1.36-2.81-1.36s-2.12,.46-2.83,1.37c-.68,.86-1.02,2.08-1.02,3.61,0,1.08,.19,2.03,.56,2.82,.12,.26,.26,.51,.41,.73h-.86v2.97h7.44c1.65,0,2.92-.5,3.77-1.49h0Zm-7.37-7.01c.36,0,.62,.15,.84,.47,.18,.27,.39,.84,.39,2.01v2.91h-1.06c-1.07-.55-1.59-1.54-1.59-3.01,0-.82,.14-1.44,.43-1.86,.24-.36,.55-.51,.99-.51Z"/>
    <path class="cls-1" d="M41.44,975.63c.61-.97,.67-2.32,.02-3.62-.3-.59-.72-1.16-1.26-1.71-.53-.53-1.15-1.01-1.84-1.41-.72-.43-1.58-.81-2.55-1.12-.95-.31-2.3-.65-3.99-1.02l-5.8-1.23c-1.14-.24-2.04-.46-2.68-.67-.47-.15-.92-.34-1.36-.56,.93-3.44,.93-6.45,.03-8.18-.64-1.23-1.57-1.49-2.23-1.49-.62,0-1.49,.23-2.15,1.33-.47,.78-.7,1.81-.7,3.05,0,1.04,.2,2.1,.61,3.14,.36,.93,.86,1.76,1.48,2.48-.19,.67-.4,1.35-.61,2.03-.32,.99-.56,1.81-.73,2.43-.17,.64-.32,1.28-.44,1.92-.16,.91-.23,1.62-.23,2.17,0,.29,.03,.62,.1,.99l.06,.32,3.05,1.35-.21-1.15c-.12-.64-.18-1.23-.18-1.73,0-.73,.12-1.6,.36-2.61,.23-.97,.6-2.24,1.11-3.8,.57,.37,1.19,.69,1.87,.95,.94,.37,2.22,.73,3.79,1.07l7.24,1.54c1.19,.26,2.05,.47,2.56,.63,.49,.15,.98,.35,1.46,.59,1.36,.69,2.03,1.49,2.03,2.44,0,.48-.18,.68-.32,.78-.26,.2-.66,.3-1.2,.3-.66,0-1.5-.15-2.48-.46-1-.31-1.95-.7-2.82-1.17l-1.08-.58,.48,3.16,.3,.14c.79,.36,1.67,.66,2.61,.89,.96,.23,1.74,.35,2.39,.35,.73,0,1.39-.12,1.96-.37,.61-.26,1.08-.66,1.4-1.18Zm-21.77-13.24c-.24-.33-.44-.69-.6-1.08-.63-1.48-.6-3.27-.06-4.28,.2-.38,.41-.58,.63-.58,.63,0,.76,1.09,.76,2.01s-.24,2.24-.72,3.93Z"/>
    <path class="cls-1" d="M40.68,998.58c-.85-1.15-2.03-2.28-3.49-3.37-.55-.41-1.12-.79-1.71-1.15,.2,.02,.4,.03,.61,.05,1.71,.14,2.97,.21,3.75,.21h1.44l-1.43-3.15-.41,.02c-.27,.01-.58,.02-.93,.02-1.53,0-3.23-.11-5.04-.33-1.82-.22-3.59-.52-5.27-.88l-10.76-2.33v2.9l6.54,1.42-.07,.33c-.09,.44-.13,.84-.13,1.18,0,1.43,.4,2.89,1.2,4.33,.78,1.42,1.85,2.73,3.2,3.92,1.34,1.18,2.83,2.12,4.42,2.8,1.61,.69,3.24,1.04,4.84,1.04,1.35,0,2.45-.32,3.28-.95,1.71-1.3,1.83-3.55-.03-6.05Zm-15.35-6.31l1.22,.26c1.73,.39,3.28,.83,4.59,1.32,1.3,.49,2.52,1.1,3.64,1.83,1.58,1.01,2.84,2.04,3.75,3.08,.85,.97,1.28,1.8,1.28,2.48,0,.37-.16,.64-.52,.86-.44,.27-1.1,.41-1.96,.41-1.1,0-2.44-.24-3.98-.72-1.54-.48-2.84-1.06-3.87-1.73-1.09-.71-1.95-1.53-2.54-2.42-.93-1.4-1.04-2.8-.61-4.1l.14-.42-1.13-.84Z"/>
    <polygon class="cls-1" points="42.02 1010.73 42.02 1007.62 18.04 1007.62 18.04 1020.98 20.66 1020.98 20.66 1010.73 42.02 1010.73"/>
    <path class="cls-1" d="M19.69,1050.57c1.76,.07,3.65,.38,5.63,.9l.77,.21v-1.87l-.41-.15c-1.71-.62-2.86-1.19-3.4-1.71-.66-.66-.99-1.7-.99-3.09v-7.9c0-.48,.09-.77,.17-.89,0,0,.1-.1,.6-.1h8.03v6.93c0,.47-.08,.84-.27,1.11-.09,.15-.23,.31-.63,.44l-3.15,.87v1.56l.64-.02c1.98-.07,3.37-.11,4.14-.11,.42,0,1.09,0,2.01,.04l1.1,.04c.52,.02,.9,.03,1.12,.03h.61v-1.84l-2.35-.41c-.39-.07-.7-.2-.9-.38-.1-.2-.23-.6-.23-1.33v-6.93h7.32c.88,0,.88,.32,.88,.6v7.97c0,.52-.11,.93-.36,1.26-.21,.32-.54,.57-1.04,.77l-2.48,1.01v1.53l.65-.04c1.12-.07,1.83-.07,2.17-.07,.6,0,1.47,.04,2.59,.11l.67,.04-.02-.67c-.07-3-.11-5.73-.11-8.1,0-2.73,.04-6.09,.11-9.98v-.62s-1.68,0-1.68,0l-.43,3.07c-.01,.12-.05,.48-1.03,.48H21.74c-.29,0-.43-.06-.42-.01-.04-.06-.14-.26-.22-.79l-.31-2.9h-1.71v.62c.08,4.78,.12,8.11,.12,10.16,0,4.75-.04,7.95-.11,9.5l-.03,.61,.62,.03Z"/>
    <path class="cls-1" d="M22.29,1026.14c2.59-.88,5.46-1.32,8.52-1.32s5.96,.43,8.55,1.32c2.7,.91,4.88,2.15,6.65,3.78l.43,.4,1.23-1.23-.42-.43c-1.95-2.02-4.41-3.59-7.3-4.66-2.91-1.13-5.91-1.68-9.15-1.68s-6.28,.56-9.15,1.68c-2.86,1.09-5.3,2.66-7.23,4.67l-.42,.43,1.23,1.23,.43-.4c1.76-1.63,3.93-2.86,6.61-3.78Z"/>
    <path class="cls-1" d="M39.96,1056.58c2.99-1.15,5.38-2.67,7.3-4.66l.42-.43-1.23-1.23-.43,.39c-1.81,1.63-4.04,2.91-6.65,3.79-2.66,.88-5.54,1.32-8.56,1.32s-5.82-.44-8.52-1.32c-2.59-.89-4.82-2.16-6.62-3.79l-.43-.39-1.23,1.23,.42,.43c1.88,1.95,4.31,3.52,7.23,4.67,2.96,1.11,6.04,1.68,9.14,1.68s6.14-.55,9.14-1.68h0Z"/>
    <path class="cls-1" d="M48.85,1109.18l-.37-1.05c-1.4-4.01-10.22-11.72-15.49-16.33-.57-.5-1.09-.96-1.55-1.36-5.76-5.07-12.48-13.91-12.48-22.13,0-4.24,2.03-8.79,6.48-8.79,4.89,0,11.96,6.27,11.96,17.61,0,4.59-1.64,7.34-4.39,7.34-.09,0-.17,0-.26,0,.87-2.4,1.31-4.81,1.31-7.19,0-7.5-4.49-13.53-8.2-13.53-2.99,0-4.11,4.44-4.11,7.24,0,6.67,5.14,13,9.7,14.24-.33,.8-.71,1.61-1.13,2.4l-.15,.28,.83,.42,.14-.26c.49-.91,.9-1.78,1.26-2.65,.19,.02,.39,.04,.61,.04,3.35,0,5.35-3.16,5.35-8.45,0-7.54-4.6-18.44-12.93-18.44-6.54,0-8.27,7.78-8.27,11.9,0,8.46,6.9,15.24,13.66,20.75,4.08,3.35,11.83,10.15,15.13,14.39-2.51-1.88-7.97-5.97-15.02-11.16-.79-4.23-4.02-6.44-6.84-6.44-.61,0-1.16,.1-1.63,.29l-4.68-3.4v2.27l.15,.09c1.1,.68,2.19,1.37,3.23,2.05-.44,.61-.67,1.44-.67,2.42,0,3.11,2.13,5.87,3.74,7.67l1.75,1.99,.78-.58-1.78-2.03c-1.52-1.74-3.55-4.35-3.55-7.05,0-.81,.18-1.45,.55-1.91,2.81,1.81,5.53,3.62,8.1,5.38,.06,.43,.08,.89,.08,1.37v.31h.97v-.31c0-.23,0-.44-.02-.66,10.58,7.3,16.84,12.54,16.9,12.59l.85,.72Zm-22.98-44.48c2.91,0,7.23,5.28,7.23,12.56,0,2.27-.43,4.62-1.27,6.98-3.84-1.3-8.54-8.07-8.54-14.2,0-2,.33-5.35,2.57-5.35Zm-1.78,24.25c2.08,0,4.62,1.44,5.62,4.59-1.97-1.44-4.06-2.97-6.23-4.54,.2-.03,.41-.05,.62-.05Z"/>
    <path class="cls-1" d="M27.24,1120.59v-1.88c0-.41,.33-.74,.74-.74h5.02c.29,0,.52-.23,.52-.52v-1.88c0-.29-.23-.52-.52-.52h-5.02c-.29,0-.52,.23-.52,.52v1.88c0,.41-.33,.74-.74,.74h-1.88c-.41,0-.74-.33-.74-.74v-8.16c0-.29-.23-.52-.52-.52h-5.02c-.29,0-.52,.23-.52,.52v11.3c0,.29,.23,.52,.52,.52h8.16c.29,0,.52-.23,.52-.52Z"/>
    <path class="cls-1" d="M42.42,1108.77h-8.16c-.29,0-.52,.23-.52,.52v1.88c0,.41-.33,.74-.74,.74h-5.02c-.29,0-.52,.23-.52,.52v1.88c0,.29,.23,.52,.52,.52h5.02c.29,0,.52-.23,.52-.52v-1.88c0-.41,.33-.74,.74-.74h1.88c.41,0,.74,.33,.74,.74v8.16c0,.29,.23,.52,.52,.52h5.02c.29,0,.52-.23,.52-.52v-11.3c0-.29-.23-.52-.52-.52Z"/>
    <path class="cls-1" d="M28.29,1140.91c-.86,0-1.8-.08-2.78-.24-.94-.15-1.84-.46-2.65-.91-.78-.43-1.44-1.06-1.95-1.86-.5-.78-.76-1.86-.76-3.21s.25-2.42,.76-3.21c.51-.8,1.17-1.42,1.95-1.86,.81-.45,1.7-.76,2.65-.91,.98-.16,1.92-.24,2.78-.24h15.55v-3.57H27.68c-1.4,0-2.75,.16-4.03,.48-1.31,.33-2.49,.88-3.5,1.65-1.02,.78-1.85,1.81-2.46,3.07-.61,1.25-.92,2.8-.92,4.59s.31,3.34,.92,4.59c.61,1.26,1.44,2.29,2.46,3.07,1.01,.77,2.19,1.33,3.5,1.66,1.28,.32,2.63,.48,4.03,.48h16.16v-3.57h-15.55Z"/>
    <path class="cls-1" d="M19.32,1209v-6.6c3.01-.06,6.18-.06,9.68-.06v4.32l-2.95,.33v1.28h7.24v-1.28l-2.98-.33v-4.32c3.26,0,6.27,0,9.22,.06v6.05l-4.2,.64v1.73l5.48-.3v-13.36h-1.22l-.15,2.1c-3.04,.09-6.12,.09-9.19,.09h-1.61c-.52,0-1.03,0-1.55,0l.11-.08-2.59-2.92c-7.61-8.56-12.34-20.28-12.34-30.58s4.7-16.56,12.58-16.56c11.06,0,24.42,14.48,24.42,32.45,0,7.83-2.9,12.33-7.96,12.33-1.41,0-2.91-.34-4.48-1.01,2.01-3.56,3.03-7.44,3.03-11.56,0-9.39-5.89-15.94-11.17-15.94-2.87,0-5.95,2.16-5.95,8.22,0,9.23,6.03,16.67,11.84,19.92-.72,1.08-1.51,2.08-2.4,3.06l-.45,.5,1.27,.95,.38-.41c1-1.1,1.87-2.21,2.64-3.38,1.86,.82,3.64,1.24,5.3,1.24,2.87,0,9.54-1.36,9.54-13.91,0-18.85-14.22-34.03-26-34.03-8.73,0-14.16,6.95-14.16,18.14s4.9,22.85,12.79,31.7l1.68,1.88c-1.92,0-3.83-.03-5.7-.08l-.15-2.1h-1.25v13.94l5.45,.3v-1.76l-4.17-.64Zm4.99-35.3c0-4.16,1.63-6.64,4.36-6.64,4,0,9.59,5.46,9.59,14.35,0,3.86-.97,7.51-2.87,10.86-5.43-2.99-11.08-9.93-11.08-18.58Z"/>
    <path class="cls-1" d="M21.65,1218c.94-.97,.93-2.55,0-3.52-.47-.49-1.09-.74-1.83-.74s-1.32,.24-1.81,.72c-.5,.49-.76,1.08-.76,1.77s.25,1.29,.76,1.77c.5,.48,1.11,.72,1.81,.72s1.35-.25,1.83-.74Z"/>
  </g>
  <g>
    <path class="cls-1" d="M39.1,1258.77c1.1-2.08,1.65-4.53,1.65-7.27v-10.75H14.63v10.75c0,2.74,.56,5.19,1.65,7.27,1.1,2.1,2.66,3.75,4.62,4.92,1.96,1.17,4.24,1.76,6.79,1.76s4.83-.59,6.79-1.76c1.96-1.17,3.52-2.82,4.62-4.92Zm-1.85-14.17v6.75c0,2.09-.41,3.93-1.23,5.46-.81,1.52-1.94,2.71-3.35,3.55-1.41,.84-3.09,1.27-4.99,1.27s-3.54-.43-4.97-1.27c-1.42-.84-2.56-2.03-3.36-3.55-.81-1.53-1.23-3.36-1.23-5.46v-6.75h19.12Z"/>
    <polygon class="cls-1" points="37.25 1268.24 37.25 1273.29 18.13 1273.29 18.13 1268.24 14.63 1268.24 14.63 1282.13 18.13 1282.13 18.13 1277.12 37.25 1277.12 37.25 1282.13 40.76 1282.13 40.76 1268.24 37.25 1268.24"/>
    <path class="cls-1" d="M45.1,1330.51c0-5.72-13.17-13.29-16.9-14.93h-.03c-.78-1.36-1.46-2.61-2.06-3.84,.12,.01,.25,.02,.37,.02,2.86,0,5.92-2.58,5.92-9.83s-4.36-11.85-8.59-12.99c1.43-2.79,3.73-4.37,6.36-4.37,5.14,0,10.61,5.72,10.61,16.33,0,4.54-.3,11.11-2.91,15.78l-.16,.28,.83,.42,.14-.26c2.74-4.89,3.06-11.6,3.06-16.22,0-8.5-4.33-17.3-11.58-17.3-3.11,0-5.78,1.87-7.36,5.15-.34-.04-.66-.06-.96-.06-5.94,0-8.09,7.26-8.09,12.15,0,8.2,7.35,12.63,13.8,15.56,5.37,8.9,12.23,15.35,16.34,15.35,.75,0,1.2-.46,1.2-1.23Zm-1.2,.26c-3.56,0-9.82-5.81-14.79-13.65,4.83,2.44,15.01,8.81,15.01,13.39,0,.24-.1,.26-.23,.26Zm-12.47-28.85c0,6.54-2.56,8.87-4.96,8.87-.19,0-.37-.02-.54-.04,1.35-1.92,2.06-4.14,2.06-6.45,0-6.42-2.81-10.66-5.53-11.14,.21-1.2,.52-2.32,.95-3.33,3.94,.94,8.03,5.42,8.03,12.09Zm-6.34,9.89c.5,1.03,1.04,2.07,1.63,3.12l-.4-.17c-.93-.4-1.83-.91-2.68-1.51l.21-.19c.5-.45,.9-.85,1.25-1.25Zm-2.96-14.48c0-1.2,.06-2.26,.19-3.22,2.06,.36,4.71,3.92,4.71,10.19,0,2.09-.58,4.01-1.73,5.7-2.07-4.61-3.17-8.98-3.17-12.67Zm-.97,0c0,3.75,1.1,8.19,3.18,12.89-3.05-1.67-4.91-6.89-4.91-11.14,0-1.65,.26-4.37,1.91-4.91-.12,.97-.18,2.01-.18,3.17Zm1.26-7.67c-.41,1.04-.73,2.21-.93,3.49-2.87,.5-3.52,5.49-3.52,7.24,0,4.57,2.3,8.82,5.72,10.58,.2,.1,.4,.2,.61,.29-.31,.34-.65,.68-1.07,1.06l-.21,.19,.47,.63c-4.64-3.32-7.96-9.22-7.96-14.67,0-4.4,1.96-8.83,6.34-8.83,.2,0,.38,0,.56,.02Z"/>
    <path class="cls-1" d="M38.85,1347.61c0,.41,.3,.75,.89,1.02l.75,.33,2.55,1.16c.78-2.2,1.16-4.32,1.16-6.37,0-4.05-1.44-7.43-4.32-10.14-2.88-2.71-6.47-4.06-10.76-4.06-2.9,0-5.24,.73-7.01,2.2-1.77,1.46-2.66,3.39-2.66,5.79,0,2.53,.91,5.11,2.72,7.72l-3.01-.34c-2.81-.32-4.73-.85-5.78-1.59-1.05-.73-1.57-1.93-1.57-3.6,0-2.21,1.02-3.84,3.07-4.91l-2.05-2.58c-1.67,1.35-2.5,3.25-2.5,5.68,0,2.64,1,4.91,2.99,6.8,.98,.95,2.06,1.63,3.22,2.05s2.92,.76,5.27,1.02l6.98,.77c.47,.06,1.04,.16,1.68,.31l1.09,.28,.71,.17v-4.62l-.02-1.75c0-1.42-.15-2.39-.45-2.91-.3-.52-1.04-1.06-2.22-1.64,.39,1.2,.59,2.81,.59,4.81v2.95l-6.26-.71c-1.57-1.87-2.36-3.8-2.36-5.79,0-2.17,.77-3.86,2.31-5.08s3.68-1.83,6.42-1.83c3.73,0,6.73,.87,8.99,2.61,2.26,1.74,3.39,4.05,3.39,6.94,0,1.38-.29,2.59-.86,3.63-.58,1.04-1.25,1.56-2.02,1.56-.23,0-.52-.08-.88-.24-.03,.16-.05,.28-.05,.36Z"/>
    <path class="cls-1" d="M37.54,1367.66l-.04,.58c-.15,2.39-.43,2.77-4.01,2.77h-9.35c-2.93,0-4.12-.17-5.33-1.17-1.18-1.02-1.89-2.87-1.89-4.94,0-1.76,.48-3.15,1.43-4.12,1.21-1.24,2.62-1.38,5.32-1.38h11.1c2.29,0,2.5,.07,2.73,2.68l.05,.56h1.85v-11.29h-1.86l-.04,.57c-.2,2.56-.38,2.63-2.38,2.63h-11.03c-3.96,0-6.64,1.02-8.21,3.12-1.18,1.57-1.76,3.67-1.76,6.42,0,3.44,.94,6.02,2.8,7.64,1.99,1.75,4.12,2.07,7.59,2.07h9.07c3.27,0,3.67,.29,3.91,2.79l.05,.56h1.85v-9.48h-1.87Z"/>
    <path class="cls-1" d="M24.44,1391.15v-1.88c0-.41,.33-.74,.74-.74h5.02c.29,0,.52-.23,.52-.52v-1.88c0-.29-.23-.52-.52-.52h-5.02c-.29,0-.52,.23-.52,.52v1.88c0,.41-.33,.74-.74,.74h-1.88c-.41,0-.74-.33-.74-.74v-8.16c0-.29-.23-.52-.52-.52h-5.02c-.29,0-.52,.23-.52,.52v11.3c0,.29,.23,.52,.52,.52h8.16c.29,0,.52-.23,.52-.52Z"/>
    <path class="cls-1" d="M30.94,1379.85v1.88c0,.41-.33,.74-.74,.74h-5.02c-.29,0-.52,.23-.52,.52v1.88c0,.29,.23,.52,.52,.52h5.02c.29,0,.52-.23,.52-.52v-1.88c0-.41,.33-.74,.74-.74h1.88c.41,0,.74,.33,.74,.74v8.16c0,.29,.23,.52,.52,.52h5.02c.29,0,.52-.23,.52-.52v-11.3c0-.29-.23-.52-.52-.52h-8.16c-.29,0-.52,.23-.52,.52Z"/>
    <path class="cls-1" d="M46.02,1411.66c0-4.97-1.77-9.25-5.26-12.7-3.46-3.5-7.73-5.27-12.71-5.27s-9.21,1.77-12.7,5.27c-3.49,3.49-5.27,7.77-5.27,12.7s1.77,9.17,5.27,12.71c3.53,3.49,7.8,5.26,12.7,5.26s9.21-1.77,12.7-5.27,5.27-7.77,5.27-12.7Zm-33.97,0c0-4.39,1.58-8.19,4.69-11.3,3.16-3.16,6.86-4.69,11.3-4.69s8.18,1.53,11.3,4.69h0c.6,.6,1.14,1.22,1.63,1.85-.29-.18-.65-.25-.82-.29l-4.56-.99c-.69-.18-1.08-.2-1.19-.2-.59,0-.9,.42-.9,.83s.34,.79,1.16,1.22c1.65,.83,2.21,1.29,2.37,1.45,.44,.44,.64,1.1,.64,2.09v3.98H19.87c-.67,0-.88-.1-.88-.09-.14-.11-.26-.38-.37-.8l-.67-3.26h-1.68l.04,.65c.09,1.56,.14,3.14,.14,4.69,0,1.72-.05,3.27-.14,4.76l-.04,.65h1.68l.71-3.19c.14-.51,.26-.63,.25-.62,.05-.03,.28-.13,.94-.13h17.85v3.98c0,1.08-.15,1.81-.43,2.13-.14,.14-.61,.5-1.99,.83-1.08,.27-1.78,.49-1.78,1.13,0,.31,.17,.83,1.28,.83l5.2,.07c.15,0,.28-.01,.4-.04-.31,.37-.65,.73-1.01,1.09-3.11,3.11-6.92,4.69-11.3,4.69s-8.16-1.58-11.3-4.69c-3.12-3.15-4.7-6.95-4.7-11.31Zm28.12,8.33c-.14-.06-.41-.51-.41-1.78v-12.84c0-.72,.1-.89,.13-.94,.06-.1,.25-.28,.63-.47h.02c.47-.27,.89-.53,.89-1.01,0-.05,0-.09,0-.13,1.76,2.57,2.62,5.49,2.62,8.85s-.95,6.55-2.9,9.22c-.07-.6-.78-.83-.97-.9Z"/>
    <path class="cls-1" d="M18.85,1435.76c.94-.97,.94-2.56,0-3.52-.47-.49-1.09-.74-1.83-.74s-1.32,.24-1.81,.72c-.5,.48-.76,1.08-.76,1.77s.25,1.29,.76,1.77c.5,.48,1.11,.72,1.81,.72s1.35-.25,1.83-.74Z"/>
  </g>
  <g>
    <path class="cls-1" d="M41.89,1471.37l-26.12-11.94v4.09l6.65,2.98v13.1l-6.65,2.98v4.13l26.12-11.94v-3.38Zm-16.11-3.37l11.28,5.05-11.28,5.05v-10.09Z"/>
    <path class="cls-1" d="M42.11,1501.6c0-2.31-.51-4.32-1.51-5.99-.41-.68-.92-1.29-1.53-1.83h2.82v-3.75H15.77v3.86h14.77c2.76,0,4.8,.65,6.07,1.94,1.27,1.28,1.92,3.06,1.92,5.28s-.6,3.81-1.83,5.02c-1.21,1.19-3.09,1.8-5.56,1.8H15.77v3.86h15.45c3.49,0,6.21-.92,8.07-2.73,1.87-1.82,2.82-4.32,2.82-7.45Z"/>
    <path class="cls-1" d="M42.09,1579.81c0-3.61-1.63-7.9-4.85-12.73-2.37-3.58-4.78-6.25-7.58-8.4,.3-2.25,1.51-7.03,6.43-7.03,3.13,0,5.49,2.64,5.49,6.13,0,2.5-1.26,4.37-3.2,4.75-.06,.01-.11,.02-.15,.02-.11,.02-.41,.06-.41,.35,0,.38,.42,.38,.63,.38,2.79,0,4.25-2.78,4.25-5.54,0-3.84-2.54-7.99-6.64-7.99-5.51,0-6.95,5.38-7.32,8.21-3.2-2.3-6.05-3.49-8.7-3.62-1.32-.07-2.39,.28-3.17,1.02-.82,.78-1.28,2.01-1.28,3.44,0,2.11,1.16,4.29,2.35,5.97-2.34-1.8-5.8-4.68-8.71-7.95-3.09-3.46-8.28-10.77-8.28-20.78,0-6.65,1.8-12.06,5.07-15.22,2.29-2.21,5.25-3.27,8.8-3.15,7.92,.28,12.65,8.22,12.65,15.73,0,6.78-4,10.44-7.77,10.44-4.14,0-7.77-3.75-7.77-8.02,0-.85,.1-1.61,.31-2.26,.04-.14,.09-.25,.13-.32,.17-.35,.03-.5-.15-.59-.42-.14-.69,.48-.73,.58-.32,.64-.49,1.58-.49,2.66,0,4.96,3.48,10.27,8.67,10.27,5.99,0,9.13-6.38,9.13-12.68,0-10.7-7.23-16.72-14.03-16.95-3.79-.13-6.96,1.01-9.41,3.38-4.66,4.5-5.35,12-5.35,16.07,0,10.28,3.76,16.68,7.82,22.06,3.31,4.39,9.31,8.94,13.7,12.26,.71,.54,1.39,1.05,1.98,1.51,.19,.18,.37,.35,.54,.5,.69,.65,1.18,1.12,1.83,1.4,.46,.2,.82,.22,1.09,.06,.14-.08,.31-.26,.34-.61,.05-.69-.48-1.43-1.48-2.15-2.26-1.61-3.44-2.77-5.09-4.38-2.07-2.01-4.17-5.29-4.17-7.68,0-.8,.19-1.38,.59-1.75,.49-.45,1.31-.63,2.53-.54,3.25,.23,6.08,2.15,8.93,4.3,.12,4.74,.98,8.56,2.97,13.16,1.95,4.46,5.25,9.25,7.89,9.25,1.8,0,2.62-1.85,2.62-3.58Zm-9.67-6.1c-1.81-4.04-2.73-7.87-2.87-12.01,2.35,1.86,4.35,3.89,6.41,6.52,2.23,2.82,5.2,7.08,5.2,11.48,0,1.14-.57,1.72-1.69,1.72-2.49,0-5.4-4-7.05-7.71h0Z"/>
    <path class="cls-1" d="M24.73,1603.22c.72,1.62,1.78,2.89,3.14,3.77,1.36,.88,3,1.33,4.87,1.33s3.58-.45,4.94-1.32c1.36-.88,2.42-2.15,3.14-3.77,.71-1.59,1.07-3.5,1.07-5.69v-9.93H15.77v3.86h7.9v6.07c0,.59,.03,1.16,.08,1.71l-7.97,5.65v4.39l8.86-6.31c.03,.08,.07,.17,.11,.25Zm8.01,1.24c-1.79,0-3.14-.56-4.12-1.72-.99-1.17-1.49-2.95-1.49-5.28v-6h11.26v6c0,2.33-.5,4.1-1.49,5.28-.98,1.16-2.34,1.72-4.16,1.72Z"/>
    <rect class="cls-1" x="27.88" y="1625.98" width="3.83" height="3.83"/>
    <rect class="cls-1" x="31.71" y="1629.82" width="3.83" height="3.83"/>
    <rect class="cls-1" x="35.55" y="1633.65" width="3.83" height="3.83"/>
    <rect class="cls-1" x="12.55" y="1622.15" width="15.33" height="3.83"/>
    <rect class="cls-1" x="27.88" y="1618.32" width="3.83" height="3.83"/>
    <rect class="cls-1" x="35.55" y="1610.65" width="3.83" height="3.83"/>
    <rect class="cls-1" x="31.71" y="1614.48" width="3.83" height="3.83"/>
    <path class="cls-1" d="M19.99,1647.52c.94-.97,.94-2.56,0-3.52-.47-.49-1.09-.74-1.83-.74s-1.32,.24-1.81,.72c-.5,.48-.76,1.08-.76,1.77s.25,1.29,.76,1.77c.5,.48,1.11,.72,1.81,.72s1.35-.25,1.83-.74Z"/>
  </g>
  <g>
    <path class="cls-1" d="M54,366.99c.64,0,1.04-.41,1.04-1.07,0-4.76-10.93-11.06-14.03-12.42h-.01c-.63-1.08-1.17-2.09-1.66-3.07,.07,0,.15,0,.22,0,2.4,0,4.96-2.15,4.96-8.2s-3.59-9.81-7.09-10.79c1.17-2.25,3.05-3.54,5.2-3.54,4.23,0,8.73,4.72,8.73,13.48,0,5.88-.79,10.15-2.41,13.04l-.16,.28,.78,.39,.14-.26c2.28-4.06,2.54-9.63,2.54-13.46,0-7.07-3.61-14.38-9.64-14.38-2.58,0-4.81,1.55-6.13,4.26-.27-.03-.53-.05-.76-.05-4.96,0-6.76,6.05-6.76,10.11,0,6.82,6.1,10.49,11.45,12.93,4.45,7.38,10.15,12.73,13.57,12.73Zm0-.91c-2.91,0-8.01-4.72-12.1-11.12,4.05,2.08,12.24,7.24,12.24,10.96,0,.16-.05,.16-.14,.16Zm-10.38-23.84c0,5.38-2.09,7.29-4.05,7.29-.12,0-.24,0-.36-.02,1.09-1.58,1.66-3.4,1.66-5.3,0-5.3-2.31-8.82-4.58-9.27,.17-.96,.42-1.85,.76-2.65,3.23,.79,6.57,4.48,6.57,9.95Zm-5.21,8.29c.38,.78,.79,1.58,1.24,2.38l-.19-.08c-.75-.32-1.47-.73-2.16-1.21l.12-.11c.39-.35,.71-.67,.99-.98Zm-2.39-12.09c0-.97,.05-1.83,.15-2.6,1.68,.35,3.8,3.27,3.8,8.38,0,1.69-.46,3.24-1.37,4.61-1.69-3.78-2.58-7.36-2.58-10.39Zm-.91,0c0,3.08,.89,6.71,2.57,10.55-2.43-1.45-3.9-5.66-3.9-9.11,0-1.33,.2-3.49,1.47-3.99-.09,.78-.14,1.61-.14,2.55Zm1.02-6.31c-.33,.84-.58,1.78-.74,2.8-2.38,.46-2.92,4.58-2.92,6.04,0,3.8,1.91,7.35,4.76,8.81,.14,.07,.29,.14,.44,.21-.24,.26-.51,.53-.83,.82l-.21,.19,.21,.27c-3.68-2.77-6.29-7.51-6.29-11.89,0-2.7,1.1-7.26,5.2-7.26,.14,0,.26,0,.39,.01Z"/>
    <rect class="cls-1" x="37.6" y="363.57" width="3.03" height="1.47"/>
    <rect class="cls-1" x="49.81" y="369.6" width="3.03" height="1.56"/>
    <rect class="cls-1" x="34.54" y="362.04" width="3.06" height="1.53"/>
    <rect class="cls-1" x="31.5" y="360.48" width="3.03" height="1.56"/>
    <rect class="cls-1" x="36.07" y="365.04" width="1.53" height="10.69"/>
    <rect class="cls-1" x="40.63" y="374.25" width="3.09" height="1.47"/>
    <rect class="cls-1" x="31.5" y="378.82" width="3.03" height="1.47"/>
    <rect class="cls-1" x="34.54" y="377.26" width="3.06" height="1.56"/>
    <rect class="cls-1" x="37.6" y="375.73" width="3.03" height="1.53"/>
    <rect class="cls-1" x="43.72" y="372.7" width="3" height="1.56"/>
    <rect class="cls-1" x="40.63" y="365.04" width="3.09" height="1.56"/>
    <rect class="cls-1" x="46.72" y="368.13" width="3.09" height="1.47"/>
    <rect class="cls-1" x="46.72" y="371.16" width="3.09" height="1.53"/>
    <rect class="cls-1" x="43.72" y="366.6" width="3" height="1.53"/>
    <path class="cls-1" d="M48.67,404.94c2.07-1.73,3.13-4.35,3.13-7.78v-7.99H29.76v7.6c0,3.39,1.04,6.05,3.08,7.91,1.95,1.77,4.62,2.66,7.94,2.66s6.05-.81,7.89-2.42Zm.52-12.95v4.9c0,2.73-.71,4.66-2.18,5.91-1.34,1.15-3.44,1.73-6.23,1.73s-4.76-.67-6.19-1.98c-1.49-1.38-2.22-3.36-2.22-6.04v-4.52h16.82Z"/>
    <path class="cls-1" d="M55.12,409.07v-2.27l-.74,.38c-4.3,2.21-8.85,3.33-13.51,3.33s-9.18-1.12-13.51-3.33l-.74-.38v2.27l.28,.14c4.41,2.2,9.11,3.32,13.97,3.32s9.57-1.12,13.97-3.32l.28-.14Z"/>
    <path class="cls-1" d="M55.12,388.52v-2.27l-.28-.14c-4.41-2.2-9.11-3.32-13.97-3.32s-9.57,1.12-13.97,3.32l-.28,.14v2.27l.75-.38c4.27-2.21,8.82-3.33,13.51-3.33s9.27,1.12,13.51,3.33l.75,.39Z"/>
    <path class="cls-1" d="M44.6,416.26c0-.53-.18-.94-.53-1.27-.35-.35-.77-.53-1.27-.53s-.94,.18-1.3,.53c-.32,.32-.5,.74-.5,1.27,0,.47,.18,.91,.5,1.27,.35,.35,.79,.53,1.3,.53s.91-.18,1.27-.53c.35-.35,.53-.79,.53-1.27Z"/>
    <path class="cls-1" d="M33.83,416.26c0-.53-.18-.94-.53-1.27-.35-.35-.77-.53-1.27-.53s-.94,.18-1.3,.53c-.32,.32-.5,.74-.5,1.27,0,.47,.18,.91,.5,1.27,.35,.35,.79,.53,1.3,.53s.91-.18,1.27-.53c.35-.35,.53-.79,.53-1.27Z"/>
    <path class="cls-1" d="M40.86,424.15c2.53,0,5.06,.41,7.65,1.3,2.12,.65,4.15,1.59,6.09,2.8v-2.06c-1.88-1.3-3.92-2.3-6.06-3.03-2.53-.88-5.09-1.3-7.71-1.3s-5.12,.41-7.65,1.3c-2.12,.74-4.15,1.74-6.06,3.03v2.06c1.97-1.21,4-2.15,6.09-2.8,2.59-.88,5.15-1.3,7.65-1.3Z"/>
  </g>
  <g>
    <polygon class="cls-1" points="34.83 1670.84 34.83 1679.34 12.74 1679.34 12.74 1683.18 34.83 1683.18 34.83 1691.65 38.14 1691.65 38.14 1670.84 34.83 1670.84"/>
    <polygon class="cls-1" points="24.12 1698.58 24.12 1712.1 27.43 1712.1 27.43 1698.58 34.83 1698.58 34.83 1712.95 38.14 1712.95 38.14 1694.71 12.74 1694.71 12.74 1713.56 16.05 1713.56 16.05 1698.58 24.12 1698.58"/>
    <polygon class="cls-1" points="26.08 1719.46 30.53 1719.46 34.97 1719.46 34.97 1723.91 34.97 1728.35 39.42 1728.35 39.42 1723.91 39.42 1719.46 39.42 1715.01 34.97 1715.01 30.53 1715.01 26.08 1715.01 21.63 1715.01 17.19 1715.01 12.74 1715.01 12.74 1719.46 17.19 1719.46 21.63 1719.46 21.63 1723.91 21.63 1728.35 26.08 1728.35 26.08 1723.91 26.08 1719.46"/>
    <polygon class="cls-1" points="30.53 1728.35 26.08 1728.35 26.08 1732.8 30.53 1732.8 34.97 1732.8 34.97 1728.35 30.53 1728.35"/>
    <polygon class="cls-1" points="12.74 1728.35 12.74 1732.8 17.19 1732.8 21.63 1732.8 21.63 1728.35 17.19 1728.35 12.74 1728.35"/>
    <path class="cls-1" d="M29.81,1748.59c.43,1,1.21,1.53,2.35,1.53,1.03,0,1.78-.32,2.28-.96,.5-.64,.75-1.53,.75-2.74v-4.41h-10.24v2.13h3.98v1.85c0,.78-.21,1.28-.64,1.56-.25,.14-.78,.28-1.56,.36-.78,.07-1.39,.25-1.78,.5v2.42c.5-.5,1.32-.75,2.38-.82,1.42-.07,2.24-.57,2.49-1.42Zm.96-2.35v-2.1h2.6v2.1c0,1.14-.43,1.74-1.28,1.74s-1.32-.6-1.32-1.74Z"/>
    <path class="cls-1" d="M38.63,1746.14c0-2.38-.82-4.41-2.49-6.05-1.67-1.71-3.7-2.52-6.08-2.52s-4.38,.82-6.08,2.52-2.49,3.66-2.49,6.05,.85,4.38,2.49,6.05c1.71,1.67,3.73,2.53,6.08,2.53s4.41-.85,6.08-2.53c1.67-1.67,2.49-3.7,2.49-6.05Zm-13.66,5.09c-1.39-1.42-2.1-3.09-2.1-5.09s.71-3.7,2.1-5.09c1.42-1.42,3.09-2.1,5.09-2.1s3.7,.68,5.12,2.1c1.42,1.39,2.1,3.09,2.1,5.09s-.68,3.66-2.1,5.09c-1.42,1.39-3.13,2.1-5.12,2.1s-3.66-.71-5.09-2.1Z"/>
    <rect class="cls-1" x="12.74" y="1757.59" width="25.4" height="3.84"/>
    <polygon class="cls-1" points="12.74 1766.48 12.74 1770.36 24.12 1770.36 24.12 1782.99 27.43 1782.99 27.43 1770.36 34.83 1770.36 34.83 1783.73 38.14 1783.73 38.14 1766.48 12.74 1766.48"/>
    <polygon class="cls-1" points="35.5 1786.26 34.79 1789.28 15.59 1789.28 14.88 1786.26 12.74 1786.26 12.74 1796.04 14.88 1796.04 15.59 1793.01 34.79 1793.01 35.5 1796.04 37.64 1796.04 37.46 1786.26 35.5 1786.26"/>
    <path class="cls-1" d="M16.19,1814.98c-.45-1.51-.68-3.09-.68-4.75,0-2.47,.4-4.29,1.19-5.46,.79-1.17,1.83-1.76,3.11-1.76,.9,0,1.65,.25,2.24,.75,.59,.5,1.03,1.2,1.32,2.1,.28,.9,.43,1.96,.43,3.17v6.54h3.06v-6.4c0-1.64,.33-2.89,1-3.77,.66-.88,1.61-1.32,2.85-1.32s2.18,.55,2.97,1.65,1.19,2.77,1.19,5c0,1.28-.14,2.51-.41,3.68-.27,1.17-.71,2.32-1.3,3.43l2.85,1.03c.62-1.07,1.09-2.32,1.42-3.77,.33-1.45,.5-2.95,.5-4.52,0-2.25-.32-4.13-.96-5.64-.64-1.51-1.49-2.62-2.54-3.34-1.06-.72-2.21-1.08-3.47-1.08-1.16,0-2.21,.25-3.13,.76s-1.65,1.25-2.17,2.21c-.07,.13-.13,.27-.19,.41-.09-.28-.2-.55-.33-.82-.51-1.09-1.24-1.97-2.19-2.63-.95-.66-2.08-1-3.38-1-1.38,0-2.6,.4-3.68,1.19-1.08,.79-1.92,1.98-2.53,3.56-.6,1.58-.91,3.53-.91,5.85,0,2.04,.26,3.92,.76,5.66,.51,1.73,1.21,3.13,2.12,4.2l2.77-1.21c-.83-.97-1.47-2.21-1.92-3.72Z"/>
    <path class="cls-1" d="M31.74,1852.17c.74-.24,1.46-.56,2.14-.95,.59-.34,1.13-.74,1.62-1.21,.71,.79,1.32,1.68,1.8,2.63,.53,1.05,.9,2.16,1.11,3.31l.06,.32,.87-.22-.04-.28c-.19-1.28-.58-2.51-1.15-3.65-.53-1.06-1.16-2.08-1.87-3.03,.71-.97,1.27-2.05,1.67-3.21,.42-1.24,.64-2.58,.64-3.98,0-2.35-.45-4.58-1.32-6.61-.87-2.02-2.01-3.81-3.36-5.3-1.36-1.49-2.86-2.68-4.48-3.53-1.63-.86-3.22-1.3-4.73-1.3-.86,0-1.69,.12-2.47,.35-.79,.23-1.5,.59-2.09,1.05-.6,.46-1.09,1.06-1.46,1.78-.36,.72-.55,1.56-.55,2.5,0,1.23,.27,2.38,.8,3.41,.53,1.03,1.27,1.94,2.21,2.7,.94,.75,2.06,1.35,3.33,1.76,1.27,.41,2.67,.62,4.17,.62h1.34v-1.04h-1.52c-1.22,0-2.4-.17-3.52-.52-1.11-.34-2.1-.83-2.93-1.43-.83-.6-1.49-1.33-1.98-2.18-.48-.84-.72-1.77-.72-2.78,0-.8,.14-1.47,.41-1.99,.27-.52,.65-.95,1.13-1.28,.49-.33,1.05-.57,1.69-.7,.65-.14,1.36-.21,2.09-.21,1.84,0,3.56,.42,5.12,1.24,1.57,.83,2.95,1.95,4.11,3.32,1.16,1.38,2.07,2.97,2.72,4.75,.65,1.77,.98,3.62,.98,5.5,0,.99-.17,2.09-.5,3.28-.3,1.06-.79,2.04-1.47,2.93-1.01-1.16-2.18-2.25-3.51-3.23-1.42-1.05-2.93-2.06-4.49-3-1.55-.94-3.13-1.85-4.69-2.73-1.55-.87-2.99-1.77-4.28-2.67-1.28-.9-2.4-1.85-3.33-2.84-.89-.95-1.5-2-1.8-3.13,.09-.59,.18-1.08,.25-1.49,.08-.43,.16-.81,.23-1.15,.07-.35,.13-.67,.16-.95,.04-.28,.06-.58,.06-.88,0-.45-.06-.81-.19-1.1-.15-.36-.46-.56-.87-.56s-.73,.24-.88,.67c-.12,.34-.18,.81-.18,1.42,0,.48,.01,.91,.04,1.28,.02,.38,.06,.72,.11,1.02,.05,.3,.1,.6,.16,.9,.05,.27,.1,.56,.15,.87-.09,.39-.17,.77-.25,1.14-.08,.4-.16,.84-.22,1.3-.06,.47-.11,.99-.14,1.57-.04,.57-.05,1.23-.05,1.98,0,1.97,.4,3.95,1.18,5.88,.78,1.92,1.86,3.67,3.22,5.19,1.36,1.53,2.99,2.78,4.86,3.72,1.87,.94,3.92,1.42,6.1,1.42,.72,0,1.48-.05,2.25-.16,.77-.11,1.54-.29,2.28-.53Zm-16.73-16.51c.99,1.23,2.14,2.37,3.41,3.37,1.26,1,2.64,1.94,4.09,2.8,1.44,.85,2.91,1.69,4.38,2.49,1.45,.79,2.88,1.61,4.26,2.43,1.24,.74,2.38,1.55,3.39,2.42-.56,.44-1.23,.77-2.01,.99-.93,.25-1.87,.38-2.78,.38-1.23,0-2.52-.14-3.83-.4-1.31-.27-2.61-.67-3.85-1.21-1.24-.54-2.44-1.21-3.55-2-1.11-.79-2.09-1.73-2.9-2.8-.82-1.07-1.48-2.3-1.96-3.64-.48-1.34-.73-2.83-.73-4.45,0-.93,.02-1.78,.07-2.52,.02-.39,.06-.77,.11-1.16,.49,1.2,1.13,2.31,1.92,3.29Z"/>
    <path class="cls-1" d="M17.08,1858.89c.5-.53,.75-1.17,.75-1.88,0-.78-.25-1.39-.75-1.85-.5-.53-1.14-.78-1.92-.78-.71,0-1.35,.25-1.88,.78-.46,.46-.71,1.07-.71,1.85,0,.71,.25,1.35,.71,1.88,.53,.5,1.17,.78,1.88,.78,.78,0,1.42-.28,1.92-.78Z"/>
  </g>
  <g>
    <path class="cls-1" d="M29.12,2090.11c-1.15,2.79-2.5,3.88-2.51,3.9l-.23,.19,.55,.73,.25-.2c.06-.05,1.45-1.17,2.69-4.02,2.74,2.2,5.17,3.66,6.1,3.66,.61,0,1.04-.4,1.04-.98,0-2.46-2.02-5.64-5.55-8.73,.19-1.46,.29-2.89,.29-4.38,0-6.17-1.82-10.01-3.35-12.15-1.85-2.59-4.34-4.13-6.67-4.13-3.03,0-4.99,2.52-4.99,6.42,0,2.76,.98,5.79,2.91,9-.78,.3-1.54,1.02-1.54,2.66,0,2.12,2.08,5.48,3.81,7.91-.62-.51-1.24-1.02-1.87-1.54-.83-.68-1.65-1.36-2.48-2.04-2.45-10.11-10.42-20.37-15.84-20.37-.87,0-1.49,.7-1.49,1.68,0,4.11,1.71,7.97,4.81,10.87,2.77,2.59,7.57,6,11.81,9.01l.03,.02c.29,1.44,.44,2.81,.44,4.09,0,.66-.05,1.4-.15,2.15l-.04,.28,.91,.18,.04-.33c.1-.79,.15-1.56,.15-2.29,0-1.05-.1-2.16-.29-3.32,2.76,1.98,5.35,3.87,7.09,5.41l.25,.22,.19-.25,.29,.25-.24-.31,.32-.42-.62-.53c-1.73-2.02-6.21-7.89-6.21-10.68,0-.94,.41-1.49,1.25-1.67,2.89,4.4,6.71,7.91,8.86,9.71Zm-8.57-10.89c-1.93-3.17-2.91-6.13-2.91-8.8,0-3.4,1.56-5.5,4.07-5.5,3.67,0,9.1,4.88,9.1,15.36,0,1.21-.06,2.44-.19,3.66-3.53-2.89-7.31-4.73-9.74-4.73-.11,0-.22,0-.33,0Zm15.52,14.17s0,.06-.12,.06c-.65,0-2.87-1.26-5.75-3.6,.37-1,.66-2.03,.89-3.11,3.04,2.84,4.98,5.42,4.98,6.65Zm-6.62-4.14c-2.04-1.73-5.48-4.94-8.16-8.89,1.9,.25,5.42,2.46,9.01,5.67-.21,1.11-.5,2.19-.86,3.22Zm-27.73-22.3c4.81,0,12,9.17,14.63,18.47-3.81-3.15-7.18-5.98-9.79-8.5-3.31-3.19-5.29-6.72-5.29-9.42,0-.45,.18-.55,.45-.55Z"/>
    <polygon class="cls-1" points="26.15 2117.92 26.15 2104.62 36.86 2104.62 36.86 2100.75 11.46 2100.75 11.46 2104.62 22.84 2104.62 22.84 2117.92 11.46 2117.92 11.46 2121.8 36.86 2121.8 36.86 2117.92 26.15 2117.92"/>
    <path class="cls-1" d="M32.52,2151.25c2.21-2.35,3.31-5.34,3.31-8.89,0-3.84-1.07-6.97-3.24-9.35-2.13-2.45-4.98-3.66-8.54-3.66s-6.37,1.17-8.43,3.56c-1.96,2.28-2.95,5.26-2.95,8.96s1.07,6.97,3.13,9.39c2.06,2.35,4.87,3.56,8.36,3.56s6.15-1.21,8.36-3.56Zm-15.51-2.63c-1.92-1.56-2.88-3.88-2.88-6.94,0-2.49,1-4.48,2.95-6.01,1.85-1.49,4.13-2.24,6.79-2.24,2.92,0,5.34,.64,7.19,1.99,2.21,1.49,3.31,3.63,3.31,6.4,0,2.92-1.07,5.19-3.24,6.79-1.85,1.39-4.27,2.1-7.19,2.1s-5.19-.71-6.94-2.1Z"/>
    <path class="cls-1" d="M24.3,2126.32c3.2,0,6.08,.43,8.64,1.28,2.6,.85,4.87,2.13,6.79,3.84l.5-.53c-1.92-1.92-4.27-3.45-7.04-4.52-2.85-1.14-5.8-1.67-8.93-1.67s-6.05,.53-8.89,1.64c-2.77,1.1-5.16,2.63-7.08,4.55l.5,.53c1.96-1.71,4.23-2.99,6.83-3.84,2.6-.85,5.48-1.28,8.68-1.28Z"/>
    <path class="cls-1" d="M40.24,2153.24l-.5-.53c-1.92,1.67-4.2,2.95-6.79,3.84-2.56,.85-5.44,1.28-8.64,1.28s-6.08-.43-8.68-1.28c-2.6-.89-4.87-2.17-6.83-3.84l-.5,.53c1.92,1.92,4.3,3.41,7.08,4.55,2.85,1.07,5.8,1.64,8.89,1.64s6.08-.57,8.93-1.67c2.77-1.1,5.12-2.6,7.04-4.52Z"/>
    <polygon class="cls-1" points="33.55 2172.33 33.55 2170.48 35.4 2170.48 35.4 2164.51 33.55 2164.51 33.55 2162.63 31.66 2162.63 31.66 2160.71 25.7 2160.71 25.7 2162.63 23.81 2162.63 23.81 2164.51 21.93 2164.51 21.93 2170.14 20.04 2170.14 20.04 2172.03 14.72 2172.03 14.72 2170.14 12.86 2170.14 12.86 2164.82 14.72 2164.82 14.72 2162.96 18.49 2162.96 18.49 2160.71 14.41 2160.71 14.41 2162.63 12.53 2162.63 12.53 2164.51 10.61 2164.51 10.61 2170.48 12.53 2170.48 12.53 2172.33 14.41 2172.33 14.41 2174.22 20.37 2174.22 20.37 2172.33 22.26 2172.33 22.26 2170.48 24.15 2170.48 24.15 2164.82 26 2164.82 26 2162.96 31.33 2162.96 31.33 2164.82 33.21 2164.82 33.21 2170.14 31.33 2170.14 31.33 2172.03 27.55 2172.03 27.55 2174.22 31.66 2174.22 31.66 2172.33 33.55 2172.33"/>
    <polygon class="cls-1" points="33.55 2175.6 33.55 2184.1 11.46 2184.1 11.46 2187.95 33.55 2187.95 33.55 2196.41 36.86 2196.41 36.86 2175.6 33.55 2175.6"/>
    <path class="cls-1" d="M16.55,2201.85c0-.85-.21-1.53-.71-2.03-.5-.57-1.14-.82-1.96-.82-.75,0-1.39,.25-1.88,.75-.5,.5-.75,1.14-.75,1.85,0,.39,.04,.68,.11,.89-.85,0-1.67-.32-2.49-.92-.78-.64-1.32-1.46-1.67-2.38h-2.21c.5,1.78,1.42,3.2,2.77,4.27,1.35,1.03,2.92,1.56,4.73,1.56,1.21,0,2.17-.28,2.95-.85,.75-.64,1.1-1.39,1.1-2.31Z"/>
    <path class="cls-1" d="M36.86,2228.28l-25.4-9.78v4.13l6.54,2.38v10.92l-6.54,2.38v4.16l25.4-9.78v-4.41Zm-15.65-2.1l11.49,4.23v.14l-11.49,4.2v-8.57Z"/>
    <polygon class="cls-1" points="34.22 2260.08 33.51 2263.1 16.48 2263.1 36.36 2251.36 36.18 2243.89 34.22 2243.89 33.51 2246.92 14.31 2246.92 13.6 2243.89 11.46 2243.89 11.46 2253.5 13.6 2253.5 14.31 2250.12 31.06 2250.12 11.46 2261.86 11.46 2266.3 33.51 2266.3 34.22 2269.32 36.36 2269.32 36.18 2260.08 34.22 2260.08"/>
    <path class="cls-1" d="M36.86,2282.31v-9.25H11.46v9.18c0,4.09,1.14,7.18,3.41,9.32,2.21,2.03,5.3,3.06,9.28,3.06s7.11-1,9.25-2.99c2.31-2.13,3.45-5.23,3.45-9.32Zm-19.78,6.3c-1.53-1.49-2.31-3.88-2.31-7.08v-4.59h18.78v4.66c0,3.2-.75,5.55-2.28,7.04-1.49,1.42-3.84,2.17-7.11,2.17s-5.55-.75-7.08-2.21Z"/>
    <path class="cls-1" d="M21.56,2321.68v7.01h-5.51c-.53-.85-.96-1.78-1.25-2.84-.28-1.1-.46-2.28-.46-3.52,0-3.17,.89-5.51,2.67-7.01,1.64-1.42,3.98-2.1,7.04-2.1s5.58,.75,7.36,2.31c1.71,1.46,2.53,3.41,2.53,5.87,0,1.99-.43,3.63-1.32,4.84-.85,1.21-2.13,1.99-3.84,2.35v3.91c2.85-.46,4.94-1.6,6.37-3.42,1.49-1.88,2.21-4.45,2.21-7.68,0-3.73-1.28-6.72-3.91-8.93-2.45-2.1-5.58-3.13-9.39-3.13s-6.86,1.03-9.25,3.13c-2.56,2.24-3.84,5.37-3.84,9.43,0,2.21,.28,4.23,.85,6.08,.57,1.74,1.35,3.27,2.38,4.59h10.67v-10.88h-3.31Z"/>
    <path class="cls-1" d="M37.3,2345.44c.49-.95,.73-2.04,.73-3.27s-.24-2.29-.73-3.24c-.49-.95-1.16-1.7-2.01-2.24-.85-.55-1.85-.82-2.99-.82s-2.08,.27-2.95,.82c-.88,.54-1.56,1.29-2.06,2.24-.5,.95-.75,2.04-.75,3.27s.25,2.29,.75,3.24c.5,.95,1.19,1.69,2.06,2.22,.88,.53,1.86,.8,2.95,.8s2.13-.27,2.99-.8c.85-.53,1.52-1.27,2.01-2.22Zm-7.67-.44c-.69-.72-1.03-1.67-1.03-2.83s.35-2.08,1.05-2.81c.7-.74,1.59-1.1,2.69-1.1s1.97,.37,2.65,1.1c.68,.73,1.01,1.67,1.01,2.81s-.34,2.1-1.01,2.83c-.68,.72-1.57,1.08-2.69,1.08s-1.98-.36-2.67-1.08Z"/>
    <path class="cls-1" d="M36.86,2361.34v-9.25H11.46v9.18c0,4.09,1.14,7.19,3.41,9.32,2.21,2.03,5.3,3.06,9.28,3.06s7.11-1,9.25-2.99c2.31-2.13,3.45-5.23,3.45-9.32Zm-19.78,6.3c-1.53-1.49-2.31-3.88-2.31-7.08v-4.59h18.78v4.66c0,3.2-.75,5.55-2.28,7.04-1.49,1.42-3.84,2.17-7.11,2.17s-5.55-.75-7.08-2.21Z"/>
    <path class="cls-1" d="M15.8,2381.83c.5-.53,.75-1.17,.75-1.89,0-.78-.25-1.39-.75-1.85-.5-.53-1.14-.78-1.92-.78-.71,0-1.35,.25-1.88,.78-.46,.46-.71,1.07-.71,1.85,0,.71,.25,1.35,.71,1.89,.53,.5,1.17,.78,1.88,.78,.78,0,1.42-.28,1.92-.78Z"/>
  </g>
  <g>
    <path class="cls-1" d="M36.2,2435.25c0-1.85-.36-3.49-1.08-4.93-.72-1.44-1.75-2.54-3.08-3.33,1.3-.64,2.32-1.63,3.06-2.97,.73-1.34,1.1-2.93,1.1-4.78s-.34-3.34-1.03-4.68c-.69-1.34-1.65-2.38-2.88-3.11h3.63v-3.41H11.02v3.56h14.87c2.39,0,4.18,.61,5.37,1.83,1.19,1.22,1.78,2.88,1.78,4.96,0,1.87-.56,3.35-1.67,4.43-1.12,1.08-2.77,1.62-4.98,1.62H11.02v3.52h14.87c2.42,0,4.21,.6,5.39,1.8,1.17,1.2,1.76,2.83,1.76,4.89,0,1.87-.56,3.38-1.69,4.52-1.13,1.14-2.78,1.71-4.96,1.71H11.02v3.52h15.47c3.15,0,5.56-.81,7.22-2.42,1.66-1.61,2.49-3.85,2.49-6.72Z"/>
    <path class="cls-1" d="M26.35,2460.73c-.7,0-1.29-.25-1.79-.75-.5-.5-.75-1.11-.75-1.82s.25-1.29,.75-1.79c.5-.5,1.1-.75,1.79-.75h7.67v-5.12h-7.67c-3,0-4.71,1.71-5.12,5.12H11.02v5.12h10.21c.41,3.39,2.12,5.09,5.12,5.09h7.67v-5.09h-7.67Z"/>
    <path class="cls-1" d="M23.29,2487.71c.6-1,1.42-3.24,2.49-6.65,.71-2.38,1.25-3.84,1.56-4.41,.68-1.28,1.56-1.89,2.7-1.89,1.28,0,2.21,.53,2.77,1.64,.5,.89,.75,2.17,.75,3.84,0,1.92-.36,3.34-1.1,4.34-.71,1-1.92,1.64-3.56,1.99v3.84c2.77-.25,4.8-1.24,6.12-3.02,1.28-1.67,1.88-3.98,1.88-6.94,0-2.7-.6-4.94-1.81-6.72-1.28-1.89-3.02-2.81-5.26-2.81s-3.91,.96-5.09,2.92c-.43,.78-1.1,2.7-2.1,5.83-.85,2.81-1.42,4.48-1.71,5.05-.82,1.6-1.92,2.42-3.34,2.42-1.14,0-2.03-.57-2.67-1.71s-1-2.67-1-4.59c0-2.13,.39-3.7,1.17-4.73,.85-1.14,2.31-1.85,4.3-2.13v-3.84c-3.2,.21-5.55,1.35-7.04,3.45-1.21,1.74-1.85,4.16-1.85,7.26s.64,5.69,1.92,7.47c1.32,1.78,3.09,2.67,5.37,2.67s4.16-1.1,5.48-3.27Z"/>
    <polygon class="cls-1" points="33.11 2492.62 33.11 2501.12 11.02 2501.12 11.02 2504.96 33.11 2504.96 33.11 2513.43 36.42 2513.43 36.42 2492.62 33.11 2492.62"/>
    <polygon class="cls-1" points="22.4 2520.36 22.4 2533.88 25.71 2533.88 25.71 2520.36 33.11 2520.36 33.11 2534.73 36.42 2534.73 36.42 2516.49 11.02 2516.49 11.02 2535.34 14.33 2535.34 14.33 2520.36 22.4 2520.36"/>
    <rect class="cls-1" x="9.64" y="2559.79" width="3.83" height="3.83"/>
    <polygon class="cls-1" points="32.64 2544.46 32.64 2559.79 36.47 2559.79 36.47 2540.63 9.64 2540.63 9.64 2544.46 21.14 2544.46 21.14 2552.13 17.31 2552.13 17.31 2555.96 21.14 2555.96 21.14 2559.79 24.97 2559.79 24.97 2544.46 32.64 2544.46"/>
    <rect class="cls-1" x="13.47" y="2555.96" width="3.83" height="3.83"/>
    <rect class="cls-1" x="24.97" y="2559.79" width="7.67" height="3.83"/>
    <rect class="cls-1" x="11.02" y="2570.69" width="25.4" height="3.84"/>
    <path class="cls-1" d="M36.13,2594.88c0-3.66-1.17-6.54-3.59-8.68-2.28-1.99-5.23-2.95-8.86-2.95s-6.54,.96-8.79,2.95c-2.35,2.13-3.56,5.02-3.56,8.68s1.17,6.54,3.49,8.68c2.28,1.99,5.23,2.99,8.86,2.99s6.65-1,8.89-2.99c2.38-2.13,3.56-5.02,3.56-8.68Zm-19.03,5.8c-1.56-1.35-2.38-3.27-2.38-5.8s.85-4.45,2.49-5.8c1.6-1.35,3.77-1.99,6.47-1.99s4.94,.68,6.58,2.03c1.67,1.35,2.49,3.27,2.49,5.76s-.82,4.45-2.45,5.8c-1.56,1.35-3.77,2.03-6.62,2.03s-5.02-.68-6.58-2.03Z"/>
    <path class="cls-1" d="M41.18,2594.88c0-4.8-1.67-8.89-5.09-12.27-3.38-3.41-7.47-5.09-12.27-5.09s-8.86,1.67-12.27,5.09-5.09,7.47-5.09,12.27,1.71,8.86,5.09,12.27c3.41,3.38,7.5,5.09,12.27,5.09s8.89-1.71,12.27-5.09,5.09-7.5,5.09-12.27Zm-28.53,11.17c-3.06-3.13-4.59-6.83-4.59-11.17s1.53-8.07,4.59-11.17c3.13-3.06,6.83-4.59,11.17-4.59s8.07,1.53,11.17,4.59c3.06,3.09,4.59,6.83,4.59,11.17s-1.53,8.04-4.59,11.17c-3.09,3.06-6.83,4.59-11.17,4.59s-8.04-1.53-11.17-4.59Z"/>
    <path class="cls-1" d="M20.62,2632.23c-2.28,0-3.95-.53-5.05-1.56-1.1-1.07-1.67-2.74-1.67-5.02s.57-3.98,1.67-5.05,2.77-1.56,5.05-1.56h15.79v-3.88h-15.72c-3.31,0-5.83,.92-7.61,2.77-1.71,1.78-2.56,4.34-2.56,7.72s.89,5.9,2.6,7.72c1.74,1.81,4.27,2.74,7.58,2.74h15.72v-3.88h-15.79Z"/>
    <path class="cls-1" d="M40.87,2685.2c0-5.72-13.17-13.29-16.9-14.93h-.03c-.79-1.36-1.46-2.62-2.06-3.84,.12,.01,.25,.02,.37,.02,2.86,0,5.92-2.58,5.92-9.83s-4.36-11.85-8.59-12.99c1.43-2.79,3.73-4.37,6.36-4.37,5.14,0,10.61,5.72,10.61,16.33,0,4.54-.3,11.11-2.91,15.78l-.16,.28,.83,.42,.14-.25c2.74-4.89,3.06-11.6,3.06-16.22,0-8.5-4.33-17.3-11.58-17.3-3.11,0-5.78,1.87-7.36,5.15-.34-.04-.66-.06-.96-.06-5.94,0-8.09,7.26-8.09,12.15,0,8.2,7.35,12.63,13.8,15.56,5.37,8.9,12.23,15.36,16.34,15.36,.75,0,1.2-.46,1.2-1.23Zm-1.2,.26c-3.56,0-9.82-5.81-14.79-13.65,4.83,2.44,15.01,8.8,15.01,13.39,0,.24-.1,.26-.23,.26Zm-12.47-28.85c0,6.54-2.56,8.87-4.96,8.87-.17,0-.35-.01-.54-.04,1.35-1.92,2.06-4.14,2.06-6.45,0-6.42-2.81-10.66-5.53-11.14,.21-1.2,.52-2.32,.95-3.33,3.94,.94,8.03,5.42,8.03,12.09Zm-6.34,9.89c.49,1.03,1.04,2.07,1.63,3.12l-.4-.17c-.93-.4-1.83-.91-2.68-1.51l.21-.19c.5-.45,.9-.86,1.25-1.25Zm-2.96-14.48c0-1.2,.06-2.26,.19-3.22,2.06,.36,4.71,3.92,4.71,10.19,0,2.09-.58,4.01-1.73,5.7-2.07-4.61-3.17-8.98-3.17-12.67Zm-.97,0c0,3.75,1.1,8.19,3.18,12.89-3.05-1.67-4.91-6.88-4.91-11.14,0-1.65,.26-4.37,1.91-4.91-.12,.97-.18,2.01-.18,3.17Zm1.26-7.67c-.41,1.05-.73,2.22-.93,3.49-2.87,.5-3.52,5.49-3.52,7.24,0,4.57,2.3,8.82,5.72,10.58,.19,.09,.4,.2,.61,.29-.31,.34-.66,.69-1.07,1.06l-.21,.19,.47,.63c-4.64-3.32-7.96-9.22-7.96-14.67,0-4.4,1.96-8.83,6.34-8.83,.2,0,.38,0,.56,.02Z"/>
    <path class="cls-1" d="M36.42,2692.97l-25.4-9.78v4.13l6.54,2.38v10.92l-6.54,2.38v4.16l25.4-9.78v-4.41Zm-15.65-2.1l11.49,4.23v.14l-11.49,4.2v-8.57Z"/>
    <polygon class="cls-1" points="17.53 2726.69 17.53 2726.55 36.42 2713.57 36.42 2709.66 11.02 2709.66 11.02 2713.53 30.12 2713.53 30.12 2713.67 11.02 2726.8 11.02 2730.57 36.42 2730.57 36.42 2726.69 17.53 2726.69"/>
    <rect class="cls-1" x="11.02" y="2735.66" width="25.4" height="3.84"/>
    <polygon class="cls-1" points="21.69 2757.92 35.92 2751.48 35.74 2743.48 33.78 2743.48 33.07 2746.5 13.87 2746.5 13.16 2743.48 11.02 2743.48 11.02 2753.08 13.16 2753.08 13.87 2749.71 31.65 2749.71 29.16 2750.59 17.6 2756.11 17.78 2758.95 28.98 2764.47 31.65 2765.53 13.87 2765.53 13.16 2762.15 11.02 2762.15 11.02 2772.11 13.16 2772.11 13.87 2769.09 33.07 2769.09 33.78 2772.11 35.92 2772.11 35.74 2764.64 21.69 2757.92"/>
    <path class="cls-1" d="M36.42,2783.32l-25.4-9.78v4.13l6.54,2.38v10.92l-6.54,2.38v4.16l25.4-9.78v-4.41Zm-15.65-2.1l11.49,4.23v.14l-11.49,4.2v-8.57Z"/>
    <polygon class="cls-1" points="36.42 2803.84 36.42 2800 11.02 2800 11.02 2817.82 14.33 2817.82 14.33 2803.84 36.42 2803.84"/>
    <path class="cls-1" d="M15.36,2825.25c.5-.53,.75-1.17,.75-1.89,0-.78-.25-1.39-.75-1.85-.5-.53-1.14-.78-1.92-.78-.71,0-1.35,.25-1.88,.78-.46,.46-.71,1.07-.71,1.85,0,.71,.25,1.35,.71,1.89,.53,.5,1.17,.78,1.88,.78,.78,0,1.42-.28,1.92-.78Z"/>
  </g>
  <g>
    <path class="cls-1" d="M34.52,1891.24v-9.38h-1.21l-.35,3.25c-3.06,.06-6.16,.06-9.28,.06h-1.72c-3.13,0-6.19,0-9.25-.06l-.35-3.25h-1.21v9.89h1.21l.38-3.32c2.65-.06,5.17-.06,7.75-.06v1.85c0,7.05,3.22,9.79,7.11,9.79,4.15,0,6.92-2.9,6.92-8.77Zm-12.63-.64v-2.23h1.79c3.19,0,6.38,0,9.47,.06v2.23c0,4.18-2.01,6.06-5.55,6.06s-5.71-1.75-5.71-6.12Z"/>
    <polygon class="cls-1" points="22.52 1908.04 22.52 1921.55 25.83 1921.55 25.83 1908.04 33.23 1908.04 33.23 1922.41 36.54 1922.41 36.54 1904.16 11.14 1904.16 11.14 1923.01 14.45 1923.01 14.45 1908.04 22.52 1908.04"/>
    <path class="cls-1" d="M26.31,1939.32c.17-3.55-1.72-7.94-4.71-10.97-2.39-2.39-5.15-3.75-7.58-3.75-2.25,0-3.68,1.49-3.72,3.89,0,.05,0,.1,0,.14,0,3.13,2.19,7.09,5.38,9.7,2.01,1.63,4.54,2.63,5.89,2.73,.05,0,.09,0,.14,.01,.08,.29,.39,.55,.4,.55,.39,.35,1.18,.69,1.97,.61,1.31-.11,2.15-1.2,2.24-2.92Zm-13.32-9.7c1.4,0,3.59,1.01,5.57,2.56,2.98,2.38,5.1,5.42,4.94,7.09-.02,.17-.08,.3-.2,.39-.17,.13-.45,.18-.82,.12-1.78-.18-4.25-1.7-5.96-3.06-2.91-2.33-4.67-4.57-5.15-6.56,.17,.03,.31-.09,.37-.14,.02-.02,.05-.04,.08-.07,.34-.24,.68-.33,1.17-.33Zm11.47,9.76c.23-2.23-1.94-5.74-5.17-8.35-2.13-1.62-4.09-2.41-5.98-2.41-.85,0-1.55,.25-2.03,.73-.01,.01-.02,.02-.04,.04-.01-.17-.02-.35,0-.52,.07-1.61,1.13-1.95,2.01-1.95,1.99,0,4.73,1.28,6.98,3.27,2.14,1.92,5.02,6.04,5.02,8.93,0,.06,0,.12,0,.19-.03,1.06-.55,1.86-1.27,1.95-.49,.08-.9-.07-1.16-.2,1.27-.22,1.58-1.09,1.65-1.67Z"/>
    <path class="cls-1" d="M35.42,1978.58c1.57,.82,3.02,1.24,4.34,1.24s2.54-.31,3.47-.92c.93-.61,1.67-1.41,2.23-2.39,.56-.98,.94-2.07,1.16-3.27,.21-1.2,.32-2.38,.32-3.55,0-.64-.05-1.53-.16-2.67-.11-1.14-.24-2.45-.4-3.91-.16-1.46-.29-3.02-.4-4.66-.11-1.65-.16-3.27-.16-4.86,0-.64,.01-1.3,.04-1.99,.03-.69,.09-1.28,.2-1.75,.11-.59,.29-.9,.56-.96,.21-.05,.32-.13,.32-.24,0-.16-.23-.33-.68-.52-.45-.19-.73-.28-.84-.28-.59,0-.88,.5-.88,1.52,0,1.7,.11,3.36,.32,4.98,.21,1.62,.35,3.28,.4,4.98,0,.27-.11,.4-.32,.4-.16,0-.45-.08-.88-.24-.43-.16-.88-.35-1.36-.56-.48-.21-.94-.43-1.4-.64-.45-.21-.76-.37-.92-.48-2.18-1.17-4.64-2.52-7.37-4.07-2.74-1.54-5.22-2.98-7.45-4.3-1.86-1.12-3.83-2.29-5.9-3.51-2.07-1.22-3.93-2.21-5.58-2.95-.64-.27-1.12-.4-1.44-.4-.43,0-.76,.16-1,.48s-.43,.69-.56,1.12c-.13,.42-.23,.86-.28,1.32-.05,.45-.08,.78-.08,1,0,1.17,.05,2.35,.16,3.55,.11,1.2,.24,2.27,.4,3.23,.05,.27,.16,.4,.32,.4s.24-.29,.24-.88c0-1.7,.2-2.98,.6-3.83,.4-.85,1.1-1.28,2.11-1.28,.74,0,1.7,.29,2.87,.88,1.75,.9,3.83,2.02,6.22,3.35,2.39,1.33,4.85,2.71,7.37,4.15,2.52,1.44,4.97,2.86,7.33,4.27,2.36,1.41,4.4,2.62,6.1,3.63,.69,.37,1.14,.9,1.35,1.59,.27,1.06,.4,2.26,.4,3.59,0,1.91-.4,3.55-1.2,4.9-.8,1.35-2.31,2.03-4.54,2.03-1.59,0-3.19-.36-4.78-1.08-1.59-.72-3.03-1.7-4.3-2.95-1.28-1.25-2.31-2.74-3.11-4.46-.8-1.73-1.2-3.6-1.2-5.62,0-.64,.05-1.32,.16-2.03,.11-.72,.21-1.21,.32-1.48,0-.21-.11-.32-.32-.32-.11,0-.21,.08-.32,.24-.37,1.01-.56,2.18-.56,3.51,0,2.82,.44,5.33,1.32,7.53,.88,2.2,1.99,4.08,3.35,5.62,1.35,1.54,2.82,2.72,4.38,3.55Z"/>
    <path class="cls-1" d="M35.48,2006.03c.73,0,1.16-.38,1.16-1.01,0-2.59-4.82-6.47-7.1-8.16,1.46-4,2.21-7.81,2.21-11.35,0-8.61-4.61-13.75-9.07-13.75-2.86,0-6.21,2.38-6.21,9.07,0,3.35,.81,6.7,2.4,9.99-.9-.5-1.67-1-2.35-1.52-.34-.85-.73-1.66-1.15-2.35l-.1-.17-.91,.11,.24,.4c.13,.22,.26,.46,.39,.71-.87-.85-1.59-1.77-2.15-2.75,.69-1.25,1.18-2.41,1.51-3.54,.27-.97,.44-2.27,.44-3.48,0-1-.13-4.25-1.75-4.25-2.57,0-2.92,7.56-2.92,7.64,0,1.73,.37,3.23,1.14,4.59-.24,.4-.48,.79-.72,1.19-1.76,2.9-3.58,5.9-3.58,9.28,0,4.68,2.78,6.82,5.36,6.82,3.45,0,5.51-2.79,5.51-7.47,0-1.52-.23-3.16-.67-4.79,.77,.4,1.61,.78,2.55,1.16,4.8,8.48,13.31,13.63,15.79,13.63Zm-7.14-8.66c-.06,.15-.11,.3-.17,.45l-.11,.28,.88,.35,.29-.75c4.08,3.04,6.5,5.76,6.5,7.36h0s-.05,.05-.24,.05c-2.13,0-9.8-4.7-14.43-12.17,.01,0,.02,0,.03,.01l.42,.16c1.66,.61,4.36,2.18,6.93,4.02-.03,.08-.06,.16-.09,.24Zm-10.96-16.54c0-6.02,2.85-8.15,5.29-8.15,4.01,0,8.15,4.8,8.15,12.84,0,3.3-.7,6.93-2.08,10.77-2.57-1.82-5.25-3.4-6.9-4.06-.53-.22-1.08-.45-1.61-.71-1.89-3.51-2.85-7.1-2.85-10.69Zm-9.52,15.85c0-3.23,1.75-6.09,3.45-8.86,.16-.26,.32-.52,.48-.78,.96,1.33,2.37,2.52,4.29,3.62,.58,1.8,.89,3.66,.89,5.39,0,1.96-.45,6.52-4.67,6.52-2.14,0-4.44-1.85-4.44-5.9Zm6.08-18.56c0,1.14-.15,2.33-.41,3.26-.26,.89-.66,1.84-1.2,2.89-.6-1.36-.91-2.83-.91-4.39,0-1.74,.55-4.99,1.61-4.99,.45,0,.91,1.21,.91,3.22Z"/>
    <polygon class="cls-1" points="22.52 2011.39 22.52 2024.9 25.83 2024.9 25.83 2011.39 33.23 2011.39 33.23 2025.76 36.54 2025.76 36.54 2007.51 11.14 2007.51 11.14 2026.36 14.45 2026.36 14.45 2011.39 22.52 2011.39"/>
    <path class="cls-1" d="M15.48,2034.54c.5-.53,.75-1.17,.75-1.88,0-.78-.25-1.39-.75-1.85-.5-.53-1.14-.78-1.92-.78-.71,0-1.35,.25-1.88,.78-.46,.46-.71,1.07-.71,1.85,0,.71,.25,1.35,.71,1.88,.53,.5,1.17,.78,1.88,.78,.78,0,1.42-.28,1.92-.78Z"/>
  </g>
</svg>