<?xml version="1.0" encoding="UTF-8"?>
<svg id="font" xmlns="http://www.w3.org/2000/svg" xmlns:xlink="http://www.w3.org/1999/xlink" viewBox="0 0 1917.88 89.97">
  <defs>
    <style>
      .cls-1 {
        fill: none;
      }

      .cls-2 {
        font-family: ArialMT, Arial;
        font-size: 30.66px;
        letter-spacing: -.02em;
      }

      .cls-2, .cls-3 {
        fill: #fff;
      }

      .cls-4 {
        clip-path: url(#clippath);
      }
    </style>
    <clipPath id="clippath">
      <rect class="cls-1" x="0" y="0" width="1917.88" height="89.97"/>
    </clipPath>
  </defs>
  <g class="cls-4">
    <g>
      <g>
        <path class="cls-3" d="M1295.04,31.12c3.06,3.59,4.64,8.23,4.64,13.98s-1.58,10.29-4.64,13.87c-3.27,3.75-7.75,5.64-13.4,5.64s-10.08-1.9-13.35-5.64c-3.11-3.59-4.64-8.23-4.64-13.87s1.53-10.34,4.64-13.93c3.27-3.8,7.7-5.7,13.4-5.7s10.08,1.85,13.35,5.64Zm-23.58,2.69c-2.32,2.85-3.48,6.59-3.48,11.29s1.16,8.39,3.48,11.24c2.43,2.95,5.86,4.43,10.18,4.43s7.75-1.48,10.18-4.33c2.32-2.85,3.53-6.59,3.53-11.34s-1.21-8.6-3.53-11.45c-2.43-2.9-5.8-4.33-10.13-4.33s-7.75,1.48-10.23,4.48Z"/>
        <path class="cls-3" d="M1310.23,26.22l21.31,30.65h.16V26.22h4.33V63.88h-4.43l-21.42-30.96h-.16v30.96h-4.33V26.22h4.54Z"/>
        <path class="cls-3" d="M1370.31,26.22v3.75h-22.37v12.61h21.1v3.75h-21.1v13.82h23.26v3.75h-27.59V26.22h26.69Z"/>
        <path class="cls-3" d="M1417.47,28.38c2.53,2,3.96,5.01,4.33,8.97h-4.27c-.47-2.74-1.53-4.75-3.17-6.07-1.69-1.37-4.06-2-7.12-2-2.8,0-4.96,.42-6.54,1.37-1.79,1.05-2.69,2.64-2.69,4.8,0,1.9,1.05,3.43,3.22,4.59,.95,.53,3.27,1.32,6.91,2.37,4.96,1.48,8.23,2.69,9.81,3.64,3.11,1.9,4.69,4.54,4.69,7.96s-1.32,5.91-3.96,7.81c-2.64,1.85-6.17,2.8-10.66,2.8s-7.91-.95-10.44-2.85c-2.95-2.27-4.59-5.7-4.91-10.34h4.27c.37,3.27,1.53,5.7,3.43,7.23,1.74,1.37,4.27,2.11,7.65,2.11,3.06,0,5.59-.58,7.49-1.74,1.9-1.16,2.85-2.74,2.85-4.75,0-2.37-1.27-4.22-3.75-5.54-1.05-.63-3.75-1.53-7.96-2.74-4.54-1.37-7.44-2.43-8.65-3.06-2.9-1.69-4.33-4.11-4.33-7.28s1.37-5.86,4.17-7.65c2.48-1.69,5.7-2.53,9.6-2.53,4.22,0,7.6,.95,10.02,2.9Z"/>
        <path class="cls-3" d="M1432.45,26.22v16.35h21.79V26.22h4.33V63.88h-4.33v-17.57h-21.79v17.57h-4.33V26.22h4.33Z"/>
        <path class="cls-3" d="M1492.8,26.22v3.75h-22.37v12.61h21.1v3.75h-21.1v13.82h23.26v3.75h-27.59V26.22h26.69Z"/>
        <path class="cls-3" d="M1526.4,26.22v3.75h-22.37v12.61h21.1v3.75h-21.1v13.82h23.26v3.75h-27.59V26.22h26.69Z"/>
        <path class="cls-3" d="M1548.71,26.22c8.65,0,12.98,3.69,12.98,11.08s-4.38,11.18-13.03,11.18h-11.03v15.4h-4.33V26.22h15.4Zm-11.08,18.51h10.81c3.06,0,5.27-.63,6.75-1.85,1.42-1.21,2.16-3.06,2.16-5.59s-.74-4.38-2.22-5.49c-1.48-1.27-3.69-1.85-6.7-1.85h-10.81v14.77Z"/>
        <path class="cls-3" d="M1573.24,59.08c.69,.95,1.05,2.16,1.05,3.69,0,2.32-.69,4.38-2.06,6.17-1.37,1.69-3.22,2.85-5.49,3.43v-2.58c1.37-.47,2.53-1.27,3.38-2.32,.79-1.11,1.16-2.27,1.16-3.53-.26,.11-.63,.21-1.16,.21-.9,0-1.64-.32-2.27-.95s-.95-1.42-.95-2.32c0-1,.32-1.79,1-2.37,.58-.63,1.37-.9,2.43-.9,1.16,0,2.16,.47,2.9,1.48Z"/>
        <path class="cls-3" d="M1626.63,26.22v3.75h-13.29V63.88h-4.27V29.96h-13.29v-3.75h30.86Z"/>
        <path class="cls-3" d="M1632.64,26.22l8.28,31.6h.21l8.6-31.6h4.69l8.55,31.6h.21l8.28-31.6h4.85l-10.81,37.66h-4.8l-8.55-31.39h-.16l-8.6,31.39h-4.8l-10.81-37.66h4.85Z"/>
        <path class="cls-3" d="M1710.18,31.12c3.06,3.59,4.64,8.23,4.64,13.98s-1.58,10.29-4.64,13.87c-3.27,3.75-7.75,5.64-13.4,5.64s-10.08-1.9-13.35-5.64c-3.11-3.59-4.64-8.23-4.64-13.87s1.53-10.34,4.64-13.93c3.27-3.8,7.7-5.7,13.4-5.7s10.08,1.85,13.35,5.64Zm-23.58,2.69c-2.32,2.85-3.48,6.59-3.48,11.29s1.16,8.39,3.48,11.24c2.43,2.95,5.86,4.43,10.18,4.43s7.75-1.48,10.18-4.33c2.32-2.85,3.53-6.59,3.53-11.34s-1.21-8.6-3.53-11.45c-2.43-2.9-5.8-4.33-10.13-4.33s-7.75,1.48-10.23,4.48Z"/>
        <path class="cls-3" d="M1761.09,28.38c2.53,2,3.96,5.01,4.33,8.97h-4.27c-.47-2.74-1.53-4.75-3.17-6.07-1.69-1.37-4.06-2-7.12-2-2.8,0-4.96,.42-6.54,1.37-1.79,1.05-2.69,2.64-2.69,4.8,0,1.9,1.06,3.43,3.22,4.59,.95,.53,3.27,1.32,6.91,2.37,4.96,1.48,8.23,2.69,9.81,3.64,3.11,1.9,4.69,4.54,4.69,7.96s-1.32,5.91-3.96,7.81c-2.64,1.85-6.17,2.8-10.66,2.8s-7.91-.95-10.44-2.85c-2.95-2.27-4.59-5.7-4.91-10.34h4.27c.37,3.27,1.53,5.7,3.43,7.23,1.74,1.37,4.27,2.11,7.65,2.11,3.06,0,5.59-.58,7.49-1.74,1.9-1.16,2.85-2.74,2.85-4.75,0-2.37-1.27-4.22-3.75-5.54-1.05-.63-3.75-1.53-7.96-2.74-4.54-1.37-7.44-2.43-8.65-3.06-2.9-1.69-4.33-4.11-4.33-7.28s1.37-5.86,4.17-7.65c2.48-1.69,5.7-2.53,9.6-2.53,4.22,0,7.6,.95,10.02,2.9Z"/>
        <path class="cls-3" d="M1776.02,26.22V60.14h21.79v3.75h-26.06V26.22h4.27Z"/>
        <path class="cls-3" d="M1829.45,26.22v3.75h-22.37v12.61h21.1v3.75h-21.1v13.82h23.26v3.75h-27.59V26.22h26.69Z"/>
        <path class="cls-3" d="M1863.05,26.22v3.75h-22.37v12.61h21.1v3.75h-21.1v13.82h23.26v3.75h-27.59V26.22h26.69Z"/>
        <path class="cls-3" d="M1885.37,26.22c8.65,0,12.98,3.69,12.98,11.08s-4.38,11.18-13.03,11.18h-11.02v15.4h-4.33V26.22h15.4Zm-11.08,18.51h10.81c3.06,0,5.28-.63,6.75-1.85,1.42-1.21,2.16-3.06,2.16-5.59s-.74-4.38-2.22-5.49c-1.48-1.27-3.69-1.85-6.7-1.85h-10.81v14.77Z"/>
        <path class="cls-3" d="M1909.26,58.55c.63,.63,.95,1.37,.95,2.32,0,.9-.32,1.64-.95,2.27s-1.42,.95-2.27,.95c-.95,0-1.69-.32-2.27-.95-.63-.63-.95-1.37-.95-2.27,0-.95,.32-1.69,.95-2.32,.58-.63,1.32-.95,2.27-.95,.84,0,1.64,.32,2.27,.95Z"/>
      </g>
      <g>
        <g>
          <g>
            <g>
              <path class="cls-3" d="M711.14,33.29c-2.72-2.95-6.46-4.44-11.13-4.44-4.75,0-8.39,1.47-11.13,4.48-2.51,2.79-3.79,6.49-3.79,11.01,0,4.57,1.24,8.14,3.79,10.93,2.76,2.94,6.5,4.44,11.13,4.44,4.64,0,8.38-1.46,11.13-4.35,2.54-2.82,3.83-6.53,3.83-11.01,0-4.56-1.29-8.28-3.84-11.05h0Zm-18.12,3.25h0c1.63-1.97,3.92-2.92,6.98-2.92,3.04,0,5.4,.97,7.03,2.88,1.63,1.84,2.46,4.47,2.46,7.84s-.83,5.96-2.46,7.8c-1.65,1.85-4.01,2.79-7.03,2.79-3.02,0-5.38-.98-7.03-2.92-1.61-1.85-2.42-4.43-2.42-7.67,0-3.3,.81-5.86,2.47-7.81Z"/>
              <path class="cls-3" d="M715.64,28.99h0c-4.3-4.17-9.56-6.29-15.63-6.29-6.12,0-11.37,2.12-15.63,6.29-4.3,4.13-6.48,9.24-6.48,15.19,0,5.9,2.18,11.01,6.48,15.18,4.3,4.17,9.56,6.29,15.63,6.29,6.03,0,11.28-2.12,15.63-6.29,4.3-4.22,6.48-9.33,6.48-15.18,0-5.9-2.18-11.01-6.48-15.19Zm3.82,15.19c0,5.22-1.85,9.59-5.66,13.37-3.9,3.7-8.41,5.5-13.79,5.5-5.35,0-9.99-1.85-13.79-5.5-3.81-3.78-5.66-8.16-5.66-13.38,0-5.19,1.9-9.68,5.66-13.37,3.8-3.65,8.44-5.5,13.79-5.5,5.38,0,9.89,1.8,13.79,5.5,3.76,3.69,5.66,8.19,5.66,13.37Z"/>
            </g>
            <polygon class="cls-3" points="749.36 29.11 749.36 51.13 731.19 29.22 731.09 29.11 726.95 29.11 726.95 60.1 732.06 60.1 732.06 38.07 750.24 59.98 750.33 60.1 754.47 60.1 754.47 29.11 749.36 29.11"/>
            <path class="cls-3" d="M784.76,52.7l-.33,.27c-1.18,.98-2.71,1.75-4.55,2.28-1.85,.54-3.82,.81-5.87,.81-3.02,0-5.26-.47-6.67-1.4-1.39-.91-2.06-2.06-2.06-3.52,0-1.03,.28-1.85,.86-2.52,.58-.67,1.42-1.18,2.48-1.5,1.09-.34,2.4-.51,3.88-.51h8.54s0-4.38,0-4.38h-8.36c-1.97,0-3.5-.39-4.54-1.15-1.02-.75-1.52-1.8-1.52-3.2s.63-2.44,1.94-3.35c1.32-.92,3.37-1.39,6.09-1.39,1.57,0,3.11,.17,4.55,.49,1.44,.32,2.86,.85,4.23,1.55l.33,.17,1.52-4.07-.24-.14c-1.36-.76-2.98-1.36-4.82-1.77-1.83-.41-3.76-.61-5.74-.61-2.86,0-5.28,.4-7.2,1.19-1.94,.8-3.4,1.88-4.34,3.21-.94,1.34-1.42,2.82-1.42,4.41,0,1.47,.34,2.8,1,3.97,.64,1.12,1.55,2.02,2.72,2.68-.11,.04-.21,.09-.32,.14-1.42,.64-2.57,1.58-3.43,2.77-.87,1.21-1.31,2.66-1.31,4.31,0,1.74,.53,3.32,1.56,4.68,1.03,1.36,2.58,2.43,4.61,3.19,2.01,.75,4.52,1.13,7.46,1.13,2.57,0,4.99-.32,7.19-.94,2.21-.63,4.02-1.52,5.38-2.64l.19-.16-1.8-4Z"/>
            <path class="cls-3" d="M814.62,60.59c-8.53,0-13.53-3.51-13.53-8.58,0-3.51,2.77-6.76,6.7-6.76,3.39,4.68,8.48,8.97,12.72,11.7l.04-.09c-6.83-5.85-14.78-12.44-14.78-19.67,0-5.89,6.29-8.75,12.45-8.75,5.89,0,11.61,2.6,11.61,7.54,0,2.38-2.14,4.72-4.69,6.07-4.02-4.29-7.77-6.54-12.41-9.23l-.04,.04c7.77,5.33,14.78,10.75,14.78,18.33,0,6.33-4.55,9.4-12.86,9.4Z"/>
            <polygon class="cls-3" points="855.78 29.11 855.78 42.15 838.49 42.15 838.49 29.11 833.37 29.11 833.37 60.1 838.49 60.1 838.49 46.58 855.78 46.58 855.78 60.1 860.9 60.1 860.9 29.11 855.78 29.11"/>
            <path class="cls-3" d="M890.84,52.66l-.38,.31c-1.18,.98-2.71,1.75-4.55,2.28-1.85,.54-3.82,.81-5.87,.81-3.02,0-5.26-.47-6.67-1.4-1.39-.91-2.06-2.06-2.06-3.52,0-1.03,.28-1.85,.86-2.52,.58-.67,1.42-1.18,2.48-1.5,1.09-.34,2.4-.51,3.88-.51h8.54s0-4.38,0-4.38h-8.36c-1.97,0-3.5-.39-4.54-1.15-1.02-.75-1.52-1.8-1.52-3.2,0-1.34,.63-2.44,1.94-3.35,1.32-.92,3.37-1.39,6.09-1.39,1.58,0,3.11,.17,4.55,.49,1.44,.33,2.86,.85,4.23,1.55l.33,.17,1.52-4.07-.24-.14c-1.36-.76-2.98-1.36-4.82-1.77-1.83-.41-3.76-.61-5.74-.61-2.86,0-5.28,.4-7.2,1.19-1.94,.8-3.4,1.88-4.34,3.21-.94,1.34-1.42,2.82-1.42,4.41,0,1.47,.34,2.8,1,3.97,.64,1.12,1.55,2.02,2.72,2.68-.11,.04-.21,.09-.32,.14-1.42,.64-2.57,1.58-3.43,2.77-.87,1.21-1.31,2.66-1.31,4.31,0,1.74,.53,3.32,1.56,4.68,1.03,1.36,2.58,2.43,4.61,3.19,2.01,.75,4.52,1.13,7.46,1.13,2.57,0,4.99-.32,7.19-.94,2.14-.61,3.56-1.16,4.98-2.32l.17-.14-1.31-4.38Z"/>
            <path class="cls-3" d="M931.86,31.39c-.8-1.28-1.75-2.49-2.83-3.6,1.19-1.22,1.77-2.34,1.77-3.42,0-1.54-1.15-2.43-3.17-2.43-1.36,0-3.08,.44-4.86,1.25-3.48-1.78-7.39-2.71-11.33-2.71-6.7,0-10.2,3.68-10.2,7.32,0,4.54,3.19,7.04,8.99,7.04,.96,0,1.93-.06,2.88-.18-.04,.3-.06,.6-.07,.91-.27-.02-.54-.03-.82-.03-12.57,0-21.69,7.34-21.69,17.45,0,3.83,1.05,6.79,3.13,8.82-.11,.82-.17,1.6-.17,2.32,0,6.46,3.75,10.17,10.3,10.17,4.81,0,9.52-2.08,13.65-6.01,3.48-3.32,6.45-7.87,8.36-12.82l.13-.33-1.15-.44-.13,.33c-1.85,4.77-4.7,9.17-8.04,12.37-3.9,3.74-8.33,5.72-12.82,5.72-5.72,0-9-3.26-9-8.94,0-.45,.02-.92,.07-1.4,1.8,1.24,4.1,1.87,6.85,1.87,10.57,0,19.85-11.64,19.85-18.67,0-3.66-2.31-5.68-6.51-5.68-10.33,0-19.12,10.22-21.14,20.01-1.23-1.45-1.88-3.3-1.88-5.39,0-9.37,11.52-18.2,20.45-18.2,.21,0,.42,.01,.64,.03,.43,2.23,2.63,3.41,4.14,3.41,.94,0,1.54-.47,1.54-1.2,0-1.18-1.73-2.71-4.56-3.22,0-.45,.04-.87,.1-1.28,5.21-.89,10.7-3.23,13.85-5.9,1.03,1.08,1.94,2.24,2.7,3.47l.2,.32,.96-.7-.17-.28Zm-18.56,2.06c-1.11,.15-2.14,.22-3.08,.22-6.44,0-7.79-3.19-7.79-5.86,0-2.96,2.82-6.14,9-6.14,3.43,0,6.87,.75,10,2.18-4.22,2.31-7.22,5.85-8.13,9.6Zm1.29-.2c.55-1.83,2.39-5.99,8.14-8.76,1.73,.93,3.29,2.04,4.64,3.31-2.89,2.42-7.9,4.56-12.78,5.45Zm2.94,5.58c0,.11,0,.26-.37,.26-.76,0-2.24-.8-2.76-2.14,2.07,.45,3.13,1.49,3.13,1.88Zm10.1-15.7c1.97,0,1.97,.94,1.97,1.25,0,.81-.47,1.72-1.37,2.64-1.24-1.16-2.63-2.21-4.16-3.1,1.32-.51,2.56-.78,3.56-.78Zm-32.62,38.3c1.92-11.76,12.05-19.93,20.01-19.93,3.43,0,5.32,1.6,5.32,4.5,0,6.58-9.04,17.49-18.65,17.49-2.63,0-4.94-.71-6.67-2.05Z"/>
            <g>
              <path class="cls-3" d="M931.26,28.97h12.94s0,2.39,0,2.39h2.46v2.43s2.5,0,2.5,0v10.1s-2.5,0-2.5,0v2.43h-2.46s0,2.43,0,2.43h-9.96s0,12.13,0,12.13h-2.98s0-31.9,0-31.9Zm12.5,16.91v-2.43h2.5s0-9.24,0-9.24h-2.5v-2.43s-9.51,0-9.51,0v14.09s9.51,0,9.51,0Z"/>
              <path class="cls-3" d="M934.57,61.19h-3.64s0-32.55,0-32.55h13.59s0,2.39,0,2.39h2.46v2.43s2.5,0,2.5,0v10.75s-2.5,0-2.5,0v2.43h-2.46s0,2.43,0,2.43h-9.96s0,12.13,0,12.13Zm-2.98-.65h2.33s0-12.13,0-12.13h9.96s0-2.2,0-2.2h-9.96s0-14.74,0-14.74h9.96s0-2.17,0-2.17h-12.29s0,31.24,0,31.24Zm12.5-14.56h2.25s0-2.2,0-2.2h-2.25s0,2.2,0,2.2Zm-9.51-.43h8.86s0-2.43,0-2.43h2.5s0-8.58,0-8.58h-2.5v-2.43s-8.86,0-8.86,0v13.44Zm12.01-2h2.25s0-9.44,0-9.44h-2.25s0,9.44,0,9.44Zm-2.5-9.67h2.25s0-2.2,0-2.2h-2.25s0,2.2,0,2.2Z"/>
            </g>
          </g>
          <g>
            <path class="cls-3" d="M975.31,56.69c.73-1.89,2.96-4.06,6.62-6.44,3.11-2.04,5.39-3.76,6.6-4.98,2.11-2.23,3.18-4.73,3.18-7.43,0-2.75-.99-5.01-2.94-6.72h0c-1.95-1.68-4.45-2.53-7.41-2.53-3.29,0-5.97,1.07-7.97,3.19-2.03,2.1-3.05,4.93-3.05,8.42v.32s4.27,0,4.27,0v-.32c.05-2.61,.67-4.6,1.88-5.94,1.07-1.36,2.62-2.02,4.74-2.02,1.97,0,3.52,.49,4.6,1.46,1.09,.97,1.62,2.31,1.62,4.09,0,1.86-.79,3.63-2.34,5.27-.79,.81-2.35,2.01-4.9,3.78-3.18,2.12-5.57,4.02-6.91,5.5-2.14,2.29-3.22,4.92-3.22,7.81v.32s21.68,0,21.68,0v-3.78s-16.45,0-16.45,0Z"/>
            <path class="cls-3" d="M1023.34,67.1c.65-1.5,1.49-3.41,2.54-5.72,.29-.63,1.39-2.94,3.21-6.25,9.69-9.41,17.57-20.03,17.57-23.7,0-.72-.45-1.21-1.11-1.21-4.13,0-15.87,21.38-17.34,24.08-4.82,4.66-13.65,12.45-22.91,16.86,6.83-4.45,12.05-8.9,15.89-13.52,5.21-6.27,7.85-13,7.85-20,0-3.22-1.4-6.92-4.47-7.61-.75-4-3.41-6.2-7.52-6.2-10.11,0-26.83,13.63-26.83,29.17,0,2.75,.5,5.4,1.49,7.87l.5,.21,.49-.21,.2-.48c-.95-2.38-1.44-4.87-1.44-7.39,0-6.62,3.36-13.72,9.23-19.5,5.19-5.11,11.61-8.41,16.36-8.41,2.35,0,5.3,.85,6.22,4.79-4.37,.13-10.59,3.39-15.96,8.37-5.84,5.42-9.33,11.57-9.33,16.46,0,4.15,2.09,5.03,3.84,5.03,8.73,0,22.97-15.19,22.97-27.19,0-.42-.02-.82-.05-1.2,2.22,.8,3.06,4.18,3.06,6.27,0,4.37-3.35,11.25-8.96,18.39-5.87,7.47-13.15,13.91-19.98,17.66l-.17,.45,.15,.42,.45,.24c10.24-2.83,20.89-11.42,27.18-17.2-.67,1.3-1.23,2.42-1.61,3.25-3,6.47-5.55,13.18-5.58,13.25l.35,.51h.59s.33-.2,.33-.2l.05-.09c2.63-4.82,5.47-9.06,8.43-12.61,5.68-6.79,11.19-10.28,16.38-10.36l.37-.37v-.52s-.38-.37-.38-.37c-9.33,.15-17.87,10.81-22.06,17.02Zm7.84-15.76c6.62-11.71,12.2-19.5,14.24-19.84-.1,2.73-5.47,10.84-14.24,19.84Zm-29.36,7.15c-1.73,0-2.6-1.26-2.6-3.75,0-4.61,3.34-10.44,8.93-15.59,5.17-4.76,11.15-7.86,15.32-7.97,.05,.48,.08,.94,.08,1.4,0,4.15-3.33,10.32-8.91,16.5-4.92,5.46-10.32,9.41-12.83,9.41Z"/>
            <path class="cls-3" d="M1076.68,38.74c-.84-1.95-2.05-3.66-3.58-5.11-1.53-1.44-3.36-2.57-5.44-3.36-2.08-.78-4.36-1.18-6.8-1.18-2.47,0-4.77,.41-6.85,1.21-2.08,.8-3.91,1.94-5.44,3.38-1.53,1.44-2.74,3.15-3.6,5.08-.86,1.93-1.29,4.07-1.29,6.36,0,2.29,.44,4.43,1.29,6.36,.86,1.93,2.07,3.64,3.6,5.08,1.53,1.44,3.37,2.58,5.46,3.38,2.09,.8,4.39,1.21,6.82,1.21,2.44,0,4.73-.4,6.8-1.18,2.08-.79,3.91-1.91,5.44-3.36,1.53-1.44,2.73-3.15,3.58-5.08,.84-1.93,1.27-4.09,1.27-6.4,0-2.28-.43-4.43-1.27-6.38Zm-3.91,6.38c0,1.64-.3,3.18-.9,4.56-.6,1.38-1.44,2.61-2.5,3.64-1.06,1.03-2.33,1.84-3.77,2.41-1.44,.57-3.05,.85-4.78,.85-1.7,0-3.29-.29-4.73-.85-1.44-.57-2.72-1.37-3.8-2.41-1.08-1.03-1.93-2.26-2.52-3.64-.6-1.38-.9-2.92-.9-4.56s.3-3.17,.9-4.54c.6-1.37,1.45-2.6,2.52-3.64,1.08-1.05,2.35-1.86,3.8-2.43,1.44-.57,3.04-.85,4.73-.85,1.73,0,3.33,.29,4.78,.85,1.44,.57,2.71,1.38,3.77,2.43,1.06,1.05,1.91,2.27,2.5,3.64,.6,1.37,.9,2.9,.9,4.54Z"/>
            <path class="cls-3" d="M1114.07,47.56c-.71-1.04-1.64-1.88-2.79-2.51-1.12-.61-2.38-1.11-3.74-1.49-1.35-.37-2.7-.71-4.01-1.01-1.31-.3-2.53-.63-3.62-1-1.06-.36-1.93-.84-2.58-1.43-.63-.57-.93-1.32-.93-2.29,0-.81,.24-1.56,.71-2.21,.48-.66,1.25-1.2,2.31-1.6,1.08-.41,2.48-.62,4.17-.62,1.35,0,2.76,.19,4.21,.57,1.43,.38,2.81,.99,4.1,1.83l.32,.21,1.71-4.03-.22-.15c-1.32-.87-2.9-1.55-4.69-2.02-1.79-.46-3.61-.7-5.43-.7-2.74,0-5.04,.41-6.83,1.21-1.8,.81-3.16,1.9-4.03,3.25-.87,1.35-1.31,2.84-1.31,4.44,0,1.66,.36,3.04,1.07,4.11,.7,1.05,1.64,1.91,2.79,2.53,1.12,.61,2.38,1.12,3.73,1.51,1.34,.39,2.7,.73,4.02,1.01,1.3,.28,2.52,.62,3.61,1,1.06,.37,1.93,.86,2.59,1.46,.63,.57,.93,1.31,.93,2.25,0,.81-.25,1.55-.73,2.19-.49,.65-1.27,1.17-2.33,1.54-1.08,.39-2.51,.58-4.27,.58-1.93,0-3.81-.33-5.59-.97-1.78-.64-3.27-1.46-4.41-2.43l-.32-.27-1.92,3.94,.18,.16c1.27,1.14,3.01,2.08,5.2,2.79,2.17,.71,4.48,1.07,6.86,1.07,2.74,0,5.05-.41,6.87-1.21,1.83-.81,3.21-1.9,4.1-3.25,.89-1.35,1.33-2.83,1.33-4.4s-.36-2.99-1.07-4.04Z"/>
            <path class="cls-3" d="M1167.74,53.55l-.33,.27c-1.17,.97-2.68,1.73-4.5,2.26-1.83,.53-3.79,.8-5.81,.8-2.99,0-5.21-.47-6.61-1.38-1.37-.9-2.04-2.04-2.04-3.48,0-1.02,.28-1.83,.85-2.49,.58-.67,1.4-1.17,2.46-1.49,1.08-.33,2.37-.5,3.84-.5h8.46s0-4.34,0-4.34h-8.28c-1.95,0-3.47-.38-4.49-1.14-1.01-.74-1.5-1.78-1.5-3.17,0-1.33,.63-2.42,1.92-3.32,1.31-.92,3.34-1.38,6.03-1.38,1.56,0,3.08,.16,4.5,.49,1.43,.32,2.83,.84,4.19,1.54l.32,.17,1.51-4.03-.24-.14c-1.35-.75-2.95-1.34-4.77-1.75-1.81-.4-3.73-.61-5.68-.61-2.83,0-5.23,.4-7.13,1.18-1.92,.79-3.36,1.86-4.3,3.18-.93,1.32-1.41,2.79-1.41,4.37,0,1.45,.33,2.78,.99,3.94,.63,1.11,1.54,2,2.7,2.65-.11,.04-.21,.09-.32,.14-1.4,.64-2.55,1.56-3.4,2.74-.86,1.19-1.3,2.63-1.3,4.27,0,1.72,.52,3.28,1.55,4.64,1.02,1.34,2.55,2.41,4.56,3.15,1.99,.74,4.47,1.11,7.38,1.11,2.55,0,4.94-.31,7.12-.94,2.18-.62,3.98-1.5,5.33-2.61l.19-.16-1.78-3.96Z"/>
            <path class="cls-3" d="M1206.37,30.16c-.74-.69-1.75-1.04-3.02-1.04-1.17,0-2.52,.24-4.04,.71-1.5,.47-3.12,1.15-4.82,2.02-1.7,.87-3.39,1.9-5.02,3.05-5.41,3.78-8.05,7.13-8.05,10.24,0,1.95,1,3.24,2.96,3.83-4.7,2.37-8.41,4.98-11.02,7.76-2.82,2.99-4.25,6.06-4.25,9.11,0,1.85,.52,3.49,1.55,4.87,1.02,1.37,2.5,2.43,4.4,3.14,1.87,.71,4.1,1.06,6.62,1.06,2.28,0,4.86-.36,7.66-1.07,2.78-.71,5.66-1.73,8.55-3.06l.17-.08,1.01-4.85-.68,.35c-2.95,1.53-5.6,2.78-7.89,3.72-2.28,.93-4.39,1.64-6.26,2.1-1.86,.45-3.57,.68-5.1,.68-2.15,0-3.94-.55-5.3-1.62-1.36-1.07-2.02-2.42-2.02-4.12,0-3.47,2.83-7.26,8.42-11.26,3.41-2.44,6.85-4.39,10.23-5.8l.18-.07,.57-2.74h-1.01c-1.52-.06-2.6-.2-3.18-.4-.54-.22-1.01-.58-1.39-1.1-.38-.51-.56-1.04-.56-1.6,0-1.23,.64-2.68,1.91-4.3,1.3-1.66,3.08-3.24,5.31-4.71,1.67-1.12,3.37-2.03,5.07-2.7,1.67-.66,3.09-1,4.22-1,2.17,0,2.43,1.09,2.43,1.92,0,2.14-1.75,5.1-5.21,8.8l-.23,.25,2.28,2.43,.26-.25c1.21-1.13,2.33-2.42,3.31-3.82,.99-1.41,1.75-2.77,2.27-4.07,.53-1.31,.79-2.5,.79-3.54,0-1.18-.38-2.13-1.12-2.82Z"/>
            <path class="cls-3" d="M1235.84,34.43c-1.06-1.62-2.6-2.87-4.56-3.72-1.95-.84-4.33-1.27-7.07-1.27h-12.39s0,30.68,0,30.68h5.07s0-9.1,0-9.1h7.32c2.74,0,5.12-.44,7.07-1.29,1.96-.86,3.5-2.12,4.56-3.72,1.06-1.61,1.6-3.55,1.6-5.78s-.54-4.18-1.6-5.8Zm-18.95-.62h7.19c2.74,0,4.83,.57,6.23,1.69,1.39,1.12,2.07,2.67,2.07,4.73,0,2.06-.68,3.61-2.07,4.73-1.39,1.12-3.49,1.69-6.23,1.69h-7.19s0-12.83,0-12.83Z"/>
            <polygon class="cls-3" points="1124.2 55.74 1124.2 29.44 1119.13 29.44 1119.13 60.12 1140.95 60.12 1140.95 55.74 1124.2 55.74"/>
          </g>
        </g>
        <text class="cls-2" transform="translate(951.61 59.78)"><tspan x="0" y="0">,</tspan></text>
      </g>
      <g>
        <path class="cls-3" d="M43.42,31.12c3.06,3.59,4.64,8.23,4.64,13.98s-1.58,10.29-4.64,13.87c-3.27,3.75-7.75,5.64-13.4,5.64s-10.08-1.9-13.35-5.64c-3.11-3.59-4.64-8.23-4.64-13.87s1.53-10.34,4.64-13.93c3.27-3.8,7.7-5.7,13.4-5.7s10.08,1.85,13.35,5.64Zm-23.58,2.69c-2.32,2.85-3.48,6.59-3.48,11.29s1.16,8.39,3.48,11.24c2.43,2.95,5.86,4.43,10.18,4.43s7.75-1.48,10.18-4.33c2.32-2.85,3.53-6.59,3.53-11.34s-1.21-8.6-3.53-11.45c-2.43-2.9-5.8-4.33-10.13-4.33s-7.75,1.48-10.23,4.48Z"/>
        <path class="cls-3" d="M58.62,26.22l21.31,30.65h.16V26.22h4.33V63.88h-4.43l-21.42-30.96h-.16v30.96h-4.33V26.22h4.54Z"/>
        <path class="cls-3" d="M118.7,26.22v3.75h-22.37v12.61h21.1v3.75h-21.1v13.82h23.26v3.75h-27.59V26.22h26.69Z"/>
        <path class="cls-3" d="M165.86,28.38c2.53,2,3.96,5.01,4.33,8.97h-4.27c-.47-2.74-1.53-4.75-3.17-6.07-1.69-1.37-4.06-2-7.12-2-2.8,0-4.96,.42-6.54,1.37-1.79,1.05-2.69,2.64-2.69,4.8,0,1.9,1.05,3.43,3.22,4.59,.95,.53,3.27,1.32,6.91,2.37,4.96,1.48,8.23,2.69,9.81,3.64,3.11,1.9,4.69,4.54,4.69,7.96s-1.32,5.91-3.96,7.81c-2.64,1.85-6.17,2.8-10.66,2.8s-7.91-.95-10.44-2.85c-2.95-2.27-4.59-5.7-4.91-10.34h4.27c.37,3.27,1.53,5.7,3.43,7.23,1.74,1.37,4.27,2.11,7.65,2.11,3.06,0,5.59-.58,7.49-1.74,1.9-1.16,2.85-2.74,2.85-4.75,0-2.37-1.27-4.22-3.75-5.54-1.05-.63-3.75-1.53-7.96-2.74-4.54-1.37-7.44-2.43-8.65-3.06-2.9-1.69-4.33-4.11-4.33-7.28s1.37-5.86,4.17-7.65c2.48-1.69,5.7-2.53,9.6-2.53,4.22,0,7.6,.95,10.02,2.9Z"/>
        <path class="cls-3" d="M180.84,26.22v16.35h21.79V26.22h4.33V63.88h-4.33v-17.57h-21.79v17.57h-4.33V26.22h4.33Z"/>
        <path class="cls-3" d="M241.18,26.22v3.75h-22.37v12.61h21.1v3.75h-21.1v13.82h23.26v3.75h-27.59V26.22h26.69Z"/>
        <path class="cls-3" d="M274.79,26.22v3.75h-22.37v12.61h21.1v3.75h-21.1v13.82h23.26v3.75h-27.59V26.22h26.69Z"/>
        <path class="cls-3" d="M297.1,26.22c8.65,0,12.98,3.69,12.98,11.08s-4.38,11.18-13.03,11.18h-11.03v15.4h-4.33V26.22h15.4Zm-11.08,18.51h10.81c3.06,0,5.27-.63,6.75-1.85,1.42-1.21,2.16-3.06,2.16-5.59s-.74-4.38-2.22-5.49c-1.48-1.27-3.69-1.85-6.7-1.85h-10.81v14.77Z"/>
        <path class="cls-3" d="M321.63,59.08c.69,.95,1.05,2.16,1.05,3.69,0,2.32-.69,4.38-2.06,6.17-1.37,1.69-3.22,2.85-5.49,3.43v-2.58c1.37-.47,2.53-1.27,3.38-2.32,.79-1.11,1.16-2.27,1.16-3.53-.26,.11-.63,.21-1.16,.21-.9,0-1.64-.32-2.27-.95s-.95-1.42-.95-2.32c0-1,.32-1.79,1-2.37,.58-.63,1.37-.9,2.43-.9,1.16,0,2.16,.47,2.9,1.48Z"/>
        <path class="cls-3" d="M375.01,26.22v3.75h-13.29V63.88h-4.27V29.96h-13.29v-3.75h30.86Z"/>
        <path class="cls-3" d="M381.03,26.22l8.28,31.6h.21l8.6-31.6h4.69l8.55,31.6h.21l8.28-31.6h4.85l-10.81,37.66h-4.8l-8.55-31.39h-.16l-8.6,31.39h-4.8l-10.81-37.66h4.85Z"/>
        <path class="cls-3" d="M458.57,31.12c3.06,3.59,4.64,8.23,4.64,13.98s-1.58,10.29-4.64,13.87c-3.27,3.75-7.75,5.64-13.4,5.64s-10.08-1.9-13.35-5.64c-3.11-3.59-4.64-8.23-4.64-13.87s1.53-10.34,4.64-13.93c3.27-3.8,7.7-5.7,13.4-5.7s10.08,1.85,13.35,5.64Zm-23.58,2.69c-2.32,2.85-3.48,6.59-3.48,11.29s1.16,8.39,3.48,11.24c2.43,2.95,5.85,4.43,10.18,4.43s7.75-1.48,10.18-4.33c2.32-2.85,3.53-6.59,3.53-11.34s-1.21-8.6-3.53-11.45c-2.43-2.9-5.8-4.33-10.13-4.33s-7.75,1.48-10.23,4.48Z"/>
        <path class="cls-3" d="M509.47,28.38c2.53,2,3.96,5.01,4.33,8.97h-4.27c-.47-2.74-1.53-4.75-3.17-6.07-1.69-1.37-4.06-2-7.12-2-2.8,0-4.96,.42-6.54,1.37-1.79,1.05-2.69,2.64-2.69,4.8,0,1.9,1.06,3.43,3.22,4.59,.95,.53,3.27,1.32,6.91,2.37,4.96,1.48,8.23,2.69,9.81,3.64,3.11,1.9,4.69,4.54,4.69,7.96s-1.32,5.91-3.96,7.81c-2.64,1.85-6.17,2.8-10.66,2.8s-7.91-.95-10.44-2.85c-2.95-2.27-4.59-5.7-4.91-10.34h4.27c.37,3.27,1.53,5.7,3.43,7.23,1.74,1.37,4.27,2.11,7.65,2.11,3.06,0,5.59-.58,7.49-1.74,1.9-1.16,2.85-2.74,2.85-4.75,0-2.37-1.27-4.22-3.75-5.54-1.05-.63-3.75-1.53-7.96-2.74-4.54-1.37-7.44-2.43-8.65-3.06-2.9-1.69-4.33-4.11-4.33-7.28s1.37-5.86,4.17-7.65c2.48-1.69,5.7-2.53,9.6-2.53,4.22,0,7.6,.95,10.02,2.9Z"/>
        <path class="cls-3" d="M524.4,26.22V60.14h21.79v3.75h-26.06V26.22h4.27Z"/>
        <path class="cls-3" d="M577.84,26.22v3.75h-22.37v12.61h21.1v3.75h-21.1v13.82h23.26v3.75h-27.59V26.22h26.69Z"/>
        <path class="cls-3" d="M611.44,26.22v3.75h-22.37v12.61h21.1v3.75h-21.1v13.82h23.26v3.75h-27.59V26.22h26.69Z"/>
        <path class="cls-3" d="M633.75,26.22c8.65,0,12.98,3.69,12.98,11.08s-4.38,11.18-13.03,11.18h-11.02v15.4h-4.33V26.22h15.4Zm-11.08,18.51h10.81c3.06,0,5.28-.63,6.75-1.85,1.42-1.21,2.16-3.06,2.16-5.59s-.74-4.38-2.22-5.49c-1.48-1.27-3.69-1.85-6.7-1.85h-10.81v14.77Z"/>
        <path class="cls-3" d="M657.65,58.55c.63,.63,.95,1.37,.95,2.32,0,.9-.32,1.64-.95,2.27s-1.42,.95-2.27,.95c-.95,0-1.69-.32-2.27-.95-.63-.63-.95-1.37-.95-2.27,0-.95,.32-1.69,.95-2.32,.58-.63,1.32-.95,2.27-.95,.84,0,1.64,.32,2.27,.95Z"/>
      </g>
    </g>
  </g>
</svg>