<svg xmlns="http://www.w3.org/2000/svg" xmlns:xlink="http://www.w3.org/1999/xlink" viewBox="0 0 1726.57103 89.96703"><defs><style>.cls-1{fill:none;}.cls-2{clip-path:url(#clip-path);}.cls-3,.cls-4{fill:#fff;}.cls-4{font-size:30.66319px;font-family:ArialMT, Arial;letter-spacing:-0.02em;}</style><clipPath id="clip-path"><rect class="cls-1" x="0.00005" y="0.00009" width="1726.57094" height="89.96685"/></clipPath></defs><g id="font"><g class="cls-2"><path class="cls-3" d="M1254.43038,31.12388c3.05957,3.58692,4.6416,8.2295,4.6416,13.97852,0,5.69726-1.582,10.28613-4.6416,13.874-3.27051,3.74512-7.75391,5.64356-13.39844,5.64356-5.64355,0-10.07519-1.89844-13.3457-5.64356-3.11231-3.58789-4.6416-8.22949-4.6416-13.874,0-5.69629,1.52929-10.33887,4.6416-13.92578,3.27051-3.79785,7.70215-5.69629,13.39844-5.69629C1246.67647,25.48033,1251.15987,27.326,1254.43038,31.12388Zm-23.5791,2.69043c-2.32129,2.84864-3.48145,6.59375-3.48145,11.28809q0,6.96387,3.48145,11.23633c2.42676,2.9541,5.85547,4.43066,10.18066,4.43066s7.75391-1.47656,10.18067-4.32519c2.32128-2.84864,3.53418-6.59375,3.53418-11.3418,0-4.79981-1.2129-8.59766-3.53418-11.44629-2.42676-2.90137-5.80274-4.3252-10.12793-4.3252S1233.33077,30.80748,1230.85128,33.81431Z"/><path class="cls-3" d="M1269.62374,26.21861l21.31055,30.64746h.1582V26.21861h4.32519V63.8817H1290.987l-21.416-30.96387h-.15918V63.8817h-4.32519V26.21861Z"/><path class="cls-3" d="M1329.70577,26.21861v3.74512h-22.36621V42.57115h21.10058v3.74512h-21.10058V60.13658h23.26269V63.8817h-27.58789V26.21861Z"/><path class="cls-3" d="M1376.865,28.38072c2.53223,2.00488,3.95605,5.01172,4.32519,8.96777h-4.27246a9.51154,9.51154,0,0,0-3.165-6.0664c-1.68847-1.3711-4.06152-2.00391-7.12109-2.00391a12.70731,12.70731,0,0,0-6.541,1.37109,5.18614,5.18614,0,0,0-2.69043,4.80079c0,1.89843,1.05468,3.42871,3.21777,4.58886a43.90529,43.90529,0,0,0,6.91016,2.374q7.437,2.21484,9.81152,3.63964a8.884,8.884,0,0,1,4.69433,7.96485,9.145,9.145,0,0,1-3.95605,7.80664c-2.6377,1.84668-6.17188,2.7959-10.65527,2.7959q-6.646,0-10.44434-2.84864c-2.9541-2.26757-4.58887-5.69628-4.90625-10.33886h4.27344c.36914,3.2705,1.52929,5.69726,3.42871,7.22656,1.74023,1.37207,4.27246,2.11035,7.64844,2.11035a14.31492,14.31492,0,0,0,7.49023-1.74023,5.3359,5.3359,0,0,0,2.84863-4.748c0-2.374-1.26562-4.21973-3.74511-5.53809-1.05469-.63379-3.74512-1.53027-7.96485-2.74316a63.11135,63.11135,0,0,1-8.65136-3.05957,7.96361,7.96361,0,0,1-4.3252-7.2793,8.59262,8.59262,0,0,1,4.167-7.64941,16.76668,16.76668,0,0,1,9.60059-2.53125C1371.06221,25.48033,1374.43819,26.42955,1376.865,28.38072Z"/><path class="cls-3" d="M1391.84639,26.21861V42.57115h21.78516V26.21861h4.3252V63.8817h-4.3252V46.31627h-21.78516V63.8817h-4.32617V26.21861Z"/><path class="cls-3" d="M1452.1921,26.21861v3.74512h-22.36621V42.57115h21.09961v3.74512h-21.09961V60.13658h23.26269V63.8817h-27.58789V26.21861Z"/><path class="cls-3" d="M1485.79366,26.21861v3.74512h-22.36523V42.57115H1484.528v3.74512h-21.09961V60.13658h23.26269V63.8817h-27.58789V26.21861Z"/><path class="cls-3" d="M1508.10811,26.21861q12.97558,0,12.97559,11.07715c0,7.4375-4.37793,11.18262-13.02832,11.18262H1497.03V63.8817h-4.3252V26.21861ZM1497.03,44.73326h10.81445c3.05957,0,5.27442-.63281,6.751-1.8457,1.4248-1.21387,2.16308-3.05958,2.16308-5.5918s-.73828-4.37793-2.21582-5.48535c-1.47656-1.2666-3.6914-1.84668-6.69824-1.84668H1497.03Z"/><path class="cls-3" d="M1532.63741,59.08189a6.127,6.127,0,0,1,1.05469,3.69238,9.88,9.88,0,0,1-2.05762,6.1709,10.12208,10.12208,0,0,1-5.48535,3.42969v-2.585a7.34622,7.34622,0,0,0,3.376-2.32129,5.9068,5.9068,0,0,0,1.16015-3.53418,3.02847,3.02847,0,0,1-1.16015.21094,3.069,3.069,0,0,1-2.26856-.94922,3.18671,3.18671,0,0,1-.94922-2.32129,2.9291,2.9291,0,0,1,1.002-2.374,3.07358,3.07358,0,0,1,2.42675-.89649A3.46011,3.46011,0,0,1,1532.63741,59.08189Z"/><path class="cls-3" d="M1586.02022,26.21861v3.74512h-13.293v33.918h-4.27246v-33.918h-13.293V26.21861Z"/><path class="cls-3" d="M1592.03389,26.21861l8.28125,31.59668h.21094l8.59863-31.59668h4.69434l8.5459,31.59668h.21094l8.28125-31.59668h4.85351L1624.8962,63.8817h-4.79981L1611.5505,32.496h-.15821l-8.59765,31.38575h-4.80078l-10.81348-37.66309Z"/><path class="cls-3" d="M1669.57686,31.12388c3.05957,3.58692,4.6416,8.2295,4.6416,13.97852,0,5.69726-1.582,10.28613-4.6416,13.874-3.2705,3.74512-7.75488,5.64356-13.39843,5.64356-5.64454,0-10.0752-1.89844-13.34571-5.64356-3.1123-3.58789-4.6416-8.22949-4.6416-13.874,0-5.69629,1.5293-10.33887,4.6416-13.92578,3.27051-3.79785,7.70117-5.69629,13.39844-5.69629C1661.822,25.48033,1666.30636,27.326,1669.57686,31.12388Zm-23.5791,2.69043c-2.32129,2.84864-3.48144,6.59375-3.48144,11.28809q0,6.96387,3.48144,11.23633c2.42578,2.9541,5.85547,4.43066,10.18067,4.43066s7.7539-1.47656,10.18066-4.32519c2.32031-2.84864,3.53418-6.59375,3.53418-11.3418,0-4.79981-1.21387-8.59766-3.53418-11.44629-2.42676-2.90137-5.80273-4.3252-10.12793-4.3252S1648.47628,30.80748,1645.99776,33.81431Z"/><path class="cls-3" d="M1720.48116,28.38072c2.53223,2.00488,3.95605,5.01172,4.3252,8.96777h-4.27247a9.51153,9.51153,0,0,0-3.165-6.0664c-1.6875-1.3711-4.06153-2.00391-7.1211-2.00391a12.70731,12.70731,0,0,0-6.541,1.37109,5.18614,5.18614,0,0,0-2.69043,4.80079c0,1.89843,1.05566,3.42871,3.21777,4.58886a43.90529,43.90529,0,0,0,6.91016,2.374q7.43847,2.21484,9.81152,3.63964a8.88405,8.88405,0,0,1,4.69434,7.96485,9.145,9.145,0,0,1-3.95606,7.80664c-2.63769,1.84668-6.1709,2.7959-10.65527,2.7959q-6.646,0-10.44434-2.84864c-2.9541-2.26757-4.58887-5.69628-4.90527-10.33886h4.27246c.36914,3.2705,1.5293,5.69726,3.42871,7.22656,1.74023,1.37207,4.27246,2.11035,7.64844,2.11035a14.31492,14.31492,0,0,0,7.49023-1.74023,5.33588,5.33588,0,0,0,2.84863-4.748c0-2.374-1.26562-4.21973-3.74511-5.53809-1.05469-.63379-3.74512-1.53027-7.96485-2.74316a63.16368,63.16368,0,0,1-8.65136-3.05957,7.96361,7.96361,0,0,1-4.3252-7.2793,8.59262,8.59262,0,0,1,4.167-7.64941,16.7667,16.7667,0,0,1,9.60059-2.53125C1714.67843,25.48033,1718.0544,26.42955,1720.48116,28.38072Z"/><path class="cls-3" d="M670.53463,33.28855c-2.71688-2.94526-6.46229-4.43851-11.13207-4.43851-4.74971,0-8.39169,1.46666-11.13461,4.48479-2.514,2.78939-3.78863,6.49339-3.78864,11.00911,0,4.56508,1.23973,8.13835,3.79278,10.92648,2.75684,2.94454,6.50171,4.43761,11.13045,4.43761,4.6403,0,8.38463-1.463,11.1346-4.355A15.885,15.885,0,0,0,674.3708,44.344c0-4.55605-1.29035-8.27542-3.83527-11.0545Zm-18.11514,3.24994.00217-.00253a8.4998,8.4998,0,0,1,6.98089-2.91651,8.75573,8.75573,0,0,1,7.03207,2.8809c1.63392,1.8359,2.46228,4.47485,2.46227,7.8436,0,3.33983-.82835,5.96412-2.46228,7.8a8.95592,8.95592,0,0,1-7.03207,2.79409,8.75888,8.75888,0,0,1-7.02954-2.9214,11.351,11.351,0,0,1-2.4196-7.67273A11.54338,11.54338,0,0,1,652.41949,36.53849Z"/><path class="cls-3" d="M675.03118,28.98512v-.00018a22.5647,22.5647,0,0,0-31.256-.0011,20.34748,20.34748,0,0,0-6.48346,15.1865,20.48085,20.48085,0,0,0,6.48217,15.18489,22.56226,22.56226,0,0,0,31.25834-.00125,21.02658,21.02658,0,0,0-.00107-30.36886Zm3.8199,15.18525A18.04963,18.04963,0,0,1,673.19471,57.541a20.04265,20.04265,0,0,1-27.57911.00523A18.05528,18.05528,0,0,1,639.954,44.17034a18.14881,18.14881,0,0,1,5.65908-13.3732,20.04107,20.04107,0,0,1,27.57766-.00143A18.14933,18.14933,0,0,1,678.85108,44.17037Z"/><polygon class="cls-3" points="708.75 29.107 708.75 51.134 690.579 29.225 690.481 29.107 686.341 29.107 686.341 60.098 691.458 60.098 691.458 38.07 709.629 59.98 709.727 60.098 713.867 60.098 713.867 29.107 708.75 29.107"/><path class="cls-3" d="M744.15208,52.70169l-.33055.27395a12.52565,12.52565,0,0,1-4.54773,2.27784,21.01087,21.01087,0,0,1-5.8681.81081c-3.01705,0-5.26216-.47051-6.673-1.39868a4.03542,4.03542,0,0,1-2.0623-3.519,3.679,3.679,0,0,1,.85747-2.51689,5.2338,5.2338,0,0,1,2.48326-1.505,13.32509,13.32509,0,0,1,3.87669-.50613l8.54032,0V42.23921l-8.36167,0a7.622,7.622,0,0,1-4.53868-1.15022,3.70381,3.70381,0,0,1-1.5182-3.20439,3.958,3.958,0,0,1,1.93591-3.35139c1.32237-.92437,3.36966-1.39288,6.08509-1.39288a20.71085,20.71085,0,0,1,4.54827.49058,17.76255,17.76255,0,0,1,4.23,1.55328l.32693.16889,1.52145-4.07433-.24411-.13688a17.79689,17.79689,0,0,0-4.82059-1.767,26.461,26.461,0,0,0-5.74062-.61462,19.03067,19.03067,0,0,0-7.20005,1.1947,9.66364,9.66364,0,0,0-4.33834,3.21215,7.52185,7.52185,0,0,0-1.42074,4.4141,7.93683,7.93683,0,0,0,1.00213,3.97469,6.99224,6.99224,0,0,0,2.72176,2.67566q-.16031.06645-.31843.13815a8.48152,8.48152,0,0,0-3.433,2.77221,7.19566,7.19566,0,0,0-1.3117,4.30813,7.5798,7.5798,0,0,0,1.56141,4.68317,9.99447,9.99447,0,0,0,4.61029,3.18558,21.61191,21.61191,0,0,0,7.45737,1.12581,26.20541,26.20541,0,0,0,7.18721-.94444,14.89892,14.89892,0,0,0,5.38477-2.64039l.19312-.1584Z"/><path class="cls-3" d="M774.0107,60.59438c-8.52659,0-13.52626-3.51023-13.52625-8.58031a6.72109,6.72109,0,0,1,6.696-6.76059,49.88162,49.88162,0,0,0,12.72273,11.70075l.04428-.08637c-6.82954-5.85038-14.77617-12.43749-14.77616-19.67424,0-5.89392,6.29459-8.75378,12.4549-8.75377,5.89247,0,11.60638,2.6,11.60638,7.54016,0,2.3837-2.14272,4.72384-4.68684,6.06667-4.01831-4.28979-7.76806-6.54357-12.41061-9.23l-.04428.04283C779.85818,38.19022,786.867,43.60726,786.867,51.191,786.867,57.5175,782.313,60.59438,774.0107,60.59438Z"/><polygon class="cls-3" points="815.174 29.107 815.174 42.152 797.882 42.152 797.882 29.107 792.765 29.107 792.765 60.098 797.882 60.098 797.882 46.576 815.174 46.576 815.174 60.098 820.291 60.098 820.291 29.107 815.174 29.107"/><path class="cls-3" d="M850.23668,52.66126l-.37937.31445a12.53044,12.53044,0,0,1-4.54809,2.27784,21.009,21.009,0,0,1-5.8681.81081c-3.01723,0-5.262-.47051-6.67277-1.39868a4.03483,4.03483,0,0,1-2.06211-3.519,3.67881,3.67881,0,0,1,.8571-2.51689,5.235,5.235,0,0,1,2.48344-1.505,13.32642,13.32642,0,0,1,3.87687-.50613l8.54032,0,0-4.37938-8.362,0a7.62313,7.62313,0,0,1-4.53869-1.15022,3.70354,3.70354,0,0,1-1.51783-3.20439,3.958,3.958,0,0,1,1.93554-3.35139c1.32255-.92437,3.36984-1.39288,6.08509-1.39288a20.7004,20.7004,0,0,1,4.54845.49058,17.75507,17.75507,0,0,1,4.22984,1.55328l.32693.16889,1.52146-4.07433-.24412-.13688a17.79719,17.79719,0,0,0-4.8204-1.7672,26.47426,26.47426,0,0,0-5.74045-.61444,19.02874,19.02874,0,0,0-7.20005,1.1947,9.66356,9.66356,0,0,0-4.33833,3.21215,7.52155,7.52155,0,0,0-1.42092,4.4141,7.93586,7.93586,0,0,0,1.00212,3.97469,6.99239,6.99239,0,0,0,2.72213,2.67584q-.16166.06672-.31862.138A8.47992,8.47992,0,0,0,826.901,47.142a7.19566,7.19566,0,0,0-1.3117,4.30813,7.5799,7.5799,0,0,0,1.56159,4.68317,9.99484,9.99484,0,0,0,4.61029,3.18558,21.60934,21.60934,0,0,0,7.45718,1.12581,26.20411,26.20411,0,0,0,7.187-.94444,12.63237,12.63237,0,0,0,4.97736-2.323l.16853-.138Z"/><path class="cls-3" d="M891.25628,31.394a21.14465,21.14465,0,0,0-2.83062-3.60184,5.09436,5.09436,0,0,0,1.76919-3.41522c0-1.5417-1.15438-2.42594-3.16732-2.42594a12.40665,12.40665,0,0,0-4.86489,1.25456,24.99715,24.99715,0,0,0-11.33116-2.71418c-6.69519,0-10.19812,3.68392-10.19812,7.32319,0,4.54049,3.19118,7.04093,8.98514,7.04093a23.52455,23.52455,0,0,0,2.87619-.17612c-.03725.2971-.06112.6-.0716.913-.27088-.02206-.54392-.03309-.81588-.03309-12.56836,0-21.69094,7.33729-21.691,17.44662,0,3.82515,1.05276,6.79085,3.13006,8.81843a17.0156,17.0156,0,0,0-.17178,2.318c0,6.46446,3.75245,10.17208,10.295,10.17209,4.80594,0,9.52473-2.0773,13.6468-6.00733a35.808,35.808,0,0,0,8.36023-12.819l.12766-.3309-1.14715-.44321-.128.33055A34.813,34.813,0,0,1,875.99253,67.412c-3.90074,3.74378-8.33491,5.72253-12.823,5.72253-5.722,0-9.00359-3.26026-9.00359-8.94483,0-.453.02351-.92148.07052-1.39886a11.829,11.829,0,0,0,6.84745,1.871c10.57206,0,19.84943-11.63747,19.84943-18.67189,0-3.65988-2.31346-5.67534-6.51364-5.67535-10.33373,0-19.12468,10.21746-21.1416,20.012a8.15472,8.15472,0,0,1-1.87659-5.38964c0-9.373,11.51995-18.19777,20.44868-18.19776.20795,0,.41518.01085.63867.02586a4.42019,4.42019,0,0,0,4.1369,3.41125c.93739,0,1.54315-.47195,1.54315-1.2023,0-1.18151-1.733-2.71218-4.55532-3.2194a10.71886,10.71886,0,0,1,.09982-1.27553c5.21388-.89381,10.69611-3.23005,13.85076-5.89522a21.14606,21.14606,0,0,1,2.70151,3.46767l.2018.32458.96235-.7025Zm-18.558,2.05885a23.47587,23.47587,0,0,1-3.07979.22278c-6.43987,0-7.79171-3.18721-7.79171-5.86106,0-2.95883,2.8176-6.14332,9.00468-6.14331a24.18934,24.18934,0,0,1,9.99632,2.18092C876.60447,26.16458,873.60387,29.70059,872.6983,33.45287Zm1.2853-.19691c.55007-1.83193,2.389-5.986,8.13817-8.76418a22.17829,22.17829,0,0,1,4.64465,3.31C883.88119,30.2192,878.86259,32.36034,873.9836,33.256Zm2.94273,5.577c0,.1085,0,.25732-.37286.25732a3.52871,3.52871,0,0,1-2.75648-2.13608C875.86344,37.40641,876.92633,38.44308,876.92633,38.83293Zm10.1012-15.702c1.97279,0,1.97279.93794,1.97279,1.24606a4.02462,4.02462,0,0,1-1.36992,2.6375,23.31924,23.31924,0,0,0-4.15859-3.10294A10.4044,10.4044,0,0,1,887.02753,23.1309ZM854.41191,61.42707c1.92325-11.75682,12.05085-19.93241,20.00783-19.93241,3.42987,0,5.3184,1.5965,5.3184,4.49529,0,6.57965-9.03507,17.49183-18.65419,17.49183A10.748,10.748,0,0,1,854.41191,61.42707Z"/><path class="cls-3" d="M890.65079,28.972l12.939,0v2.38733H906.049v2.42652h2.49911l0,10.09661H906.049V46.309h-2.45919v2.42653l-9.95652,0,0,12.1319h-2.98252Zm12.49554,16.90656V43.452h2.49911V34.21626h-2.49911V31.78974l-9.513,0,0,14.0888Z"/><path class="cls-3" d="M893.95994,61.194h-3.63565l0-32.5487,13.59219,0v2.3876l2.4592,0v2.42629h2.499l0,10.74982-2.499,0v2.4263h-2.4592l0,2.42666-9.95653,0Zm-2.98251-.65295h2.32937l0-12.132h9.95654V46.205l-9.95654,0,0-14.74168h9.95654v-2.165l-12.28591,0Zm12.49531-14.55851,2.24982,0V43.77849h-2.24981ZM893.96,45.552h8.85966V43.12535H905.319l0-8.58263h-2.49936l0-2.42666-8.85966,0ZM905.9721,43.5559h2.24945V34.11236H905.9721Zm-2.49935-9.666,2.24981,0,0-2.20425h-2.24982Z"/><path class="cls-3" d="M934.69837,56.68627c.73458-1.89419,2.95945-4.05925,6.62375-6.44363A44.97745,44.97745,0,0,0,947.921,45.261a10.62815,10.62815,0,0,0,3.18181-7.43137,8.5588,8.5588,0,0,0-2.93885-6.72168l-.00269-.00232a11.0307,11.0307,0,0,0-7.41436-2.5235,10.49263,10.49263,0,0,0-7.96722,3.18824,11.66793,11.66793,0,0,0-3.05218,8.41946V40.513h4.26568l.00519-.31779a8.8657,8.8657,0,0,1,1.87539-5.94072,5.62047,5.62047,0,0,1,4.74084-2.02273,6.68929,6.68929,0,0,1,4.60154,1.46271,5.167,5.167,0,0,1,1.6165,4.09274,7.58872,7.58872,0,0,1-2.33891,5.26594,38.46635,38.46635,0,0,1-4.89821,3.77512,38.81107,38.81107,0,0,0-6.90841,5.4985,11.205,11.205,0,0,0-3.2246,7.81468v.32316l21.68467,0V56.68628Z"/><path class="cls-3" d="M982.731,67.09716c.646-1.50031,1.4867-3.40953,2.53907-5.71872.29451-.63038,1.39271-2.93706,3.20794-6.253,9.69241-9.40558,17.57119-20.0293,17.57119-23.69736a1.1004,1.1004,0,0,0-1.10751-1.21064c-4.12836,0-15.86892,21.38156-17.33557,24.083-4.81532,4.659-13.64782,12.45328-22.90928,16.8645a70.03939,70.03939,0,0,0,15.885-13.52157c5.20687-6.27427,7.8471-13.00167,7.8471-19.9953,0-3.22369-1.40058-6.917-4.46762-7.60969-.75069-3.99981-3.41347-6.19764-7.52357-6.19764-10.1074,0-26.82888,13.6349-26.82889,29.17313a21.09378,21.09378,0,0,0,1.49118,7.8743l.49521.20553.488-.20821.20088-.48411a19.8012,19.8012,0,0,1-1.43746-7.38751c0-6.61748,3.36371-13.72336,9.22853-19.49561,5.18806-5.10606,11.61057-8.4053,16.36251-8.4053,2.35377,0,5.29781.84666,6.22109,4.79437-4.37041.13033-10.59473,3.38518-15.96345,8.36735-5.83993,5.41937-9.32645,11.5744-9.32645,16.46437,0,4.1545,2.08861,5.02658,3.84064,5.02658,8.72955,0,22.97355-15.18838,22.97356-27.18746,0-.4159-.02328-.8232-.05335-1.2015,2.22.79849,3.06131,4.181,3.06131,6.2714,0,4.37328-3.35011,11.24731-8.96177,18.3881-5.87037,7.4704-13.15368,13.90722-19.98188,17.66014l-.17349.45206.14609.41841.45368.23775c10.24328-2.82784,20.88654-11.42311,27.18265-17.20341-.67246,1.29854-1.22621,2.418-1.60738,3.252-2.99775,6.47049-5.5499,13.18088-5.57532,13.24784l.35055.50792h.58562l.32889-.19515.05156-.09435a77.81567,77.81567,0,0,1,8.43451-12.60779c5.67755-6.78988,11.18734-10.27586,16.37612-10.36107l.36881-.3749v-.52243l-.38081-.37489C995.46074,50.22441,986.919,60.8895,982.731,67.09716Zm7.8351-15.759c6.61909-11.70671,12.20086-19.49936,14.24311-19.837C1004.71362,34.23305,999.33756,42.33633,990.56612,51.33818Zm-29.35649,7.15421c-1.72661,0-2.60191-1.26274-2.6019-3.75329,0-4.61461,3.33936-10.444,8.93258-15.59337,5.17034-4.76,11.15207-7.8639,15.32322-7.96667a12.45028,12.45028,0,0,1,.08092,1.39916c0,4.14769-3.33023,10.31579-8.90842,16.49964C969.11527,54.533,963.721,58.49239,961.20963,58.49239Z"/><path class="cls-3" d="M1036.06973,38.73561a15.36951,15.36951,0,0,0-3.576-5.10714,16.29241,16.29241,0,0,0-5.43781-3.35619,19.17,19.17,0,0,0-6.79956-1.18288,18.966,18.966,0,0,0-6.847,1.20561,16.555,16.555,0,0,0-5.43585,3.37766,15.71525,15.71525,0,0,0-.00019,22.88223,16.48788,16.48788,0,0,0,5.45948,3.37875,20.01708,20.01708,0,0,0,13.6231.02167,16.26622,16.26622,0,0,0,5.438-3.35618,15.401,15.401,0,0,0,3.5755-5.08422,16.72321,16.72321,0,0,0,.00036-12.77931Zm-3.90725,6.37864a11.45786,11.45786,0,0,1-.89894,4.56037,11.14871,11.14871,0,0,1-6.27409,6.04778,13.02676,13.02676,0,0,1-4.77861.85435,12.89173,12.89173,0,0,1-4.7335-.85453,11.52154,11.52154,0,0,1-3.798-2.40748,11.07193,11.07193,0,0,1-2.52135-3.64031,11.44646,11.44646,0,0,1-.89875-4.56019,11.27157,11.27157,0,0,1,7.21833-10.60887,12.90463,12.90463,0,0,1,4.73331-.85381,13.038,13.038,0,0,1,4.77862.85381,11.1572,11.1572,0,0,1,3.77225,2.427,11.57725,11.57725,0,0,1,2.50237,3.64479A11.304,11.304,0,0,1,1032.16248,45.11425Z"/><path class="cls-3" d="M1073.46074,47.5615a7.86064,7.86064,0,0,0-2.7872-2.50577,17.79472,17.79472,0,0,0-3.73681-1.48652c-1.34778-.37329-2.69841-.71382-4.01432-1.01209a37.17745,37.17745,0,0,1-3.61506-.99937,7.21956,7.21956,0,0,1-2.58222-1.435,2.91744,2.91744,0,0,1-.93241-2.29253,3.71329,3.71329,0,0,1,.7122-2.21412,4.93211,4.93211,0,0,1,2.307-1.60344,11.86325,11.86325,0,0,1,4.17133-.6225,16.65577,16.65577,0,0,1,4.20552.56862,14.18737,14.18737,0,0,1,4.10491,1.826l.32262.20875,1.71479-4.03454-.22451-.14842a15.5635,15.5635,0,0,0-4.69428-2.01755,21.70108,21.70108,0,0,0-5.42905-.69644,16.81653,16.81653,0,0,0-6.8282,1.2083,9.04329,9.04329,0,0,0-4.02881,3.25216,8.07384,8.07384,0,0,0-1.31144,4.44489,7.27965,7.27965,0,0,0,1.071,4.10544,7.76164,7.76164,0,0,0,2.78828,2.5294,18.6318,18.6318,0,0,0,3.73359,1.50712c1.34419.38707,2.69715.72813,4.02165,1.01369a30.53005,30.53005,0,0,1,3.60719.99759,7.47982,7.47982,0,0,1,2.58561,1.45752,2.8705,2.8705,0,0,1,.93277,2.24957,3.54626,3.54626,0,0,1-.7301,2.18673,4.89236,4.89236,0,0,1-2.32638,1.542,12.99052,12.99052,0,0,1-4.26639.58186,16.44514,16.44514,0,0,1-5.59233-.96751,14.181,14.181,0,0,1-4.40818-2.43075l-.31725-.26981-1.92445,3.93984.18083.1631A14.33568,14.33568,0,0,0,1055.36929,59.4a22.08466,22.08466,0,0,0,6.86275,1.06741,17.14525,17.14525,0,0,0,6.87064-1.2074,9.17751,9.17751,0,0,0,4.096-3.25127,7.91121,7.91121,0,0,0,1.33417-4.40371A7.10468,7.10468,0,0,0,1073.46074,47.5615Z"/><path class="cls-3" d="M1127.1303,53.54738l-.32692.27124a12.41035,12.41035,0,0,1-4.50272,2.25529,20.80464,20.80464,0,0,1-5.81.80279c-2.98738,0-5.21027-.46585-6.6071-1.38484a3.99488,3.99488,0,0,1-2.0417-3.48419,3.6424,3.6424,0,0,1,.84862-2.492,5.18324,5.18324,0,0,1,2.45886-1.4901,13.19448,13.19448,0,0,1,3.83851-.50112l8.4558,0v-4.336l-8.27927,0a7.54766,7.54766,0,0,1-4.49377-1.13884,3.66747,3.66747,0,0,1-1.50281-3.17267,3.91887,3.91887,0,0,1,1.91638-3.31823c1.30946-.91522,3.33649-1.3791,6.02523-1.3791a20.49465,20.49465,0,0,1,4.50308.48573,17.57074,17.57074,0,0,1,4.188,1.53791l.32369.16721,1.5064-4.034-.24169-.13553a17.62121,17.62121,0,0,0-4.77271-1.74971,26.198,26.198,0,0,0-5.68363-.60836,18.84224,18.84224,0,0,0-7.1288,1.18269,9.567,9.567,0,0,0-4.2954,3.18055,7.44716,7.44716,0,0,0-1.40686,4.37041,7.861,7.861,0,0,0,.99221,3.93536,6.92448,6.92448,0,0,0,2.69519,2.64936q-.16007.06606-.31546.1366a8.396,8.396,0,0,0-3.39915,2.74478,7.12443,7.12443,0,0,0-1.29872,4.2655,7.50482,7.50482,0,0,0,1.54614,4.63681,9.89038,9.89038,0,0,0,4.56466,3.15388,21.39366,21.39366,0,0,0,7.38338,1.11485,25.94462,25.94462,0,0,0,7.11591-.93509,14.74382,14.74382,0,0,0,5.33166-2.61426l.1912-.15683Z"/><path class="cls-3" d="M1165.76705,30.16262a4.25991,4.25991,0,0,0-3.01924-1.03822,13.85123,13.85123,0,0,0-4.03508.70969,30.3684,30.3684,0,0,0-4.82,2.02166,43.40388,43.40388,0,0,0-5.023,3.04591c-5.41365,3.78335-8.04546,7.13112-8.04546,10.235a3.71368,3.71368,0,0,0,2.96087,3.82579,39.60593,39.60593,0,0,0-11.02424,7.7624c-2.81836,2.99489-4.24742,6.061-4.24742,9.11357a7.94919,7.94919,0,0,0,1.55187,4.87225,9.54863,9.54863,0,0,0,4.39637,3.14367,18.83021,18.83021,0,0,0,6.62356,1.06294,31.56548,31.56548,0,0,0,7.65552-1.06776,50.25994,50.25994,0,0,0,8.54676-3.05934l.16614-.07627,1.00868-4.85452-.67639.35091c-2.94691,1.52913-5.60307,2.77986-7.89435,3.71729a44.9449,44.9449,0,0,1-6.25762,2.09649,21.7702,21.7702,0,0,1-5.1.683,8.34167,8.34167,0,0,1-5.30193-1.62331,4.96532,4.96532,0,0,1-2.02166-4.12263c0-3.46915,2.83234-7.25806,8.41858-11.26145a52.65568,52.65568,0,0,1,10.23326-5.80447l.17581-.07358.57256-2.736-1.00869.00036a12.865,12.865,0,0,1-3.18072-.40427,3.14906,3.14906,0,0,1-1.389-1.09909,2.64227,2.64227,0,0,1-.55859-1.60164,7.43074,7.43074,0,0,1,1.91209-4.3,22.24025,22.24025,0,0,1,5.30766-4.7104,26.848,26.848,0,0,1,5.06633-2.704,12.00963,12.00963,0,0,1,4.21948-.99811c2.17492,0,2.42628,1.09354,2.42628,1.916,0,2.14-1.752,5.10051-5.20741,8.79936l-.232.24815,2.28233,2.425.26389-.24635a24.57612,24.57612,0,0,0,3.31394-3.82006,20.22824,20.22824,0,0,0,2.26694-4.0691,9.71184,9.71184,0,0,0,.79205-3.53521A3.70458,3.70458,0,0,0,1165.76705,30.16262Z"/><path class="cls-3" d="M1195.23041,34.43477a10.13454,10.13454,0,0,0-4.5618-3.7241,17.82164,17.82164,0,0,0-7.06793-1.27062l-12.38919,0,0,30.68385h5.06668l0-9.09675,7.32251,0a17.54382,17.54382,0,0,0,7.06972-1.29388,10.67716,10.67716,0,0,0,4.56-15.2985Zm-18.95224-.61554,7.19038,0c2.73852,0,4.83394.56808,6.2279,1.68776a5.672,5.672,0,0,1,2.06677,4.72652,5.66834,5.66834,0,0,1-2.06678,4.72561c-1.39253,1.12-3.48795,1.68812-6.2279,1.68812l-7.19038,0Z"/><polygon class="cls-3" points="1083.594 55.745 1083.594 29.44 1078.527 29.44 1078.527 60.124 1100.345 60.124 1100.345 55.745 1083.594 55.745"/><text class="cls-4" transform="translate(911.00435 59.77686)">,</text><path class="cls-3" d="M2.81514,31.12388c3.05957,3.58692,4.64161,8.2295,4.64161,13.97852,0,5.69726-1.582,10.28613-4.64161,13.874C-.45536,62.72154-4.93876,64.62-10.58329,64.62s-10.0752-1.89844-13.34571-5.64356c-3.1123-3.58789-4.6416-8.22949-4.6416-13.874,0-5.69629,1.5293-10.33887,4.6416-13.92578,3.27051-3.79785,7.70118-5.69629,13.39844-5.69629C-4.93876,25.48033-.45536,27.326,2.81514,31.12388ZM-20.764,33.81431C-23.08525,36.663-24.2454,40.40806-24.2454,45.1024q0,6.96387,3.48144,11.23633c2.42676,2.9541,5.85547,4.43066,10.18067,4.43066s7.7539-1.47656,10.18066-4.32519c2.32129-2.84864,3.53418-6.59375,3.53418-11.3418,0-4.79981-1.21289-8.59766-3.53418-11.44629-2.42676-2.90137-5.80273-4.3252-10.12793-4.3252S-18.28446,30.80748-20.764,33.81431Z"/><path class="cls-3" d="M18.0085,26.21861,39.31905,56.86607h.1582V26.21861h4.3252V63.8817H39.37179l-21.416-30.96387h-.1582V63.8817H13.47139V26.21861Z"/><path class="cls-3" d="M78.09054,26.21861v3.74512H55.7253V42.57115H76.82491v3.74512H55.7253V60.13658H78.988V63.8817H51.39913V26.21861Z"/><path class="cls-3" d="M125.24971,28.38072c2.53223,2.00488,3.95606,5.01172,4.3252,8.96777h-4.27246a9.51154,9.51154,0,0,0-3.165-6.0664c-1.68848-1.3711-4.06152-2.00391-7.12109-2.00391a12.70735,12.70735,0,0,0-6.541,1.37109,5.18616,5.18616,0,0,0-2.69043,4.80079c0,1.89843,1.05469,3.42871,3.21777,4.58886a43.90529,43.90529,0,0,0,6.91016,2.374q7.43849,2.21484,9.81152,3.63964a8.884,8.884,0,0,1,4.69434,7.96485,9.145,9.145,0,0,1-3.956,7.80664c-2.6377,1.84668-6.17188,2.7959-10.65528,2.7959q-6.646,0-10.44433-2.84864c-2.95411-2.26757-4.58887-5.69628-4.90625-10.33886h4.27343c.36914,3.2705,1.5293,5.69726,3.42871,7.22656,1.74024,1.37207,4.27247,2.11035,7.64844,2.11035a14.315,14.315,0,0,0,7.49024-1.74023,5.3359,5.3359,0,0,0,2.84863-4.748c0-2.374-1.26563-4.21973-3.74512-5.53809-1.05469-.63379-3.74512-1.53027-7.96484-2.74316a63.11168,63.11168,0,0,1-8.65137-3.05957,7.9636,7.9636,0,0,1-4.32519-7.2793,8.59262,8.59262,0,0,1,4.167-7.64941,16.76665,16.76665,0,0,1,9.60058-2.53125C119.447,25.48033,122.823,26.42955,125.24971,28.38072Z"/><path class="cls-3" d="M140.23116,26.21861V42.57115h21.78516V26.21861h4.32519V63.8817h-4.32519V46.31627H140.23116V63.8817H135.905V26.21861Z"/><path class="cls-3" d="M200.57686,26.21861v3.74512H178.21065V42.57115h21.09961v3.74512H178.21065V60.13658h23.2627V63.8817H173.88546V26.21861Z"/><path class="cls-3" d="M234.17843,26.21861v3.74512H211.81319V42.57115H232.9128v3.74512H211.81319V60.13658h23.2627V63.8817H207.488V26.21861Z"/><path class="cls-3" d="M256.49288,26.21861q12.97558,0,12.97558,11.07715c0,7.4375-4.37792,11.18262-13.02832,11.18262H245.41475V63.8817h-4.32519V26.21861ZM245.41475,44.73326h10.81446c3.05859,0,5.27441-.63281,6.75195-1.8457,1.42383-1.21387,2.16211-3.05958,2.16211-5.5918s-.73828-4.37793-2.21582-5.48535c-1.47656-1.2666-3.69238-1.84668-6.69824-1.84668H245.41475Z"/><path class="cls-3" d="M281.02218,59.08189a6.127,6.127,0,0,1,1.05468,3.69238,9.88,9.88,0,0,1-2.05761,6.1709,10.12211,10.12211,0,0,1-5.48536,3.42969v-2.585a7.34617,7.34617,0,0,0,3.376-2.32129A5.90675,5.90675,0,0,0,279.07,63.93443a3.02853,3.02853,0,0,1-1.16016.21094,3.069,3.069,0,0,1-2.26855-.94922,3.18667,3.18667,0,0,1-.94922-2.32129,2.92909,2.92909,0,0,1,1.002-2.374,3.0736,3.0736,0,0,1,2.42676-.89649A3.4589,3.4589,0,0,1,281.02218,59.08189Z"/><path class="cls-3" d="M334.405,26.21861v3.74512H321.112v33.918h-4.27344v-33.918h-13.292V26.21861Z"/><path class="cls-3" d="M340.41866,26.21861l8.28125,31.59668h.21094l8.59863-31.59668h4.69434l8.54589,31.59668h.21094l8.28125-31.59668h4.85352L373.281,63.8817h-4.7998L359.93526,32.496h-.1582L351.1794,63.8817h-4.80078L335.56514,26.21861Z"/><path class="cls-3" d="M417.96163,31.12388c3.05957,3.58692,4.6416,8.2295,4.6416,13.97852,0,5.69726-1.582,10.28613-4.6416,13.874-3.27051,3.74512-7.75488,5.64356-13.39844,5.64356-5.64453,0-10.07519-1.89844-13.3457-5.64356-3.11231-3.58789-4.64258-8.22949-4.64258-13.874,0-5.69629,1.53027-10.33887,4.64258-13.92578,3.27051-3.79785,7.70117-5.69629,13.39844-5.69629C410.20675,25.48033,414.69112,27.326,417.96163,31.12388Zm-23.5791,2.69043c-2.32129,2.84864-3.48145,6.59375-3.48145,11.28809q0,6.96387,3.48145,11.23633c2.42578,2.9541,5.85449,4.43066,10.18066,4.43066,4.3252,0,7.75391-1.47656,10.18067-4.32519,2.32031-2.84864,3.53418-6.59375,3.53418-11.3418,0-4.79981-1.21387-8.59766-3.53418-11.44629-2.42676-2.90137-5.80274-4.3252-10.12793-4.3252S396.861,30.80748,394.38253,33.81431Z"/><path class="cls-3" d="M468.86593,28.38072c2.53222,2.00488,3.95605,5.01172,4.32519,8.96777h-4.27246a9.51154,9.51154,0,0,0-3.165-6.0664c-1.6875-1.3711-4.06152-2.00391-7.12109-2.00391a12.70735,12.70735,0,0,0-6.541,1.37109,5.18792,5.18792,0,0,0-2.69043,4.80079c0,1.89843,1.05567,3.42871,3.21778,4.58886a43.90462,43.90462,0,0,0,6.91015,2.374q7.43848,2.21484,9.81153,3.63964a8.884,8.884,0,0,1,4.69433,7.96485,9.145,9.145,0,0,1-3.95605,7.80664c-2.63672,1.84668-6.1709,2.7959-10.65528,2.7959q-6.646,0-10.44433-2.84864c-2.9541-2.26757-4.58887-5.69628-4.90528-10.33886h4.27246c.36915,3.2705,1.5293,5.69726,3.42872,7.22656,1.74023,1.37207,4.27246,2.11035,7.64843,2.11035a14.315,14.315,0,0,0,7.49024-1.74023,5.3359,5.3359,0,0,0,2.84863-4.748c0-2.374-1.26562-4.21973-3.74512-5.53809-1.05468-.63379-3.74511-1.53027-7.96484-2.74316a63.16455,63.16455,0,0,1-8.65137-3.05957,7.9636,7.9636,0,0,1-4.32519-7.2793,8.59262,8.59262,0,0,1,4.167-7.64941,16.76665,16.76665,0,0,1,9.60058-2.53125C463.06319,25.48033,466.43917,26.42955,468.86593,28.38072Z"/><path class="cls-3" d="M483.79464,26.21861v33.918h21.78515V63.8817H479.5212V26.21861Z"/><path class="cls-3" d="M537.23018,26.21861v3.74512H514.865V42.57115h21.09961v3.74512H514.865V60.13658h23.26172V63.8817H510.53878V26.21861Z"/><path class="cls-3" d="M570.83272,26.21861v3.74512H548.46651V42.57115h21.09961v3.74512H548.46651V60.13658h23.2627V63.8817H544.14132V26.21861Z"/><path class="cls-3" d="M593.1462,26.21861q12.97705,0,12.97656,11.07715c0,7.4375-4.37793,11.18262-13.0293,11.18262H582.069V63.8817h-4.32519V26.21861ZM582.069,44.73326h10.81348c3.05957,0,5.27539-.63281,6.752-1.8457,1.42383-1.21387,2.16309-3.05958,2.16309-5.5918s-.73926-4.37793-2.21582-5.48535c-1.47657-1.2666-3.69239-1.84668-6.69922-1.84668H582.069Z"/><path class="cls-3" d="M617.04268,58.55357a3.10471,3.10471,0,0,1,.94922,2.32129,3.06891,3.06891,0,0,1-.94922,2.26855,3.1528,3.1528,0,0,1-2.26855.94922,2.90749,2.90749,0,0,1-2.26758-.94922,3.06614,3.06614,0,0,1-.95019-2.26855,3.10191,3.10191,0,0,1,.95019-2.32129,2.90752,2.90752,0,0,1,2.26758-.94922A3.15284,3.15284,0,0,1,617.04268,58.55357Z"/></g></g></svg>