<?xml version="1.0" encoding="UTF-8"?>
<svg id="_圖層_1" data-name="圖層 1" xmlns="http://www.w3.org/2000/svg" viewBox="0 0 52.29 2784.93">
  <defs>
    <style>
      .cls-1 {
        fill: #fff86f;
      }
    </style>
  </defs>
  <g>
    <path class="cls-1" d="M30.51,17.07c-2.28,0-3.95-.53-5.05-1.56-1.1-1.07-1.67-2.74-1.67-5.02s.57-3.98,1.67-5.05,2.77-1.56,5.05-1.56h15.79V0h-15.72c-3.31,0-5.83,.92-7.61,2.77-1.71,1.78-2.56,4.34-2.56,7.72s.89,5.9,2.6,7.72c1.74,1.81,4.27,2.74,7.58,2.74h15.72v-3.88h-15.79Z"/>
    <path class="cls-1" d="M47.13,73.79l.61-.78-.13-.19c-5.03-7.1-17.12-18.12-24.76-24.01,7.69,4.29,16.98,9.81,22.03,14.05l.22,.18,.59-.59-.14-.21c-1.86-2.81-15.25-13.66-15.83-14.13-.83-.62-1.62-1.32-2.36-2.07l.12-.09c.81-.65,1.54-1.34,2.15-2.05,.27,.04,.6,.08,.94,.08,2.49,0,5.14-2.09,5.14-7.94,0-6.98-4.94-11.84-9.37-11.84-5.48,0-6.94,6.41-6.94,10.2,0,4.92,2.91,9.22,9.73,14.39,.09,.07,6.78,5.53,11.38,9.67-5.78-3.98-13.57-8.46-19.67-11.72-.12-.07-.25-.1-.39-.1-.38,0-.69,.3-.69,.67,0,.13,.04,.38,.35,.59,4.91,3.32,20.82,17.24,26.79,25.57l.24,.33Zm-12.34-37.75c0,5.18-2.18,7.03-4.23,7.03-.09,0-.19,0-.28-.01,1.34-1.84,2.05-3.93,2.05-6.07,0-4.59-3.15-8.28-5.75-8.28-2.88,0-3.65,3.77-3.65,6,0,4.01,2.46,7.82,5.69,8.95-.52,.56-1.1,1.1-1.71,1.58l-.19,.15c-3.47-3.8-5.7-8.78-5.7-13.11,0-3.56,1.65-7.15,5.32-7.15,4,0,8.46,4.48,8.46,10.92Zm-5.49,6.81c-3.03-.98-5.06-5.26-5.06-8.76,0-.46,.07-4.47,2.34-4.47s4.84,3.4,4.84,7.36c0,2.06-.73,4.09-2.12,5.87Z"/>
    <rect class="cls-1" x="20.91" y="73.33" width="25.4" height="3.84"/>
    <path class="cls-1" d="M46.33,95.38c1.02-1.43,1.54-3.62,1.54-6.56v-6.39H20.91v6.39c0,2.94,.55,5.11,1.64,6.5,1.09,1.39,2.66,2.46,4.69,3.22,2.03,.76,4.39,1.14,7.08,1.14,2.84,0,5.29-.36,7.36-1.08,2.07-.72,3.62-1.79,4.65-3.22Zm-17.66,.14c-1.5-.43-2.67-1.16-3.52-2.17-.85-1.01-1.27-2.7-1.27-5.07v-2.34h21.29v2.62c0,2.16-.37,3.72-1.12,4.66-.75,.95-1.82,1.68-3.21,2.18-1.39,.51-3.38,.76-5.96,.76s-4.71-.22-6.21-.65Z"/>
    <path class="cls-1" d="M41.98,122.2c.26-.41,.45-.87,.57-1.37,.11-.5,.17-1,.17-1.49,0-1.19-.19-2.25-.56-3.15-.37-.9-.88-1.65-1.51-2.24-.63-.59-1.37-1.04-2.18-1.33-.81-.29-1.69-.43-2.59-.43-.58,0-1.05-.02-1.4-.06-.33-.04-.61-.11-.82-.21s-.36-.24-.47-.42c-.13-.19-.27-.46-.43-.8-.39-.88-.8-1.74-1.22-2.58-.43-.85-.93-1.61-1.48-2.25-.56-.65-1.22-1.18-1.96-1.59-.75-.41-1.65-.61-2.69-.61-.75,0-1.45,.16-2.08,.49-.63,.32-1.18,.8-1.63,1.41-.46,.61-.81,1.36-1.06,2.24-.25,.87-.37,1.88-.37,3.01,0,1.03,.19,2.08,.56,3.14,.37,1.05,.85,2.02,1.45,2.88,.59,.86,1.27,1.58,2,2.13,.74,.57,1.51,.85,2.27,.85,.85,0,1.58-.29,2.16-.87,.59-.58,.88-1.44,.88-2.57s-.27-2.12-.81-2.99c-.54-.85-1.26-1.61-2.14-2.25l-.12-.09-.33,.46,.13,.09c.32,.22,.64,.48,.95,.79,.32,.31,.6,.64,.85,1,.24,.35,.44,.73,.59,1.12,.15,.39,.22,.79,.22,1.19,0,.76-.22,1.31-.64,1.64-.44,.34-1.09,.51-1.94,.51s-1.65-.22-2.3-.64c-.66-.43-1.21-.99-1.64-1.64-.43-.66-.77-1.4-.98-2.19-.45-1.65-.44-3.16,.08-4.39,.27-.64,.64-1.19,1.08-1.64,.44-.45,.96-.81,1.55-1.06,.59-.25,1.19-.38,1.79-.38,1.11,0,2.03,.18,2.74,.55,.72,.36,1.34,.85,1.84,1.44,.51,.6,.94,1.29,1.3,2.05,.36,.78,.73,1.57,1.09,2.36,.34,.73,.79,1.28,1.34,1.62,.55,.34,1.23,.51,2.03,.51,.57,0,1.21,.08,1.9,.24,.68,.16,1.32,.42,1.9,.77,.58,.35,1.06,.83,1.44,1.41,.38,.58,.57,1.31,.57,2.17,0,.93-.2,1.67-.61,2.19-.39,.51-1.04,.76-1.92,.76-.33,0-.71-.07-1.14-.22-.43-.15-.84-.37-1.23-.66-.39-.29-.72-.66-1-1.1-.27-.43-.4-.94-.4-1.52,0-.61,.05-1.04,.14-1.28l.07-.19-.65-.06-.04,.11c-.05,.11-.09,.3-.13,.58-.12,.8-.06,1.72,.22,2.62,.19,.6,.47,1.16,.85,1.66,.38,.5,.84,.92,1.38,1.23,.55,.32,1.18,.48,1.87,.48,.58,0,1.08-.14,1.5-.4,.41-.26,.75-.61,1.02-1.02Z"/>
    <polygon class="cls-1" points="26.24 136.64 45.41 127.82 45.41 124.64 20.91 124.64 20.91 127.49 40.26 127.49 20.91 136.27 20.91 139.43 45.41 139.43 45.41 136.64 26.24 136.64"/>
    <polygon class="cls-1" points="43 143.25 43 151.75 20.91 151.75 20.91 155.59 43 155.59 43 164.06 46.3 164.06 46.3 143.25 43 143.25"/>
    <rect class="cls-1" x="20.91" y="167.19" width="25.4" height="3.84"/>
    <polygon class="cls-1" points="20.91 176.08 20.91 179.96 32.29 179.96 32.29 192.58 35.6 192.58 35.6 179.96 43 179.96 43 193.33 46.3 193.33 46.3 176.08 20.91 176.08"/>
    <path class="cls-1" d="M49.19,201.4l.5-.53c-1.92-1.92-4.27-3.45-7.04-4.52-2.85-1.14-5.8-1.67-8.93-1.67s-6.05,.53-8.89,1.64c-2.77,1.1-5.16,2.63-7.08,4.55l.5,.53c1.96-1.71,4.23-2.99,6.83-3.84,2.6-.85,5.48-1.28,8.68-1.28s6.08,.43,8.64,1.28c2.6,.85,4.87,2.13,6.79,3.84Z"/>
    <path class="cls-1" d="M49.68,223.21l-.5-.53c-1.92,1.67-4.2,2.95-6.79,3.84-2.56,.85-5.44,1.28-8.64,1.28s-6.08-.43-8.68-1.28c-2.6-.89-4.87-2.17-6.83-3.84l-.5,.53c1.92,1.92,4.3,3.41,7.08,4.55,2.85,1.07,5.8,1.64,8.89,1.64s6.08-.57,8.93-1.67c2.77-1.1,5.12-2.6,7.04-4.52Z"/>
    <path class="cls-1" d="M44.85,206.49h-1.14l-.32,2.35c-.07,.5-.18,.85-.36,1.03-.21,.18-.57,.28-1.07,.28H25.46c-.5,0-.85-.11-1.07-.28-.14-.18-.28-.53-.36-1.03l-.32-2.35h-1.14c.11,2.28,.14,4.13,.14,5.58,0,1.35-.04,3.2-.11,5.55h1.1l.32-2.38c.14-.89,.6-1.32,1.42-1.32h16.5c.36,0,.68,.07,.89,.25,.28,.21,.46,.57,.53,1.1l.32,2.35h1.1c-.07-2.35-.11-4.2-.11-5.55,0-1.49,.07-3.34,.14-5.58Z"/>
    <path class="cls-1" d="M24.36,247.16c-.45-1.51-.68-3.09-.68-4.75,0-2.47,.4-4.29,1.19-5.46,.79-1.17,1.83-1.76,3.11-1.76,.9,0,1.65,.25,2.24,.75,.59,.5,1.03,1.2,1.32,2.1,.28,.9,.43,1.96,.43,3.17v6.54h3.06v-6.4c0-1.64,.33-2.89,1-3.77,.66-.88,1.61-1.32,2.85-1.32s2.18,.55,2.97,1.65,1.19,2.77,1.19,5c0,1.28-.14,2.51-.41,3.68-.27,1.17-.71,2.32-1.3,3.43l2.85,1.03c.62-1.07,1.09-2.32,1.42-3.77,.33-1.45,.5-2.95,.5-4.52,0-2.25-.32-4.13-.96-5.64-.64-1.51-1.49-2.62-2.54-3.34-1.06-.72-2.21-1.08-3.47-1.08-1.16,0-2.21,.25-3.13,.76s-1.65,1.25-2.17,2.21c-.07,.13-.13,.27-.19,.41-.09-.28-.2-.55-.33-.82-.51-1.09-1.24-1.97-2.19-2.63-.95-.66-2.08-1-3.38-1-1.38,0-2.6,.4-3.68,1.19-1.08,.79-1.92,1.98-2.53,3.56-.6,1.58-.91,3.53-.91,5.85,0,2.04,.26,3.92,.76,5.66,.51,1.73,1.21,3.13,2.12,4.2l2.77-1.21c-.83-.97-1.47-2.21-1.92-3.72Z"/>
    <path class="cls-1" d="M42.85,273.79c2.31-2.13,3.45-5.23,3.45-9.32v-9.25H20.91v9.18c0,4.09,1.14,7.19,3.41,9.32,2.21,2.03,5.3,3.06,9.28,3.06s7.11-1,9.25-2.99Zm-16.33-3.02c-1.53-1.49-2.31-3.88-2.31-7.08v-4.59h18.78v4.66c0,3.2-.75,5.55-2.28,7.04-1.49,1.42-3.84,2.17-7.11,2.17s-5.55-.75-7.08-2.21Z"/>
  </g>
  <g>
    <path class="cls-1" d="M46.1,303.29l-25.4-9.78v4.13l6.54,2.38v10.92l-6.54,2.38v4.16l25.4-9.78v-4.41Zm-15.65-2.1l11.49,4.23v.14l-11.49,4.2v-8.57Z"/>
    <rect class="cls-1" x="35.89" y="328.98" width="3.83" height="3.83"/>
    <rect class="cls-1" x="32.05" y="332.81" width="3.83" height="3.83"/>
    <polygon class="cls-1" points="43.55 325.15 47.38 325.15 47.38 321.32 20.55 321.32 20.55 325.15 39.72 325.15 39.72 328.98 43.55 328.98 43.55 325.15"/>
    <polygon class="cls-1" points="32.05 340.48 32.05 336.65 28.22 336.65 28.22 340.48 20.55 340.48 20.55 344.31 47.38 344.31 47.38 340.48 32.05 340.48"/>
    <rect class="cls-1" x="20.71" y="350.71" width="25.4" height="3.84"/>
    <polygon class="cls-1" points="25.76 373.15 25.76 373.04 46.1 364.19 46.1 359.6 20.71 359.6 20.71 363.47 38.85 363.47 38.85 363.62 20.71 371.41 20.71 374.75 38.85 382.54 38.85 382.68 20.71 382.68 20.71 386.56 46.1 386.56 46.1 381.97 25.76 373.15"/>
    <path class="cls-1" d="M49.95,420.76c0-6.66-3.64-14.29-9.98-20.93-5.79-6.07-12.75-9.99-17.74-9.99-2.05,0-3.19,1.18-3.19,3.33,0,5.68,9.74,16.19,17.11,23.64,0,.01,0,.03,0,.04-6.1-5.18-12.65-10.33-15.84-10.33-1.05,0-1.66,.73-1.66,2.01,0,2.46,2.1,7.47,5.48,11.26l4.49,5.05,.78-.58-4.52-5.08c-3.14-3.53-5.26-8.35-5.26-10.64,0-.92,.33-1.04,.69-1.04,3.37,0,11.13,6.61,15.84,10.63,.14,5.16,3.46,10.63,8.23,10.63,2.69,0,5.57-2.1,5.57-7.99Zm-12.79-1.77l.54,.46c2.13,1.83,4.55,3.9,5.45,4.32l.27,.13,.37-.74-.14-.16c-1.26-1.39-2.82-2.95-4.32-4.46-.73-.73-1.46-1.47-2.17-2.19,.17-2.9,.93-6.59,3.6-8.02l.26-.14-.42-.83-.28,.15c-2.81,1.51-3.78,5.02-4.07,7.94-4.54-4.6-16.24-16.65-16.24-22.28,0-1.64,.7-1.93,2.18-1.93,6.8,0,26.78,17.42,26.78,29.52,0,5.17-2.38,7.02-4.6,7.02-3.18,0-6.74-3.34-7.22-8.78Z"/>
    <polygon class="cls-1" points="46.1 434.04 46.1 430.2 20.71 430.2 20.71 448.02 24.01 448.02 24.01 434.04 46.1 434.04"/>
    <path class="cls-1" d="M25.05,455.45c.5-.53,.75-1.17,.75-1.88,0-.78-.25-1.39-.75-1.85-.5-.53-1.14-.78-1.92-.78-.71,0-1.35,.25-1.88,.78-.46,.46-.71,1.07-.71,1.85,0,.71,.25,1.35,.71,1.88,.53,.5,1.17,.78,1.88,.78,.78,0,1.42-.28,1.92-.78Z"/>
  </g>
  <g>
    <path class="cls-1" d="M48.71,501.46l-.5-.53c-1.92,1.67-4.2,2.95-6.79,3.84-2.56,.85-5.44,1.28-8.64,1.28s-6.08-.43-8.68-1.28c-2.6-.89-4.87-2.17-6.83-3.84l-.5,.53c1.92,1.92,4.3,3.41,7.08,4.55,2.85,1.07,5.8,1.64,8.89,1.64s6.08-.57,8.93-1.67c2.77-1.1,5.12-2.6,7.04-4.52Z"/>
    <path class="cls-1" d="M41.31,499.04c1.71-2.28,2.53-5.41,2.53-9.39,0-1.85-.11-5.34-.32-10.46h-1.07c-.11,.64-.25,1.28-.43,1.96-.07,.43-.25,.75-.46,.96-.25,.25-.6,.39-1.03,.39h-15.51c-.89,0-1.46-.5-1.67-1.49l-.5-2.17h-1.07c-.11,5.51-.18,9.57-.18,12.2,0,3.56,1.03,6.4,3.02,8.54,2.06,2.13,4.8,3.2,8.29,3.2,3.7,0,6.51-1.24,8.39-3.73Zm-15.54-2.74c-1.78-1.56-2.7-3.81-2.7-6.65,0-1.53,.21-2.53,.6-2.95,.32-.32,.96-.46,1.96-.46h14.76c.75,0,1.28,.25,1.6,.75,.28,.36,.39,.92,.39,1.67,0,3.09-.71,5.51-2.21,7.22-1.56,1.85-3.95,2.77-7.11,2.77s-5.51-.78-7.29-2.35Z"/>
    <path class="cls-1" d="M32.77,474.54c3.2,0,6.08,.43,8.64,1.28,2.6,.85,4.87,2.13,6.79,3.84l.5-.53c-1.92-1.92-4.27-3.45-7.04-4.52-2.85-1.14-5.8-1.67-8.93-1.67s-6.05,.53-8.89,1.64c-2.77,1.1-5.16,2.63-7.08,4.55l.5,.53c1.96-1.71,4.23-2.99,6.83-3.84,2.6-.85,5.48-1.28,8.68-1.28Z"/>
    <path class="cls-1" d="M45.33,517.86l-25.4-9.78v4.13l6.54,2.38v10.92l-6.54,2.38v4.16l25.4-9.78v-4.41Zm-15.65-2.1l11.49,4.23v.14l-11.49,4.2v-8.57Z"/>
    <rect class="cls-1" x="19.93" y="534.61" width="25.4" height="3.84"/>
    <path class="cls-1" d="M17.41,575.52c0-3.15-.24-6.24-.46-9.24-.22-2.9-.45-5.89-.45-8.83,0-1.45,.08-2.86,.23-4.19,2.88,1.88,5.94,4.67,9.12,8.29l.86,.97,.74-.55-.89-1.01c-3.37-3.83-6.63-6.76-9.69-8.7,1.04-6.7,4.27-10.39,9.13-10.39,10.15,0,21.51,12.5,21.51,29.24,0,5.42-1.54,10.09-3.67,13.96l-10.12-6.38,11.63-7.33v-4.66l-15.26,10.07h-10.14v3.84h10.14l11.71,7.72c-1.45,2.04-3,3.78-4.47,5.22l-.19,.19,.55,.74,.25-.24c1.75-1.69,3.31-3.49,4.67-5.37l2.74,1.81v-4.66l-.62-.39c2.91-4.98,4.49-10.34,4.49-15.55,0-16.19-9.86-29.36-21.97-29.36-6.22,0-9.99,3.71-11.22,11.04-2.49-1.45-4.79-2.18-6.84-2.18-5.92,0-9.18,6.06-9.18,17.07,0,6.02,1.28,11.61,3.62,15.73,2.09,3.7,4.88,5.9,7.46,5.9,1.49,0,6.33-.92,6.33-12.75Zm-16.49-8.88c0-10.4,2.95-16.12,8.32-16.12,1.97,0,4.2,.74,6.64,2.21-.2,1.46-.3,3.05-.3,4.73,0,3.13,.24,6.22,.46,9.22,.22,2.91,.45,5.91,.45,8.85,0,5.71-1.43,11.82-5.46,11.82s-10.11-7.37-10.11-20.7Z"/>
    <path class="cls-1" d="M24.27,597.57c.5-.53,.75-1.17,.75-1.88,0-.78-.25-1.39-.75-1.85-.5-.53-1.14-.78-1.92-.78-.71,0-1.35,.25-1.88,.78-.46,.46-.71,1.07-.71,1.85,0,.71,.25,1.35,.71,1.88,.53,.5,1.17,.78,1.88,.78,.78,0,1.42-.28,1.92-.78Z"/>
  </g>
  <g>
    <polygon class="cls-1" points="24.13 640.04 24.13 639.9 43.02 626.91 43.02 623 17.63 623 17.63 626.88 36.73 626.88 36.73 627.02 17.63 640.14 17.63 643.91 43.02 643.91 43.02 640.04 24.13 640.04"/>
    <path class="cls-1" d="M19.51,668.03l23.44-9v-1.03l-23.44-9c-.19-.85-.47-1.71-.85-2.56h-1.03v7.9h1.03c.43-1.04,.71-2.06,.85-3.06l6.51,2.33v8.46l-6.51,2.41c-.1-.47-.21-.96-.36-1.46-.14-.5-.31-.98-.5-1.46h-1.03v9.18h1.03c.24-.4,.42-.84,.53-1.3s.23-.93,.32-1.4Zm8.36-13.71l7.47,2.72,3.13,.88v.07l-3.06,.67-7.54,2.79v-7.15Z"/>
    <polygon class="cls-1" points="39.71 671.27 39.71 679.77 17.63 679.77 17.63 683.61 39.71 683.61 39.71 692.07 43.02 692.07 43.02 671.27 39.71 671.27"/>
    <polygon class="cls-1" points="20.88 704.81 20.88 702.92 19.03 702.92 19.03 697.6 20.88 697.6 20.88 695.75 41.57 695.75 41.57 693.49 20.58 693.49 20.58 695.41 18.69 695.41 18.69 697.3 16.77 697.3 16.77 703.26 18.69 703.26 18.69 705.11 20.58 705.11 20.58 707 41.57 707 41.57 704.81 20.88 704.81"/>
    <path class="cls-1" d="M25.42,729.48c2.49-.28,3.98-1.53,4.48-3.81h.07c.36,1.39,1.1,2.49,2.24,3.31,1.03,.71,2.21,1.07,3.56,1.07,2.42,0,4.23-.78,5.51-2.35,1.17-1.49,1.74-3.56,1.74-6.12v-11.24H17.63v3.88h10.49v6.86c0,1.46-.28,2.56-.92,3.34-.64,.75-1.64,1.21-3.06,1.35l-3.17,.32c-1.42,.14-2.56,.5-3.34,1.1v4.2c.92-.85,2.17-1.35,3.73-1.49l4.05-.43Zm6.01-8.39v-6.86h8.29v6.83c0,1.78-.32,3.06-1,3.91-.64,.78-1.67,1.21-3.09,1.21s-2.38-.43-3.09-1.25c-.71-.85-1.1-2.13-1.1-3.84Z"/>
    <path class="cls-1" d="M40.35,738.24c0-.81-.12-1.61-.35-2.39-.23-.78-.55-1.44-.96-1.96l-1.37,.79c.32,.43,.58,.94,.78,1.54,.19,.6,.29,1.2,.29,1.81,0,.89-.18,1.56-.55,1.99-.36,.44-.94,.65-1.73,.65h-.27v-2.95c0-1.4-.25-2.44-.76-3.12-.51-.68-1.19-1.02-2.04-1.02s-1.54,.33-2.07,1c-.53,.67-.79,1.61-.79,2.83,0,.81,.12,1.51,.37,2.1,.24,.59,.57,1.02,.97,1.31h-1.22v1.95h5.75c2.64,0,3.95-1.51,3.95-4.53Zm-6.88,2.43c-.99-.51-1.49-1.45-1.49-2.83,0-.71,.13-1.26,.4-1.66,.26-.4,.63-.59,1.09-.59,.93,0,1.4,.8,1.4,2.4v2.68h-1.4Z"/>
    <polygon class="cls-1" points="43.02 751.09 43.02 747.24 17.63 747.24 17.63 765.06 20.93 765.06 20.93 751.09 43.02 751.09"/>
    <path class="cls-1" d="M21.97,772.5c.5-.53,.75-1.17,.75-1.88,0-.78-.25-1.39-.75-1.85-.5-.53-1.14-.78-1.92-.78-.71,0-1.35,.25-1.88,.78-.46,.46-.71,1.07-.71,1.85,0,.71,.25,1.35,.71,1.88,.53,.5,1.17,.78,1.88,.78,.78,0,1.42-.28,1.92-.78Z"/>
  </g>
  <g>
    <path class="cls-1" d="M24.99,815.07c-2.28,0-3.95-.53-5.05-1.56-1.1-1.07-1.67-2.74-1.67-5.02s.57-3.98,1.67-5.05,2.77-1.56,5.05-1.56h15.79v-3.88h-15.72c-3.31,0-5.83,.92-7.61,2.77-1.71,1.78-2.56,4.34-2.56,7.72s.89,5.9,2.6,7.72c1.74,1.81,4.27,2.74,7.58,2.74h15.72v-3.88h-15.79Z"/>
    <polygon class="cls-1" points="20.3 839.3 36.68 829.77 36.68 827.28 15.39 823.02 15.39 826.06 31.77 829.32 15.39 838.84 15.39 841.33 36.68 845.59 36.68 842.55 20.3 839.3"/>
    <path class="cls-1" d="M23.18,867.77c2.49-.28,3.98-1.53,4.48-3.81h.07c.36,1.39,1.1,2.49,2.24,3.31,1.03,.71,2.21,1.07,3.56,1.07,2.42,0,4.23-.78,5.51-2.35,1.17-1.49,1.74-3.56,1.74-6.12v-11.24H15.39v3.88h10.49v6.86c0,1.46-.28,2.56-.92,3.34-.64,.75-1.64,1.21-3.06,1.35l-3.17,.32c-1.42,.14-2.56,.5-3.34,1.1v4.2c.92-.85,2.17-1.35,3.73-1.49l4.05-.43Zm6.01-8.39v-6.86h8.29v6.83c0,1.78-.32,3.06-1,3.91-.64,.78-1.67,1.21-3.09,1.21s-2.38-.43-3.09-1.25c-.71-.85-1.1-2.13-1.1-3.84Z"/>
    <path class="cls-1" d="M40.29,884v-11.3c0-.29-.23-.52-.52-.52h-8.16c-.29,0-.52,.23-.52,.52v1.88c0,.41-.33,.74-.74,.74h-5.02c-.29,0-.52,.23-.52,.52v1.88c0,.29,.23,.52,.52,.52h5.02c.2-.02,.52-.19,.52-.52v-1.88c0-.41,.33-.74,.74-.74h1.88c.41,0,.74,.33,.74,.74v8.16c0,.29,.23,.52,.52,.52h5.02c.29,0,.52-.23,.52-.52Z"/>
    <path class="cls-1" d="M21.45,884v-5.02c0-.41,.33-.74,.74-.74h1.88c.41,0,.74,.33,.74,.74v1.88c0,.29,.23,.52,.52,.52h5.02c.29,0,.52-.23,.52-.52v-1.88c0-.29-.23-.52-.52-.52h-5.02c-.41,0-.74-.33-.74-.74v-5.02c0-.29-.23-.52-.52-.52H15.91c-.29,0-.52,.23-.52,.52v11.3c0,.29,.23,.52,.52,.52h5.02c.29,0,.52-.23,.52-.52Z"/>
    <path class="cls-1" d="M36.93,898.86c0-2.8-.83-5.02-2.48-6.66-1.65-1.64-4.02-2.46-7.1-2.46H15.39v2.98h5.87v12.29h-5.87v3.04h11.96c3.08,0,5.45-.82,7.1-2.46,1.65-1.64,2.48-3.88,2.48-6.72Zm-13.02,6.15v-12.29h3.71c2.17,0,3.81,.54,4.93,1.63,1.12,1.08,1.67,2.59,1.67,4.52s-.56,3.43-1.67,4.52-2.76,1.63-4.93,1.63h-3.71Z"/>
    <polygon class="cls-1" points="40.79 917.39 40.79 913.55 15.39 913.55 15.39 931.37 18.7 931.37 18.7 917.39 40.79 917.39"/>
    <rect class="cls-1" x="15.39" y="934.64" width="25.4" height="3.84"/>
    <path class="cls-1" d="M43.67,1001.67l.5-.53c-1.92-1.92-4.27-3.45-7.04-4.52-.14-.06-.29-.1-.44-.15v-15.55c1.2,.71,2.3,1.11,3.23,1.11,.66,0,1.07-.42,1.07-1.1,0-4.92-11.29-11.42-14.49-12.82h-.01c-.65-1.12-1.22-2.17-1.72-3.19,.08,0,.16,0,.25,0,2.47,0,5.11-2.22,5.11-8.46s-3.71-10.14-7.33-11.14c1.21-2.34,3.16-3.67,5.38-3.67,4.38,0,9.03,4.88,9.03,13.93,0,6.08-.81,10.49-2.49,13.48l-.16,.28,.79,.4,.14-.26c2.35-4.19,2.62-9.94,2.62-13.9,0-7.3-3.72-14.85-9.95-14.85-2.67,0-4.96,1.6-6.33,4.4-.28-.03-.55-.05-.79-.05-5.11,0-6.97,6.24-6.97,10.44,0,7.04,6.3,10.83,11.82,13.35,2.53,4.19,5.44,7.73,8.14,10.09v7.22l-18.65-3.71v3.01l18.65,3.74v6.43c-1.89-.46-3.83-.71-5.84-.71-3.09,0-6.05,.53-8.89,1.64-2.77,1.1-5.16,2.63-7.08,4.55l.5,.53c1.96-1.71,4.23-2.99,6.83-3.84,2.6-.85,5.48-1.28,8.68-1.28s6.08,.43,8.64,1.28c2.6,.85,4.87,2.13,6.79,3.84Zm-6.98-22.24l-.88-.17c-2.67-2.01-5.76-5.5-8.43-9.68,4.18,2.13,12.68,7.49,12.68,11.35,0,.18-.06,.18-.15,.18-.9,0-2.01-.45-3.23-1.24v-.44Zm-7.48-22.97c0,5.56-2.17,7.54-4.2,7.54-.13,0-.26,0-.39-.02,1.13-1.64,1.73-3.52,1.73-5.48,0-5.48-2.39-9.12-4.73-9.57,.17-1,.44-1.92,.79-2.76,3.34,.82,6.8,4.63,6.8,10.29Zm-5.4,8.55c.4,.82,.83,1.66,1.3,2.5l-.22-.1c-.78-.34-1.53-.76-2.24-1.26l.13-.12c.4-.37,.74-.7,1.03-1.02Zm-2.48-12.47c0-1.01,.05-1.9,.15-2.7,1.74,.35,3.95,3.38,3.95,8.67,0,1.75-.48,3.36-1.43,4.79-1.75-3.91-2.67-7.62-2.67-10.75Zm-.92,0c0,3.19,.92,6.95,2.67,10.92-2.53-1.49-4.07-5.86-4.07-9.43,0-1.38,.21-3.63,1.54-4.14-.1,.81-.14,1.68-.14,2.65Zm1.06-6.53c-.34,.87-.6,1.85-.77,2.91-2.46,.47-3.02,4.73-3.02,6.24,0,3.93,1.97,7.58,4.92,9.1,.15,.08,.31,.15,.47,.22-.25,.27-.53,.55-.87,.86l-.21,.19,.25,.33c-3.83-2.86-6.56-7.79-6.56-12.34,0-2.79,1.13-7.51,5.38-7.51,.15,0,.28,0,.41,.01Z"/>
    <path class="cls-1" d="M44.16,1023.47l-.5-.53c-1.92,1.67-4.2,2.95-6.79,3.84-2.56,.85-5.44,1.28-8.64,1.28s-6.08-.43-8.68-1.28c-2.6-.89-4.87-2.17-6.83-3.84l-.5,.53c1.92,1.92,4.3,3.41,7.08,4.55,2.85,1.07,5.8,1.64,8.89,1.64s6.08-.57,8.93-1.67c2.77-1.1,5.12-2.6,7.04-4.52Z"/>
    <path class="cls-1" d="M39.33,1006.76h-1.14l-.32,2.35c-.07,.5-.18,.85-.36,1.03-.21,.18-.57,.28-1.07,.28H19.94c-.5,0-.85-.11-1.07-.28-.14-.18-.28-.53-.36-1.03l-.32-2.35h-1.14c.11,2.28,.14,4.13,.14,5.58,0,1.35-.04,3.2-.11,5.55h1.1l.32-2.38c.14-.89,.6-1.32,1.42-1.32h16.5c.36,0,.68,.07,.89,.25,.28,.21,.46,.57,.53,1.1l.32,2.35h1.1c-.07-2.35-.11-4.2-.11-5.55,0-1.49,.07-3.34,.14-5.58Z"/>
    <path class="cls-1" d="M36.47,1040.06c-.48-1.03-1.16-2.06-2.04-3.08-.87-1.02-1.87-1.95-2.97-2.79-1.04-.79-2.12-1.48-3.23-2.06-1.11-.58-2.22-1.02-3.3-1.31-1.09-.29-2.14-.44-3.15-.44-1.39,0-2.61,.26-3.65,.77-1.04,.51-1.86,1.25-2.44,2.19-.58,.94-.87,2.03-.87,3.24,0,1.33,.33,2.67,.97,3.98,.64,1.3,1.61,2.62,2.89,3.9l.08,.08,.62-.34-.33-.41c-1.07-1.24-1.85-2.36-2.31-3.32-.45-.95-.68-1.94-.68-2.95,0-1.55,.58-2.79,1.71-3.68,1.15-.9,2.73-1.36,4.7-1.36,1.17,0,2.31,.13,3.4,.4,1.09,.27,2.17,.66,3.23,1.18,1.05,.52,2.08,1.18,3.04,1.95,.88,.71,1.65,1.47,2.27,2.25,.62,.78,1.12,1.57,1.47,2.37,.35,.79,.52,1.52,.52,2.17,0,.53-.14,.95-.41,1.26-.27,.31-.64,.46-1.13,.46-.68,0-1.38-.25-2.08-.74-.71-.5-1.38-1.2-1.97-2.07-.59-.88-1.04-1.82-1.32-2.8l-.05-.16-1.52,.56,.04,.14c.29,1.06,.81,2.07,1.52,3,.71,.93,1.54,1.68,2.45,2.24,.92,.56,1.82,.85,2.68,.85,.78,0,1.42-.25,1.88-.73,.94-.99,.92-2.71-.03-4.75Z"/>
    <path class="cls-1" d="M19.73,1052.75c.5-.53,.75-1.17,.75-1.88,0-.78-.25-1.39-.75-1.85-.5-.53-1.14-.78-1.92-.78-.71,0-1.35,.25-1.88,.78-.46,.46-.71,1.07-.71,1.85,0,.71,.25,1.35,.71,1.88,.53,.5,1.17,.78,1.88,.78,.78,0,1.42-.29,1.92-.78Z"/>
  </g>
  <g>
    <polygon class="cls-1" points="16.17 1079.95 16.17 1081.84 14.25 1081.84 14.25 1087.8 16.17 1087.8 16.17 1089.66 18.05 1089.66 18.05 1091.54 24.01 1091.54 24.01 1089.66 25.9 1089.66 25.9 1087.8 27.79 1087.8 27.79 1082.14 29.64 1082.14 29.64 1080.29 34.97 1080.29 34.97 1082.14 36.85 1082.14 36.85 1087.47 34.97 1087.47 34.97 1089.35 31.19 1089.35 31.19 1091.54 35.3 1091.54 35.3 1089.66 37.19 1089.66 37.19 1087.8 39.04 1087.8 39.04 1081.84 37.19 1081.84 37.19 1079.95 35.3 1079.95 35.3 1078.04 29.34 1078.04 29.34 1079.95 27.45 1079.95 27.45 1081.84 25.57 1081.84 25.57 1087.47 23.68 1087.47 23.68 1089.35 18.36 1089.35 18.36 1087.47 16.5 1087.47 16.5 1082.14 18.36 1082.14 18.36 1080.29 22.13 1080.29 22.13 1078.04 18.05 1078.04 18.05 1079.95 16.17 1079.95"/>
    <polygon class="cls-1" points="15.1 1105.27 37.19 1105.27 37.19 1113.74 40.5 1113.74 40.5 1092.93 37.19 1092.93 37.19 1101.43 15.1 1101.43 15.1 1105.27"/>
    <path class="cls-1" d="M34.59,1132.27l2.42,1.85,.53-.7-3.56-3.51c1.43-3.37,2.15-6.69,2.15-9.88,0-8.54-5.22-13.27-8.83-13.27-2.02,0-4.17,1.5-4.17,5.72,0,6.1,3.99,11.58,8.81,16.63-.39-.29-.82-.6-1.29-.94-1.56-1.12-3.1-2.38-4.59-3.6-4.05-3.31-7.87-6.44-11.56-6.44-1.35,0-1.55,.65-1.55,1.04,0,1.84,3.82,4.22,7.4,6.3,.38,.22,.72,.42,.97,.57,1.16,.7,2.49,1.52,3.85,2.38-.16,.12-.31,.25-.45,.39-1.11-.15-2.21-.37-3.38-.59-2.25-.43-4.57-.88-6.94-.88-5.55,0-12.02,2.27-12.02,8.68,0,4.98,3.82,8.07,7.37,8.07,2.39,0,6.07-1.22,9.99-7.04l.16-.24-.74-.55-.18,.27c-2.89,4.29-6.18,6.65-9.24,6.65-3.86,0-6.45-3.7-6.45-7.15,0-3.75,2.92-7.76,11.1-7.76,2.27,0,4.56,.44,6.78,.87,.95,.18,1.92,.37,2.87,.52-1.05,1.62-1.28,3.88-1.28,5.55,0,6.88,5.56,17.29,13.94,17.29,4.16,0,5.63-3.51,5.63-6.51,0-6.16-5.75-11.23-10.57-14.4-.9-.61-1.87-1.24-2.87-1.88,.55-.3,.67-.78,.63-1.19,.21,.14,.41,.29,.62,.43,1.21,.85,2.37,1.74,4.48,3.35Zm.62-12.25c0,2.88-.65,5.96-1.93,9.16-4.62-4.71-9.23-10.35-9.23-16.71,0-3.01,1.22-4.81,3.25-4.81,3.23,0,7.91,4.4,7.91,12.35Zm-7.65,9.92c.98,.62,1.94,1.25,2.86,1.85l.79,.51c6.66,4.36,10.18,9.08,10.18,13.65,0,2.58-1.23,5.6-4.71,5.6-5.18,0-13.02-6.53-13.02-16.37,0-2.43,.48-4.3,1.4-5.41,.9,.12,1.7,.18,2.43,.18h.08Zm-1.47-2.05c-1.54-.96-3.04-1.89-4.34-2.69-.34-.21-.76-.46-1.24-.73-2.33-1.36-6.68-3.9-6.68-5.24,0-.05,0-.12,.24-.12,1.18,0,7.77,4.1,14.11,8.46-.06,0-.13,0-.2,0-.68,0-1.3,.11-1.89,.33Zm1.03,.66c.26-.05,.55-.07,.86-.07,.42,0,.59,.1,.61,.09,0,.1,0,.36-.76,.43l-.71-.45Z"/>
    <path class="cls-1" d="M15.1,1166.4v4.16l25.4-9.78v-4.41l-25.4-9.78v4.13l6.55,2.38v10.92l-6.55,2.38Zm9.75-12.13l11.49,4.23v.14l-11.49,4.2v-8.57Z"/>
    <path class="cls-1" d="M45.27,1188.34c0-4.8-1.67-8.89-5.09-12.27-3.38-3.42-7.47-5.09-12.27-5.09s-8.86,1.67-12.27,5.09c-3.38,3.38-5.09,7.47-5.09,12.27s1.71,8.86,5.09,12.27c3.41,3.38,7.51,5.09,12.27,5.09s8.89-1.71,12.27-5.09c3.41-3.41,5.09-7.51,5.09-12.27Zm-28.53,11.17c-3.06-3.13-4.59-6.83-4.59-11.17s1.53-8.08,4.59-11.17c3.13-3.06,6.83-4.59,11.17-4.59s8.08,1.53,11.17,4.59c3.06,3.09,4.59,6.83,4.59,11.17s-1.53,8.04-4.59,11.17c-3.09,3.06-6.83,4.59-11.17,4.59s-8.04-1.53-11.17-4.59Z"/>
    <polygon class="cls-1" points="22.29 1193.93 22.29 1193.82 39.75 1182.97 39.75 1178.95 15.88 1178.95 15.88 1182.79 33.53 1182.79 33.53 1182.9 15.88 1193.89 15.88 1197.77 39.75 1197.77 39.75 1193.93 22.29 1193.93"/>
    <path class="cls-1" d="M16.31,1225.3h17.18v-3.77h-2.46c1.99-1.35,2.95-3.2,2.95-5.62s-.85-4.52-2.6-6.05c-1.71-1.57-3.91-2.31-6.69-2.31s-4.98,.75-6.65,2.31c-1.67,1.53-2.53,3.56-2.53,6.05s1.03,4.27,3.06,5.62h-2.85c-3.45,0-5.19-1.6-5.19-4.8,0-1.49,.25-2.6,.68-3.27,.46-.71,1.25-1.14,2.31-1.35v-3.77c-2.03,.36-3.52,1.17-4.52,2.53-.96,1.35-1.46,3.31-1.46,5.87,0,5.69,2.92,8.57,8.75,8.57Zm3.91-5.05c-1.07-.92-1.6-2.17-1.6-3.77,0-1.85,.64-3.17,1.85-3.98,1.03-.71,2.46-1.07,4.23-1.07,1.96,0,3.49,.43,4.55,1.35,1.14,.85,1.67,2.1,1.67,3.7s-.53,2.85-1.67,3.77c-1.1,.85-2.63,1.32-4.55,1.32s-3.38-.46-4.48-1.32Z"/>
    <path class="cls-1" d="M38.15,1242.54l-3.91,1.46v.92c.97,.12,1.94,.21,2.9,.27,.96,.06,1.91,.1,2.86,.12v-16.86h-1.03c-.19,.47-.36,.96-.52,1.46-.15,.5-.28,.98-.37,1.46H16.99c-.19-1.12-.47-2.09-.85-2.92h-1.03v17.53c1.04,.05,2.07,.04,3.09-.03,1.02-.07,2.03-.19,3.02-.36v-.89l-4.27-1.74v-8.18h9.92v5.8l-2.7,1.39v.89c2.44,.14,4.84,.14,7.19,0v-.89l-2.63-1.39v-5.8h9.43v7.75Z"/>
    <path class="cls-1" d="M16.13,1258.51c.19-.47,.35-.96,.48-1.46,.13-.5,.26-1.02,.37-1.57h9.14v3.35c-.95,.43-1.84,.85-2.69,1.26-.84,.41-1.67,.86-2.49,1.33s-1.62,.98-2.42,1.53c-.8,.54-1.61,1.15-2.44,1.81l-1,1.35v4.33h.89l1.03-1.94c1.56-1.21,3.14-2.37,4.73-3.49,1.59-1.12,3.19-2.18,4.8-3.2,.5,1.57,1.32,2.81,2.45,3.73,1.14,.92,2.57,1.37,4.3,1.37,1.23,0,2.29-.21,3.17-.62s1.6-.99,2.17-1.73c.57-.74,.98-1.61,1.24-2.62,.26-1.01,.39-2.1,.39-3.26,0-1.07-.05-2.17-.14-3.3s-.14-2.17-.14-3.12v-3.13h-1.03c-.17,.38-.33,.81-.48,1.28s-.29,1.02-.41,1.64H16.99c-.09-.47-.2-.95-.32-1.42-.12-.47-.3-.97-.53-1.49h-1.03v9.35h1.03Zm22.12-3.02c.07,.31,.12,.65,.14,1.01,.02,.37,.04,.84,.04,1.4,0,1.61-.41,2.93-1.24,3.95-.83,1.02-2.11,1.53-3.85,1.53s-3.06-.48-4.1-1.44c-1.04-.96-1.55-2.26-1.55-3.9v-2.56h10.57Z"/>
    <path class="cls-1" d="M19.01,1287.15c-.64-1.14-1-2.67-1-4.59,0-2.13,.39-3.7,1.17-4.73,.85-1.14,2.31-1.85,4.3-2.13v-3.84c-3.2,.21-5.55,1.35-7.04,3.45-1.21,1.74-1.85,4.16-1.85,7.26s.64,5.69,1.92,7.47c1.32,1.78,3.09,2.67,5.37,2.67s4.16-1.1,5.48-3.27c.6-1,1.42-3.24,2.49-6.65,.71-2.38,1.24-3.84,1.57-4.41,.68-1.28,1.57-1.89,2.7-1.89,1.28,0,2.21,.53,2.78,1.64,.5,.89,.75,2.17,.75,3.84,0,1.92-.36,3.34-1.1,4.34-.71,1-1.92,1.64-3.56,1.99v3.84c2.78-.25,4.8-1.25,6.12-3.02,1.28-1.67,1.89-3.98,1.89-6.94,0-2.7-.6-4.95-1.81-6.72-1.28-1.89-3.02-2.81-5.27-2.81s-3.91,.96-5.09,2.92c-.43,.78-1.1,2.7-2.1,5.84-.85,2.81-1.42,4.48-1.71,5.05-.82,1.6-1.92,2.42-3.34,2.42-1.14,0-2.03-.57-2.67-1.71Z"/>
  </g>
  <g>
    <path class="cls-1" d="M16.55,1327.15l.68-3.34,3.95,1.39v9.25l-3.95,1.35-.68-3.31h-2.13v10.32h2.13l.68-2.95,22.09-7.9-.18-3.56-21.92-8.11-.68-2.92h-2.13v9.78h2.13Zm18.18,2.74l-10.71,3.59v-7.33l10.71,3.74Z"/>
    <polygon class="cls-1" points="15.64 1349.18 15.85 1346.53 32.25 1346.5 14.24 1354.08 14.24 1356.36 35.75 1356.36 35.96 1357.94 37.18 1357.94 37.18 1352.4 35.96 1352.4 35.75 1354.93 19.62 1354.96 37.18 1347.6 37.18 1343.27 35.93 1343.27 35.75 1345.04 35.6 1345.1 15.85 1345.1 15.64 1343.27 14.42 1343.27 14.42 1349.18 15.64 1349.18"/>
    <path class="cls-1" d="M39.82,1384.98v-4.41l-25.4-9.78v4.13l6.55,2.38v10.92l-6.55,2.38v4.16l25.4-9.78Zm-15.65-6.51l11.49,4.23v.14l-11.49,4.2v-8.57Z"/>
    <path class="cls-1" d="M16.27,1415.36c1.67,2.1,3.98,3.42,6.94,3.98v-3.77c-1.99-.5-3.49-1.39-4.48-2.67-.92-1.21-1.39-2.78-1.39-4.63,0-2.85,.89-4.95,2.67-6.3,1.67-1.28,4.02-1.92,7.08-1.92s5.3,.64,7.01,1.96c1.89,1.39,2.81,3.45,2.81,6.19,0,1.85-.39,3.34-1.21,4.55-.82,1.21-2.1,2.03-3.81,2.45v3.77c2.56-.39,4.63-1.53,6.12-3.38,1.57-1.92,2.31-4.38,2.31-7.33,0-4.06-1.32-7.11-4.02-9.25-2.38-1.92-5.44-2.85-9.21-2.85s-6.9,.89-9.18,2.74c-2.63,2.1-3.98,5.23-3.98,9.39,0,2.74,.78,5.09,2.35,7.04Z"/>
    <path class="cls-1" d="M27.23,1422.86c5.8,0,11.35,1.35,16.61,4.09v-1.81c-5.27-2.63-10.78-3.95-16.61-3.95s-11.35,1.32-16.61,3.95v1.81c5.3-2.74,10.85-4.09,16.61-4.09Z"/>
    <path class="cls-1" d="M40.32,1438.55c0-3.88-1.25-6.94-3.81-9.14-2.42-2.13-5.55-3.17-9.43-3.17s-6.97,1.03-9.39,3.17c-2.49,2.21-3.77,5.27-3.77,9.14,0,2.6,.57,4.84,1.71,6.72-1.14,.85-2.35,1.71-3.63,2.6l2.13,2.6c1.25-.89,2.46-1.78,3.63-2.67,2.42,2.06,5.51,3.1,9.32,3.1s7.08-1.07,9.46-3.2c2.53-2.24,3.77-5.3,3.77-9.14Zm-19.57,6.83c1.49-1.28,2.95-2.56,4.3-3.84l-2.21-2.24c-1.32,1.21-2.78,2.49-4.38,3.81-.75-1.25-1.14-2.78-1.14-4.55,0-2.7,.92-4.8,2.7-6.3,1.74-1.42,4.09-2.13,7.04-2.13s5.34,.71,7.08,2.13c1.85,1.49,2.74,3.59,2.74,6.3s-.85,4.8-2.63,6.26c-1.74,1.42-4.13,2.17-7.19,2.17-2.6,0-4.7-.53-6.33-1.6Z"/>
    <path class="cls-1" d="M43.84,1451.96v-1.81c-5.27,2.7-10.81,4.09-16.61,4.09s-11.31-1.39-16.61-4.09v1.81c5.27,2.63,10.82,3.95,16.61,3.95s11.35-1.32,16.61-3.95Z"/>
    <path class="cls-1" d="M25.17,1481.39c.22-.81,.33-1.61,.33-2.38v-.31h-.92v.31c0,.59-.07,1.21-.22,1.85-1.56-1-3.26-1.87-5.29-2.73-3.52-4.39-5.62-7.97-5.62-9.59,0-.01,0-.36,.27-.36,1.87,0,3.5,1.82,5.57,4.12,.78,.87,1.59,1.77,2.49,2.66,3.47,3.44,8.08,7.39,12.94,7.39,2.79,0,3.67-1.49,3.89-2.83,2.32-.5,3.59-2.17,3.59-4.75,0-6.33-7.98-16.8-17.07-16.8-1.62,0-3.17,.32-4.62,.94l-.27,.12,.35,.87,.29-.12c1.38-.59,2.81-.89,4.26-.89,8.6,0,16.16,9.9,16.16,15.88,0,1.42-.46,3.18-2.61,3.78-.05-2.66-1.94-6.52-4.84-9.88-3.17-3.67-6.8-5.86-9.7-5.86-2.62,0-3.02,1.55-3.02,2.47,0,5.47,8.89,14.4,15.92,14.4,.21,0,.41-.01,.61-.03-.33,1.19-1.31,1.79-2.92,1.79-3.85,0-6.83-3.04-9.98-6.26-.55-.56-1.1-1.13-1.67-1.68-3.6-3.53-6.57-6.23-9.34-6.23-.82,0-1.19,.66-1.19,1.28,0,2.16,2.84,6.24,4.93,8.96-1.67-.58-3.14-.87-4.38-.87-5.16,0-7.94,3.84-7.94,7.46,0,3.39,2.49,6.82,8.07,6.82,.4,0,.81-.04,1.22-.09v.71l6.55,2.38v10.92l-6.55,2.38v4.16l25.4-9.78v-4.41l-20.78-8c1.82-1.08,3.45-2.63,4.64-4.48,.22,.22,.43,.43,.63,.62,3.41,3.17,6.71,5.47,7.85,5.47,.5,0,.79-.29,.79-.76,0-.66-.49-1.6-1.47-2.78-2-2.39-4.06-4.3-6.32-5.85Zm10.49,17.93v.14l-11.49,4.2v-8.57l11.49,4.23Zm-3.6-9.46c-.93-.14-3.66-1.96-7.14-5.23-.23-.21-.49-.46-.76-.74,.22-.4,.42-.83,.62-1.31,2.7,1.96,4.96,4.01,6.04,5.22,.6,.66,1.16,1.64,1.25,2.07Zm-17.64,.03c-.41,.06-.81,.1-1.22,.1-5.28,0-7.15-3.18-7.15-5.9,0-3.17,2.46-6.54,7.03-6.54,1.56,0,3.4,.45,5.48,1.35,1.47,1.84,3.08,3.69,4.47,5.13-1.24,2.02-3.09,3.66-5.13,4.71l-3.48-1.34v2.49Zm6.05-10.06c1.13,.61,2.33,1.36,3.55,2.2-.14,.39-.32,.78-.52,1.18-.92-.96-1.96-2.12-3.02-3.38Zm12.7-10.55c2.79,3.24,4.59,6.92,4.59,9.4,0,.02,0,.03,0,.05-.25,.03-.49,.04-.73,.04-5.36,0-15-10.04-15-13.48,0-1.03,.71-1.55,2.1-1.55,2.67,0,6.05,2.07,9.04,5.54Z"/>
    <path class="cls-1" d="M38.75,1520.44l.39,3.63h1.35v-10.96h-1.35l-.39,3.63c-3.42,.07-6.87,.07-10.35,.07h-1.92c-3.49,0-6.9,0-10.32-.07l-.39-3.63h-1.35v10.96h1.35l.43-3.63c3.42-.07,6.87-.07,10.28-.07h1.92c3.49,0,6.97,0,10.35,.07Z"/>
    <polygon class="cls-1" points="39.82 1528.3 14.42 1528.3 14.42 1532.18 33.52 1532.18 33.52 1532.32 14.42 1545.45 14.42 1549.22 39.82 1549.22 39.82 1545.34 20.93 1545.34 20.93 1545.2 39.82 1532.21 39.82 1528.3"/>
    <path class="cls-1" d="M26.98,1553.68v1.88c0,.29,.23,.52,.52,.52h5.02c.41,0,.74,.33,.74,.74v1.88c0,.41-.33,.74-.74,.74H14.94c-.29,0-.52,.23-.52,.52v1.88c0,.29,.23,.52,.52,.52h23.87c.29,0,.52-.23,.52-.52v-5.02c0-.29-.23-.52-.52-.52h-5.02c-.41,0-.74-.33-.74-.74v-1.88c0-.29-.23-.52-.52-.52h-5.02c-.29,0-.52,.23-.52,.52Z"/>
    <path class="cls-1" d="M14.42,1563.1v1.88c0,.29,.23,.52,.52,.52h17.59c.41,0,.74,.33,.74,.74v1.88c0,.41-.33,.74-.74,.74h-5.02c-.29,0-.52,.23-.52,.52v1.88c0,.29,.23,.52,.52,.52h5.02c.29,0,.52-.23,.52-.52v-1.88c0-.41,.33-.74,.74-.74h5.02c.29,0,.52-.23,.52-.52v-5.02c0-.29-.23-.52-.52-.52H14.94c-.29,0-.52,.23-.52,.52Z"/>
    <path class="cls-1" d="M32.98,1579.23c0-1.4-.25-2.44-.76-3.12-.51-.68-1.19-1.02-2.04-1.02s-1.54,.33-2.07,1c-.53,.67-.79,1.61-.79,2.83,0,.81,.12,1.51,.37,2.1s.57,1.02,.97,1.31h-1.22v1.95h5.75c2.64,0,3.95-1.51,3.95-4.53,0-.81-.12-1.61-.35-2.39-.23-.78-.55-1.43-.96-1.96l-1.37,.79c.32,.43,.58,.94,.77,1.54,.19,.6,.29,1.2,.29,1.81,0,.89-.18,1.56-.55,1.99-.36,.43-.94,.65-1.73,.65h-.27v-2.95Zm-2.71,2.95c-.99-.51-1.49-1.45-1.49-2.83,0-.71,.13-1.26,.4-1.66,.26-.4,.63-.59,1.1-.59,.93,0,1.4,.8,1.4,2.4v2.68h-1.4Z"/>
    <path class="cls-1" d="M19.46,1591.77c0,.23,0,.46,.02,.71-2.05-.67-4-1-5.81-1-3.64,0-5.73,2.43-5.73,6.66,0,5.48,3.13,14.84,11.91,24.66l1.23,1.38c-1.19,.44-2.25,1.02-3.18,1.78-2.63,2.1-3.98,5.23-3.98,9.39,0,2.74,.78,5.09,2.35,7.04,1.67,2.1,3.98,3.42,6.94,3.98v-3.77c-1.99-.5-3.49-1.39-4.48-2.67-.92-1.21-1.39-2.78-1.39-4.63,0-2.85,.89-4.95,2.67-6.3,1.67-1.28,4.02-1.92,7.08-1.92s5.3,.64,7.01,1.96c1.89,1.39,2.81,3.45,2.81,6.19,0,1.85-.39,3.34-1.21,4.55-.82,1.21-2.1,2.03-3.81,2.45v3.77c2.56-.39,4.63-1.53,6.12-3.38,1.57-1.92,2.31-4.38,2.31-7.33,0-4.06-1.32-7.11-4.02-9.25-2.38-1.92-5.44-2.85-9.21-2.85-1.58,0-3.01,.16-4.33,.46l-1.78-2c-8.45-9.48-11.45-18.38-11.45-23.54,0-3.37,1.4-5.08,4.15-5.08,1.82,0,3.85,.42,6.05,1.26,1.56,8.41,10.01,21.69,18.26,28.65,3.73,3.14,6.54,4.73,8.36,4.73,.96,0,2.57-.41,2.57-3.17s-1.67-6.7-3.22-9.24c-6.02-9.86-15.86-18.74-24.58-22.2-.06-.42-.08-.85-.08-1.3,0-2.16,.96-4.47,3.65-4.47,1.87,0,6.2,1.16,14.08,8.96l.43,.43,1.15-1.15-.44-.43c-6.21-6.14-11.47-9.39-15.22-9.39-3.18,0-5.24,2.38-5.24,6.05Zm27.88,32.75c0,1.59-.69,1.59-.99,1.59-.52,0-2.58-.32-7.35-4.37-7.46-6.33-15.5-18.67-17.5-26.67,8.05,3.7,17.31,12.19,22.88,21.07,1.66,2.64,2.96,6.32,2.96,8.39Z"/>
    <polygon class="cls-1" points="17.73 1669.13 17.73 1654.16 25.8 1654.16 25.8 1667.68 29.11 1667.68 29.11 1654.16 36.51 1654.16 36.51 1668.53 39.82 1668.53 39.82 1650.28 14.42 1650.28 14.42 1669.13 17.73 1669.13"/>
  </g>
  <g>
    <path class="cls-1" d="M20.65,1706.55c-.64-1.14-1-2.67-1-4.59,0-2.13,.39-3.7,1.17-4.73,.85-1.14,2.31-1.85,4.3-2.13v-3.84c-3.2,.21-5.55,1.35-7.04,3.45-1.21,1.74-1.85,4.16-1.85,7.26s.64,5.69,1.92,7.47c1.32,1.78,3.09,2.67,5.37,2.67s4.16-1.1,5.48-3.27c.6-1,1.42-3.24,2.49-6.65,.71-2.38,1.24-3.84,1.57-4.41,.68-1.28,1.57-1.89,2.7-1.89,1.28,0,2.21,.53,2.78,1.64,.5,.89,.75,2.17,.75,3.84,0,1.92-.36,3.34-1.1,4.34-.71,1-1.92,1.64-3.56,1.99v3.84c2.78-.25,4.8-1.25,6.12-3.02,1.28-1.67,1.89-3.98,1.89-6.94,0-2.7-.6-4.95-1.81-6.72-1.28-1.89-3.02-2.81-5.27-2.81s-3.91,.96-5.09,2.92c-.43,.78-1.1,2.7-2.1,5.84-.85,2.81-1.42,4.48-1.71,5.05-.82,1.6-1.92,2.42-3.34,2.42-1.14,0-2.03-.57-2.67-1.71Z"/>
    <path class="cls-1" d="M17.14,1712.94l-1.24,.07v.29c.02,2.62,1.32,5.78,3.77,9.17-3.11,.78-5.81,2.53-8.03,5.21l-.21,.25,.77,.58,.19-.22c2.2-2.64,4.86-4.31,7.91-4.96,6.57,8.55,18.2,16.31,24.5,16.31,1.81,0,2.09-1.11,2.09-1.76,0-4.85-11.97-15.84-23.35-15.84-.65,0-1.17,.02-1.66,.07-2.92-3.77-4.64-6.99-4.72-8.85v-.31Zm5.46,10.07c.3-.01,.6-.02,.92-.02,10.91,0,22.38,10.32,22.38,14.88,0,.2,0,.8-1.12,.8-6.3,0-15.83-7.8-22.18-15.65Z"/>
    <path class="cls-1" d="M35.84,1750.32v.14l-19.11,13.13v3.77h25.4v-3.88H23.25v-.14l18.89-12.98v-3.91h-13.94l.56-.9-1.37-.91v-.15c0-4.38-3.1-13.18-10.1-13.18-.79,0-1.25,.27-1.25,.85,0,1.49,2.74,4.81,3.9,6.06,.9,.96,3.04,3.04,4.5,4.46l-4.2-2.75c-6.06-3.99-11.56-9.13-11.56-16.95,0-2.13,.79-4.56,2.59-6.57l-.24-.18c-2.1,2.34-2.98,5.51-2.98,9.16,0,5.78,4.18,9.46,8.31,12.32,1.31,.9,2.56,1.77,3.71,2.53,3.64,2.41,6.22,4.12,7.43,6.23h-10.75v3.88h19.11Zm-10.04-6.75c-1-.96-4.41-4.26-5.63-5.55-1.1-1.16-3.83-4.47-3.83-5.87,0-.37,.43-.55,.94-.55,3.93,0,9.89,8.58,9.89,12.89l-1.37-.91Z"/>
    <rect class="cls-1" x="16.74" y="1772.44" width="25.4" height="3.84"/>
    <path class="cls-1" d="M38.67,1786.18c.16,.13,.24,.44,.24,.91v4.88c0,1.98-.22,3.31-.65,3.98-.43,.67-1.46,1.13-3.09,1.37v.99l5.09-.12v-18.95h-.66c-.09,1.32-.33,2.17-.72,2.55s-1.21,.57-2.48,.57h-15.4c-1.53,0-2.48-.17-2.84-.51s-.62-1.21-.77-2.61h-.66v9.95h.66c.1-1.34,.34-2.21,.7-2.61,.36-.4,1.19-.6,2.5-.6h7.78v5.16c0,1.51-.22,2.47-.67,2.88s-1.36,.76-2.74,1.02v.83h8.22v-.83c-1.37-.25-2.28-.59-2.73-1.01s-.67-1.38-.67-2.9v-5.16h7.94c.47,0,.79,.07,.96,.2Z"/>
    <rect class="cls-1" x="16.74" y="1801.18" width="25.4" height="3.84"/>
    <path class="cls-1" d="M41.77,1847.94l.24,.72c1.06,.37,2.27,.85,3.63,1.44,1.36,.58,2.35,1.06,2.99,1.43,.43,0,.74-.21,.96-.64,1.01-1.7,1.71-3.55,2.11-5.54,.4-1.99,.6-3.95,.6-5.86,0-2.55-.44-5-1.32-7.33-.88-2.34-2.06-4.47-3.55-6.38-1.17-1.54-2.61-3.07-4.31-4.58-1.7-1.52-3.53-2.88-5.5-4.11-1.97-1.22-4.01-2.22-6.14-2.99-2.13-.77-4.2-1.16-6.22-1.16-1.81,0-3.31,.32-4.5,.96-1.2,.64-2.15,1.5-2.87,2.59-.72,1.09-1.22,2.34-1.52,3.75-.29,1.41-.44,2.88-.44,4.42,0,4.78,1.05,9.18,3.15,13.19,2.1,4.01,4.98,7.24,8.65,9.69,.27,.16,.54,.3,.84,.44,.29,.13,.65,.2,1.08,.2,.74,0,1.12-.11,1.12-.32,0-.11-.11-.24-.32-.4-4.52-3.3-7.96-6.78-10.32-10.44-2.37-3.67-3.55-7.73-3.55-12.2,0-1.06,.09-2.1,.28-3.11s.52-1.9,1-2.67c.48-.77,1.14-1.39,1.99-1.87,.85-.48,1.94-.72,3.27-.72,2.44,0,4.96,.49,7.53,1.48,2.58,.98,5.02,2.22,7.33,3.71,2.31,1.49,4.4,3.07,6.26,4.74,1.86,1.67,3.27,3.18,4.23,4.5,.85,1.17,1.58,2.42,2.19,3.75,.61,1.33,.92,2.76,.92,4.3,0,1.91-.21,3.47-.64,4.66s-.98,2.15-1.67,2.87-1.46,1.21-2.31,1.47-1.67,.4-2.47,.4c-.43,0-.92-.04-1.47-.12-.56-.08-.97-.17-1.24-.28Z"/>
    <path class="cls-1" d="M42.14,1858.22l-25.4-9.78v4.13l6.55,2.38v10.92l-6.55,2.38v4.16l25.4-9.78v-4.41Zm-15.65-2.1l11.49,4.23v.14l-11.49,4.2v-8.57Z"/>
    <path class="cls-1" d="M31.5,1893.74h-15.37v3.86h15.44c3.49,0,6.21-.92,8.08-2.73,1.87-1.82,2.82-4.33,2.82-7.45,0-2.31-.51-4.32-1.51-5.99-.41-.68-.92-1.29-1.53-1.83h2.82v-3.75H16.12v3.86h14.77c2.76,0,4.8,.65,6.07,1.93,1.29,1.3,1.92,3.03,1.92,5.28s-.61,3.83-1.83,5.02c-1.21,1.19-3.09,1.8-5.56,1.8Z"/>
    <polygon class="cls-1" points="38.83 1902.14 38.83 1910.64 16.74 1910.64 16.74 1914.49 38.83 1914.49 38.83 1922.95 42.14 1922.95 42.14 1902.14 38.83 1902.14"/>
    <path class="cls-1" d="M24.56,1961.57c1.59,.64,3.21,.96,4.87,.96,1.9,0,3.65-.35,5.26-1.05,1.61-.7,3.01-1.63,4.2-2.79,1.18-1.16,2.12-2.49,2.79-3.97,.68-1.48,1.01-3.01,1.01-4.57,0-1.47-.34-2.94-1.01-4.41-.68-1.47-1.61-2.79-2.79-3.97-1.19-1.17-2.58-2.13-4.2-2.88-1.61-.75-3.37-1.12-5.26-1.12-1.71,0-3.36,.31-4.96,.92-1.6,.62-3.01,1.48-4.23,2.58-1.22,1.1-2.2,2.41-2.93,3.93-.73,1.52-1.1,3.17-1.1,4.94s.38,3.35,1.14,4.85c.76,1.51,1.75,2.82,2.99,3.93,1.23,1.12,2.64,1.99,4.23,2.63Zm-.71-3.56c-1.59-.28-2.92-.76-3.98-1.42-1.07-.66-1.86-1.52-2.38-2.58-.52-1.06-.78-2.34-.78-3.86s.26-2.83,.78-3.88c.52-1.04,1.32-1.9,2.38-2.56,1.07-.66,2.4-1.14,3.98-1.42,1.59-.29,3.45-.43,5.58-.43,1.64,0,3.22,.11,4.75,.32,1.53,.21,2.89,.62,4.09,1.23,1.2,.6,2.15,1.45,2.86,2.53,.71,1.08,1.07,2.48,1.07,4.21s-.36,3.13-1.07,4.21c-.71,1.08-1.67,1.92-2.86,2.52-1.2,.6-2.56,1.01-4.09,1.23-1.53,.21-3.11,.32-4.75,.32-2.13,0-4-.14-5.58-.43Z"/>
    <path class="cls-1" d="M45.52,1993.91l-.5-.53c-1.92,1.67-4.2,2.95-6.79,3.84-2.56,.85-5.44,1.28-8.65,1.28s-6.08-.43-8.68-1.28c-2.6-.89-4.87-2.17-6.83-3.84l-.5,.53c1.92,1.92,4.31,3.42,7.08,4.55,2.85,1.07,5.8,1.64,8.89,1.64s6.08-.57,8.93-1.67c2.77-1.1,5.12-2.6,7.04-4.52Z"/>
    <path class="cls-1" d="M39.15,1989.04c0,.96-.18,1.67-.57,2.1-.32,.36-1,.68-1.99,1.03-1,.32-1.49,.64-1.49,.92,0,.36,.28,.57,.78,.57,3.2,.07,5.05,.11,5.48,.11,.68,0,1-.18,1-.53,0-.21-.28-.46-.85-.82-.57-.36-.85-1.03-.85-1.96v-14.12c0-.82,.32-1.42,.96-1.81,.5-.32,.71-.6,.71-.85,0-.32-.43-.57-1.28-.75l-4.23-.96c-.5-.14-.85-.18-1.1-.18-.39,0-.6,.14-.6,.46,0,.29,.39,.68,1.14,1.17,.89,.53,1.57,1.1,2.03,1.67,.6,.64,.89,1.35,.89,2.14v3.98H21.79c-.53,0-.96-.14-1.25-.36-.28-.28-.5-.68-.6-1.21l-.46-2.31h-1.1c.14,2.42,.18,4.3,.18,5.66,0,1.28-.04,3.17-.18,5.66h1.1l.5-2.35c.11-.46,.32-.78,.6-1s.68-.32,1.21-.32h17.36v4.06Z"/>
    <path class="cls-1" d="M45.02,1972.1l.5-.53c-1.92-1.92-4.27-3.45-7.04-4.52-2.85-1.14-5.8-1.67-8.93-1.67s-6.05,.53-8.89,1.64c-2.77,1.1-5.16,2.63-7.08,4.55l.5,.53c1.96-1.71,4.23-2.99,6.83-3.84,2.6-.85,5.48-1.28,8.68-1.28s6.08,.43,8.65,1.28c2.6,.85,4.87,2.14,6.79,3.84Z"/>
    <polygon class="cls-1" points="16.74 2024.07 42.14 2024.07 42.14 2020.2 31.43 2020.2 31.43 2006.89 42.14 2006.89 42.14 2003.01 16.74 2003.01 16.74 2006.89 28.12 2006.89 28.12 2020.2 16.74 2020.2 16.74 2024.07"/>
    <path class="cls-1" d="M44.88,2052.03c0-4.16-9.5-15.37-15.73-15.37-1.74,0-3.34,.82-4.34,2.92-.11,.25-.18,.39-.29,.39-.29,0-.71-1.1-1.25-2.49-2.63-6.76-8.08-15.01-15.97-15.01-4.23,0-6.26,1.71-6.26,3.34,0,4.27,14.37,17.93,21.99,25.01l.21-.21c-7.9-7.26-20.74-19.99-20.74-24.19,0-1.57,1.64-3.49,5.19-3.49,6.9,0,12.7,9.75,14.91,15.16,.64,1.6,1.46,2.17,1.92,2.17,.21,0,.39-.21,.57-.5,1.07-1.78,2.24-2.56,3.81-2.56,5.69,0,15.3,12.24,15.3,15.48,0,.82-.5,1.14-1.07,1.14-2.31,0-6.23-4.23-7.61-5.59l-.21,.21c1.92,2.24,4.48,5.66,7.36,5.66,1.46,0,2.21-1.07,2.21-2.06Z"/>
    <polygon class="cls-1" points="28.08 2074.56 31.92 2074.56 31.92 2059.22 39.58 2059.22 39.58 2074.56 43.41 2074.56 43.41 2055.39 16.58 2055.39 16.58 2059.22 28.08 2059.22 28.08 2066.89 24.25 2066.89 24.25 2070.72 28.08 2070.72 28.08 2074.56"/>
    <rect class="cls-1" x="20.42" y="2070.72" width="3.83" height="3.83"/>
    <rect class="cls-1" x="31.92" y="2074.56" width="7.67" height="3.83"/>
  </g>
  <g>
    <path class="cls-1" d="M24.26,2102.55v6.58c0,6.08,2.6,9.14,7.79,9.14s7.72-3.02,7.72-9.07v-10.53H14.37v3.88h9.89Zm12.2,0v6.33c0,1.89-.36,3.27-1.07,4.16-.64,.89-1.78,1.35-3.35,1.35s-2.7-.46-3.41-1.32c-.71-.89-1.07-2.28-1.07-4.2v-6.33h8.89Z"/>
    <path class="cls-1" d="M42.66,2126.53l.5-.53c-1.92-1.92-4.27-3.45-7.04-4.52-2.85-1.14-5.8-1.67-8.93-1.67s-6.05,.53-8.89,1.64c-2.78,1.1-5.16,2.63-7.08,4.55l.5,.53c1.96-1.71,4.23-2.99,6.83-3.84,2.6-.85,5.48-1.28,8.68-1.28s6.08,.43,8.65,1.28c2.6,.85,4.87,2.14,6.79,3.84Z"/>
    <path class="cls-1" d="M27.07,2149.9c3.34,0,6.16-1.21,8.36-3.56,2.21-2.35,3.31-5.34,3.31-8.89,0-3.84-1.07-6.97-3.24-9.36-2.14-2.45-4.98-3.66-8.54-3.66s-6.37,1.17-8.43,3.56c-1.96,2.28-2.95,5.27-2.95,8.97s1.07,6.97,3.13,9.39c2.06,2.35,4.87,3.56,8.36,3.56Zm-7.15-6.19c-1.92-1.57-2.88-3.88-2.88-6.94,0-2.49,1-4.48,2.95-6.01,1.85-1.49,4.13-2.24,6.79-2.24,2.92,0,5.34,.64,7.19,1.99,2.21,1.49,3.31,3.63,3.31,6.4,0,2.92-1.07,5.19-3.24,6.79-1.85,1.39-4.27,2.1-7.19,2.1s-5.19-.71-6.94-2.1Z"/>
    <path class="cls-1" d="M18.29,2152.89c2.85,1.07,5.8,1.64,8.89,1.64s6.08-.57,8.93-1.67c2.77-1.1,5.12-2.6,7.04-4.52l-.5-.53c-1.92,1.67-4.2,2.95-6.79,3.84-2.56,.85-5.44,1.28-8.65,1.28s-6.08-.43-8.68-1.28c-2.6-.89-4.87-2.17-6.83-3.84l-.5,.53c1.92,1.92,4.3,3.42,7.08,4.55Z"/>
    <path class="cls-1" d="M21.2,2173.37c3.66,0,5.83-1.92,7.9-7.11l.6-1.57c1.1-2.81,2.6-4.41,5.09-4.41,2.99,0,4.55,2.31,4.55,5.44,0,1.21-.21,2.17-.78,3.17l-4.66,1v2.03l5.09,.25c1.24-1.71,2.06-3.77,2.06-6.4,0-4.91-2.63-8.68-7.15-8.68-3.91,0-6.16,2.67-7.79,6.72l-.6,1.46c-1.39,3.49-2.6,4.91-5.12,4.91-3.17,0-4.87-2.46-4.87-6.23,0-1.67,.29-2.85,.96-4.09l4.87-1v-1.99l-5.48-.25c-1.14,1.78-2.06,4.62-2.06,7.58,0,5.41,2.78,9.18,7.4,9.18Z"/>
    <rect class="cls-1" x="14.37" y="2177.53" width="25.4" height="3.84"/>
    <path class="cls-1" d="M36.33,2235.38H14.37v3.84h25.4v-1.22c.34,.08,.68,.12,1.01,.12,2.23,0,4.84-1.83,4.84-6.97,0-2.18-.55-4.24-1.08-6.23-.53-1.98-1.02-3.85-1.02-5.82s.41-4.96,2.39-7.26l.21-.25-.74-.55-.19,.22c-1.7,1.97-2.6,4.68-2.6,7.84,0,2.14,.54,4.19,1.07,6.17,.53,2,1.03,3.88,1.03,5.88,0,4.47-2.11,6.05-3.92,6.05-.34,0-.68-.07-1.01-.17v-1.66h-2.31c-.77-1-1.3-2.36-1.3-4.04,0-2.42,.89-4.65,1.75-6.82,.89-2.23,1.81-4.53,1.81-7.09,0-.65-.04-1.31-.12-1.96,1.28-.16,3.08-1,3.08-4.49,0-7.53-7.02-13.69-13.88-15.38-.14-5.72-3.71-11.98-8.73-11.98s-7.12,6.86-7.12,11.47c0,6.65,4.57,10.23,11.03,14.56,4.16,2.79,7.68,5.45,8.64,9.61l.07,.29,.91-.18-.07-.31c-1.09-4.7-4.99-7.46-8.76-10.13-4.74-3.35-10.28-9.68-10.28-16.49,0-3.18,1.49-7.91,5.6-7.91,4.42,0,7.59,5.64,7.79,10.85-1.02-.2-2.05-.29-3.08-.29-1.68,0-3.27,.26-4.73,.78l-.3,.11,.35,.87,.28-.1c1.39-.49,2.87-.74,4.4-.74,1.03,0,2.06,.1,3.08,.31-.06,2.18-.7,5.11-3.24,7.18-.75,.61-.95,.63-1.27,.63-.09,0-.18,0-.28-.01-.15,0-.32-.02-.54-.02-.4,0-.7,.28-.7,.64,0,.48,.3,.79,.76,.79,.95,0,2.58-1.26,2.66-1.31,2.12-1.68,3.39-4.47,3.53-7.69,7.31,1.89,12.98,8.17,12.98,14.45,0,2.17-.79,3.4-2.28,3.58-1.28-7.11-6.98-10.83-9.73-10.83-1.09,0-1.8,.65-1.8,1.64,0,5.19,6.57,9.86,10.74,10.11,.09,.65,.13,1.3,.13,1.94,0,2.4-.85,4.53-1.75,6.8-.89,2.24-1.81,4.55-1.81,7.11,0,1.6,.42,2.96,1.09,4.04Zm-6.59-30.72c2.38,0,7.55,3.49,8.79,9.89-3.47-.52-9.67-5.89-9.67-9.23,0-.18,0-.67,.88-.67Z"/>
    <path class="cls-1" d="M33.13,2261.21l-13.4-5.05,12.38-5.57c1.23-.55,2.11-.93,2.64-1.13,.53-.2,.94-.3,1.23-.3,.58,0,.96,.28,1.15,.85,.11,.32,.16,.93,.18,1.82h.61v-9.48h-.61c-.06,.86-.29,1.51-.7,1.95s-1.44,1.04-3.1,1.78l-19.55,8.79v.54l20.01,7.88c1.37,.53,2.27,1.07,2.73,1.62,.3,.36,.5,.91,.61,1.67h.61v-7.28h-.61c-.02,.8-.11,1.37-.25,1.72-.25,.59-.72,.89-1.41,.89-.26,0-.59-.06-1.01-.17-.41-.12-.91-.29-1.51-.51Z"/>
    <path class="cls-1" d="M14.89,2285.94h5.03c.29,0,.52-.23,.52-.52v-6.6c0-.41,.33-.74,.74-.74h1.88c.41,0,.74,.33,.74,.74v3.46c0,.29,.23,.52,.52,.52h5.02c.29,0,.52-.23,.52-.52v-3.46c0-.29-.23-.52-.52-.52h-5.02c-.41,0-.74-.33-.74-.74v-8.17c0-.29-.23-.52-.52-.52H14.89c-.29,0-.52,.23-.52,.52h0v16.02c0,.29,.23,.52,.52,.52Z"/>
    <path class="cls-1" d="M39.28,2285.42v-16.02c0-.29-.23-.52-.52-.52h-8.17c-.29,0-.52,.23-.52,.52v3.45c0,.41-.33,.74-.74,.74h-5.03c-.29,0-.52,.23-.52,.52v3.45c0,.29,.23,.52,.52,.52h5.02c.24-.01,.52-.21,.52-.52v-3.45c0-.41,.33-.74,.74-.74h1.89c.41,0,.74,.33,.74,.74v11.31c0,.29,.23,.52,.52,.52h5.03c.29,0,.52-.23,.52-.52Z"/>
  </g>
  <g>
    <polygon class="cls-1" points="21.13 2315.17 25.12 2315.17 29.1 2315.17 33.09 2315.17 33.09 2319.16 37.08 2319.16 37.08 2315.17 41.06 2315.17 41.06 2311.18 37.08 2311.18 33.09 2311.18 29.1 2311.18 25.12 2311.18 21.13 2311.18 17.14 2311.18 17.14 2315.17 21.13 2315.17"/>
    <polygon class="cls-1" points="29.1 2323.14 25.12 2323.14 21.13 2323.14 17.14 2323.14 17.14 2327.13 21.13 2327.13 25.12 2327.13 29.1 2327.13 33.09 2327.13 37.08 2327.13 41.06 2327.13 41.06 2323.14 37.08 2323.14 33.09 2323.14 33.09 2319.16 29.1 2319.16 29.1 2323.14"/>
    <polygon class="cls-1" points="26.08 2338.18 26.08 2351.7 29.38 2351.7 29.38 2338.18 36.79 2338.18 36.79 2352.56 40.09 2352.56 40.09 2334.31 14.69 2334.31 14.69 2353.16 18 2353.16 18 2338.18 26.08 2338.18"/>
    <path class="cls-1" d="M24.37,2371.19l-.36,5.51h-6.58c-.43-1.74-.64-3.63-.64-5.27,0-7.33,3.95-11.28,11.21-11.28s11.28,3.91,11.28,10.32c0,2.06-.21,3.98-.85,5.9l-5.05,.53v2.13h6.9c.89-2.78,1.32-5.3,1.32-8,0-8.25-5.55-13.95-13.66-13.95s-13.34,4.98-13.34,13.59c0,3.17,.39,6.05,1.21,8.82h8.22l.36,3.91h1.78v-12.24h-1.78Z"/>
    <path class="cls-1" d="M21.24,2390.65v10.92l-6.55,2.38v4.16l25.4-9.78v-4.41l-25.4-9.78v4.13l6.55,2.38Zm14.69,5.41v.14l-11.49,4.2v-8.57l11.49,4.23Z"/>
    <path class="cls-1" d="M44.11,2412.48c-5.27-2.63-10.78-3.95-16.61-3.95s-11.35,1.32-16.61,3.95v1.81c5.3-2.74,10.85-4.09,16.61-4.09s11.35,1.35,16.61,4.09v-1.81Z"/>
    <polygon class="cls-1" points="40.09 2436.32 40.09 2415.51 36.79 2415.51 36.79 2423.98 14.69 2423.98 14.69 2427.85 36.79 2427.85 36.79 2436.32 40.09 2436.32"/>
    <path class="cls-1" d="M44.11,2439.31v-1.81c-5.27,2.7-10.81,4.09-16.61,4.09s-11.31-1.39-16.61-4.09v1.81c5.27,2.63,10.82,3.95,16.61,3.95s11.35-1.32,16.61-3.95Z"/>
    <rect class="cls-1" x="14.69" y="2446.24" width="25.4" height="3.84"/>
    <path class="cls-1" d="M29.31,2482.4c-.38,0-.66,.35-.66,.84,0,.77,.66,1.25,1.26,1.25s1.17-.45,1.17-1.46c0-3.74-2.93-6.53-5.57-8.55,.31-.67,.55-1.28,.76-1.89,2.45,1.62,5.83,3.45,8.7,3.45,3.34,0,5.18-1.74,5.18-4.9,0-10.95-12.48-19.13-23.65-19.13-3.72,0-15.86,1.17-15.86,16.27,0,7.01,3.9,14.55,12.48,14.55,4.88,0,9.43-2.86,11.95-7.49,2.43,1.89,5.09,4.44,5.09,7.71,0,.07,0,.13-.01,.19-.29-.66-.61-.81-.85-.81Zm-27.73-14.13c0-9.61,5.59-15.35,14.95-15.35,10.72,0,22.71,7.79,22.71,18.21,0,2.57-1.51,3.98-4.26,3.98-2.54,0-5.69-2.29-8.19-4.34,.82-3.54,.75-7.5-.03-11.45l-.06-.3-.91,.18,.06,.3c.73,3.7,.82,7.32,.14,10.59-1.03-.87-2.03-1.75-2.89-2.51-4.02-3.57-7.05-5.37-9-5.37-.48,0-1.28,.18-1.28,1.37s1.22,2.93,1.87,3.7c1.66,1.98,3.7,3.37,5.67,4.72,.38,.26,.76,.52,1.14,.79l.55,.37c.76,.52,1.55,1.06,2.29,1.61-2.33,4.41-6.61,7.13-11.22,7.13-7.94,0-11.56-7.07-11.56-13.63Zm20.76,3.96l-.51-.35c-2.34-1.56-4.93-3.4-6.42-5.18-.83-.99-1.66-2.38-1.66-3.12,0-.42,.16-.46,.36-.46,1.24,0,3.66,2.26,5.79,4.25,.74,.69,1.48,1.39,2.19,2.01,.99,.87,2.13,1.76,3.4,2.66-.21,.66-.45,1.29-.72,1.87-.8-.59-1.63-1.15-2.44-1.69Z"/>
    <polygon class="cls-1" points="36.79 2504.19 40.09 2504.19 40.09 2485.94 14.69 2485.94 14.69 2504.79 18 2504.79 18 2489.81 26.08 2489.81 26.08 2503.33 29.38 2503.33 29.38 2489.81 36.79 2489.81 36.79 2504.19"/>
  </g>
  <g>
    <polygon class="cls-1" points="13.57 2539.96 13.57 2543.81 35.66 2543.81 35.66 2552.27 38.97 2552.27 38.97 2531.46 35.66 2531.46 35.66 2539.96 13.57 2539.96"/>
    <path class="cls-1" d="M36.49,2575.92c.4,.4,.64,1.28,.74,2.63h.68v-10.2h-.68c-.1,1.37-.34,2.25-.74,2.64s-1.25,.59-2.57,.59h-7.17v-11.17h7.17c1.32,0,2.17,.2,2.57,.61s.64,1.28,.74,2.63h.68v-10.2h-.68c-.1,1.35-.34,2.23-.74,2.63s-1.25,.6-2.57,.6h-15.94c-1.59,0-2.57-.18-2.94-.54-.37-.36-.64-1.26-.8-2.69h-.68v10.2h.68c.11-1.35,.35-2.22,.73-2.63,.38-.4,1.24-.61,2.57-.61h7.58v11.17h-7.15c-1.59,0-2.57-.18-2.95-.53-.38-.35-.64-1.25-.79-2.7h-.68v10.2h.68c.12-1.35,.37-2.23,.74-2.63,.37-.4,1.23-.6,2.56-.6h16.37c1.32,0,2.17,.2,2.57,.6Z"/>
    <path class="cls-1" d="M32.19,2602.08v-6.59c0-.41,.33-.74,.74-.74h5.02c.29,0,.52-.23,.52-.52v-12.88c0-.29-.23-.52-.52-.52H14.09c-.29,0-.52,.23-.52,.52v3.45c0,.29,.23,.52,.52,.52H31.68c.41,0,.74,.33,.74,.74v8.17c0,.41-.33,.74-.74,.74h-5.02c-.29,0-.52,.23-.52,.52v6.59c0,.29,.23,.52,.52,.52h5.02c.29,0,.52-.23,.52-.52Z"/>
    <path class="cls-1" d="M22.79,2602.08v-6.59c0-.41,.33-.74,.74-.74h1.88c.29,0,.52-.23,.52-.52v-8.17c0-.29-.23-.52-.52-.52H14.09c-.29,0-.52,.23-.52,.52v3.46c0,.29,.23,.52,.52,.52h8.18c.41,0,.74,.33,.74,.74v3.45c0,.41-.33,.74-.74,.74H14.1c-.29,0-.52,.23-.52,.52v6.59c0,.29,.23,.52,.52,.52h8.17c.29,0,.52-.23,.52-.52Z"/>
    <path class="cls-1" d="M14.36,2608.51c-.45,.61-.81,1.36-1.06,2.24-.25,.87-.37,1.88-.37,3.01,0,1.03,.19,2.08,.56,3.14,.37,1.06,.86,2.03,1.45,2.88,.59,.86,1.26,1.58,2,2.13,.74,.57,1.51,.85,2.27,.85,.85,0,1.58-.29,2.16-.87,.59-.57,.88-1.44,.88-2.57s-.27-2.12-.81-2.99c-.54-.86-1.26-1.61-2.14-2.25l-.12-.09-.33,.46,.13,.09c.31,.21,.63,.48,.95,.79,.32,.31,.6,.64,.85,1,.25,.35,.44,.73,.59,1.12,.14,.39,.22,.79,.22,1.19,0,.76-.22,1.31-.64,1.64-.44,.34-1.09,.52-1.94,.52s-1.65-.22-2.3-.64c-.66-.43-1.21-.99-1.64-1.64-.43-.66-.77-1.4-.99-2.19-.45-1.65-.44-3.16,.09-4.39,.27-.64,.64-1.19,1.08-1.64,.44-.45,.96-.81,1.55-1.06,.59-.25,1.19-.38,1.79-.38,1.1,0,2.03,.18,2.75,.55,.72,.36,1.34,.85,1.84,1.44,.51,.6,.95,1.29,1.3,2.05,.37,.78,.73,1.57,1.1,2.36,.33,.73,.78,1.28,1.34,1.62,.55,.34,1.23,.51,2.03,.51,.58,0,1.22,.08,1.9,.24,.68,.16,1.32,.42,1.9,.77,.58,.35,1.06,.83,1.44,1.41,.38,.58,.57,1.31,.57,2.17,0,.93-.2,1.67-.61,2.19-.39,.51-1.04,.76-1.92,.76-.32,0-.71-.07-1.14-.22-.43-.15-.85-.37-1.23-.66-.39-.29-.72-.66-1-1.1-.27-.43-.4-.94-.4-1.52,0-.61,.05-1.04,.14-1.28l.07-.19-.65-.06-.04,.11c-.05,.12-.09,.31-.13,.58-.12,.77-.06,1.71,.22,2.63,.19,.6,.47,1.16,.85,1.66,.38,.5,.84,.91,1.38,1.23,.55,.32,1.18,.48,1.87,.48,.57,0,1.08-.14,1.5-.4,.41-.26,.76-.61,1.02-1.02,.26-.41,.45-.87,.57-1.37,.11-.5,.17-1,.17-1.49,0-1.19-.19-2.25-.56-3.15-.37-.9-.88-1.65-1.51-2.24-.63-.59-1.37-1.04-2.18-1.33-.81-.29-1.69-.43-2.59-.43-.57,0-1.04-.02-1.4-.06-.34-.04-.61-.11-.82-.21-.2-.1-.36-.24-.47-.42-.12-.19-.27-.45-.43-.8-.38-.86-.79-1.73-1.22-2.58-.43-.85-.93-1.61-1.48-2.25-.56-.65-1.22-1.18-1.96-1.59-.75-.41-1.65-.61-2.69-.61-.75,0-1.45,.16-2.08,.49-.63,.32-1.18,.8-1.63,1.41Z"/>
    <path class="cls-1" d="M13.57,2628.44l6.55,2.38v10.92l-6.55,2.38v4.16l25.4-9.78v-4.41l-25.4-9.78v4.13Zm21.24,7.79v.14l-11.49,4.2v-8.57l11.49,4.23Z"/>
    <path class="cls-1" d="M28.83,2660.2h3.13v-4.2h5.94l-1.57-3.77h-4.38v-3.41h-3.13v3.41h-10.67c-1.46,0-2.56,.32-3.34,1.03-.82,.71-1.25,1.89-1.25,3.45v3.02h3.13v-2.42c0-.46,.14-.78,.36-1,.25-.21,.6-.32,1.1-.32h10.67v4.2Z"/>
    <polygon class="cls-1" points="16.88 2682.44 16.88 2667.46 24.95 2667.46 24.95 2680.98 28.26 2680.98 28.26 2667.46 35.66 2667.46 35.66 2681.83 38.97 2681.83 38.97 2663.58 13.57 2663.58 13.57 2682.44 16.88 2682.44"/>
    <path class="cls-1" d="M19.23,2720.22l2.27,2.54,.78-.58-2.38-2.67c-8.5-9.55-11.53-18.52-11.53-23.74,0-2.46,.77-5.38,4.46-5.38,1.9,0,4.03,.45,6.32,1.34,1.47,8.34,9.92,21.67,18.19,28.64,3.67,3.09,6.42,4.66,8.16,4.66,1.03,0,2.26-.5,2.26-2.87,0-2.66-1.64-6.58-3.17-9.09-6.03-9.87-15.89-18.75-24.59-22.14-.07-.49-.11-.99-.11-1.52,0-2.31,1.04-4.78,3.96-4.78,2.35,0,6.73,1.57,14.29,9.05l.22,.21,.72-.72-.22-.22c-6.15-6.08-11.34-9.3-15.01-9.3s-4.93,2.97-4.93,5.75c0,.36,.02,.74,.06,1.15-2.18-.75-4.24-1.13-6.15-1.13-3.5,0-5.43,2.26-5.43,6.35,0,5.42,3.11,14.7,11.83,24.45Zm27.57,1.93c0,1.9-.97,1.9-1.29,1.9-.7,0-2.83-.43-7.55-4.44-7.69-6.53-15.99-19.41-17.74-27.44,8.35,3.61,17.76,12.15,23.58,21.43,1.69,2.68,3.01,6.43,3.01,8.55Z"/>
    <rect class="cls-1" x="13.57" y="2728.17" width="25.4" height="3.84"/>
    <polygon class="cls-1" points="12.72 2748.93 37.51 2748.93 37.51 2746.74 18.71 2746.74 18.71 2745.19 22.48 2745.19 22.48 2743.3 26.26 2743.3 26.26 2741.42 30 2741.42 30 2739.53 33.77 2739.53 33.77 2737.68 37.51 2737.68 37.51 2735.42 12.72 2735.42 12.72 2737.68 29.66 2737.68 29.66 2739.23 25.92 2739.23 25.92 2741.08 22.15 2741.08 22.15 2742.97 18.41 2742.97 18.41 2744.85 14.63 2744.85 14.63 2746.74 12.72 2746.74 12.72 2748.93"/>
    <path class="cls-1" d="M34.99,2759.17c-2.31-1.99-5.23-2.95-8.79-2.95s-6.44,.96-8.68,2.95c-2.42,2.13-3.63,5.12-3.63,8.97,0,2.06,.29,3.98,.82,5.73,.53,1.64,1.28,3.09,2.28,4.38h10.07v-10.43h-3.27v6.55h-4.98c-.5-.78-.85-1.64-1.14-2.6-.29-1.03-.43-2.14-.43-3.27,0-2.92,.85-5.05,2.49-6.44,1.49-1.32,3.66-1.96,6.47-1.96s5.16,.68,6.79,2.1c1.57,1.35,2.31,3.17,2.31,5.44,0,1.92-.39,3.41-1.17,4.48-.71,1.07-1.92,1.81-3.63,2.21v3.88c2.7-.43,4.73-1.53,6.08-3.27,1.42-1.78,2.1-4.23,2.1-7.29,0-3.56-1.21-6.37-3.7-8.47Z"/>
    <path class="cls-1" d="M38.65,2755.3c-3.38-3.42-7.47-5.09-12.27-5.09s-8.86,1.67-12.27,5.09c-3.38,3.38-5.09,7.47-5.09,12.27s1.71,8.86,5.09,12.27c3.41,3.38,7.51,5.09,12.27,5.09s8.89-1.71,12.27-5.09,5.09-7.51,5.09-12.27-1.67-8.89-5.09-12.27Zm-12.27,28.03c-4.34,0-8.04-1.53-11.17-4.59-3.06-3.13-4.59-6.83-4.59-11.17s1.53-8.08,4.59-11.17c3.13-3.06,6.83-4.59,11.17-4.59s8.08,1.53,11.17,4.59c3.06,3.09,4.59,6.83,4.59,11.17s-1.53,8.04-4.59,11.17c-3.09,3.06-6.83,4.59-11.17,4.59Z"/>
  </g>
</svg>