<svg xmlns="http://www.w3.org/2000/svg" viewBox="0 0 63.44706 2074.04186"><defs><style>.cls-1{fill:#fffa6f;}</style></defs><g id="font"><path class="cls-1" d="M51.96157,868.45572a17.25219,17.25219,0,0,0,1.84287-8.11063V848.35844H24.67776v11.98665a17.237,17.237,0,0,0,1.84287,8.11063,13.68393,13.68393,0,0,0,5.154,5.48387A14.5865,14.5865,0,0,0,39.24177,875.9a14.58748,14.58748,0,0,0,7.56644-1.96039A13.6869,13.6869,0,0,0,51.96157,868.45572Zm-2.06188-15.79459v7.52505a12.82342,12.82342,0,0,1-1.36746,6.0828,9.96319,9.96319,0,0,1-3.73181,3.95683,10.7248,10.7248,0,0,1-5.55865,1.41153,10.75473,10.75473,0,0,1-5.542-1.41287A9.918,9.918,0,0,1,29.95,866.26965a12.82648,12.82648,0,0,1-1.36613-6.08347v-7.52505Z"/><polygon class="cls-1" points="49.9 879.014 49.9 884.644 28.584 884.644 28.584 879.014 24.678 879.014 24.678 894.498 28.584 894.498 28.584 888.907 49.9 888.907 49.9 894.498 53.804 894.498 53.804 879.014 49.9 879.014"/><path class="cls-1" d="M58.648,948.44624c0-6.37926-14.68353-14.82508-18.84133-16.64858l-.03472-.014c-.8747-1.501-1.63121-2.90319-2.30025-4.264q.21033.019.41732.01936c3.19363,0,6.60628-2.88115,6.60628-10.96641,0-7.82952-4.8589-13.21457-9.58025-14.48454,1.58981-3.10617,4.15781-4.8776,7.09772-4.8776,5.73426,0,11.82908,6.38327,11.82908,18.21235,0,5.05921-.33652,12.388-3.24706,17.59406l-.17493.31315.92877.46206.15892-.28311c3.06076-5.45049,3.41465-12.93213,3.41465-18.08616,0-9.48343-4.82885-19.2927-12.90943-19.2927-3.46339,0-6.444,2.08792-8.21078,5.73894a8.84507,8.84507,0,0,0-1.06633-.07011c-6.621,0-9.02472,8.09927-9.02472,13.54375,0,9.14557,8.20144,14.07992,15.38729,17.355,5.98465,9.92678,13.63656,17.12132,18.217,17.12132A1.24347,1.24347,0,0,0,58.648,948.44624Zm-1.08035,0c0,.27109-.1095.29246-.25239.29246-3.97285,0-10.94771-6.47675-16.48967-15.2257C46.20661,936.23189,57.56763,943.32894,57.56763,948.44624Zm-14.1527-31.87362c0,7.28868-2.85444,9.88606-5.52593,9.88606a4.73813,4.73813,0,0,1-.605-.0414,12.43538,12.43538,0,0,0,2.29558-7.18852c0-7.15447-3.13488-11.88918-6.17228-12.42868a16.90946,16.90946,0,0,1,1.05631-3.70911C38.85316,904.13593,43.41493,909.13638,43.41493,916.57262Zm-7.073,11.03184c.55153,1.14512,1.15914,2.30893,1.81416,3.47475l-.44736-.1923a17.19406,17.19406,0,0,1-2.99-1.68329l.22835-.207A17.899,17.899,0,0,0,36.34192,927.60446ZM33.03744,911.458a27.79,27.79,0,0,1,.209-3.59026c2.2969.40463,5.25284,4.37481,5.25284,11.361a11.10451,11.10451,0,0,1-1.93167,6.35656A35.61971,35.61971,0,0,1,33.03744,911.458Zm-1.08035,0a36.58493,36.58493,0,0,0,3.54619,14.369c-3.4053-1.86357-5.47853-7.67662-5.47853-12.426,0-1.8422.28845-4.87692,2.12932-5.47586A29.00418,29.00418,0,0,0,31.95709,911.458Zm1.40018-8.55465a18.84494,18.84494,0,0,0-1.03828,3.88738c-3.19965.56221-3.93012,6.11819-3.93012,8.07657,0,5.0946,2.56,9.83665,6.37393,11.80238.21967.11017.44936.22167.68439.32049a15.25706,15.25706,0,0,1-1.19586,1.18118l-.233.20832.52148.69709c-5.16938-3.70177-8.87648-10.28-8.87648-16.35012,0-4.90163,2.18673-9.84733,7.07234-9.84733C32.956,902.87931,33.1623,902.88732,33.35727,902.90335Z"/><path class="cls-1" d="M51.68514,967.50257q0,.67705.9882,1.14312l.8333.36723,2.84576,1.29669a21.30528,21.30528,0,0,0,1.29669-7.10573,14.88,14.88,0,0,0-4.81817-11.30827,16.83175,16.83175,0,0,0-11.996-4.53105,11.87442,11.87442,0,0,0-7.8175,2.44781,7.96263,7.96263,0,0,0-2.96061,6.45405,15.09393,15.09393,0,0,0,3.0354,8.61073l-3.35456-.38192q-4.69131-.54285-6.446-1.76943a4.5466,4.5466,0,0,1-1.75474-4.01024,5.805,5.805,0,0,1,3.42667-5.46985L22.68,950.36656a7.69317,7.69317,0,0,0-2.78834,6.32719,10.82242,10.82242,0,0,0,6.92144,9.87,27.9952,27.9952,0,0,0,5.87715,1.14178l7.78411.86267a18.412,18.412,0,0,1,1.87893.34721l1.21923.30982.79457.195v-5.152l-.02-1.955a7.13236,7.13236,0,0,0-.50345-3.24371,5.87473,5.87473,0,0,0-2.47853-1.82952,17.7368,17.7368,0,0,1,.65836,5.363v3.29179l-6.97619-.79457a9.9465,9.9465,0,0,1-2.62809-6.45672,6.81641,6.81641,0,0,1,2.57067-5.66081,11.244,11.244,0,0,1,7.15246-2.03651q6.24573,0,10.02361,2.90853a9.27346,9.27346,0,0,1,3.77921,7.73471,8.1898,8.1898,0,0,1-.96283,4.04229q-.96551,1.73469-2.25551,1.7347a2.51294,2.51294,0,0,1-.98286-.26975A2.13834,2.13834,0,0,0,51.68514,967.50257Z"/><path class="cls-1" d="M50.22353,989.86138l-.03939.64166c-.16092,2.62008-.50679,3.08681-4.47364,3.08681H35.27826c-3.27242,0-4.59114-.18963-5.93857-1.30069a7.30652,7.30652,0,0,1-2.10461-5.51258,6.37516,6.37516,0,0,1,1.59114-4.59983c1.35211-1.38749,2.92122-1.53906,5.93658-1.53906H47.13806c2.55,0,2.793.08279,3.04741,2.98531l.05475.62431h2.06321V971.65437H50.23288l-.04808.63232c-.217,2.85578-.42866,2.93724-2.65012,2.93724H35.2382c-4.4122,0-7.40686,1.14111-9.15224,3.48409a11.51886,11.51886,0,0,0-1.96373,7.15647c0,3.84,1.05231,6.70911,3.12687,8.52527,2.21678,1.95505,4.59048,2.31294,8.46584,2.31294H45.82936c3.64233,0,4.09036.31983,4.35678,3.1095l.05876.619h2.05853V989.86138Z"/><path class="cls-1" d="M53.12738,1016.05682v-12.60629a.57618.57618,0,0,0-.57689-.57689H43.447a.577.577,0,0,0-.5769.57689v2.10061a.82525.82525,0,0,1-.824.82395H36.44274a.5779.5779,0,0,0-.57689.57689v2.10194a.5779.5779,0,0,0,.57689.5769h5.60339a.57791.57791,0,0,0,.5769-.5769V1006.952a.82525.82525,0,0,1,.824-.824h2.1006a.82525.82525,0,0,1,.82395.824v9.10484a.57791.57791,0,0,0,.5769.5769h5.60206A.577.577,0,0,0,53.12738,1016.05682Z"/><path class="cls-1" d="M35.6188,1016.05682v-2.1006a.82524.82524,0,0,1,.82394-.824h5.60339a.57791.57791,0,0,0,.5769-.5769v-2.10194a.57677.57677,0,0,0-.5769-.57556h-5.602a.57677.57677,0,0,0-.5769.57556v2.10194a.82525.82525,0,0,1-.82395.82395H32.94129a.82525.82525,0,0,1-.824-.82395v-9.10484a.5779.5779,0,0,0-.57689-.57689H25.93839a.5779.5779,0,0,0-.5769.57689v12.60629a.57791.57791,0,0,0,.5769.5769H35.0419A.577.577,0,0,0,35.6188,1016.05682Z"/><path class="cls-1" d="M59.68159,1038.92576a19.26307,19.26307,0,0,0-5.86914-14.16605,19.26542,19.26542,0,0,0-14.17139-5.87582,20.0412,20.0412,0,0,0,0,40.0824,20.04989,20.04989,0,0,0,20.04053-20.04053Zm-37.8803,0a17.257,17.257,0,0,1,5.23348-12.60629,17.0394,17.0394,0,0,1,12.60629-5.23482,16.912,16.912,0,0,1,12.60362,5.23215l.00534.00534a19.416,19.416,0,0,1,1.81416,2.05987,2.79684,2.79684,0,0,0-.91076-.31916l-5.08525-1.103a5.44312,5.44312,0,0,0-1.32673-.221.93084.93084,0,0,0-1.00156.92143c0,.47608.38193.88137,1.29068,1.36479a11.00082,11.00082,0,0,1,2.63877,1.61785,3.13284,3.13284,0,0,1,.71245,2.3323v4.43357H30.51752a3.04758,3.04758,0,0,1-.97927-.10274,1.76242,1.76242,0,0,1-.4129-.89882l-.74649-3.639H26.49993l.0434.72447c.10483,1.746.15758,3.5068.15758,5.23415,0,1.91164-.05141,3.649-.15758,5.3116l-.04607.72713h1.87359l.78589-3.56287a1.77131,1.77131,0,0,1,.27776-.69509,2.3934,2.3934,0,0,1,1.04429-.14489h19.903v4.43357a4.07006,4.07006,0,0,1-.47407,2.37169,4.84643,4.84643,0,0,1-2.2208.93078c-1.1992.2998-1.98575.54886-1.98575,1.258,0,.34454.18695.92277,1.42755.92277l5.801.07879a2.10476,2.10476,0,0,0,.44136-.04273q-.52683.62-1.12375,1.21656a17.257,17.257,0,0,1-12.60629,5.23348,17.8683,17.8683,0,0,1-17.83977-17.83977Zm31.35748,9.28712c-.15825-.0681-.45738-.57089-.45738-1.98909v-14.31963c0-.80191.11084-.99154.14689-1.0483a1.82071,1.82071,0,0,1,.7051-.52281l.02-.01069c.52282-.28444.99221-.58424.99221-1.11573a1.01456,1.01456,0,0,0-.01068-.14556,18.02,18.02,0,0,1-.31315,20.1507C54.16767,1048.5474,53.40582,1048.293,53.15877,1048.21288Z"/><path class="cls-1" d="M29.38242,1065.78624a2.85,2.85,0,0,0,0-3.92478,2.72517,2.72517,0,0,0-2.03784-.82261,2.80679,2.80679,0,0,0-2.02181.80659,2.74377,2.74377,0,0,0-.00134,3.95549,2.8085,2.8085,0,0,0,2.02315.80926A2.72328,2.72328,0,0,0,29.38242,1065.78624Z"/><polygon class="cls-1" points="22.18 0 22.18 5.235 36.512 5.235 36.512 22.703 41.263 22.703 41.263 5.235 52.869 5.235 52.869 24.825 57.62 24.825 57.62 0 22.18 0"/><path class="cls-1" d="M54.8816,47.42648a21.521,21.521,0,0,0-1.4835-3.43333,30.7372,30.7372,0,0,0-2.21469-3.54708c-2.81589-3.911-5.35636-5.81213-7.76765-5.81213A3.22578,3.22578,0,0,0,40.65755,35.998a26.73114,26.73114,0,0,0-5.12644-6.80086,10.28444,10.28444,0,0,0-6.887-3.09211A6.342,6.342,0,0,0,24.833,27.28875a7.19517,7.19517,0,0,0-2.4438,3.305,13.2976,13.2976,0,0,0-.797,4.80228,21.77325,21.77325,0,0,0,.78075,5.45223,34.71719,34.71719,0,0,0,2.22037,6.02336l.17874.37778,4.942.99685-.83193-1.55661c-1.08134-2.02377-1.96608-3.84768-2.62984-5.42054a30.42558,30.42558,0,0,1-1.46806-4.25064c-.73525-2.93613-.64019-5.21581.55895-6.69444a3.04481,3.04481,0,0,1,2.49823-1.18858c2.28618,0,4.8364,1.884,7.57836,5.59846a35.60513,35.60513,0,0,1,4.07434,6.97391l.17224.39971,2.93206.59714-.00081-1.38357a8.17509,8.17509,0,0,1,.24373-2.00589,1.62461,1.62461,0,0,1,.58657-.71007,1.36759,1.36759,0,0,1,.81162-.2811,4.86136,4.86136,0,0,1,2.72489,1.20809,15.09249,15.09249,0,0,1,3.23673,3.54463,17.939,17.939,0,0,1,1.86859,3.4,7.55571,7.55571,0,0,1,.66782,2.70133c0,1.1-.42165,1.1-.79293,1.1-.94973,0-2.74358-.60038-5.89663-3.46014l-.56139-.50858-2.55509,2.33655.59145.615a18.009,18.009,0,0,0,2.8167,2.3723,15.1248,15.1248,0,0,0,3.019,1.62974,7.64954,7.64954,0,0,0,2.72733.5882,3.23686,3.23686,0,0,0,2.42511-.94974C55.61116,51.76243,55.66153,49.86946,54.8816,47.42648Z"/><path class="cls-1" d="M59.79274,65.03186a12.15531,12.15531,0,0,0-.62151-3.80624,10.214,10.214,0,0,0-1.685-3.22778l-.472-.589L54.33483,59.158l.61582.71981a6.49455,6.49455,0,0,1,1.19346,2.18382,9.081,9.081,0,0,1,.43953,2.87275,4.40524,4.40524,0,0,1-.80593,2.92557,3.08772,3.08772,0,0,1-2.46329.875h-.27785V64.16256c0-2.447-.45984-4.171-1.40714-5.27105a4.55693,4.55693,0,0,0-3.57469-1.68823,4.62854,4.62854,0,0,0-3.78756,1.83447,7.62142,7.62142,0,0,0-1.386,4.83559,8.49079,8.49079,0,0,0,1.05941,4.40906,7.13358,7.13358,0,0,0,.39971.59714H43.02579v3.44958H53.26567A6.11612,6.11612,0,0,0,58.16788,70.372,8.00444,8.00444,0,0,0,59.79274,65.03186ZM45.944,64.25843a4.876,4.876,0,0,1,.64507-2.77851A1.71449,1.71449,0,0,1,48.10348,60.7a1.64932,1.64932,0,0,1,1.39089.71332,4.88421,4.88421,0,0,1,.62394,2.94262v4.379H48.3854a4.13006,4.13006,0,0,1-1.76785-1.58181A5.51514,5.51514,0,0,1,45.944,64.25843Z"/><path class="cls-1" d="M48.87611,130.747a19.36,19.36,0,0,0-.05687-4.8169,10.46251,10.46251,0,0,0,1.27957.08287c3.51377,0,6.00874-1.69311,7.05678-4.77629,3.946-.43871,6.29147-3.2944,6.29147-7.69128,0-6.96335-6.30853-17.56883-18.15378-19.37l-.39321-.06012-.24211,1.217.43059.065c11.175,1.69554,17.12686,11.62914,17.12686,18.14809,0,3.55926-1.70854,5.85763-4.71291,6.39139a12.76851,12.76851,0,0,0,.23642-2.48035c0-8.31361-7.56374-16.14138-13.42624-16.14138-3.02793,0-4.40663,2.88494-4.40663,5.56515,0,7.05028,10.05871,14.2143,15.88791,14.419a5.7842,5.7842,0,0,1-5.69515,3.48371,9.16369,9.16369,0,0,1-1.48431-.12349c-1.28039-6.07049-5.46522-10.2602-10.08633-14.30692a2.2248,2.2248,0,0,0,1.01229-1.67685c0-.65239-.4639-1.41363-1.77273-1.41363a2.568,2.568,0,0,0-1.80116.86361c-4.88352-4.27826-11.15386-10.781-11.15386-18.68673,0-6.4832,2.40886-10.20088,6.60831-10.20088,4.90627,0,10.20089,5.45628,10.20089,14.27116,0,4.61623-1.97259,6.56444-4.01341,6.91054a18.89842,18.89842,0,0,0,1.13253-6.311c0-6.50514-3.89236-11.55115-7.24039-11.55115-3.02874,0-4.28639,4.2482-4.28639,6.5222,0,5.5944,4.695,11.50483,8.58821,12.48138a25.50332,25.50332,0,0,1-1.58343,2.98487l-.19985.32416.98466.73444.24048-.37778a24.35578,24.35578,0,0,0,1.854-3.52108c2.69321-.08774,5.75364-2.26912,5.75364-8.19662,0-9.5745-5.93319-15.50119-11.43091-15.50119-4.26526,0-8.67676,4.81285-8.67676,12.86729,0,8.58171,4.75353,12.25309,9.78573,16.13894.89449.69057,1.8166,1.40307,2.72246,2.15051a4.46315,4.46315,0,0,0-.17955.4574c-.93592-.20636-1.767-.42653-2.66152-.66782-2.35687-.66538-7.26233-2.05139-11.28711-2.05139a8.65234,8.65234,0,0,0-8.758,8.71739c0,3.46908,2.22038,7.51986,8.47853,7.51986a13.11106,13.11106,0,0,0,13.0184-10.26588l.08937-.41272-1.21865-.24291-.08368.40378a11.81092,11.81092,0,0,1-11.80544,9.28608c-5.349,0-7.24688-3.387-7.24688-6.28821a7.43337,7.43337,0,0,1,7.52636-7.48737,41.61425,41.61425,0,0,1,10.36662,1.86209c1.096.3006,2.22525.61095,3.35778.85062-.00731.12268-.01219.251-.01219.38428,0,7.31757,6.54739,13.15082,12.72186,14.47833a19.22958,19.22958,0,0,1,.09262,4.95583l-.04631.4574h1.23408Zm-11.10838-22.2533c.30873,0,.54108.078.54108.182,0,.2356-.2551.589-.73281.84574l-.69788-.60689A1.38017,1.38017,0,0,1,37.76773,108.49368Zm-.43465,2.4048c4.50493,3.85255,8.62721,7.81071,9.96772,13.50829C41.782,122.97689,36.06813,117.70259,36.06813,111.23c0-.06581.00081-.12918,0-.18848.06418.00406.12511.00649.182.00649A3.99116,3.99116,0,0,0,37.33308,110.89848Zm4.40257-5.13619c0-1.46725.44683-3.2156,2.577-3.2156,6.16635,0,12.19622,8.537,12.19622,14.90973a10.50136,10.50136,0,0,1-.30548,2.61522c-.05281.00081-.10561.00081-.15761.00081C50.99168,120.07245,41.73565,111.65891,41.73565,105.76229ZM37.511,94.10878a17.7101,17.7101,0,0,1-1.21946,6.25815c-2.92151-.89123-7.08847-7.38906-7.08847-12.444,0-.42327.06419-4.13527,2.29756-4.13527C33.89325,83.78765,37.511,87.90424,37.511,94.10878Z"/><path class="cls-1" d="M27.10214,125.78384a3.20413,3.20413,0,0,0-1.12278-1.00091,3.23842,3.23842,0,0,0-1.57612-.3851,2.2806,2.2806,0,0,0-2.48279,2.48117,2.689,2.689,0,0,0,.94892,2.04407,3.14866,3.14866,0,0,0,2.16919.81406,2.5227,2.5227,0,0,0,1.79954-.67675A2.59021,2.59021,0,0,0,27.10214,125.78384Z"/><path class="cls-1" d="M40.234,450.67205a16.85829,16.85829,0,0,0,1.3064-3.27326q.49014-1.71832.90647-3.45557a28.38588,28.38588,0,0,1,.91468-3.09537,5.27078,5.27078,0,0,1,1.29631-2.07284,2.82267,2.82267,0,0,1,2.03057-.70524,3.5208,3.5208,0,0,1,2.05265.61756,4.34243,4.34243,0,0,1,1.4723,1.98137,11.62855,11.62855,0,0,1,.08642,7.12876,11.82308,11.82308,0,0,1-1.56377,3.39312l-.43273.6491,3.4133,1.44518.299-.43274a13.31084,13.31084,0,0,0,1.794-3.93624,16.66658,16.66658,0,0,0,.64279-4.56074,13.71067,13.71067,0,0,0-1.05282-5.74225,7.85,7.85,0,0,0-2.862-3.43916A7.22558,7.22558,0,0,0,46.614,434.044a6.56688,6.56688,0,0,0-3.75457.99163,7.224,7.224,0,0,0-2.28289,2.54783,15.25,15.25,0,0,0-1.31145,3.30607q-.47026,1.73157-.88566,3.465a25.02552,25.02552,0,0,1-.93044,3.067,5.46384,5.46384,0,0,1-1.31839,2.06463,2.82269,2.82269,0,0,1-2.03057.70525,3.31241,3.31241,0,0,1-1.95361-.61567,4.2784,4.2784,0,0,1-1.43572-1.994,10.47537,10.47537,0,0,1-.57214-3.788,12.792,12.792,0,0,1,.8724-4.69069,10.46058,10.46058,0,0,1,2.129-3.513l.61189-.62891-3.33067-1.69372-.33118.323a11.37711,11.37711,0,0,0-2.61091,4.38475,17.24463,17.24463,0,0,0-.99289,5.81857,13.94,13.94,0,0,0,1.05219,5.79586,7.97654,7.97654,0,0,0,2.85882,3.47639,7.0889,7.0889,0,0,0,3.89082,1.15122,6.407,6.407,0,0,0,3.70158-.99541A7.13025,7.13025,0,0,0,40.234,450.67205Z"/><path class="cls-1" d="M32.92673,477.6719a9.83968,9.83968,0,0,1-2.03436-3.65932,15.94573,15.94573,0,0,1-.75381-4.96887c0-2.57181.43841-4.48694,1.30262-5.69242a3.72537,3.72537,0,0,1,3.18368-1.71579,3.47123,3.47123,0,0,1,2.30561.733,4.61915,4.61915,0,0,1,1.3903,2.15989,10.90151,10.90151,0,0,1,.4914,3.42907v7.277h3.689v-7.16472a6.489,6.489,0,0,1,1.06544-4.00753,3.408,3.408,0,0,1,2.8973-1.30261,3.67065,3.67065,0,0,1,3.04491,1.61676,8.67742,8.67742,0,0,1,1.29253,5.23,15.79069,15.79069,0,0,1-.4504,3.79746,12.91394,12.91394,0,0,1-1.40986,3.44232l-.38416.65352,3.41961,1.33353.2826-.45986a14.12713,14.12713,0,0,0,1.63253-4.08259,20.43442,20.43442,0,0,0,.56079-4.79667,15.00122,15.00122,0,0,0-1.02632-5.893,8.29667,8.29667,0,0,0-2.83107-3.66815,6.82615,6.82615,0,0,0-3.94444-1.23827,7.11248,7.11248,0,0,0-3.66247.95126,6.54176,6.54176,0,0,0-2.16935,2.07851,7.57145,7.57145,0,0,0-2.38383-2.94209,6.595,6.595,0,0,0-3.9968-1.21178,6.89346,6.89346,0,0,0-4.14693,1.34173,8.56359,8.56359,0,0,0-2.82349,3.86117,16.88551,16.88551,0,0,0-.98154,6.158,20.519,20.519,0,0,0,.87177,6.1119,11.472,11.472,0,0,0,2.52891,4.562l.32929.34505,3.29471-1.64641Z"/><path class="cls-1" d="M53.58845,501.302v-5.29248a.54489.54489,0,0,0-.54375-.545H44.443a.77965.77965,0,0,1-.77842-.77842v-5.29374a.77964.77964,0,0,1,.77842-.77841h8.6017a.54489.54489,0,0,0,.54375-.545v-5.29374a.54381.54381,0,0,0-.54375-.54376H44.443a.54516.54516,0,0,0-.545.545v5.29248a.77964.77964,0,0,1-.77842.77841H41.13378a.546.546,0,0,0-.545.545v5.29374a.546.546,0,0,0,.545.545h1.98578a.77965.77965,0,0,1,.77842.77842V501.302a.546.546,0,0,0,.545.545h8.6017A.54489.54489,0,0,0,53.58845,501.302Z"/><path class="cls-1" d="M37.0474,501.302v-5.29248a.77965.77965,0,0,1,.77842-.77842H39.8116a.546.546,0,0,0,.545-.545v-5.29374a.546.546,0,0,0-.545-.545H37.82582a.77964.77964,0,0,1-.77842-.77841V482.7764a.54435.54435,0,0,0-.545-.545H27.902a.54516.54516,0,0,0-.54628.54376v5.29374a.54624.54624,0,0,0,.54628.545h8.60043a.77964.77964,0,0,1,.77842.77841v5.29374a.77965.77965,0,0,1-.77842.77842H27.902a.54623.54623,0,0,0-.54628.545V501.302a.54624.54624,0,0,0,.54628.545h8.60043A.54516.54516,0,0,0,37.0474,501.302Z"/><path class="cls-1" d="M35.7164,519.80736a8.31606,8.31606,0,0,1-4.75629-1.05219,3.79031,3.79031,0,0,1-1.46348-3.30165q0-4.48127,6.18444-4.48252H53.1696v-3.00013H35.406q-8.54239,0-8.54366,7.48265,0,3.71294,2.06778,5.53345,2.06653,1.82051,6.54905,1.82051H53.1696v-3.00012Z"/><path class="cls-1" d="M54.6341,538.89182a6.452,6.452,0,0,0,1.31712-4.31851,9.8901,9.8901,0,0,0-.48067-3.04743,8.49838,8.49838,0,0,0-1.3001-2.55351l-.35073-.45734-2.44438,1.46663.46806.57782a5.43576,5.43576,0,0,1,.90206,1.69309,6.62663,6.62663,0,0,1,.34063,2.134,3.34,3.34,0,0,1-.57719,2.16746,2.161,2.161,0,0,1-1.72778.63333v-3.28777a6.623,6.623,0,0,0-1.05345-4.12486,3.79229,3.79229,0,0,0-5.94537.01767,6.06647,6.06647,0,0,0-1.07426,3.80692,6.98142,6.98142,0,0,0,.58539,2.97048,5.56191,5.56191,0,0,0,.4321.76769h-.90521v3.12755H50.66a4.98136,4.98136,0,0,0,3.97346-1.57261Zm-7.75768-7.38171a.987.987,0,0,1,.88565.4996,3.87573,3.87573,0,0,1,.41634,2.11447v3.0632h-1.1159a3.2156,3.2156,0,0,1-1.67606-3.17549,3.50542,3.50542,0,0,1,.44913-1.95929A1.15071,1.15071,0,0,1,46.87642,531.51011Z"/><path class="cls-1" d="M52.00678,564.297a3.88459,3.88459,0,0,0,.01956-3.812,6.982,6.982,0,0,0-1.32723-1.79717A9.7023,9.7023,0,0,0,48.76,557.1985a13.54871,13.54871,0,0,0-2.68976-1.18339c-1.0093-.32991-2.42231-.68948-4.20056-1.06922l-6.11253-1.3001a28.18488,28.18488,0,0,1-2.82286-.70461,9.82264,9.82264,0,0,1-1.43194-.59359c.991-3.64481.98848-6.77993.03028-8.61242a2.53335,2.53335,0,0,0-4.61184-.16969,6.23885,6.23885,0,0,0-.73993,3.21271,9.14473,9.14473,0,0,0,.63774,3.30606,8.75839,8.75839,0,0,0,1.55747,2.60776q-.30374,1.0626-.64721,2.14033-.49866,1.57165-.76706,2.56108c-.18168.66929-.33433,1.34236-.46112,2.0249a14.107,14.107,0,0,0-.24665,2.28731,6.1668,6.1668,0,0,0,.1003,1.04146l.058.34127,3.21145,1.425-.22394-1.2061a10.10387,10.10387,0,0,1-.18987-1.82114,12.35946,12.35946,0,0,1,.37659-2.75159c.23971-1.02.63144-2.36237,1.16636-3.99932a10.8655,10.8655,0,0,0,1.96623,1.00551,27.21668,27.21668,0,0,0,3.99743,1.12725l7.62458,1.62685c1.25152.27378,2.15989.49708,2.70049.66235a10.248,10.248,0,0,1,1.53539.61756c1.43635.72985,2.13465,1.57072,2.13465,2.57055a.943.943,0,0,1-.33748.82762,2.0588,2.0588,0,0,1-1.26729.32045,9.26032,9.26032,0,0,1-2.616-.4832,16.71163,16.71163,0,0,1-2.96732-1.23386l-1.13608-.61126.49834,3.325.31918.14509a15.595,15.595,0,0,0,2.74907.93675,10.90715,10.90715,0,0,0,2.51314.36524,5.14081,5.14081,0,0,0,2.05958-.39173A3.22267,3.22267,0,0,0,52.00678,564.297ZM29.07943,550.34856a6.1363,6.1363,0,0,1-.63459-1.13672,5.73381,5.73381,0,0,1-.06939-4.50964c.21321-.40309.43652-.60747.66424-.60747.66109,0,.79986,1.15122.79986,2.117A16.53449,16.53449,0,0,1,29.07943,550.34856Z"/><path class="cls-1" d="M51.19935,588.47018a17.71412,17.71412,0,0,0-3.67257-3.54451q-.86862-.64531-1.80222-1.21556.31037.02649.64153.05425c1.80159.147,3.1307.22141,3.94949.22141h1.51647L50.32,580.66646l-.43337.017c-.28512.01072-.61125.017-.98027.017a44.14056,44.14056,0,0,1-5.30888-.352c-1.9145-.234-3.7817-.54754-5.54922-.933l-11.33751-2.45573v3.06l6.88716,1.49691-.06939.34316a6.4045,6.4045,0,0,0-.1413,1.24269,9.45365,9.45365,0,0,0,1.26035,4.56326,15.35908,15.35908,0,0,0,3.36852,4.12612,17.46393,17.46393,0,0,0,4.6541,2.95344,12.91876,12.91876,0,0,0,5.102,1.09445,5.58572,5.58572,0,0,0,3.45556-.99983C53.0249,593.47565,53.15422,591.1,51.19935,588.47018Zm-16.17077-6.64241,1.27928.27819a36.28672,36.28672,0,0,1,4.83451,1.39093,19.82676,19.82676,0,0,1,3.8309,1.924,18.539,18.539,0,0,1,3.95075,3.2474,4.39986,4.39986,0,0,1,1.34867,2.61217.98147.98147,0,0,1-.55007.90143,4.03017,4.03017,0,0,1-2.06022.42832,14.5551,14.5551,0,0,1-4.18982-.75823,16.22373,16.22373,0,0,1-4.0725-1.82619,9.20793,9.20793,0,0,1-2.679-2.55225,4.799,4.799,0,0,1-.64595-4.31662l.14446-.44094Z"/><polygon class="cls-1" points="52.614 601.276 52.614 597.997 27.357 597.997 27.357 612.076 30.11 612.076 30.11 601.276 52.614 601.276"/><path class="cls-1" d="M31.83543,617.5006a28.03031,28.03031,0,0,1,8.97388-1.389,27.45635,27.45635,0,0,1,9.01172,1.389,19.05405,19.05405,0,0,1,7.00134,3.98545l.45607.42138,1.3001-1.3001-.43967-.45607a20.36153,20.36153,0,0,0-7.68956-4.91337,26.19928,26.19928,0,0,0-9.64-1.76815,26.54331,26.54331,0,0,0-9.63434,1.76689,20.59011,20.59011,0,0,0-7.61953,4.91463l-.43967.45607,1.3001,1.3001.45607-.42138A19.18016,19.18016,0,0,1,31.83543,617.5006Z"/><path class="cls-1" d="M50.44679,649.56962a20.6049,20.6049,0,0,0,7.69208-4.914l.43967-.45608-1.295-1.29568-.45607.41192a19.77645,19.77645,0,0,1-7.00134,3.9886,29.79991,29.79991,0,0,1-17.98813.00252,19.91553,19.91553,0,0,1-6.97106-3.99112l-.45607-.41129-1.295,1.29505.43967.45608a21.1559,21.1559,0,0,0,7.62143,4.91589,27.36153,27.36153,0,0,0,9.63244,1.76563,26.9918,26.9918,0,0,0,9.6337-1.76563Z"/><path class="cls-1" d="M29.09142,643.242a27.67881,27.67881,0,0,1,5.93085.95252l.81248.217v-1.97l-.42705-.15392a11.32635,11.32635,0,0,1-3.58426-1.79654,4.45943,4.45943,0,0,1-1.04777-3.25371v-8.31909a1.66793,1.66793,0,0,1,.18041-.93612c.00127-.00126.10283-.10345.6346-.10345h8.46039v7.29845a2.03138,2.03138,0,0,1-.2826,1.167,1.0347,1.0347,0,0,1-.66676.4586l-3.32247.91845v1.64831l.66929-.02461q3.132-.11259,4.36078-.11165c.44535,0,1.1487,0,2.11636.036l1.15942.04163c.54944.02019.94748.0347,1.184.0347h.64595v-1.93911l-2.47529-.42958a2.02467,2.02467,0,0,1-.95252-.40372,3.16488,3.16488,0,0,1-.24476-1.396v-7.29845h7.711c.92855,0,.92855.33306.92855.627v8.39479a2.121,2.121,0,0,1-.37975,1.32912,2.28148,2.28148,0,0,1-1.09256.80806l-2.6128,1.06291v1.60919l.68568-.04289c1.17835-.07317,1.91451-.07317,2.2829-.07317.62765,0,1.55179.03784,2.73455.111l.70209.04352-.0164-.70335c-.0757-3.166-.11355-6.03494-.11355-8.52852,0-2.88153.03785-6.42037.11355-10.51873l.012-.65793h-1.782l-.45544,3.2392c-.01325.12553-.05362.5078-1.08121.5078H31.25383c-.31352,0-.44977-.0574-.43715-.012a2.15526,2.15526,0,0,1-.23151-.83329l-.32361-3.05185H28.4625l.00946.65541c.07444,4.98023.11229,8.53735.11229,10.708,0,5.0042-.03785,8.374-.11166,10.01471l-.029.64784Z"/><path class="cls-1" d="M59.81051,704.98233l-.388-1.109c-1.47609-4.22263-10.76726-12.34807-16.31837-17.20277-.60306-.52672-1.15438-1.00929-1.63884-1.43635-6.06522-5.33916-13.14857-14.64863-13.14857-23.31593,0-4.46233,2.13718-9.26531,6.83039-9.26531,5.14929,0,12.5985,6.60709,12.5985,18.55333,0,4.84019-1.72778,7.72992-4.6213,7.72992-.09273,0-.18293-.00378-.27062-.01072a22.13632,22.13632,0,0,0,1.38084-7.56907c0-7.89708-4.72538-14.25626-8.63828-14.25626-3.15467,0-4.32987,4.67807-4.32987,7.62647,0,7.03225,5.4117,13.69358,10.22162,15.00125a26.72356,26.72356,0,0,1-1.19412,2.52512l-.15708.29207.8762.4403.14887-.27693a28.93475,28.93475,0,0,0,1.32343-2.78943,5.06274,5.06274,0,0,0,.639.03785c3.53253,0,5.642-3.32688,5.642-8.89944,0-7.93935-4.84965-19.4251-13.61915-19.4251-6.89158,0-8.71272,8.198-8.71272,12.53289,0,8.91016,7.27385,16.05154,14.3881,21.86128,4.29833,3.5319,12.46792,10.69473,15.93485,15.1558-2.63867-1.98137-8.39291-6.286-15.82824-11.75069-.83267-4.45666-4.23966-6.7875-7.20509-6.7875a4.5122,4.5122,0,0,0-1.72084.30784l-4.93166-3.57669v2.387l.15328.09462c1.14618.70777,2.28794,1.43257,3.39943,2.15737a4.31415,4.31415,0,0,0-.70651,2.54846c0,3.27957,2.24883,6.18255,3.93877,8.07939l1.84511,2.09681.8169-.61378-1.87792-2.13528c-1.6054-1.82809-3.74006-4.58724-3.74006-7.42714a3.1874,3.1874,0,0,1,.57719-2.01228c2.95723,1.91009,5.82741,3.8145,8.538,5.66277a11.14409,11.14409,0,0,1,.08957,1.44392v.323H41.126v-.323c0-.23719-.00883-.4668-.02334-.69831,11.14386,7.6946,17.74148,13.21228,17.80771,13.26779Zm-24.2142-46.86147c3.06762,0,7.61764,5.55742,7.61764,13.23561a21.89848,21.89848,0,0,1-1.33669,7.354c-4.04032-1.372-8.9909-8.49572-8.9909-14.95646C32.88636,661.65023,33.23835,658.12086,35.59631,658.12086ZM33.72407,683.6648a6.46364,6.46364,0,0,1,5.917,4.83325c-2.0741-1.51835-4.27373-3.12313-6.56608-4.78342A4.17212,4.17212,0,0,1,33.72407,683.6648Z"/><path class="cls-1" d="M37.0474,716.99039v-1.98452a.77965.77965,0,0,1,.77842-.77842h5.29374a.546.546,0,0,0,.545-.545v-1.98578a.54489.54489,0,0,0-.545-.54376H37.82708a.5449.5449,0,0,0-.545.54376v1.98578a.77964.77964,0,0,1-.77841.77842H34.51786a.77964.77964,0,0,1-.77841-.77842v-8.6017a.546.546,0,0,0-.545-.545H27.902a.546.546,0,0,0-.545.545v11.90966a.546.546,0,0,0,.545.545h8.60043A.54516.54516,0,0,0,37.0474,716.99039Z"/><path class="cls-1" d="M53.58845,716.99039V705.08073a.54515.54515,0,0,0-.545-.545H44.443a.546.546,0,0,0-.545.545v1.98453a.77964.77964,0,0,1-.77842.77841H37.82582a.546.546,0,0,0-.545.545v1.98579a.546.546,0,0,0,.545.545h5.29374a.546.546,0,0,0,.545-.545v-1.98579a.77965.77965,0,0,1,.77842-.77842h1.98452a.77965.77965,0,0,1,.77842.77842v8.6017a.546.546,0,0,0,.545.545h5.29248A.54516.54516,0,0,0,53.58845,716.99039Z"/><path class="cls-1" d="M38.146,738.39371a18.52769,18.52769,0,0,1-2.9301-.25359,8.58976,8.58976,0,0,1-2.78817-.95882,5.71874,5.71874,0,0,1-2.05391-1.95551,7.55952,7.55952,0,0,1-.00063-6.75974,5.72249,5.72249,0,0,1,2.05391-1.9555,8.5998,8.5998,0,0,1,2.78817-.95883,18.5415,18.5415,0,0,1,2.93073-.25359H54.52812v-3.76466H37.51018a17.45035,17.45035,0,0,0-4.24029.50717,10.01068,10.01068,0,0,0-3.682,1.74229,8.85661,8.85661,0,0,0-2.58757,3.22974,12.59219,12.59219,0,0,0,0,9.6665,8.85652,8.85652,0,0,0,2.58757,3.22974,10.05688,10.05688,0,0,0,3.682,1.74355,17.53529,17.53529,0,0,0,4.24029.50591H54.52812v-3.76466Z"/><path class="cls-1" d="M28.70307,810.11532V803.16c3.173-.06435,6.50742-.06435,10.1926-.06435v4.55191l-3.10862.352v1.34615h7.629v-1.34615l-3.14142-.352v-4.55191c3.42907,0,6.602,0,9.71192.06435v6.37873l-4.42323.67244V812.038l5.76937-.32045V797.64677h-1.2818l-.16022,2.21162c-3.20577.09588-6.44308.09588-9.68039.09588H38.51088c-.54131,0-1.08412-.00355-1.62662-.004l.11055-.083-2.73266-3.07078c-8.01946-9.02055-13.00159-21.36294-13.00159-32.21158,0-10.92307,4.95311-17.44437,13.2495-17.44437,11.65039,0,25.72183,15.24916,25.72183,34.186,0,8.25349-3.05438,12.98707-8.37966,12.98707a12.00118,12.00118,0,0,1-4.71907-1.06859,24.4481,24.4481,0,0,0,3.19252-12.1809c0-9.89359-6.20274-16.78833-11.76962-16.78833-3.02851,0-6.26519,2.2747-6.26519,8.661,0,9.72454,6.34846,17.568,12.4736,20.987a27.11005,27.11005,0,0,1-2.52891,3.22217l-.47878.52483,1.33668,1.00425.39552-.434a27.832,27.832,0,0,0,2.77934-3.56532,13.906,13.906,0,0,0,5.58391,1.30451c3.02031,0,10.04625-1.42815,10.04625-14.65367,0-19.86037-14.983-35.85261-27.38842-35.85261-9.20034,0-14.91609,7.32242-14.91609,19.111,0,11.27885,5.16506,24.0729,13.47911,33.38993l1.7605,1.97041c-2.01693-.00852-4.02834-.0272-6.00182-.08681l-.16023-2.21162h-1.3146v14.68017l5.73783.32045V810.789Zm5.2544-37.17856c0-4.37907,1.71895-6.9944,4.59859-6.9944,4.21884,0,10.103,5.753,10.103,15.12173a22.87013,22.87013,0,0,1-3.02725,11.44412C39.90851,789.36048,33.95747,782.04941,33.95747,772.93676Z"/><path class="cls-1" d="M31.15542,819.5888a2.69254,2.69254,0,0,0,0-3.70789,2.5722,2.5722,0,0,0-1.92523-.77715,2.64911,2.64911,0,0,0-1.91008.762,2.59217,2.59217,0,0,0-.00127,3.73691,2.65329,2.65329,0,0,0,1.91135.76454A2.57515,2.57515,0,0,0,31.15542,819.5888Z"/><path class="cls-1" d="M53.62982,181.86a19.22511,19.22511,0,0,0,2.05361-9.03813V159.46446H23.22593v13.35742A19.2081,19.2081,0,0,0,25.27954,181.86a15.24887,15.24887,0,0,0,5.74342,6.111,16.25454,16.25454,0,0,0,8.43247,2.18457,16.25566,16.25566,0,0,0,8.43172-2.18457A15.25213,15.25213,0,0,0,53.62982,181.86ZM51.33216,164.2592v8.38559a14.28987,14.28987,0,0,1-1.52384,6.77841,11.10276,11.10276,0,0,1-4.15857,4.40932,11.95124,11.95124,0,0,1-6.19432,1.573,11.98464,11.98464,0,0,1-6.17572-1.57444,11.05225,11.05225,0,0,1-4.17866-4.40709,14.29316,14.29316,0,0,1-1.52235-6.77915V164.2592Z"/><polygon class="cls-1" points="51.332 193.626 51.332 199.9 27.579 199.9 27.579 193.626 23.226 193.626 23.226 210.881 27.579 210.881 27.579 204.65 51.332 204.65 51.332 210.881 55.683 210.881 55.683 193.626 51.332 193.626"/><path class="cls-1" d="M61.08087,270.998c0-7.10878-16.36269-16.52043-20.996-18.55246l-.03869-.01563c-.97472-1.67265-1.81774-3.23518-2.56329-4.75158q.23438.02119.465.02158c3.55885,0,7.36175-3.21064,7.36175-12.22049,0-8.72488-5.41454-14.72575-10.67581-16.141,1.77161-3.46138,4.63328-5.43538,7.90939-5.43538,6.39,0,13.18181,7.11324,13.18181,20.295,0,5.63777-.375,13.8046-3.61837,19.60606l-.19495.349,1.035.51489.17709-.31548c3.41078-6.07378,3.80514-14.411,3.80514-20.15443,0-10.56792-5.38107-21.49895-14.38571-21.49895-3.85946,0-7.18095,2.32669-9.14974,6.39522a9.8575,9.8575,0,0,0-1.18827-.07812c-7.37813,0-10.05675,9.02548-10.05675,15.09257,0,10.19142,9.13932,15.69005,17.14692,19.33967,6.669,11.062,15.196,19.07926,20.30027,19.07926A1.38566,1.38566,0,0,0,61.08087,270.998Zm-1.2039,0c0,.30209-.122.3259-.28125.3259-4.42718,0-12.19966-7.21741-18.37538-16.96687C47.21674,257.38684,59.877,265.29548,59.877,270.998ZM44.10582,235.4794c0,8.12219-3.18087,11.01659-6.15786,11.01659a5.28091,5.28091,0,0,1-.67413-.04613,13.85751,13.85751,0,0,0,2.55809-8.01058c0-7.97263-3.49337-13.24878-6.87811-13.85a18.84254,18.84254,0,0,1,1.1771-4.13327C39.02238,221.62049,44.10582,227.19277,44.10582,235.4794ZM36.224,247.7728c.6146,1.27607,1.29169,2.573,2.02162,3.87211l-.49852-.21429a19.1607,19.1607,0,0,1-3.33191-1.87579l.25446-.23066A19.9448,19.9448,0,0,0,36.224,247.7728ZM32.5416,229.77988a30.96728,30.96728,0,0,1,.23289-4.00083c2.55957.45091,5.85354,4.8751,5.85354,12.66023a12.37434,12.37434,0,0,1-2.15257,7.08348C33.90025,239.79422,32.5416,234.36256,32.5416,229.77988Zm-1.2039,0c0,4.66378,1.36387,10.1825,3.95172,16.01223-3.79472-2.07668-6.105-8.55449-6.105-13.847,0-2.05287.32144-5.43463,2.37282-6.10206A32.32293,32.32293,0,0,0,31.3377,229.77988ZM32.898,220.247a21,21,0,0,0-1.157,4.33192c-3.56554.62651-4.37955,6.81786-4.37955,9.00019,0,5.6772,2.85274,10.96154,7.10282,13.15206.2448.12277.50076.247.76267.35715a17.00183,17.00183,0,0,1-1.33262,1.31624l-.25968.23215.58112.7768c-5.76054-4.12508-9.89157-11.45559-9.89157-18.21986,0-5.46217,2.4368-10.97344,7.88111-10.97344C32.45082,220.22016,32.68074,220.22909,32.898,220.247Z"/><path class="cls-1" d="M53.32178,292.23353q0,.75447,1.10121,1.27383l.92859.40924,3.1712,1.445a23.74186,23.74186,0,0,0,1.445-7.91832,16.58156,16.58156,0,0,0-5.36916-12.60144,18.75657,18.75657,0,0,0-13.36783-5.04921,13.23239,13.23239,0,0,0-8.71149,2.72773,8.87322,8.87322,0,0,0-3.29917,7.19211,16.82,16.82,0,0,0,3.38251,9.59543l-3.73817-.4256q-5.22779-.60492-7.18318-1.97177a5.06656,5.06656,0,0,1-1.9554-4.46884,6.46878,6.46878,0,0,1,3.81853-6.09536l-2.5447-3.2084a8.57293,8.57293,0,0,0-3.1072,7.05074,11.27357,11.27357,0,0,0,3.71138,8.454,11.18661,11.18661,0,0,0,4.00157,2.5447,31.19622,31.19622,0,0,0,6.54924,1.27234l8.67429.96133a20.51856,20.51856,0,0,1,2.09379.38692l1.35866.34524.88543.21727v-5.74119l-.02232-2.17862a7.948,7.948,0,0,0-.561-3.61465,6.5466,6.5466,0,0,0-2.762-2.03874,19.76526,19.76526,0,0,1,.73364,5.97632v3.66823l-7.774-.88544a11.08393,11.08393,0,0,1-2.92863-7.19509,7.596,7.596,0,0,1,2.86464-6.30816q2.86614-2.27013,7.9704-2.26939,6.96,0,11.16987,3.24114a10.3339,10.3339,0,0,1,4.2114,8.61922,9.12625,9.12625,0,0,1-1.07294,4.50455q-1.07592,1.93306-2.51344,1.93308a2.80025,2.80025,0,0,1-1.09526-.3006A2.38282,2.38282,0,0,0,53.32178,292.23353Z"/><path class="cls-1" d="M51.693,317.14921l-.0439.71505c-.17932,2.9197-.56475,3.4398-4.98522,3.4398H35.03867c-3.64665,0-5.11618-.21131-6.61769-1.44943a8.14208,8.14208,0,0,1-2.34529-6.143,7.10415,7.10415,0,0,1,1.7731-5.12584c1.50673-1.54617,3.25528-1.71507,6.61546-1.71507H48.25471c2.84158,0,3.11242.09226,3.3959,3.32671l.061.69569h2.29915v-14.033H51.70344l-.05357.70463c-.24182,3.18235-.47769,3.27313-2.95318,3.27313H34.994c-4.91677,0-8.25389,1.2716-10.19887,3.88252-1.4725,1.948-2.18829,4.55664-2.18829,7.97486,0,4.27911,1.17264,7.47635,3.48445,9.5002,2.47028,2.17861,5.11543,2.57743,9.434,2.57743H46.79635c4.05886,0,4.55813.35641,4.855,3.4651l.06548.68975h2.29394V317.14921Z"/><path class="cls-1" d="M54.929,346.34028v-14.0479a.64209.64209,0,0,0-.64288-.64287H44.14153a.643.643,0,0,0-.64287.64287v2.34082a.91962.91962,0,0,1-.91817.91817H36.33632a.644.644,0,0,0-.64287.64287v2.34231a.644.644,0,0,0,.64287.64287h6.24417a.644.644,0,0,0,.64287-.64287v-2.34231a.91962.91962,0,0,1,.91817-.91817h2.34082a.91962.91962,0,0,1,.91818.91817v10.146a.644.644,0,0,0,.64287.64287h6.24268A.643.643,0,0,0,54.929,346.34028Z"/><path class="cls-1" d="M35.41814,346.34028v-2.34082a.91962.91962,0,0,1,.91818-.91817h6.24417a.644.644,0,0,0,.64287-.64287v-2.34231a.64272.64272,0,0,0-.64287-.64138H36.3378a.64272.64272,0,0,0-.64287.64138v2.34231a.91962.91962,0,0,1-.91817.91817H32.43445a.91962.91962,0,0,1-.91817-.91817v-10.146a.644.644,0,0,0-.64287-.64287H24.63072a.644.644,0,0,0-.64287.64287v14.0479a.644.644,0,0,0,.64287.64287H34.77527A.643.643,0,0,0,35.41814,346.34028Z"/><path class="cls-1" d="M62.23267,371.82443a21.46591,21.46591,0,0,0-6.54031-15.786,21.46852,21.46852,0,0,0-15.792-6.54776,21.60037,21.60037,0,0,0-15.78753,6.54478,22.31579,22.31579,0,0,0,.003,31.57951,21.74727,21.74727,0,0,0,15.78455,6.5418,21.60727,21.60727,0,0,0,15.789-6.54478A21.60718,21.60718,0,0,0,62.23267,371.82443Zm-42.21216,0a19.23042,19.23042,0,0,1,5.832-14.0479,18.988,18.988,0,0,1,14.04791-5.83345,18.846,18.846,0,0,1,14.04492,5.83047l.006.00595a21.63824,21.63824,0,0,1,2.02162,2.29544,3.11692,3.11692,0,0,0-1.01491-.35567l-5.66678-1.22919a6.06621,6.06621,0,0,0-1.47845-.24628,1.03729,1.03729,0,0,0-1.11609,1.0268c0,.53052.4256.98217,1.43827,1.52087a12.25819,12.25819,0,0,1,2.94053,1.80286,3.49108,3.49108,0,0,1,.79392,2.599v4.94058H29.7335a3.3961,3.3961,0,0,1-1.09126-.11449,1.964,1.964,0,0,1-.46011-1.0016l-.83186-4.05515H25.25648l.04836.80731c.11682,1.94573.1756,3.90782.1756,5.83271,0,2.13025-.05729,4.0663-.1756,5.919l-.05134.81028h2.08784l.87576-3.97031a1.974,1.974,0,0,1,.30953-.77457,2.66671,2.66671,0,0,1,1.16372-.16147h22.179v4.94058a4.5354,4.5354,0,0,1-.52829,2.64291,5.40066,5.40066,0,0,1-2.47475,1.03723c-1.33633.33408-2.21284.61161-2.21284,1.40181,0,.38394.20834,1.02829,1.59081,1.02829l6.46441.0878a2.34475,2.34475,0,0,0,.49183-.04762q-.58707.69087-1.25226,1.35569a19.23044,19.23044,0,0,1-14.0479,5.832,19.91166,19.91166,0,0,1-19.87987-19.87987ZM54.96393,382.1736c-.17635-.07589-.50969-.63617-.50969-2.21656V363.99987c0-.89362.12352-1.10494.1637-1.16818a2.02879,2.02879,0,0,1,.78573-.5826l.02232-.01191c.5826-.317,1.10568-.651,1.10568-1.24333a1.1312,1.1312,0,0,0-.01191-.1622,20.08078,20.08078,0,0,1-.349,22.45507C56.0882,382.54638,55.23923,382.26289,54.96393,382.1736Z"/><path class="cls-1" d="M28.4686,401.75659a3.176,3.176,0,0,0,0-4.3736,3.0368,3.0368,0,0,0-2.27088-.91669,3.12782,3.12782,0,0,0-2.253.89883,3.05756,3.05756,0,0,0-.00148,4.40783,3.12966,3.12966,0,0,0,2.25451.9018A3.03473,3.03473,0,0,0,28.4686,401.75659Z"/><path class="cls-1" d="M22.19583,1099.44228c0,3.8137,1.01489,6.73544,2.96136,8.80347,1.9888,2.06939,4.86957,3.12526,8.64229,3.12526h17.9334v-4.4229h-18.014c-2.59665,0-4.5035-.60921-5.76153-1.78528-1.258-1.21706-1.90685-3.12391-1.90685-5.72055,0-2.63763.64882-4.54448,1.90685-5.76153s3.16488-1.78528,5.76153-1.78528h18.014v-4.42291H33.79948c-3.77272,0-6.65349,1.05587-8.68191,3.16488C23.16975,1092.66586,22.19583,1095.5876,22.19583,1099.44228Z"/><path class="cls-1" d="M21.02719,1126.69548c0,5.60922,3.32059,10.51909,11.09415,16.40833.09971.08059,7.73394,6.30517,12.97914,11.03132a256.0251,256.0251,0,0,0-22.43417-13.37185.84026.84026,0,0,0-.43983-.11884.7753.7753,0,0,0-.78268.76629.81511.81511,0,0,0,.39475.67068c5.60035,3.79047,23.74821,19.65995,30.556,29.16961l.27319.3811.6898-.88786-.15025-.21172c-5.741-8.098-19.52746-20.66119-28.24488-27.38434,8.76933,4.88938,19.37038,11.18431,25.1319,16.01973l.24587.20626.67068-.67068-.15845-.23836c-2.11994-3.20176-17.398-15.586-18.05634-16.11943a24.55633,24.55633,0,0,1-2.695-2.359l.13387-.10654a17.54915,17.54915,0,0,0,2.45459-2.34395,6.93534,6.93534,0,0,0,1.07636.09356c2.83568,0,5.8667-2.38014,5.8667-9.06027,0-7.95727-5.63449-13.5023-10.6912-13.5023C22.69363,1115.06724,21.02719,1122.37638,21.02719,1126.69548Zm17.55913,1.87406c0,5.90837-2.4901,8.014-4.82039,8.014q-.16186,0-.31963-.01229a11.71951,11.71951,0,0,0,2.33439-6.92531c0-5.23017-3.58969-9.44136-6.56061-9.44136-3.28918,0-4.16747,4.29929-4.16747,6.83925,0,4.56838,2.80973,8.923,6.49093,10.20356a16.96833,16.96833,0,0,1-1.95192,1.80577l-.21445.17074c-3.95576-4.33275-6.506-10.01369-6.506-14.957,0-4.05752,1.8768-8.15192,6.07023-8.15192C33.50367,1116.11492,38.58632,1121.22967,38.58632,1128.56954Zm-6.26692,7.77151c-3.46129-1.11256-5.76973-6.004-5.76973-9.99252,0-.52179.07513-5.09768,2.67041-5.09768,2.48191,0,5.5143,3.8738,5.5143,8.39505A10.86879,10.86879,0,0,1,32.3194,1136.34105Z"/><rect class="cls-1" x="22.76406" y="1171.10623" width="28.96882" height="4.38193"/><path class="cls-1" d="M24.6354,1196.17256a11.90246,11.90246,0,0,0,5.34765,3.67438,23.03111,23.03111,0,0,0,8.07133,1.29764,25.72672,25.72672,0,0,0,8.39778-1.228,10.50476,10.50476,0,0,0,5.29848-3.67437q1.75182-2.4464,1.7525-7.47715v-7.28865H22.76406v7.28865Q22.76406,1193.79719,24.6354,1196.17256Zm1.51619-10.69529H50.43251v2.98594q0,3.69623-1.27852,5.319a8.03107,8.03107,0,0,1-3.65662,2.49147,20.69625,20.69625,0,0,1-6.79964.87011,26.64439,26.64439,0,0,1-7.08649-.74171,7.935,7.935,0,0,1-4.01312-2.47235q-1.44858-1.72927-1.44653-5.78338Z"/><path class="cls-1" d="M22.669,1217.43a13.75234,13.75234,0,0,0,1.65279,3.28508,10.52844,10.52844,0,0,0,2.27565,2.43342,4.26662,4.26662,0,0,0,2.58572.97255,3.40013,3.40013,0,0,0,2.46416-.98689,3.95511,3.95511,0,0,0,1.00669-2.93472,6.32019,6.32019,0,0,0-.92884-3.40665,9.16381,9.16381,0,0,0-2.43956-2.56387l-.14342-.10244-.37837.53066.14616.10108a8.51414,8.51414,0,0,1,1.08865.90084,7.72785,7.72785,0,0,1,.96572,1.13646,5.77852,5.77852,0,0,1,.6734,1.27988,3.86717,3.86717,0,0,1,.25,1.36048,2.24706,2.24706,0,0,1-.73078,1.87407,3.56571,3.56571,0,0,1-2.21691.58734,4.70205,4.70205,0,0,1-2.62807-.7335,6.49705,6.49705,0,0,1-1.87407-1.87612,8.82477,8.82477,0,0,1-1.12416-2.50035,7.53858,7.53858,0,0,1,.09834-5.00138,6.06229,6.06229,0,0,1,1.23071-1.8727,5.50017,5.50017,0,0,1,1.7648-1.21022,5.12333,5.12333,0,0,1,2.04617-.43642,6.94255,6.94255,0,0,1,3.13073.62287,6.6818,6.6818,0,0,1,2.09535,1.63912,10.32118,10.32118,0,0,1,1.48478,2.33713q.62491,1.33588,1.24983,2.68816a4.06678,4.06678,0,0,0,1.523,1.84538,4.35588,4.35588,0,0,0,2.31254.58053,9.70905,9.70905,0,0,1,2.16364.2725,7.349,7.349,0,0,1,2.16775.88172,5.1817,5.1817,0,0,1,1.64595,1.61112,4.47612,4.47612,0,0,1,.64746,2.47167,3.99917,3.99917,0,0,1-.69117,2.49488,2.57732,2.57732,0,0,1-2.18687.86942,4.12015,4.12015,0,0,1-1.29764-.25,5.08888,5.08888,0,0,1-1.40691-.756,4.56475,4.56475,0,0,1-1.13646-1.25257,3.21994,3.21994,0,0,1-.459-1.73,4.60439,4.60439,0,0,1,.16118-1.46292l.08332-.21582-.7417-.069-.04917.12157a3.231,3.231,0,0,0-.14753.66317,6.11214,6.11214,0,0,0-.07239.963,6.87651,6.87651,0,0,0,.31963,2.02979,6.20871,6.20871,0,0,0,.96435,1.89182,5.21849,5.21849,0,0,0,1.579,1.40009,4.2115,4.2115,0,0,0,2.13359.54364,3.10277,3.10277,0,0,0,1.70742-.46237,3.82713,3.82713,0,0,0,1.16378-1.1631,4.91658,4.91658,0,0,0,.64746-1.56331,7.67432,7.67432,0,0,0,.19533-1.70538,9.3929,9.3929,0,0,0-.6379-3.58832,7.26581,7.26581,0,0,0-1.72518-2.55772,7.1053,7.1053,0,0,0-2.48874-1.51209,8.82777,8.82777,0,0,0-2.95589-.49515,14.78523,14.78523,0,0,1-1.59268-.0683,2.86409,2.86409,0,0,1-.93157-.24382,1.35624,1.35624,0,0,1-.53818-.476,7.94382,7.94382,0,0,1-.49037-.91176c-.43437-.98553-.90289-1.97515-1.39053-2.94018a12.81336,12.81336,0,0,0-1.68966-2.5666,7.87925,7.87925,0,0,0-2.23468-1.81055,6.37053,6.37053,0,0,0-3.06653-.69731,5.10962,5.10962,0,0,0-2.3699.5573,5.435,5.435,0,0,0-1.86451,1.61249,7.8034,7.8034,0,0,0-1.20749,2.5543,12.72183,12.72183,0,0,0-.42207,3.43056A10.85894,10.85894,0,0,0,22.669,1217.43Z"/><polygon class="cls-1" points="44.828 1232.86 22.764 1242.882 22.764 1246.487 50.711 1246.487 50.711 1243.299 28.845 1243.299 50.711 1233.237 50.711 1229.612 22.764 1229.612 22.764 1232.86 44.828 1232.86"/><polygon class="cls-1" points="22.764 1260.536 22.764 1264.918 47.96 1264.918 47.96 1274.575 51.733 1274.575 51.733 1250.839 47.96 1250.839 47.96 1260.536 22.764 1260.536"/><rect class="cls-1" x="22.76406" y="1278.13842" width="28.96882" height="4.38193"/><polygon class="cls-1" points="35.747 1292.702 35.747 1307.105 39.52 1307.105 39.52 1292.702 47.96 1292.702 47.96 1307.957 51.733 1307.957 51.733 1288.279 22.764 1288.279 22.764 1292.702 35.747 1292.702"/><path class="cls-1" d="M19.15252,1316.55271l.56823.60784a22.29389,22.29389,0,0,1,7.79-4.38193,31.52566,31.52566,0,0,1,9.90032-1.46019,31.08177,31.08177,0,0,1,9.85934,1.46019,21.754,21.754,0,0,1,7.749,4.38193l.56823-.60784a22.81769,22.81769,0,0,0-8.03308-5.15369A27.05464,27.05464,0,0,0,37.37,1309.49216a27.76217,27.76217,0,0,0-10.14346,1.86725A23.64881,23.64881,0,0,0,19.15252,1316.55271Z"/><path class="cls-1" d="M24.71189,1335.66218h1.258l.3647-2.71821a1.52071,1.52071,0,0,1,1.62274-1.50117H46.78272a1.58907,1.58907,0,0,1,1.01489.28275,1.77428,1.77428,0,0,1,.60785,1.258l.36607,2.6786h1.258q-.12294-4.0179-.12294-6.32975c0-1.7047.082-3.8137.16255-6.36937H48.77153l-.36607,2.67723a2.16257,2.16257,0,0,1-.40569,1.17608,1.895,1.895,0,0,1-1.21705.32509H27.95736a1.89506,1.89506,0,0,1-1.21705-.32509,2.56339,2.56339,0,0,1-.40569-1.17608l-.3647-2.67723h-1.299c.12157,2.59664.16255,4.70565.16255,6.36937Q24.83346,1331.64564,24.71189,1335.66218Z"/><path class="cls-1" d="M55.58756,1342.03155l-.56823-.60784a23.04067,23.04067,0,0,1-7.749,4.38057,31.0808,31.0808,0,0,1-9.85934,1.46155,31.52482,31.52482,0,0,1-9.90032-1.46155,23.63985,23.63985,0,0,1-7.79-4.38057l-.56823.60784a24.27168,24.27168,0,0,0,8.07406,5.1933A28.642,28.642,0,0,0,37.37,1349.09072a27.85232,27.85232,0,0,0,10.18444-1.90685A23.38027,23.38027,0,0,0,55.58756,1342.03155Z"/><path class="cls-1" d="M23.47435,1357.05278a18.73363,18.73363,0,0,0-1.03538,6.67261,22.72637,22.72637,0,0,0,.87283,6.44859,13.002,13.002,0,0,0,2.41362,4.78625l3.16351-1.37823a11.50251,11.50251,0,0,1-2.1896-4.23851,18.76176,18.76176,0,0,1-.77176-5.41594q0-4.2187,1.35911-6.226a4.12,4.12,0,0,1,3.55008-2.00793,3.83955,3.83955,0,0,1,2.5543.851,4.99043,4.99043,0,0,1,1.50117,2.39449,11.99908,11.99908,0,0,1,.48627,3.60881v7.46485h3.48861v-7.30231a7.01457,7.01457,0,0,1,1.13646-4.3,3.826,3.826,0,0,1,3.2441-1.4998,4.04742,4.04742,0,0,1,3.38753,1.88635,9.75984,9.75984,0,0,1,1.35911,5.69871,18.46632,18.46632,0,0,1-.46715,4.19752,16.06871,16.06871,0,0,1-1.47931,3.91478l3.2441,1.17608a15.457,15.457,0,0,0,1.62273-4.3,22.95968,22.95968,0,0,0,.56823-5.15095,16.472,16.472,0,0,0-1.09548-6.42947,8.49361,8.49361,0,0,0-2.89988-3.81234,6.851,6.851,0,0,0-3.95576-1.23754,7.263,7.263,0,0,0-3.5692.87283,6.1461,6.1461,0,0,0-2.47371,2.5147c-.08153.15-.14368.31007-.214.46587a9.1856,9.1856,0,0,0-.37469-.933,7.43133,7.43133,0,0,0-2.49421-3.001,6.54456,6.54456,0,0,0-3.85331-1.13646,6.90241,6.90241,0,0,0-4.19889,1.35911A8.75721,8.75721,0,0,0,23.47435,1357.05278Z"/><path class="cls-1" d="M26.65835,1399.62907c2.51606,2.31254,6.04564,3.48861,10.59012,3.48861,4.58409,0,8.115-1.13646,10.54914-3.408,2.63763-2.43409,3.93527-5.96367,3.93527-10.62972v-10.54914H22.76406V1388.998C22.76406,1393.664,24.06307,1397.19361,26.65835,1399.62907Zm-.12157-16.67537H47.96016v5.31487c0,3.65115-.85235,6.32839-2.59665,8.03308-1.70469,1.62273-4.38193,2.47508-8.115,2.47508-3.65115,0-6.32976-.85235-8.07406-2.51606-1.7443-1.70332-2.63763-4.42154-2.63763-8.07406Z"/><path class="cls-1" d="M52.24647,1463.58914a12.30745,12.30745,0,0,0-1.23754-5.61811,8.99277,8.99277,0,0,0-3.50909-3.79321,7.88251,7.88251,0,0,0,3.48861-3.38616,11.17589,11.17589,0,0,0,1.258-5.45556,11.52616,11.52616,0,0,0-1.17607-5.334A8.61767,8.61767,0,0,0,47.784,1436.452h4.13743v-3.89429H23.52762v4.05684H40.483q4.09577,0,6.12487,2.08852a7.77924,7.77924,0,0,1,2.02842,5.65908,6.70391,6.70391,0,0,1-1.90685,5.04987q-1.90753,1.84606-5.67821,1.84539H23.52762v4.01585H40.483q4.13674,0,6.14536,2.04891a7.62186,7.62186,0,0,1,2.00793,5.57713,7.005,7.005,0,0,1-1.92734,5.15095,7.61637,7.61637,0,0,1-5.65772,1.94783H23.52762v4.01586H41.17281q5.39273,0,8.23388-2.7592A10.19046,10.19046,0,0,0,52.24647,1463.58914Z"/><path class="cls-1" d="M41.01163,1492.65084a2.79407,2.79407,0,0,1-2.04617-.85644,2.83509,2.83509,0,0,1-.85645-2.08033,2.92438,2.92438,0,0,1,2.90262-2.90262h8.742v-5.83938h-8.742q-5.14071,0-5.83938,5.83938H23.52762v5.83939H35.17225q.69867,5.80455,5.83938,5.80524h8.742v-5.80524Z"/><path class="cls-1" d="M37.52576,1523.4227a43.28847,43.28847,0,0,0,2.83978-7.58779,31.89412,31.89412,0,0,1,1.78528-5.03075,3.405,3.405,0,0,1,3.08293-2.15,3.2881,3.2881,0,0,1,3.16488,1.86588,9.113,9.113,0,0,1,.85234,4.38193,8.10374,8.10374,0,0,1-1.258,4.95016,6.4249,6.4249,0,0,1-4.05683,2.27155v4.38193c3.16487-.28411,5.47741-1.41921,6.97857-3.449,1.46019-1.90685,2.15-4.54311,2.15-7.91152a13.34418,13.34418,0,0,0-2.0694-7.66838,6.85272,6.85272,0,0,0-6.00466-3.20449,6.38879,6.38879,0,0,0-5.80251,3.32606,51.96428,51.96428,0,0,0-2.39312,6.65485,54.29268,54.29268,0,0,1-1.94783,5.76153c-.93293,1.8249-2.191,2.75783-3.8137,2.75783a3.367,3.367,0,0,1-3.04331-1.94646,10.668,10.668,0,0,1-1.13509-5.23428,8.877,8.877,0,0,1,1.33862-5.39682,7.12053,7.12053,0,0,1,4.90918-2.4341v-4.38193c-3.65115.2445-6.32976,1.54214-8.03308,3.93663-1.3796,1.98744-2.11038,4.74663-2.11038,8.27622q0,5.47674,2.191,8.52073a7.20013,7.20013,0,0,0,6.12623,3.04194A6.97945,6.97945,0,0,0,37.52576,1523.4227Z"/><polygon class="cls-1" points="48.724 1529.015 48.724 1538.712 23.528 1538.712 23.528 1543.094 48.724 1543.094 48.724 1552.749 52.496 1552.749 52.496 1529.015 48.724 1529.015"/><polygon class="cls-1" points="36.511 1560.655 36.511 1576.073 40.284 1576.073 40.284 1560.655 48.724 1560.655 48.724 1577.047 52.496 1577.047 52.496 1556.233 23.528 1556.233 23.528 1577.737 27.3 1577.737 27.3 1560.655 36.511 1560.655"/><rect class="cls-1" x="26.32506" y="1601.2484" width="4.371" height="4.371"/><rect class="cls-1" x="39.46904" y="1605.6194" width="8.74201" height="4.371"/><polygon class="cls-1" points="48.18 1588.135 48.18 1605.619 52.551 1605.619 52.551 1583.764 21.954 1583.764 21.954 1588.135 35.067 1588.135 35.067 1596.877 30.696 1596.877 30.696 1601.248 35.067 1601.248 35.067 1605.619 39.438 1605.619 39.438 1588.135 48.18 1588.135"/><rect class="cls-1" x="23.52762" y="1618.05081" width="28.96882" height="4.38193"/><path class="cls-1" d="M57.93288,1645.63866a18.93191,18.93191,0,0,0-5.80114-13.99813,18.93193,18.93193,0,0,0-13.99814-5.80114,19.05657,19.05657,0,0,0-13.99677,5.80114,19.78435,19.78435,0,0,0,0,27.9949,19.21213,19.21213,0,0,0,13.99677,5.80251,19.085,19.085,0,0,0,13.99814-5.80251A19.05656,19.05656,0,0,0,57.93288,1645.63866Zm-32.53939,12.74011a17.97449,17.97449,0,0,1,12.74011-30.71449,17.97381,17.97381,0,1,1,0,35.9474A17.55966,17.55966,0,0,1,25.39349,1658.37877Z"/><path class="cls-1" d="M52.17135,1645.63866c0-4.17977-1.33862-7.46622-4.09782-9.90032-2.59665-2.27155-5.96368-3.367-10.10248-3.367-4.13742,0-7.46485,1.09549-10.02052,3.367a14.20673,14.20673,0,0,0-.082,19.79928,14.78,14.78,0,0,0,10.10248,3.408c4.21939,0,7.58779-1.13509,10.14346-3.408C50.83273,1653.10352,52.17135,1649.81707,52.17135,1645.63866Zm-21.70613,6.61251a8.266,8.266,0,0,1-2.71822-6.61251,8.158,8.158,0,0,1,2.83979-6.61387,11.08494,11.08494,0,0,1,7.38426-2.27156,11.36621,11.36621,0,0,1,7.50583,2.31254,7.9561,7.9561,0,0,1,2.84116,6.57289,8.12685,8.12685,0,0,1-2.80018,6.61251q-2.67792,2.31321-7.54681,2.31253C34.76656,1654.5637,32.2505,1653.79331,30.46522,1652.25117Z"/><path class="cls-1" d="M34.48245,1688.23c-2.59665,0-4.5035-.60921-5.76153-1.78529-1.258-1.217-1.90685-3.1239-1.90685-5.72055,0-2.63762.64882-4.54447,1.90685-5.76152s3.16488-1.78528,5.76153-1.78528h18.014v-4.42291H34.563c-3.77272,0-6.65349,1.05587-8.68191,3.16488-1.94783,2.02841-2.92174,4.95016-2.92174,8.80483,0,3.8137,1.01489,6.73545,2.96136,8.80348,1.9888,2.06939,4.86957,3.12526,8.64229,3.12526h17.9334V1688.23Z"/><path class="cls-1" d="M57.5756,1748.64817c0-6.52236-15.01849-15.16465-19.272-17.03052l-.03551-.015c-.89469-1.53258-1.66781-2.96681-2.35215-4.36007.14206.01229.28548.01912.42618.01912,3.26732,0,6.75729-2.94633,6.75729-11.21708,0-8.0085-4.97065-13.51665-9.79924-14.81565,1.62683-3.17717,4.25217-4.98909,7.26-4.98909,5.86534,0,12.09949,6.52918,12.09949,18.62866,0,5.17554-.34422,12.67181-3.3206,17.99624l-.17894.31963.94933.47535.16255-.291c3.13073-5.57576,3.4927-13.22911,3.4927-18.50027,0-9.70021-4.93923-19.73371-13.20453-19.73371-3.54187,0-6.59065,2.13565-8.39915,5.87012a9.17121,9.17121,0,0,0-1.09-.07034c-6.77232,0-9.231,8.28373-9.231,13.852,0,9.35394,8.38823,14.40109,15.73971,17.75173,6.12077,10.153,13.94759,17.5127,18.63276,17.5127A1.27116,1.27116,0,0,0,57.5756,1748.64817Zm-1.105,0c0,.27728-.112.29914-.25816.29914-4.06367,0-11.198-6.62617-16.86661-15.57443C44.85052,1736.15257,56.47055,1743.41253,56.47055,1748.64817Zm-14.47621-32.60358c0,7.45529-2.92038,10.112-5.65225,10.112a4.775,4.775,0,0,1-.61877-.04235,12.71969,12.71969,0,0,0,2.348-7.35284c0-7.318-3.20722-12.16095-6.31336-12.71279a17.30641,17.30641,0,0,1,1.08045-3.79389C37.32829,1703.325,41.99434,1708.44041,41.99434,1716.04459Zm-7.23538,11.284c.56414,1.172,1.18564,2.36171,1.85631,3.55418l-.45759-.1967a17.558,17.558,0,0,1-3.05833-1.72108l.23357-.21172A18.17,18.17,0,0,0,34.759,1727.3286ZM31.37963,1710.813a28.17758,28.17758,0,0,1,.21445-3.67232c2.348.41524,5.37224,4.47686,5.37224,11.62072a11.3488,11.3488,0,0,1-1.97651,6.50187A36.44637,36.44637,0,0,1,31.37963,1710.813Zm-1.105,0a37.44891,37.44891,0,0,0,3.62656,14.69887c-3.48314-1.90822-5.60307-7.85415-5.60307-12.71143,0-1.88431.295-4.9884,2.17867-5.601A29.41929,29.41929,0,0,0,30.27459,1710.813Zm1.43287-8.7502a19.278,19.278,0,0,0-1.0627,3.97625c-3.27279.57506-4.02,6.258-4.02,8.26119,0,5.21106,2.6185,10.06151,6.521,12.07353.21445.10655.45076.22265.698.32646a15.58815,15.58815,0,0,1-1.22251,1.20749l-.23767.21445.53271.713c-5.28754-3.78774-9.07939-10.51636-9.07939-16.72454,0-5.01368,2.23741-10.07243,7.234-10.07243C31.29631,1702.03826,31.508,1702.04645,31.70746,1702.06284Z"/><path class="cls-1" d="M52.49644,1757.50765l-28.96882-11.15836v4.707l7.46485,2.71822v12.456l-7.46485,2.71821v4.74664l28.96882-11.157ZM34.645,1755.11316l13.10482,4.82859v.16254L34.645,1764.89191Z"/><polygon class="cls-1" points="30.953 1795.963 30.953 1795.8 52.496 1780.992 52.496 1776.528 23.528 1776.528 23.528 1780.951 45.316 1780.951 45.316 1781.114 23.528 1796.084 23.528 1800.386 52.496 1800.386 52.496 1795.963 30.953 1795.963"/><rect class="cls-1" x="23.52762" y="1806.18012" width="28.96882" height="4.38193"/><polygon class="cls-1" points="35.699 1831.576 51.928 1824.232 51.726 1815.104 49.494 1815.104 48.683 1818.553 26.773 1818.553 25.962 1815.104 23.528 1815.104 23.528 1826.059 25.962 1826.059 26.773 1822.204 47.06 1822.204 44.22 1823.217 31.033 1829.506 31.237 1832.753 44.017 1839.042 47.06 1840.259 26.773 1840.259 25.962 1836.404 23.528 1836.404 23.528 1847.765 25.962 1847.765 26.773 1844.316 48.683 1844.316 49.494 1847.765 51.928 1847.765 51.726 1839.244 35.699 1831.576"/><path class="cls-1" d="M52.49644,1860.53627l-28.96882-11.157v4.70566l7.46485,2.71821v12.456l-7.46485,2.71821v4.748L52.49644,1865.567ZM34.645,1858.14315l13.10482,4.82723v.16254L34.645,1867.92054Z"/><polygon class="cls-1" points="52.496 1883.94 52.496 1879.558 23.528 1879.558 23.528 1899.885 27.3 1899.885 27.3 1883.94 52.496 1883.94"/><path class="cls-1" d="M28.47778,1908.35914a3.07424,3.07424,0,0,0,.85235-2.15135,2.72,2.72,0,0,0-.85235-2.109,2.8464,2.8464,0,0,0-2.191-.89332,2.93976,2.93976,0,0,0-2.15.89332,2.838,2.838,0,0,0-.81273,2.109,3.22112,3.22112,0,0,0,.81273,2.15135,3.11466,3.11466,0,0,0,2.15.892A3.002,3.002,0,0,0,28.47778,1908.35914Z"/><path class="cls-1" d="M38.76325,1927.612a32.23086,32.23086,0,0,1,10.224,1.51491,22.55871,22.55871,0,0,1,8.03561,4.544l.58925-.631a23.66023,23.66023,0,0,0-8.33023-5.34361,28.04153,28.04153,0,0,0-10.56117-1.97739,28.78858,28.78858,0,0,0-10.51867,1.9356,24.52061,24.52061,0,0,0-8.37272,5.3854l.58925.631a23.11864,23.11864,0,0,1,8.0781-4.544A32.69123,32.69123,0,0,1,38.76325,1927.612Z"/><path class="cls-1" d="M48.86123,1956.60062c2.01846-2.6927,2.98591-6.39534,2.98591-11.10721q0-3.2816-.3782-12.37H50.20687c-.12607.75781-.29463,1.51491-.50426,2.31451a2.07044,2.07044,0,0,1-.54676,1.136,1.6836,1.6836,0,0,1-1.221.46248H29.59164a1.922,1.922,0,0,1-1.97739-1.767l-.58925-2.56664H25.76293c-.12748,6.52141-.21105,11.31827-.21105,14.43166a14.223,14.223,0,0,0,3.57657,10.09727,12.96107,12.96107,0,0,0,9.80336,3.78692C43.30727,1961.01858,46.6303,1959.54545,48.86123,1956.60062Zm-18.38714-3.23945a9.99188,9.99188,0,0,1-3.197-7.86776c0-1.80953.25213-2.98732.71532-3.49229a3.36006,3.36006,0,0,1,2.31309-.54676H47.7663a2.07871,2.07871,0,0,1,1.89381.88317,3.19411,3.19411,0,0,1,.46319,1.97738c0,3.66086-.84138,6.52141-2.60913,8.54129-1.85132,2.18773-4.67009,3.282-8.41522,3.282C35.4813,1956.13815,32.57755,1955.21249,30.47409,1953.36117Z"/><path class="cls-1" d="M57.61215,1959.46188l-.58925-.631a23.90653,23.90653,0,0,1-8.03561,4.54331,32.23086,32.23086,0,0,1-10.224,1.51491,32.69123,32.69123,0,0,1-10.26654-1.51491,24.52853,24.52853,0,0,1-8.0781-4.54331l-.58925.631a25.16627,25.16627,0,0,0,8.37272,5.3854,29.7014,29.7014,0,0,0,10.51867,1.93489,28.88269,28.88269,0,0,0,10.56117-1.97738A24.25564,24.25564,0,0,0,57.61215,1959.46188Z"/><path class="cls-1" d="M53.61488,1978.84762l-30.04039-11.57039v4.88043l7.741,2.81876v12.91675l-7.741,2.81876v4.92293l30.04039-11.5704Zm-18.51178-2.48235,13.58957,5.00649v.16856L35.1031,1986.505Z"/><rect class="cls-1" x="23.57449" y="1998.65689" width="30.04039" height="4.54402"/><path class="cls-1" d="M23.57449,2053.0541H35.56487l13.84922,9.13567a45.80232,45.80232,0,0,1-5.29262,6.18057l-.22663.22238.65157.87113.296-.28613a49.09311,49.09311,0,0,0,5.531-6.355l3.2414,2.13816v-5.51147l-.73063-.46026a36.75,36.75,0,0,0,5.31263-18.3936c0-19.1506-11.6575-34.7303-25.985-34.7303-7.35428,0-11.81473,4.39175-13.26661,13.057a16.421,16.421,0,0,0-8.09226-2.58505c-6.99876,0-10.853,7.17086-10.853,20.19171,0,7.12553,1.51987,13.73405,4.27772,18.60881,2.47457,4.37121,5.77352,6.981,8.82458,6.981,4.6885,0,7.48744-5.63824,7.48744-15.08181,0-3.72106-.279-7.38545-.54818-10.92945-.262-3.42643-.53117-6.969-.53117-10.44643a44.32034,44.32034,0,0,1,.26913-4.96117,54.989,54.989,0,0,1,10.79205,9.8069l1.01277,1.15159.86971-.653-1.051-1.19338a55.47214,55.47214,0,0,0-11.46628-10.28778c1.22807-7.92512,5.05819-12.28571,10.79913-12.28571,12.00879,0,25.43971,14.7886,25.43971,34.58087a33.901,33.901,0,0,1-4.34448,16.50633l-11.97435-7.54365,13.75812-8.66735v-5.51146l-18.05,11.9068H23.57449Zm-4.80066-32.9831a42.32435,42.32435,0,0,0-.34845,5.59008c0,3.69839.279,7.36137.54817,10.90324.26063,3.43706.53117,6.991.53117,10.47264,0,6.75724-1.6955,13.97838-6.45624,13.97838-4.88964,0-11.96347-8.71976-11.96347-24.48643,0-12.29775,3.49442-19.07058,9.84018-19.07058A15.64948,15.64948,0,0,1,18.77383,2020.071Z"/><path class="cls-1" d="M28.70776,2073.1162a3.185,3.185,0,0,0,.88388-2.23022,2.82112,2.82112,0,0,0-.88388-2.18773,2.9536,2.9536,0,0,0-2.272-.92566,3.05053,3.05053,0,0,0-2.22951.92566,2.94347,2.94347,0,0,0-.8428,2.18773,3.33711,3.33711,0,0,0,.8428,2.23022,3.22738,3.22738,0,0,0,2.22951.92566A3.11076,3.11076,0,0,0,28.70776,2073.1162Z"/></g></svg>