<?xml version="1.0" encoding="UTF-8"?>
<svg id="font" xmlns="http://www.w3.org/2000/svg" viewBox="0 0 63.45 2074.04">
  <defs>
    <style>
      .cls-1 {
        fill: #fffa6f;
      }
    </style>
  </defs>
  <g>
    <path class="cls-1" d="M51.96,868.46c1.22-2.32,1.84-5.05,1.84-8.11v-11.99H24.68v11.99c0,3.06,.62,5.79,1.84,8.11,1.23,2.33,2.96,4.18,5.15,5.48,2.19,1.3,4.73,1.96,7.57,1.96s5.38-.66,7.57-1.96c2.19-1.3,3.92-3.15,5.15-5.48Zm-2.06-15.79v7.53c0,2.33-.46,4.38-1.37,6.08-.9,1.69-2.16,3.02-3.73,3.96-1.58,.94-3.45,1.41-5.56,1.41s-3.95-.48-5.54-1.41c-1.59-.93-2.85-2.27-3.75-3.95-.91-1.7-1.37-3.75-1.37-6.08v-7.53h21.32Z"/>
    <polygon class="cls-1" points="49.9 879.01 49.9 884.64 28.58 884.64 28.58 879.01 24.68 879.01 24.68 894.5 28.58 894.5 28.58 888.91 49.9 888.91 49.9 894.5 53.8 894.5 53.8 879.01 49.9 879.01"/>
    <path class="cls-1" d="M58.65,948.45c0-6.38-14.68-14.83-18.84-16.65h-.03c-.87-1.52-1.63-2.92-2.3-4.28,.14,.01,.28,.02,.42,.02,3.19,0,6.61-2.88,6.61-10.97s-4.86-13.21-9.58-14.48c1.59-3.11,4.16-4.88,7.1-4.88,5.73,0,11.83,6.38,11.83,18.21,0,5.06-.34,12.39-3.25,17.59l-.17,.31,.93,.46,.16-.28c3.06-5.45,3.41-12.93,3.41-18.09,0-9.48-4.83-19.29-12.91-19.29-3.46,0-6.44,2.09-8.21,5.74-.38-.05-.74-.07-1.07-.07-6.62,0-9.02,8.1-9.02,13.54,0,9.15,8.2,14.08,15.39,17.36,5.98,9.93,13.64,17.12,18.22,17.12,.83,0,1.33-.51,1.33-1.37Zm-1.08,0c0,.27-.11,.29-.25,.29-3.97,0-10.95-6.48-16.49-15.23,5.38,2.72,16.74,9.82,16.74,14.93Zm-14.15-31.87c0,7.29-2.85,9.89-5.53,9.89-.21,0-.41-.02-.6-.04,1.5-2.14,2.3-4.62,2.3-7.19,0-7.15-3.13-11.89-6.17-12.43,.23-1.34,.58-2.59,1.06-3.71,4.39,1.04,8.95,6.05,8.95,13.48Zm-7.07,11.03c.55,1.15,1.16,2.31,1.81,3.47l-.45-.19c-1.04-.45-2.04-1.02-2.99-1.68l.23-.21c.56-.5,1.01-.96,1.39-1.39Zm-3.3-16.15c0-1.33,.07-2.51,.21-3.59,2.3,.4,5.25,4.37,5.25,11.36,0,2.33-.65,4.47-1.93,6.36-2.31-5.14-3.53-10.01-3.53-14.13Zm-1.08,0c0,4.19,1.22,9.14,3.55,14.37-3.41-1.86-5.48-7.68-5.48-12.43,0-1.84,.29-4.88,2.13-5.48-.13,1.08-.2,2.24-.2,3.53Zm1.4-8.55c-.46,1.16-.81,2.47-1.04,3.89-3.2,.56-3.93,6.12-3.93,8.08,0,5.09,2.56,9.84,6.37,11.8,.22,.11,.45,.22,.68,.32-.34,.38-.73,.76-1.2,1.18l-.23,.21,.52,.7c-5.17-3.7-8.88-10.28-8.88-16.35,0-4.9,2.19-9.85,7.07-9.85,.22,0,.43,0,.62,.02Z"/>
    <path class="cls-1" d="M51.69,967.5c0,.45,.33,.83,.99,1.14l.83,.37,2.85,1.3c.87-2.45,1.3-4.82,1.3-7.11,0-4.52-1.61-8.29-4.82-11.31-3.21-3.02-7.21-4.53-12-4.53-3.24,0-5.84,.82-7.82,2.45s-2.96,3.78-2.96,6.45c0,2.82,1.01,5.7,3.04,8.61l-3.35-.38c-3.13-.36-5.28-.95-6.45-1.77-1.17-.82-1.75-2.16-1.75-4.01,0-2.46,1.14-4.28,3.43-5.47l-2.28-2.88c-1.86,1.51-2.79,3.62-2.79,6.33,0,2.94,1.11,5.47,3.33,7.59,1.1,1.06,2.29,1.82,3.59,2.28,1.3,.46,3.26,.85,5.88,1.14l7.78,.86c.53,.06,1.16,.18,1.88,.35l1.22,.31,.79,.19v-5.15l-.02-1.96c0-1.59-.17-2.67-.5-3.24s-1.16-1.18-2.48-1.83c.44,1.34,.66,3.13,.66,5.36v3.29l-6.98-.79c-1.75-2.08-2.63-4.23-2.63-6.46,0-2.42,.86-4.3,2.57-5.66,1.71-1.36,4.1-2.04,7.15-2.04,4.16,0,7.5,.97,10.02,2.91s3.78,4.52,3.78,7.73c0,1.54-.32,2.89-.96,4.04-.64,1.16-1.39,1.73-2.26,1.73-.26,0-.58-.09-.98-.27-.04,.18-.06,.32-.06,.41Z"/>
    <path class="cls-1" d="M50.22,989.86l-.04,.64c-.16,2.62-.51,3.09-4.47,3.09h-10.43c-3.27,0-4.59-.19-5.94-1.3-1.32-1.14-2.1-3.2-2.1-5.51,0-1.96,.54-3.51,1.59-4.6,1.35-1.39,2.92-1.54,5.94-1.54h12.38c2.55,0,2.79,.08,3.05,2.99l.05,.62h2.06v-12.59h-2.07l-.05,.63c-.22,2.86-.43,2.94-2.65,2.94h-12.3c-4.41,0-7.41,1.14-9.15,3.48-1.32,1.75-1.96,4.09-1.96,7.16,0,3.84,1.05,6.71,3.13,8.53,2.22,1.96,4.59,2.31,8.47,2.31h10.11c3.64,0,4.09,.32,4.36,3.11l.06,.62h2.06v-10.57h-2.08Z"/>
    <path class="cls-1" d="M53.13,1016.06v-12.61c0-.32-.26-.58-.58-.58h-9.1c-.32,0-.58,.26-.58,.58v2.1c0,.45-.37,.82-.82,.82h-5.6c-.32,0-.58,.26-.58,.58v2.1c0,.32,.26,.58,.58,.58h5.6c.32,0,.58-.26,.58-.58v-2.1c0-.45,.37-.82,.82-.82h2.1c.45,0,.82,.37,.82,.82v9.1c0,.32,.26,.58,.58,.58h5.6c.32,0,.58-.26,.58-.58Z"/>
    <path class="cls-1" d="M35.62,1016.06v-2.1c0-.45,.37-.82,.82-.82h5.6c.32,0,.58-.26,.58-.58v-2.1c0-.32-.26-.58-.58-.58h-5.6c-.32,0-.58,.26-.58,.58v2.1c0,.45-.37,.82-.82,.82h-2.1c-.45,0-.82-.37-.82-.82v-9.1c0-.32-.26-.58-.58-.58h-5.6c-.32,0-.58,.26-.58,.58v12.61c0,.32,.26,.58,.58,.58h9.1c.32,0,.58-.26,.58-.58Z"/>
    <path class="cls-1" d="M59.68,1038.93c0-5.55-1.98-10.31-5.87-14.17-3.86-3.9-8.63-5.88-14.17-5.88s-10.27,1.98-14.17,5.87c-3.9,3.9-5.87,8.66-5.87,14.17s1.98,10.23,5.88,14.17c3.94,3.9,8.7,5.87,14.16,5.87s10.27-1.98,14.17-5.87c3.9-3.9,5.87-8.66,5.87-14.17Zm-37.88,0c0-4.89,1.76-9.13,5.23-12.61,3.52-3.52,7.65-5.23,12.61-5.23s9.12,1.71,12.6,5.23h0c.67,.67,1.27,1.35,1.81,2.07-.33-.2-.73-.28-.91-.32l-5.09-1.1c-.77-.2-1.21-.22-1.33-.22-.66,0-1,.46-1,.92s.38,.88,1.29,1.36c1.85,.92,2.46,1.44,2.64,1.62,.49,.48,.71,1.23,.71,2.33v4.43H30.52c-.75,0-.98-.11-.98-.1-.15-.12-.29-.43-.41-.9l-.75-3.64h-1.88l.04,.72c.1,1.75,.16,3.51,.16,5.23,0,1.91-.05,3.65-.16,5.31l-.05,.73h1.87l.79-3.56c.15-.58,.28-.7,.28-.7,.06-.03,.32-.14,1.04-.14h19.9v4.43c0,1.2-.17,2.02-.47,2.37-.16,.16-.68,.56-2.22,.93-1.2,.3-1.99,.55-1.99,1.26,0,.34,.19,.92,1.43,.92l5.8,.08c.17,0,.31-.02,.44-.04-.35,.41-.73,.82-1.12,1.22-3.47,3.47-7.71,5.23-12.61,5.23s-9.1-1.76-12.6-5.23c-3.47-3.51-5.24-7.76-5.24-12.61Zm31.36,9.29c-.16-.07-.46-.57-.46-1.99v-14.32c0-.8,.11-.99,.15-1.05,.06-.11,.29-.31,.71-.52h.02c.52-.3,.99-.59,.99-1.13,0-.05,0-.1-.01-.15,1.96,2.86,2.93,6.12,2.93,9.86s-1.06,7.3-3.24,10.29c-.07-.66-.84-.92-1.08-1Z"/>
    <path class="cls-1" d="M29.38,1065.79c1.04-1.08,1.04-2.85,0-3.92-.53-.55-1.21-.82-2.04-.82s-1.47,.27-2.02,.81c-.56,.54-.84,1.21-.84,1.98s.28,1.44,.84,1.98c.55,.54,1.23,.81,2.02,.81s1.51-.28,2.04-.82Z"/>
  </g>
  <g>
    <polygon class="cls-1" points="22.18 0 22.18 5.24 36.51 5.24 36.51 22.7 41.26 22.7 41.26 5.24 52.87 5.24 52.87 24.82 57.62 24.82 57.62 0 22.18 0"/>
    <path class="cls-1" d="M54.88,47.43c-.35-1.08-.85-2.23-1.48-3.43-.64-1.2-1.38-2.39-2.21-3.55-2.82-3.91-5.36-5.81-7.77-5.81-.78,0-1.97,.21-2.76,1.36-1.58-2.85-3.3-5.13-5.13-6.8-2.25-2.05-4.56-3.09-6.89-3.09-1.45,0-2.73,.4-3.81,1.18-1.07,.77-1.89,1.89-2.44,3.3-.53,1.36-.8,2.98-.8,4.8,0,1.64,.26,3.47,.78,5.45,.51,1.96,1.26,3.99,2.22,6.02l.18,.38,4.94,1-.83-1.56c-1.08-2.02-1.97-3.85-2.63-5.42-.65-1.55-1.15-2.98-1.47-4.25-.74-2.94-.64-5.22,.56-6.69,.65-.8,1.47-1.19,2.5-1.19,2.29,0,4.84,1.88,7.58,5.6,1.71,2.33,3.08,4.67,4.07,6.97l.17,.4,2.93,.6v-1.38c.06-1.3,.19-1.84,.24-2.01,.11-.28,.31-.51,.59-.71,.26-.19,.53-.28,.81-.28,.75,0,1.67,.41,2.72,1.21,1.13,.86,2.22,2.05,3.24,3.54,.78,1.13,1.41,2.27,1.87,3.4,.44,1.09,.67,1.99,.67,2.7,0,1.1-.42,1.1-.79,1.1-.95,0-2.74-.6-5.9-3.46l-.56-.51-2.56,2.34,.59,.62c.84,.87,1.78,1.67,2.82,2.37,1.04,.71,2.06,1.26,3.02,1.63,1,.39,1.92,.59,2.73,.59,1,0,1.81-.32,2.43-.95,1.1-1.14,1.15-3.03,.37-5.47Z"/>
    <path class="cls-1" d="M59.79,65.03c0-1.27-.21-2.56-.62-3.81-.41-1.26-.98-2.35-1.68-3.23l-.47-.59-2.68,1.75,.62,.72c.51,.59,.91,1.33,1.19,2.18,.29,.88,.44,1.84,.44,2.87,0,1.33-.27,2.31-.81,2.93-.52,.59-1.32,.87-2.46,.87h-.28v-4.57c0-2.45-.46-4.17-1.41-5.27-.96-1.12-2.17-1.69-3.57-1.69-1.55,0-2.82,.62-3.79,1.83-.92,1.16-1.39,2.79-1.39,4.84,0,1.75,.36,3.24,1.06,4.41,.13,.21,.26,.41,.4,.6h-1.31v3.45h10.24c2.14,0,3.79-.66,4.9-1.96,1.08-1.26,1.62-3.06,1.62-5.34Zm-13.85-.77c0-1.23,.22-2.17,.65-2.78,.37-.53,.85-.78,1.51-.78,.58,0,1.02,.23,1.39,.71,.29,.37,.62,1.18,.62,2.94v4.38h-1.73c-.77-.38-1.35-.9-1.77-1.58-.45-.73-.67-1.7-.67-2.89Z"/>
    <path class="cls-1" d="M48.88,130.75c.17-1.73,.17-3.2-.06-4.82,.45,.06,.87,.08,1.28,.08,3.51,0,6.01-1.69,7.06-4.78,3.95-.44,6.29-3.29,6.29-7.69,0-6.96-6.31-17.57-18.15-19.37l-.39-.06-.24,1.22,.43,.06c11.17,1.7,17.13,11.63,17.13,18.15,0,3.56-1.71,5.86-4.71,6.39,.16-.79,.24-1.62,.24-2.48,0-8.31-7.56-16.14-13.43-16.14-3.03,0-4.41,2.88-4.41,5.57,0,7.05,10.06,14.21,15.89,14.42-.98,2.25-2.98,3.48-5.7,3.48-.49,0-.99-.04-1.48-.12-1.28-6.07-5.47-10.26-10.09-14.31,.62-.46,1.01-1.08,1.01-1.68,0-.65-.46-1.41-1.77-1.41-.63,0-1.28,.32-1.8,.86-4.88-4.28-11.15-10.78-11.15-18.69,0-6.48,2.41-10.2,6.61-10.2,4.91,0,10.2,5.46,10.2,14.27,0,4.62-1.97,6.56-4.01,6.91,.75-2.12,1.13-4.24,1.13-6.31,0-6.51-3.89-11.55-7.24-11.55-3.03,0-4.29,4.25-4.29,6.52,0,5.59,4.7,11.5,8.59,12.48-.45,1.01-.98,2.01-1.58,2.98l-.2,.32,.98,.73,.24-.38c.72-1.13,1.34-2.31,1.85-3.52,2.69-.09,5.75-2.27,5.75-8.2,0-9.57-5.93-15.5-11.43-15.5-4.27,0-8.68,4.81-8.68,12.87,0,8.58,4.75,12.25,9.79,16.14,.89,.69,1.82,1.4,2.72,2.15-.07,.16-.13,.31-.18,.46-.94-.21-1.77-.43-2.66-.67-2.36-.67-7.26-2.05-11.29-2.05-5.48,0-8.76,4.43-8.76,8.72,0,3.47,2.22,7.52,8.48,7.52s11.71-4.22,13.02-10.27l.09-.41-1.22-.24-.08,.4c-1.14,5.47-5.99,9.29-11.81,9.29-5.35,0-7.25-3.39-7.25-6.29,0-3.68,2.82-7.49,7.53-7.49,3.31,0,7.09,.96,10.37,1.86,1.1,.3,2.23,.61,3.36,.85,0,.12-.01,.25-.01,.38,0,7.32,6.55,13.15,12.72,14.48,.25,1.69,.27,3.2,.09,4.96l-.05,.46h1.23l.04-.37Zm-11.11-22.25c.31,0,.54,.08,.54,.18,0,.24-.26,.59-.73,.85l-.7-.61c.32-.31,.66-.42,.89-.42Zm-.43,2.4c4.5,3.85,8.63,7.81,9.97,13.51-5.52-1.43-11.23-6.7-11.23-13.18,0-.07,0-.13,0-.19,.06,0,.13,0,.18,0,.37,0,.73-.05,1.08-.15Zm4.4-5.14c0-1.47,.45-3.22,2.58-3.22,6.17,0,12.2,8.54,12.2,14.91,0,.95-.1,1.83-.31,2.62-.05,0-.11,0-.16,0-5.05,0-14.31-8.41-14.31-14.31Zm-4.22-11.65c0,2.02-.41,4.12-1.22,6.26-2.92-.89-7.09-7.39-7.09-12.44,0-.42,.06-4.14,2.3-4.14,2.39,0,6.01,4.12,6.01,10.32Z"/>
    <path class="cls-1" d="M27.1,125.78c-.28-.41-.66-.75-1.12-1-.47-.26-1-.39-1.58-.39-1.55,0-2.48,.93-2.48,2.48,0,.78,.33,1.49,.95,2.04,.6,.54,1.33,.81,2.17,.81,.72,0,1.33-.23,1.8-.68,.83-.79,.99-2.24,.26-3.28Z"/>
  </g>
  <g>
    <path class="cls-1" d="M40.23,450.67c.53-.99,.97-2.09,1.31-3.27,.33-1.15,.63-2.3,.91-3.46,.27-1.11,.57-2.16,.91-3.1,.31-.86,.75-1.56,1.3-2.07,.51-.47,1.17-.71,2.03-.71,.77,0,1.44,.2,2.05,.62,.6,.41,1.1,1.08,1.47,1.98,.68,1.65,.86,4.33,.09,7.13-.33,1.19-.86,2.33-1.56,3.39l-.43,.65,3.41,1.45,.3-.43c.76-1.1,1.37-2.43,1.79-3.94,.43-1.5,.64-3.03,.64-4.56,0-2.31-.35-4.24-1.05-5.74-.71-1.53-1.67-2.69-2.86-3.44-1.18-.75-2.5-1.13-3.92-1.13-1.53,0-2.79,.33-3.75,.99-.94,.64-1.71,1.5-2.28,2.55-.54,1-.99,2.11-1.31,3.31-.31,1.15-.61,2.31-.89,3.47-.27,1.12-.58,2.15-.93,3.07-.32,.85-.77,1.55-1.32,2.06-.51,.47-1.17,.71-2.03,.71-.72,0-1.36-.2-1.95-.62-.59-.41-1.07-1.08-1.44-1.99-.38-.95-.57-2.23-.57-3.79,0-1.64,.29-3.21,.87-4.69,.58-1.47,1.29-2.66,2.13-3.51l.61-.63-3.33-1.69-.33,.32c-1.07,1.04-1.94,2.51-2.61,4.38-.66,1.85-.99,3.8-.99,5.82,0,2.33,.35,4.28,1.05,5.8,.71,1.54,1.67,2.71,2.86,3.48,1.19,.76,2.5,1.15,3.89,1.15,1.5,0,2.74-.33,3.7-1,.93-.64,1.68-1.5,2.24-2.55Z"/>
    <path class="cls-1" d="M32.93,477.67c-.86-.92-1.54-2.16-2.03-3.66-.5-1.53-.75-3.2-.75-4.97,0-2.57,.44-4.49,1.3-5.69,.83-1.15,1.87-1.72,3.18-1.72,.95,0,1.71,.24,2.31,.73,.61,.51,1.08,1.23,1.39,2.16,.33,.98,.49,2.13,.49,3.43v7.28h3.69v-7.16c0-1.74,.36-3.09,1.07-4.01,.67-.88,1.62-1.3,2.9-1.3s2.22,.53,3.04,1.62c.86,1.13,1.29,2.89,1.29,5.23,0,1.31-.15,2.59-.45,3.8-.3,1.2-.77,2.35-1.41,3.44l-.38,.65,3.42,1.33,.28-.46c.71-1.15,1.26-2.53,1.63-4.08,.37-1.54,.56-3.15,.56-4.8,0-2.33-.35-4.31-1.03-5.89-.7-1.62-1.65-2.85-2.83-3.67-1.19-.82-2.52-1.24-3.94-1.24s-2.59,.32-3.66,.95c-.88,.52-1.6,1.21-2.17,2.08-.57-1.21-1.37-2.2-2.38-2.94-1.1-.8-2.44-1.21-4-1.21s-2.93,.45-4.15,1.34c-1.21,.88-2.16,2.18-2.82,3.86-.65,1.64-.98,3.71-.98,6.16,0,2.2,.29,4.26,.87,6.11,.59,1.88,1.44,3.42,2.53,4.56l.33,.35,3.29-1.65-.58-.63Z"/>
    <path class="cls-1" d="M53.59,501.3v-5.29c0-.3-.24-.55-.54-.55h-8.6c-.43,0-.78-.35-.78-.78v-5.29c0-.43,.35-.78,.78-.78h8.6c.3,0,.54-.24,.54-.55v-5.29c0-.3-.24-.54-.54-.54h-8.6c-.3,0-.55,.24-.55,.55v5.29c0,.43-.35,.78-.78,.78h-1.99c-.3,0-.55,.24-.55,.55v5.29c0,.3,.24,.55,.55,.55h1.99c.43,0,.78,.35,.78,.78v5.29c0,.3,.24,.55,.55,.55h8.6c.3,0,.54-.24,.54-.55Z"/>
    <path class="cls-1" d="M37.05,501.3v-5.29c0-.43,.35-.78,.78-.78h1.99c.3,0,.55-.24,.55-.55v-5.29c0-.3-.24-.55-.55-.55h-1.99c-.43,0-.78-.35-.78-.78v-5.29c0-.3-.24-.55-.55-.55h-8.6c-.3,0-.55,.24-.55,.54v5.29c0,.3,.24,.55,.55,.55h8.6c.43,0,.78,.35,.78,.78v5.29c0,.43-.35,.78-.78,.78h-8.6c-.3,0-.55,.24-.55,.55v5.29c0,.3,.24,.55,.55,.55h8.6c.3,0,.55-.24,.55-.55Z"/>
    <path class="cls-1" d="M35.72,519.81c-2.2,0-3.78-.35-4.76-1.05-.98-.7-1.46-1.8-1.46-3.3,0-2.99,2.06-4.48,6.18-4.48h17.49v-3h-17.76c-5.69,0-8.54,2.49-8.54,7.48,0,2.48,.69,4.32,2.07,5.53,1.38,1.21,3.56,1.82,6.55,1.82h17.69v-3h-17.45Z"/>
    <path class="cls-1" d="M54.63,538.89c.87-1.02,1.32-2.47,1.32-4.32,0-1.04-.16-2.06-.48-3.05-.32-.99-.76-1.85-1.3-2.55l-.35-.46-2.44,1.47,.47,.58c.37,.46,.68,1.03,.9,1.69,.23,.67,.34,1.38,.34,2.13,0,.99-.19,1.72-.58,2.17-.35,.42-.92,.63-1.73,.63v-3.29c0-1.86-.34-3.21-1.05-4.12-.74-.95-1.74-1.43-2.96-1.43s-2.23,.49-2.98,1.45c-.71,.91-1.07,2.19-1.07,3.81,0,1.14,.2,2.14,.59,2.97,.13,.28,.27,.53,.43,.77h-.91v3.13h7.84c1.74,0,3.07-.53,3.97-1.57h0Zm-7.76-7.38c.38,0,.66,.15,.89,.5,.19,.29,.42,.88,.42,2.11v3.06h-1.12c-1.13-.58-1.68-1.62-1.68-3.18,0-.86,.15-1.52,.45-1.96,.26-.38,.58-.54,1.04-.54Z"/>
    <path class="cls-1" d="M52.01,564.3c.64-1.03,.7-2.45,.02-3.81-.31-.62-.76-1.22-1.33-1.8-.56-.56-1.21-1.06-1.94-1.49-.76-.45-1.66-.85-2.69-1.18-1.01-.33-2.42-.69-4.2-1.07l-6.11-1.3c-1.2-.25-2.15-.49-2.82-.7-.49-.16-.97-.36-1.43-.59,.99-3.64,.99-6.78,.03-8.61-.68-1.3-1.65-1.57-2.35-1.57-.65,0-1.57,.24-2.27,1.4-.49,.82-.74,1.9-.74,3.21,0,1.1,.21,2.21,.64,3.31,.38,.98,.9,1.85,1.56,2.61-.2,.71-.42,1.42-.65,2.14-.33,1.05-.59,1.9-.77,2.56-.18,.67-.33,1.34-.46,2.02-.16,.94-.25,1.71-.25,2.29,0,.31,.03,.65,.1,1.04l.06,.34,3.21,1.42-.22-1.21c-.13-.68-.19-1.29-.19-1.82,0-.76,.13-1.69,.38-2.75,.24-1.02,.63-2.36,1.17-4,.6,.39,1.26,.73,1.97,1.01,.99,.39,2.34,.77,4,1.13l7.62,1.63c1.25,.27,2.16,.5,2.7,.66,.52,.16,1.04,.37,1.54,.62,1.44,.73,2.13,1.57,2.13,2.57,0,.5-.19,.71-.34,.83-.27,.21-.7,.32-1.27,.32-.7,0-1.58-.16-2.62-.48-1.06-.33-2.05-.74-2.97-1.23l-1.14-.61,.5,3.32,.32,.15c.84,.38,1.76,.7,2.75,.94,1.01,.25,1.83,.37,2.51,.37,.77,0,1.46-.13,2.06-.39,.64-.28,1.13-.7,1.48-1.25Zm-22.93-13.95c-.25-.35-.46-.73-.63-1.14-.67-1.56-.63-3.45-.07-4.51,.21-.4,.44-.61,.66-.61,.66,0,.8,1.15,.8,2.12s-.25,2.35-.76,4.14Z"/>
    <path class="cls-1" d="M51.2,588.47c-.9-1.21-2.14-2.4-3.67-3.54-.58-.43-1.18-.84-1.8-1.22,.21,.02,.42,.04,.64,.05,1.8,.15,3.13,.22,3.95,.22h1.52l-1.51-3.32-.43,.02c-.29,.01-.61,.02-.98,.02-1.62,0-3.4-.12-5.31-.35-1.91-.23-3.78-.55-5.55-.93l-11.34-2.46v3.06l6.89,1.5-.07,.34c-.09,.47-.14,.88-.14,1.24,0,1.51,.42,3.04,1.26,4.56,.82,1.49,1.95,2.88,3.37,4.13,1.41,1.24,2.98,2.24,4.65,2.95,1.69,.73,3.41,1.09,5.1,1.09,1.42,0,2.58-.34,3.46-1,1.8-1.36,1.93-3.74-.03-6.37Zm-16.17-6.64l1.28,.28c1.82,.4,3.45,.87,4.83,1.39,1.37,.51,2.65,1.16,3.83,1.92,1.66,1.06,2.99,2.15,3.95,3.25,.9,1.02,1.35,1.9,1.35,2.61,0,.39-.17,.67-.55,.9-.47,.28-1.16,.43-2.06,.43-1.16,0-2.57-.25-4.19-.76-1.63-.51-3-1.12-4.07-1.83-1.15-.75-2.05-1.61-2.68-2.55-.98-1.47-1.09-2.95-.65-4.32l.14-.44-1.19-.89Z"/>
    <polygon class="cls-1" points="52.61 601.28 52.61 598 27.36 598 27.36 612.08 30.11 612.08 30.11 601.28 52.61 601.28"/>
    <path class="cls-1" d="M31.84,617.5c2.73-.92,5.75-1.39,8.97-1.39s6.28,.45,9.01,1.39c2.85,.96,5.14,2.27,7,3.99l.46,.42,1.3-1.3-.44-.46c-2.05-2.13-4.64-3.78-7.69-4.91-3.07-1.19-6.22-1.77-9.64-1.77s-6.61,.59-9.63,1.77c-3.02,1.15-5.58,2.8-7.62,4.91l-.44,.46,1.3,1.3,.46-.42c1.86-1.71,4.13-3.02,6.96-3.99Z"/>
    <path class="cls-1" d="M50.45,649.57c3.15-1.2,5.67-2.81,7.69-4.91l.44-.46-1.3-1.3-.46,.41c-1.9,1.72-4.26,3.06-7,3.99-2.81,.92-5.84,1.39-9.02,1.39s-6.14-.47-8.97-1.39c-2.73-.93-5.07-2.28-6.97-3.99l-.46-.41-1.3,1.3,.44,.46c1.98,2.06,4.54,3.71,7.62,4.92,3.13,1.17,6.37,1.77,9.63,1.77s6.47-.58,9.63-1.77h0Z"/>
    <path class="cls-1" d="M29.09,643.24c1.85,.08,3.85,.4,5.93,.95l.81,.22v-1.97l-.43-.15c-1.8-.65-3.01-1.26-3.58-1.8-.7-.7-1.05-1.79-1.05-3.25v-8.32c0-.65,.15-.89,.18-.94,0,0,.1-.1,.63-.1h8.46v7.3c0,.5-.09,.89-.28,1.17-.1,.16-.25,.33-.67,.46l-3.32,.92v1.65l.67-.02c2.09-.08,3.54-.11,4.36-.11,.45,0,1.15,0,2.12,.04l1.16,.04c.55,.02,.95,.03,1.18,.03h.65v-1.94l-2.48-.43c-.41-.08-.73-.21-.95-.4-.09-.19-.24-.62-.24-1.4v-7.3h7.71c.93,0,.93,.33,.93,.63v8.39c0,.55-.12,.98-.38,1.33-.22,.34-.57,.59-1.09,.81l-2.61,1.06v1.61l.69-.04c1.18-.07,1.91-.07,2.28-.07,.63,0,1.55,.04,2.73,.11l.7,.04-.02-.7c-.08-3.17-.11-6.03-.11-8.53,0-2.88,.04-6.42,.11-10.52v-.66s-1.77,0-1.77,0l-.46,3.24c-.01,.13-.05,.51-1.08,.51H31.25c-.31,0-.45-.06-.44-.01-.04-.06-.15-.28-.23-.83l-.32-3.05h-1.8v.66c.08,4.98,.12,8.54,.12,10.71,0,5-.04,8.37-.11,10.01l-.03,.65,.65,.03Z"/>
    <path class="cls-1" d="M59.81,704.98l-.39-1.11c-1.48-4.22-10.77-12.35-16.32-17.2-.6-.53-1.15-1.01-1.64-1.44-6.07-5.34-13.15-14.65-13.15-23.32,0-4.46,2.14-9.27,6.83-9.27,5.15,0,12.6,6.61,12.6,18.55,0,4.84-1.73,7.73-4.62,7.73-.09,0-.18,0-.27-.01,.92-2.52,1.38-5.07,1.38-7.57,0-7.9-4.73-14.26-8.64-14.26-3.15,0-4.33,4.68-4.33,7.63,0,7.03,5.41,13.69,10.22,15-.34,.84-.74,1.69-1.19,2.53l-.16,.29,.88,.44,.15-.28c.52-.96,.95-1.88,1.32-2.79,.2,.03,.41,.04,.64,.04,3.53,0,5.64-3.33,5.64-8.9,0-7.94-4.85-19.43-13.62-19.43-6.89,0-8.71,8.2-8.71,12.53,0,8.91,7.27,16.05,14.39,21.86,4.3,3.53,12.47,10.69,15.93,15.16-2.64-1.98-8.39-6.29-15.83-11.75-.83-4.46-4.24-6.79-7.21-6.79-.65,0-1.22,.1-1.72,.31l-4.93-3.58v2.39l.15,.09c1.15,.71,2.29,1.43,3.4,2.16-.46,.64-.71,1.52-.71,2.55,0,3.28,2.25,6.18,3.94,8.08l1.85,2.1,.82-.61-1.88-2.14c-1.61-1.83-3.74-4.59-3.74-7.43,0-.85,.19-1.52,.58-2.01,2.96,1.91,5.83,3.81,8.54,5.66,.06,.45,.09,.94,.09,1.44v.32h1.02v-.32c0-.24,0-.47-.02-.7,11.14,7.69,17.74,13.21,17.81,13.27l.9,.76Zm-24.21-46.86c3.07,0,7.62,5.56,7.62,13.24,0,2.39-.45,4.87-1.34,7.35-4.04-1.37-8.99-8.5-8.99-14.96,0-2.1,.35-5.63,2.71-5.63Zm-1.87,25.54c2.19,0,4.87,1.52,5.92,4.83-2.07-1.52-4.27-3.12-6.57-4.78,.21-.03,.43-.05,.65-.05Z"/>
    <path class="cls-1" d="M37.05,716.99v-1.98c0-.43,.35-.78,.78-.78h5.29c.3,0,.55-.24,.55-.55v-1.99c0-.3-.24-.54-.55-.54h-5.29c-.3,0-.55,.24-.55,.54v1.99c0,.43-.35,.78-.78,.78h-1.99c-.43,0-.78-.35-.78-.78v-8.6c0-.3-.24-.55-.55-.55h-5.29c-.3,0-.55,.24-.55,.55v11.91c0,.3,.24,.55,.55,.55h8.6c.3,0,.55-.24,.55-.55Z"/>
    <path class="cls-1" d="M53.59,716.99v-11.91c0-.3-.24-.55-.55-.55h-8.6c-.3,0-.55,.24-.55,.55v1.98c0,.43-.35,.78-.78,.78h-5.29c-.3,0-.55,.24-.55,.55v1.99c0,.3,.24,.55,.55,.55h5.29c.3,0,.55-.24,.55-.55v-1.99c0-.43,.35-.78,.78-.78h1.98c.43,0,.78,.35,.78,.78v8.6c0,.3,.24,.55,.55,.55h5.29c.3,0,.55-.24,.55-.55Z"/>
    <path class="cls-1" d="M38.15,738.39c-.91,0-1.89-.09-2.93-.25-1-.16-1.93-.49-2.79-.96-.83-.46-1.52-1.12-2.05-1.96-.53-.83-.8-1.97-.8-3.38s.27-2.55,.8-3.38c.54-.84,1.23-1.5,2.05-1.96,.85-.47,1.79-.8,2.79-.96,1.04-.17,2.03-.25,2.93-.25h16.38v-3.76h-17.02c-1.47,0-2.9,.17-4.24,.51-1.38,.34-2.62,.93-3.68,1.74-1.08,.82-1.95,1.91-2.59,3.23-.64,1.32-.96,2.95-.96,4.83s.32,3.51,.96,4.83c.64,1.32,1.51,2.41,2.59,3.23,1.06,.81,2.3,1.4,3.68,1.74,1.34,.34,2.77,.51,4.24,.51h17.02v-3.76h-16.38Z"/>
    <path class="cls-1" d="M28.7,810.12v-6.96c3.17-.06,6.51-.06,10.19-.06v4.55l-3.11,.35v1.35h7.63v-1.35l-3.14-.35v-4.55c3.43,0,6.6,0,9.71,.06v6.38l-4.42,.67v1.83l5.77-.32v-14.07h-1.28l-.16,2.21c-3.21,.1-6.44,.1-9.68,.1h-1.7c-.54,0-1.08,0-1.63,0l.11-.08-2.73-3.07c-8.02-9.02-13-21.36-13-32.21s4.95-17.44,13.25-17.44c11.65,0,25.72,15.25,25.72,34.19,0,8.25-3.05,12.99-8.38,12.99-1.49,0-3.07-.36-4.72-1.07,2.12-3.75,3.19-7.84,3.19-12.18,0-9.89-6.2-16.79-11.77-16.79-3.03,0-6.27,2.27-6.27,8.66,0,9.72,6.35,17.57,12.47,20.99-.76,1.13-1.59,2.19-2.53,3.22l-.48,.52,1.34,1,.4-.43c1.05-1.15,1.97-2.32,2.78-3.57,1.96,.87,3.84,1.3,5.58,1.3,3.02,0,10.05-1.43,10.05-14.65,0-19.86-14.98-35.85-27.39-35.85-9.2,0-14.92,7.32-14.92,19.11s5.17,24.07,13.48,33.39l1.76,1.97c-2.02,0-4.03-.03-6-.09l-.16-2.21h-1.31v14.68l5.74,.32v-1.86l-4.39-.67Zm5.25-37.18c0-4.38,1.72-6.99,4.6-6.99,4.22,0,10.1,5.75,10.1,15.12,0,4.06-1.02,7.91-3.03,11.44-5.72-3.15-11.67-10.46-11.67-19.57Z"/>
    <path class="cls-1" d="M31.16,819.59c.99-1.02,.99-2.69,0-3.71-.5-.52-1.15-.78-1.93-.78s-1.39,.26-1.91,.76c-.53,.51-.8,1.14-.8,1.87s.27,1.36,.79,1.87c.52,.51,1.17,.76,1.91,.76s1.43-.26,1.93-.78Z"/>
  </g>
  <g>
    <path class="cls-1" d="M53.63,181.86c1.36-2.59,2.05-5.63,2.05-9.04v-13.36H23.23v13.36c0,3.41,.69,6.45,2.05,9.04,1.37,2.6,3.3,4.66,5.74,6.11,2.44,1.45,5.27,2.18,8.43,2.18s5.99-.74,8.43-2.18c2.44-1.45,4.37-3.51,5.74-6.11Zm-2.3-17.6v8.39c0,2.6-.51,4.88-1.52,6.78-1,1.88-2.4,3.37-4.16,4.41-1.76,1.04-3.84,1.57-6.19,1.57s-4.4-.53-6.18-1.57c-1.77-1.04-3.17-2.52-4.18-4.41-1.01-1.9-1.52-4.18-1.52-6.78v-8.39h23.75Z"/>
    <polygon class="cls-1" points="51.33 193.63 51.33 199.9 27.58 199.9 27.58 193.63 23.23 193.63 23.23 210.88 27.58 210.88 27.58 204.65 51.33 204.65 51.33 210.88 55.68 210.88 55.68 193.63 51.33 193.63"/>
    <path class="cls-1" d="M61.08,271c0-7.11-16.36-16.52-21-18.55l-.04-.02c-.97-1.67-1.82-3.24-2.56-4.75,.16,.01,.31,.02,.47,.02,3.56,0,7.36-3.21,7.36-12.22s-5.41-14.73-10.68-16.14c1.77-3.46,4.63-5.44,7.91-5.44,6.39,0,13.18,7.11,13.18,20.3,0,5.64-.38,13.8-3.62,19.61l-.19,.35,1.03,.51,.18-.32c3.41-6.07,3.81-14.41,3.81-20.15,0-10.57-5.38-21.5-14.39-21.5-3.86,0-7.18,2.33-9.15,6.4-.43-.05-.82-.08-1.19-.08-7.38,0-10.06,9.03-10.06,15.09,0,10.19,9.14,15.69,17.15,19.34,6.67,11.06,15.2,19.08,20.3,19.08,.93,0,1.49-.57,1.49-1.53Zm-1.2,0c0,.3-.12,.33-.28,.33-4.43,0-12.2-7.22-18.38-16.97,6,3.03,18.66,10.94,18.66,16.64Zm-15.77-35.52c0,8.12-3.18,11.02-6.16,11.02-.23,0-.46-.02-.67-.05,1.68-2.39,2.56-5.14,2.56-8.01,0-7.97-3.49-13.25-6.88-13.85,.26-1.5,.65-2.89,1.18-4.13,4.89,1.16,9.97,6.74,9.97,15.02Zm-7.88,12.29c.61,1.28,1.29,2.57,2.02,3.87l-.5-.21c-1.15-.5-2.27-1.13-3.33-1.88l.25-.23c.62-.56,1.12-1.07,1.55-1.55Zm-3.68-17.99c0-1.49,.08-2.8,.23-4,2.56,.45,5.85,4.88,5.85,12.66,0,2.6-.72,4.98-2.15,7.08-2.58-5.73-3.93-11.16-3.93-15.74Zm-1.2,0c0,4.66,1.36,10.18,3.95,16.01-3.79-2.08-6.11-8.55-6.11-13.85,0-2.05,.32-5.43,2.37-6.1-.15,1.2-.22,2.5-.22,3.94Zm1.56-9.53c-.51,1.29-.9,2.75-1.16,4.33-3.57,.63-4.38,6.82-4.38,9,0,5.68,2.85,10.96,7.1,13.15,.24,.12,.5,.25,.76,.36-.38,.42-.81,.85-1.33,1.32l-.26,.23,.58,.78c-5.76-4.13-9.89-11.46-9.89-18.22,0-5.46,2.44-10.97,7.88-10.97,.25,0,.48,0,.69,.03Z"/>
    <path class="cls-1" d="M53.32,292.23c0,.5,.37,.93,1.1,1.27l.93,.41,3.17,1.44c.96-2.73,1.44-5.37,1.44-7.92,0-5.03-1.79-9.24-5.37-12.6-3.58-3.37-8.03-5.05-13.37-5.05-3.61,0-6.51,.91-8.71,2.73s-3.3,4.22-3.3,7.19c0,3.15,1.13,6.35,3.38,9.6l-3.74-.43c-3.49-.4-5.88-1.06-7.18-1.97-1.3-.91-1.96-2.4-1.96-4.47,0-2.74,1.27-4.77,3.82-6.1l-2.54-3.21c-2.07,1.68-3.11,4.03-3.11,7.05,0,3.28,1.24,6.1,3.71,8.45,1.22,1.18,2.56,2.03,4,2.54,1.45,.52,3.63,.94,6.55,1.27l8.67,.96c.59,.07,1.29,.2,2.09,.39l1.36,.35,.89,.22v-5.74l-.02-2.18c0-1.77-.19-2.97-.56-3.61s-1.29-1.32-2.76-2.04c.49,1.5,.73,3.49,.73,5.98v3.67l-7.77-.89c-1.95-2.32-2.93-4.72-2.93-7.2,0-2.69,.96-4.8,2.86-6.31,1.91-1.51,4.57-2.27,7.97-2.27,4.64,0,8.36,1.08,11.17,3.24,2.81,2.16,4.21,5.03,4.21,8.62,0,1.71-.36,3.22-1.07,4.5-.72,1.29-1.55,1.93-2.51,1.93-.29,0-.65-.1-1.1-.3-.04,.2-.07,.35-.07,.45Z"/>
    <path class="cls-1" d="M51.69,317.15l-.04,.72c-.18,2.92-.56,3.44-4.99,3.44h-11.63c-3.65,0-5.12-.21-6.62-1.45-1.47-1.27-2.35-3.57-2.35-6.14,0-2.18,.6-3.91,1.77-5.13,1.51-1.55,3.26-1.72,6.62-1.72h13.79c2.84,0,3.11,.09,3.4,3.33l.06,.7h2.3v-14.03h-2.31l-.05,.7c-.24,3.18-.48,3.27-2.95,3.27h-13.7c-4.92,0-8.25,1.27-10.2,3.88-1.47,1.95-2.19,4.56-2.19,7.97,0,4.28,1.17,7.48,3.48,9.5,2.47,2.18,5.12,2.58,9.43,2.58h11.27c4.06,0,4.56,.36,4.86,3.47l.07,.69h2.29v-11.78h-2.32Z"/>
    <path class="cls-1" d="M54.93,346.34v-14.05c0-.36-.29-.64-.64-.64h-10.14c-.35,0-.64,.29-.64,.64v2.34c0,.51-.41,.92-.92,.92h-6.24c-.35,0-.64,.29-.64,.64v2.34c0,.35,.29,.64,.64,.64h6.24c.35,0,.64-.29,.64-.64v-2.34c0-.51,.41-.92,.92-.92h2.34c.51,0,.92,.41,.92,.92v10.15c0,.35,.29,.64,.64,.64h6.24c.36,0,.64-.29,.64-.64Z"/>
    <path class="cls-1" d="M35.42,346.34v-2.34c0-.51,.41-.92,.92-.92h6.24c.35,0,.64-.29,.64-.64v-2.34c0-.35-.29-.64-.64-.64h-6.24c-.35,0-.64,.29-.64,.64v2.34c0,.51-.41,.92-.92,.92h-2.34c-.51,0-.92-.41-.92-.92v-10.15c0-.35-.29-.64-.64-.64h-6.24c-.35,0-.64,.29-.64,.64v14.05c0,.35,.29,.64,.64,.64h10.14c.36,0,.64-.29,.64-.64Z"/>
    <path class="cls-1" d="M62.23,371.82c0-6.18-2.2-11.49-6.54-15.79-4.3-4.34-9.61-6.55-15.79-6.55s-11.45,2.2-15.79,6.54c-4.34,4.34-6.54,9.65-6.54,15.79s2.2,11.4,6.55,15.79c4.39,4.34,9.7,6.54,15.78,6.54s11.45-2.2,15.79-6.54c4.34-4.34,6.54-9.65,6.54-15.79Zm-42.21,0c0-5.45,1.96-10.18,5.83-14.05,3.93-3.92,8.52-5.83,14.05-5.83s10.16,1.91,14.04,5.83h0c.75,.74,1.42,1.51,2.02,2.3-.36-.23-.81-.31-1.01-.36l-5.67-1.23c-.85-.23-1.35-.25-1.48-.25-.73,0-1.12,.52-1.12,1.03s.43,.98,1.44,1.52c2.06,1.03,2.74,1.6,2.94,1.8,.54,.54,.79,1.37,.79,2.6v4.94H29.73c-.83,0-1.09-.12-1.09-.11-.17-.13-.33-.48-.46-1l-.83-4.06h-2.09l.05,.81c.12,1.95,.18,3.91,.18,5.83,0,2.13-.06,4.07-.18,5.92l-.05,.81h2.09l.88-3.97c.17-.64,.32-.78,.31-.77,.06-.03,.35-.16,1.16-.16h22.18v4.94c0,1.34-.19,2.25-.53,2.64-.17,.17-.76,.62-2.47,1.04-1.34,.33-2.21,.61-2.21,1.4,0,.38,.21,1.03,1.59,1.03l6.46,.09c.19,0,.35-.02,.49-.05-.39,.46-.81,.91-1.25,1.36-3.87,3.87-8.6,5.83-14.05,5.83s-10.14-1.96-14.04-5.83c-3.87-3.91-5.83-8.64-5.83-14.05Zm34.94,10.35c-.18-.08-.51-.64-.51-2.22v-15.96c0-.89,.12-1.1,.16-1.17,.07-.12,.32-.35,.79-.58h.02c.58-.33,1.11-.66,1.11-1.26,0-.06,0-.11-.01-.16,2.19,3.19,3.26,6.82,3.26,10.99s-1.19,8.14-3.61,11.46c-.08-.74-.93-1.02-1.21-1.11Z"/>
    <path class="cls-1" d="M28.47,401.76c1.16-1.2,1.16-3.17,0-4.37-.59-.61-1.35-.92-2.27-.92s-1.64,.3-2.25,.9c-.62,.6-.94,1.35-.94,2.21s.32,1.6,.94,2.2c.62,.6,1.37,.9,2.25,.9s1.68-.31,2.27-.92Z"/>
  </g>
  <path class="cls-1" d="M22.2,1099.44c0,3.81,1.01,6.74,2.96,8.8,1.99,2.07,4.87,3.13,8.64,3.13h17.93v-4.42h-18.01c-2.6,0-4.5-.61-5.76-1.79-1.26-1.22-1.91-3.12-1.91-5.72s.65-4.54,1.91-5.76c1.26-1.22,3.16-1.79,5.76-1.79h18.01v-4.42h-17.93c-3.77,0-6.65,1.06-8.68,3.16-1.95,2.03-2.92,4.95-2.92,8.8Z"/>
  <path class="cls-1" d="M21.03,1126.7c0,5.61,3.32,10.52,11.09,16.41,.1,.08,7.73,6.31,12.98,11.03-6.6-4.53-15.47-9.66-22.43-13.37-.14-.08-.28-.12-.44-.12-.43,0-.78,.34-.78,.77,0,.15,.05,.43,.39,.67,5.6,3.79,23.75,19.66,30.56,29.17l.27,.38,.69-.89-.15-.21c-5.74-8.1-19.53-20.66-28.24-27.38,8.77,4.89,19.37,11.18,25.13,16.02l.25,.21,.67-.67-.16-.24c-2.12-3.2-17.4-15.59-18.06-16.12-.95-.71-1.85-1.5-2.69-2.36l.13-.11c.94-.75,1.75-1.51,2.45-2.34,.31,.05,.68,.09,1.08,.09,2.84,0,5.87-2.38,5.87-9.06,0-7.96-5.63-13.5-10.69-13.5-6.25,0-7.91,7.31-7.91,11.63Zm17.56,1.87c0,5.91-2.49,8.01-4.82,8.01-.11,0-.21,0-.32-.01,1.53-2.1,2.33-4.49,2.33-6.93,0-5.23-3.59-9.44-6.56-9.44-3.29,0-4.17,4.3-4.17,6.84,0,4.57,2.81,8.92,6.49,10.2-.6,.65-1.25,1.25-1.95,1.81l-.21,.17c-3.96-4.33-6.51-10.01-6.51-14.96,0-4.06,1.88-8.15,6.07-8.15,4.56,0,9.64,5.11,9.64,12.45Zm-6.27,7.77c-3.46-1.11-5.77-6-5.77-9.99,0-.52,.08-5.1,2.67-5.1s5.51,3.87,5.51,8.4c0,2.35-.83,4.66-2.41,6.7Z"/>
  <rect class="cls-1" x="22.76" y="1171.11" width="28.97" height="4.38"/>
  <path class="cls-1" d="M24.64,1196.17c1.25,1.58,3.03,2.81,5.35,3.67,2.32,.86,5.01,1.3,8.07,1.3,3.23,0,6.03-.41,8.4-1.23,2.36-.82,4.13-2.04,5.3-3.67,1.17-1.63,1.75-4.12,1.75-7.48v-7.29H22.76v7.29c0,3.35,.62,5.82,1.87,7.41Zm1.52-10.7h24.28v2.99c0,2.46-.43,4.24-1.28,5.32-.85,1.08-2.07,1.91-3.66,2.49-1.59,.58-3.85,.87-6.8,.87s-5.37-.25-7.09-.74c-1.71-.49-3.05-1.32-4.01-2.47-.97-1.15-1.45-3.08-1.45-5.78v-2.67Z"/>
  <path class="cls-1" d="M22.67,1217.43c.42,1.2,.98,2.31,1.65,3.29,.67,.98,1.44,1.8,2.28,2.43,.85,.65,1.72,.97,2.59,.97,.97,0,1.8-.33,2.46-.99,.67-.66,1.01-1.64,1.01-2.93s-.31-2.42-.93-3.41c-.61-.98-1.43-1.84-2.44-2.56l-.14-.1-.38,.53,.15,.1c.36,.25,.73,.55,1.09,.9,.36,.35,.68,.73,.97,1.14,.28,.4,.51,.83,.67,1.28,.17,.44,.25,.9,.25,1.36,0,.86-.25,1.49-.73,1.87-.5,.39-1.24,.59-2.22,.59s-1.89-.25-2.63-.73c-.75-.49-1.38-1.13-1.87-1.88-.5-.75-.87-1.6-1.12-2.5-.52-1.88-.51-3.6,.1-5,.31-.73,.73-1.36,1.23-1.87,.5-.51,1.09-.92,1.76-1.21,.67-.29,1.36-.44,2.05-.44,1.26,0,2.32,.21,3.13,.62,.82,.42,1.53,.97,2.1,1.64,.58,.68,1.08,1.47,1.48,2.34,.42,.89,.83,1.79,1.25,2.69,.38,.84,.89,1.46,1.52,1.85,.63,.39,1.4,.58,2.31,.58,.65,0,1.38,.09,2.16,.27,.78,.18,1.51,.48,2.17,.88,.66,.4,1.21,.95,1.65,1.61,.43,.66,.65,1.49,.65,2.47,0,1.06-.23,1.9-.69,2.49-.45,.59-1.17,.87-2.19,.87-.37,0-.81-.08-1.3-.25-.49-.17-.96-.42-1.41-.76-.44-.33-.83-.75-1.14-1.25-.3-.49-.46-1.07-.46-1.73,0-.69,.05-1.18,.16-1.46l.08-.22-.74-.07-.05,.12c-.05,.13-.1,.35-.15,.66-.05,.3-.07,.62-.07,.96,0,.66,.11,1.35,.32,2.03,.21,.69,.54,1.33,.96,1.89,.43,.57,.96,1.04,1.58,1.4,.63,.36,1.34,.54,2.13,.54,.66,0,1.23-.16,1.71-.46,.47-.3,.86-.69,1.16-1.16,.3-.46,.52-.99,.65-1.56,.13-.57,.2-1.14,.2-1.71,0-1.36-.21-2.56-.64-3.59-.42-1.02-1.01-1.88-1.73-2.56-.72-.67-1.56-1.18-2.49-1.51-.93-.33-1.92-.5-2.96-.5-.66,0-1.2-.02-1.59-.07-.38-.04-.7-.13-.93-.24-.22-.11-.41-.27-.54-.48-.14-.22-.31-.52-.49-.91-.43-.99-.9-1.98-1.39-2.94-.49-.97-1.06-1.83-1.69-2.57-.63-.74-1.39-1.35-2.23-1.81-.85-.46-1.88-.7-3.07-.7-.86,0-1.65,.19-2.37,.56s-1.34,.91-1.86,1.61c-.52,.69-.92,1.55-1.21,2.55-.28,.99-.42,2.15-.42,3.43,0,1.17,.21,2.37,.63,3.58Z"/>
  <polygon class="cls-1" points="44.83 1232.86 22.76 1242.88 22.76 1246.49 50.71 1246.49 50.71 1243.3 28.85 1243.3 50.71 1233.24 50.71 1229.61 22.76 1229.61 22.76 1232.86 44.83 1232.86"/>
  <polygon class="cls-1" points="22.76 1260.54 22.76 1264.92 47.96 1264.92 47.96 1274.57 51.73 1274.57 51.73 1250.84 47.96 1250.84 47.96 1260.54 22.76 1260.54"/>
  <rect class="cls-1" x="22.76" y="1278.14" width="28.97" height="4.38"/>
  <polygon class="cls-1" points="35.75 1292.7 35.75 1307.1 39.52 1307.1 39.52 1292.7 47.96 1292.7 47.96 1307.96 51.73 1307.96 51.73 1288.28 22.76 1288.28 22.76 1292.7 35.75 1292.7"/>
  <path class="cls-1" d="M19.15,1316.55l.57,.61c2.23-1.95,4.83-3.41,7.79-4.38,2.96-.97,6.25-1.46,9.9-1.46s6.94,.49,9.86,1.46c2.96,.97,5.56,2.43,7.75,4.38l.57-.61c-2.19-2.19-4.87-3.94-8.03-5.15-3.25-1.3-6.61-1.91-10.18-1.91s-6.9,.61-10.14,1.87c-3.16,1.26-5.88,3-8.07,5.19Z"/>
  <path class="cls-1" d="M24.71,1335.66h1.26l.36-2.72c.16-1.01,.69-1.5,1.62-1.5h18.83c.41,0,.77,.08,1.01,.28,.32,.24,.53,.65,.61,1.26l.37,2.68h1.26c-.08-2.68-.12-4.79-.12-6.33,0-1.7,.08-3.81,.16-6.37h-1.3l-.37,2.68c-.08,.57-.2,.97-.41,1.18-.24,.2-.65,.33-1.22,.33H27.96c-.57,0-.97-.12-1.22-.33-.16-.2-.33-.61-.41-1.18l-.36-2.68h-1.3c.12,2.6,.16,4.71,.16,6.37,0,1.54-.04,3.65-.12,6.33Z"/>
  <path class="cls-1" d="M55.59,1342.03l-.57-.61c-2.19,1.91-4.79,3.37-7.75,4.38-2.92,.97-6.21,1.46-9.86,1.46s-6.94-.49-9.9-1.46c-2.96-1.01-5.56-2.47-7.79-4.38l-.57,.61c2.19,2.19,4.91,3.9,8.07,5.19,3.25,1.22,6.61,1.87,10.14,1.87s6.94-.65,10.18-1.91c3.16-1.26,5.84-2.96,8.03-5.15Z"/>
  <path class="cls-1" d="M23.47,1357.05c-.69,1.8-1.04,4.02-1.04,6.67,0,2.32,.29,4.47,.87,6.45,.58,1.97,1.39,3.57,2.41,4.79l3.16-1.38c-.95-1.11-1.68-2.52-2.19-4.24-.51-1.72-.77-3.52-.77-5.42,0-2.81,.45-4.89,1.36-6.23s2.09-2.01,3.55-2.01c1.03,0,1.88,.28,2.55,.85,.68,.57,1.18,1.37,1.5,2.39,.33,1.03,.49,2.23,.49,3.61v7.46h3.49v-7.3c0-1.87,.38-3.3,1.14-4.3,.76-1,1.84-1.5,3.24-1.5s2.48,.63,3.39,1.89c.91,1.26,1.36,3.16,1.36,5.7,0,1.46-.16,2.86-.47,4.2-.31,1.34-.8,2.64-1.48,3.91l3.24,1.18c.7-1.22,1.24-2.65,1.62-4.3,.38-1.65,.57-3.37,.57-5.15,0-2.57-.36-4.71-1.1-6.43-.73-1.72-1.7-2.99-2.9-3.81-1.2-.83-2.52-1.24-3.96-1.24-1.32,0-2.51,.29-3.57,.87-1.05,.58-1.88,1.42-2.47,2.51-.08,.15-.14,.31-.21,.47-.11-.32-.23-.63-.37-.93-.58-1.24-1.41-2.24-2.49-3-1.08-.76-2.37-1.14-3.85-1.14-1.57,0-2.97,.45-4.2,1.36-1.23,.91-2.19,2.26-2.88,4.06Z"/>
  <path class="cls-1" d="M26.66,1399.63c2.52,2.31,6.05,3.49,10.59,3.49s8.12-1.14,10.55-3.41c2.64-2.43,3.94-5.96,3.94-10.63v-10.55H22.76v10.47c0,4.67,1.3,8.2,3.89,10.63Zm-.12-16.68h21.42v5.31c0,3.65-.85,6.33-2.6,8.03-1.7,1.62-4.38,2.48-8.12,2.48s-6.33-.85-8.07-2.52c-1.74-1.7-2.64-4.42-2.64-8.07v-5.23Z"/>
  <path class="cls-1" d="M52.25,1463.59c0-2.11-.41-3.98-1.24-5.62-.83-1.64-1.99-2.9-3.51-3.79,1.49-.73,2.65-1.86,3.49-3.39,.84-1.53,1.26-3.35,1.26-5.46s-.39-3.81-1.18-5.33c-.79-1.53-1.88-2.71-3.29-3.55h4.14v-3.89H23.53v4.06h16.96c2.73,0,4.77,.7,6.12,2.09s2.03,3.28,2.03,5.66c0,2.14-.64,3.82-1.91,5.05-1.27,1.23-3.16,1.85-5.68,1.85H23.53v4.02h16.96c2.76,0,4.81,.68,6.15,2.05,1.34,1.36,2.01,3.22,2.01,5.58,0,2.14-.64,3.85-1.93,5.15-1.28,1.3-3.17,1.95-5.66,1.95H23.53v4.02h17.65c3.6,0,6.34-.92,8.23-2.76,1.89-1.84,2.84-4.39,2.84-7.67Z"/>
  <path class="cls-1" d="M41.01,1492.65c-.79,0-1.48-.29-2.05-.86-.57-.57-.86-1.26-.86-2.08s.29-1.48,.86-2.05c.57-.57,1.25-.86,2.05-.86h8.74v-5.84h-8.74c-3.43,0-5.37,1.95-5.84,5.84h-11.64v5.84h11.64c.47,3.87,2.41,5.81,5.84,5.81h8.74v-5.81h-8.74Z"/>
  <path class="cls-1" d="M37.53,1523.42c.69-1.14,1.62-3.69,2.84-7.59,.81-2.72,1.42-4.38,1.79-5.03,.77-1.46,1.79-2.15,3.08-2.15,1.46,0,2.52,.61,3.16,1.87,.57,1.01,.85,2.48,.85,4.38,0,2.19-.41,3.81-1.26,4.95-.81,1.14-2.19,1.87-4.06,2.27v4.38c3.16-.28,5.48-1.42,6.98-3.45,1.46-1.91,2.15-4.54,2.15-7.91,0-3.08-.69-5.64-2.07-7.67-1.46-2.15-3.45-3.2-6-3.2s-4.46,1.1-5.8,3.33c-.49,.89-1.26,3.08-2.39,6.65-.97,3.2-1.62,5.11-1.95,5.76-.93,1.82-2.19,2.76-3.81,2.76-1.3,0-2.31-.65-3.04-1.95-.73-1.3-1.14-3.04-1.14-5.23,0-2.43,.45-4.22,1.34-5.4,.97-1.3,2.64-2.11,4.91-2.43v-4.38c-3.65,.24-6.33,1.54-8.03,3.94-1.38,1.99-2.11,4.75-2.11,8.28s.73,6.49,2.19,8.52c1.5,2.03,3.53,3.04,6.13,3.04s4.75-1.26,6.25-3.73Z"/>
  <polygon class="cls-1" points="48.72 1529.01 48.72 1538.71 23.53 1538.71 23.53 1543.09 48.72 1543.09 48.72 1552.75 52.5 1552.75 52.5 1529.01 48.72 1529.01"/>
  <polygon class="cls-1" points="36.51 1560.66 36.51 1576.07 40.28 1576.07 40.28 1560.66 48.72 1560.66 48.72 1577.05 52.5 1577.05 52.5 1556.23 23.53 1556.23 23.53 1577.74 27.3 1577.74 27.3 1560.66 36.51 1560.66"/>
  <rect class="cls-1" x="26.33" y="1601.25" width="4.37" height="4.37"/>
  <rect class="cls-1" x="39.47" y="1605.62" width="8.74" height="4.37"/>
  <polygon class="cls-1" points="48.18 1588.14 48.18 1605.62 52.55 1605.62 52.55 1583.76 21.95 1583.76 21.95 1588.14 35.07 1588.14 35.07 1596.88 30.7 1596.88 30.7 1601.25 35.07 1601.25 35.07 1605.62 39.44 1605.62 39.44 1588.14 48.18 1588.14"/>
  <rect class="cls-1" x="23.53" y="1618.05" width="28.97" height="4.38"/>
  <path class="cls-1" d="M57.93,1645.64c0-5.48-1.91-10.14-5.8-14-3.85-3.89-8.52-5.8-14-5.8s-10.1,1.91-14,5.8c-3.85,3.85-5.8,8.52-5.8,14s1.95,10.1,5.8,14c3.89,3.85,8.56,5.8,14,5.8s10.14-1.95,14-5.8,5.8-8.56,5.8-14Zm-32.54,12.74c-3.49-3.57-5.23-7.79-5.23-12.74s1.74-9.21,5.23-12.74c3.57-3.49,7.79-5.23,12.74-5.23s9.21,1.75,12.74,5.23c3.49,3.53,5.23,7.79,5.23,12.74s-1.75,9.17-5.23,12.74c-3.53,3.49-7.79,5.23-12.74,5.23s-9.17-1.74-12.74-5.23Z"/>
  <path class="cls-1" d="M52.17,1645.64c0-4.18-1.34-7.47-4.1-9.9-2.6-2.27-5.96-3.37-10.1-3.37s-7.46,1.1-10.02,3.37c-2.68,2.43-4.06,5.72-4.06,9.9s1.34,7.46,3.98,9.9c2.6,2.27,5.97,3.41,10.1,3.41s7.59-1.14,10.14-3.41c2.72-2.43,4.06-5.72,4.06-9.9Zm-21.71,6.61c-1.79-1.54-2.72-3.73-2.72-6.61s.97-5.07,2.84-6.61c1.83-1.54,4.3-2.27,7.38-2.27s5.64,.77,7.51,2.31c1.91,1.54,2.84,3.73,2.84,6.57s-.93,5.07-2.8,6.61c-1.79,1.54-4.3,2.31-7.55,2.31s-5.72-.77-7.51-2.31Z"/>
  <path class="cls-1" d="M34.48,1688.23c-2.6,0-4.5-.61-5.76-1.79-1.26-1.22-1.91-3.12-1.91-5.72s.65-4.54,1.91-5.76c1.26-1.22,3.16-1.79,5.76-1.79h18.01v-4.42h-17.93c-3.77,0-6.65,1.06-8.68,3.16-1.95,2.03-2.92,4.95-2.92,8.8s1.01,6.74,2.96,8.8c1.99,2.07,4.87,3.13,8.64,3.13h17.93v-4.42h-18.01Z"/>
  <path class="cls-1" d="M57.58,1748.65c0-6.52-15.02-15.16-19.27-17.03l-.04-.02c-.89-1.53-1.67-2.97-2.35-4.36,.14,.01,.29,.02,.43,.02,3.27,0,6.76-2.95,6.76-11.22s-4.97-13.52-9.8-14.82c1.63-3.18,4.25-4.99,7.26-4.99,5.87,0,12.1,6.53,12.1,18.63,0,5.18-.34,12.67-3.32,18l-.18,.32,.95,.48,.16-.29c3.13-5.58,3.49-13.23,3.49-18.5,0-9.7-4.94-19.73-13.2-19.73-3.54,0-6.59,2.14-8.4,5.87-.39-.05-.75-.07-1.09-.07-6.77,0-9.23,8.28-9.23,13.85,0,9.35,8.39,14.4,15.74,17.75,6.12,10.15,13.95,17.51,18.63,17.51,.85,0,1.36-.52,1.36-1.4Zm-1.11,0c0,.28-.11,.3-.26,.3-4.06,0-11.2-6.63-16.87-15.57,5.5,2.78,17.12,10.04,17.12,15.28Zm-14.48-32.6c0,7.46-2.92,10.11-5.65,10.11-.2,0-.4-.01-.62-.04,1.54-2.19,2.35-4.72,2.35-7.35,0-7.32-3.21-12.16-6.31-12.71,.23-1.37,.6-2.65,1.08-3.79,4.49,1.07,9.16,6.19,9.16,13.79Zm-7.24,11.28c.56,1.17,1.19,2.36,1.86,3.55l-.46-.2c-1.06-.46-2.08-1.04-3.06-1.72l.23-.21c.57-.52,1.03-.98,1.43-1.42Zm-3.38-16.52c0-1.36,.07-2.57,.21-3.67,2.35,.42,5.37,4.48,5.37,11.62,0,2.39-.66,4.57-1.98,6.5-2.36-5.26-3.61-10.24-3.61-14.45Zm-1.11,0c0,4.28,1.25,9.35,3.63,14.7-3.48-1.91-5.6-7.85-5.6-12.71,0-1.88,.3-4.99,2.18-5.6-.14,1.11-.2,2.29-.2,3.61Zm1.43-8.75c-.47,1.19-.83,2.52-1.06,3.98-3.27,.58-4.02,6.26-4.02,8.26,0,5.21,2.62,10.06,6.52,12.07,.21,.11,.45,.22,.7,.33-.35,.39-.74,.78-1.22,1.21l-.24,.21,.53,.71c-5.29-3.79-9.08-10.52-9.08-16.72,0-5.01,2.24-10.07,7.23-10.07,.23,0,.44,0,.64,.02Z"/>
  <path class="cls-1" d="M52.5,1757.51l-28.97-11.16v4.71l7.46,2.72v12.46l-7.46,2.72v4.75l28.97-11.16v-5.03Zm-17.85-2.39l13.1,4.83v.16l-13.1,4.79v-9.78Z"/>
  <polygon class="cls-1" points="30.95 1795.96 30.95 1795.8 52.5 1780.99 52.5 1776.53 23.53 1776.53 23.53 1780.95 45.32 1780.95 45.32 1781.11 23.53 1796.08 23.53 1800.39 52.5 1800.39 52.5 1795.96 30.95 1795.96"/>
  <rect class="cls-1" x="23.53" y="1806.18" width="28.97" height="4.38"/>
  <polygon class="cls-1" points="35.7 1831.58 51.93 1824.23 51.73 1815.1 49.49 1815.1 48.68 1818.55 26.77 1818.55 25.96 1815.1 23.53 1815.1 23.53 1826.06 25.96 1826.06 26.77 1822.2 47.06 1822.2 44.22 1823.22 31.03 1829.51 31.24 1832.75 44.02 1839.04 47.06 1840.26 26.77 1840.26 25.96 1836.4 23.53 1836.4 23.53 1847.76 25.96 1847.76 26.77 1844.32 48.68 1844.32 49.49 1847.76 51.93 1847.76 51.73 1839.24 35.7 1831.58"/>
  <path class="cls-1" d="M52.5,1860.54l-28.97-11.16v4.71l7.46,2.72v12.46l-7.46,2.72v4.75l28.97-11.16v-5.03Zm-17.85-2.39l13.1,4.83v.16l-13.1,4.79v-9.78Z"/>
  <polygon class="cls-1" points="52.5 1883.94 52.5 1879.56 23.53 1879.56 23.53 1899.88 27.3 1899.88 27.3 1883.94 52.5 1883.94"/>
  <path class="cls-1" d="M28.48,1908.36c.57-.61,.85-1.34,.85-2.15,0-.89-.28-1.58-.85-2.11-.57-.61-1.3-.89-2.19-.89-.81,0-1.54,.28-2.15,.89-.53,.53-.81,1.22-.81,2.11,0,.81,.28,1.54,.81,2.15,.61,.57,1.34,.89,2.15,.89,.89,0,1.62-.33,2.19-.89Z"/>
  <g>
    <path class="cls-1" d="M38.76,1927.61c3.79,0,7.19,.5,10.22,1.51,3.07,1.01,5.76,2.52,8.04,4.54l.59-.63c-2.27-2.27-5.05-4.08-8.33-5.34-3.37-1.35-6.86-1.98-10.56-1.98s-7.15,.63-10.52,1.94c-3.28,1.3-6.1,3.11-8.37,5.39l.59,.63c2.31-2.02,5.01-3.53,8.08-4.54,3.07-1.01,6.48-1.51,10.27-1.51Z"/>
    <path class="cls-1" d="M48.86,1956.6c2.02-2.69,2.99-6.4,2.99-11.11,0-2.19-.13-6.31-.38-12.37h-1.26c-.13,.76-.29,1.51-.5,2.31-.08,.5-.29,.88-.55,1.14-.29,.29-.72,.46-1.22,.46H29.59c-1.05,0-1.73-.59-1.98-1.77l-.59-2.57h-1.26c-.13,6.52-.21,11.32-.21,14.43,0,4.21,1.22,7.57,3.58,10.1,2.44,2.52,5.68,3.79,9.8,3.79,4.38,0,7.7-1.47,9.93-4.42Zm-18.39-3.24c-2.1-1.85-3.2-4.5-3.2-7.87,0-1.81,.25-2.99,.72-3.49,.38-.38,1.14-.55,2.31-.55h17.46c.88,0,1.52,.29,1.89,.88,.34,.42,.46,1.09,.46,1.98,0,3.66-.84,6.52-2.61,8.54-1.85,2.19-4.67,3.28-8.42,3.28s-6.52-.93-8.62-2.78Z"/>
    <path class="cls-1" d="M57.61,1959.46l-.59-.63c-2.27,1.98-4.96,3.49-8.04,4.54-3.03,1.01-6.44,1.51-10.22,1.51s-7.19-.5-10.27-1.51c-3.07-1.05-5.76-2.57-8.08-4.54l-.59,.63c2.27,2.27,5.09,4.04,8.37,5.39,3.37,1.26,6.86,1.93,10.52,1.93s7.19-.67,10.56-1.98c3.28-1.3,6.06-3.07,8.33-5.34Z"/>
    <path class="cls-1" d="M53.61,1978.85l-30.04-11.57v4.88l7.74,2.82v12.92l-7.74,2.82v4.92l30.04-11.57v-5.22Zm-18.51-2.48l13.59,5.01v.17l-13.59,4.96v-10.14Z"/>
    <rect class="cls-1" x="23.57" y="1998.66" width="30.04" height="4.54"/>
    <path class="cls-1" d="M23.57,2053.05h11.99l13.85,9.14c-1.71,2.41-3.55,4.48-5.29,6.18l-.23,.22,.65,.87,.3-.29c2.07-2,3.91-4.13,5.53-6.35l3.24,2.14v-5.51l-.73-.46c3.44-5.89,5.31-12.23,5.31-18.39,0-19.15-11.66-34.73-25.99-34.73-7.35,0-11.81,4.39-13.27,13.06-2.94-1.72-5.66-2.59-8.09-2.59-7,0-10.85,7.17-10.85,20.19,0,7.13,1.52,13.73,4.28,18.61,2.47,4.37,5.77,6.98,8.82,6.98,4.69,0,7.49-5.64,7.49-15.08,0-3.72-.28-7.39-.55-10.93-.26-3.43-.53-6.97-.53-10.45,0-1.72,.09-3.38,.27-4.96,3.4,2.22,7.03,5.52,10.79,9.81l1.01,1.15,.87-.65-1.05-1.19c-3.99-4.53-7.84-7.99-11.47-10.29,1.23-7.93,5.06-12.29,10.8-12.29,12.01,0,25.44,14.79,25.44,34.58,0,6.41-1.82,11.93-4.34,16.51l-11.97-7.54,13.76-8.67v-5.51l-18.05,11.91h-11.99v4.54Zm-4.8-32.98c-.23,1.72-.35,3.6-.35,5.59,0,3.7,.28,7.36,.55,10.9,.26,3.44,.53,6.99,.53,10.47,0,6.76-1.7,13.98-6.46,13.98s-11.96-8.72-11.96-24.49c0-12.3,3.49-19.07,9.84-19.07,2.33,0,4.97,.88,7.85,2.61Z"/>
    <path class="cls-1" d="M28.71,2073.12c.59-.63,.88-1.39,.88-2.23,0-.93-.29-1.64-.88-2.19-.59-.63-1.35-.93-2.27-.93-.84,0-1.6,.29-2.23,.93-.55,.55-.84,1.26-.84,2.19,0,.84,.29,1.6,.84,2.23,.63,.59,1.39,.93,2.23,.93,.92,0,1.68-.34,2.27-.93Z"/>
  </g>
</svg>