<?xml version="1.0" encoding="UTF-8"?>
<svg id="_圖層_2" data-name="圖層 2" xmlns="http://www.w3.org/2000/svg" viewBox="0 0 76.25 4143.55">
  <defs>
    <style>
      .cls-1 {
        fill: #fff86f;
      }
    </style>
  </defs>
  <g>
    <path class="cls-1" d="M33.36,25.4c-3.39,0-5.87-.79-7.51-2.33-1.64-1.59-2.49-4.07-2.49-7.46s.85-5.93,2.49-7.51,4.13-2.33,7.51-2.33h23.5V0h-23.39c-4.92,0-8.68,1.38-11.33,4.13-2.54,2.65-3.81,6.46-3.81,11.48s1.32,8.78,3.86,11.48c2.59,2.7,6.35,4.07,11.27,4.07h23.39v-5.77h-23.5Z"/>
    <path class="cls-1" d="M58.08,109.79l.9-1.16-.2-.28c-7.49-10.57-25.47-26.95-36.84-35.72,11.44,6.38,25.27,14.59,32.78,20.9l.32,.27,.88-.88-.21-.31c-2.77-4.17-22.7-20.33-23.56-21.03-1.24-.93-2.41-1.96-3.51-3.08l.17-.14c1.21-.96,2.29-1.99,3.2-3.06,.4,.06,.89,.12,1.4,.12,3.7,0,7.65-3.11,7.65-11.82,0-10.38-7.35-17.61-13.95-17.61-8.15,0-10.32,9.54-10.32,15.17,0,7.32,4.33,13.72,14.47,21.4,.13,.11,10.08,8.22,16.93,14.39-8.61-5.92-20.18-12.59-29.26-17.44-.17-.1-.37-.16-.58-.16-.56,0-1.02,.45-1.02,1,0,.19,.07,.56,.52,.88,7.31,4.95,30.98,25.65,39.86,38.05l.36,.5Zm-18.37-56.17c0,7.71-3.25,10.45-6.29,10.45-.14,0-.28,0-.42-.02,1.99-2.74,3.05-5.85,3.05-9.03,0-6.82-4.68-12.32-8.56-12.32-4.29,0-5.44,5.61-5.44,8.92,0,5.96,3.67,11.64,8.47,13.31-.78,.84-1.63,1.63-2.55,2.36l-.28,.22c-5.16-5.65-8.49-13.06-8.49-19.51,0-5.29,2.45-10.64,7.92-10.64,5.95,0,12.58,6.67,12.58,16.25Zm-8.18,10.14c-4.52-1.45-7.53-7.83-7.53-13.03,0-.68,.1-6.65,3.48-6.65s7.19,5.05,7.19,10.95c0,3.07-1.09,6.08-3.15,8.73Z"/>
    <rect class="cls-1" x="19.07" y="109.11" width="37.78" height="5.72"/>
    <path class="cls-1" d="M56.89,141.91c1.52-2.13,2.29-5.38,2.29-9.75v-9.51H19.07v9.51c0,4.38,.81,7.6,2.44,9.66,1.63,2.07,3.95,3.66,6.98,4.79,3.02,1.13,6.53,1.69,10.53,1.69,4.22,0,7.87-.53,10.96-1.6,3.08-1.07,5.39-2.67,6.91-4.79Zm-26.27,.21c-2.23-.65-3.98-1.72-5.24-3.22-1.26-1.5-1.89-4.02-1.89-7.55v-3.48h31.68v3.9c0,3.22-.56,5.53-1.67,6.94-1.11,1.41-2.7,2.49-4.77,3.25-2.07,.76-5.03,1.13-8.87,1.13s-7.01-.32-9.25-.97Z"/>
    <path class="cls-1" d="M50.43,181.81c.39-.61,.67-1.29,.85-2.04,.17-.74,.25-1.49,.25-2.22,0-1.77-.28-3.35-.83-4.68-.55-1.34-1.31-2.46-2.25-3.34-.94-.88-2.03-1.54-3.25-1.97-1.21-.43-2.51-.65-3.86-.65-.86,0-1.56-.03-2.08-.09-.5-.06-.91-.16-1.21-.32s-.53-.36-.7-.62c-.19-.29-.4-.69-.64-1.19-.58-1.3-1.19-2.6-1.82-3.84-.64-1.26-1.38-2.39-2.2-3.35-.83-.97-1.81-1.76-2.92-2.36-1.12-.6-2.46-.91-4-.91-1.12,0-2.16,.24-3.09,.73-.93,.48-1.75,1.19-2.43,2.1-.68,.91-1.21,2.03-1.58,3.33-.37,1.3-.55,2.8-.55,4.48,0,1.53,.28,3.1,.83,4.67,.55,1.57,1.27,3.01,2.15,4.29,.88,1.28,1.88,2.35,2.97,3.18,1.11,.84,2.24,1.27,3.37,1.27,1.26,0,2.34-.43,3.21-1.29,.87-.86,1.31-2.14,1.31-3.83s-.41-3.16-1.21-4.44c-.8-1.27-1.87-2.4-3.18-3.35l-.19-.13-.49,.69,.19,.13c.47,.32,.95,.72,1.42,1.17,.47,.46,.89,.95,1.26,1.48,.36,.52,.66,1.09,.88,1.67,.22,.58,.32,1.17,.32,1.78,0,1.13-.32,1.95-.95,2.45-.65,.51-1.62,.77-2.89,.77s-2.46-.32-3.43-.96c-.98-.64-1.8-1.47-2.45-2.45-.65-.99-1.14-2.08-1.46-3.26-.67-2.45-.66-4.7,.12-6.53,.41-.95,.95-1.77,1.61-2.44,.66-.67,1.43-1.2,2.3-1.58,.87-.38,1.77-.57,2.67-.57,1.65,0,3.02,.27,4.08,.81,1.07,.54,1.99,1.26,2.74,2.14,.75,.89,1.41,1.91,1.94,3.05,.54,1.16,1.09,2.33,1.63,3.51,.5,1.09,1.17,1.9,1.99,2.41,.82,.5,1.83,.76,3.02,.76,.86,0,1.8,.12,2.82,.36,1.01,.23,1.96,.62,2.83,1.15,.86,.52,1.58,1.23,2.15,2.1,.56,.86,.85,1.95,.85,3.22,0,1.39-.3,2.48-.9,3.25-.58,.75-1.54,1.13-2.85,1.13-.49,0-1.05-.11-1.69-.33-.64-.22-1.26-.55-1.84-.99-.58-.43-1.08-.98-1.48-1.64-.4-.64-.6-1.4-.6-2.26,0-.91,.07-1.55,.21-1.91l.11-.28-.97-.09-.06,.16c-.07,.17-.13,.44-.19,.87-.18,1.19-.09,2.56,.32,3.9,.28,.9,.7,1.73,1.26,2.47,.56,.75,1.25,1.36,2.06,1.83,.82,.47,1.75,.71,2.78,.71,.86,0,1.61-.2,2.23-.6,.61-.39,1.12-.9,1.52-1.52Z"/>
    <polygon class="cls-1" points="27 203.3 55.53 190.17 55.53 185.44 19.07 185.44 19.07 189.68 47.86 189.68 19.07 202.75 19.07 207.46 55.53 207.46 55.53 203.3 27 203.3"/>
    <polygon class="cls-1" points="51.93 213.13 51.93 225.78 19.07 225.78 19.07 231.5 51.93 231.5 51.93 244.09 56.86 244.09 56.86 213.13 51.93 213.13"/>
    <rect class="cls-1" x="19.07" y="248.75" width="37.78" height="5.72"/>
    <polygon class="cls-1" points="19.07 261.98 19.07 267.75 36.01 267.75 36.01 286.53 40.93 286.53 40.93 267.75 51.93 267.75 51.93 287.64 56.86 287.64 56.86 261.98 19.07 261.98"/>
    <path class="cls-1" d="M61.14,299.66l.74-.79c-2.86-2.86-6.35-5.13-10.48-6.72-4.23-1.69-8.63-2.49-13.28-2.49s-9,.79-13.23,2.43c-4.13,1.64-7.67,3.92-10.53,6.77l.74,.79c2.91-2.54,6.3-4.45,10.16-5.72,3.86-1.27,8.15-1.9,12.91-1.9s9.05,.63,12.86,1.9c3.86,1.27,7.25,3.18,10.11,5.72Z"/>
    <path class="cls-1" d="M61.88,332.1l-.74-.79c-2.86,2.49-6.24,4.39-10.11,5.72-3.81,1.27-8.1,1.91-12.86,1.91s-9.05-.63-12.91-1.91c-3.86-1.32-7.25-3.23-10.16-5.72l-.74,.79c2.86,2.86,6.4,5.08,10.53,6.77,4.23,1.59,8.63,2.43,13.23,2.43s9.05-.85,13.28-2.49c4.13-1.64,7.62-3.86,10.48-6.72Z"/>
    <path class="cls-1" d="M54.69,307.22h-1.69l-.48,3.49c-.11,.74-.26,1.27-.53,1.53-.32,.27-.85,.42-1.59,.42H25.84c-.74,0-1.27-.16-1.59-.42-.21-.26-.42-.79-.53-1.53l-.48-3.49h-1.69c.16,3.39,.21,6.14,.21,8.31,0,2.01-.05,4.76-.16,8.26h1.64l.48-3.55c.21-1.32,.9-1.96,2.12-1.96h24.56c.53,0,1.01,.11,1.32,.37,.42,.32,.69,.85,.79,1.64l.48,3.49h1.64c-.11-3.49-.16-6.24-.16-8.26,0-2.22,.11-4.97,.21-8.31Z"/>
    <path class="cls-1" d="M24.2,367.74c-.67-2.24-1.01-4.6-1.01-7.06,0-3.67,.59-6.38,1.77-8.12,1.18-1.75,2.73-2.62,4.63-2.62,1.34,0,2.45,.37,3.33,1.11,.88,.74,1.53,1.78,1.96,3.12,.42,1.34,.63,2.91,.63,4.71v9.74h4.55v-9.53c0-2.43,.49-4.3,1.48-5.61,.99-1.31,2.4-1.96,4.23-1.96s3.24,.82,4.42,2.46,1.77,4.12,1.77,7.43c0,1.91-.2,3.73-.61,5.48-.41,1.75-1.05,3.45-1.93,5.11l4.23,1.54c.92-1.59,1.62-3.46,2.12-5.61,.49-2.15,.74-4.39,.74-6.72,0-3.35-.48-6.15-1.43-8.39-.95-2.24-2.21-3.9-3.78-4.97-1.57-1.08-3.29-1.61-5.16-1.61-1.73,0-3.28,.38-4.66,1.14s-2.45,1.85-3.23,3.28c-.11,.2-.19,.4-.28,.61-.14-.41-.3-.82-.49-1.22-.76-1.62-1.84-2.93-3.25-3.92-1.41-.99-3.09-1.48-5.03-1.48-2.05,0-3.87,.59-5.48,1.77-1.61,1.18-2.86,2.95-3.76,5.29-.9,2.35-1.35,5.25-1.35,8.7,0,3.03,.38,5.84,1.14,8.41,.76,2.57,1.81,4.66,3.15,6.24l4.13-1.8c-1.24-1.45-2.19-3.29-2.86-5.53Z"/>
    <path class="cls-1" d="M51.72,407.35c3.44-3.18,5.13-7.78,5.13-13.87v-13.76H19.07v13.65c0,6.09,1.69,10.69,5.08,13.87,3.28,3.02,7.89,4.55,13.81,4.55s10.58-1.48,13.76-4.44Zm-24.29-4.5c-2.28-2.22-3.44-5.77-3.44-10.53v-6.83h27.94v6.93c0,4.76-1.11,8.26-3.39,10.48-2.22,2.12-5.72,3.23-10.58,3.23s-8.26-1.11-10.53-3.28Z"/>
  </g>
  <g>
    <path class="cls-1" d="M55.67,451.25l-37.78-14.55v6.14l9.74,3.55v16.25l-9.74,3.55v6.19l37.78-14.55v-6.56Zm-23.28-3.12l17.09,6.3v.21l-17.09,6.24v-12.75Z"/>
    <rect class="cls-1" x="40.47" y="489.47" width="5.7" height="5.7"/>
    <rect class="cls-1" x="34.77" y="495.17" width="5.7" height="5.7"/>
    <polygon class="cls-1" points="51.88 483.77 57.58 483.77 57.58 478.07 17.66 478.07 17.66 483.77 46.17 483.77 46.17 489.47 51.88 489.47 51.88 483.77"/>
    <polygon class="cls-1" points="34.77 506.58 34.77 500.88 29.07 500.88 29.07 506.58 17.66 506.58 17.66 512.28 57.58 512.28 57.58 506.58 34.77 506.58"/>
    <rect class="cls-1" x="17.89" y="521.8" width="37.78" height="5.72"/>
    <polygon class="cls-1" points="25.4 555.19 25.4 555.03 55.67 541.85 55.67 535.03 17.89 535.03 17.89 540.79 44.88 540.79 44.88 541.01 17.89 552.59 17.89 557.57 44.88 569.16 44.88 569.37 17.89 569.37 17.89 575.14 55.67 575.14 55.67 568.31 25.4 555.19"/>
    <path class="cls-1" d="M61.4,626.03c0-9.91-5.41-21.26-14.85-31.14-8.62-9.03-18.98-14.86-26.39-14.86-3.06,0-4.74,1.76-4.74,4.95,0,8.45,14.49,24.08,25.46,35.17,0,.02,0,.04,0,.06-9.07-7.71-18.82-15.38-23.57-15.38-1.57,0-2.47,1.09-2.47,3,0,3.67,3.12,11.11,8.16,16.75l6.68,7.51,1.16-.87-6.73-7.57c-4.68-5.25-7.82-12.42-7.82-15.83,0-1.37,.49-1.55,1.03-1.55,5.01,0,16.56,9.83,23.56,15.81,.21,7.68,5.14,15.82,12.25,15.82,4.01,0,8.28-3.12,8.28-11.88Zm-19.03-2.63l.8,.69c3.18,2.72,6.78,5.8,8.11,6.43l.4,.19,.55-1.1-.21-.23c-1.88-2.07-4.19-4.39-6.43-6.64-1.09-1.09-2.18-2.18-3.22-3.25,.25-4.32,1.39-9.81,5.36-11.93l.39-.21-.62-1.24-.41,.22c-4.19,2.25-5.62,7.47-6.05,11.81-6.75-6.84-24.17-24.77-24.17-33.15,0-2.45,1.05-2.88,3.25-2.88,10.12,0,39.85,25.92,39.85,43.92,0,7.7-3.54,10.44-6.84,10.44-4.74,0-10.02-4.97-10.74-13.07Z"/>
    <polygon class="cls-1" points="55.67 645.79 55.67 640.07 17.89 640.07 17.89 666.58 22.81 666.58 22.81 645.79 55.67 645.79"/>
    <path class="cls-1" d="M24.35,677.64c.74-.79,1.11-1.75,1.11-2.8,0-1.16-.37-2.06-1.11-2.75-.74-.79-1.69-1.16-2.86-1.16-1.06,0-2.01,.37-2.8,1.16-.69,.69-1.06,1.59-1.06,2.75,0,1.06,.37,2.01,1.06,2.8,.79,.74,1.75,1.16,2.8,1.16,1.16,0,2.12-.42,2.86-1.16Z"/>
  </g>
  <g>
    <path class="cls-1" d="M73.99,746.1l-.74-.79c-2.86,2.49-6.24,4.39-10.11,5.72-3.81,1.27-8.1,1.91-12.86,1.91s-9.05-.63-12.91-1.91c-3.86-1.32-7.25-3.23-10.16-5.72l-.74,.79c2.86,2.86,6.4,5.08,10.53,6.77,4.23,1.59,8.63,2.43,13.23,2.43s9.05-.85,13.28-2.49c4.13-1.64,7.62-3.86,10.48-6.72Z"/>
    <path class="cls-1" d="M62.98,742.5c2.54-3.39,3.76-8.04,3.76-13.97,0-2.75-.16-7.94-.48-15.56h-1.59c-.16,.95-.37,1.9-.63,2.91-.11,.63-.37,1.11-.69,1.43-.37,.37-.9,.58-1.53,.58h-23.07c-1.32,0-2.17-.74-2.49-2.22l-.74-3.23h-1.59c-.16,8.2-.26,14.24-.26,18.15,0,5.29,1.53,9.52,4.5,12.7,3.07,3.18,7.14,4.76,12.33,4.76,5.5,0,9.68-1.85,12.49-5.56Zm-23.13-4.07c-2.65-2.33-4.02-5.66-4.02-9.9,0-2.28,.32-3.76,.9-4.39,.48-.48,1.43-.69,2.91-.69h21.96c1.11,0,1.91,.37,2.38,1.11,.42,.53,.58,1.38,.58,2.49,0,4.6-1.06,8.2-3.28,10.74-2.33,2.75-5.87,4.13-10.58,4.13s-8.2-1.16-10.85-3.49Z"/>
    <path class="cls-1" d="M50.28,706.04c4.76,0,9.05,.63,12.86,1.9,3.86,1.27,7.25,3.18,10.11,5.72l.74-.79c-2.86-2.86-6.35-5.13-10.48-6.72-4.23-1.69-8.63-2.49-13.28-2.49s-9,.79-13.23,2.43c-4.13,1.64-7.67,3.92-10.53,6.77l.74,.79c2.91-2.54,6.3-4.45,10.16-5.72,3.86-1.27,8.15-1.9,12.91-1.9Z"/>
    <path class="cls-1" d="M68.96,770.49l-37.78-14.55v6.14l9.74,3.55v16.25l-9.74,3.55v6.19l37.78-14.55v-6.56Zm-23.28-3.12l17.09,6.3v.21l-17.09,6.24v-12.75Z"/>
    <rect class="cls-1" x="31.17" y="795.42" width="37.78" height="5.72"/>
    <path class="cls-1" d="M27.42,856.28c0-4.68-.35-9.29-.69-13.75-.33-4.31-.67-8.77-.67-13.14,0-2.16,.11-4.26,.34-6.24,4.28,2.8,8.84,6.94,13.57,12.34l1.27,1.45,1.09-.82-1.32-1.5c-5.02-5.7-9.87-10.06-14.42-12.94,1.54-9.97,6.36-15.45,13.58-15.45,15.11,0,32,18.6,32,43.5,0,8.07-2.29,15-5.47,20.77l-15.06-9.49,17.3-10.9v-6.93l-22.7,14.98h-15.08v5.72h15.08l17.42,11.49c-2.15,3.03-4.47,5.63-6.66,7.77l-.28,.28,.82,1.1,.37-.36c2.6-2.52,4.92-5.2,6.95-7.99l4.08,2.69v-6.93l-.92-.58c4.33-7.41,6.69-15.39,6.69-23.14,0-24.09-14.66-43.69-32.69-43.69-9.25,0-14.86,5.52-16.69,16.42-3.7-2.16-7.12-3.25-10.18-3.25-8.8,0-13.65,9.02-13.65,25.4,0,8.96,1.91,17.28,5.38,23.41,3.11,5.5,7.26,8.78,11.1,8.78,2.21,0,9.42-1.37,9.42-18.97Zm-24.54-13.22c0-15.47,4.4-23.99,12.38-23.99,2.93,0,6.25,1.11,9.87,3.29-.29,2.17-.44,4.53-.44,7.03,0,4.65,.35,9.26,.69,13.72,.33,4.32,.67,8.79,.67,13.17,0,8.5-2.13,17.58-8.12,17.58s-15.05-10.97-15.05-30.8Z"/>
    <path class="cls-1" d="M37.63,889.09c.74-.79,1.11-1.75,1.11-2.8,0-1.16-.37-2.06-1.11-2.75-.74-.79-1.69-1.16-2.86-1.16-1.06,0-2.01,.37-2.8,1.16-.69,.69-1.06,1.59-1.06,2.75,0,1.06,.37,2.01,1.06,2.8,.79,.74,1.75,1.16,2.8,1.16,1.16,0,2.12-.42,2.86-1.16Z"/>
  </g>
  <g>
    <polygon class="cls-1" points="29.55 952.28 29.55 952.06 57.65 932.75 57.65 926.93 19.86 926.93 19.86 932.7 48.28 932.7 48.28 932.91 19.86 952.43 19.86 958.04 57.65 958.04 57.65 952.28 29.55 952.28"/>
    <path class="cls-1" d="M22.67,993.92l34.87-13.39v-1.54l-34.87-13.39c-.28-1.27-.71-2.54-1.27-3.81h-1.53v11.75h1.53c.64-1.55,1.06-3.07,1.27-4.55l9.68,3.47v12.58l-9.68,3.58c-.14-.71-.32-1.43-.53-2.17-.21-.74-.46-1.46-.74-2.17h-1.53v13.65h1.53c.35-.6,.62-1.24,.79-1.93s.33-1.38,.48-2.09Zm12.44-20.4l11.11,4.05,4.66,1.32v.11l-4.55,1-11.22,4.16v-10.63Z"/>
    <polygon class="cls-1" points="52.73 998.74 52.73 1011.39 19.86 1011.39 19.86 1017.1 52.73 1017.1 52.73 1029.7 57.65 1029.7 57.65 998.74 52.73 998.74"/>
    <polygon class="cls-1" points="24.71 1048.65 24.71 1045.84 21.95 1045.84 21.95 1037.92 24.71 1037.92 24.71 1035.16 55.48 1035.16 55.48 1031.81 24.25 1031.81 24.25 1034.66 21.45 1034.66 21.45 1037.47 18.6 1037.47 18.6 1046.34 21.45 1046.34 21.45 1049.1 24.25 1049.1 24.25 1051.91 55.48 1051.91 55.48 1048.65 24.71 1048.65"/>
    <path class="cls-1" d="M31.45,1085.35c3.7-.42,5.93-2.28,6.67-5.66h.11c.53,2.06,1.64,3.7,3.33,4.92,1.53,1.06,3.28,1.59,5.29,1.59,3.6,0,6.3-1.16,8.2-3.49,1.75-2.22,2.59-5.29,2.59-9.1v-16.72H19.86v5.77h15.61v10.21c0,2.17-.42,3.81-1.38,4.97-.95,1.11-2.43,1.8-4.55,2.01l-4.71,.48c-2.12,.21-3.81,.74-4.97,1.64v6.24c1.38-1.27,3.23-2.01,5.56-2.22l6.03-.63Zm8.94-12.49v-10.21h12.33v10.16c0,2.65-.48,4.55-1.48,5.82-.95,1.16-2.49,1.8-4.6,1.8s-3.55-.64-4.6-1.85c-1.06-1.27-1.64-3.18-1.64-5.72Z"/>
    <path class="cls-1" d="M53.67,1098.39c0-1.21-.17-2.39-.52-3.55-.35-1.16-.82-2.14-1.43-2.92l-2.04,1.18c.48,.63,.87,1.4,1.15,2.29,.29,.89,.43,1.79,.43,2.69,0,1.33-.27,2.32-.82,2.96-.54,.65-1.4,.97-2.58,.97h-.41v-4.39c0-2.08-.38-3.63-1.13-4.64-.75-1.01-1.77-1.52-3.03-1.52s-2.29,.5-3.08,1.49c-.79,1-1.18,2.4-1.18,4.21,0,1.21,.18,2.25,.54,3.12,.36,.87,.84,1.52,1.45,1.95h-1.81v2.9h8.56c3.92,0,5.88-2.25,5.88-6.74Zm-10.23,3.62c-1.48-.75-2.22-2.16-2.22-4.21,0-1.06,.2-1.88,.59-2.47,.39-.59,.93-.88,1.63-.88,1.39,0,2.08,1.19,2.08,3.58v3.98h-2.08Z"/>
    <polygon class="cls-1" points="57.65 1117.5 57.65 1111.78 19.86 1111.78 19.86 1138.3 24.79 1138.3 24.79 1117.5 57.65 1117.5"/>
    <path class="cls-1" d="M26.32,1149.36c.74-.79,1.11-1.75,1.11-2.8,0-1.16-.37-2.06-1.11-2.75-.74-.79-1.69-1.16-2.86-1.16-1.06,0-2.01,.37-2.8,1.16-.69,.69-1.06,1.59-1.06,2.75,0,1.06,.37,2.01,1.06,2.8,.79,.74,1.75,1.16,2.8,1.16,1.16,0,2.12-.42,2.86-1.16Z"/>
  </g>
  <g>
    <path class="cls-1" d="M33.36,1212.7c-3.39,0-5.87-.79-7.51-2.33-1.64-1.59-2.49-4.07-2.49-7.46s.85-5.93,2.49-7.51,4.13-2.33,7.51-2.33h23.5v-5.77h-23.39c-4.92,0-8.68,1.38-11.33,4.13-2.54,2.65-3.81,6.46-3.81,11.48s1.32,8.78,3.86,11.48c2.59,2.7,6.35,4.07,11.27,4.07h23.39v-5.77h-23.5Z"/>
    <polygon class="cls-1" points="26.38 1248.74 50.75 1234.57 50.75 1230.86 19.07 1224.53 19.07 1229.05 43.45 1233.89 19.07 1248.06 19.07 1251.77 50.75 1258.11 50.75 1253.58 26.38 1248.74"/>
    <path class="cls-1" d="M30.66,1291.1c3.7-.42,5.93-2.28,6.67-5.66h.11c.53,2.06,1.64,3.7,3.33,4.92,1.53,1.06,3.28,1.59,5.29,1.59,3.6,0,6.3-1.16,8.2-3.49,1.75-2.22,2.59-5.29,2.59-9.1v-16.72H19.07v5.77h15.61v10.21c0,2.17-.42,3.81-1.38,4.97-.95,1.11-2.43,1.8-4.55,2.01l-4.71,.48c-2.12,.21-3.81,.74-4.97,1.64v6.24c1.38-1.27,3.23-2.01,5.56-2.22l6.03-.63Zm8.94-12.49v-10.21h12.33v10.16c0,2.65-.48,4.55-1.48,5.82-.95,1.16-2.49,1.8-4.6,1.8s-3.55-.64-4.6-1.85c-1.06-1.27-1.64-3.18-1.64-5.72Z"/>
    <path class="cls-1" d="M56.12,1315.25v-16.82c0-.42-.35-.77-.77-.77h-12.15c-.42,0-.77,.35-.77,.77v2.8c0,.61-.49,1.1-1.1,1.1h-7.47c-.42,0-.77,.35-.77,.77v2.8c0,.42,.35,.77,.77,.77h7.47c.3-.04,.77-.29,.77-.77v-2.8c0-.61,.49-1.1,1.1-1.1h2.8c.61,0,1.1,.49,1.1,1.1v12.15c0,.42,.35,.77,.77,.77h7.47c.42,0,.77-.35,.77-.77Z"/>
    <path class="cls-1" d="M28.09,1315.25v-7.47c0-.61,.49-1.1,1.1-1.1h2.8c.61,0,1.1,.49,1.1,1.1v2.8c0,.42,.35,.77,.77,.77h7.47c.42,0,.77-.35,.77-.77v-2.8c0-.42-.35-.77-.77-.77h-7.47c-.61,0-1.1-.49-1.1-1.1v-7.47c0-.42-.35-.77-.77-.77h-12.15c-.42,0-.77,.35-.77,.77v16.82c0,.42,.35,.77,.77,.77h7.47c.42,0,.77-.35,.77-.77Z"/>
    <path class="cls-1" d="M51.12,1337.36c0-4.16-1.23-7.47-3.69-9.91-2.46-2.44-5.98-3.67-10.57-3.67H19.07v4.44h8.74v18.29h-8.74v4.53h17.79c4.59,0,8.11-1.22,10.57-3.67,2.46-2.44,3.69-5.78,3.69-10Zm-19.37,9.14v-18.29h5.52c3.23,0,5.67,.81,7.33,2.42,1.66,1.61,2.49,3.85,2.49,6.72s-.83,5.11-2.49,6.72-4.1,2.42-7.33,2.42h-5.52Z"/>
    <polygon class="cls-1" points="56.86 1364.93 56.86 1359.22 19.07 1359.22 19.07 1385.73 23.99 1385.73 23.99 1364.93 56.86 1364.93"/>
    <rect class="cls-1" x="19.07" y="1390.6" width="37.78" height="5.72"/>
    <path class="cls-1" d="M61.14,1490.33l.74-.79c-2.86-2.86-6.35-5.13-10.48-6.72-.21-.09-.44-.14-.65-.22v-23.13c1.78,1.06,3.42,1.64,4.8,1.64,.98,0,1.59-.63,1.59-1.63,0-7.31-16.8-16.98-21.55-19.07h-.02c-.97-1.67-1.81-3.23-2.56-4.75,.12,0,.24,.01,.37,.01,3.68,0,7.61-3.31,7.61-12.59s-5.52-15.09-10.91-16.58c1.81-3.48,4.7-5.46,8.01-5.46,6.52,0,13.44,7.26,13.44,20.73,0,9.04-1.21,15.61-3.7,20.06l-.23,.42,1.18,.59,.21-.38c3.5-6.23,3.91-14.79,3.91-20.69,0-10.86-5.54-22.09-14.81-22.09-3.97,0-7.38,2.38-9.41,6.55-.42-.05-.82-.07-1.18-.07-7.61,0-10.37,9.29-10.37,15.53,0,10.47,9.37,16.12,17.59,19.87,3.76,6.23,8.09,11.51,12.11,15.01v10.74l-27.75-5.52v4.48l27.75,5.57v9.57c-2.81-.69-5.69-1.06-8.69-1.06-4.6,0-9,.79-13.23,2.43-4.13,1.64-7.67,3.92-10.53,6.77l.74,.79c2.91-2.54,6.3-4.45,10.16-5.72,3.86-1.27,8.15-1.9,12.91-1.9s9.05,.63,12.86,1.9c3.86,1.27,7.25,3.18,10.11,5.72Zm-10.39-33.09l-1.3-.26c-3.98-2.99-8.57-8.18-12.54-14.4,6.22,3.18,18.87,11.14,18.87,16.89,0,.27-.09,.27-.22,.27-1.34,0-2.99-.66-4.8-1.84v-.66Zm-11.13-34.17c0,8.28-3.22,11.22-6.24,11.22-.2,0-.39-.01-.58-.03,1.68-2.44,2.57-5.24,2.57-8.16,0-8.15-3.56-13.57-7.04-14.24,.26-1.48,.65-2.86,1.17-4.11,4.97,1.22,10.12,6.89,10.12,15.32Zm-8.03,12.71c.59,1.22,1.24,2.47,1.94,3.71l-.33-.14c-1.15-.5-2.27-1.13-3.33-1.87l.2-.18c.6-.55,1.1-1.04,1.53-1.52Zm-3.69-18.55c0-1.5,.07-2.82,.23-4.02,2.59,.52,5.88,5.02,5.88,12.89,0,2.61-.71,5-2.13,7.12-2.6-5.82-3.98-11.34-3.98-16Zm-1.37,0c0,4.74,1.37,10.34,3.97,16.25-3.76-2.22-6.05-8.71-6.05-14.03,0-2.05,.31-5.41,2.29-6.15-.14,1.2-.21,2.5-.21,3.94Zm1.57-9.71c-.51,1.3-.89,2.75-1.15,4.32-3.66,.7-4.49,7.04-4.49,9.28,0,5.84,2.94,11.28,7.31,13.54,.22,.11,.46,.23,.7,.33-.37,.41-.79,.82-1.3,1.28l-.31,.28,.37,.49c-5.7-4.26-9.76-11.59-9.76-18.36,0-4.15,1.69-11.18,8.01-11.18,.22,0,.42,0,.62,.02Z"/>
    <path class="cls-1" d="M61.88,1522.77l-.74-.79c-2.86,2.49-6.24,4.39-10.11,5.72-3.81,1.27-8.1,1.91-12.86,1.91s-9.05-.63-12.91-1.91c-3.86-1.32-7.25-3.23-10.16-5.72l-.74,.79c2.86,2.86,6.4,5.08,10.53,6.77,4.23,1.59,8.63,2.43,13.23,2.43s9.05-.85,13.28-2.49c4.13-1.64,7.62-3.86,10.48-6.72Z"/>
    <path class="cls-1" d="M54.69,1497.9h-1.69l-.48,3.49c-.11,.74-.26,1.27-.53,1.53-.32,.27-.85,.42-1.59,.42H25.84c-.74,0-1.27-.16-1.59-.42-.21-.26-.42-.79-.53-1.53l-.48-3.49h-1.69c.16,3.39,.21,6.14,.21,8.31,0,2.01-.05,4.76-.16,8.26h1.64l.48-3.55c.21-1.32,.9-1.96,2.12-1.96h24.56c.53,0,1.01,.11,1.32,.37,.42,.32,.69,.85,.79,1.64l.48,3.49h1.64c-.11-3.49-.16-6.24-.16-8.26,0-2.22,.11-4.97,.21-8.31Z"/>
    <path class="cls-1" d="M50.43,1547.44c-.71-1.53-1.73-3.07-3.03-4.59-1.3-1.51-2.78-2.91-4.43-4.15-1.54-1.17-3.16-2.2-4.81-3.06-1.65-.86-3.31-1.52-4.92-1.95-1.62-.44-3.19-.66-4.68-.66-2.06,0-3.89,.38-5.43,1.14-1.55,.76-2.77,1.86-3.63,3.26-.86,1.4-1.3,3.02-1.3,4.82,0,1.98,.49,3.98,1.44,5.92,.95,1.94,2.4,3.89,4.3,5.81l.12,.12,.92-.5-.49-.6c-1.6-1.85-2.75-3.51-3.43-4.94-.67-1.41-1.01-2.89-1.01-4.39,0-2.31,.86-4.15,2.55-5.47,1.71-1.34,4.06-2.02,6.99-2.02,1.74,0,3.44,.2,5.06,.59,1.62,.39,3.24,.99,4.8,1.76,1.56,.77,3.09,1.75,4.53,2.91,1.31,1.06,2.45,2.18,3.38,3.35,.93,1.16,1.66,2.34,2.18,3.52,.51,1.17,.77,2.26,.77,3.23,0,.79-.21,1.42-.62,1.88-.41,.46-.96,.68-1.68,.68-1.01,0-2.05-.37-3.09-1.1-1.06-.74-2.05-1.78-2.92-3.08-.88-1.3-1.54-2.71-1.97-4.17l-.07-.23-2.26,.83,.06,.2c.44,1.58,1.2,3.08,2.26,4.46,1.06,1.38,2.29,2.5,3.65,3.33,1.37,.84,2.71,1.26,3.98,1.26,1.17,0,2.11-.37,2.8-1.09,1.4-1.47,1.37-4.03-.04-7.06Z"/>
    <path class="cls-1" d="M25.53,1566.34c.74-.79,1.11-1.75,1.11-2.8,0-1.16-.37-2.06-1.11-2.75-.74-.79-1.69-1.16-2.86-1.16-1.06,0-2.01,.37-2.8,1.16-.69,.69-1.06,1.59-1.06,2.75,0,1.06,.37,2.01,1.06,2.8,.79,.74,1.75,1.17,2.8,1.17,1.16,0,2.12-.42,2.86-1.17Z"/>
  </g>
  <g>
    <polygon class="cls-1" points="26.75 1606.8 26.75 1609.61 23.9 1609.61 23.9 1618.48 26.75 1618.48 26.75 1621.24 29.56 1621.24 29.56 1624.05 38.43 1624.05 38.43 1621.24 41.23 1621.24 41.23 1618.48 44.04 1618.48 44.04 1610.06 46.8 1610.06 46.8 1607.3 54.72 1607.3 54.72 1610.06 57.53 1610.06 57.53 1617.98 54.72 1617.98 54.72 1620.79 49.11 1620.79 49.11 1624.05 55.22 1624.05 55.22 1621.24 58.03 1621.24 58.03 1618.48 60.79 1618.48 60.79 1609.61 58.03 1609.61 58.03 1606.8 55.22 1606.8 55.22 1603.95 46.35 1603.95 46.35 1606.8 43.54 1606.8 43.54 1609.61 40.74 1609.61 40.74 1617.98 37.93 1617.98 37.93 1620.79 30.01 1620.79 30.01 1617.98 27.25 1617.98 27.25 1610.06 30.01 1610.06 30.01 1607.3 35.62 1607.3 35.62 1603.95 29.56 1603.95 29.56 1606.8 26.75 1606.8"/>
    <polygon class="cls-1" points="25.17 1644.47 58.04 1644.47 58.04 1657.07 62.96 1657.07 62.96 1626.11 58.04 1626.11 58.04 1638.76 25.17 1638.76 25.17 1644.47"/>
    <path class="cls-1" d="M54.16,1684.64l3.6,2.75,.79-1.05-5.29-5.22c2.12-5.01,3.2-9.95,3.2-14.7,0-12.71-7.77-19.74-13.13-19.74-3,0-6.21,2.24-6.21,8.52,0,9.07,5.93,17.23,13.1,24.75-.59-.43-1.22-.9-1.92-1.4-2.32-1.66-4.61-3.54-6.83-5.35-6.03-4.93-11.72-9.58-17.21-9.58-2.01,0-2.31,.97-2.31,1.54,0,2.74,5.68,6.27,11,9.37,.57,.33,1.06,.62,1.44,.85,1.73,1.05,3.7,2.27,5.73,3.53-.24,.17-.46,.37-.68,.57-1.64-.23-3.29-.54-5.03-.88-3.34-.65-6.8-1.31-10.33-1.31-8.25,0-17.89,3.38-17.89,12.91,0,7.41,5.69,12,10.96,12,3.56,0,9.02-1.82,14.87-10.48l.24-.36-1.09-.82-.27,.4c-4.31,6.38-9.19,9.89-13.75,9.89-5.74,0-9.59-5.5-9.59-10.64,0-5.58,4.34-11.54,16.52-11.54,3.38,0,6.79,.66,10.08,1.29,1.41,.27,2.86,.55,4.27,.77-1.56,2.41-1.91,5.77-1.91,8.26,0,10.24,8.27,25.72,20.74,25.72,6.19,0,8.38-5.22,8.38-9.69,0-9.16-8.56-16.71-15.73-21.43-1.34-.9-2.79-1.84-4.27-2.79,.81-.44,1-1.16,.93-1.76,.31,.21,.61,.43,.92,.64,1.8,1.27,3.53,2.59,6.67,4.99Zm.93-18.22c0,4.28-.97,8.86-2.87,13.63-6.87-7-13.74-15.4-13.74-24.86,0-4.48,1.81-7.15,4.84-7.15,4.81,0,11.77,6.54,11.77,18.38Zm-11.39,14.75c1.45,.92,2.89,1.86,4.26,2.75l1.18,.76c9.91,6.49,15.14,13.52,15.14,20.31,0,3.84-1.84,8.33-7.01,8.33-7.71,0-19.37-9.71-19.37-24.35,0-3.62,.72-6.4,2.08-8.05,1.34,.18,2.52,.26,3.62,.26h.11Zm-2.19-3.05c-2.29-1.43-4.52-2.81-6.46-4-.5-.31-1.14-.68-1.85-1.09-3.47-2.03-9.93-5.8-9.93-7.8,0-.07,0-.18,.36-.18,1.76,0,11.57,6.1,20.99,12.59-.1,0-.2,0-.3,0-1.01,0-1.93,.16-2.81,.49Zm1.53,.98c.39-.07,.82-.11,1.28-.11,.63,0,.88,.14,.9,.13,0,.15,0,.54-1.13,.64l-1.05-.67Z"/>
    <path class="cls-1" d="M25.17,1735.42v6.19l37.79-14.56v-6.57l-37.79-14.56v6.14l9.74,3.55v16.25l-9.74,3.55Zm14.5-18.05l17.1,6.3v.21l-17.1,6.25v-12.76Z"/>
    <path class="cls-1" d="M70.05,1768.07c0-7.15-2.49-13.23-7.57-18.26-5.03-5.08-11.12-7.57-18.26-7.57s-13.18,2.49-18.26,7.57c-5.03,5.03-7.57,11.12-7.57,18.26s2.54,13.18,7.57,18.26c5.08,5.03,11.17,7.57,18.26,7.57s13.23-2.54,18.26-7.57c5.08-5.08,7.57-11.17,7.57-18.26Zm-42.45,16.62c-4.55-4.66-6.83-10.16-6.83-16.62s2.28-12.02,6.83-16.62c4.66-4.55,10.16-6.83,16.62-6.83s12.02,2.28,16.62,6.83c4.55,4.6,6.83,10.16,6.83,16.62s-2.28,11.96-6.83,16.62c-4.6,4.55-10.16,6.83-16.62,6.83s-11.96-2.28-16.62-6.83Z"/>
    <polygon class="cls-1" points="35.86 1776.38 35.86 1776.22 61.85 1760.07 61.85 1754.09 26.33 1754.09 26.33 1759.81 52.58 1759.81 52.58 1759.97 26.33 1776.33 26.33 1782.1 61.85 1782.1 61.85 1776.38 35.86 1776.38"/>
    <path class="cls-1" d="M26.97,1823.05h25.57v-5.61h-3.65c2.96-2.01,4.39-4.76,4.39-8.36s-1.27-6.72-3.86-9c-2.54-2.33-5.82-3.44-9.95-3.44s-7.41,1.11-9.9,3.44c-2.49,2.28-3.76,5.29-3.76,9s1.54,6.35,4.55,8.36h-4.23c-5.14,0-7.73-2.38-7.73-7.14,0-2.22,.37-3.87,1.01-4.87,.69-1.06,1.85-1.69,3.44-2.01v-5.61c-3.02,.53-5.24,1.75-6.72,3.76-1.43,2.01-2.17,4.92-2.17,8.73,0,8.47,4.34,12.76,13.02,12.76Zm5.82-7.52c-1.59-1.38-2.38-3.23-2.38-5.61,0-2.75,.95-4.71,2.75-5.93,1.54-1.06,3.65-1.59,6.3-1.59,2.91,0,5.19,.63,6.78,2.01,1.69,1.27,2.49,3.12,2.49,5.51s-.79,4.23-2.49,5.61c-1.64,1.27-3.92,1.96-6.78,1.96s-5.03-.69-6.67-1.96Z"/>
    <path class="cls-1" d="M59.46,1848.71l-5.82,2.17v1.38c1.45,.18,2.89,.31,4.31,.4,1.43,.09,2.85,.15,4.26,.19v-25.08h-1.53c-.28,.71-.54,1.43-.77,2.17-.23,.74-.42,1.46-.55,2.17H27.97c-.28-1.66-.71-3.1-1.27-4.34h-1.53v26.09c1.55,.07,3.09,.05,4.6-.05,1.52-.11,3.02-.28,4.5-.53v-1.32l-6.35-2.59v-12.17h14.76v8.63l-4.02,2.06v1.32c3.63,.21,7.2,.21,10.69,0v-1.32l-3.92-2.06v-8.63h14.02v11.54Z"/>
    <path class="cls-1" d="M26.7,1872.47c.28-.71,.52-1.43,.71-2.17,.19-.74,.38-1.52,.56-2.33h13.6v4.99c-1.41,.64-2.74,1.26-4,1.88-1.25,.62-2.49,1.28-3.7,1.98-1.22,.71-2.42,1.46-3.6,2.28-1.18,.81-2.39,1.71-3.63,2.7l-1.48,2.01v6.44h1.32l1.54-2.88c2.33-1.8,4.67-3.53,7.04-5.19,2.36-1.66,4.75-3.25,7.14-4.76,.74,2.34,1.96,4.19,3.65,5.55,1.69,1.36,3.83,2.04,6.4,2.04,1.84,0,3.41-.31,4.71-.93s2.38-1.48,3.23-2.57c.85-1.1,1.46-2.4,1.85-3.9,.39-1.5,.58-3.12,.58-4.85,0-1.59-.07-3.23-.21-4.91s-.21-3.23-.21-4.64v-4.66h-1.53c-.25,.56-.48,1.2-.71,1.91s-.43,1.52-.61,2.43H27.97c-.14-.71-.3-1.41-.48-2.12-.18-.71-.44-1.45-.79-2.22h-1.53v13.92h1.53Zm32.92-4.5c.11,.46,.17,.96,.21,1.51,.03,.55,.05,1.24,.05,2.09,0,2.4-.61,4.36-1.84,5.88-1.23,1.52-3.14,2.28-5.73,2.28s-4.56-.71-6.1-2.14c-1.54-1.43-2.31-3.36-2.31-5.8v-3.81h15.72Z"/>
    <path class="cls-1" d="M30.99,1915.08c-.95-1.69-1.48-3.97-1.48-6.83,0-3.18,.58-5.5,1.75-7.04,1.27-1.69,3.44-2.75,6.4-3.18v-5.72c-4.76,.32-8.26,2.01-10.48,5.13-1.8,2.59-2.75,6.19-2.75,10.8s.95,8.47,2.86,11.11c1.96,2.65,4.6,3.97,7.99,3.97s6.19-1.64,8.15-4.87c.9-1.48,2.12-4.82,3.7-9.9,1.06-3.55,1.85-5.72,2.33-6.56,1.01-1.91,2.33-2.81,4.02-2.81,1.91,0,3.28,.79,4.13,2.44,.74,1.32,1.11,3.23,1.11,5.72,0,2.86-.53,4.98-1.64,6.46-1.06,1.48-2.86,2.43-5.29,2.96v5.72c4.13-.37,7.15-1.85,9.1-4.5,1.91-2.49,2.8-5.93,2.8-10.32,0-4.02-.9-7.36-2.7-10-1.91-2.8-4.5-4.18-7.83-4.18s-5.82,1.43-7.57,4.34c-.63,1.17-1.64,4.02-3.12,8.68-1.27,4.18-2.12,6.67-2.54,7.51-1.22,2.38-2.86,3.6-4.98,3.6-1.69,0-3.02-.85-3.97-2.54Z"/>
  </g>
  <g>
    <path class="cls-1" d="M22.54,1974.59l1.01-4.98,5.88,2.06v13.76l-5.88,2.01-1.01-4.92h-3.18v15.35h3.18l1.01-4.39,32.87-11.75-.26-5.29-32.61-12.07-1.01-4.34h-3.18v14.56h3.18Zm27.05,4.08l-15.93,5.35v-10.9l15.93,5.56Z"/>
    <polygon class="cls-1" points="21.17 2007.37 21.49 2003.43 45.9 2003.38 19.09 2014.66 19.09 2018.05 51.1 2018.05 51.42 2020.41 53.23 2020.41 53.23 2012.17 51.42 2012.17 51.1 2015.92 27.11 2015.97 53.23 2005.01 53.23 1998.58 51.37 1998.58 51.1 2001.21 50.88 2001.3 21.49 2001.3 21.17 1998.58 19.36 1998.58 19.36 2007.37 21.17 2007.37"/>
    <path class="cls-1" d="M57.16,2060.64v-6.57l-37.79-14.56v6.14l9.74,3.55v16.25l-9.74,3.55v6.19l37.79-14.56Zm-23.29-9.69l17.1,6.3v.21l-17.1,6.25v-12.76Z"/>
    <path class="cls-1" d="M22.12,2105.83c2.49,3.12,5.93,5.08,10.32,5.93v-5.61c-2.97-.74-5.19-2.06-6.67-3.97-1.38-1.8-2.06-4.13-2.06-6.88,0-4.23,1.32-7.36,3.97-9.37,2.49-1.91,5.98-2.86,10.53-2.86s7.89,.95,10.43,2.91c2.8,2.07,4.18,5.14,4.18,9.21,0,2.75-.58,4.98-1.8,6.78-1.22,1.8-3.12,3.02-5.66,3.65v5.61c3.81-.58,6.88-2.28,9.1-5.03,2.33-2.86,3.44-6.51,3.44-10.9,0-6.03-1.96-10.59-5.98-13.76-3.55-2.86-8.1-4.23-13.71-4.23s-10.27,1.32-13.66,4.08c-3.92,3.12-5.93,7.78-5.93,13.97,0,4.08,1.17,7.57,3.49,10.48Z"/>
    <path class="cls-1" d="M38.42,2116.99c8.63,0,16.88,2.01,24.72,6.09v-2.7c-7.83-3.92-16.04-5.88-24.72-5.88s-16.88,1.96-24.72,5.88v2.7c7.89-4.08,16.14-6.09,24.72-6.09Z"/>
    <path class="cls-1" d="M57.9,2140.33c0-5.77-1.85-10.32-5.66-13.6-3.6-3.18-8.26-4.71-14.03-4.71s-10.38,1.54-13.97,4.71c-3.71,3.28-5.61,7.83-5.61,13.6,0,3.86,.85,7.2,2.54,10-1.69,1.27-3.49,2.54-5.4,3.87l3.18,3.86c1.85-1.32,3.65-2.65,5.4-3.97,3.6,3.07,8.2,4.61,13.87,4.61s10.53-1.59,14.08-4.77c3.76-3.33,5.61-7.89,5.61-13.6Zm-29.11,10.16c2.22-1.91,4.39-3.81,6.4-5.72l-3.28-3.34c-1.96,1.8-4.13,3.71-6.51,5.67-1.11-1.85-1.69-4.13-1.69-6.78,0-4.02,1.38-7.15,4.02-9.37,2.59-2.12,6.09-3.18,10.48-3.18s7.94,1.06,10.53,3.18c2.75,2.22,4.08,5.35,4.08,9.37s-1.27,7.14-3.92,9.31c-2.59,2.12-6.14,3.23-10.69,3.23-3.86,0-6.99-.79-9.42-2.38Z"/>
    <path class="cls-1" d="M63.14,2160.29v-2.7c-7.83,4.02-16.09,6.09-24.72,6.09s-16.83-2.07-24.72-6.09v2.7c7.83,3.92,16.09,5.88,24.72,5.88s16.88-1.96,24.72-5.88Z"/>
    <path class="cls-1" d="M35.35,2204.07c.33-1.2,.49-2.39,.49-3.54v-.46h-1.37v.46c0,.88-.11,1.8-.33,2.76-2.32-1.49-4.85-2.79-7.87-4.06-5.24-6.53-8.36-11.86-8.36-14.27,0-.02,0-.54,.4-.54,2.78,0,5.21,2.71,8.28,6.14,1.16,1.29,2.36,2.63,3.71,3.97,5.16,5.12,12.02,11,19.25,11,4.15,0,5.46-2.22,5.79-4.21,3.45-.74,5.35-3.24,5.35-7.06,0-9.42-11.87-25-25.4-25-2.4,0-4.72,.47-6.88,1.39l-.41,.18,.52,1.3,.43-.18c2.05-.88,4.18-1.32,6.34-1.32,12.8,0,24.04,14.73,24.04,23.63,0,2.11-.69,4.73-3.89,5.62-.08-3.96-2.89-9.7-7.21-14.7-4.72-5.46-10.11-8.72-14.44-8.72-3.9,0-4.49,2.3-4.49,3.67,0,8.14,13.23,21.42,23.68,21.42,.31,0,.61-.02,.9-.04-.49,1.76-1.94,2.66-4.34,2.66-5.72,0-10.16-4.52-14.85-9.32-.82-.83-1.64-1.68-2.49-2.51-5.36-5.26-9.78-9.28-13.9-9.28-1.22,0-1.77,.99-1.77,1.91,0,3.21,4.23,9.29,7.34,13.34-2.48-.86-4.67-1.3-6.52-1.3-7.68,0-11.82,5.72-11.82,11.1,0,5.05,3.71,10.14,12,10.14,.6,0,1.21-.06,1.81-.14v1.06l9.74,3.55v16.25l-9.74,3.55v6.19l37.79-14.56v-6.57l-30.91-11.91c2.7-1.61,5.13-3.91,6.9-6.66,.33,.33,.65,.64,.94,.92,5.07,4.71,9.98,8.14,11.67,8.14,.74,0,1.18-.42,1.18-1.14,0-.99-.74-2.38-2.19-4.14-2.97-3.55-6.04-6.4-9.4-8.7Zm15.61,26.67v.21l-17.1,6.25v-12.76l17.1,6.3Zm-5.36-14.07c-1.38-.21-5.44-2.92-10.62-7.79-.34-.32-.72-.68-1.13-1.1,.33-.59,.63-1.23,.92-1.95,4.01,2.91,7.38,5.97,8.98,7.76,.89,.98,1.73,2.44,1.86,3.07Zm-26.24,.05c-.61,.09-1.21,.15-1.81,.15-7.85,0-10.64-4.73-10.64-8.78,0-4.72,3.66-9.73,10.46-9.73,2.31,0,5.06,.67,8.16,2,2.19,2.73,4.59,5.49,6.64,7.64-1.84,3-4.6,5.44-7.63,7.01l-5.18-2v3.71Zm9-14.97c1.68,.91,3.47,2.02,5.28,3.28-.21,.58-.47,1.16-.78,1.76-1.37-1.43-2.91-3.16-4.5-5.03Zm18.89-15.7c4.15,4.82,6.83,10.3,6.83,13.98,0,.02,0,.05,0,.07-.37,.04-.73,.06-1.08,.06-7.97,0-22.32-14.93-22.32-20.05,0-1.53,1.05-2.3,3.12-2.3,3.98,0,9,3.08,13.45,8.25Z"/>
    <path class="cls-1" d="M55.57,2262.18l.58,5.4h2.01v-16.3h-2.01l-.58,5.4c-5.08,.11-10.22,.11-15.4,.11h-2.86c-5.19,0-10.27,0-15.35-.11l-.58-5.4h-2.01v16.3h2.01l.63-5.4c5.08-.11,10.22-.11,15.3-.11h2.86c5.19,0,10.38,0,15.4,.11Z"/>
    <polygon class="cls-1" points="57.16 2273.87 19.36 2273.87 19.36 2279.64 47.79 2279.64 47.79 2279.85 19.36 2299.38 19.36 2305 57.16 2305 57.16 2299.22 29.05 2299.22 29.05 2299.01 57.16 2279.69 57.16 2273.87"/>
    <path class="cls-1" d="M38.06,2311.63v2.8c0,.43,.35,.77,.77,.77h7.48c.61,0,1.1,.49,1.1,1.1v2.8c0,.61-.49,1.1-1.1,1.1H20.13c-.42,0-.77,.34-.77,.77v2.8c0,.42,.35,.77,.77,.77H55.65c.42,0,.77-.35,.77-.77v-7.48c0-.43-.35-.77-.77-.77h-7.48c-.61,0-1.1-.49-1.1-1.1v-2.8c0-.42-.35-.77-.77-.77h-7.48c-.43,0-.77,.35-.77,.77Z"/>
    <path class="cls-1" d="M19.37,2325.65v2.8c0,.42,.35,.77,.77,.77h26.17c.61,0,1.1,.49,1.1,1.1v2.8c0,.61-.49,1.1-1.1,1.1h-7.48c-.42,0-.77,.35-.77,.77v2.8c0,.43,.35,.77,.77,.77h7.48c.43,0,.77-.35,.77-.77v-2.8c0-.61,.49-1.1,1.1-1.1h7.48c.42,0,.77-.35,.77-.77v-7.48c0-.43-.35-.77-.77-.77H20.14c-.42,0-.77,.35-.77,.77Z"/>
    <path class="cls-1" d="M46.97,2349.65c0-2.08-.38-3.63-1.13-4.64-.75-1.01-1.76-1.52-3.03-1.52s-2.29,.5-3.08,1.49c-.78,1-1.18,2.4-1.18,4.21,0,1.21,.18,2.25,.54,3.12,.36,.87,.84,1.52,1.45,1.95h-1.81v2.9h8.55c3.92,0,5.88-2.25,5.88-6.74,0-1.21-.17-2.39-.52-3.55-.35-1.16-.82-2.13-1.43-2.92l-2.04,1.18c.48,.63,.87,1.4,1.15,2.29,.29,.89,.43,1.79,.43,2.69,0,1.33-.27,2.31-.82,2.97-.54,.65-1.4,.97-2.58,.97h-.41v-4.39Zm-4.03,4.39c-1.48-.76-2.22-2.16-2.22-4.21,0-1.06,.2-1.88,.59-2.47,.39-.59,.94-.88,1.63-.88,1.39,0,2.08,1.19,2.08,3.58v3.98h-2.08Z"/>
    <path class="cls-1" d="M26.86,2368.3c0,.34,.01,.69,.03,1.06-3.05-.99-5.95-1.49-8.64-1.49-5.42,0-8.53,3.61-8.53,9.91,0,8.15,4.65,22.07,17.72,36.69l1.84,2.06c-1.76,.65-3.35,1.52-4.72,2.64-3.92,3.12-5.93,7.78-5.93,13.97,0,4.08,1.17,7.57,3.49,10.48,2.49,3.12,5.93,5.08,10.32,5.93v-5.61c-2.97-.74-5.19-2.06-6.67-3.97-1.38-1.8-2.06-4.13-2.06-6.88,0-4.23,1.32-7.36,3.97-9.37,2.49-1.91,5.98-2.86,10.53-2.86s7.89,.95,10.43,2.91c2.8,2.07,4.18,5.14,4.18,9.21,0,2.75-.58,4.98-1.8,6.78-1.22,1.8-3.12,3.02-5.66,3.65v5.61c3.81-.58,6.88-2.28,9.1-5.03,2.33-2.86,3.44-6.51,3.44-10.9,0-6.03-1.96-10.59-5.98-13.76-3.55-2.86-8.1-4.23-13.71-4.23-2.35,0-4.49,.24-6.44,.69l-2.65-2.98c-12.57-14.11-17.04-27.34-17.04-35.02,0-5.01,2.08-7.55,6.18-7.55,2.7,0,5.73,.63,9,1.87,2.32,12.52,14.89,32.27,27.17,42.62,5.55,4.67,9.74,7.04,12.44,7.04,1.43,0,3.82-.61,3.82-4.72s-2.48-9.97-4.79-13.75c-8.96-14.68-23.59-27.88-36.57-33.04-.08-.62-.12-1.26-.12-1.93,0-3.22,1.43-6.65,5.44-6.65,2.79,0,9.22,1.73,20.94,13.33l.65,.64,1.71-1.71-.65-.65c-9.23-9.14-17.06-13.97-22.65-13.97-4.73,0-7.79,3.54-7.79,9.01Zm41.48,48.72c0,2.37-1.03,2.37-1.47,2.37-.77,0-3.84-.47-10.94-6.5-11.1-9.42-23.06-27.78-26.04-39.68,11.98,5.5,25.76,18.13,34.04,31.34,2.47,3.92,4.41,9.4,4.41,12.48Z"/>
    <polygon class="cls-1" points="24.29 2483.41 24.29 2461.13 36.3 2461.13 36.3 2481.24 41.22 2481.24 41.22 2461.13 52.24 2461.13 52.24 2482.51 57.16 2482.51 57.16 2455.36 19.36 2455.36 19.36 2483.41 24.29 2483.41"/>
  </g>
  <g>
    <path class="cls-1" d="M29.17,2539.08c-.95-1.69-1.48-3.97-1.48-6.83,0-3.18,.58-5.5,1.75-7.04,1.27-1.69,3.44-2.75,6.4-3.18v-5.72c-4.76,.32-8.26,2.01-10.48,5.13-1.8,2.59-2.75,6.19-2.75,10.8s.95,8.47,2.86,11.11c1.96,2.65,4.6,3.97,7.99,3.97s6.19-1.64,8.15-4.87c.9-1.48,2.12-4.82,3.7-9.9,1.06-3.55,1.85-5.72,2.33-6.56,1.01-1.91,2.33-2.81,4.02-2.81,1.91,0,3.28,.79,4.13,2.44,.74,1.32,1.11,3.23,1.11,5.72,0,2.86-.53,4.98-1.64,6.46-1.06,1.48-2.86,2.43-5.29,2.96v5.72c4.13-.37,7.15-1.85,9.1-4.5,1.91-2.49,2.8-5.93,2.8-10.32,0-4.02-.9-7.36-2.7-10-1.91-2.8-4.5-4.18-7.83-4.18s-5.82,1.43-7.57,4.34c-.63,1.17-1.64,4.02-3.12,8.68-1.27,4.18-2.12,6.67-2.54,7.51-1.22,2.38-2.86,3.6-4.98,3.6-1.69,0-3.02-.85-3.97-2.54Z"/>
    <path class="cls-1" d="M23.94,2548.59l-1.85,.1v.43c.03,3.89,1.96,8.6,5.61,13.65-4.62,1.15-8.64,3.76-11.95,7.75l-.31,.37,1.15,.86,.28-.33c3.28-3.92,7.23-6.41,11.76-7.38,9.77,12.73,27.08,24.26,36.45,24.26,2.7,0,3.1-1.64,3.1-2.62,0-7.22-17.8-23.57-34.74-23.57-.97,0-1.74,.03-2.47,.11-4.34-5.61-6.9-10.4-7.02-13.16l-.02-.46Zm8.15,14.99c.44-.02,.9-.03,1.37-.03,16.23,0,33.3,15.36,33.3,22.13,0,.29,0,1.18-1.66,1.18-9.38,0-23.56-11.6-33-23.29Z"/>
    <path class="cls-1" d="M51.77,2604.2v.21l-28.43,19.53v5.61H61.14v-5.77h-28.11v-.21l28.11-19.32v-5.82h-20.74l.83-1.35-2.04-1.36v-.23c0-6.52-4.62-19.6-15.03-19.6-1.18,0-1.86,.41-1.86,1.27,0,2.22,4.07,7.15,5.8,9.01,1.33,1.43,4.53,4.53,6.7,6.63l-6.25-4.1c-9.01-5.93-17.21-13.58-17.21-25.22,0-3.17,1.18-6.79,3.85-9.78l-.36-.27c-3.12,3.49-4.44,8.2-4.44,13.63,0,8.6,6.22,14.08,12.36,18.34,1.95,1.34,3.8,2.63,5.52,3.76,5.41,3.59,9.25,6.14,11.06,9.27h-15.99v5.77h28.43Zm-14.93-10.04c-1.49-1.43-6.57-6.34-8.38-8.26-1.63-1.72-5.7-6.65-5.7-8.74,0-.54,.63-.81,1.4-.81,5.84,0,14.71,12.77,14.71,19.17l-2.04-1.36Z"/>
    <rect class="cls-1" x="23.34" y="2637.12" width="37.79" height="5.72"/>
    <path class="cls-1" d="M55.98,2657.56c.24,.2,.36,.65,.36,1.36v7.26c0,2.95-.32,4.92-.96,5.92-.64,1-2.17,1.68-4.59,2.04v1.47l7.57-.18v-28.19h-.98c-.14,1.96-.49,3.23-1.07,3.8s-1.81,.85-3.68,.85H29.7c-2.28,0-3.69-.25-4.23-.76s-.92-1.81-1.14-3.89h-.98v14.81h.98c.16-2,.5-3.3,1.04-3.89,.54-.6,1.78-.89,3.71-.89h11.58v7.67c0,2.24-.33,3.67-.99,4.29-.66,.62-2.02,1.13-4.07,1.52v1.24h12.22v-1.24c-2.04-.38-3.39-.88-4.06-1.5s-1-2.06-1-4.32v-7.67h11.81c.71,0,1.18,.1,1.42,.3Z"/>
    <rect class="cls-1" x="23.34" y="2679.88" width="37.79" height="5.72"/>
    <path class="cls-1" d="M60.59,2749.44l.36,1.07c1.58,.55,3.38,1.27,5.4,2.14,2.02,.87,3.5,1.58,4.45,2.13,.63,0,1.11-.32,1.42-.95,1.5-2.53,2.55-5.28,3.14-8.24,.59-2.97,.89-5.87,.89-8.72,0-3.8-.65-7.43-1.96-10.91-1.31-3.48-3.07-6.64-5.28-9.49-1.74-2.3-3.88-4.57-6.41-6.82-2.53-2.25-5.26-4.29-8.18-6.11-2.93-1.82-5.97-3.3-9.13-4.45-3.16-1.15-6.25-1.72-9.25-1.72-2.69,0-4.92,.47-6.7,1.42-1.78,.95-3.2,2.23-4.27,3.86-1.07,1.62-1.82,3.48-2.25,5.57-.43,2.09-.65,4.29-.65,6.58,0,7.12,1.56,13.66,4.69,19.63,3.12,5.97,7.41,10.77,12.87,14.41,.4,.24,.81,.45,1.25,.65,.43,.2,.97,.3,1.6,.3,1.11,0,1.66-.16,1.66-.47,0-.16-.16-.36-.48-.59-6.72-4.9-11.84-10.08-15.36-15.54-3.52-5.46-5.28-11.51-5.28-18.15,0-1.58,.14-3.12,.42-4.63s.77-2.83,1.48-3.97c.71-1.15,1.7-2.07,2.97-2.79,1.26-.71,2.89-1.07,4.86-1.07,3.64,0,7.37,.73,11.21,2.2,3.83,1.46,7.47,3.3,10.91,5.52,3.44,2.21,6.54,4.57,9.31,7.06,2.77,2.49,4.86,4.72,6.29,6.7,1.26,1.74,2.35,3.6,3.26,5.57,.91,1.98,1.37,4.11,1.37,6.4,0,2.85-.32,5.16-.95,6.94s-1.46,3.2-2.49,4.27c-1.03,1.07-2.17,1.8-3.44,2.19s-2.49,.59-3.68,.59c-.63,0-1.37-.06-2.19-.18-.83-.12-1.45-.26-1.84-.42Z"/>
    <path class="cls-1" d="M61.14,2764.74l-37.79-14.56v6.14l9.74,3.55v16.25l-9.74,3.55v6.19l37.79-14.56v-6.57Zm-23.29-3.12l17.1,6.3v.21l-17.1,6.25v-12.76Z"/>
    <path class="cls-1" d="M45.31,2817.59H22.43v5.74h22.98c5.2,0,9.24-1.37,12.01-4.07,2.78-2.71,4.19-6.43,4.19-11.08,0-3.43-.76-6.43-2.25-8.91-.61-1.02-1.37-1.92-2.27-2.72h4.2v-5.58H22.43v5.74h21.97c4.1,0,7.14,.97,9.04,2.88,1.92,1.94,2.86,4.51,2.86,7.85s-.91,5.7-2.72,7.47c-1.81,1.78-4.59,2.68-8.28,2.68Z"/>
    <polygon class="cls-1" points="56.21 2830.09 56.21 2842.74 23.34 2842.74 23.34 2848.46 56.21 2848.46 56.21 2861.05 61.14 2861.05 61.14 2830.09 56.21 2830.09"/>
    <path class="cls-1" d="M34.99,2918.52c2.36,.95,4.78,1.43,7.25,1.43,2.82,0,5.43-.52,7.83-1.56,2.4-1.04,4.48-2.43,6.25-4.15,1.76-1.73,3.15-3.7,4.15-5.9,1.01-2.2,1.51-4.47,1.51-6.8,0-2.19-.5-4.37-1.51-6.56-1.01-2.19-2.39-4.15-4.15-5.9-1.77-1.75-3.85-3.18-6.25-4.29-2.4-1.11-5.01-1.67-7.83-1.67-2.54,0-5,.46-7.38,1.38-2.38,.92-4.48,2.2-6.3,3.84-1.82,1.64-3.27,3.59-4.37,5.85-1.09,2.26-1.64,4.71-1.64,7.36s.56,4.98,1.69,7.22c1.13,2.24,2.61,4.19,4.44,5.85,1.83,1.66,3.93,2.96,6.3,3.92Zm-1.06-5.29c-2.36-.42-4.34-1.13-5.93-2.12-1.59-.99-2.77-2.27-3.54-3.84-.78-1.57-1.17-3.49-1.17-5.74s.39-4.22,1.17-5.77c.78-1.55,1.96-2.82,3.54-3.81,1.59-.99,3.56-1.69,5.93-2.12,2.36-.42,5.13-.64,8.31-.64,2.43,0,4.79,.16,7.07,.48,2.28,.32,4.3,.92,6.09,1.82,1.78,.9,3.2,2.15,4.26,3.76,1.06,1.6,1.59,3.69,1.59,6.27s-.53,4.66-1.59,6.27c-1.06,1.6-2.48,2.86-4.26,3.76-1.78,.9-3.81,1.51-6.09,1.82-2.28,.32-4.63,.48-7.07,.48-3.17,0-5.94-.21-8.31-.64Z"/>
    <path class="cls-1" d="M66.17,2966.63l-.74-.79c-2.86,2.49-6.25,4.39-10.11,5.72-3.81,1.27-8.1,1.91-12.86,1.91s-9.05-.63-12.92-1.91c-3.86-1.32-7.25-3.23-10.16-5.72l-.74,.79c2.86,2.86,6.41,5.08,10.53,6.78,4.24,1.59,8.63,2.44,13.23,2.44s9.05-.85,13.29-2.49c4.13-1.64,7.62-3.87,10.48-6.72Z"/>
    <path class="cls-1" d="M56.69,2959.38c0,1.43-.27,2.49-.85,3.12-.48,.53-1.48,1.01-2.97,1.53-1.48,.48-2.22,.95-2.22,1.38,0,.53,.42,.85,1.16,.85,4.77,.11,7.52,.16,8.15,.16,1.01,0,1.48-.27,1.48-.79,0-.32-.42-.69-1.27-1.22-.85-.53-1.27-1.54-1.27-2.91v-21.01c0-1.22,.48-2.12,1.43-2.7,.74-.48,1.06-.9,1.06-1.27,0-.48-.64-.85-1.91-1.11l-6.3-1.43c-.74-.21-1.27-.27-1.64-.27-.58,0-.9,.21-.9,.69,0,.42,.58,1.01,1.69,1.75,1.32,.79,2.33,1.64,3.02,2.49,.9,.95,1.32,2.01,1.32,3.18v5.93H30.86c-.79,0-1.43-.21-1.85-.53-.42-.42-.74-1.01-.9-1.8l-.69-3.44h-1.64c.21,3.6,.27,6.4,.27,8.41,0,1.91-.05,4.71-.27,8.42h1.64l.74-3.49c.16-.69,.48-1.17,.9-1.48s1.01-.48,1.8-.48h25.83v6.03Z"/>
    <path class="cls-1" d="M65.42,2934.18l.74-.79c-2.86-2.86-6.35-5.13-10.48-6.72-4.24-1.69-8.63-2.49-13.29-2.49s-9,.79-13.23,2.44c-4.13,1.64-7.68,3.92-10.53,6.78l.74,.79c2.91-2.54,6.3-4.45,10.16-5.72,3.87-1.27,8.15-1.91,12.92-1.91s9.05,.64,12.86,1.91c3.86,1.27,7.25,3.18,10.11,5.72Z"/>
    <polygon class="cls-1" points="23.34 3011.51 61.14 3011.51 61.14 3005.74 45.2 3005.74 45.2 2985.94 61.14 2985.94 61.14 2980.17 23.34 2980.17 23.34 2985.94 40.28 2985.94 40.28 3005.74 23.34 3005.74 23.34 3011.51"/>
    <path class="cls-1" d="M65.21,3053.1c0-6.19-14.13-22.87-23.4-22.87-2.59,0-4.98,1.22-6.46,4.34-.16,.37-.27,.58-.42,.58-.42,0-1.06-1.64-1.85-3.7-3.92-10.06-12.01-22.34-23.77-22.34-6.3,0-9.32,2.54-9.32,4.98,0,6.35,21.38,26.68,32.71,37.21l.32-.32c-11.75-10.8-30.86-29.75-30.86-35.99,0-2.33,2.43-5.19,7.73-5.19,10.27,0,18.9,14.5,22.18,22.55,.95,2.38,2.17,3.23,2.86,3.23,.32,0,.58-.32,.85-.74,1.59-2.65,3.34-3.81,5.66-3.81,8.47,0,22.76,18.21,22.76,23.03,0,1.22-.74,1.69-1.59,1.69-3.44,0-9.26-6.3-11.33-8.31l-.32,.32c2.86,3.34,6.67,8.42,10.96,8.42,2.17,0,3.28-1.59,3.28-3.07Z"/>
    <polygon class="cls-1" points="40.22 3086.62 45.93 3086.62 45.93 3063.81 57.33 3063.81 57.33 3086.62 63.03 3086.62 63.03 3058.1 23.12 3058.1 23.12 3063.81 40.22 3063.81 40.22 3075.21 34.52 3075.21 34.52 3080.91 40.22 3080.91 40.22 3086.62"/>
    <rect class="cls-1" x="28.82" y="3080.91" width="5.7" height="5.7"/>
    <rect class="cls-1" x="45.93" y="3086.62" width="11.41" height="5.7"/>
  </g>
  <g>
    <path class="cls-1" d="M31.57,3128.27v9.79c0,9.05,3.87,13.6,11.59,13.6s11.49-4.5,11.49-13.5v-15.67H16.85v5.77h14.71Zm18.16,0v9.42c0,2.8-.53,4.87-1.59,6.19-.95,1.32-2.65,2.01-4.98,2.01s-4.02-.69-5.08-1.96c-1.06-1.32-1.59-3.39-1.59-6.25v-9.42h13.23Z"/>
    <path class="cls-1" d="M58.93,3163.94l.74-.79c-2.86-2.86-6.35-5.13-10.48-6.72-4.24-1.69-8.63-2.49-13.29-2.49s-9,.79-13.23,2.44c-4.13,1.64-7.68,3.92-10.53,6.78l.74,.79c2.91-2.54,6.3-4.45,10.16-5.72,3.87-1.27,8.15-1.91,12.92-1.91s9.05,.64,12.86,1.91c3.86,1.27,7.25,3.18,10.11,5.72Z"/>
    <path class="cls-1" d="M35.75,3198.72c4.98,0,9.16-1.8,12.44-5.29,3.28-3.49,4.92-7.94,4.92-13.23,0-5.72-1.59-10.38-4.82-13.92-3.18-3.65-7.41-5.45-12.7-5.45s-9.48,1.75-12.55,5.29c-2.91,3.39-4.39,7.83-4.39,13.34s1.59,10.38,4.66,13.97c3.07,3.49,7.25,5.29,12.44,5.29Zm-10.64-9.21c-2.86-2.33-4.29-5.77-4.29-10.32,0-3.7,1.48-6.67,4.39-8.95,2.75-2.22,6.14-3.33,10.11-3.33,4.34,0,7.94,.95,10.69,2.96,3.28,2.22,4.92,5.4,4.92,9.53,0,4.34-1.59,7.73-4.82,10.11-2.75,2.06-6.35,3.12-10.69,3.12s-7.73-1.06-10.32-3.12Z"/>
    <path class="cls-1" d="M22.67,3203.16c4.24,1.59,8.63,2.44,13.23,2.44s9.05-.85,13.29-2.49c4.13-1.64,7.62-3.87,10.48-6.72l-.74-.79c-2.86,2.49-6.25,4.39-10.11,5.72-3.81,1.27-8.1,1.91-12.86,1.91s-9.05-.63-12.92-1.91c-3.86-1.32-7.25-3.23-10.16-5.72l-.74,.79c2.86,2.86,6.4,5.08,10.53,6.78Z"/>
    <path class="cls-1" d="M27.02,3233.64c5.45,0,8.68-2.86,11.75-10.59l.9-2.33c1.64-4.18,3.86-6.57,7.57-6.57,4.45,0,6.78,3.44,6.78,8.1,0,1.8-.32,3.23-1.17,4.71l-6.93,1.48v3.02l7.57,.37c1.85-2.54,3.07-5.61,3.07-9.53,0-7.3-3.92-12.92-10.64-12.92-5.82,0-9.16,3.97-11.59,10l-.9,2.17c-2.06,5.19-3.86,7.3-7.62,7.3-4.71,0-7.25-3.65-7.25-9.26,0-2.49,.42-4.23,1.43-6.09l7.25-1.48v-2.96l-8.15-.37c-1.69,2.65-3.07,6.88-3.07,11.28,0,8.05,4.13,13.66,11.01,13.66Z"/>
    <rect class="cls-1" x="16.85" y="3239.82" width="37.79" height="5.72"/>
    <path class="cls-1" d="M49.53,3325.9H16.85v5.72H54.65v-1.81c.5,.12,1.01,.18,1.51,.18,3.32,0,7.2-2.72,7.2-10.37,0-3.24-.81-6.3-1.6-9.27-.78-2.95-1.52-5.73-1.52-8.66s.62-7.38,3.56-10.8l.32-.37-1.09-.82-.28,.32c-2.53,2.93-3.87,6.96-3.87,11.66,0,3.19,.81,6.23,1.59,9.18,.79,2.97,1.53,5.78,1.53,8.75,0,6.65-3.14,9-5.84,9-.5,0-1.01-.1-1.51-.25v-2.47h-3.44c-1.15-1.49-1.93-3.52-1.93-6.01,0-3.6,1.33-6.93,2.61-10.14,1.32-3.31,2.69-6.74,2.69-10.55,0-.97-.06-1.94-.19-2.91,1.91-.24,4.58-1.49,4.58-6.69,0-11.2-10.44-20.36-20.65-22.88-.21-8.5-5.52-17.82-12.99-17.82s-10.6,10.21-10.6,17.07c0,9.9,6.8,15.22,16.41,21.66,6.19,4.16,11.43,8.1,12.85,14.3l.1,.43,1.35-.27-.11-.46c-1.62-7-7.42-11.1-13.04-15.08-7.06-4.99-15.29-14.41-15.29-24.53,0-4.73,2.22-11.77,8.33-11.77,6.57,0,11.29,8.39,11.6,16.14-1.52-.29-3.06-.44-4.58-.44-2.5,0-4.87,.39-7.03,1.16l-.45,.16,.52,1.3,.41-.15c2.07-.73,4.27-1.11,6.55-1.11,1.53,0,3.07,.15,4.59,.46-.1,3.24-1.04,7.6-4.83,10.68-1.12,.9-1.42,.94-1.89,.94-.13,0-.27,0-.42-.02-.22-.01-.48-.03-.8-.03-.6,0-1.04,.41-1.04,.96,0,.72,.45,1.18,1.14,1.18,1.42,0,3.85-1.87,3.95-1.95,3.15-2.5,5.04-6.65,5.25-11.44,10.88,2.81,19.32,12.15,19.32,21.49,0,3.23-1.17,5.06-3.4,5.33-1.91-10.58-10.39-16.11-14.48-16.11-1.63,0-2.67,.96-2.67,2.45,0,7.73,9.78,14.67,15.97,15.04,.13,.97,.19,1.94,.19,2.89,0,3.57-1.27,6.75-2.6,10.11-1.32,3.33-2.69,6.77-2.69,10.58,0,2.38,.63,4.41,1.62,6.01Zm-9.81-45.71c3.55,0,11.24,5.19,13.07,14.72-5.16-.78-14.38-8.76-14.38-13.73,0-.27,0-.99,1.31-.99Z"/>
    <path class="cls-1" d="M44.75,3364.32l-19.94-7.52,18.42-8.28c1.83-.82,3.13-1.38,3.92-1.68,.79-.3,1.4-.45,1.84-.45,.86,0,1.43,.42,1.71,1.27,.16,.48,.24,1.38,.26,2.71h.91v-14.1h-.91c-.09,1.27-.43,2.24-1.04,2.91s-2.14,1.55-4.61,2.65l-29.09,13.08v.8l29.77,11.72c2.03,.79,3.38,1.59,4.06,2.4,.45,.53,.75,1.36,.91,2.48h.91v-10.83h-.91c-.04,1.19-.16,2.04-.37,2.55-.37,.88-1.07,1.32-2.1,1.32-.38,0-.88-.09-1.5-.26-.61-.17-1.36-.43-2.24-.76Z"/>
    <path class="cls-1" d="M17.62,3401.12h7.48c.42,0,.77-.35,.77-.77v-9.81c0-.61,.49-1.1,1.1-1.1h2.8c.61,0,1.1,.49,1.1,1.1v5.14c0,.42,.35,.77,.77,.77h7.48c.43,0,.77-.35,.77-.77v-5.14c0-.42-.34-.77-.77-.77h-7.48c-.61,0-1.1-.49-1.1-1.1v-12.15c0-.42-.35-.77-.77-.77h-12.15c-.42,0-.77,.34-.77,.77h0v23.83c0,.42,.35,.77,.77,.77Z"/>
    <path class="cls-1" d="M53.91,3400.35v-23.83c0-.43-.35-.77-.77-.77h-12.15c-.42,0-.77,.34-.77,.77v5.14c0,.61-.49,1.1-1.1,1.1h-7.48c-.42,0-.77,.35-.77,.77v5.14c0,.43,.35,.77,.77,.77h7.48c.36-.02,.77-.32,.77-.77v-5.14c0-.61,.49-1.1,1.1-1.1h2.8c.61,0,1.1,.49,1.1,1.1v16.82c0,.42,.35,.77,.77,.77h7.48c.42,0,.77-.35,.77-.77Z"/>
  </g>
  <g>
    <polygon class="cls-1" points="36.25 3444.61 42.18 3444.61 48.11 3444.61 54.05 3444.61 54.05 3450.54 59.98 3450.54 59.98 3444.61 65.91 3444.61 65.91 3438.68 59.98 3438.68 54.05 3438.68 48.11 3438.68 42.18 3438.68 36.25 3438.68 30.32 3438.68 30.32 3444.61 36.25 3444.61"/>
    <polygon class="cls-1" points="48.11 3456.47 42.18 3456.47 36.25 3456.47 30.32 3456.47 30.32 3462.41 36.25 3462.41 42.18 3462.41 48.11 3462.41 54.05 3462.41 59.98 3462.41 65.91 3462.41 65.91 3456.47 59.98 3456.47 54.05 3456.47 54.05 3450.54 48.11 3450.54 48.11 3456.47"/>
    <polygon class="cls-1" points="43.61 3478.86 43.61 3498.97 48.53 3498.97 48.53 3478.86 59.54 3478.86 59.54 3500.24 64.47 3500.24 64.47 3473.08 26.67 3473.08 26.67 3501.14 31.59 3501.14 31.59 3478.86 43.61 3478.86"/>
    <path class="cls-1" d="M41.07,3527.97l-.53,8.2h-9.79c-.63-2.59-.95-5.4-.95-7.83,0-10.9,5.88-16.78,16.67-16.78s16.78,5.82,16.78,15.35c0,3.07-.32,5.93-1.27,8.79l-7.52,.79v3.18h10.27c1.32-4.13,1.96-7.89,1.96-11.91,0-12.28-8.26-20.75-20.33-20.75s-19.85,7.41-19.85,20.22c0,4.71,.58,9,1.8,13.13h12.23l.53,5.82h2.65v-18.21h-2.65Z"/>
    <path class="cls-1" d="M36.41,3556.91v16.25l-9.74,3.55v6.19l37.79-14.56v-6.57l-37.79-14.56v6.14l9.74,3.55Zm21.86,8.05v.21l-17.1,6.25v-12.76l17.1,6.3Z"/>
    <path class="cls-1" d="M70.45,3589.4c-7.83-3.92-16.04-5.88-24.72-5.88s-16.88,1.96-24.72,5.88v2.7c7.89-4.08,16.14-6.09,24.72-6.09s16.88,2.01,24.72,6.09v-2.7Z"/>
    <polygon class="cls-1" points="64.47 3624.87 64.47 3593.9 59.54 3593.9 59.54 3606.5 26.67 3606.5 26.67 3612.27 59.54 3612.27 59.54 3624.87 64.47 3624.87"/>
    <path class="cls-1" d="M70.45,3629.31v-2.7c-7.83,4.02-16.09,6.09-24.72,6.09s-16.83-2.07-24.72-6.09v2.7c7.83,3.92,16.09,5.88,24.72,5.88s16.88-1.96,24.72-5.88Z"/>
    <rect class="cls-1" x="26.67" y="3639.62" width="37.79" height="5.72"/>
    <path class="cls-1" d="M48.43,3693.43c-.57,0-.98,.53-.98,1.25,0,1.15,.98,1.86,1.88,1.86s1.75-.67,1.75-2.18c0-5.57-4.36-9.71-8.29-12.73,.45-.99,.82-1.9,1.13-2.81,3.64,2.42,8.68,5.13,12.95,5.13,4.96,0,7.7-2.59,7.7-7.29,0-16.29-18.57-28.46-35.18-28.46-5.53,0-23.59,1.75-23.59,24.2,0,10.43,5.81,21.64,18.57,21.64,7.26,0,14.03-4.26,17.78-11.15,3.61,2.81,7.57,6.61,7.57,11.46,0,.11,0,.2-.02,.28-.43-.98-.91-1.21-1.27-1.21Zm-41.27-21.03c0-14.3,8.32-22.84,22.25-22.84,15.95,0,33.79,11.59,33.79,27.09,0,3.82-2.25,5.93-6.34,5.93-3.77,0-8.47-3.41-12.19-6.46,1.21-5.27,1.12-11.16-.04-17.03l-.09-.45-1.35,.27,.09,.45c1.09,5.5,1.22,10.89,.21,15.76-1.54-1.3-3.03-2.61-4.3-3.74-5.98-5.3-10.49-7.99-13.39-7.99-.71,0-1.91,.27-1.91,2.04s1.82,4.35,2.78,5.5c2.46,2.95,5.5,5.02,8.44,7.02,.57,.39,1.14,.78,1.7,1.17l.81,.56c1.13,.77,2.3,1.57,3.41,2.39-3.47,6.56-9.84,10.62-16.69,10.62-11.82,0-17.2-10.51-17.2-20.28Zm30.89,5.89l-.76-.51c-3.48-2.33-7.34-5.06-9.55-7.7-1.23-1.47-2.48-3.54-2.48-4.64,0-.63,.24-.68,.54-.68,1.84,0,5.44,3.36,8.62,6.32,1.1,1.03,2.21,2.06,3.26,2.98,1.47,1.29,3.17,2.62,5.06,3.96-.32,.98-.67,1.92-1.07,2.79-1.19-.88-2.43-1.71-3.63-2.52Z"/>
    <polygon class="cls-1" points="59.54 3725.84 64.47 3725.84 64.47 3698.69 26.67 3698.69 26.67 3726.74 31.59 3726.74 31.59 3704.46 43.61 3704.46 43.61 3724.57 48.53 3724.57 48.53 3704.46 59.54 3704.46 59.54 3725.84"/>
  </g>
  <g>
    <polygon class="cls-1" points="17.28 3779.07 17.28 3784.79 50.15 3784.79 50.15 3797.39 55.07 3797.39 55.07 3766.42 50.15 3766.42 50.15 3779.07 17.28 3779.07"/>
    <path class="cls-1" d="M51.39,3832.56c.59,.6,.95,1.9,1.1,3.92h1.02v-15.18h-1.02c-.14,2.03-.51,3.34-1.1,3.93s-1.86,.88-3.82,.88h-10.67v-16.63h10.67c1.96,0,3.23,.3,3.82,.9s.95,1.91,1.1,3.91h1.02v-15.18h-1.02c-.14,2.01-.51,3.32-1.1,3.92s-1.86,.9-3.82,.9H23.85c-2.36,0-3.82-.27-4.38-.8-.56-.53-.95-1.87-1.18-4.01h-1.02v15.18h1.02c.16-2,.52-3.31,1.09-3.91,.57-.6,1.84-.9,3.83-.9h11.28v16.63h-10.64c-2.36,0-3.82-.26-4.39-.79-.57-.53-.96-1.87-1.17-4.02h-1.02v15.18h1.02c.18-2.01,.55-3.32,1.1-3.92,.56-.6,1.83-.9,3.82-.9h24.35c1.96,0,3.23,.3,3.82,.9Z"/>
    <path class="cls-1" d="M44.99,3871.49v-9.81c0-.61,.49-1.1,1.1-1.1h7.48c.43,0,.77-.35,.77-.77v-19.16c0-.43-.34-.77-.77-.77H18.05c-.42,0-.77,.34-.77,.77v5.14c0,.42,.35,.77,.77,.77h26.17c.61,0,1.1,.49,1.1,1.1v12.15c0,.61-.49,1.1-1.1,1.1h-7.48c-.43,0-.77,.34-.77,.77v9.81c0,.42,.35,.77,.77,.77h7.48c.42,0,.77-.35,.77-.77Z"/>
    <path class="cls-1" d="M30.99,3871.49v-9.81c0-.61,.49-1.1,1.1-1.1h2.8c.43,0,.77-.35,.77-.77v-12.15c0-.42-.34-.77-.77-.77H18.05c-.43,0-.77,.35-.77,.77v5.14c0,.42,.35,.77,.77,.77h12.17c.61,0,1.1,.49,1.1,1.1v5.14c0,.61-.49,1.1-1.1,1.1h-12.15c-.42,0-.77,.35-.77,.77v9.81c0,.42,.35,.77,.77,.77h12.15c.42,0,.77-.35,.77-.77Z"/>
    <path class="cls-1" d="M18.45,3881.05c-.68,.91-1.21,2.03-1.58,3.33-.37,1.29-.55,2.8-.55,4.48,0,1.53,.28,3.1,.83,4.67,.55,1.57,1.28,3.01,2.16,4.28,.88,1.28,1.88,2.35,2.97,3.18,1.11,.84,2.24,1.27,3.37,1.27,1.26,0,2.34-.43,3.21-1.29,.87-.86,1.31-2.14,1.31-3.83s-.41-3.16-1.21-4.44c-.8-1.27-1.87-2.4-3.18-3.34l-.19-.13-.5,.69,.19,.13c.47,.32,.94,.72,1.42,1.17,.47,.46,.89,.96,1.26,1.48,.37,.52,.66,1.09,.88,1.67,.22,.58,.33,1.18,.33,1.78,0,1.13-.32,1.95-.95,2.44-.65,.51-1.62,.77-2.89,.77s-2.46-.32-3.43-.96c-.98-.64-1.8-1.47-2.44-2.45-.65-.98-1.14-2.08-1.47-3.26-.67-2.46-.66-4.7,.13-6.52,.41-.95,.95-1.77,1.61-2.44,.66-.67,1.43-1.2,2.3-1.58,.87-.38,1.77-.57,2.67-.57,1.64,0,3.02,.27,4.08,.81,1.07,.54,1.99,1.26,2.73,2.14,.76,.89,1.41,1.91,1.94,3.05,.54,1.16,1.09,2.33,1.63,3.51,.5,1.09,1.17,1.9,1.99,2.41,.82,.5,1.84,.76,3.02,.76,.86,0,1.81,.12,2.82,.36,1.01,.24,1.97,.62,2.83,1.15,.86,.52,1.58,1.23,2.15,2.1,.56,.86,.84,1.95,.84,3.22,0,1.39-.3,2.48-.9,3.25-.59,.75-1.55,1.13-2.85,1.13-.48,0-1.05-.11-1.69-.33-.64-.22-1.26-.55-1.84-.98-.58-.43-1.08-.98-1.48-1.64-.4-.64-.6-1.4-.6-2.26,0-.91,.07-1.55,.21-1.91l.11-.28-.97-.09-.06,.16c-.07,.17-.13,.46-.19,.86-.18,1.15-.1,2.55,.32,3.91,.28,.9,.7,1.73,1.26,2.47,.56,.75,1.25,1.36,2.06,1.82,.82,.47,1.75,.71,2.78,.71,.86,0,1.6-.2,2.23-.6,.61-.39,1.12-.9,1.52-1.52,.39-.61,.67-1.29,.84-2.04,.17-.74,.25-1.49,.25-2.22,0-1.77-.28-3.34-.83-4.68-.55-1.34-1.31-2.46-2.25-3.34-.94-.88-2.03-1.54-3.25-1.97-1.21-.43-2.51-.65-3.86-.65-.85,0-1.55-.03-2.08-.09-.5-.06-.91-.16-1.22-.32-.29-.15-.53-.36-.7-.62-.19-.29-.4-.68-.64-1.19-.57-1.29-1.18-2.58-1.81-3.84-.64-1.27-1.38-2.39-2.2-3.35-.83-.97-1.81-1.76-2.92-2.36-1.11-.6-2.46-.91-4-.91-1.12,0-2.16,.25-3.09,.73-.93,.48-1.75,1.19-2.43,2.1Z"/>
    <path class="cls-1" d="M17.28,3910.71l9.74,3.55v16.25l-9.74,3.55v6.19l37.79-14.56v-6.57l-37.79-14.56v6.14Zm31.6,11.59v.21l-17.1,6.25v-12.76l17.1,6.3Z"/>
    <path class="cls-1" d="M39.99,3957.97h4.66v-6.25h8.84l-2.33-5.61h-6.51v-5.08h-4.66v5.08h-15.88c-2.17,0-3.81,.48-4.98,1.53-1.22,1.06-1.85,2.81-1.85,5.14v4.5h4.66v-3.6c0-.69,.21-1.17,.53-1.48,.37-.32,.9-.48,1.64-.48h15.88v6.25Z"/>
    <polygon class="cls-1" points="22.2 3991.05 22.2 3968.76 34.22 3968.76 34.22 3988.88 39.14 3988.88 39.14 3968.76 50.15 3968.76 50.15 3990.15 55.07 3990.15 55.07 3962.99 17.28 3962.99 17.28 3991.05 22.2 3991.05"/>
    <path class="cls-1" d="M25.69,4047.26l3.37,3.78,1.16-.87-3.53-3.97c-12.65-14.2-17.16-27.56-17.16-35.33,0-3.65,1.15-8.01,6.63-8.01,2.82,0,5.99,.67,9.41,1.99,2.18,12.41,14.76,32.24,27.07,42.61,5.47,4.6,9.55,6.93,12.14,6.93,1.54,0,3.37-.74,3.37-4.26,0-3.96-2.45-9.78-4.72-13.52-8.97-14.69-23.64-27.9-36.59-32.95-.11-.73-.16-1.47-.16-2.26,0-3.44,1.55-7.11,5.89-7.11,3.49,0,10.02,2.34,21.26,13.47l.32,.32,1.07-1.07-.33-.32c-9.15-9.05-16.87-13.83-22.33-13.83s-7.33,4.42-7.33,8.55c0,.54,.03,1.11,.08,1.71-3.24-1.12-6.31-1.69-9.15-1.69-5.21,0-8.07,3.36-8.07,9.45,0,8.07,4.62,21.87,17.6,36.38Zm41.02,2.87c0,2.82-1.45,2.82-1.92,2.82-1.04,0-4.21-.64-11.24-6.61-11.45-9.71-23.79-28.88-26.4-40.82,12.43,5.38,26.43,18.08,35.08,31.89,2.51,3.99,4.48,9.57,4.48,12.72Z"/>
    <rect class="cls-1" x="17.28" y="4059.09" width="37.79" height="5.72"/>
    <polygon class="cls-1" points="16.01 4089.98 52.9 4089.98 52.9 4086.72 24.93 4086.72 24.93 4084.41 30.54 4084.41 30.54 4081.61 36.15 4081.61 36.15 4078.8 41.72 4078.8 41.72 4076 47.33 4076 47.33 4073.23 52.9 4073.23 52.9 4069.88 16.01 4069.88 16.01 4073.23 41.22 4073.23 41.22 4075.54 35.65 4075.54 35.65 4078.3 30.04 4078.3 30.04 4081.11 24.47 4081.11 24.47 4083.92 18.86 4083.92 18.86 4086.72 16.01 4086.72 16.01 4089.98"/>
    <path class="cls-1" d="M49.14,4105.22c-3.44-2.97-7.78-4.39-13.07-4.39s-9.58,1.43-12.92,4.39c-3.6,3.18-5.4,7.62-5.4,13.34,0,3.07,.42,5.93,1.22,8.52,.79,2.43,1.91,4.6,3.39,6.51h14.98v-15.51h-4.87v9.74h-7.41c-.74-1.17-1.27-2.43-1.69-3.86-.42-1.54-.64-3.18-.64-4.87,0-4.34,1.27-7.52,3.71-9.58,2.22-1.96,5.45-2.91,9.63-2.91s7.68,1.01,10.11,3.12c2.33,2.01,3.44,4.71,3.44,8.1,0,2.86-.58,5.08-1.75,6.67-1.06,1.59-2.86,2.7-5.4,3.28v5.77c4.02-.64,7.04-2.28,9.05-4.87,2.12-2.65,3.12-6.3,3.12-10.85,0-5.29-1.8-9.48-5.5-12.6Z"/>
    <path class="cls-1" d="M54.6,4099.45c-5.03-5.08-11.12-7.57-18.26-7.57s-13.18,2.49-18.26,7.57c-5.03,5.03-7.57,11.12-7.57,18.26s2.54,13.18,7.57,18.26c5.08,5.03,11.17,7.57,18.26,7.57s13.23-2.54,18.26-7.57c5.08-5.08,7.57-11.17,7.57-18.26s-2.49-13.23-7.57-18.26Zm-18.26,41.71c-6.46,0-11.96-2.28-16.62-6.83-4.55-4.66-6.83-10.16-6.83-16.62s2.28-12.02,6.83-16.62c4.66-4.55,10.16-6.83,16.62-6.83s12.02,2.28,16.62,6.83c4.55,4.6,6.83,10.16,6.83,16.62s-2.28,11.96-6.83,16.62c-4.6,4.55-10.16,6.83-16.62,6.83Z"/>
  </g>
</svg>