<svg xmlns="http://www.w3.org/2000/svg" viewBox="0 0 96.71453 93.73393"><defs><style>.cls-1{fill:#ff00c9;}.cls-2{fill:#a6e2c5;}</style></defs><g id="font"><rect class="cls-1" width="96.71453" height="93.73393"/><rect class="cls-2" x="46.19907" y="4.64755" width="4.31554" height="84.43883"/><rect class="cls-2" x="46.19879" y="4.64777" width="4.3161" height="84.43839" transform="translate(-10.48231 14.11257) rotate(-14.99994)"/><rect class="cls-2" x="46.19951" y="4.64786" width="4.31551" height="84.43821" transform="translate(-16.95481 30.45752) rotate(-29.99991)"/><rect class="cls-2" x="46.19972" y="4.6477" width="4.31508" height="84.43853" transform="translate(-18.97643 47.92077) rotate(-45)"/><rect class="cls-2" x="46.19951" y="4.64786" width="4.31551" height="84.43821" transform="translate(-16.40932 65.3122) rotate(-60.00009)"/><rect class="cls-2" x="46.19921" y="4.64735" width="4.3161" height="84.43839" transform="translate(-9.42809 81.44618) rotate(-75.00006)"/><rect class="cls-2" x="6.13785" y="44.70877" width="84.43883" height="4.31554"/><rect class="cls-2" x="6.13807" y="44.70849" width="84.43839" height="4.3161" transform="translate(-10.48669 14.12075) rotate(-15.00782)"/><rect class="cls-2" x="6.13816" y="44.70921" width="84.43821" height="4.31551" transform="translate(-16.95492 30.45794) rotate(-30.00028)"/><rect class="cls-2" x="6.138" y="44.70943" width="84.43853" height="4.31508" transform="translate(-18.97643 47.92077) rotate(-45)"/><rect class="cls-2" x="6.13816" y="44.70921" width="84.43821" height="4.31551" transform="translate(-16.40944 65.31179) rotate(-59.99972)"/><rect class="cls-2" x="6.13765" y="44.70892" width="84.43839" height="4.3161" transform="translate(-9.43356 81.43814) rotate(-74.99218)"/></g></svg>