<?xml version="1.0" encoding="UTF-8"?>
<svg id="_圖層_1" data-name="圖層 1" xmlns="http://www.w3.org/2000/svg" viewBox="0 0 87.95 86.49">
  <defs>
    <style>
      .cls-1 {
        fill: #004943;
      }

      .cls-2 {
        fill: #a9a9ff;
      }
    </style>
  </defs>
  <rect class="cls-1" x=".48" y="1.09" width="86.99" height="84.31"/>
  <g>
    <rect class="cls-2" x="42.03" y="5.27" width="3.88" height="75.95"/>
    <rect class="cls-2" x="42.03" y="5.27" width="3.88" height="75.95" transform="translate(-9.69 12.86) rotate(-15)"/>
    <rect class="cls-2" x="42.04" y="5.27" width="3.88" height="75.95" transform="translate(-15.73 27.78) rotate(-30)"/>
    <rect class="cls-2" x="42.04" y="5.27" width="3.88" height="75.95" transform="translate(-17.7 43.76) rotate(-45)"/>
    <rect class="cls-2" x="42.04" y="5.27" width="3.88" height="75.95" transform="translate(-15.46 59.71) rotate(-60)"/>
    <rect class="cls-2" x="42.04" y="5.27" width="3.88" height="75.95" transform="translate(-9.18 74.53) rotate(-75)"/>
    <rect class="cls-2" x="6" y="41.3" width="75.95" height="3.88"/>
    <rect class="cls-2" x="6" y="41.3" width="75.95" height="3.88" transform="translate(-9.7 12.86) rotate(-15.01)"/>
    <rect class="cls-2" x="6" y="41.31" width="75.95" height="3.88" transform="translate(-15.73 27.78) rotate(-30)"/>
    <rect class="cls-2" x="6" y="41.31" width="75.95" height="3.88" transform="translate(-17.7 43.76) rotate(-45)"/>
    <rect class="cls-2" x="6" y="41.31" width="75.95" height="3.88" transform="translate(-15.46 59.71) rotate(-60)"/>
    <rect class="cls-2" x="6" y="41.3" width="75.95" height="3.88" transform="translate(-9.18 74.52) rotate(-74.99)"/>
  </g>
</svg>