<?xml version="1.0" encoding="UTF-8"?><svg id="_圖層_3" xmlns="http://www.w3.org/2000/svg" viewBox="0 0 773.61 120.68"><path d="M91.65,35.73c1.3-1.76,2.51-3.22,3.62-4.37,1.11-1.15,2.19-2.03,3.22-2.65,1.04-.61,2.01-1.04,2.93-1.27s1.84-.34,2.76-.34c.23,0,.34-.08,.34-.23-.23-.61-.75-1.17-1.55-1.67s-1.48-.75-2.01-.75c-1,0-1.94,.23-2.82,.69-.88,.46-1.73,1.04-2.53,1.73s-1.54,1.46-2.19,2.3c-.65,.85-1.21,1.65-1.67,2.42-1.92,2.99-3.85,6.21-5.81,9.67-1.96,3.45-3.89,7.02-5.81,10.7-1.92,3.68-3.82,7.4-5.7,11.16-1.88,3.76-3.7,7.44-5.47,11.05-.23,.46-.48,.9-.75,1.32-.27,.42-.52,.63-.75,.63-.38,0-.65-.19-.81-.57-.15-.38-.31-.88-.46-1.5-.84-2.45-1.82-5.18-2.93-8.17-1.11-2.99-2.23-6.02-3.34-9.09-1.11-3.07-2.17-6.04-3.16-8.92-1-2.88-1.8-5.47-2.42-7.77-.23-.84-.48-1.86-.75-3.05-.27-1.19-.48-2.09-.63-2.7-.08-.69-.38-1.03-.92-1.03-.92,.31-2.11,.57-3.57,.8-1.46,.23-2.92,.34-4.37,.34-1.07,0-2.17-.06-3.28-.17-1.11-.11-2.05-.29-2.82-.52-.23,0-.34,.15-.34,.46,0,.39,.1,.75,.29,1.09,.19,.35,.44,.52,.75,.52,.84-.08,1.84-.13,2.99-.17,1.15-.04,2.19-.06,3.11-.06,.84,0,1.51,.19,2.01,.57,.5,.39,.75,1,.75,1.84,0,.54-.15,1.19-.46,1.96-.69,1.77-1.84,4.14-3.45,7.13-1.61,2.99-3.3,5.95-5.06,8.86-3.22,5.37-5.74,9.57-7.54,12.6-1.8,3.03-3.16,5.35-4.08,6.96-.54,.85-1.06,1.77-1.55,2.76-.5,1-.75,1.88-.75,2.65,0,.31,.1,.73,.29,1.27,.19,.54,.44,1.06,.75,1.55,.31,.5,.59,.98,.86,1.44,.27,.46,.48,.73,.63,.81h.34c0-.77,.08-1.67,.23-2.7,.15-1.03,.34-2.07,.57-3.11,.23-1.04,.48-2.01,.75-2.93,.27-.92,.56-1.73,.86-2.42,1.07-2.45,2.22-4.87,3.45-7.25,1.23-2.38,2.53-4.81,3.91-7.31,1.38-2.49,2.89-5.04,4.54-7.65,1.65-2.61,3.43-5.41,5.35-8.4,.61-.92,1.11-1.38,1.5-1.38s.81,.5,1.27,1.5c.84,2,1.88,4.64,3.11,7.94,1.23,3.3,2.51,6.83,3.85,10.59,1.34,3.76,2.65,7.56,3.91,11.39,1.27,3.84,2.36,7.36,3.28,10.59,.38,.54,.73,.81,1.04,.81,.23,0,.46-.27,.69-.81,.84-1.69,1.71-3.57,2.59-5.64,.88-2.07,1.74-4.1,2.59-6.1,2.99-6.67,6.25-13.31,9.78-19.91,3.53-6.6,7.13-12.43,10.82-17.49Z"/><path d="M95.1,53.18c-4.14,0-7.62,1.36-10.45,4.07-3.09,2.97-4.63,6.91-4.63,11.82s1.45,8.5,4.34,11.48c2.85,2.92,6.43,4.38,10.74,4.38,4.03,0,7.47-1.32,10.32-3.96,3.18-2.95,4.76-6.92,4.76-11.91s-1.54-8.85-4.61-11.8c-2.83-2.73-6.32-4.09-10.47-4.09Zm6.97,26.71c-1.93,2.26-4.25,3.38-6.96,3.38s-5.11-1.16-7.02-3.47c-1.91-2.32-2.86-5.89-2.86-10.73s.96-8.44,2.87-10.75c1.91-2.32,4.25-3.47,7.01-3.47s4.98,1.12,6.93,3.35c1.95,2.23,2.92,5.86,2.92,10.88s-.96,8.57-2.89,10.82Z"/><polygon points="112.58 55.7 123.58 55.7 123.58 84.29 128.55 84.29 128.55 55.7 139.5 55.7 139.5 51.42 112.58 51.42 112.58 55.7"/><path d="M179.13,73.1c-1.24-2.38-2.09-3.62-2.86-4.28,4.09-1.52,6.19-4.67,6.19-9.28,0-5.33-4-8.57-10.71-8.57h-5.24l-9.04,.24v2.62l4.05,.95v25.71l-4.05,.95v2.86h13.09v-2.86l-4.05-.95v-10.71h2.14c3.14,0,4.19,.95,6.43,5.71l4.05,8.81h7.14v-2.86l-3.38-.76-3.76-7.57Zm-9.04-6.9h-3.57v-11.43h5c3.48,0,5.95,2.29,5.95,5.48,0,3.76-2.71,5.95-7.38,5.95Z"/><path d="M209.75,52.07h-20.72c-.37,0-.67,.3-.67,.67v10.56c0,.37,.3,.67,.67,.67h4.47c.53,0,.96,.43,.96,.96v6.5c0,.37,.3,.67,.67,.67h4.47c.37,0,.67-.3,.67-.67v-6.5c-.02-.31-.27-.67-.67-.67h-4.47c-.53,0-.96-.43-.96-.96v-2.44c0-.53,.43-.96,.96-.96h14.63c.37,0,.67-.3,.67-.67v-6.5c0-.37-.3-.67-.67-.67Z"/><path d="M209.75,76.45h-8.53c-.53,0-.96-.43-.96-.96v-2.44c0-.53,.43-.96,.96-.96h4.47c.37,0,.67-.3,.67-.67v-6.5c0-.37-.3-.67-.67-.67h-4.47c-.37,0-.67,.3-.67,.67v6.5c0,.53-.43,.96-.96,.96h-10.56c-.37,0-.67,.3-.67,.67v10.56c0,.37,.3,.67,.67,.67h20.72c.37,0,.67-.3,.67-.67v-6.5c0-.37-.3-.67-.67-.67Z"/><path d="M235.72,78.72c-1.56,1.2-3.59,1.79-5.98,1.79-3.68,0-6.4-1.15-8.15-3.45-1.66-2.16-2.49-5.2-2.49-9.16s.83-6.86,2.53-9.07c1.8-2.44,4.46-3.64,8.01-3.64,2.39,0,4.33,.51,5.89,1.57,1.57,1.06,2.62,2.72,3.18,4.92h4.88c-.51-3.31-1.98-5.98-4.37-7.92-2.49-2.02-5.66-2.99-9.48-2.99-5.25,0-9.21,1.7-11.97,5.2-2.49,3.08-3.68,7.04-3.68,11.92s1.15,8.93,3.54,11.87c2.72,3.41,6.77,5.15,12.15,5.15,3.54,0,6.58-1.01,9.11-3.04,2.72-2.16,4.42-5.15,5.15-8.97h-4.88c-.64,2.58-1.8,4.51-3.45,5.8Z"/><path d="M276.56,58.63c1.24-1.21,2.7-2.15,4.37-2.81,1.67-.66,3.5-.99,5.5-.99,1.87,0,3.62,.29,5.25,.87,1.63,.58,3.11,1.55,4.46,2.9l2.12-2.16c-1.44-1.57-3.18-2.73-5.22-3.5-2.04-.77-4.29-1.15-6.74-1.15s-4.72,.41-6.79,1.22c-2.07,.81-3.87,1.97-5.41,3.45-1.53,1.49-2.72,3.23-3.57,5.22-.59,1.38-.95,2.87-1.13,4.44-.63-.64-1.62-.97-2.73-1.08-4.85-.48-10.94,1.78-15.52,5.98-2.1,2.01-4.59,5.45-4.59,8.88s2.61,5.02,5.84,5.06c4.43,.06,9.94-2.99,13.07-6.81,1.98-2.44,2.92-5.39,2.9-7.2,.03-1.72-.69-3.07-2.39-3.16-2.64-.15-7.01,2.13-10.33,6.17-2.09,2.58-3.13,5.11-3.13,7.29,0,1.18,.48,2.12,1.2,2.62,.14,.11,.32,.17,.37,.08s-.08-.14-.21-.29c-.32-.37-.57-.87-.57-1.78,0-1.79,1.56-4.65,3.77-7.46,3.08-3.93,6.51-6.37,8.85-6.23,.81,.06,1.52,.55,1.41,1.72-.2,2.23-1.7,4.91-3.9,7.64-3.71,4.63-7.23,7.1-10.49,7-2.16-.06-3.12-1.32-3.12-3.33,0-2.84,2.04-6.46,4.39-8.93,2.55-2.7,7.89-6.78,12.44-6.66,1.13,.01,2.18,.43,2.66,1.27-.03,.45-.06,.89-.06,1.35,0,.32,.03,.62,.04,.93-.08,.17-.16,.32-.26,.45-.28,.41-.41,.41-.37,.55,.09,.11,.4-.11,.64-.37,0,0,0,0,0,0,.14,2.01,.56,3.83,1.27,5.44,.89,2.03,2.1,3.73,3.64,5.11,1.53,1.38,3.27,2.43,5.2,3.13,1.93,.71,3.96,1.06,6.08,1.06,2.39,0,4.63-.43,6.7-1.29,1.07-.44,2.02-1.01,2.88-1.69v2.7h2.99v-16.11h-3.27v9.96c-1.07,1.02-2.28,1.82-3.64,2.38-1.78,.74-3.59,1.11-5.43,1.11-1.69,0-3.31-.3-4.88-.9-1.56-.6-2.96-1.46-4.19-2.6-1.23-1.13-2.21-2.52-2.95-4.17-.74-1.64-1.11-3.54-1.11-5.68,0-1.93,.35-3.72,1.04-5.36,.69-1.64,1.66-3.07,2.9-4.28Z"/><polygon points="332.74 51.42 327.72 51.42 327.72 75.86 327.54 75.86 310.74 51.42 305.68 51.42 305.68 84.29 310.69 84.29 310.69 59.57 310.88 59.57 327.86 84.29 332.74 84.29 332.74 51.42"/><rect x="339.32" y="51.42" width="4.97" height="32.86"/><path d="M370.99,80.31c-3.21,0-7.35,1.36-11.69,3.84-.39-.66-.94-1.16-1.63-1.48,7.72-3.47,20.8-12.04,20.8-22.52,0-6.7-3.79-10.87-9.89-10.87-5.04,0-10.66,2.83-15.03,7.56-5.04,5.47-7.81,12.89-7.81,20.9,0,4.24,.72,8.61,2.15,13l.13,.4,1.13-.45-.11-.35c-1.4-4.3-2.11-8.54-2.11-12.6,0-16.9,12.61-27.28,21.65-27.28,3.9,0,8.46,2.23,8.46,8.5,0,9.23-14.06,19.81-21.33,23.25-.26-.04-.56-.08-.85-.08-1.6,0-2.72,.78-2.72,1.48,0,.12,.05,.71,1.01,.71,.8,0,1.51-.33,2.14-.63,.18-.09,.36-.17,.54-.25,.95,.1,1.49,.7,1.64,1.81-6.01,3.83-12.4,10-12.4,14.69,0,1.07,.63,1.66,1.77,1.66,7.1,0,13.09-9.06,13.09-14.75,0-.57-.07-1.12-.2-1.64,4.21-2.41,8.2-3.73,11.25-3.73,5.17,0,8.38,2.91,8.38,7.6,0,6.54-3.93,12.62-11.05,17.11-6.24,3.93-14.33,6.28-21.63,6.28-9.12,0-14.56-3.62-14.56-9.68,0-3.85,2.11-8.62,6.26-14.17l.24-.32-.95-.71-.24,.32c-4.31,5.74-6.5,10.74-6.5,14.89,0,6.71,6.04,10.87,15.75,10.87,7.53,0,15.86-2.43,22.3-6.51,7.45-4.72,11.56-11.13,11.56-18.06,0-5.42-3.67-8.78-9.57-8.78Zm-24.72,19.65c0-3.51,4.68-9.04,11.22-13.34-.51,5.08-6.12,13.81-10.94,13.81-.12,0-.27,0-.27-.47Z"/><polygon points="390.05 69.56 407.54 69.56 407.54 65.28 390.05 65.28 390.05 55.7 408.65 55.7 408.65 51.42 385.04 51.42 385.04 84.29 409.43 84.29 409.43 80 390.05 80 390.05 69.56"/><path d="M420.02,78.67c-.69-.64-1.52-.97-2.44-.97-1.01,0-1.79,.32-2.39,.97-.69,.64-1.01,1.47-1.01,2.48,0,.92,.32,1.75,1.01,2.44,.6,.6,1.38,.92,2.39,.92,.92,0,1.75-.32,2.44-.92,.64-.69,1.01-1.52,1.01-2.44,0-1.01-.37-1.84-1.01-2.48Z"/></svg>