<?xml version="1.0" encoding="UTF-8"?><svg id="_圖層_3" xmlns="http://www.w3.org/2000/svg" viewBox="0 0 773.61 120.68"><path d="M95.97,35.45h-6.44l-11.64,.31v.38c-1.39-1.9-3.71-3.06-7.19-3.06-14.82,0-34.92,21.2-34.92,41.53,0,1.96,.18,3.74,.55,5.33-4.2-1.5-6.92-5.21-6.92-11.7,0-11.76,17.09-37.74,36.33-37.74,1.59,0,3.19,.18,4.78,.55l.12-.61c-2.17-.43-4.29-.64-6.34-.64-21.5,0-35.68,23.22-35.68,38.38,0,6.71,3.25,10.9,7.93,12.68,2.48,9.19,10.41,13.05,16.69,13.05,9.07,0,17.09-5.64,17.09-17.95,0-3.12-.67-6.4-2.02-9.5,6.71-8.12,11.21-17.77,11.21-24.6,0-.86-.1-1.65-.25-2.42l3.82,.9v33.1l-5.21,1.23v3.68h16.85v-3.68l-5.21-1.23v-11.03h3.98c10.42,0,16.55-4.9,16.55-14.4,0-7.66-4.9-12.56-14.1-12.56Zm-26.19,40.39c0,11.64-7.96,17.4-16.11,17.4-6.83,0-13.78-4.04-16.23-12.07,1.5,.46,3.12,.67,4.84,.67,9.19,0,18.56-6.59,25.61-14.89,1.26,2.91,1.9,5.94,1.9,8.88Zm8.42-35.07c0,6.16-4.59,15.31-11.12,23.31-2.85-4.96-7.63-9.25-14.4-11.52l-.12,.61c6.71,2.42,11.36,6.59,14.12,11.36-7.38,8.88-17.09,16.2-25.39,16.2-1.47,0-2.85-.18-4.14-.52-.43-1.68-.64-3.52-.64-5.54,0-18.68,18.75-40.98,34.18-40.98,4.2,0,6.43,1.79,7.19,4.65v.79l.2,.05c.08,.51,.12,1.04,.12,1.59Zm15.31,16.75h-3.98v-17.16h6.13c5.21,0,7.97,3.68,7.97,8.58,0,5.52-3.37,8.58-10.11,8.58Z"/><path d="M161.86,28.77l-.92,.86c2.88,3.31,5.09,7.23,6.62,11.7,1.47,4.41,2.21,9.38,2.21,14.89s-.74,10.48-2.21,14.95c-1.53,4.47-3.74,8.4-6.62,11.77l.92,.86c3.31-3.31,5.88-7.42,7.84-12.2,1.84-4.9,2.82-9.99,2.82-15.32s-.98-10.48-2.88-15.38c-1.9-4.78-4.47-8.83-7.78-12.13Z"/><path d="M159.71,64.62c-.92,2.82-1.84,4.84-2.82,5.95-1.35,1.47-3.13,2.21-5.45,2.21h-11.34c-1.04,0-1.84-.25-2.33-.67-.49-.49-.74-1.16-.74-2.02v-12.93h9.74c1.35,0,2.33,.18,2.82,.55,.49,.37,.86,1.04,1.16,2.08l1.1,4.17h1.96c-.12-2.45-.18-5.03-.18-7.6,0-1.23,0-2.45,.06-3.68,0-1.47,0-2.82,.12-3.98h-2.14l-.74,3.49c-.18,.86-.55,1.47-1.04,1.84-.55,.37-1.47,.55-2.82,.55h-10.05v-11.77c0-1.96,.86-2.94,2.57-2.94h10.54c1.35,0,2.33,.25,2.94,.74,.67,.49,1.23,1.41,1.59,2.64l.98,3.19h2.08c-.12-2.15-.12-3.68-.12-4.66,.12-1.53,.18-3.06,.31-4.66-4.54,.12-9.62,.25-15.2,.25-6.86,0-12.81-.06-17.84-.18v1.84l3.49,.55c1.47,.18,2.21,1.16,2.21,2.94v27.89c0,.74-.18,1.35-.55,1.78-.43,.49-1.04,.8-1.9,.92l-3.49,.49v1.9c5.52-.12,12.07-.18,19.67-.18,5.76,0,11.09,.06,16,.18,.31-4.11,.86-7.72,1.72-10.85h-2.33Z"/><path d="M124.29,29.63l-.92-.86c-3.31,3.31-5.95,7.35-7.78,12.13-1.96,4.9-2.88,9.99-2.88,15.38s.92,10.42,2.82,15.32c1.9,4.78,4.53,8.89,7.84,12.2l.92-.86c-2.94-3.37-5.15-7.29-6.62-11.77-1.47-4.47-2.21-9.44-2.21-14.95s.74-10.48,2.21-14.89c1.47-4.47,3.68-8.4,6.62-11.7Z"/><polygon points="206.9 67.14 206.66 67.14 184.29 34.59 177.55 34.59 177.55 78.35 184.23 78.35 184.23 45.44 184.47 45.44 207.09 78.35 213.58 78.35 213.58 34.59 206.9 34.59 206.9 67.14"/><path d="M229.52,70.88c-.92-.86-2.02-1.29-3.25-1.29-1.35,0-2.39,.43-3.19,1.29-.92,.86-1.35,1.96-1.35,3.31,0,1.23,.43,2.33,1.35,3.25,.8,.8,1.84,1.23,3.19,1.23,1.23,0,2.33-.43,3.25-1.23,.86-.92,1.35-2.02,1.35-3.25,0-1.35-.49-2.45-1.35-3.31Z"/></svg>