<?xml version="1.0" encoding="UTF-8"?>
<svg id="_圖層_1" data-name="圖層 1" xmlns="http://www.w3.org/2000/svg" viewBox="0 0 135.31 44.56">
  <path d="M46.04,5.7h-4.12l-7.46,.2v.24c-.89-1.22-2.37-1.95-4.6-1.95-9.49,0-22.36,13.57-22.36,26.6,0,1.26,.12,2.39,.35,3.41-2.69-.96-4.43-3.34-4.43-7.49C3.42,19.17,14.36,2.54,26.68,2.54c1.02,0,2.04,.12,3.06,.35l.08-.39c-1.39-.27-2.75-.41-4.06-.41C11.99,2.09,2.91,16.95,2.91,26.66c0,4.3,2.08,6.98,5.08,8.12,1.59,5.88,6.67,8.36,10.69,8.36,5.81,0,10.94-3.61,10.94-11.49,0-2-.43-4.1-1.29-6.08,4.3-5.2,7.18-11.38,7.18-15.75,0-.55-.06-1.06-.16-1.55l2.44,.57V30.03l-3.34,.78v2.35h10.79v-2.35l-3.34-.78v-7.07h2.55c6.67,0,10.6-3.14,10.6-9.22,0-4.91-3.14-8.05-9.03-8.05ZM29.27,31.56c0,7.45-5.1,11.14-10.32,11.14-4.37,0-8.83-2.59-10.39-7.73,.96,.29,2,.43,3.1,.43,5.88,0,11.89-4.22,16.4-9.53,.8,1.86,1.22,3.81,1.22,5.69Zm5.39-22.46c0,3.94-2.94,9.81-7.12,14.93-1.82-3.18-4.88-5.92-9.22-7.37l-.08,.39c4.29,1.55,7.28,4.22,9.04,7.28-4.73,5.69-10.94,10.38-16.26,10.38-.94,0-1.82-.12-2.65-.33-.27-1.08-.41-2.26-.41-3.55,0-11.96,12-26.24,21.89-26.24,2.68,0,4.11,1.14,4.6,2.96v.52l.13,.03c.05,.32,.08,.66,.08,1.02Zm9.8,10.72h-2.55V8.84h3.92c3.34,0,5.1,2.35,5.1,5.49,0,3.53-2.16,5.5-6.48,5.5Z"/>
  <path d="M88.22,1.42l-.59,.55c1.84,2.12,3.26,4.63,4.24,7.5,.94,2.83,1.41,6.01,1.41,9.54s-.47,6.71-1.41,9.58c-.98,2.86-2.39,5.38-4.24,7.54l.59,.55c2.12-2.12,3.77-4.75,5.02-7.81,1.18-3.14,1.8-6.4,1.8-9.81s-.63-6.71-1.84-9.85c-1.22-3.06-2.86-5.65-4.98-7.77Z"/>
  <path d="M86.85,24.38c-.59,1.81-1.18,3.1-1.8,3.81-.86,.94-2,1.41-3.49,1.41h-7.26c-.67,0-1.18-.16-1.49-.43-.31-.31-.47-.75-.47-1.29v-8.28h6.24c.86,0,1.49,.12,1.8,.35,.31,.24,.55,.67,.75,1.33l.71,2.67h1.26c-.08-1.57-.12-3.22-.12-4.87,0-.78,0-1.57,.04-2.36,0-.94,0-1.8,.08-2.55h-1.37l-.47,2.24c-.12,.55-.35,.94-.67,1.18-.35,.24-.94,.35-1.8,.35h-6.44v-7.54c0-1.26,.55-1.88,1.65-1.88h6.75c.86,0,1.49,.16,1.88,.47,.43,.31,.78,.9,1.02,1.69l.63,2.04h1.33c-.08-1.37-.08-2.36-.08-2.98,.08-.98,.12-1.96,.2-2.98-2.9,.08-6.16,.16-9.73,.16-4.4,0-8.2-.04-11.42-.12v1.18l2.24,.35c.94,.12,1.41,.75,1.41,1.88V28.07c0,.47-.12,.86-.35,1.14-.27,.31-.67,.51-1.22,.59l-2.24,.31v1.22c3.53-.08,7.73-.12,12.6-.12,3.69,0,7.1,.04,10.24,.12,.2-2.63,.55-4.95,1.1-6.95h-1.49Z"/>
  <path d="M64.16,1.97l-.59-.55c-2.12,2.12-3.81,4.71-4.98,7.77-1.26,3.14-1.84,6.4-1.84,9.85s.59,6.67,1.81,9.81c1.22,3.06,2.9,5.69,5.02,7.81l.59-.55c-1.88-2.16-3.3-4.67-4.24-7.54-.94-2.87-1.41-6.05-1.41-9.58s.47-6.71,1.41-9.54c.94-2.86,2.35-5.38,4.24-7.5Z"/>
  <polygon points="117.06 25.99 116.9 25.99 102.58 5.15 98.26 5.15 98.26 33.17 102.54 33.17 102.54 12.1 102.69 12.1 117.18 33.17 121.34 33.17 121.34 5.15 117.06 5.15 117.06 25.99"/>
  <path d="M131.53,28.38c-.59-.55-1.3-.82-2.08-.82-.86,0-1.53,.27-2.04,.82-.59,.55-.86,1.26-.86,2.12,0,.78,.27,1.49,.86,2.08,.51,.51,1.18,.79,2.04,.79,.78,0,1.49-.27,2.08-.79,.55-.59,.86-1.29,.86-2.08,0-.86-.31-1.57-.86-2.12Z"/>
</svg>