<?xml version="1.0" encoding="UTF-8"?><svg id="_圖層_3" xmlns="http://www.w3.org/2000/svg" viewBox="0 0 773.61 120.68"><path d="M158.53,44.45c-4.02,0-7.5,.82-10.44,2.48-.49-.12-1.04-.2-1.65-.2-10.29,0-26.38,11.41-31.64,17.37h-1.76c-5.36,0-10.65-.72-15.26-2.31-.2-.31-.4-.62-.61-.9-2.08-2.78-5.06-4.36-8.88-4.79-3.17-3.23-5.07-7.55-4.99-13.17,.2-13.33,13.45-20.47,25.85-20.47,8.95,0,19.3,3.92,19.36,12.28,.06,8.6-9.12,13.28-16.73,13.28-1.93,0-3.57-.23-4.8-.64,1.23,.86,2.98,1.21,4.85,1.21,7.9,0,17.82-4.78,17.82-13.72s-10.92-12.93-20.51-12.93c-12.81,0-28.23,7.04-28.46,20.96-.09,5.49,1.94,9.8,5.26,13.09-4.28,.05-7.66,1.62-10.19,4.73-2.57,2.98-3.8,6.73-3.8,11.17,0,2.11,.25,4.02,.74,5.75-1.37,1.72-2.79,3.3-4.25,4.72-1.72,1.68-3.34,2.92-4.88,3.71-1.54,.8-2.9,1.2-4.07,1.2s-1.7-.62-1.7-1.87c0-.78,.19-1.76,.58-2.95,.39-1.19,.82-2.43,1.29-3.71,.47-1.32,.89-2.61,1.26-3.86,.37-1.25,.56-2.3,.56-3.16,0-1.32-.3-2.41-.91-3.25-.61-.84-1.51-1.51-2.72-2.02v-.12c1.75,0,3.47-.21,5.15-.62,1.68-.41,3.17-1.07,4.47-1.99,1.31-.92,2.36-2.11,3.16-3.57,.8-1.46,1.2-3.23,1.2-5.29,0-3.16-1.48-5.58-4.44-7.25,.78-.43,1.63-.82,2.54-1.17,.92-.35,1.84-.58,2.78-.7l-.06-.35c-.47,.04-.97,.13-1.52,.26-.55,.14-1.1,.29-1.67,.47-.57,.18-1.1,.36-1.61,.56-.51,.2-.96,.37-1.35,.53-1.29-.66-2.82-1.13-4.59-1.4-1.77-.27-3.5-.41-5.18-.41-2.34,0-4.73,.25-7.17,.76-2.44,.51-4.79,1.23-7.05,2.16-2.26,.94-4.39,2.06-6.38,3.36-1.99,1.31-3.72,2.76-5.21,4.36-1.48,1.6-2.65,3.32-3.51,5.15-.86,1.83-1.29,3.72-1.29,5.67,0,2.46,.73,4.41,2.19,5.85s3.42,2.16,5.88,2.16c1.72,0,3.28-.38,4.71-1.14,1.42-.76,2.65-1.76,3.68-3.01,1.03-1.25,1.84-2.66,2.43-4.24,.58-1.58,.88-3.19,.88-4.83h-.7c0,1.4-.25,2.85-.76,4.33-.51,1.48-1.24,2.83-2.19,4.04-.96,1.21-2.11,2.2-3.45,2.98s-2.86,1.17-4.53,1.17c-1.91,0-3.39-.62-4.44-1.87-1.05-1.25-1.58-2.94-1.58-5.09s.43-4.28,1.29-6.17,2.01-3.63,3.45-5.21c1.44-1.58,3.12-2.97,5.03-4.18,1.91-1.21,3.91-2.22,5.99-3.04,2.09-.82,4.21-1.44,6.38-1.87,2.16-.43,4.22-.64,6.17-.64,1.52,0,3.08,.12,4.68,.35,1.6,.23,3.04,.68,4.33,1.35-2.77,1.33-5.29,3.22-7.57,5.67s-4.41,5.15-6.38,8.07c-1.97,2.92-3.82,5.91-5.56,8.95-1.74,3.04-3.47,5.81-5.21,8.31-1.74,2.5-3.49,4.53-5.26,6.11-1.78,1.58-3.68,2.37-5.7,2.37-.9,0-1.7-.21-2.4-.62s-1.11-.87-1.23-1.37c.55,.04,.95-.15,1.23-.58,.27-.43,.41-.88,.41-1.35,0-.51-.17-.93-.5-1.29-.33-.35-.77-.53-1.32-.53-.74,0-1.33,.22-1.76,.64-.43,.43-.64,.99-.64,1.7s.18,1.32,.53,1.84c.35,.53,.79,.96,1.32,1.29,.53,.33,1.12,.57,1.78,.73,.66,.16,1.31,.23,1.93,.23,2.81,0,5.4-.81,7.78-2.43,2.38-1.62,4.62-3.7,6.73-6.26,2.11-2.55,4.1-5.37,6-8.45,1.89-3.08,3.74-6.09,5.56-9.04,1.81-2.94,3.63-5.61,5.44-8.01,1.81-2.4,3.71-4.18,5.7-5.35,.74,.55,1.3,1.27,1.67,2.16,.37,.9,.56,1.83,.56,2.81,0,1.68-.27,3.26-.82,4.74-.55,1.48-1.32,2.78-2.31,3.89-.99,1.11-2.19,1.99-3.6,2.63-1.4,.64-2.96,.97-4.68,.97-.43,0-.84-.02-1.23-.06-.39-.04-.8-.1-1.23-.18l-.23,.58c1.29,.2,2.33,.53,3.13,.99,.8,.47,1.2,1.44,1.2,2.92,0,.98-.22,2.11-.64,3.39-.43,1.29-.92,2.57-1.46,3.86-.55,1.29-1.04,2.53-1.49,3.74-.45,1.21-.67,2.24-.67,3.1,0,1.33,.4,2.32,1.2,2.98,.8,.66,1.88,.99,3.25,.99,3.28,0,6.84-2.03,10.7-6.08,1.16-1.18,2.19-2.35,3.11-3.51,.66,1.99,1.66,3.72,3.03,5.2,2.57,2.81,6.08,4.27,10.41,4.27,3.92,0,7.14-1.17,9.65-3.39,2.05-1.87,3.39-4.21,4.09-7.13h-4.68c-.76,2.11-1.75,3.69-3.04,4.74-1.52,1.23-3.57,1.87-6.02,1.87-2.87,0-5.15-.94-6.78-2.81-1.64-1.87-2.52-4.5-2.75-7.9h23.86c-.09-4.24-.88-7.74-2.34-10.47,4.6,1.34,9.61,1.95,14.41,1.95h1.58c-4.21,4.68-8.4,10.88-8.25,17.35,.12,5.48,5.01,7.23,9.16,7.29-.23,1.7-.35,3.33-.06,4.91,.12,.59,.29,.76,.35,.7,.12-.06,0-.12-.06-.82-.12-1.52-.06-3.1,.29-4.79,4.07,0,9.63-2.24,13.37-5.28,3.92-3.22,7-6.69,7-10.18,0-2.51-1.99-3.49-4.05-3.49-3.51,0-8.23,2.98-11.81,7.55-2.46,3.16-4.23,7.37-4.91,10.88-2.75-.18-4.91-1.91-4.91-5.59,0-7.25,4.91-13.49,9.53-18.76,6.37-.52,13.4-1.94,18.91-4.31-.39,1.88-.61,3.89-.61,6.05,0,6.32,1.7,11.46,5.21,15.44,3.63,4.09,8.66,6.2,15.03,6.2s11.35-2.05,15.03-6.14c3.51-3.98,5.26-9.12,5.26-15.5s-1.75-11.64-5.26-15.56c-3.69-4.15-8.71-6.2-15.03-6.2Zm-81.59,25.15c.29-2.98,1.23-5.32,2.87-7.08,1.64-1.75,3.8-2.63,6.49-2.63,5.73,0,8.95,3.22,9.53,9.71h-18.89Zm43.86,8.77c3.51-4.5,8.01-7.49,11.17-7.49,1.7,0,2.81,.82,2.81,2.46,0,2.63-2.75,6.84-6.67,10.29-3.45,3.04-8.48,5.19-12.22,5.19,.59-2.98,2.69-7.58,4.91-10.45Zm17.49-18.72c-5.21,2.34-11.76,3.63-17.78,4.21,4.74-5.26,17.61-16.61,25.68-16.61,.42,0,.79,.07,1.1,.18-1.39,.89-2.67,1.96-3.79,3.27-2.13,2.42-3.58,5.27-4.4,8.56-.27,.13-.52,.26-.8,.39Zm30.53,18.25c-2.4,2.87-5.85,4.33-10.29,4.33s-7.9-1.52-10.35-4.44c-2.34-2.86-3.51-6.73-3.51-11.58s1.17-8.76,3.5-11.62c.46-.43,.87-.86,1.22-1.29,2.34-2.17,5.38-3.23,9.14-3.23,4.44,0,7.9,1.41,10.29,4.33,2.34,2.86,3.57,6.78,3.57,11.81s-1.23,8.89-3.57,11.7Z"/><polygon points="205.15 44.57 201.58 44.57 201.58 41 190.12 41 190.12 44.57 186.49 44.57 186.49 48.19 182.81 48.19 182.81 81.35 186.49 81.35 186.49 84.98 190.12 84.98 190.12 88.66 201.58 88.66 201.58 84.98 205.15 84.98 205.15 81.35 208.77 81.35 208.77 62.64 193.68 62.64 193.68 66.91 204.56 66.91 204.56 80.77 200.94 80.77 200.94 84.34 190.7 84.34 190.7 80.77 187.13 80.77 187.13 48.84 190.7 48.84 190.7 45.21 200.94 45.21 200.94 48.84 204.56 48.84 204.56 56.09 208.77 56.09 208.77 48.19 205.15 48.19 205.15 44.57"/><path d="M259.83,45.79c-5.61-5.62-12.34-8.36-20.18-8.36s-14.62,2.75-20.18,8.36c-5.61,5.56-8.36,12.28-8.36,20.18s2.75,14.56,8.36,20.18c5.56,5.56,12.28,8.36,20.18,8.36s14.56-2.81,20.18-8.36c5.56-5.62,8.36-12.34,8.36-20.18s-2.81-14.62-8.36-20.18Zm-1.81,38.54c-5.15,5.03-11.23,7.54-18.37,7.54s-13.28-2.51-18.37-7.54c-5.03-5.15-7.54-11.23-7.54-18.37s2.51-13.28,7.54-18.36c5.09-5.03,11.23-7.55,18.37-7.55s13.22,2.51,18.37,7.55c5.03,5.09,7.54,11.23,7.54,18.36s-2.52,13.22-7.54,18.37Z"/><path d="M246.56,47.66v1.93l2.69,.53c.82,.12,1.35,.41,1.58,.82,.23,.29,.35,.93,.35,1.87v21l-18.25-22.93c-1.11-1.4-2.05-2.22-2.75-2.57-.82-.41-2.05-.59-3.8-.59h-4.56v1.81l2.22,.58c1.11,.23,1.87,.7,2.22,1.35,.23,.47,.41,1.29,.41,2.51v24.91c0,.7-.18,1.35-.47,1.81-.35,.53-.94,.88-1.7,1.11l-2.87,.59v1.87c2.69-.12,4.8-.18,6.32-.18s3.68,.06,6.38,.23v-1.93l-3.16-.59c-.76-.18-1.29-.53-1.64-1.05-.29-.53-.41-1.17-.41-1.87v-23.04l22.81,28.42h1.7v-31.47c0-.7,.06-1.29,.29-1.7,.18-.53,.53-.88,1.11-.99l2.63-.58v-1.87c-2.28,.12-4.04,.23-5.26,.23-1.64,0-3.63-.12-5.85-.23Z"/><path d="M325.28,46.96c0-.31-.1-.5-.29-.56-.2-.06-.43-.09-.7-.09-.43,0-1.4,.18-2.92,.53-1.52,.35-3.57,.53-6.14,.53-2.14-.04-4.46,.03-6.96,.21-2.5,.18-4.97,.49-7.43,.93-2.46,.45-4.82,1.04-7.08,1.78-2.26,.74-4.27,1.64-6.02,2.69-1.76,1.05-3.15,2.26-4.18,3.63-1.03,1.36-1.55,2.9-1.55,4.62,0,2.22,.71,3.91,2.13,5.06,1.42,1.15,3.28,1.73,5.59,1.73,1.33,0,2.58-.23,3.77-.7,1.19-.47,2.24-1.09,3.16-1.87,.92-.78,1.64-1.69,2.16-2.72,.53-1.03,.79-2.14,.79-3.3,0-.31-.04-.7-.12-1.17-.08-.47-.16-.82-.23-1.05l-.64,.12c.19,.58,.29,1.32,.29,2.22,0,.97-.26,1.93-.79,2.86-.53,.94-1.22,1.78-2.08,2.52s-1.82,1.32-2.89,1.75c-1.07,.43-2.16,.64-3.25,.64-1.56,0-2.8-.45-3.71-1.35-.92-.9-1.37-2.16-1.37-3.8,0-2.11,.57-3.92,1.7-5.44,1.13-1.52,2.62-2.81,4.47-3.86,1.85-1.05,3.96-1.89,6.32-2.51,2.36-.62,4.76-1.1,7.19-1.43,2.44-.33,4.81-.56,7.11-.67,2.3-.12,4.33-.18,6.08-.18v.12c-1.79,.66-3.54,1.74-5.23,3.22-1.7,1.48-3.29,3.11-4.77,4.88-1.48,1.78-2.84,3.58-4.06,5.41-1.23,1.83-2.31,3.43-3.25,4.8-.59,.9-1.29,2.04-2.11,3.42-.82,1.38-1.74,2.85-2.78,4.39-1.03,1.54-2.16,3.08-3.39,4.62-1.23,1.54-2.57,2.92-4.04,4.15-1.46,1.23-3.03,2.23-4.71,3.01-1.68,.78-3.45,1.17-5.32,1.17-1.21,0-2.29-.16-3.25-.47-.96-.31-1.76-.73-2.4-1.26s-1.09-1.11-1.34-1.75c-.25-.64-.3-1.32-.15-2.02,.62,.12,1.14-.04,1.55-.47s.61-.96,.61-1.58-.2-1.12-.59-1.49c-.39-.37-.92-.56-1.58-.56-.9,0-1.6,.3-2.11,.91-.51,.61-.76,1.32-.76,2.13,0,1.29,.31,2.39,.94,3.3,.62,.92,1.42,1.67,2.4,2.25,.97,.58,2.04,1.01,3.19,1.29,1.15,.27,2.27,.41,3.36,.41,2.81,0,5.41-.52,7.81-1.55,2.4-1.03,4.63-2.46,6.7-4.27s4.02-3.96,5.85-6.43c1.83-2.47,3.57-5.15,5.21-8.04,1.68-2.92,3.3-5.6,4.88-8.04,1.58-2.44,3.07-4.51,4.47-6.23,1.4-1.72,2.72-3.05,3.95-4,1.23-.96,2.33-1.43,3.3-1.43,2.07,0,3.45-.07,4.15-.2s1.05-.4,1.05-.79Z"/><polygon points="320.89 45.21 339.02 45.21 339.02 51.82 335.4 51.82 335.4 59.07 331.77 59.07 331.77 66.26 328.2 66.26 328.2 73.52 324.58 73.52 324.58 80.77 320.89 80.77 320.89 88.66 346.86 88.66 346.86 84.34 325.22 84.34 325.22 81.35 328.79 81.35 328.79 74.16 332.41 74.16 332.41 66.91 336.04 66.91 336.04 59.66 339.67 59.66 339.67 52.46 343.23 52.46 343.23 45.21 346.86 45.21 346.86 41 320.89 41 320.89 45.21"/><polygon points="358.97 68.31 381.19 68.31 381.19 62.87 358.97 62.87 358.97 50.71 382.6 50.71 382.6 45.27 352.59 45.27 352.59 87.03 383.59 87.03 383.59 81.59 358.97 81.59 358.97 68.31"/><path d="M397.04,79.89c-.88-.82-1.93-1.23-3.1-1.23-1.29,0-2.28,.41-3.04,1.23-.88,.82-1.29,1.87-1.29,3.16,0,1.17,.41,2.22,1.29,3.1,.76,.76,1.75,1.17,3.04,1.17,1.17,0,2.22-.41,3.1-1.17,.82-.88,1.29-1.93,1.29-3.1,0-1.29-.47-2.34-1.29-3.16Z"/></svg>