<?xml version="1.0" encoding="UTF-8"?>
<svg id="_圖層_1" data-name="圖層 1" xmlns="http://www.w3.org/2000/svg" viewBox="0 0 244.85 56.59">
  <path d="M89.28,19.45c-2.54,0-4.74,.52-6.59,1.56-.31-.08-.65-.12-1.04-.12-6.5,0-16.66,7.2-19.98,10.97h-1.11c-3.38,0-6.72-.46-9.63-1.46-.12-.2-.25-.39-.39-.57-1.32-1.76-3.2-2.76-5.61-3.02-2-2.04-3.2-4.77-3.15-8.32,.12-8.42,8.5-12.93,16.33-12.93,5.65,0,12.19,2.47,12.23,7.76,.04,5.43-5.76,8.39-10.56,8.39-1.22,0-2.25-.15-3.03-.41,.78,.54,1.88,.76,3.07,.76,4.99,0,11.25-3.02,11.25-8.67s-6.89-8.16-12.95-8.16c-8.09,0-17.83,4.45-17.98,13.24-.06,3.48,1.25,6.19,3.35,8.27-2.72,.03-4.86,1.02-6.46,2.99-1.62,1.88-2.4,4.25-2.4,7.06,0,1.33,.16,2.54,.47,3.63-.87,1.09-1.76,2.08-2.68,2.98-1.08,1.06-2.11,1.84-3.08,2.35-.97,.5-1.83,.76-2.57,.76s-1.07-.39-1.07-1.18c0-.49,.12-1.11,.37-1.87,.25-.75,.52-1.53,.81-2.35,.3-.84,.56-1.65,.79-2.44,.23-.79,.35-1.45,.35-1.99,0-.84-.19-1.52-.57-2.05-.38-.53-.95-.95-1.72-1.27v-.07c1.11,0,2.19-.13,3.25-.39,1.06-.26,2-.68,2.83-1.26,.82-.58,1.49-1.33,1.99-2.25,.5-.92,.76-2.04,.76-3.34,0-1.99-.94-3.52-2.81-4.58,.49-.27,1.03-.52,1.61-.74,.58-.22,1.16-.37,1.75-.44l-.04-.22c-.3,.02-.62,.08-.96,.17-.35,.09-.7,.19-1.05,.3-.36,.11-.7,.23-1.02,.35-.32,.12-.6,.23-.85,.33-.81-.42-1.78-.71-2.9-.89-1.12-.17-2.21-.26-3.27-.26-1.48,0-2.99,.16-4.52,.48-1.54,.32-3.02,.78-4.45,1.37-1.43,.59-2.77,1.3-4.03,2.12-1.26,.82-2.35,1.74-3.29,2.75-.94,1.01-1.67,2.09-2.22,3.25-.54,1.16-.81,2.35-.81,3.58,0,1.55,.46,2.78,1.38,3.69,.92,.91,2.16,1.37,3.71,1.37,1.08,0,2.07-.24,2.97-.72,.9-.48,1.67-1.11,2.33-1.9,.65-.79,1.16-1.68,1.53-2.68s.55-2.01,.55-3.05h-.44c0,.89-.16,1.8-.48,2.73-.32,.94-.78,1.79-1.38,2.55-.6,.76-1.33,1.39-2.18,1.88s-1.8,.74-2.86,.74c-1.21,0-2.14-.39-2.81-1.18-.66-.79-1-1.86-1-3.21s.27-2.7,.81-3.9c.54-1.19,1.27-2.29,2.18-3.29,.91-1,1.97-1.88,3.18-2.64,1.21-.76,2.47-1.4,3.78-1.92,1.32-.52,2.66-.91,4.03-1.18,1.37-.27,2.67-.41,3.9-.41,.96,0,1.94,.07,2.95,.22,1.01,.15,1.92,.43,2.73,.85-1.75,.84-3.34,2.03-4.78,3.58-1.44,1.55-2.78,3.25-4.03,5.1-1.24,1.85-2.41,3.73-3.51,5.65-1.1,1.92-2.19,3.67-3.29,5.24s-2.2,2.86-3.32,3.86c-1.12,1-2.32,1.5-3.6,1.5-.57,0-1.07-.13-1.51-.39s-.7-.55-.78-.87c.34,.02,.6-.1,.78-.37,.17-.27,.26-.55,.26-.85,0-.32-.11-.59-.31-.81-.21-.22-.49-.33-.83-.33-.47,0-.84,.14-1.11,.41-.27,.27-.41,.63-.41,1.07s.11,.83,.33,1.16c.22,.33,.5,.6,.83,.81,.33,.21,.71,.36,1.13,.46,.42,.1,.82,.15,1.22,.15,1.77,0,3.41-.51,4.91-1.53,1.5-1.02,2.92-2.34,4.25-3.95,1.33-1.61,2.59-3.39,3.79-5.34,1.19-1.94,2.36-3.85,3.51-5.71,1.14-1.86,2.29-3.55,3.43-5.06,1.15-1.51,2.35-2.64,3.6-3.38,.47,.34,.82,.8,1.05,1.37,.23,.57,.35,1.16,.35,1.77,0,1.06-.17,2.06-.52,2.99-.35,.94-.83,1.75-1.46,2.46-.63,.7-1.39,1.26-2.27,1.66-.89,.41-1.87,.61-2.95,.61-.27,0-.53-.01-.78-.04s-.5-.06-.78-.11l-.15,.37c.81,.12,1.47,.33,1.98,.63,.5,.3,.76,.91,.76,1.85,0,.62-.14,1.33-.41,2.14-.27,.81-.58,1.63-.92,2.44-.35,.81-.66,1.6-.94,2.36-.28,.76-.42,1.42-.42,1.96,0,.84,.25,1.46,.76,1.88,.5,.42,1.19,.63,2.05,.63,2.07,0,4.32-1.28,6.76-3.84,.74-.75,1.37-1.5,1.96-2.23,.42,1.26,1.05,2.36,1.92,3.3,1.63,1.77,3.84,2.7,6.57,2.7,2.47,0,4.51-.74,6.09-2.14,1.29-1.18,2.14-2.66,2.59-4.51h-2.95c-.48,1.33-1.11,2.33-1.92,2.99-.96,.78-2.25,1.18-3.8,1.18-1.81,0-3.25-.59-4.28-1.77-1.03-1.18-1.59-2.84-1.74-4.99h15.07c-.06-2.68-.56-4.89-1.48-6.62,2.9,.85,6.07,1.24,9.1,1.24h1c-2.66,2.96-5.31,6.87-5.21,10.96,.07,3.46,3.16,4.57,5.79,4.6-.15,1.07-.22,2.11-.04,3.1,.07,.37,.18,.48,.22,.44,.07-.04,0-.07-.04-.52-.07-.96-.04-1.96,.18-3.03,2.57,0,6.08-1.42,8.45-3.34,2.47-2.03,4.42-4.22,4.42-6.43,0-1.59-1.26-2.2-2.56-2.2-2.22,0-5.2,1.88-7.46,4.76-1.55,1.99-2.67,4.65-3.1,6.87-1.74-.11-3.1-1.21-3.1-3.53,0-4.58,3.1-8.52,6.02-11.85,4.02-.33,8.46-1.22,11.94-2.72-.25,1.19-.38,2.45-.38,3.82,0,3.99,1.07,7.24,3.29,9.75,2.29,2.59,5.47,3.92,9.49,3.92s7.17-1.29,9.49-3.88c2.22-2.51,3.32-5.76,3.32-9.79s-1.11-7.35-3.32-9.83c-2.33-2.62-5.5-3.92-9.49-3.92Zm-51.52,15.88c.18-1.88,.78-3.36,1.81-4.47,1.03-1.11,2.4-1.66,4.1-1.66,3.62,0,5.65,2.03,6.02,6.13h-11.93Zm27.7,5.54c2.22-2.84,5.06-4.73,7.06-4.73,1.07,0,1.77,.52,1.77,1.55,0,1.66-1.74,4.32-4.21,6.5-2.18,1.92-5.36,3.28-7.72,3.28,.37-1.88,1.7-4.79,3.1-6.6Zm11.04-11.82c-3.29,1.48-7.42,2.29-11.23,2.66,2.99-3.33,11.12-10.49,16.22-10.49,.27,0,.49,.04,.69,.11-.88,.56-1.69,1.24-2.4,2.07-1.35,1.53-2.26,3.33-2.78,5.41-.17,.08-.32,.16-.5,.24Zm19.28,11.52c-1.51,1.81-3.69,2.73-6.5,2.73s-4.99-.96-6.54-2.81c-1.48-1.81-2.22-4.25-2.22-7.31s.74-5.52,2.2-7.33c.3-.28,.56-.56,.79-.84,1.47-1.36,3.39-2.03,5.76-2.03,2.81,0,4.99,.89,6.5,2.73,1.48,1.81,2.25,4.28,2.25,7.46s-.78,5.61-2.25,7.39Z"/>
  <polygon points="118.71 19.53 116.46 19.53 116.46 17.28 109.22 17.28 109.22 19.53 106.93 19.53 106.93 21.82 104.6 21.82 104.6 42.76 106.93 42.76 106.93 45.05 109.22 45.05 109.22 47.38 116.46 47.38 116.46 45.05 118.71 45.05 118.71 42.76 121 42.76 121 30.94 111.47 30.94 111.47 33.64 118.34 33.64 118.34 42.39 116.05 42.39 116.05 44.64 109.59 44.64 109.59 42.39 107.34 42.39 107.34 22.23 109.59 22.23 109.59 19.94 116.05 19.94 116.05 22.23 118.34 22.23 118.34 26.81 121 26.81 121 21.82 118.71 21.82 118.71 19.53"/>
  <path d="M144.86,21.48v1.22l1.7,.33c.52,.07,.85,.26,1,.52,.15,.19,.22,.59,.22,1.18v13.26l-11.53-14.48c-.7-.89-1.29-1.4-1.74-1.62-.52-.26-1.29-.37-2.4-.37h-2.88v1.14l1.4,.37c.7,.15,1.18,.44,1.4,.85,.15,.3,.26,.81,.26,1.59v15.74c0,.44-.11,.85-.3,1.15-.22,.33-.59,.55-1.07,.7l-1.81,.37v1.18c1.7-.07,3.03-.11,3.99-.11s2.33,.04,4.03,.15v-1.22l-1.99-.37c-.48-.11-.81-.33-1.03-.66-.18-.33-.26-.74-.26-1.18v-14.55l14.41,17.95h1.07V24.73c0-.44,.04-.81,.18-1.07,.11-.33,.33-.55,.7-.63l1.66-.37v-1.18c-1.44,.07-2.55,.15-3.32,.15-1.03,0-2.29-.07-3.69-.15Z"/>
  <path d="M153.25,20.3c-3.55-3.55-7.79-5.28-12.74-5.28s-9.23,1.74-12.74,5.28c-3.55,3.51-5.28,7.76-5.28,12.74s1.74,9.2,5.28,12.74c3.51,3.51,7.76,5.28,12.74,5.28s9.2-1.77,12.74-5.28c3.51-3.55,5.28-7.79,5.28-12.74s-1.77-9.24-5.28-12.74Zm-1.14,24.34c-3.25,3.18-7.09,4.76-11.6,4.76s-8.39-1.59-11.6-4.76c-3.18-3.25-4.77-7.09-4.77-11.6s1.59-8.39,4.77-11.6c3.21-3.18,7.09-4.77,11.6-4.77s8.35,1.59,11.6,4.77c3.18,3.21,4.76,7.09,4.76,11.6s-1.59,8.35-4.76,11.6Z"/>
  <path d="M194.57,21.04c0-.2-.06-.31-.18-.35-.12-.04-.27-.05-.44-.05-.27,0-.89,.11-1.85,.33-.96,.22-2.25,.33-3.88,.33-1.35-.02-2.82,.02-4.39,.13s-3.14,.31-4.69,.59c-1.55,.28-3.04,.66-4.47,1.13-1.43,.47-2.7,1.03-3.8,1.7-1.11,.66-1.99,1.43-2.64,2.29-.65,.86-.98,1.83-.98,2.92,0,1.4,.45,2.47,1.35,3.19,.9,.73,2.07,1.09,3.53,1.09,.84,0,1.63-.15,2.38-.44,.75-.29,1.42-.69,1.99-1.18,.58-.49,1.03-1.06,1.37-1.72,.33-.65,.5-1.35,.5-2.09,0-.2-.02-.44-.07-.74-.05-.3-.1-.52-.15-.67l-.41,.07c.12,.37,.19,.84,.19,1.4,0,.62-.17,1.22-.5,1.81-.33,.59-.77,1.12-1.31,1.59-.54,.47-1.15,.84-1.83,1.11-.68,.27-1.36,.41-2.05,.41-.98,0-1.77-.28-2.35-.85-.58-.57-.87-1.37-.87-2.4,0-1.33,.36-2.47,1.07-3.43,.71-.96,1.66-1.77,2.82-2.44,1.17-.67,2.5-1.19,3.99-1.59s3-.7,4.54-.91c1.54-.21,3.03-.35,4.49-.42,1.45-.07,2.73-.11,3.84-.11v.07c-1.13,.42-2.23,1.1-3.31,2.03-1.07,.94-2.07,1.96-3.01,3.08-.94,1.12-1.79,2.26-2.57,3.42-.78,1.16-1.46,2.17-2.05,3.03-.37,.57-.81,1.29-1.33,2.16s-1.1,1.8-1.75,2.77c-.65,.97-1.37,1.95-2.14,2.92s-1.62,1.85-2.55,2.62c-.92,.77-1.91,1.41-2.97,1.9-1.06,.49-2.18,.74-3.36,.74-.76,0-1.45-.1-2.05-.3-.6-.2-1.11-.46-1.51-.79-.41-.33-.69-.7-.85-1.11-.16-.41-.19-.83-.09-1.27,.39,.07,.72-.02,.98-.29s.39-.6,.39-1-.12-.71-.37-.94c-.25-.23-.58-.35-1-.35-.57,0-1.01,.19-1.33,.57s-.48,.83-.48,1.35c0,.81,.2,1.51,.59,2.09s.9,1.05,1.51,1.42,1.29,.64,2.01,.81c.73,.17,1.43,.26,2.12,.26,1.77,0,3.42-.33,4.93-.98,1.51-.65,2.92-1.55,4.23-2.7,1.3-1.14,2.54-2.5,3.69-4.06s2.25-3.26,3.29-5.08c1.06-1.85,2.09-3.54,3.08-5.08,1-1.54,1.94-2.85,2.82-3.93,.89-1.08,1.72-1.93,2.49-2.53,.78-.6,1.47-.91,2.09-.91,1.3,0,2.18-.04,2.62-.13,.44-.09,.66-.25,.66-.5Z"/>
  <polygon points="191.8 19.94 203.24 19.94 203.24 24.11 200.95 24.11 200.95 28.69 198.66 28.69 198.66 33.23 196.41 33.23 196.41 37.81 194.12 37.81 194.12 42.39 191.8 42.39 191.8 47.38 208.19 47.38 208.19 44.64 194.53 44.64 194.53 42.76 196.78 42.76 196.78 38.22 199.07 38.22 199.07 33.64 201.36 33.64 201.36 29.06 203.65 29.06 203.65 24.52 205.9 24.52 205.9 19.94 208.19 19.94 208.19 17.28 191.8 17.28 191.8 19.94"/>
  <polygon points="215.84 34.52 229.88 34.52 229.88 31.09 215.84 31.09 215.84 23.4 230.76 23.4 230.76 19.97 211.81 19.97 211.81 46.34 231.39 46.34 231.39 42.91 215.84 42.91 215.84 34.52"/>
  <path d="M239.88,41.83c-.55-.52-1.22-.78-1.96-.78-.81,0-1.44,.26-1.92,.78-.55,.52-.81,1.18-.81,1.99,0,.74,.26,1.4,.81,1.96,.48,.48,1.11,.74,1.92,.74,.74,0,1.4-.26,1.96-.74,.52-.55,.81-1.22,.81-1.96,0-.81-.3-1.48-.81-1.99Z"/>
</svg>