<?xml version="1.0" encoding="UTF-8"?><svg id="_圖層_3" xmlns="http://www.w3.org/2000/svg" viewBox="0 0 773.61 120.68"><path d="M63.85,61.41c-1.55-.96-4.64-2.08-9.34-3.36-3.58-1.07-5.82-1.81-6.67-2.3-2.19-1.07-3.26-2.67-3.26-4.7,0-2.24,.91-3.9,2.78-4.97,1.6-1.01,3.84-1.5,6.73-1.5,3.1,0,5.5,.69,7.21,2.19,1.71,1.44,2.72,3.58,3.15,6.35h3.2c-.32-3.74-1.71-6.57-4.06-8.54-2.3-1.92-5.45-2.88-9.4-2.88-3.68,0-6.67,.75-8.97,2.3-2.62,1.71-3.9,4.11-3.9,7.21s1.44,5.29,4.43,6.89c1.17,.64,3.95,1.6,8.33,2.83,3.74,1.01,6.19,1.87,7.42,2.56,2.46,1.34,3.68,3.26,3.68,5.71,0,2.03-.96,3.69-2.88,4.97-1.92,1.17-4.49,1.81-7.64,1.81-3.31,0-5.82-.75-7.64-2.19-1.98-1.66-3.15-4.16-3.47-7.47h-3.2c.32,4.38,1.82,7.63,4.59,9.77,2.35,1.87,5.61,2.83,9.77,2.83s7.37-.85,9.88-2.51c2.56-1.81,3.84-4.27,3.84-7.37,0-3.31-1.55-5.82-4.59-7.63Z"/><path d="M54.4,34.12c-7.21,0-13.35,2.51-18.42,7.64-5.13,5.07-7.64,11.21-7.64,18.42s2.51,13.29,7.64,18.42c5.07,5.07,11.21,7.63,18.42,7.63s13.29-2.56,18.42-7.63c5.07-5.13,7.64-11.27,7.64-18.42s-2.56-13.35-7.64-18.42c-5.13-5.13-11.27-7.64-18.42-7.64Zm17.25,43.3c-4.81,4.75-10.52,7.16-17.25,7.16s-12.49-2.4-17.25-7.16c-4.81-4.81-7.15-10.52-7.15-17.25s2.35-12.49,7.15-17.25c4.75-4.81,10.52-7.16,17.25-7.16s12.44,2.35,17.25,7.16c4.75,4.75,7.15,10.52,7.15,17.25s-2.4,12.44-7.15,17.25Z"/><path d="M111.81,64.48c-.08-2.74-.76-5.23-2.02-7.38-1.27-2.16-3-3.87-5.15-5.09-2.14-1.21-4.57-1.83-7.21-1.83-2.82,0-5.38,.65-7.61,1.94-2.24,1.29-4.02,3.12-5.29,5.43-1.26,2.3-1.9,4.92-1.9,7.81s.67,5.53,1.99,7.83c1.32,2.31,3.2,4.14,5.59,5.45,2.37,1.3,5.11,1.95,8.13,1.95,2.36,0,4.54-.42,6.5-1.25,1.98-.84,3.66-2.07,4.99-3.68l.5-.6-3.35-3.86-.69,.81c-.93,1.1-2.09,1.94-3.42,2.5h0c-1.36,.57-2.86,.86-4.47,.86-2.4,0-4.47-.6-6.18-1.79-1.44-1-2.48-2.28-3.16-3.91l22.77-4.43-.02-.78Zm-23.65,.68v-.07c0-1.94,.4-3.67,1.2-5.14,.79-1.46,1.89-2.62,3.29-3.43,1.4-.82,3.01-1.24,4.79-1.24,2.32,0,4.22,.67,5.8,2.04,1.37,1.19,2.28,2.63,2.75,4.38l-17.84,3.46Z"/><path d="M136.75,60.88h-5.19c-.43,0-.78,.35-.78,.78v2.83c0,.61-.5,1.11-1.11,1.11h-12.26c-.43,0-.78,.35-.78,.78v12.26c0,.43,.35,.78,.78,.78h12.26c.43,0,.78-.35,.78-.78v-12.26c0-.61,.5-1.11,1.11-1.11h5.19c.43,0,.78-.35,.78-.78v-2.83c0-.43-.35-.78-.78-.78Z"/><path d="M150.89,51.45h-5.19c-.61,0-1.11-.5-1.11-1.11v-7.54c0-.43-.35-.78-.78-.78h-5.19c-.43,0-.78,.35-.78,.78v7.54c0,.43,.35,.78,.78,.78h5.18c.61,0,1.11,.5,1.11,1.11v12.26c0,.43,.35,.78,.78,.78h5.19c.43,0,.78-.35,.78-.78v-12.26c0-.43-.35-.78-.78-.78Z"/><path d="M136.75,42.03h-5.19c-.43,0-.78,.35-.78,.78v7.54c0,.61-.5,1.11-1.11,1.11h-12.26c-.43,0-.78,.35-.78,.78v12.26c0,.43,.35,.78,.78,.78h12.26c.43,0,.78-.35,.78-.78v-12.26c0-.61,.5-1.11,1.11-1.11h5.19c.43,0,.78-.35,.78-.78v-7.54c0-.43-.35-.78-.78-.78Z"/><path d="M150.89,65.59h-5.18c-.61,0-1.11-.5-1.11-1.11v-2.83c0-.43-.35-.78-.78-.78h-5.18c-.43,0-.78,.35-.78,.78v2.83c0,.43,.35,.78,.78,.78h5.18c.61,0,1.11,.5,1.11,1.11v12.26c0,.43,.35,.78,.78,.78h5.19c.43,0,.78-.35,.78-.78v-12.26c0-.43-.35-.78-.78-.78Z"/><polygon points="163.32 41.28 157.55 41.28 157.55 79.4 184.3 79.4 184.3 74.44 163.32 74.44 163.32 41.28"/><polygon points="217.4 74.44 194.92 74.44 194.92 62.31 215.21 62.31 215.21 57.35 194.92 57.35 194.92 46.24 216.5 46.24 216.5 41.28 189.1 41.28 189.1 79.4 217.4 79.4 217.4 74.44"/><path d="M262.04,49.77c0-6.67-5.07-8.92-11.32-9.08,3.58-4.48,6.62-8.17,8.65-10.41l-1.17-.91c-2.4,2.67-5.77,6.67-9.5,11.37-5.71,.27-11.85,2.03-15.43,3.68l.11,.43c3.2-1.55,9.4-3.42,14.95-3.63-12.87,16.23-30.59,40.74-35.24,50.03-.27,.21-2.94,2.67-2.56,3.36,.16,.32,1.33-.21,1.5-.43,.53-.64,.96-1.71,1.33-2.46,18.47-4.32,48.69-27.71,48.69-41.97Zm-48.37,41.43c0-.05,.05-.11,.05-.16,6.3-9.98,24.45-34.44,36.63-49.82,5.39,.21,9.82,2.35,9.82,8.49,0,15.06-28.14,36.36-46.51,41.49Z"/><path d="M254.83,71.77c-1.17,0-2.08,.37-2.78,1.12-.8,.75-1.17,1.71-1.17,2.88,0,1.07,.37,2.03,1.17,2.83,.69,.69,1.6,1.07,2.78,1.07,1.07,0,2.03-.37,2.83-1.07,.75-.8,1.17-1.76,1.17-2.83,0-1.17-.43-2.14-1.17-2.88-.8-.75-1.76-1.12-2.83-1.12Z"/></svg>