<?xml version="1.0" encoding="UTF-8"?>
<svg id="_圖層_1" data-name="圖層 1" xmlns="http://www.w3.org/2000/svg" viewBox="0 0 151.58 44.42">
  <path d="M25.55,21.82c-.96-.59-2.87-1.29-5.77-2.08-2.21-.66-3.6-1.12-4.12-1.42-1.35-.66-2.01-1.65-2.01-2.9,0-1.39,.56-2.41,1.72-3.07,.99-.63,2.37-.92,4.16-.92,1.91,0,3.4,.43,4.45,1.35,1.06,.89,1.68,2.21,1.95,3.93h1.98c-.2-2.31-1.06-4.06-2.51-5.28-1.42-1.19-3.36-1.78-5.8-1.78-2.28,0-4.12,.46-5.54,1.42-1.62,1.05-2.41,2.54-2.41,4.45s.89,3.26,2.74,4.25c.73,.4,2.44,.99,5.15,1.75,2.31,.63,3.83,1.15,4.58,1.58,1.52,.83,2.28,2.01,2.28,3.53,0,1.25-.59,2.28-1.78,3.07-1.19,.73-2.77,1.12-4.72,1.12-2.04,0-3.6-.46-4.72-1.35-1.22-1.02-1.95-2.57-2.14-4.62h-1.98c.2,2.7,1.12,4.72,2.84,6.04,1.45,1.15,3.46,1.75,6.04,1.75s4.55-.53,6.1-1.55c1.58-1.12,2.37-2.64,2.37-4.55,0-2.05-.96-3.6-2.84-4.72Z"/>
  <path d="M19.71,4.96c-4.45,0-8.25,1.55-11.38,4.72-3.17,3.13-4.72,6.93-4.72,11.38s1.55,8.21,4.72,11.38c3.13,3.13,6.93,4.72,11.38,4.72s8.21-1.58,11.38-4.72c3.13-3.17,4.72-6.96,4.72-11.38s-1.58-8.25-4.72-11.38c-3.17-3.17-6.96-4.72-11.38-4.72Zm10.65,26.75c-2.97,2.94-6.5,4.42-10.65,4.42s-7.72-1.48-10.65-4.42c-2.97-2.97-4.42-6.5-4.42-10.65s1.45-7.72,4.42-10.65c2.94-2.97,6.5-4.42,10.65-4.42s7.69,1.45,10.65,4.42c2.94,2.93,4.42,6.5,4.42,10.65s-1.48,7.69-4.42,10.65Z"/>
  <path d="M55.17,23.72c-.05-1.69-.47-3.23-1.25-4.56-.79-1.33-1.85-2.39-3.18-3.14-1.32-.75-2.82-1.13-4.45-1.13-1.74,0-3.32,.4-4.7,1.2-1.38,.8-2.48,1.92-3.26,3.35-.78,1.42-1.17,3.04-1.17,4.82s.41,3.41,1.23,4.83c.82,1.43,1.98,2.56,3.45,3.36,1.46,.8,3.15,1.21,5.02,1.21,1.46,0,2.81-.26,4.01-.77,1.22-.52,2.26-1.28,3.08-2.27l.31-.37-2.07-2.38-.43,.5c-.58,.68-1.29,1.19-2.11,1.54h0c-.84,.35-1.77,.53-2.76,.53-1.48,0-2.76-.37-3.81-1.1-.89-.62-1.53-1.41-1.95-2.42l14.07-2.73v-.48Zm-8.89-5.68c1.43,0,2.61,.41,3.58,1.26,.85,.73,1.41,1.62,1.7,2.7l-11.02,2.14v-.04c0-1.2,.25-2.27,.74-3.18,.49-.9,1.17-1.62,2.03-2.12,.86-.51,1.86-.76,2.96-.76Z"/>
  <path d="M70.58,21.49h-3.2c-.26,0-.48,.22-.48,.48v1.75c0,.38-.31,.69-.69,.69h-7.57c-.26,0-.48,.22-.48,.48v7.57c0,.26,.21,.48,.48,.48h7.57c.26,0,.48-.22,.48-.48v-7.57c0-.38,.31-.69,.69-.69h3.2c.26,0,.48-.21,.48-.48v-1.75c0-.26-.22-.48-.48-.48Z"/>
  <path d="M79.31,15.67h-3.2c-.38,0-.69-.31-.69-.68v-4.66c0-.26-.21-.48-.48-.48h-3.2c-.26,0-.48,.22-.48,.48v4.66c0,.26,.21,.48,.48,.48h3.2c.38,0,.69,.31,.69,.69v7.57c0,.27,.21,.48,.48,.48h3.2c.26,0,.48-.22,.48-.48v-7.57c0-.26-.21-.48-.48-.48Z"/>
  <path d="M70.58,9.84h-3.2c-.26,0-.48,.22-.48,.48v4.66c0,.38-.31,.68-.69,.68h-7.57c-.26,0-.48,.22-.48,.48v7.57c0,.26,.21,.48,.48,.48h7.57c.26,0,.48-.22,.48-.48v-7.57c0-.38,.31-.69,.69-.69h3.2c.26,0,.48-.22,.48-.48v-4.66c0-.26-.22-.48-.48-.48Z"/>
  <path d="M79.31,24.4h-3.2c-.38,0-.69-.31-.69-.69v-1.75c0-.26-.22-.48-.48-.48h-3.2c-.26,0-.48,.22-.48,.48v1.75c0,.26,.22,.48,.48,.48h3.2c.38,0,.69,.31,.69,.69v7.57c0,.26,.21,.48,.48,.48h3.2c.26,0,.48-.22,.48-.48v-7.57c0-.26-.21-.48-.48-.48Z"/>
  <polygon points="86.98 9.38 83.42 9.38 83.42 32.93 99.94 32.93 99.94 29.86 86.98 29.86 86.98 9.38"/>
  <polygon points="120.39 29.86 106.5 29.86 106.5 22.38 119.04 22.38 119.04 19.31 106.5 19.31 106.5 12.45 119.83 12.45 119.83 9.38 102.91 9.38 102.91 32.93 120.39 32.93 120.39 29.86"/>
  <path d="M147.96,14.63c0-4.12-3.13-5.51-6.99-5.61,2.21-2.77,4.09-5.05,5.34-6.43l-.73-.56c-1.48,1.65-3.56,4.12-5.87,7.03-3.53,.16-7.32,1.25-9.53,2.28l.07,.26c1.98-.96,5.8-2.11,9.24-2.24-7.95,10.03-18.9,25.17-21.77,30.91-.16,.13-1.81,1.65-1.58,2.08,.1,.2,.82-.13,.92-.26,.33-.4,.59-1.06,.83-1.52,11.41-2.67,30.08-17.12,30.08-25.92Zm-29.88,25.6s.03-.07,.03-.1c3.89-6.17,15.11-21.27,22.63-30.77,3.33,.13,6.07,1.45,6.07,5.24,0,9.3-17.38,22.46-28.73,25.63Z"/>
  <path d="M143.5,28.21c-.73,0-1.29,.23-1.72,.69-.49,.46-.73,1.06-.73,1.78,0,.66,.23,1.25,.73,1.75,.43,.43,.99,.66,1.72,.66,.66,0,1.25-.23,1.75-.66,.46-.49,.73-1.09,.73-1.75,0-.73-.26-1.32-.73-1.78-.49-.46-1.09-.69-1.75-.69Z"/>
</svg>