<svg id="圖層_1" data-name="圖層 1" xmlns="http://www.w3.org/2000/svg" viewBox="0 0 287.0127 304.32617"><path d="M122.3457,23.084C134.27246,6.92578,149.27734,0,162.3584,0c21.92969,0,40.39746,13.46582,40.39746,32.70312,0,9.61817-6.92578,22.69922-15.77441,32.70215l-31.16407,36.165c-8.46386,9.61817-3.46191,19.23633,11.15821,19.23633h46.9375c55.0166,0,73.09961,37.31934,73.09961,77.7168,0,77.332-77.332,105.80273-144.2754,105.80273C54.24805,304.32617,0,276.24023,0,220.83789c0-23.85351,10.77246-46.55273,32.70215-76.17773ZM242.38281,239.69043c17.69824,0,22.7002-6.92578,22.7002-13.85059,0-4.23242-3.46289-7.31054-9.61914-11.92675l-89.25782-66.94434c-21.93066-16.543-33.85742-15.77344-50.78515-1.1543L32.70215,216.99121c-3.84668,3.46191-6.15527,8.46387-6.15527,12.31152,0,6.54,5.00195,11.92676,15.00488,11.92676Z"/></svg>