<svg xmlns="http://www.w3.org/2000/svg" viewBox="0 0 60.72955 52.57737"><defs><style>.cls-1,.cls-2{stroke:#000;stroke-miterlimit:10;stroke-width:2px;}.cls-2{fill:#fff;}</style></defs><g id="font"><path class="cls-1" d="M49.4895,18.572C46.70321,10.546,39.53593,7.10424,31.05668,7.10424c-8.51751,0-15.70718,3.47843-18.46548,11.58443a10.163,10.163,0,0,0-1.25505-.12643,10.33662,10.33662,0,0,0,0,20.67324,10.25158,10.25158,0,0,0,2.57634-.363c3.391,7.58112,9.79122,12.70488,17.14419,12.70488,7.27739,0,13.617-5.02181,17.035-12.47323a10.19113,10.19113,0,0,0,1.3017.13134A10.33193,10.33193,0,0,0,49.4895,18.572Z"/><path class="cls-2" d="M44.36484,7.10435a8.5516,8.5516,0,0,0-3.291.6551,10.80144,10.80144,0,0,0-20.03332,0,8.58052,8.58052,0,1,0,3.744,12.83263,10.78939,10.78939,0,0,0,12.5454,0,8.57886,8.57886,0,1,0,7.035-13.48773Z"/></g></svg>