<svg xmlns="http://www.w3.org/2000/svg" viewBox="0 0 64.63508 43.42341"><g id="font"><path d="M62.90936,1.10637a19.69047,19.69047,0,0,0-6.71308.7801c-2.41122.56274-4.82524,1.11336-7.23756,1.67133Q41.61709,5.25594,34.30526,7.07935C29.51,8.27891,24.69218,9.36767,19.87861,10.49009c-4.75531,1.10884-9.436,2.48706-14.18536,3.61051-1.64411.38891-4.026.7339-5.22153,2.06925-1.097,1.22531-.11331,2.58079,1.23989,2.94981,1.02694.28,2.046.35386,3.07052.69729a17.43334,17.43334,0,0,1,3.10741,1.33674,56.58163,56.58163,0,0,0,5.912,2.91189,15.09586,15.09586,0,0,0,2.52572.99752,3.37074,3.37074,0,0,0,2.532-.65828c2.048-1.24737,4.1549-2.38726,6.17718-3.67772a66.81729,66.81729,0,0,1,6.0059-3.52863c2.01969-1.00982,4.20655-1.628,6.20864-2.67751,2.2997-1.20551,4.47776-2.61031,6.8368-3.70533,2.44479-1.13481,4.89118-2.26894,7.36781-3.333q3.4997-1.5036,7.10306-2.72091a16.00187,16.00187,0,0,0,5.71394-2.874C65.35809.925,63.762-.66152,62.68157.2967a13.314,13.314,0,0,1-4.72109,2.2954c-1.89573.63921-3.76673,1.33193-5.61682,2.09446a119.19794,119.19794,0,0,0-11.79,5.38754c-1.80585.98774-3.541,2.12908-5.41507,2.98711-1.865.85388-3.81843,1.46034-5.646,2.40567-1.92645.99649-3.76488,2.15157-5.59187,3.31741-1.82766,1.16628-3.73161,2.18988-5.58494,3.3121-.80468.48725-1.209.90405-2.11411.55158-1.076-.419-2.14244-.88393-3.19554-1.357-1.81533-.81544-3.46846-1.90814-5.261-2.75807a21.0126,21.0126,0,0,0-2.36492-.88559c-.45273-.15176-.90185-.34134-1.36772-.452-.33262-.079-1.46965-.39146-1.7028-.24526l-.05666.33479q-.21238.49295.0612.26142a2.82939,2.82939,0,0,0,.37945-.20851,10.58468,10.58468,0,0,1,1.45674-.50449c1.0618-.32174,2.14459-.56528,3.22535-.81318,4.31387-.98948,8.55128-2.29679,12.86448-3.30522,4.41669-1.03263,8.84708-2.00224,13.246-3.10994q7.31484-1.842,14.6622-3.55078c2.492-.58,4.98649-1.1489,7.47895-1.72673,2.41661-.56024,4.779-1.25048,7.28193-.971,1.43682.16043,1.42541-2.09084,0-2.25Z"/><path d="M15.99194,24.207a12.45931,12.45931,0,0,0,.69255,3.02805c.30972.92715.52986,1.8824.86346,2.80082.67126,1.848,1.87528,3.43882,2.52017,5.28073.48569,1.38722.85283,2.81232,1.22114,4.23328.3184,1.22843.73527,2.65874,2.03941,3.13609a1.14664,1.14664,0,0,0,1.27047-.517,4.66755,4.66755,0,0,0,.57074-2.54375,18.32385,18.32385,0,0,1,.26774-2.70037,22.26742,22.26742,0,0,0,.23133-3.78359,35.21116,35.21116,0,0,1,.45069-4.26278,1.16474,1.16474,0,0,0-.78575-1.38388,1.13205,1.13205,0,0,0-1.38388.78574c-.18433,1.29244-.39229,2.58622-.4853,3.88936a36.76663,36.76663,0,0,1-.142,3.86067,19.33307,19.33307,0,0,0-.38186,2.83891,4.17505,4.17505,0,0,1-.2845,2.16408l1.27047-.517c.276.101.09294.04918-.00324-.16883a6.74187,6.74187,0,0,1-.27167-.71023c-.16391-.52219-.28184-1.05654-.41344-1.58733a29.214,29.214,0,0,0-1.31532-4.15027C21.284,32.362,20.28975,31.013,19.71758,29.43774c-.29794-.82025-.48844-1.6727-.76247-2.50089a11.61274,11.61274,0,0,1-.71317-2.72984c-.10886-1.43478-2.35976-1.44659-2.25,0Z"/><path d="M24.69269,29.2495c1.56623.151,2.72418-.95064,3.85554-1.86411a29.82568,29.82568,0,0,1,4.716-2.58768,66.678,66.678,0,0,0,9.87031-7.18939c3.191-2.58384,6.41274-5.13259,9.61217-7.7069A42.72832,42.72832,0,0,1,57.76062,6.051c.82209-.47606,1.75783-.69773,2.57331-1.19252A27.42885,27.42885,0,0,0,62.68012,3.09c1.135-.86768.01544-2.82279-1.13561-1.94281a25.31473,25.31473,0,0,1-2.3462,1.76847c-.70288.41717-1.4926.6214-2.21615.99314a31.52616,31.52616,0,0,0-4.5638,3.40287c-3.19111,2.47865-6.29979,5.07019-9.46883,7.5779a101.99885,101.99885,0,0,1-9.46463,7.17691c-1.64479,1.01523-3.42884,1.75217-5.10454,2.70773-1.11639.63662-2.32285,2.35688-3.68767,2.22529-1.44039-.13888-1.43083,2.112,0,2.25Z"/><path d="M24.6363,29.648a21.55325,21.55325,0,0,1,2.92169.431,13.307,13.307,0,0,1,2.27679.99241c1.64751.80668,3.38285,1.33054,4.9689,2.27561,1.562.93075,3.26466,1.531,4.85269,2.40831a10.014,10.014,0,0,0,4.22945,1.49455c1.44753.06747,1.44411-2.18268,0-2.25-1.453-.06773-2.76089-1.07188-4.0276-1.684-.85394-.41264-1.7488-.735-2.59848-1.15687-.84326-.41866-1.61939-.95719-2.45879-1.38513-1.56016-.79538-3.22159-1.3691-4.801-2.12738A16.83977,16.83977,0,0,0,24.6363,27.398c-.6075-.08018-1.11926.57457-1.125,1.125a1.15252,1.15252,0,0,0,1.125,1.125Z"/><path d="M44.97063,36.42394a19.53847,19.53847,0,0,1,1.47895-3.97646,22.493,22.493,0,0,1,2.48186-4.2624,76.44052,76.44052,0,0,0,5.15845-8.79784c1.50668-3.02691,2.52069-6.20871,3.85968-9.29665,1.22336-2.82129,3.22532-5.23247,4.792-7.85911a1.12584,1.12584,0,0,0-1.94281-1.13561c-1.60608,2.69266-3.62,5.15705-4.8737,8.04986-1.37311,3.16822-2.42035,6.42538-3.98619,9.52078A76.25141,76.25141,0,0,1,46.727,27.43279a21.0249,21.0249,0,0,0-2.29024,4.02465A21.03158,21.03158,0,0,0,42.801,35.8258c-.23011,1.41649,1.93767,2.026,2.16963.59814Z"/><path d="M25.4381,42.29841c-.01818-.22225-.09675.13516-.00315-.08-.06784.15594.00242-.004.052-.06254.01373-.01622.23289-.25074.367-.36859a7.3069,7.3069,0,0,1,1.06184-.728c.99222-.59593,2.01053-1.14632,2.9819-1.7773A16.11607,16.11607,0,0,0,33.047,36.60854c.46455-.50956.88357-1.06031,1.38961-1.53065a18.30978,18.30978,0,0,1,1.53144-1.21484,1.16029,1.16029,0,0,0,.40359-1.53922,1.13294,1.13294,0,0,0-1.53921-.40359c-.62554.46784-1.26582.92313-1.85014,1.44272a19.7456,19.7456,0,0,0-1.462,1.58351A15.22485,15.22485,0,0,1,28.091,37.76111c-.97121.59428-1.99884,1.11228-2.9395,1.75518-.90977.62178-2.06472,1.54361-1.9634,2.78212a1.15383,1.15383,0,0,0,1.125,1.125,1.1338,1.1338,0,0,0,1.125-1.125Z"/></g></svg>