<svg xmlns="http://www.w3.org/2000/svg" viewBox="0 0 73.57017 73.57017"><defs><style>.cls-1,.cls-2{stroke:#000;stroke-miterlimit:10;stroke-width:2px;}.cls-2{fill:#fff;}</style></defs><g id="font"><path class="cls-1" d="M55.90981,29.06843c-2.78629-8.026-9.95357-11.46779-18.43282-11.46779-8.51751,0-15.70718,3.47843-18.46548,11.58443a10.163,10.163,0,0,0-1.25505-.12644A10.3376,10.3376,0,1,0,20.3328,49.36889C23.72376,56.95,30.124,62.07377,37.477,62.07377c7.27739,0,13.617-5.02181,17.035-12.47323a10.19113,10.19113,0,0,0,1.3017.13133,10.33192,10.33192,0,0,0,.09611-20.66344Z"/><path class="cls-2" d="M50.78515,17.60075a8.5516,8.5516,0,0,0-3.291.6551,10.80144,10.80144,0,0,0-20.03332,0,8.58052,8.58052,0,1,0,3.744,12.83263,10.78943,10.78943,0,0,0,12.5454,0,8.57886,8.57886,0,1,0,7.035-13.48773Z"/></g></svg>