<?xml version="1.0" encoding="UTF-8"?><svg id="_圖層_1" xmlns="http://www.w3.org/2000/svg" viewBox="0 0 859.21 209.92"><defs><style>.cls-1,.cls-2,.cls-3{fill:#fff;}.cls-4{font-size:25.21px;letter-spacing:.04em;}.cls-4,.cls-5{font-family:PingFangTC-Semibold-B5pc-H, 'PingFang TC';font-weight:600;}.cls-2,.cls-6,.cls-3,.cls-7{stroke-miterlimit:10;}.cls-2,.cls-7{stroke:#fff;stroke-width:16px;}.cls-6{stroke-width:2px;}.cls-6,.cls-3{stroke:#000;}.cls-5{font-size:19px;letter-spacing:.04em;}.cls-3{stroke-width:3px;}</style></defs><rect class="cls-1" x="0" y="54.3" width="859.21" height="155.62" rx="53.58" ry="53.58"/><text class="cls-4" transform="translate(220.24 125.33)"><tspan x="0" y="0">請跳轉至預設瀏覽器以取得最佳體驗</tspan></text><text class="cls-5" transform="translate(63.76 157.57)"><tspan x="0" y="0">PLEASE OPEN IT IN DEFAULT BROWSER TO GET THE BEST EXPERIENCE.</tspan></text><g><path class="cls-7" d="M459.45,35.42c-4.35-12.52-15.53-17.89-28.76-17.89s-24.51,5.43-28.81,18.08c-.65-.08-1.29-.2-1.96-.2-8.91,0-16.13,7.22-16.13,16.13s7.22,16.13,16.13,16.13c1.4,0,2.73-.23,4.02-.57,5.29,11.83,15.28,19.82,26.75,19.82s21.25-7.84,26.58-19.46c.67,.09,1.34,.2,2.03,.2,8.91,0,16.13-7.22,16.13-16.13s-7.14-16.03-15.98-16.11Z"/><path class="cls-2" d="M451.45,17.52c-1.82,0-3.55,.36-5.14,1.02-2.5-6.18-8.55-10.55-15.63-10.55s-13.13,4.36-15.63,10.55c-1.58-.66-3.32-1.02-5.14-1.02-7.39,0-13.39,5.99-13.39,13.39s5.99,13.39,13.39,13.39c4.54,0,8.56-2.27,10.98-5.73,2.76,1.97,6.14,3.14,9.79,3.14s7.03-1.16,9.79-3.14c2.42,3.46,6.43,5.73,10.98,5.73,7.39,0,13.39-5.99,13.39-13.39s-5.99-13.39-13.39-13.39Z"/></g><g><path class="cls-6" d="M459.45,35.42c-4.35-12.52-15.53-17.89-28.76-17.89s-24.51,5.43-28.81,18.08c-.65-.08-1.29-.2-1.96-.2-8.91,0-16.13,7.22-16.13,16.13s7.22,16.13,16.13,16.13c1.4,0,2.73-.23,4.02-.57,5.29,11.83,15.28,19.82,26.75,19.82s21.25-7.84,26.58-19.46c.67,.09,1.34,.2,2.03,.2,8.91,0,16.13-7.22,16.13-16.13s-7.14-16.03-15.98-16.11Z"/><path class="cls-3" d="M451.45,17.52c-1.82,0-3.55,.36-5.14,1.02-2.5-6.18-8.55-10.55-15.63-10.55s-13.13,4.36-15.63,10.55c-1.58-.66-3.32-1.02-5.14-1.02-7.39,0-13.39,5.99-13.39,13.39s5.99,13.39,13.39,13.39c4.54,0,8.56-2.27,10.98-5.73,2.76,1.97,6.14,3.14,9.79,3.14s7.03-1.16,9.79-3.14c2.42,3.46,6.43,5.73,10.98,5.73,7.39,0,13.39-5.99,13.39-13.39s-5.99-13.39-13.39-13.39Z"/></g></svg>