<svg xmlns="http://www.w3.org/2000/svg" viewBox="0 0 73.57017 73.57017"><g id="font"><path d="M67.40394,19.9089a19.6905,19.6905,0,0,0-6.71309.7801c-2.41121.56274-4.82524,1.11336-7.23756,1.67133q-7.34163,1.69813-14.65346,3.52155c-4.79529,1.19956-9.61308,2.28832-14.42665,3.41074-4.75531,1.10884-9.436,2.48706-14.18536,3.61051-1.64411.38891-4.026.7339-5.22153,2.06925-1.097,1.22531-.11331,2.58079,1.2399,2.94981,1.02693.28005,2.046.35386,3.07051.69729a17.433,17.433,0,0,1,3.10741,1.33674,56.58163,56.58163,0,0,0,5.912,2.91189,15.09586,15.09586,0,0,0,2.52572.99752,3.37074,3.37074,0,0,0,2.532-.65828c2.048-1.24737,4.15491-2.38726,6.17718-3.67772A66.81745,66.81745,0,0,1,35.53689,36.001c2.01968-1.00982,4.20654-1.628,6.20863-2.6775,2.2997-1.20552,4.47776-2.61032,6.83681-3.70533,2.44478-1.13482,4.89117-2.269,7.3678-3.333q3.49971-1.5036,7.10307-2.72091a16.00191,16.00191,0,0,0,5.71393-2.874c1.08553-.96271-.51052-2.54921-1.591-1.591a13.31405,13.31405,0,0,1-4.72108,2.2954c-1.89574.63921-3.76674,1.33193-5.61683,2.09446a119.199,119.199,0,0,0-11.79,5.38754c-1.80585.98774-3.541,2.12908-5.41506,2.98711-1.865.85389-3.81844,1.46034-5.646,2.40567-1.92645.99649-3.76487,2.15157-5.59186,3.31741-1.82767,1.16628-3.73162,2.18988-5.58495,3.3121-.80468.48725-1.209.90405-2.11411.55158-1.076-.419-2.14244-.88393-3.19554-1.357-1.81533-.81544-3.46846-1.90814-5.261-2.75807a21.01188,21.01188,0,0,0-2.36492-.88559c-.45273-.15176-.90185-.34134-1.36772-.452-.33262-.079-1.46965-.39146-1.7028-.24526l-.05666.33479q-.21238.49294.0612.26142a2.83008,2.83008,0,0,0,.37946-.20851,10.58409,10.58409,0,0,1,1.45673-.50449c1.0618-.32174,2.14459-.56528,3.22535-.81318,4.31387-.98948,8.55128-2.29679,12.86448-3.30522,4.41669-1.03263,8.84708-2.00224,13.246-3.10994q7.31484-1.842,14.6622-3.55078c2.492-.58,4.98649-1.1489,7.47895-1.72673,2.41661-.56024,4.779-1.25048,7.28194-.971,1.43682.16043,1.4254-2.09084,0-2.25Z"/><path d="M20.48651,43.00954a12.45977,12.45977,0,0,0,.69255,3.02805c.30972.92715.52986,1.8824.86346,2.80082.67126,1.848,1.87528,3.43882,2.52017,5.28073.4857,1.38722.85284,2.81232,1.22114,4.23328.3184,1.22843.73527,2.65874,2.03941,3.13609a1.14663,1.14663,0,0,0,1.27047-.517,4.66755,4.66755,0,0,0,.57074-2.54375,18.32385,18.32385,0,0,1,.26774-2.70037,22.26742,22.26742,0,0,0,.23133-3.78359,35.21116,35.21116,0,0,1,.45069-4.26278,1.16474,1.16474,0,0,0-.78575-1.38388,1.13205,1.13205,0,0,0-1.38388.78574c-.18433,1.29244-.39229,2.58622-.48529,3.88936a36.76934,36.76934,0,0,1-.142,3.86067,19.33442,19.33442,0,0,0-.38186,2.83891,4.17505,4.17505,0,0,1-.2845,2.16408l1.27048-.517c.276.101.09293.04918-.00325-.16883a6.74187,6.74187,0,0,1-.27167-.71023c-.16391-.52219-.28184-1.05654-.41344-1.58733a29.214,29.214,0,0,0-1.31532-4.15027c-.63914-1.53773-1.63338-2.88672-2.20555-4.46195-.29794-.82025-.48844-1.6727-.76247-2.50089a11.61274,11.61274,0,0,1-.71317-2.72984c-.10886-1.43478-2.35976-1.44659-2.25,0Z"/><path d="M29.18726,48.052c1.56623.151,2.72418-.95064,3.85554-1.86411a29.82612,29.82612,0,0,1,4.716-2.58768,66.678,66.678,0,0,0,9.87031-7.18939c3.191-2.58384,6.41274-5.13259,9.61217-7.7069a42.72915,42.72915,0,0,1,5.01393-3.85043c.82209-.47606,1.75783-.69773,2.57331-1.19252a27.429,27.429,0,0,0,2.3462-1.76847c1.135-.86768.01543-2.82279-1.13562-1.94281a25.3134,25.3134,0,0,1-2.3462,1.76847c-.70288.41717-1.4926.6214-2.21614.99314a31.52625,31.52625,0,0,0-4.56381,3.40287c-3.19111,2.47865-6.29979,5.07019-9.46883,7.5779A101.99752,101.99752,0,0,1,37.97947,40.869c-1.64478,1.01523-3.42884,1.75217-5.10454,2.70773-1.11639.63662-2.32285,2.35688-3.68767,2.22529-1.44039-.13888-1.43083,2.112,0,2.25Z"/><path d="M29.13087,48.45055a21.55339,21.55339,0,0,1,2.9217.431,13.30719,13.30719,0,0,1,2.27678.99241c1.64751.80668,3.38285,1.33054,4.9689,2.27561,1.562.93075,3.26466,1.531,4.8527,2.40831a10.01391,10.01391,0,0,0,4.22944,1.49455c1.44753.06747,1.44411-2.18268,0-2.25-1.453-.06773-2.76089-1.07188-4.02759-1.684-.85394-.41264-1.74881-.735-2.59849-1.15687-.84326-.41866-1.61939-.95719-2.45879-1.38513-1.56015-.79538-3.22159-1.3691-4.801-2.12738a16.83971,16.83971,0,0,0-5.36361-1.24849c-.6075-.08018-1.11926.57457-1.125,1.125a1.15252,1.15252,0,0,0,1.125,1.125Z"/><path d="M49.4652,55.22647A19.53907,19.53907,0,0,1,50.94415,51.25a22.4925,22.4925,0,0,1,2.48187-4.2624,76.44189,76.44189,0,0,0,5.15844-8.79784c1.50668-3.02691,2.5207-6.20871,3.85968-9.29665,1.22336-2.82129,3.22532-5.23247,4.792-7.85911a1.12584,1.12584,0,0,0-1.94281-1.13561c-1.60608,2.69266-3.62,5.15705-4.87369,8.04986-1.37311,3.16822-2.42036,6.42538-3.9862,9.52078a76.25,76.25,0,0,1-5.21185,8.76628A21.02462,21.02462,0,0,0,48.93138,50.26a21.031,21.031,0,0,0-1.63581,4.36836c-.2301,1.41649,1.93768,2.026,2.16963.59814Z"/><path d="M29.93267,61.10094c-.01818-.22225-.09675.13516-.00315-.08-.06784.15594.00243-.004.052-.06254.01372-.01621.23288-.25074.367-.36859a7.3069,7.3069,0,0,1,1.06184-.728c.99223-.59593,2.01053-1.14632,2.9819-1.7773a16.11607,16.11607,0,0,0,3.14926-2.67341c.46455-.50956.88357-1.06031,1.38961-1.53065a18.30978,18.30978,0,0,1,1.53144-1.21484,1.1603,1.1603,0,0,0,.4036-1.53922,1.133,1.133,0,0,0-1.53922-.40359c-.62553.46784-1.26582.92313-1.85013,1.44272a19.74387,19.74387,0,0,0-1.462,1.58351,15.22485,15.22485,0,0,1-3.42926,2.81464c-.97121.59428-1.99884,1.11228-2.9395,1.75518-.90976.62178-2.06472,1.54361-1.9634,2.78212a1.15383,1.15383,0,0,0,1.125,1.125,1.13379,1.13379,0,0,0,1.125-1.125Z"/></g></svg>