<svg id="圖層_1" data-name="圖層 1" xmlns="http://www.w3.org/2000/svg" viewBox="0 0 70.83227 60.32418"><defs><style>.cls-1{fill:#fffa6f;}</style></defs><path d="M10.19857,8.68013q-.56354,23.696.62345,47.38621a1.51948,1.51948,0,0,0,1.89876,1.44642Q27.13775,53.65619,41.4863,49.55q7.23294-2.071,14.44728-4.20619c1.8591-.55024,3.9936-.95394,5.60748-2.09091,1.70419-1.2006,2.19921-2.95922,2.44993-4.93406a98.54585,98.54585,0,0,0-.675-28.8438c-.30155-1.77735-.39571-4.256-2.01368-5.40854-1.67015-1.18969-4.4512-.6915-6.37963-.70348L39.74692,3.26883,5.91255,3.05874a1.51747,1.51747,0,0,0-1.5,1.5L5.53012,47.4371c.0429,1.64615.01039,3.31791.145,4.9597a4.74471,4.74471,0,0,0,1.64634,3.61327,5.73788,5.73788,0,0,0,3.57735.8788c1.98067.005,3.96294-.03826,5.94355-.05737l21.29773-.20558,21.29772-.20557c2.503-.02416,6.69628.65116,6.71968-2.99021a50.2743,50.2743,0,0,0-.48946-5.24951q-.27192-2.69328-.57807-5.383-1.19217-10.46883-2.88848-20.87282a96.876,96.876,0,0,0-1.79343-9.9861,5.62284,5.62284,0,0,0-2.00718-3.194A7.56659,7.56659,0,0,0,54.517,7.63958,446.69888,446.69888,0,0,0,6.40356,6.10309C4.76908,6.13285,4.295,8.69692,6.0048,9.04951a204.15147,204.15147,0,0,0,51.039,3.99008c1.91794-.09253,1.94046-3.04927,0-3Q32.853,10.65386,8.78664,13.41614c-1.52677.17531-2.21159,2.59885-.39876,2.94641l50.85919,9.751.39876-2.94642L10.31927,25.57519l.39876,2.94642c14.47638-5.43018,29.8708-7.44482,45.124-9.37335,1.8642-.2357,1.959-3.1548,0-3L10.07545,19.76461c-1.90982.15091-1.93155,3.14311,0,3l50.22287-3.721a1.501,1.501,0,0,0,0-3q-13.18417-1.65724-26.45853-2.39453v3l16.04172-1.12368c3.54468-.2483,8.91822.1209,10.35852-4.0191a1.52918,1.52918,0,0,0-1.04766-1.84518,68.69941,68.69941,0,0,0-9.705-2.75436l-.39876,2.94642,8.8996-.05992-1.5-1.5a90.48017,90.48017,0,0,1,.21571,15.30474q-.2823,3.925-.92143,7.81124a17.27221,17.27221,0,0,1-.64738,3.14391A2.06886,2.06886,0,0,1,52.972,35.96848c-5.0864.29457-10.28468.00344-15.3753-.1195q-7.80918-.18859-15.60974-.62587Q13.07324,34.723,4.18225,33.8992l1.29521,2.25708c3.9656-5.74351,12.52774-5.18086,18.62278-4.64538,1.94867.1712,1.87067-2.76326,0-3-4.64728-.58815-9.42748-.91175-14.02672-1.79661-.83424-.1605-1.74918-.32926-1.84072-1.3131a11.03326,11.03326,0,0,1,.6141-3.15953l1.59963-7.05574-2.94642-.39876A262.88436,262.88436,0,0,1,7.4573,46.8304L9.35606,45.384a9.11372,9.11372,0,0,1-5.60062-7.17419L2.6542,39.65621c17.92979-3.04234,36.07866-4.40854,54.19712-5.768a1.501,1.501,0,0,0,0-3,323.75,323.75,0,0,0-34.411-1.17144,1.5009,1.5009,0,0,0,0,3l28.27436-.043v-3a179.60984,179.60984,0,0,1-29.4699-1.05015l.39876,2.94642,31.01712-7.51963c1.76717-.42842,1.17321-2.76459-.39875-2.94641L15.65947,16.87028v3a123.05748,123.05748,0,0,1,33.00661,3.85017V20.82761A170.49972,170.49972,0,0,0,17.25164,32.85387c-1.26012.63069-.74632,2.3237.35832,2.74163A128.16536,128.16536,0,0,0,44.22747,42.512l.39876-2.94642L8.063,44.25346c-1.85562.23791-1.99174,2.97887,0,3A261.31713,261.31713,0,0,1,53.97581,51.8l.39876-2.94642-33.68589.22225c-1.64149.01083-2.10138,2.60086-.39876,2.94642a152.04667,152.04667,0,0,0,34.17614,3.00489,1.50092,1.50092,0,0,0,0-3q-24.92028-.88688-49.8618-.71437v3L56.647,50.69838a1.50738,1.50738,0,0,0,.39876-2.94642,261.23435,261.23435,0,0,0-39.001-7.224C16.38,40.348,15.97535,43.21128,17.646,43.47439l33.1352,5.21825L51.18,45.74622a151.51663,151.51663,0,0,0-31.38609.57544,1.50105,1.50105,0,0,0,0,3l48.89454,5.99753c1.71066.20983,1.98225-2.5057.39876-2.94642q-10.19372-2.83711-20.09939-6.57983L48.589,48.73936l8.37613-.75412c1.57973-.14223,2.16023-2.54.39876-2.94642a189.67931,189.67931,0,0,0-31.59715-4.52963v3l17.2249.76223,8.48764.37559c2.38276.10544,4.68682.25626,6.62643-1.35455.97216-.80736.26135-2.12-.6619-2.50708l-9.54136-4.00061-.39876,2.94642,17.25371-1.16566v-3a81.296,81.296,0,0,1-18.88017-.8304V37.628l19.96439-3.91892c1.53807-.30192,1.31111-2.46993,0-2.89284A56.78445,56.78445,0,0,0,48.96489,28.088l.39876,2.94642,12.37661-1.75161c1.77759-.25158,1.16593-2.8176-.39876-2.94642a270.93079,270.93079,0,0,0-29.61582-.81306,1.501,1.501,0,0,0,0,3,94.52548,94.52548,0,0,1,12.99188,2.26241V27.89294Q24.90249,36.09761,4.50381,42.77211A1.50137,1.50137,0,0,0,5.30133,45.665l27.34458-4.55658-.79751-2.89284a38.4448,38.4448,0,0,0-12.58619,5.8098,1.51506,1.51506,0,0,0,.75708,2.7952q21.32646,2.7587,42.752,4.649c1.67959.14818,2.04637-2.59606.39876-2.94642a8.69581,8.69581,0,0,1-4.68778-2.6325l-.6619,2.50708A7.72531,7.72531,0,0,0,61.143,46.72255a1.51942,1.51942,0,0,0-.30358-2.35587l-6.3415-4.76281-.75708,2.79521A11.522,11.522,0,0,0,61.296,39.67251a1.51475,1.51475,0,0,0-.30358-2.35587A107.17368,107.17368,0,0,0,34.82227,24.72916l-.39876,2.94642c3.31187.25492,4.50817-4.11915,2.81844-6.40758a7.84054,7.84054,0,0,0-4.26563-2.56843c-1.61335-.48192-3.66511-.73665-4.53178-2.376l-.89644,2.2035,7.147-1.36741c1.71149-.32746,1.23625-2.89758-.39876-2.94642L23.53168,13.8917c-1.93112-.05769-1.92934,2.94236,0,3l10.76467.32158-.39876-2.94642-7.147,1.36741a1.51558,1.51558,0,0,0-.89645,2.2035c1.28037,2.42183,3.90355,3.035,6.32467,3.75464.90583.26924,2.43716.69947,2.81789,1.70534a1.4189,1.4189,0,0,1-.05242,1.021c-.19886.40949-.22966.3792-.52076.3568-1.75122-.1348-1.943,2.44659-.39876,2.94642a104.19628,104.19628,0,0,1,25.45352,12.285l-.30358-2.35587a8.29238,8.29238,0,0,1-5.43385,1.8479,1.51412,1.51412,0,0,0-.75708,2.79521l6.3415,4.7628-.30358-2.35586a4.54586,4.54586,0,0,1-1.99883.90366,1.51418,1.51418,0,0,0-.66191,2.50708,11.48529,11.48529,0,0,0,6.01158,3.404l.39876-2.94641q-21.42093-1.88985-42.752-4.649l.75708,2.79521a36.08625,36.08625,0,0,1,11.86954-5.50737c1.90413-.49062,1.06967-3.204-.79751-2.89284L4.50381,42.77211,5.30133,45.665q20.38334-6.66882,40.21375-14.87917c1.25376-.51913,1.58443-2.50338,0-2.89284a100.2994,100.2994,0,0,0-13.7894-2.36957v3a270.93086,270.93086,0,0,1,29.61582.81306L60.94274,26.39,48.56613,28.14162c-1.70952.24195-1.24076,2.93036.39876,2.94642a53.93059,53.93059,0,0,1,16.07924,2.621V30.81621L45.07975,34.73513c-1.40773.27633-1.45558,2.65451,0,2.89284a84.6304,84.6304,0,0,0,19.67768.93756c1.91369-.13545,1.93181-3.13051,0-3L47.50372,36.73119a1.508,1.508,0,0,0-.39876,2.94642l9.54136,4.00061-.6619-2.50708a4.27573,4.27573,0,0,1-2.87452.546c-1.29259-.03274-2.58558-.11239-3.87732-.16955l-7.73872-.34245-15.72709-.696c-1.93506-.08563-1.91848,2.88815,0,3A184.77458,184.77458,0,0,1,56.5664,47.93166l.39876-2.94642-8.37613.75412a1.50784,1.50784,0,0,0-.39876,2.94642q9.89807,3.74022,20.09939,6.57983l.39876-2.94642L19.79388,46.32166v3A151.51663,151.51663,0,0,1,51.18,48.74622c1.6652.14261,2.07346-2.68268.39876-2.94642l-33.1352-5.21825L18.04477,43.528A255.98056,255.98056,0,0,1,56.24822,50.6448l.39876-2.94642L4.60426,51.31274c-1.90522.13231-1.952,3.01351,0,3q24.93546-.17259,49.8618.71437v-3a148.41343,148.41343,0,0,1-33.37862-2.89772l-.39876,2.94641,33.68589-.22225c1.63612-.01079,2.10828-2.62225.39876-2.94642A265.93682,265.93682,0,0,0,8.063,44.25346v3l36.56328-4.68791a1.52757,1.52757,0,0,0,1.47321-1.30062,1.4795,1.4795,0,0,0-1.07445-1.6458,128.16552,128.16552,0,0,1-26.61751-6.91647l.35831,2.74162A166.47587,166.47587,0,0,1,49.4636,23.72045a1.51218,1.51218,0,0,0,0-2.89284,126.22083,126.22083,0,0,0-33.80413-3.95733c-1.97693.03758-1.87407,2.78323,0,3L52.26188,24.104l-.39876-2.94642L20.846,28.67721c-1.77022.42916-1.16991,2.76079.39876,2.94642a179.60984,179.60984,0,0,0,29.4699,1.05015,1.50092,1.50092,0,0,0,0-3l-28.27436.043v3a323.75,323.75,0,0,1,34.411,1.17144v-3C38.4644,32.26781,20.052,33.676,1.85668,36.76337A1.49436,1.49436,0,0,0,.75544,38.20979a12.27384,12.27384,0,0,0,7.8031,10.067c.96919.37913,1.84411-.57063,1.89876-1.44642a262.88436,262.88436,0,0,0,.04281-32.04324c-.09608-1.60906-2.55339-2.13235-2.94642-.39876q-.95977,4.23343-1.91955,8.46689c-.54408,2.41442-.63359,4.9897,1.94661,6.20858,2.24362,1.05989,5.1332,1.006,7.5587,1.313l8.96079,1.13406v-3c-7.4049-.65056-16.51384-.675-21.21319,6.13122-.70518,1.02133.26355,2.162,1.2952,2.25708Q20.97472,38.44737,37.84456,38.855q4.21453.09983,8.43037.1268a47.51239,47.51239,0,0,0,7.84049-.1311,4.99994,4.99994,0,0,0,4.06718-4.04573,56.97049,56.97049,0,0,0,1.21222-7.81556,90.25228,90.25228,0,0,0,.09336-18.69606,1.5332,1.5332,0,0,0-1.5-1.5l-8.8996.05992c-1.64273.01106-2.09976,2.59607-.39876,2.94642a68.6975,68.6975,0,0,1,9.705,2.75436l-1.04766-1.84518c-.43006,1.23619-2.34667,1.42973-3.44853,1.53259-2.15579.20125-4.32525.30561-6.48511.4569l-13.57376.95081a1.501,1.501,0,0,0,0,3q13.26749.73665,26.45853,2.39453v-3l-50.22287,3.721v3L55.842,19.14826v-3C40.32667,18.10994,24.6479,20.10443,9.92051,25.62877c-1.47952.555-1.41065,3.03475.39876,2.94642L59.64583,26.1671c1.60147-.07818,2.14287-2.612.39876-2.94642L9.1854,13.46972l-.39876,2.94642q24.04067-2.76049,48.25717-3.37655v-3A200.88821,200.88821,0,0,1,6.80232,6.15667L6.40356,9.10309q19.73291-.35928,39.44859.89913c3.09969.19956,6.30084.24227,9.37346.70476a2.524,2.524,0,0,1,2.33788,2.2075c.37621,1.46209.57684,2.98459.83886,4.47039q1.69589,9.61665,2.94771,19.30531.61148,4.75961,1.11571,9.53216.25852,2.44727.48875,4.89741c.04342.46231.42789,1.98166.203,2.31039a17.04517,17.04517,0,0,0-1.73849-.02891l-19.81184.19123-19.31655.18645-9.90591.09561c-.97165.00938-2.97786.41556-3.51912-.6232a3.8316,3.8316,0,0,1-.22567-1.60073c-.03784-.9907-.05169-1.98311-.07752-2.97423L7.41255,4.55874l-1.5,1.5,27.8636.173,13.93179.08651,7.21469.04479c1.078.0067,2.15613.01121,3.23416.02009,1.16341.00958,1.4966-.04484,1.75517,1.12886a90.72982,90.72982,0,0,1,1.50027,26.74993q-.12857,1.55433-.3067,3.104a5.78793,5.78793,0,0,1-.77078,2.97514c-1.06007,1.29829-3.46318,1.596-4.96217,2.03987Q48.75,44.34211,42.11148,46.24917q-15.055,4.32492-30.18822,8.37075L13.822,56.06634q-1.18676-23.673-.62345-47.38621c.04592-1.93124-2.95409-1.93048-3,0Z"/><path class="cls-1" d="M46.11847,31.67318a10.43021,10.43021,0,0,1-3.74707,8.06543,13.094,13.094,0,0,1-9.03028,3.34179,13.08346,13.08346,0,0,1-9.03906-3.34179,10.43711,10.43711,0,0,1-3.73828-8.06543,10.9,10.9,0,0,1,3.72949-8.08789l1.813,1.60547A8.72629,8.72629,0,0,0,23.119,31.67318a8.34843,8.34843,0,0,0,2.98731,6.45215,10.47354,10.47354,0,0,0,7.23486,2.67089,10.47132,10.47132,0,0,0,7.21729-2.67871,8.33534,8.33534,0,0,0,3.00439-6.44433,8.51925,8.51925,0,0,0-3.21142-6.59082l-3.60889,3.22656V20.23568h9.04785l-3.626,3.22656A10.60718,10.60718,0,0,1,46.11847,31.67318Z"/></svg>