<svg xmlns="http://www.w3.org/2000/svg" viewBox="0 0 69.3867 54.50737"><defs><style>.cls-1{fill:#fffa6f;}</style></defs><g id="font"><path class="cls-1" d="M9.44943,5.62141q-.56353,23.696.62345,47.38622a1.51949,1.51949,0,0,0,1.89876,1.44642q14.417-3.85659,28.76552-7.96273,7.23294-2.071,14.44728-4.20619c1.8591-.55024,3.9936-.95394,5.60748-2.09092,1.70419-1.2006,2.19921-2.95921,2.44993-4.93406a98.54585,98.54585,0,0,0-.675-28.8438c-.30155-1.77735-.39571-4.256-2.01368-5.40854C58.883-.18188,56.10192.31631,54.17349.30434L38.99778.21011,5.16341,0a1.51746,1.51746,0,0,0-1.5,1.5L4.781,44.37839c.0429,1.64614.01039,3.31791.145,4.95969a4.74467,4.74467,0,0,0,1.64633,3.61327,5.73781,5.73781,0,0,0,3.57735.8788c1.98067.005,3.96294-.03825,5.94355-.05737L37.391,53.56721l21.29772-.20557c2.503-.02416,6.69628.65116,6.71968-2.99021a50.27449,50.27449,0,0,0-.48946-5.24952q-.27192-2.69328-.57807-5.383-1.19217-10.46883-2.88848-20.87281A96.87616,96.87616,0,0,0,59.65894,8.88a5.62284,5.62284,0,0,0-2.00718-3.194,7.56658,7.56658,0,0,0-3.88388-1.10512A446.6963,446.6963,0,0,0,5.65442,3.04438c-1.63448.02975-2.10857,2.59382-.39876,2.94641a204.152,204.152,0,0,0,51.039,3.99009c1.91793-.09254,1.94045-3.04927,0-3Q32.10384,7.59513,8.0375,10.35742c-1.52677.17531-2.21159,2.59885-.39876,2.94642l50.85919,9.751.39876-2.94642L9.57013,22.51647l.39876,2.94642c14.47638-5.43018,29.8708-7.44482,45.124-9.37335,1.8642-.2357,1.959-3.15479,0-3L9.32631,16.7059c-1.90982.15091-1.93155,3.1431,0,3L59.54918,15.985a1.501,1.501,0,0,0,0-3Q46.365,11.32769,33.09065,10.59041v3l16.04172-1.12368c3.54468-.24829,8.91822.12091,10.35852-4.01909a1.52917,1.52917,0,0,0-1.04766-1.84518,68.69675,68.69675,0,0,0-9.705-2.75436l-.39876,2.94642L57.239,6.7346l-1.5-1.5a90.479,90.479,0,0,1,.21571,15.30473q-.2823,3.925-.92143,7.81125a17.2721,17.2721,0,0,1-.64738,3.1439,2.06884,2.06884,0,0,1-2.16313,1.41528c-5.0864.29458-10.28468.00344-15.3753-.1195q-7.80918-.1886-15.60974-.62587-8.91368-.50011-17.80466-1.32391l1.29521,2.25708c3.9656-5.74351,12.52774-5.18086,18.62278-4.64538,1.94867.1712,1.87067-2.76325,0-3-4.64728-.58815-9.42748-.91174-14.02672-1.7966-.83424-.16051-1.74918-.32927-1.84071-1.3131a11.033,11.033,0,0,1,.61409-3.15954L9.69739,12.1272,6.751,11.72844a262.88452,262.88452,0,0,1-.04281,32.04325l1.89876-1.44642a9.11372,9.11372,0,0,1-5.60062-7.1742L1.90506,36.59749c17.92979-3.04234,36.07866-4.40854,54.19712-5.768a1.501,1.501,0,0,0,0-3,323.7474,323.7474,0,0,0-34.411-1.17145,1.5009,1.5009,0,0,0,0,3l28.27437-.043v-3a179.61213,179.61213,0,0,1-29.46991-1.05015l.39876,2.94641L51.9115,20.99171c1.76716-.42842,1.1732-2.76459-.39876-2.94642l-36.6024-4.23372v3a123.057,123.057,0,0,1,33.0066,3.85016V17.7689A170.499,170.499,0,0,0,16.5025,29.79516c-1.26012.63069-.74632,2.3237.35832,2.74162a128.16536,128.16536,0,0,0,26.61751,6.91647l.39876-2.94641L7.31381,41.19474c-1.85562.23792-1.99174,2.97887,0,3a261.31619,261.31619,0,0,1,45.91286,4.54652l.39876-2.94642-33.68589.22225c-1.64149.01083-2.10138,2.60085-.39876,2.94642a152.04724,152.04724,0,0,0,34.17614,3.00488,1.50092,1.50092,0,0,0,0-3q-24.92028-.88686-49.8618-.71437v3l52.04272-3.61436a1.50737,1.50737,0,0,0,.39876-2.94641,261.23518,261.23518,0,0,0-39.001-7.224c-1.66475-.17994-2.06942,2.68332-.39876,2.94642l33.1352,5.21825.39876-2.94642a151.518,151.518,0,0,0-31.38609.57544,1.50105,1.50105,0,0,0,0,3l48.89454,5.99753c1.71066.20984,1.98225-2.5057.39876-2.94641q-10.19372-2.83711-20.09939-6.57983l-.39876,2.94642,8.37613-.75413c1.57973-.14223,2.16023-2.54.39876-2.94642a189.67931,189.67931,0,0,0-31.59715-4.52963v3l17.2249.76223,8.48764.3756c2.38276.10544,4.68682.25626,6.62643-1.35455.97216-.80737.26135-2.12-.6619-2.50708l-9.54136-4.00062-.39876,2.94642,17.25371-1.16566v-3a81.296,81.296,0,0,1-18.88017-.83039v2.89283l19.96439-3.91892c1.53807-.30192,1.31111-2.46992,0-2.89284a56.78412,56.78412,0,0,0-16.87676-2.72816l.39876,2.94642,12.37661-1.75162c1.77759-.25158,1.16593-2.81759-.39876-2.94642a270.9358,270.9358,0,0,0-29.61582-.81306,1.501,1.501,0,0,0,0,3,94.52548,94.52548,0,0,1,12.99188,2.26241V24.83423Q24.15335,33.0389,3.75467,39.7134a1.50137,1.50137,0,0,0,.79752,2.89283l27.34458-4.55658-.79751-2.89284a38.445,38.445,0,0,0-12.58619,5.8098,1.51507,1.51507,0,0,0,.75708,2.79521q21.32646,2.75868,42.752,4.649c1.67959.14818,2.04637-2.59606.39876-2.94642a8.69574,8.69574,0,0,1-4.68777-2.63249L57.07122,45.339a7.7252,7.7252,0,0,0,3.32264-1.67518,1.51941,1.51941,0,0,0-.30358-2.35586l-6.3415-4.76281-.75708,2.7952a11.52192,11.52192,0,0,0,7.55517-2.72657,1.51475,1.51475,0,0,0-.30358-2.35587A107.17387,107.17387,0,0,0,34.07313,21.67044l-.39876,2.94642c3.31187.25492,4.50817-4.11914,2.81844-6.40757a7.84043,7.84043,0,0,0-4.26563-2.56843c-1.61335-.48192-3.66511-.73665-4.53178-2.376l-.89644,2.2035L33.946,14.101c1.71149-.32745,1.23625-2.89757-.39876-2.94642L22.78254,10.833c-1.93112-.05769-1.92934,2.94237,0,3l10.76467.32158-.39876-2.94642-7.147,1.36741a1.51558,1.51558,0,0,0-.89645,2.2035c1.28037,2.42183,3.90355,3.035,6.32467,3.75465.90583.26923,2.43716.69947,2.81789,1.70534a1.41891,1.41891,0,0,1-.05242,1.021c-.19886.40949-.22966.3792-.52076.35679-1.75121-.13479-1.943,2.44659-.39876,2.94642A104.19631,104.19631,0,0,1,58.72913,36.84834l-.30358-2.35587a8.29236,8.29236,0,0,1-5.43385,1.84789,1.51412,1.51412,0,0,0-.75708,2.79521l6.3415,4.76281-.30358-2.35587a4.54588,4.54588,0,0,1-1.99883.90367,1.51418,1.51418,0,0,0-.66191,2.50708,11.48536,11.48536,0,0,0,6.01158,3.404l.39876-2.94642q-21.42093-1.88985-42.752-4.649l.75708,2.7952a36.08665,36.08665,0,0,1,11.86954-5.50737c1.90413-.49062,1.06967-3.204-.79751-2.89284L3.75467,39.7134l.79752,2.89283q20.38334-6.66882,40.21375-14.87917c1.25376-.51913,1.58443-2.50337,0-2.89283a100.30094,100.30094,0,0,0-13.7894-2.36958v3a270.93587,270.93587,0,0,1,29.61582.81306l-.39876-2.94642L47.817,25.08291c-1.70952.24194-1.24076,2.93036.39876,2.94642a53.93058,53.93058,0,0,1,16.07924,2.621V27.75749L44.33061,31.67642c-1.40773.27633-1.45558,2.6545,0,2.89283a84.6293,84.6293,0,0,0,19.67768.93756c1.91369-.13544,1.93181-3.13051,0-3L46.75458,33.67247a1.50806,1.50806,0,0,0-.39876,2.94642l9.54136,4.00061-.6619-2.50707a4.27573,4.27573,0,0,1-2.87452.546c-1.29259-.03273-2.58558-.11238-3.87732-.16955l-7.73872-.34245-15.72709-.69595c-1.93506-.08563-1.91848,2.88815,0,3a184.77666,184.77666,0,0,1,30.79963,4.42247l.39876-2.94642-8.37613.75413a1.50783,1.50783,0,0,0-.39876,2.94641q9.89806,3.74023,20.09939,6.57983l.39876-2.94642L19.04474,43.26294v3a151.518,151.518,0,0,1,31.38609-.57544c1.6652.14261,2.07346-2.68268.39876-2.94642l-33.1352-5.21825-.39876,2.94642a255.98183,255.98183,0,0,1,38.20345,7.11683l.39876-2.94642L3.85512,48.254c-1.90522.13232-1.952,3.01351,0,3q24.93546-.17257,49.8618.71437v-3A148.41343,148.41343,0,0,1,20.3383,46.07067l-.39876,2.94642,33.68589-.22225c1.63612-.0108,2.10828-2.62225.39876-2.94642A265.93588,265.93588,0,0,0,7.31381,41.19474v3l36.56328-4.6879a1.52758,1.52758,0,0,0,1.47321-1.30062,1.47949,1.47949,0,0,0-1.07445-1.6458,128.16492,128.16492,0,0,1-26.61751-6.91648l.35832,2.74163a166.47554,166.47554,0,0,1,30.6978-11.72384,1.51217,1.51217,0,0,0,0-2.89283,126.22,126.22,0,0,0-33.80412-3.95733c-1.97694.03758-1.87408,2.78323,0,3l36.6024,4.23372L51.114,18.09887,20.09685,25.6185c-1.77022.42916-1.16991,2.76078.39876,2.94642a179.61213,179.61213,0,0,0,29.46991,1.05015,1.50092,1.50092,0,0,0,0-3l-28.27437.043v3a323.7474,323.7474,0,0,1,34.411,1.17145v-3c-18.38692,1.37963-36.79935,2.7878-54.99464,5.87518A1.49437,1.49437,0,0,0,.0063,35.15107a12.27385,12.27385,0,0,0,7.8031,10.067c.96919.37912,1.84411-.57063,1.89876-1.44642A262.88452,262.88452,0,0,0,9.751,11.72844c-.09608-1.60905-2.55339-2.13235-2.94642-.39875Q5.84478,15.56311,4.885,19.79657c-.54408,2.41442-.63359,4.98971,1.94661,6.20859,2.24363,1.05989,5.1332,1.006,7.5587,1.313l8.96079,1.134v-3c-7.4049-.65055-16.51384-.675-21.21319,6.13122-.70518,1.02133.26355,2.162,1.2952,2.25708q16.79247,1.54817,33.66231,1.95577,4.21454.09982,8.43037.12679a47.51237,47.51237,0,0,0,7.84049-.13109,5,5,0,0,0,4.06718-4.04574,56.97025,56.97025,0,0,0,1.21222-7.81556A90.25149,90.25149,0,0,0,58.739,5.2346a1.53319,1.53319,0,0,0-1.5-1.5l-8.8996.05992c-1.64273.01106-2.09976,2.59606-.39876,2.94642a68.6975,68.6975,0,0,1,9.705,2.75436L56.59805,7.65012C56.168,8.88631,54.25138,9.07984,53.14952,9.1827c-2.15579.20126-4.32525.30561-6.48511.45691l-13.57376.9508a1.501,1.501,0,0,0,0,3q13.26749.73666,26.45853,2.39454v-3L9.32631,16.7059v3l45.76657-3.61636v-3C39.57753,15.05122,23.89876,17.04572,9.17137,22.57c-1.47952.555-1.41065,3.03476.39876,2.94642l49.32656-2.40808c1.60148-.07819,2.14287-2.612.39876-2.94642L8.43626,10.411,8.0375,13.35742q24.04066-2.7605,48.25718-3.37654v-3A200.88872,200.88872,0,0,1,6.05318,3.098L5.65442,6.04438q19.7329-.3593,39.44859.89913c3.09969.19955,6.30084.24226,9.37346.70476a2.52394,2.52394,0,0,1,2.33788,2.20749c.37621,1.46209.57684,2.98459.83886,4.47039q1.69588,9.61665,2.94771,19.30531.61147,4.75961,1.11571,9.53217.25852,2.44725.48875,4.89741c.04342.46231.42789,1.98165.203,2.31039a17.04455,17.04455,0,0,0-1.73849-.02892l-19.81184.19123-19.31654.18645-9.90592.09562c-.97165.00938-2.97786.41555-3.51912-.6232a3.83165,3.83165,0,0,1-.22567-1.60074c-.03784-.9907-.05169-1.98311-.07752-2.97422L6.66341,1.5l-1.5,1.5,27.8636.173,13.93179.0865,7.21469.0448c1.078.00669,2.15613.0112,3.23416.02008,1.16341.00958,1.4966-.04483,1.75517,1.12886a90.72987,90.72987,0,0,1,1.50027,26.74994q-.12856,1.55431-.3067,3.104a5.7879,5.7879,0,0,1-.77078,2.97514c-1.06007,1.2983-3.46318,1.596-4.96216,2.03988q-6.62263,1.96115-13.26111,3.8682-15.055,4.32492-30.18822,8.37076l1.89876,1.44642q-1.18675-23.673-.62345-47.38622c.04593-1.93124-2.95409-1.93048-3,0Z"/><path d="M26.20345,24.03038v4.56933l-6.38867-5.71093,6.38867-5.71192V21.7462H35.1473a10.45733,10.45733,0,0,1,7.23486,2.67773,8.47033,8.47033,0,0,1-.00879,12.91993,10.46531,10.46531,0,0,1-7.22607,2.67773H26.20345V37.73741H35.1473a7.85081,7.85081,0,0,0,5.42187-2.00684,6.35487,6.35487,0,0,0,0-9.69336,7.8508,7.8508,0,0,0-5.42187-2.00683Z"/></g></svg>