<svg id="圖層_1" data-name="圖層 1" xmlns="http://www.w3.org/2000/svg" viewBox="0 0 1532.95063 652.78476"><defs><style>.cls-1,.cls-2{fill:none;stroke-linejoin:bevel;stroke-width:5px;}.cls-1{stroke:#0073f7;}.cls-2{stroke:#ff4a03;}</style></defs><path class="cls-1" d="M28.11224,636.52484,25.42639,46.10074c-.02251-4.94911.1717-10.43478,3.83107-14.013,3.6853-3.60356,9.59275-4.01176,14.92375-4.19l208.70034-6.9782c414.63756-13.864,830.51527-27.70122,1243.9334,4.15009a27.39915,27.39915,0,0,1,24.85777,31.34684c-26.96078,183.84831,4.15651,372.65072-22.43619,556.92044-.71925,4.984-1.53838,10.11881-4.33433,14.41614-7.09714,10.90819-23.23563,12.111-36.89815,12.08925q-716.38833-1.14046-1432.77663-2.28088"/><path class="cls-2" d="M.26,619.483c332.44255,34.75772,683.58578,41.4044,1016.63839,13.23973,66.9655-5.663,133.99472-12.60217,201.18442-11.44625,97.0547,1.66973,195.05326,20.15062,290.462,2.08177-37.6455-163.98889,13.35881-333.925,21.55941-502.067q.15337-3.14476.27254-6.3193c2.2861-61.52837-48.76659-111.44813-109.52212-107.04824-74.56523,5.4-175.57743,9.52878-181.82359,9.83453C833.49866,37.60892,183.09986-5.85495,59.44929,3.96643,54.03169,4.39674,48.12754,5.04281,44.272,8.914c-3.915,3.93087-8.22454,16.86548-8.63421,22.428L7.86383,408.45563C2.26932,484.41778,3.48932,559.06346,17.98889,633.81242"/></svg>